<?xml version="1.0" encoding="UTF-8" standalone="no"?>
<!DOCTYPE svg PUBLIC "-//W3C//DTD SVG 1.1//EN"
 "http://www.w3.org/Graphics/SVG/1.1/DTD/svg11.dtd">
<!-- Generated by graphviz version 2.43.0 (0)
 -->
<!-- Title: include/align.h Pages: 1 -->
<svg width="570pt" height="302pt"
 viewBox="0.00 0.00 570.00 302.00" xmlns="http://www.w3.org/2000/svg" xmlns:xlink="http://www.w3.org/1999/xlink">
<g id="graph0" class="graph" transform="scale(1 1) rotate(0) translate(4 298)">
<title>include/align.h</title>
<!-- Node1 -->
<g id="Node000001" class="node">
<title>Node1</title>
<g id="a_Node000001"><a xlink:title="Memory alignment utilities and macros for cross&#45;platform alignment.">
<polygon fill="#999999" stroke="#666666" points="425.5,-294 337.5,-294 337.5,-275 425.5,-275 425.5,-294"/>
<text text-anchor="middle" x="381.5" y="-282" font-family="Helvetica,sans-Serif" font-size="10.00">include/align.h</text>
</a>
</g>
</g>
<!-- Node2 -->
<g id="Node000002" class="node">
<title>Node2</title>
<g id="a_Node000002"><a xlink:href="simd_8h.html" target="_top" xlink:title="Portable Single Instruction Multiple Data (SIMD) Intrinsics Wrapper.">
<polygon fill="white" stroke="#666666" points="321.5,-239 233.5,-239 233.5,-220 321.5,-220 321.5,-239"/>
<text text-anchor="middle" x="277.5" y="-227" font-family="Helvetica,sans-Serif" font-size="10.00">include/simd.h</text>
</a>
</g>
</g>
<!-- Node1&#45;&gt;Node2 -->
<g id="edge1_Node000001_Node000002" class="edge">
<title>Node1&#45;&gt;Node2</title>
<g id="a_edge1_Node000001_Node000002"><a xlink:title=" ">
<path fill="none" stroke="#63b8ff" d="M355.73,-270.37C336.63,-260.63 311.13,-247.64 294.51,-239.17"/>
<polygon fill="#63b8ff" stroke="#63b8ff" points="354.29,-273.56 364.79,-274.98 357.47,-267.33 354.29,-273.56"/>
</a>
</g>
</g>
<!-- Node3 -->
<g id="Node000003" class="node">
<title>Node3</title>
<g id="a_Node000003"><a xlink:href="solidc_8h.html" target="_top" xlink:title="Master header file that includes all SolidC library modules.">
<polygon fill="white" stroke="#666666" points="319.5,-19 227.5,-19 227.5,0 319.5,0 319.5,-19"/>
<text text-anchor="middle" x="273.5" y="-7" font-family="Helvetica,sans-Serif" font-size="10.00">include/solidc.h</text>
</a>
</g>
</g>
<!-- Node1&#45;&gt;Node3 -->
<g id="edge13_Node000001_Node000003" class="edge">
<title>Node1&#45;&gt;Node3</title>
<g id="a_edge13_Node000001_Node000003"><a xlink:title=" ">
<path fill="none" stroke="#63b8ff" d="M372.7,-265.51C363.23,-244.46 349.5,-208.29 349.5,-175.5 349.5,-175.5 349.5,-175.5 349.5,-118.5 349.5,-74.48 306.75,-35.74 285.38,-19.12"/>
<polygon fill="#63b8ff" stroke="#63b8ff" points="369.64,-267.23 377.05,-274.8 375.98,-264.26 369.64,-267.23"/>
</a>
</g>
</g>
<!-- Node9 -->
<g id="Node000009" class="node">
<title>Node9</title>
<g id="a_Node000009"><a xlink:href="cache_8c_source.html" target="_top" xlink:title=" ">
<polygon fill="white" stroke="#666666" points="449,-239 378,-239 378,-220 449,-220 449,-239"/>
<text text-anchor="middle" x="413.5" y="-227" font-family="Helvetica,sans-Serif" font-size="10.00">src/cache.c</text>
</a>
</g>
</g>
<!-- Node1&#45;&gt;Node9 -->
<g id="edge14_Node000001_Node000009" class="edge">
<title>Node1&#45;&gt;Node9</title>
<g id="a_edge14_Node000001_Node000009"><a xlink:title=" ">
<path fill="none" stroke="#63b8ff" d="M392,-266.1C397.47,-257.04 403.92,-246.37 408.31,-239.09"/>
<polygon fill="#63b8ff" stroke="#63b8ff" points="388.96,-264.38 386.78,-274.75 394.95,-268 388.96,-264.38"/>
</a>
</g>
</g>
<!-- Node10 -->
<g id="Node000010" class="node">
<title>Node10</title>
<g id="a_Node000010"><a xlink:href="threadpool_8c_source.html" target="_top" xlink:title=" ">
<polygon fill="white" stroke="#666666" points="562,-239 467,-239 467,-220 562,-220 562,-239"/>
<text text-anchor="middle" x="514.5" y="-227" font-family="Helvetica,sans-Serif" font-size="10.00">src/threadpool.c</text>
</a>
</g>
</g>
<!-- Node1&#45;&gt;Node10 -->
<g id="edge15_Node000001_Node000010" class="edge">
<title>Node1&#45;&gt;Node10</title>
<g id="a_edge15_Node000001_Node000010"><a xlink:title=" ">
<path fill="none" stroke="#63b8ff" d="M412.47,-271.16C437.09,-261.35 470.91,-247.87 492.74,-239.17"/>
<polygon fill="#63b8ff" stroke="#63b8ff" points="410.86,-268.03 402.87,-274.98 413.45,-274.53 410.86,-268.03"/>
</a>
</g>
</g>
<!-- Node2&#45;&gt;Node3 -->
<g id="edge2_Node000002_Node000003" class="edge">
<title>Node2&#45;&gt;Node3</title>
<g id="a_edge2_Node000002_Node000003"><a xlink:title=" ">
<path fill="none" stroke="#63b8ff" d="M277.16,-209.85C276.33,-164.82 274.25,-51.53 273.66,-19.22"/>
<polygon fill="#63b8ff" stroke="#63b8ff" points="273.66,-210.02 277.34,-219.95 280.66,-209.89 273.66,-210.02"/>
</a>
</g>
</g>
<!-- Node4 -->
<g id="Node000004" class="node">
<title>Node4</title>
<g id="a_Node000004"><a xlink:href="vec_8h_source.html" target="_top" xlink:title=" ">
<polygon fill="white" stroke="#666666" points="231,-184 150,-184 150,-165 231,-165 231,-184"/>
<text text-anchor="middle" x="190.5" y="-172" font-family="Helvetica,sans-Serif" font-size="10.00">include/vec.h</text>
</a>
</g>
</g>
<!-- Node2&#45;&gt;Node4 -->
<g id="edge3_Node000002_Node000004" class="edge">
<title>Node2&#45;&gt;Node4</title>
<g id="a_edge3_Node000002_Node000004"><a xlink:title=" ">
<path fill="none" stroke="#63b8ff" d="M254.84,-214.7C238.99,-205.04 218.31,-192.44 204.73,-184.17"/>
<polygon fill="#63b8ff" stroke="#63b8ff" points="253.16,-217.77 263.52,-219.98 256.8,-211.79 253.16,-217.77"/>
</a>
</g>
</g>
<!-- Node4&#45;&gt;Node3 -->
<g id="edge12_Node000004_Node000003" class="edge">
<title>Node4&#45;&gt;Node3</title>
<g id="a_edge12_Node000004_Node000003"><a xlink:title=" ">
<path fill="none" stroke="#63b8ff" d="M203.42,-156.69C217.61,-137.56 240.26,-104.95 254.5,-74 263.06,-55.39 268.9,-31.96 271.67,-19.41"/>
<polygon fill="#63b8ff" stroke="#63b8ff" points="200.43,-154.84 197.21,-164.93 206.02,-159.05 200.43,-154.84"/>
</a>
</g>
</g>
<!-- Node5 -->
<g id="Node000005" class="node">
<title>Node5</title>
<g id="a_Node000005"><a xlink:href="linear__alg_8h.html" target="_top" xlink:title="Linear algebra operations and utilities.">
<polygon fill="white" stroke="#666666" points="245.5,-74 133.5,-74 133.5,-55 245.5,-55 245.5,-74"/>
<text text-anchor="middle" x="189.5" y="-62" font-family="Helvetica,sans-Serif" font-size="10.00">include/linear_alg.h</text>
</a>
</g>
</g>
<!-- Node4&#45;&gt;Node5 -->
<g id="edge4_Node000004_Node000005" class="edge">
<title>Node4&#45;&gt;Node5</title>
<g id="a_edge4_Node000004_Node000005"><a xlink:title=" ">
<path fill="none" stroke="#63b8ff" d="M190.32,-154.48C190.11,-130.84 189.74,-91.5 189.58,-74.16"/>
<polygon fill="#63b8ff" stroke="#63b8ff" points="186.83,-154.69 190.42,-164.66 193.83,-154.63 186.83,-154.69"/>
</a>
</g>
</g>
<!-- Node6 -->
<g id="Node000006" class="node">
<title>Node6</title>
<g id="a_Node000006"><a xlink:href="matrix_8h.html" target="_top" xlink:title="Matrix operations and mathematical utilities.">
<polygon fill="white" stroke="#666666" points="162.5,-129 66.5,-129 66.5,-110 162.5,-110 162.5,-129"/>
<text text-anchor="middle" x="114.5" y="-117" font-family="Helvetica,sans-Serif" font-size="10.00">include/matrix.h</text>
</a>
</g>
</g>
<!-- Node4&#45;&gt;Node6 -->
<g id="edge6_Node000004_Node000006" class="edge">
<title>Node4&#45;&gt;Node6</title>
<g id="a_edge6_Node000004_Node000006"><a xlink:title=" ">
<path fill="none" stroke="#63b8ff" d="M169.92,-159.15C156.19,-149.57 138.57,-137.29 126.93,-129.17"/>
<polygon fill="#63b8ff" stroke="#63b8ff" points="168.08,-162.14 178.29,-164.98 172.09,-156.39 168.08,-162.14"/>
</a>
</g>
</g>
<!-- Node7 -->
<g id="Node000007" class="node">
<title>Node7</title>
<g id="a_Node000007"><a xlink:href="ml_8h.html" target="_top" xlink:title="Simple Machine Learning library using 4x4 Matrices and Vectors.">
<polygon fill="white" stroke="#666666" points="77,-74 0,-74 0,-55 77,-55 77,-74"/>
<text text-anchor="middle" x="38.5" y="-62" font-family="Helvetica,sans-Serif" font-size="10.00">include/ml.h</text>
</a>
</g>
</g>
<!-- Node4&#45;&gt;Node7 -->
<g id="edge11_Node000004_Node000007" class="edge">
<title>Node4&#45;&gt;Node7</title>
<g id="a_edge11_Node000004_Node000007"><a xlink:title=" ">
<path fill="none" stroke="#63b8ff" d="M139.84,-167.96C112.1,-162.4 79.07,-151.28 57.5,-129 42.77,-113.79 39.4,-87.64 38.67,-74.13"/>
<polygon fill="#63b8ff" stroke="#63b8ff" points="139.33,-171.42 149.79,-169.76 140.58,-164.53 139.33,-171.42"/>
</a>
</g>
</g>
<!-- Node5&#45;&gt;Node3 -->
<g id="edge5_Node000005_Node000003" class="edge">
<title>Node5&#45;&gt;Node3</title>
<g id="a_edge5_Node000005_Node000003"><a xlink:title=" ">
<path fill="none" stroke="#63b8ff" d="M211.81,-49.42C227.05,-39.81 246.77,-27.37 259.76,-19.17"/>
<polygon fill="#63b8ff" stroke="#63b8ff" points="209.59,-46.69 203,-54.98 213.32,-52.61 209.59,-46.69"/>
</a>
</g>
</g>
<!-- Node6&#45;&gt;Node3 -->
<g id="edge10_Node000006_Node000003" class="edge">
<title>Node6&#45;&gt;Node3</title>
<g id="a_edge10_Node000006_Node000003"><a xlink:title=" ">
<path fill="none" stroke="#63b8ff" d="M112.49,-99.55C112.09,-85.61 113.94,-67.08 124.5,-55 150,-25.83 193.73,-15.38 227.24,-11.83"/>
<polygon fill="#63b8ff" stroke="#63b8ff" points="109.03,-100.2 113.22,-109.93 116.01,-99.7 109.03,-100.2"/>
</a>
</g>
</g>
<!-- Node6&#45;&gt;Node5 -->
<g id="edge7_Node000006_Node000005" class="edge">
<title>Node6&#45;&gt;Node5</title>
<g id="a_edge7_Node000006_Node000005"><a xlink:title=" ">
<path fill="none" stroke="#63b8ff" d="M134.81,-104.15C148.36,-94.57 165.74,-82.29 177.23,-74.17"/>
<polygon fill="#63b8ff" stroke="#63b8ff" points="132.7,-101.36 126.55,-109.98 136.74,-107.07 132.7,-101.36"/>
</a>
</g>
</g>
<!-- Node6&#45;&gt;Node7 -->
<g id="edge8_Node000006_Node000007" class="edge">
<title>Node6&#45;&gt;Node7</title>
<g id="a_edge8_Node000006_Node000007"><a xlink:title=" ">
<path fill="none" stroke="#63b8ff" d="M93.92,-104.15C80.19,-94.57 62.57,-82.29 50.93,-74.17"/>
<polygon fill="#63b8ff" stroke="#63b8ff" points="92.08,-107.14 102.29,-109.98 96.09,-101.39 92.08,-107.14"/>
</a>
</g>
</g>
<!-- Node8 -->
<g id="Node000008" class="node">
<title>Node8</title>
<g id="a_Node000008"><a xlink:href="ml_8c_source.html" target="_top" xlink:title=" ">
<polygon fill="white" stroke="#666666" points="66,-19 11,-19 11,0 66,0 66,-19"/>
<text text-anchor="middle" x="38.5" y="-7" font-family="Helvetica,sans-Serif" font-size="10.00">src/ml.c</text>
</a>
</g>
</g>
<!-- Node7&#45;&gt;Node8 -->
<g id="edge9_Node000007_Node000008" class="edge">
<title>Node7&#45;&gt;Node8</title>
<g id="a_edge9_Node000007_Node000008"><a xlink:title=" ">
<path fill="none" stroke="#63b8ff" d="M38.5,-44.66C38.5,-35.93 38.5,-25.99 38.5,-19.09"/>
<polygon fill="#63b8ff" stroke="#63b8ff" points="35,-44.75 38.5,-54.75 42,-44.75 35,-44.75"/>
</a>
</g>
</g>
</g>
</svg>
