<?xml version="1.0" encoding="UTF-8" standalone="no"?>
<!DOCTYPE svg PUBLIC "-//W3C//DTD SVG 1.1//EN"
 "http://www.w3.org/Graphics/SVG/1.1/DTD/svg11.dtd">
<!-- Generated by graphviz version 2.43.0 (0)
 -->
<!-- Title: include/align.h Pages: 1 -->
<svg width="311pt" height="247pt"
 viewBox="0.00 0.00 310.50 247.00" xmlns="http://www.w3.org/2000/svg" xmlns:xlink="http://www.w3.org/1999/xlink">
<g id="graph0" class="graph" transform="scale(1 1) rotate(0) translate(4 243)">
<title>include/align.h</title>
<!-- Node1 -->
<g id="Node000001" class="node">
<title>Node1</title>
<g id="a_Node000001"><a xlink:title="Memory alignment utilities and macros for cross&#45;platform alignment.">
<polygon fill="#999999" stroke="#666666" points="198,-239 110,-239 110,-220 198,-220 198,-239"/>
<text text-anchor="middle" x="154" y="-227" font-family="Helvetica,sans-Serif" font-size="10.00">include/align.h</text>
</a>
</g>
</g>
<!-- Node2 -->
<g id="Node000002" class="node">
<title>Node2</title>
<g id="a_Node000002"><a xlink:href="simd_8h.html" target="_top" xlink:title="Portable Single Instruction Multiple Data (SIMD) Intrinsics Wrapper.">
<polygon fill="white" stroke="#666666" points="100,-184 12,-184 12,-165 100,-165 100,-184"/>
<text text-anchor="middle" x="56" y="-172" font-family="Helvetica,sans-Serif" font-size="10.00">include/simd.h</text>
</a>
</g>
</g>
<!-- Node1&#45;&gt;Node2 -->
<g id="edge1_Node000001_Node000002" class="edge">
<title>Node1&#45;&gt;Node2</title>
<g id="a_edge1_Node000001_Node000002"><a xlink:title=" ">
<path fill="none" stroke="#63b8ff" d="M128.97,-214.97C111.06,-205.28 87.47,-192.52 72.03,-184.17"/>
<polygon fill="#63b8ff" stroke="#63b8ff" points="127.79,-218.31 138.25,-219.98 131.12,-212.15 127.79,-218.31"/>
</a>
</g>
</g>
<!-- Node6 -->
<g id="Node000006" class="node">
<title>Node6</title>
<g id="a_Node000006"><a xlink:href="cache_8c_source.html" target="_top" xlink:title=" ">
<polygon fill="white" stroke="#666666" points="189.5,-184 118.5,-184 118.5,-165 189.5,-165 189.5,-184"/>
<text text-anchor="middle" x="154" y="-172" font-family="Helvetica,sans-Serif" font-size="10.00">src/cache.c</text>
</a>
</g>
</g>
<!-- Node1&#45;&gt;Node6 -->
<g id="edge6_Node000001_Node000006" class="edge">
<title>Node1&#45;&gt;Node6</title>
<g id="a_edge6_Node000001_Node000006"><a xlink:title=" ">
<path fill="none" stroke="#63b8ff" d="M154,-209.66C154,-200.93 154,-190.99 154,-184.09"/>
<polygon fill="#63b8ff" stroke="#63b8ff" points="150.5,-209.75 154,-219.75 157.5,-209.75 150.5,-209.75"/>
</a>
</g>
</g>
<!-- Node7 -->
<g id="Node000007" class="node">
<title>Node7</title>
<g id="a_Node000007"><a xlink:href="threadpool_8c_source.html" target="_top" xlink:title=" ">
<polygon fill="white" stroke="#666666" points="302.5,-184 207.5,-184 207.5,-165 302.5,-165 302.5,-184"/>
<text text-anchor="middle" x="255" y="-172" font-family="Helvetica,sans-Serif" font-size="10.00">src/threadpool.c</text>
</a>
</g>
</g>
<!-- Node1&#45;&gt;Node7 -->
<g id="edge7_Node000001_Node000007" class="edge">
<title>Node1&#45;&gt;Node7</title>
<g id="a_edge7_Node000001_Node000007"><a xlink:title=" ">
<path fill="none" stroke="#63b8ff" d="M179.28,-215.23C197.8,-205.51 222.42,-192.6 238.48,-184.17"/>
<polygon fill="#63b8ff" stroke="#63b8ff" points="177.46,-212.24 170.23,-219.98 180.71,-218.44 177.46,-212.24"/>
</a>
</g>
</g>
<!-- Node3 -->
<g id="Node000003" class="node">
<title>Node3</title>
<g id="a_Node000003"><a xlink:href="vec_8h_source.html" target="_top" xlink:title=" ">
<polygon fill="white" stroke="#666666" points="96.5,-129 15.5,-129 15.5,-110 96.5,-110 96.5,-129"/>
<text text-anchor="middle" x="56" y="-117" font-family="Helvetica,sans-Serif" font-size="10.00">include/vec.h</text>
</a>
</g>
</g>
<!-- Node2&#45;&gt;Node3 -->
<g id="edge2_Node000002_Node000003" class="edge">
<title>Node2&#45;&gt;Node3</title>
<g id="a_edge2_Node000002_Node000003"><a xlink:title=" ">
<path fill="none" stroke="#63b8ff" d="M56,-154.66C56,-145.93 56,-135.99 56,-129.09"/>
<polygon fill="#63b8ff" stroke="#63b8ff" points="52.5,-154.75 56,-164.75 59.5,-154.75 52.5,-154.75"/>
</a>
</g>
</g>
<!-- Node4 -->
<g id="Node000004" class="node">
<title>Node4</title>
<g id="a_Node000004"><a xlink:href="linear__alg_8h.html" target="_top" xlink:title="Linear algebra operations and utilities.">
<polygon fill="white" stroke="#666666" points="112,-19 0,-19 0,0 112,0 112,-19"/>
<text text-anchor="middle" x="56" y="-7" font-family="Helvetica,sans-Serif" font-size="10.00">include/linear_alg.h</text>
</a>
</g>
</g>
<!-- Node3&#45;&gt;Node4 -->
<g id="edge3_Node000003_Node000004" class="edge">
<title>Node3&#45;&gt;Node4</title>
<g id="a_edge3_Node000003_Node000004"><a xlink:title=" ">
<path fill="none" stroke="#63b8ff" d="M46.57,-100.96C42.79,-92.97 38.89,-83.26 37,-74 32.9,-53.93 43.68,-31.07 50.64,-19"/>
<polygon fill="#63b8ff" stroke="#63b8ff" points="43.49,-102.63 51.12,-109.98 49.74,-99.47 43.49,-102.63"/>
</a>
</g>
</g>
<!-- Node5 -->
<g id="Node000005" class="node">
<title>Node5</title>
<g id="a_Node000005"><a xlink:href="matrix_8h.html" target="_top" xlink:title="Matrix operations and mathematical utilities.">
<polygon fill="white" stroke="#666666" points="142,-74 46,-74 46,-55 142,-55 142,-74"/>
<text text-anchor="middle" x="94" y="-62" font-family="Helvetica,sans-Serif" font-size="10.00">include/matrix.h</text>
</a>
</g>
</g>
<!-- Node3&#45;&gt;Node5 -->
<g id="edge4_Node000003_Node000005" class="edge">
<title>Node3&#45;&gt;Node5</title>
<g id="a_edge4_Node000003_Node000005"><a xlink:title=" ">
<path fill="none" stroke="#63b8ff" d="M68.27,-101.39C74.81,-92.27 82.57,-81.45 87.84,-74.09"/>
<polygon fill="#63b8ff" stroke="#63b8ff" points="65.26,-99.58 62.27,-109.75 70.95,-103.66 65.26,-99.58"/>
</a>
</g>
</g>
<!-- Node5&#45;&gt;Node4 -->
<g id="edge5_Node000005_Node000004" class="edge">
<title>Node5&#45;&gt;Node4</title>
<g id="a_edge5_Node000005_Node000004"><a xlink:title=" ">
<path fill="none" stroke="#63b8ff" d="M81.73,-46.39C75.19,-37.27 67.43,-26.45 62.16,-19.09"/>
<polygon fill="#63b8ff" stroke="#63b8ff" points="79.05,-48.66 87.73,-54.75 84.74,-44.58 79.05,-48.66"/>
</a>
</g>
</g>
</g>
</svg>
