<?xml version="1.0" encoding="UTF-8" standalone="no"?>
<!DOCTYPE svg PUBLIC "-//W3C//DTD SVG 1.1//EN"
 "http://www.w3.org/Graphics/SVG/1.1/DTD/svg11.dtd">
<!-- Generated by graphviz version 2.43.0 (0)
 -->
<!-- Title: include/aligned_alloc.h Pages: 1 -->
<svg width="281pt" height="82pt"
 viewBox="0.00 0.00 280.50 82.00" xmlns="http://www.w3.org/2000/svg" xmlns:xlink="http://www.w3.org/1999/xlink">
<g id="graph0" class="graph" transform="scale(1 1) rotate(0) translate(4 78)">
<title>include/aligned_alloc.h</title>
<!-- Node1 -->
<g id="Node000001" class="node">
<title>Node1</title>
<g id="a_Node000001"><a xlink:title="Aligned memory allocation functions for cross&#45;platform support.">
<polygon fill="#999999" stroke="#666666" points="188,-74 60,-74 60,-55 188,-55 188,-74"/>
<text text-anchor="middle" x="124" y="-62" font-family="Helvetica,sans-Serif" font-size="10.00">include/aligned_alloc.h</text>
</a>
</g>
</g>
<!-- Node2 -->
<g id="Node000002" class="node">
<title>Node2</title>
<g id="a_Node000002"><a xlink:href="arena_8c_source.html" target="_top" xlink:title=" ">
<polygon fill="white" stroke="#666666" points="70,-19 0,-19 0,0 70,0 70,-19"/>
<text text-anchor="middle" x="35" y="-7" font-family="Helvetica,sans-Serif" font-size="10.00">src/arena.c</text>
</a>
</g>
</g>
<!-- Node1&#45;&gt;Node2 -->
<g id="edge1_Node000001_Node000002" class="edge">
<title>Node1&#45;&gt;Node2</title>
<g id="a_edge1_Node000001_Node000002"><a xlink:title=" ">
<path fill="none" stroke="#63b8ff" d="M100.82,-49.7C84.61,-40.04 63.45,-27.44 49.56,-19.17"/>
<polygon fill="#63b8ff" stroke="#63b8ff" points="99.32,-52.88 109.7,-54.98 102.9,-46.86 99.32,-52.88"/>
</a>
</g>
</g>
<!-- Node3 -->
<g id="Node000003" class="node">
<title>Node3</title>
<g id="a_Node000003"><a xlink:href="cache_8c_source.html" target="_top" xlink:title=" ">
<polygon fill="white" stroke="#666666" points="159.5,-19 88.5,-19 88.5,0 159.5,0 159.5,-19"/>
<text text-anchor="middle" x="124" y="-7" font-family="Helvetica,sans-Serif" font-size="10.00">src/cache.c</text>
</a>
</g>
</g>
<!-- Node1&#45;&gt;Node3 -->
<g id="edge2_Node000001_Node000003" class="edge">
<title>Node1&#45;&gt;Node3</title>
<g id="a_edge2_Node000001_Node000003"><a xlink:title=" ">
<path fill="none" stroke="#63b8ff" d="M124,-44.66C124,-35.93 124,-25.99 124,-19.09"/>
<polygon fill="#63b8ff" stroke="#63b8ff" points="120.5,-44.75 124,-54.75 127.5,-44.75 120.5,-44.75"/>
</a>
</g>
</g>
<!-- Node4 -->
<g id="Node000004" class="node">
<title>Node4</title>
<g id="a_Node000004"><a xlink:href="threadpool_8c_source.html" target="_top" xlink:title=" ">
<polygon fill="white" stroke="#666666" points="272.5,-19 177.5,-19 177.5,0 272.5,0 272.5,-19"/>
<text text-anchor="middle" x="225" y="-7" font-family="Helvetica,sans-Serif" font-size="10.00">src/threadpool.c</text>
</a>
</g>
</g>
<!-- Node1&#45;&gt;Node4 -->
<g id="edge3_Node000001_Node000004" class="edge">
<title>Node1&#45;&gt;Node4</title>
<g id="a_edge3_Node000001_Node000004"><a xlink:title=" ">
<path fill="none" stroke="#63b8ff" d="M149.28,-50.23C167.8,-40.51 192.42,-27.6 208.48,-19.17"/>
<polygon fill="#63b8ff" stroke="#63b8ff" points="147.46,-47.24 140.23,-54.98 150.71,-53.44 147.46,-47.24"/>
</a>
</g>
</g>
</g>
</svg>
