<?xml version="1.0" encoding="UTF-8" standalone="no"?>
<!DOCTYPE svg PUBLIC "-//W3C//DTD SVG 1.1//EN"
 "http://www.w3.org/Graphics/SVG/1.1/DTD/svg11.dtd">
<!-- Generated by graphviz version 2.43.0 (0)
 -->
<!-- Title: include/align.h Pages: 1 -->
<svg width="453pt" height="302pt"
 viewBox="0.00 0.00 453.07 302.00" xmlns="http://www.w3.org/2000/svg" xmlns:xlink="http://www.w3.org/1999/xlink">

<svg id="main" version="1.1" xmlns="http://www.w3.org/2000/svg" xmlns:xlink="http://www.w3.org/1999/xlink" xml:space="preserve" onload="init(evt)">
<style type="text/css"><![CDATA[
.node, .edge {opacity: 0.7;}
.node.selected, .edge.selected {opacity: 1;}
.edge:hover path { stroke: red; }
.edge:hover polygon { stroke: red; fill: red; }
]]></style>
<script type="application/ecmascript" xlink:href="svg.min.js"/>
<svg id="graph" class="graph">
<g id="graph0" class="graph" transform="scale(1 1) rotate(0) translate(4 298)">
<title>include/align.h</title>
<!-- Node1 -->
<g id="Node000001" class="node">
<title>Node1</title>
<g id="a_Node000001"><a xlink:title="Memory alignment utilities and macros for cross&#45;platform alignment.">
<polygon fill="#999999" stroke="#666666" points="308.57,-294 220.57,-294 220.57,-275 308.57,-275 308.57,-294"/>
<text text-anchor="middle" x="264.57" y="-282" font-family="Helvetica,sans-Serif" font-size="10.00">include/align.h</text>
</a>
</g>
</g>
<!-- Node2 -->
<g id="Node000002" class="node">
<title>Node2</title>
<g id="a_Node000002"><a xlink:href="simd_8h.html" target="_top" xlink:title="Portable Single Instruction Multiple Data (SIMD) Intrinsics Wrapper.">
<polygon fill="white" stroke="#666666" points="116.57,-239 28.57,-239 28.57,-220 116.57,-220 116.57,-239"/>
<text text-anchor="middle" x="72.57" y="-227" font-family="Helvetica,sans-Serif" font-size="10.00">include/simd.h</text>
</a>
</g>
</g>
<!-- Node1&#45;&gt;Node2 -->
<g id="edge1_Node000001_Node000002" class="edge">
<title>Node1&#45;&gt;Node2</title>
<g id="a_edge1_Node000001_Node000002"><a xlink:title=" ">
<path fill="none" stroke="#63b8ff" d="M224.04,-272.31C188.11,-262.39 136.41,-248.12 103.66,-239.08"/>
<polygon fill="#63b8ff" stroke="#63b8ff" points="223.15,-275.7 233.72,-274.98 225.01,-268.95 223.15,-275.7"/>
</a>
</g>
</g>
<!-- Node3 -->
<g id="Node000003" class="node">
<title>Node3</title>
<g id="a_Node000003"><a xlink:href="solidc_8h.html" target="_top" xlink:title="Master header file that includes all SolidC library modules.">
<polygon fill="white" stroke="#666666" points="156.57,-19 64.57,-19 64.57,0 156.57,0 156.57,-19"/>
<text text-anchor="middle" x="110.57" y="-7" font-family="Helvetica,sans-Serif" font-size="10.00">include/solidc.h</text>
</a>
</g>
</g>
<!-- Node1&#45;&gt;Node3 -->
<g id="edge10_Node000001_Node000003" class="edge">
<title>Node1&#45;&gt;Node3</title>
<g id="a_edge10_Node000001_Node000003"><a xlink:title=" ">
<path fill="none" stroke="#63b8ff" d="M255.77,-265.51C246.3,-244.46 232.57,-208.29 232.57,-175.5 232.57,-175.5 232.57,-175.5 232.57,-118.5 232.57,-66.59 169.89,-33.61 134.38,-19.09"/>
<polygon fill="#63b8ff" stroke="#63b8ff" points="252.71,-267.23 260.12,-274.8 259.05,-264.26 252.71,-267.23"/>
</a>
</g>
</g>
<!-- Node7 -->
<g id="Node000007" class="node">
<title>Node7</title>
<g id="a_Node000007"><a xlink:href="cache_8c_source.html" target="_top" xlink:title=" ">
<polygon fill="white" stroke="#666666" points="332.07,-239 261.07,-239 261.07,-220 332.07,-220 332.07,-239"/>
<text text-anchor="middle" x="296.57" y="-227" font-family="Helvetica,sans-Serif" font-size="10.00">src/cache.c</text>
</a>
</g>
</g>
<!-- Node1&#45;&gt;Node7 -->
<g id="edge11_Node000001_Node000007" class="edge">
<title>Node1&#45;&gt;Node7</title>
<g id="a_edge11_Node000001_Node000007"><a xlink:title=" ">
<path fill="none" stroke="#63b8ff" d="M275.07,-266.1C280.54,-257.04 286.99,-246.37 291.39,-239.09"/>
<polygon fill="#63b8ff" stroke="#63b8ff" points="272.03,-264.38 269.86,-274.75 278.02,-268 272.03,-264.38"/>
</a>
</g>
</g>
<!-- Node8 -->
<g id="Node000008" class="node">
<title>Node8</title>
<g id="a_Node000008"><a xlink:href="threadpool_8c_source.html" target="_top" xlink:title=" ">
<polygon fill="white" stroke="#666666" points="445.07,-239 350.07,-239 350.07,-220 445.07,-220 445.07,-239"/>
<text text-anchor="middle" x="397.57" y="-227" font-family="Helvetica,sans-Serif" font-size="10.00">src/threadpool.c</text>
</a>
</g>
</g>
<!-- Node1&#45;&gt;Node8 -->
<g id="edge12_Node000001_Node000008" class="edge">
<title>Node1&#45;&gt;Node8</title>
<g id="a_edge12_Node000001_Node000008"><a xlink:title=" ">
<path fill="none" stroke="#63b8ff" d="M295.54,-271.16C320.16,-261.35 353.98,-247.87 375.81,-239.17"/>
<polygon fill="#63b8ff" stroke="#63b8ff" points="293.93,-268.03 285.94,-274.98 296.52,-274.53 293.93,-268.03"/>
</a>
</g>
</g>
<!-- Node2&#45;&gt;Node3 -->
<g id="edge2_Node000002_Node000003" class="edge">
<title>Node2&#45;&gt;Node3</title>
<g id="a_edge2_Node000002_Node000003"><a xlink:title=" ">
<path fill="none" stroke="#63b8ff" d="M48.92,-214.09C38.8,-206.52 28.07,-196.26 22.57,-184 8.42,-152.46 -26.29,-151.36 36.57,-55 47.87,-37.67 68.49,-26.1 85.1,-19.1"/>
<polygon fill="#63b8ff" stroke="#63b8ff" points="46.93,-216.97 57.14,-219.8 50.92,-211.22 46.93,-216.97"/>
</a>
</g>
</g>
<!-- Node4 -->
<g id="Node000004" class="node">
<title>Node4</title>
<g id="a_Node000004"><a xlink:href="vec_8h_source.html" target="_top" xlink:title=" ">
<polygon fill="white" stroke="#666666" points="113.07,-184 32.07,-184 32.07,-165 113.07,-165 113.07,-184"/>
<text text-anchor="middle" x="72.57" y="-172" font-family="Helvetica,sans-Serif" font-size="10.00">include/vec.h</text>
</a>
</g>
</g>
<!-- Node2&#45;&gt;Node4 -->
<g id="edge3_Node000002_Node000004" class="edge">
<title>Node2&#45;&gt;Node4</title>
<g id="a_edge3_Node000002_Node000004"><a xlink:title=" ">
<path fill="none" stroke="#63b8ff" d="M72.57,-209.66C72.57,-200.93 72.57,-190.99 72.57,-184.09"/>
<polygon fill="#63b8ff" stroke="#63b8ff" points="69.07,-209.75 72.57,-219.75 76.07,-209.75 69.07,-209.75"/>
</a>
</g>
</g>
<!-- Node4&#45;&gt;Node3 -->
<g id="edge9_Node000004_Node000003" class="edge">
<title>Node4&#45;&gt;Node3</title>
<g id="a_edge9_Node000004_Node000003"><a xlink:title=" ">
<path fill="none" stroke="#63b8ff" d="M61.59,-156.27C47.85,-132.31 28.1,-88.14 45.57,-55 54.56,-37.94 73.37,-26.18 88.45,-19.05"/>
<polygon fill="#63b8ff" stroke="#63b8ff" points="58.66,-158.18 66.82,-164.94 64.66,-154.57 58.66,-158.18"/>
</a>
</g>
</g>
<!-- Node5 -->
<g id="Node000005" class="node">
<title>Node5</title>
<g id="a_Node000005"><a xlink:href="linear__alg_8h.html" target="_top" xlink:title="Linear algebra operations and utilities.">
<polygon fill="white" stroke="#666666" points="166.57,-74 54.57,-74 54.57,-55 166.57,-55 166.57,-74"/>
<text text-anchor="middle" x="110.57" y="-62" font-family="Helvetica,sans-Serif" font-size="10.00">include/linear_alg.h</text>
</a>
</g>
</g>
<!-- Node4&#45;&gt;Node5 -->
<g id="edge4_Node000004_Node000005" class="edge">
<title>Node4&#45;&gt;Node5</title>
<g id="a_edge4_Node000004_Node000005"><a xlink:title=" ">
<path fill="none" stroke="#63b8ff" d="M77.54,-154.89C81.09,-142.14 86.18,-124.9 91.57,-110 96.14,-97.36 102.42,-83.14 106.49,-74.25"/>
<polygon fill="#63b8ff" stroke="#63b8ff" points="74.1,-154.2 74.85,-164.77 80.85,-156.04 74.1,-154.2"/>
</a>
</g>
</g>
<!-- Node6 -->
<g id="Node000006" class="node">
<title>Node6</title>
<g id="a_Node000006"><a xlink:href="matrix_8h.html" target="_top" xlink:title="Matrix operations and mathematical utilities.">
<polygon fill="white" stroke="#666666" points="196.57,-129 100.57,-129 100.57,-110 196.57,-110 196.57,-129"/>
<text text-anchor="middle" x="148.57" y="-117" font-family="Helvetica,sans-Serif" font-size="10.00">include/matrix.h</text>
</a>
</g>
</g>
<!-- Node4&#45;&gt;Node6 -->
<g id="edge6_Node000004_Node000006" class="edge">
<title>Node4&#45;&gt;Node6</title>
<g id="a_edge6_Node000004_Node000006"><a xlink:title=" ">
<path fill="none" stroke="#63b8ff" d="M93.15,-159.15C106.88,-149.57 124.5,-137.29 136.14,-129.17"/>
<polygon fill="#63b8ff" stroke="#63b8ff" points="90.98,-156.39 84.78,-164.98 94.99,-162.14 90.98,-156.39"/>
</a>
</g>
</g>
<!-- Node5&#45;&gt;Node3 -->
<g id="edge5_Node000005_Node000003" class="edge">
<title>Node5&#45;&gt;Node3</title>
<g id="a_edge5_Node000005_Node000003"><a xlink:title=" ">
<path fill="none" stroke="#63b8ff" d="M110.57,-44.66C110.57,-35.93 110.57,-25.99 110.57,-19.09"/>
<polygon fill="#63b8ff" stroke="#63b8ff" points="107.07,-44.75 110.57,-54.75 114.07,-44.75 107.07,-44.75"/>
</a>
</g>
</g>
<!-- Node6&#45;&gt;Node3 -->
<g id="edge8_Node000006_Node000003" class="edge">
<title>Node6&#45;&gt;Node3</title>
<g id="a_edge8_Node000006_Node000003"><a xlink:title=" ">
<path fill="none" stroke="#63b8ff" d="M163.76,-101.98C173.8,-88.95 183.73,-70.47 175.57,-55 166.58,-37.94 147.77,-26.18 132.69,-19.05"/>
<polygon fill="#63b8ff" stroke="#63b8ff" points="161.06,-99.74 157.33,-109.66 166.43,-104.23 161.06,-99.74"/>
</a>
</g>
</g>
<!-- Node6&#45;&gt;Node5 -->
<g id="edge7_Node000006_Node000005" class="edge">
<title>Node6&#45;&gt;Node5</title>
<g id="a_edge7_Node000006_Node000005"><a xlink:title=" ">
<path fill="none" stroke="#63b8ff" d="M136.3,-101.39C129.76,-92.27 122,-81.45 116.73,-74.09"/>
<polygon fill="#63b8ff" stroke="#63b8ff" points="133.62,-103.66 142.3,-109.75 139.31,-99.58 133.62,-103.66"/>
</a>
</g>
</g>
</g>
</svg>
</svg>

<style type='text/css'>
<![CDATA[
[data-mouse-over-selected='false'] { opacity: 0.7; }
[data-mouse-over-selected='true']  { opacity: 1.0; }
]]>
</style>
<script type="application/ecmascript"><![CDATA[
document.addEventListener('DOMContentLoaded', (event) => {
  highlightEdges();
  highlightAdjacentNodes();
});
]]></script>
</svg>
