<?xml version="1.0" encoding="UTF-8" standalone="no"?>
<!DOCTYPE svg PUBLIC "-//W3C//DTD SVG 1.1//EN"
 "http://www.w3.org/Graphics/SVG/1.1/DTD/svg11.dtd">
<!-- Generated by graphviz version 2.43.0 (0)
 -->
<!-- Title: include/cmp.h Pages: 1 -->
<svg width="205pt" height="137pt"
 viewBox="0.00 0.00 205.00 137.00" xmlns="http://www.w3.org/2000/svg" xmlns:xlink="http://www.w3.org/1999/xlink">
<g id="graph0" class="graph" transform="scale(1 1) rotate(0) translate(4 133)">
<title>include/cmp.h</title>
<!-- Node1 -->
<g id="Node000001" class="node">
<title>Node1</title>
<g id="a_Node000001"><a xlink:title="Floating&#45;point comparison library for precise and robust comparisons.">
<polygon fill="#999999" stroke="#666666" points="148.5,-129 63.5,-129 63.5,-110 148.5,-110 148.5,-129"/>
<text text-anchor="middle" x="106" y="-117" font-family="Helvetica,sans-Serif" font-size="10.00">include/cmp.h</text>
</a>
</g>
</g>
<!-- Node2 -->
<g id="Node000002" class="node">
<title>Node2</title>
<g id="a_Node000002"><a xlink:href="map_8h.html" target="_top" xlink:title="Generic hash map implementation with customizable hashing and load balancing.">
<polygon fill="white" stroke="#666666" points="149,-74 63,-74 63,-55 149,-55 149,-74"/>
<text text-anchor="middle" x="106" y="-62" font-family="Helvetica,sans-Serif" font-size="10.00">include/map.h</text>
</a>
</g>
</g>
<!-- Node1&#45;&gt;Node2 -->
<g id="edge1_Node000001_Node000002" class="edge">
<title>Node1&#45;&gt;Node2</title>
<g id="a_edge1_Node000001_Node000002"><a xlink:title=" ">
<path fill="none" stroke="#63b8ff" d="M106,-99.66C106,-90.93 106,-80.99 106,-74.09"/>
<polygon fill="#63b8ff" stroke="#63b8ff" points="102.5,-99.75 106,-109.75 109.5,-99.75 102.5,-99.75"/>
</a>
</g>
</g>
<!-- Node3 -->
<g id="Node000003" class="node">
<title>Node3</title>
<g id="a_Node000003"><a xlink:href="solidc_8h.html" target="_top" xlink:title="Master header file that includes all SolidC library modules.">
<polygon fill="white" stroke="#666666" points="92,-19 0,-19 0,0 92,0 92,-19"/>
<text text-anchor="middle" x="46" y="-7" font-family="Helvetica,sans-Serif" font-size="10.00">include/solidc.h</text>
</a>
</g>
</g>
<!-- Node1&#45;&gt;Node3 -->
<g id="edge4_Node000001_Node000003" class="edge">
<title>Node1&#45;&gt;Node3</title>
<g id="a_edge4_Node000001_Node000003"><a xlink:title=" ">
<path fill="none" stroke="#63b8ff" d="M82.12,-103.94C71.75,-96.34 60.52,-86.1 54,-74 44.51,-56.39 44.41,-32.15 45.19,-19.31"/>
<polygon fill="#63b8ff" stroke="#63b8ff" points="80.27,-106.92 90.5,-109.69 84.23,-101.15 80.27,-106.92"/>
</a>
</g>
</g>
<!-- Node4 -->
<g id="Node000004" class="node">
<title>Node4</title>
<g id="a_Node000004"><a xlink:href="map_8c_source.html" target="_top" xlink:title=" ">
<polygon fill="white" stroke="#666666" points="197,-19 133,-19 133,0 197,0 197,-19"/>
<text text-anchor="middle" x="165" y="-7" font-family="Helvetica,sans-Serif" font-size="10.00">src/map.c</text>
</a>
</g>
</g>
<!-- Node1&#45;&gt;Node4 -->
<g id="edge5_Node000001_Node000004" class="edge">
<title>Node1&#45;&gt;Node4</title>
<g id="a_edge5_Node000001_Node000004"><a xlink:title=" ">
<path fill="none" stroke="#63b8ff" d="M129.97,-103.99C140.35,-96.4 151.58,-86.15 158,-74 167.33,-56.35 167,-32.13 165.98,-19.3"/>
<polygon fill="#63b8ff" stroke="#63b8ff" points="127.85,-101.19 121.57,-109.72 131.8,-106.98 127.85,-101.19"/>
</a>
</g>
</g>
<!-- Node2&#45;&gt;Node3 -->
<g id="edge2_Node000002_Node000003" class="edge">
<title>Node2&#45;&gt;Node3</title>
<g id="a_edge2_Node000002_Node000003"><a xlink:title=" ">
<path fill="none" stroke="#63b8ff" d="M88.82,-48.32C78.12,-38.87 64.74,-27.06 55.82,-19.17"/>
<polygon fill="#63b8ff" stroke="#63b8ff" points="86.55,-50.99 96.36,-54.98 91.18,-45.74 86.55,-50.99"/>
</a>
</g>
</g>
<!-- Node2&#45;&gt;Node4 -->
<g id="edge3_Node000002_Node000004" class="edge">
<title>Node2&#45;&gt;Node4</title>
<g id="a_edge3_Node000002_Node000004"><a xlink:title=" ">
<path fill="none" stroke="#63b8ff" d="M123.2,-48.04C133.67,-38.64 146.65,-26.98 155.35,-19.17"/>
<polygon fill="#63b8ff" stroke="#63b8ff" points="120.58,-45.7 115.48,-54.98 125.26,-50.91 120.58,-45.7"/>
</a>
</g>
</g>
</g>
</svg>
