<?xml version="1.0" encoding="UTF-8" standalone="no"?>
<!DOCTYPE svg PUBLIC "-//W3C//DTD SVG 1.1//EN"
 "http://www.w3.org/Graphics/SVG/1.1/DTD/svg11.dtd">
<!-- Generated by graphviz version 2.43.0 (0)
 -->
<!-- Title: cstr_contains_cstr Pages: 1 -->
<svg width="229pt" height="45pt"
 viewBox="0.00 0.00 229.00 45.00" xmlns="http://www.w3.org/2000/svg" xmlns:xlink="http://www.w3.org/1999/xlink">
<g id="graph0" class="graph" transform="scale(1 1) rotate(0) translate(4 41)">
<title>cstr_contains_cstr</title>
<!-- Node1 -->
<g id="Node000001" class="node">
<title>Node1</title>
<g id="a_Node000001"><a xlink:title="Checks if the cstr contains the given substring cstr.">
<polygon fill="#999999" stroke="#666666" points="104,-19 0,-19 0,0 104,0 104,-19"/>
<text text-anchor="middle" x="52" y="-7" font-family="Helvetica,sans-Serif" font-size="10.00">cstr_contains_cstr</text>
</a>
</g>
</g>
<!-- Node1&#45;&gt;Node1 -->
<g id="edge1_Node000001_Node000001" class="edge">
<title>Node1&#45;&gt;Node1</title>
<g id="a_edge1_Node000001_Node000001"><a xlink:title=" ">
<path fill="none" stroke="#63b8ff" d="M32.27,-19.08C22.67,-27.73 29.25,-37 52,-37 66.22,-37 74.12,-33.38 75.7,-28.55"/>
<polygon fill="#63b8ff" stroke="#63b8ff" points="78.83,-26.95 71.73,-19.08 72.37,-29.66 78.83,-26.95"/>
</a>
</g>
</g>
<!-- Node2 -->
<g id="Node000002" class="node">
<title>Node2</title>
<g id="a_Node000002"><a xlink:href="cstr_8c.html#adccd42f0c6646bb395f6779cd4bc80f1" target="_top" xlink:title="Finds the first occurrence of a substring cstr in the cstr.">
<polygon fill="white" stroke="#666666" points="221,-19 140,-19 140,0 221,0 221,-19"/>
<text text-anchor="middle" x="180.5" y="-7" font-family="Helvetica,sans-Serif" font-size="10.00">cstr_find_cstr</text>
</a>
</g>
</g>
<!-- Node1&#45;&gt;Node2 -->
<g id="edge2_Node000001_Node000002" class="edge">
<title>Node1&#45;&gt;Node2</title>
<g id="a_edge2_Node000001_Node000002"><a xlink:title=" ">
<path fill="none" stroke="#63b8ff" d="M104.09,-9.5C112.57,-9.5 121.36,-9.5 129.8,-9.5"/>
<polygon fill="#63b8ff" stroke="#63b8ff" points="129.9,-13 139.9,-9.5 129.9,-6 129.9,-13"/>
</a>
</g>
</g>
<!-- Node2&#45;&gt;Node2 -->
<g id="edge3_Node000002_Node000002" class="edge">
<title>Node2&#45;&gt;Node2</title>
<g id="a_edge3_Node000002_Node000002"><a xlink:title=" ">
<path fill="none" stroke="#63b8ff" d="M160.77,-19.08C151.17,-27.73 157.75,-37 180.5,-37 194.72,-37 202.62,-33.38 204.2,-28.55"/>
<polygon fill="#63b8ff" stroke="#63b8ff" points="207.33,-26.95 200.23,-19.08 200.87,-29.66 207.33,-26.95"/>
</a>
</g>
</g>
</g>
</svg>
