<?xml version="1.0" encoding="UTF-8" standalone="no"?>
<!DOCTYPE svg PUBLIC "-//W3C//DTD SVG 1.1//EN"
 "http://www.w3.org/Graphics/SVG/1.1/DTD/svg11.dtd">
<!-- Generated by graphviz version 2.43.0 (0)
 -->
<!-- Title: cstr_free Pages: 1 -->
<svg width="196pt" height="100pt"
 viewBox="0.00 0.00 196.00 100.00" xmlns="http://www.w3.org/2000/svg" xmlns:xlink="http://www.w3.org/1999/xlink">

<svg id="main" version="1.1" xmlns="http://www.w3.org/2000/svg" xmlns:xlink="http://www.w3.org/1999/xlink" xml:space="preserve" onload="init(evt)">
<style type="text/css"><![CDATA[
.node, .edge {opacity: 0.7;}
.node.selected, .edge.selected {opacity: 1;}
.edge:hover path { stroke: red; }
.edge:hover polygon { stroke: red; fill: red; }
]]></style>
<script type="application/ecmascript" xlink:href="svg.min.js"/>
<svg id="graph" class="graph">
<g id="graph0" class="graph" transform="scale(1 1) rotate(0) translate(4 96)">
<title>cstr_free</title>
<!-- Node1 -->
<g id="Node000001" class="node">
<title>Node1</title>
<g id="a_Node000001"><a xlink:title="Frees a cstr and all associated memory.">
<polygon fill="#999999" stroke="#666666" points="188,-46 129,-46 129,-27 188,-27 188,-46"/>
<text text-anchor="middle" x="158.5" y="-34" font-family="Helvetica,sans-Serif" font-size="10.00">cstr_free</text>
</a>
</g>
</g>
<!-- Node1&#45;&gt;Node1 -->
<g id="edge1_Node000001_Node000001" class="edge">
<title>Node1&#45;&gt;Node1</title>
<g id="a_edge1_Node000001_Node000001"><a xlink:title=" ">
<path fill="none" stroke="#63b8ff" d="M179.24,-55.55C177.85,-60.38 170.94,-64 158.5,-64 138.59,-64 132.84,-54.73 141.24,-46.08"/>
<polygon fill="#63b8ff" stroke="#63b8ff" points="182.49,-54.26 175.76,-46.08 175.92,-56.68 182.49,-54.26"/>
</a>
</g>
</g>
<!-- Node2 -->
<g id="Node000002" class="node">
<title>Node2</title>
<g id="a_Node000002"><a xlink:href="cstr_8c.html#a5e8d893a2d7559b2eb124d18bff2ff99" target="_top" xlink:title="Replaces all occurrences of a substring with another.">
<polygon fill="white" stroke="#666666" points="93,-74 0,-74 0,-55 93,-55 93,-74"/>
<text text-anchor="middle" x="46.5" y="-62" font-family="Helvetica,sans-Serif" font-size="10.00">cstr_replace_all</text>
</a>
</g>
</g>
<!-- Node1&#45;&gt;Node2 -->
<g id="edge2_Node000001_Node000002" class="edge">
<title>Node1&#45;&gt;Node2</title>
<g id="a_edge2_Node000001_Node000002"><a xlink:title=" ">
<path fill="none" stroke="#63b8ff" d="M119.1,-46.28C108.07,-49.08 96.06,-52.14 85.09,-54.93"/>
<polygon fill="#63b8ff" stroke="#63b8ff" points="120.06,-49.64 128.89,-43.78 118.33,-42.86 120.06,-49.64"/>
</a>
</g>
</g>
<!-- Node3 -->
<g id="Node000003" class="node">
<title>Node3</title>
<g id="a_Node000003"><a xlink:href="cstr_8c.html#ae40a0dbbb1586e7ae46735342a773825" target="_top" xlink:title="Splits the cstr into substrings based on a delimiter.">
<polygon fill="white" stroke="#666666" points="77,-19 16,-19 16,0 77,0 77,-19"/>
<text text-anchor="middle" x="46.5" y="-7" font-family="Helvetica,sans-Serif" font-size="10.00">cstr_split</text>
</a>
</g>
</g>
<!-- Node1&#45;&gt;Node3 -->
<g id="edge4_Node000001_Node000003" class="edge">
<title>Node1&#45;&gt;Node3</title>
<g id="a_edge4_Node000001_Node000003"><a xlink:title=" ">
<path fill="none" stroke="#63b8ff" d="M118.77,-26.99C105.09,-23.64 89.93,-19.91 77.12,-16.77"/>
<polygon fill="#63b8ff" stroke="#63b8ff" points="118.34,-30.49 128.89,-29.48 120.01,-23.69 118.34,-30.49"/>
</a>
</g>
</g>
<!-- Node2&#45;&gt;Node2 -->
<g id="edge3_Node000002_Node000002" class="edge">
<title>Node2&#45;&gt;Node2</title>
<g id="a_edge3_Node000002_Node000002"><a xlink:title=" ">
<path fill="none" stroke="#63b8ff" d="M67.24,-83.55C65.85,-88.38 58.94,-92 46.5,-92 26.59,-92 20.84,-82.73 29.24,-74.08"/>
<polygon fill="#63b8ff" stroke="#63b8ff" points="70.49,-82.26 63.76,-74.08 63.92,-84.68 70.49,-82.26"/>
</a>
</g>
</g>
<!-- Node3&#45;&gt;Node3 -->
<g id="edge5_Node000003_Node000003" class="edge">
<title>Node3&#45;&gt;Node3</title>
<g id="a_edge5_Node000003_Node000003"><a xlink:title=" ">
<path fill="none" stroke="#63b8ff" d="M67.24,-28.55C65.85,-33.38 58.94,-37 46.5,-37 26.59,-37 20.84,-27.73 29.24,-19.08"/>
<polygon fill="#63b8ff" stroke="#63b8ff" points="70.49,-27.26 63.76,-19.08 63.92,-29.68 70.49,-27.26"/>
</a>
</g>
</g>
</g>
</svg>
</svg>

<style type='text/css'>
<![CDATA[
[data-mouse-over-selected='false'] { opacity: 0.7; }
[data-mouse-over-selected='true']  { opacity: 1.0; }
]]>
</style>
<script type="application/ecmascript"><![CDATA[
document.addEventListener('DOMContentLoaded', (event) => {
  highlightEdges();
  highlightAdjacentNodes();
});
]]></script>
</svg>
