<?xml version="1.0" encoding="UTF-8" standalone="no"?>
<!DOCTYPE svg PUBLIC "-//W3C//DTD SVG 1.1//EN"
 "http://www.w3.org/Graphics/SVG/1.1/DTD/svg11.dtd">
<!-- Generated by graphviz version 2.43.0 (0)
 -->
<!-- Title: cstr_new_arena Pages: 1 -->
<svg width="324pt" height="320pt"
 viewBox="0.00 0.00 324.00 320.00" xmlns="http://www.w3.org/2000/svg" xmlns:xlink="http://www.w3.org/1999/xlink">
<g id="graph0" class="graph" transform="scale(1 1) rotate(0) translate(4 316)">
<title>cstr_new_arena</title>
<!-- Node1 -->
<g id="Node000001" class="node">
<title>Node1</title>
<g id="a_Node000001"><a xlink:title="Creates a new cstr from a C string using a custom arena allocator.">
<polygon fill="#999999" stroke="#666666" points="316,-156 223,-156 223,-137 316,-137 316,-156"/>
<text text-anchor="middle" x="269.5" y="-144" font-family="Helvetica,sans-Serif" font-size="10.00">cstr_new_arena</text>
</a>
</g>
</g>
<!-- Node1&#45;&gt;Node1 -->
<g id="edge5_Node000001_Node000001" class="edge">
<title>Node1&#45;&gt;Node1</title>
<g id="a_edge5_Node000001_Node000001"><a xlink:title=" ">
<path fill="none" stroke="#63b8ff" d="M293.2,-165.55C291.62,-170.38 283.72,-174 269.5,-174 246.75,-174 240.17,-164.73 249.77,-156.08"/>
<polygon fill="#63b8ff" stroke="#63b8ff" points="296.33,-163.95 289.23,-156.08 289.87,-166.66 296.33,-163.95"/>
</a>
</g>
</g>
<!-- Node2 -->
<g id="Node000002" class="node">
<title>Node2</title>
<g id="a_Node000002"><a xlink:href="cstr_8c.html#a7effe7536a6058739d5d43a601e9f857" target="_top" xlink:title="Creates a new cstr from a C string.">
<polygon fill="white" stroke="#666666" points="170.5,-294 110.5,-294 110.5,-275 170.5,-275 170.5,-294"/>
<text text-anchor="middle" x="140.5" y="-282" font-family="Helvetica,sans-Serif" font-size="10.00">cstr_new</text>
</a>
</g>
</g>
<!-- Node1&#45;&gt;Node2 -->
<g id="edge1_Node000001_Node000002" class="edge">
<title>Node1&#45;&gt;Node2</title>
<g id="a_edge1_Node000001_Node000002"><a xlink:title=" ">
<path fill="none" stroke="#63b8ff" d="M260.22,-165.18C247.82,-191.23 222.05,-238.42 187,-266.5 182.23,-270.32 176.54,-273.42 170.83,-275.9"/>
<polygon fill="#63b8ff" stroke="#63b8ff" points="263.44,-166.57 264.45,-156.02 257.08,-163.63 263.44,-166.57"/>
</a>
</g>
</g>
<!-- Node4 -->
<g id="Node000004" class="node">
<title>Node4</title>
<g id="a_Node000004"><a xlink:href="cstr_8c.html#ab09b35f79bd6b009ca46cb3e2beee52c" target="_top" xlink:title="Replaces the first occurrence of a substring with another in the cstr.">
<polygon fill="white" stroke="#666666" points="178.5,-239 102.5,-239 102.5,-220 178.5,-220 178.5,-239"/>
<text text-anchor="middle" x="140.5" y="-227" font-family="Helvetica,sans-Serif" font-size="10.00">cstr_replace</text>
</a>
</g>
</g>
<!-- Node1&#45;&gt;Node4 -->
<g id="edge6_Node000001_Node000004" class="edge">
<title>Node1&#45;&gt;Node4</title>
<g id="a_edge6_Node000001_Node000004"><a xlink:title=" ">
<path fill="none" stroke="#63b8ff" d="M250.73,-163.26C234.94,-177.5 210.74,-197.75 187,-211.5 181.56,-214.65 175.46,-217.48 169.54,-219.92"/>
<polygon fill="#63b8ff" stroke="#63b8ff" points="253.17,-165.77 258.18,-156.43 248.44,-160.61 253.17,-165.77"/>
</a>
</g>
</g>
<!-- Node5 -->
<g id="Node000005" class="node">
<title>Node5</title>
<g id="a_Node000005"><a xlink:href="cstr_8c.html#a5e8d893a2d7559b2eb124d18bff2ff99" target="_top" xlink:title="Replaces all occurrences of a substring with another.">
<polygon fill="white" stroke="#666666" points="187,-184 94,-184 94,-165 187,-165 187,-184"/>
<text text-anchor="middle" x="140.5" y="-172" font-family="Helvetica,sans-Serif" font-size="10.00">cstr_replace_all</text>
</a>
</g>
</g>
<!-- Node1&#45;&gt;Node5 -->
<g id="edge8_Node000001_Node000005" class="edge">
<title>Node1&#45;&gt;Node5</title>
<g id="a_edge8_Node000001_Node000005"><a xlink:title=" ">
<path fill="none" stroke="#63b8ff" d="M215.14,-158.26C204.98,-160.51 194.45,-162.82 184.66,-164.99"/>
<polygon fill="#63b8ff" stroke="#63b8ff" points="216.14,-161.63 225.15,-156.06 214.63,-154.79 216.14,-161.63"/>
</a>
</g>
</g>
<!-- Node6 -->
<g id="Node000006" class="node">
<title>Node6</title>
<g id="a_Node000006"><a xlink:href="cstr_8c.html#a3cb97207769b7dcc91c8d805293f19b6" target="_top" xlink:title="Creates a new cstr with the contents of the input cstr reversed.">
<polygon fill="white" stroke="#666666" points="179,-129 102,-129 102,-110 179,-110 179,-129"/>
<text text-anchor="middle" x="140.5" y="-117" font-family="Helvetica,sans-Serif" font-size="10.00">cstr_reverse</text>
</a>
</g>
</g>
<!-- Node1&#45;&gt;Node6 -->
<g id="edge10_Node000001_Node000006" class="edge">
<title>Node1&#45;&gt;Node6</title>
<g id="a_edge10_Node000001_Node000006"><a xlink:title=" ">
<path fill="none" stroke="#63b8ff" d="M213.64,-134.84C202,-132.36 189.97,-129.81 179.15,-127.5"/>
<polygon fill="#63b8ff" stroke="#63b8ff" points="213.22,-138.32 223.72,-136.98 214.67,-131.48 213.22,-138.32"/>
</a>
</g>
</g>
<!-- Node7 -->
<g id="Node000007" class="node">
<title>Node7</title>
<g id="a_Node000007"><a xlink:href="cstr_8c.html#ae40a0dbbb1586e7ae46735342a773825" target="_top" xlink:title="Splits the cstr into substrings based on a delimiter.">
<polygon fill="white" stroke="#666666" points="171,-74 110,-74 110,-55 171,-55 171,-74"/>
<text text-anchor="middle" x="140.5" y="-62" font-family="Helvetica,sans-Serif" font-size="10.00">cstr_split</text>
</a>
</g>
</g>
<!-- Node1&#45;&gt;Node7 -->
<g id="edge12_Node000001_Node000007" class="edge">
<title>Node1&#45;&gt;Node7</title>
<g id="a_edge12_Node000001_Node000007"><a xlink:title=" ">
<path fill="none" stroke="#63b8ff" d="M244.97,-131.31C219.13,-114.62 178.4,-88.33 156.55,-74.22"/>
<polygon fill="#63b8ff" stroke="#63b8ff" points="243.13,-134.29 253.43,-136.77 246.93,-128.41 243.13,-134.29"/>
</a>
</g>
</g>
<!-- Node8 -->
<g id="Node000008" class="node">
<title>Node8</title>
<g id="a_Node000008"><a xlink:href="cstr_8c.html#ab0329e72b480c5a1c0b51053cc725be9" target="_top" xlink:title="Extracts a substring from the cstr.">
<polygon fill="white" stroke="#666666" points="175.5,-19 105.5,-19 105.5,0 175.5,0 175.5,-19"/>
<text text-anchor="middle" x="140.5" y="-7" font-family="Helvetica,sans-Serif" font-size="10.00">cstr_substr</text>
</a>
</g>
</g>
<!-- Node1&#45;&gt;Node8 -->
<g id="edge14_Node000001_Node000008" class="edge">
<title>Node1&#45;&gt;Node8</title>
<g id="a_edge14_Node000001_Node000008"><a xlink:title=" ">
<path fill="none" stroke="#63b8ff" d="M255.7,-128.65C240.44,-107.9 213.64,-73.11 187,-46.5 176.92,-36.43 164.25,-26.31 154.85,-19.2"/>
<polygon fill="#63b8ff" stroke="#63b8ff" points="252.96,-130.84 261.68,-136.86 258.62,-126.72 252.96,-130.84"/>
</a>
</g>
</g>
<!-- Node2&#45;&gt;Node2 -->
<g id="edge4_Node000002_Node000002" class="edge">
<title>Node2&#45;&gt;Node2</title>
<g id="a_edge4_Node000002_Node000002"><a xlink:title=" ">
<path fill="none" stroke="#63b8ff" d="M160.87,-303.55C159.51,-308.38 152.72,-312 140.5,-312 120.95,-312 115.3,-302.73 123.55,-294.08"/>
<polygon fill="#63b8ff" stroke="#63b8ff" points="164.14,-302.3 157.45,-294.08 157.55,-304.68 164.14,-302.3"/>
</a>
</g>
</g>
<!-- Node3 -->
<g id="Node000003" class="node">
<title>Node3</title>
<g id="a_Node000003"><a xlink:href="cstr_8c.html#a44181a4b47f50b2520ae3ed80c5191b1" target="_top" xlink:title="Joins multiple cstrs with a delimiter.">
<polygon fill="white" stroke="#666666" points="58,-294 0,-294 0,-275 58,-275 58,-294"/>
<text text-anchor="middle" x="29" y="-282" font-family="Helvetica,sans-Serif" font-size="10.00">cstr_join</text>
</a>
</g>
</g>
<!-- Node2&#45;&gt;Node3 -->
<g id="edge2_Node000002_Node000003" class="edge">
<title>Node2&#45;&gt;Node3</title>
<g id="a_edge2_Node000002_Node000003"><a xlink:title=" ">
<path fill="none" stroke="#63b8ff" d="M100.14,-284.5C86.22,-284.5 70.85,-284.5 58.06,-284.5"/>
<polygon fill="#63b8ff" stroke="#63b8ff" points="100.44,-288 110.44,-284.5 100.44,-281 100.44,-288"/>
</a>
</g>
</g>
<!-- Node3&#45;&gt;Node3 -->
<g id="edge3_Node000003_Node000003" class="edge">
<title>Node3&#45;&gt;Node3</title>
<g id="a_edge3_Node000003_Node000003"><a xlink:title=" ">
<path fill="none" stroke="#63b8ff" d="M49.37,-303.55C48.01,-308.38 41.22,-312 29,-312 9.45,-312 3.8,-302.73 12.05,-294.08"/>
<polygon fill="#63b8ff" stroke="#63b8ff" points="52.64,-302.3 45.95,-294.08 46.05,-304.68 52.64,-302.3"/>
</a>
</g>
</g>
<!-- Node4&#45;&gt;Node4 -->
<g id="edge7_Node000004_Node000004" class="edge">
<title>Node4&#45;&gt;Node4</title>
<g id="a_edge7_Node000004_Node000004"><a xlink:title=" ">
<path fill="none" stroke="#63b8ff" d="M160.87,-248.55C159.51,-253.38 152.72,-257 140.5,-257 120.95,-257 115.3,-247.73 123.55,-239.08"/>
<polygon fill="#63b8ff" stroke="#63b8ff" points="164.14,-247.3 157.45,-239.08 157.55,-249.68 164.14,-247.3"/>
</a>
</g>
</g>
<!-- Node5&#45;&gt;Node5 -->
<g id="edge9_Node000005_Node000005" class="edge">
<title>Node5&#45;&gt;Node5</title>
<g id="a_edge9_Node000005_Node000005"><a xlink:title=" ">
<path fill="none" stroke="#63b8ff" d="M160.87,-193.55C159.51,-198.38 152.72,-202 140.5,-202 120.95,-202 115.3,-192.73 123.55,-184.08"/>
<polygon fill="#63b8ff" stroke="#63b8ff" points="164.14,-192.3 157.45,-184.08 157.55,-194.68 164.14,-192.3"/>
</a>
</g>
</g>
<!-- Node6&#45;&gt;Node6 -->
<g id="edge11_Node000006_Node000006" class="edge">
<title>Node6&#45;&gt;Node6</title>
<g id="a_edge11_Node000006_Node000006"><a xlink:title=" ">
<path fill="none" stroke="#63b8ff" d="M160.87,-138.55C159.51,-143.38 152.72,-147 140.5,-147 120.95,-147 115.3,-137.73 123.55,-129.08"/>
<polygon fill="#63b8ff" stroke="#63b8ff" points="164.14,-137.3 157.45,-129.08 157.55,-139.68 164.14,-137.3"/>
</a>
</g>
</g>
<!-- Node7&#45;&gt;Node7 -->
<g id="edge13_Node000007_Node000007" class="edge">
<title>Node7&#45;&gt;Node7</title>
<g id="a_edge13_Node000007_Node000007"><a xlink:title=" ">
<path fill="none" stroke="#63b8ff" d="M160.87,-83.55C159.51,-88.38 152.72,-92 140.5,-92 120.95,-92 115.3,-82.73 123.55,-74.08"/>
<polygon fill="#63b8ff" stroke="#63b8ff" points="164.14,-82.3 157.45,-74.08 157.55,-84.68 164.14,-82.3"/>
</a>
</g>
</g>
<!-- Node8&#45;&gt;Node8 -->
<g id="edge15_Node000008_Node000008" class="edge">
<title>Node8&#45;&gt;Node8</title>
<g id="a_edge15_Node000008_Node000008"><a xlink:title=" ">
<path fill="none" stroke="#63b8ff" d="M160.87,-28.55C159.51,-33.38 152.72,-37 140.5,-37 120.95,-37 115.3,-27.73 123.55,-19.08"/>
<polygon fill="#63b8ff" stroke="#63b8ff" points="164.14,-27.3 157.45,-19.08 157.55,-29.68 164.14,-27.3"/>
</a>
</g>
</g>
</g>
</svg>
