<?xml version="1.0" encoding="UTF-8" standalone="no"?>
<!DOCTYPE svg PUBLIC "-//W3C//DTD SVG 1.1//EN"
 "http://www.w3.org/Graphics/SVG/1.1/DTD/svg11.dtd">
<!-- Generated by graphviz version 2.43.0 (0)
 -->
<!-- Title: cstr_replace Pages: 1 -->
<svg width="338pt" height="73pt"
 viewBox="0.00 0.00 338.00 73.00" xmlns="http://www.w3.org/2000/svg" xmlns:xlink="http://www.w3.org/1999/xlink">
<g id="graph0" class="graph" transform="scale(1 1) rotate(0) translate(4 69)">
<title>cstr_replace</title>
<!-- Node1 -->
<g id="Node000001" class="node">
<title>Node1</title>
<g id="a_Node000001"><a xlink:title="Replaces the first occurrence of a substring with another in the cstr.">
<polygon fill="#999999" stroke="#666666" points="76,-47 0,-47 0,-28 76,-28 76,-47"/>
<text text-anchor="middle" x="38" y="-35" font-family="Helvetica,sans-Serif" font-size="10.00">cstr_replace</text>
</a>
</g>
</g>
<!-- Node1&#45;&gt;Node1 -->
<g id="edge6_Node000001_Node000001" class="edge">
<title>Node1&#45;&gt;Node1</title>
<g id="a_edge6_Node000001_Node000001"><a xlink:title=" ">
<path fill="none" stroke="#63b8ff" d="M19.5,-47.08C10.51,-55.73 16.67,-65 38,-65 51.33,-65 58.74,-61.38 60.22,-56.55"/>
<polygon fill="#63b8ff" stroke="#63b8ff" points="63.41,-55.11 56.5,-47.08 56.9,-57.67 63.41,-55.11"/>
</a>
</g>
</g>
<!-- Node2 -->
<g id="Node000002" class="node">
<title>Node2</title>
<g id="a_Node000002"><a xlink:href="cstr_8c.html#aaafd0342dcc8c8e0e2fabf7edacc5520" target="_top" xlink:title="Creates a new empty cstr using a custom arena allocator.">
<polygon fill="white" stroke="#666666" points="330,-47 241,-47 241,-28 330,-28 330,-47"/>
<text text-anchor="middle" x="285.5" y="-35" font-family="Helvetica,sans-Serif" font-size="10.00">cstr_init_arena</text>
</a>
</g>
</g>
<!-- Node1&#45;&gt;Node2 -->
<g id="edge1_Node000001_Node000002" class="edge">
<title>Node1&#45;&gt;Node2</title>
<g id="a_edge1_Node000001_Node000002"><a xlink:title=" ">
<path fill="none" stroke="#63b8ff" d="M76.06,-42.96C87.55,-44.42 100.27,-45.78 112,-46.5 153.26,-49.03 163.73,-48.83 205,-46.5 213.37,-46.03 222.22,-45.28 230.85,-44.41"/>
<polygon fill="#63b8ff" stroke="#63b8ff" points="231.27,-47.88 240.84,-43.34 230.52,-40.92 231.27,-47.88"/>
</a>
</g>
</g>
<!-- Node3 -->
<g id="Node000003" class="node">
<title>Node3</title>
<g id="a_Node000003"><a xlink:href="cstr_8c.html#a1eca5d7fc6deccb9e28a6e4075c7e5aa" target="_top" xlink:title="Creates a new cstr from a C string using a custom arena allocator.">
<polygon fill="white" stroke="#666666" points="205,-19 112,-19 112,0 205,0 205,-19"/>
<text text-anchor="middle" x="158.5" y="-7" font-family="Helvetica,sans-Serif" font-size="10.00">cstr_new_arena</text>
</a>
</g>
</g>
<!-- Node1&#45;&gt;Node3 -->
<g id="edge3_Node000001_Node000003" class="edge">
<title>Node1&#45;&gt;Node3</title>
<g id="a_edge3_Node000001_Node000003"><a xlink:title=" ">
<path fill="none" stroke="#63b8ff" d="M76.17,-28.72C86.04,-26.38 96.88,-23.82 107.32,-21.36"/>
<polygon fill="#63b8ff" stroke="#63b8ff" points="108.25,-24.73 117.17,-19.03 106.64,-17.92 108.25,-24.73"/>
</a>
</g>
</g>
<!-- Node2&#45;&gt;Node2 -->
<g id="edge2_Node000002_Node000002" class="edge">
<title>Node2&#45;&gt;Node2</title>
<g id="a_edge2_Node000002_Node000002"><a xlink:title=" ">
<path fill="none" stroke="#63b8ff" d="M266.08,-47.08C256.63,-55.73 263.11,-65 285.5,-65 299.5,-65 307.27,-61.38 308.83,-56.55"/>
<polygon fill="#63b8ff" stroke="#63b8ff" points="311.97,-54.99 304.92,-47.08 305.5,-57.66 311.97,-54.99"/>
</a>
</g>
</g>
<!-- Node3&#45;&gt;Node2 -->
<g id="edge4_Node000003_Node000002" class="edge">
<title>Node3&#45;&gt;Node2</title>
<g id="a_edge4_Node000003_Node000002"><a xlink:title=" ">
<path fill="none" stroke="#63b8ff" d="M202.17,-19.06C211.82,-21.22 222.18,-23.54 232.18,-25.78"/>
<polygon fill="#63b8ff" stroke="#63b8ff" points="231.5,-29.21 242.02,-27.99 233.03,-22.38 231.5,-29.21"/>
</a>
</g>
</g>
<!-- Node3&#45;&gt;Node3 -->
<g id="edge5_Node000003_Node000003" class="edge">
<title>Node3&#45;&gt;Node3</title>
<g id="a_edge5_Node000003_Node000003"><a xlink:title=" ">
<path fill="none" stroke="#63b8ff" d="M140,-19.08C131.01,-27.73 137.17,-37 158.5,-37 171.83,-37 179.24,-33.38 180.72,-28.55"/>
<polygon fill="#63b8ff" stroke="#63b8ff" points="183.91,-27.11 177,-19.08 177.4,-29.67 183.91,-27.11"/>
</a>
</g>
</g>
</g>
</svg>
