<?xml version="1.0" encoding="UTF-8" standalone="no"?>
<!DOCTYPE svg PUBLIC "-//W3C//DTD SVG 1.1//EN"
 "http://www.w3.org/Graphics/SVG/1.1/DTD/svg11.dtd">
<!-- Generated by graphviz version 2.43.0 (0)
 -->
<!-- Title: cstr_substr Pages: 1 -->
<svg width="332pt" height="73pt"
 viewBox="0.00 0.00 332.00 73.00" xmlns="http://www.w3.org/2000/svg" xmlns:xlink="http://www.w3.org/1999/xlink">
<g id="graph0" class="graph" transform="scale(1 1) rotate(0) translate(4 69)">
<title>cstr_substr</title>
<!-- Node1 -->
<g id="Node000001" class="node">
<title>Node1</title>
<g id="a_Node000001"><a xlink:title="Extracts a substring from the cstr.">
<polygon fill="#999999" stroke="#666666" points="70,-47 0,-47 0,-28 70,-28 70,-47"/>
<text text-anchor="middle" x="35" y="-35" font-family="Helvetica,sans-Serif" font-size="10.00">cstr_substr</text>
</a>
</g>
</g>
<!-- Node1&#45;&gt;Node1 -->
<g id="edge6_Node000001_Node000001" class="edge">
<title>Node1&#45;&gt;Node1</title>
<g id="a_edge6_Node000001_Node000001"><a xlink:title=" ">
<path fill="none" stroke="#63b8ff" d="M17.12,-47.08C8.42,-55.73 14.38,-65 35,-65 47.89,-65 55.05,-61.38 56.48,-56.55"/>
<polygon fill="#63b8ff" stroke="#63b8ff" points="59.7,-55.19 52.88,-47.08 53.16,-57.67 59.7,-55.19"/>
</a>
</g>
</g>
<!-- Node2 -->
<g id="Node000002" class="node">
<title>Node2</title>
<g id="a_Node000002"><a xlink:href="cstr_8c.html#aaafd0342dcc8c8e0e2fabf7edacc5520" target="_top" xlink:title="Creates a new empty cstr using a custom arena allocator.">
<polygon fill="white" stroke="#666666" points="324,-47 235,-47 235,-28 324,-28 324,-47"/>
<text text-anchor="middle" x="279.5" y="-35" font-family="Helvetica,sans-Serif" font-size="10.00">cstr_init_arena</text>
</a>
</g>
</g>
<!-- Node1&#45;&gt;Node2 -->
<g id="edge1_Node000001_Node000002" class="edge">
<title>Node1&#45;&gt;Node2</title>
<g id="a_edge1_Node000001_Node000002"><a xlink:title=" ">
<path fill="none" stroke="#63b8ff" d="M70.1,-42.77C81.48,-44.29 94.26,-45.75 106,-46.5 147.25,-49.14 157.73,-48.83 199,-46.5 207.37,-46.03 216.22,-45.28 224.85,-44.41"/>
<polygon fill="#63b8ff" stroke="#63b8ff" points="225.27,-47.88 234.84,-43.34 224.52,-40.92 225.27,-47.88"/>
</a>
</g>
</g>
<!-- Node3 -->
<g id="Node000003" class="node">
<title>Node3</title>
<g id="a_Node000003"><a xlink:href="cstr_8c.html#a1eca5d7fc6deccb9e28a6e4075c7e5aa" target="_top" xlink:title="Creates a new cstr from a C string using a custom arena allocator.">
<polygon fill="white" stroke="#666666" points="199,-19 106,-19 106,0 199,0 199,-19"/>
<text text-anchor="middle" x="152.5" y="-7" font-family="Helvetica,sans-Serif" font-size="10.00">cstr_new_arena</text>
</a>
</g>
</g>
<!-- Node1&#45;&gt;Node3 -->
<g id="edge3_Node000001_Node000003" class="edge">
<title>Node1&#45;&gt;Node3</title>
<g id="a_edge3_Node000001_Node000003"><a xlink:title=" ">
<path fill="none" stroke="#63b8ff" d="M70.03,-29.25C80.12,-26.81 91.37,-24.08 102.22,-21.45"/>
<polygon fill="#63b8ff" stroke="#63b8ff" points="103.13,-24.83 112.02,-19.07 101.48,-18.02 103.13,-24.83"/>
</a>
</g>
</g>
<!-- Node2&#45;&gt;Node2 -->
<g id="edge2_Node000002_Node000002" class="edge">
<title>Node2&#45;&gt;Node2</title>
<g id="a_edge2_Node000002_Node000002"><a xlink:title=" ">
<path fill="none" stroke="#63b8ff" d="M260.08,-47.08C250.63,-55.73 257.11,-65 279.5,-65 293.5,-65 301.27,-61.38 302.83,-56.55"/>
<polygon fill="#63b8ff" stroke="#63b8ff" points="305.97,-54.99 298.92,-47.08 299.5,-57.66 305.97,-54.99"/>
</a>
</g>
</g>
<!-- Node3&#45;&gt;Node2 -->
<g id="edge4_Node000003_Node000002" class="edge">
<title>Node3&#45;&gt;Node2</title>
<g id="a_edge4_Node000003_Node000002"><a xlink:title=" ">
<path fill="none" stroke="#63b8ff" d="M196.17,-19.06C205.82,-21.22 216.18,-23.54 226.18,-25.78"/>
<polygon fill="#63b8ff" stroke="#63b8ff" points="225.5,-29.21 236.02,-27.99 227.03,-22.38 225.5,-29.21"/>
</a>
</g>
</g>
<!-- Node3&#45;&gt;Node3 -->
<g id="edge5_Node000003_Node000003" class="edge">
<title>Node3&#45;&gt;Node3</title>
<g id="a_edge5_Node000003_Node000003"><a xlink:title=" ">
<path fill="none" stroke="#63b8ff" d="M134.62,-19.08C125.92,-27.73 131.88,-37 152.5,-37 165.39,-37 172.55,-33.38 173.98,-28.55"/>
<polygon fill="#63b8ff" stroke="#63b8ff" points="177.2,-27.19 170.38,-19.08 170.66,-29.67 177.2,-27.19"/>
</a>
</g>
</g>
</g>
</svg>
