<?xml version="1.0" encoding="UTF-8" standalone="no"?>
<!DOCTYPE svg PUBLIC "-//W3C//DTD SVG 1.1//EN"
 "http://www.w3.org/Graphics/SVG/1.1/DTD/svg11.dtd">
<!-- Generated by graphviz version 2.43.0 (0)
 -->
<!-- Title: cstr_new Pages: 1 -->
<svg width="322pt" height="45pt"
 viewBox="0.00 0.00 322.00 45.00" xmlns="http://www.w3.org/2000/svg" xmlns:xlink="http://www.w3.org/1999/xlink">
<g id="graph0" class="graph" transform="scale(1 1) rotate(0) translate(4 41)">
<title>cstr_new</title>
<!-- Node1 -->
<g id="Node000001" class="node">
<title>Node1</title>
<g id="a_Node000001"><a xlink:title="Creates a new cstr from a C string.">
<polygon fill="#999999" stroke="#666666" points="60,-19 0,-19 0,0 60,0 60,-19"/>
<text text-anchor="middle" x="30" y="-7" font-family="Helvetica,sans-Serif" font-size="10.00">cstr_new</text>
</a>
</g>
</g>
<!-- Node1&#45;&gt;Node1 -->
<g id="edge1_Node000001_Node000001" class="edge">
<title>Node1&#45;&gt;Node1</title>
<g id="a_edge1_Node000001_Node000001"><a xlink:title=" ">
<path fill="none" stroke="#63b8ff" d="M12.74,-19.08C4.34,-27.73 10.09,-37 30,-37 42.44,-37 49.35,-33.38 50.74,-28.55"/>
<polygon fill="#63b8ff" stroke="#63b8ff" points="53.99,-27.26 47.26,-19.08 47.42,-29.68 53.99,-27.26"/>
</a>
</g>
</g>
<!-- Node2 -->
<g id="Node000002" class="node">
<title>Node2</title>
<g id="a_Node000002"><a xlink:href="cstr_8c.html#a1eca5d7fc6deccb9e28a6e4075c7e5aa" target="_top" xlink:title="Creates a new cstr from a C string using a custom arena allocator.">
<polygon fill="white" stroke="#666666" points="189,-19 96,-19 96,0 189,0 189,-19"/>
<text text-anchor="middle" x="142.5" y="-7" font-family="Helvetica,sans-Serif" font-size="10.00">cstr_new_arena</text>
</a>
</g>
</g>
<!-- Node1&#45;&gt;Node2 -->
<g id="edge2_Node000001_Node000002" class="edge">
<title>Node1&#45;&gt;Node2</title>
<g id="a_edge2_Node000001_Node000002"><a xlink:title=" ">
<path fill="none" stroke="#63b8ff" d="M60.03,-9.5C68.02,-9.5 76.97,-9.5 85.92,-9.5"/>
<polygon fill="#63b8ff" stroke="#63b8ff" points="85.99,-13 95.99,-9.5 85.99,-6 85.99,-13"/>
</a>
</g>
</g>
<!-- Node2&#45;&gt;Node2 -->
<g id="edge5_Node000002_Node000002" class="edge">
<title>Node2&#45;&gt;Node2</title>
<g id="a_edge5_Node000002_Node000002"><a xlink:title=" ">
<path fill="none" stroke="#63b8ff" d="M125.24,-19.08C116.84,-27.73 122.59,-37 142.5,-37 154.94,-37 161.85,-33.38 163.24,-28.55"/>
<polygon fill="#63b8ff" stroke="#63b8ff" points="166.49,-27.26 159.76,-19.08 159.92,-29.68 166.49,-27.26"/>
</a>
</g>
</g>
<!-- Node3 -->
<g id="Node000003" class="node">
<title>Node3</title>
<g id="a_Node000003"><a xlink:href="cstr_8c.html#aaafd0342dcc8c8e0e2fabf7edacc5520" target="_top" xlink:title="Creates a new empty cstr using a custom arena allocator.">
<polygon fill="white" stroke="#666666" points="314,-19 225,-19 225,0 314,0 314,-19"/>
<text text-anchor="middle" x="269.5" y="-7" font-family="Helvetica,sans-Serif" font-size="10.00">cstr_init_arena</text>
</a>
</g>
</g>
<!-- Node2&#45;&gt;Node3 -->
<g id="edge3_Node000002_Node000003" class="edge">
<title>Node2&#45;&gt;Node3</title>
<g id="a_edge3_Node000002_Node000003"><a xlink:title=" ">
<path fill="none" stroke="#63b8ff" d="M189.34,-9.5C197.56,-9.5 206.2,-9.5 214.62,-9.5"/>
<polygon fill="#63b8ff" stroke="#63b8ff" points="214.75,-13 224.75,-9.5 214.75,-6 214.75,-13"/>
</a>
</g>
</g>
<!-- Node3&#45;&gt;Node3 -->
<g id="edge4_Node000003_Node000003" class="edge">
<title>Node3&#45;&gt;Node3</title>
<g id="a_edge4_Node000003_Node000003"><a xlink:title=" ">
<path fill="none" stroke="#63b8ff" d="M250.08,-19.08C240.63,-27.73 247.11,-37 269.5,-37 283.5,-37 291.27,-33.38 292.83,-28.55"/>
<polygon fill="#63b8ff" stroke="#63b8ff" points="295.97,-26.99 288.92,-19.08 289.5,-29.66 295.97,-26.99"/>
</a>
</g>
</g>
</g>
</svg>
