<?xml version="1.0" encoding="UTF-8" standalone="no"?>
<!DOCTYPE svg PUBLIC "-//W3C//DTD SVG 1.1//EN"
 "http://www.w3.org/Graphics/SVG/1.1/DTD/svg11.dtd">
<!-- Generated by graphviz version 2.43.0 (0)
 -->
<!-- Title: cstr_reverse Pages: 1 -->
<svg width="273pt" height="73pt"
 viewBox="0.00 0.00 273.00 73.00" xmlns="http://www.w3.org/2000/svg" xmlns:xlink="http://www.w3.org/1999/xlink">

<svg id="main" version="1.1" xmlns="http://www.w3.org/2000/svg" xmlns:xlink="http://www.w3.org/1999/xlink" xml:space="preserve" onload="init(evt)">
<style type="text/css"><![CDATA[
.node, .edge {opacity: 0.7;}
.node.selected, .edge.selected {opacity: 1;}
.edge:hover path { stroke: red; }
.edge:hover polygon { stroke: red; fill: red; }
]]></style>
<script type="application/ecmascript" xlink:href="svg.min.js"/>
<svg id="graph" class="graph">
<g id="graph0" class="graph" transform="scale(1 1) rotate(0) translate(4 69)">
<title>cstr_reverse</title>
<!-- Node1 -->
<g id="Node000001" class="node">
<title>Node1</title>
<g id="a_Node000001"><a xlink:title="Creates a new cstr with the contents of the input cstr reversed.">
<polygon fill="#999999" stroke="#666666" points="77,-47 0,-47 0,-28 77,-28 77,-47"/>
<text text-anchor="middle" x="38.5" y="-35" font-family="Helvetica,sans-Serif" font-size="10.00">cstr_reverse</text>
</a>
</g>
</g>
<!-- Node1&#45;&gt;Node1 -->
<g id="edge6_Node000001_Node000001" class="edge">
<title>Node1&#45;&gt;Node1</title>
<g id="a_edge6_Node000001_Node000001"><a xlink:title=" ">
<path fill="none" stroke="#63b8ff" d="M22.47,-47.08C14.67,-55.73 20.02,-65 38.5,-65 50.05,-65 56.47,-61.38 57.76,-56.55"/>
<polygon fill="#63b8ff" stroke="#63b8ff" points="61.07,-55.42 54.53,-47.08 54.44,-57.68 61.07,-55.42"/>
</a>
</g>
</g>
<!-- Node2 -->
<g id="Node000002" class="node">
<title>Node2</title>
<g id="a_Node000002"><a xlink:href="cstr_8c.html#addbb5ac6b50949c8b4ef489563117300" target="_top" xlink:title="Creates a new empty cstr with specified initial capacity.">
<polygon fill="white" stroke="#666666" points="265,-47 209,-47 209,-28 265,-28 265,-47"/>
<text text-anchor="middle" x="237" y="-35" font-family="Helvetica,sans-Serif" font-size="10.00">cstr_init</text>
</a>
</g>
</g>
<!-- Node1&#45;&gt;Node2 -->
<g id="edge1_Node000001_Node000002" class="edge">
<title>Node1&#45;&gt;Node2</title>
<g id="a_edge1_Node000001_Node000002"><a xlink:title=" ">
<path fill="none" stroke="#63b8ff" d="M77.19,-43.01C88.66,-44.44 101.32,-45.79 113,-46.5 139.62,-48.12 146.4,-48.39 173,-46.5 181.38,-45.9 190.35,-44.87 198.81,-43.71"/>
<polygon fill="#63b8ff" stroke="#63b8ff" points="199.41,-47.15 208.8,-42.25 198.4,-40.23 199.41,-47.15"/>
</a>
</g>
</g>
<!-- Node3 -->
<g id="Node000003" class="node">
<title>Node3</title>
<g id="a_Node000003"><a xlink:href="cstr_8c.html#a7effe7536a6058739d5d43a601e9f857" target="_top" xlink:title="Creates a new cstr from a C string.">
<polygon fill="white" stroke="#666666" points="173,-19 113,-19 113,0 173,0 173,-19"/>
<text text-anchor="middle" x="143" y="-7" font-family="Helvetica,sans-Serif" font-size="10.00">cstr_new</text>
</a>
</g>
</g>
<!-- Node1&#45;&gt;Node3 -->
<g id="edge3_Node000001_Node000003" class="edge">
<title>Node1&#45;&gt;Node3</title>
<g id="a_edge3_Node000001_Node000003"><a xlink:title=" ">
<path fill="none" stroke="#63b8ff" d="M74.49,-27.94C83.69,-25.43 93.67,-22.7 103.06,-20.14"/>
<polygon fill="#63b8ff" stroke="#63b8ff" points="104.23,-23.45 112.96,-17.43 102.39,-16.69 104.23,-23.45"/>
</a>
</g>
</g>
<!-- Node2&#45;&gt;Node2 -->
<g id="edge2_Node000002_Node000002" class="edge">
<title>Node2&#45;&gt;Node2</title>
<g id="a_edge2_Node000002_Node000002"><a xlink:title=" ">
<path fill="none" stroke="#63b8ff" d="M222.51,-47.08C215.46,-55.73 220.29,-65 237,-65 247.18,-65 252.95,-61.56 254.31,-56.91"/>
<polygon fill="#63b8ff" stroke="#63b8ff" points="257.61,-55.73 251.49,-47.08 250.88,-57.66 257.61,-55.73"/>
</a>
</g>
</g>
<!-- Node3&#45;&gt;Node2 -->
<g id="edge4_Node000003_Node000002" class="edge">
<title>Node3&#45;&gt;Node2</title>
<g id="a_edge4_Node000003_Node000002"><a xlink:title=" ">
<path fill="none" stroke="#63b8ff" d="M173.11,-18.36C181.45,-20.9 190.65,-23.7 199.37,-26.35"/>
<polygon fill="#63b8ff" stroke="#63b8ff" points="198.37,-29.71 208.96,-29.27 200.41,-23.01 198.37,-29.71"/>
</a>
</g>
</g>
<!-- Node3&#45;&gt;Node3 -->
<g id="edge5_Node000003_Node000003" class="edge">
<title>Node3&#45;&gt;Node3</title>
<g id="a_edge5_Node000003_Node000003"><a xlink:title=" ">
<path fill="none" stroke="#63b8ff" d="M128.51,-19.08C121.46,-27.73 126.29,-37 143,-37 153.18,-37 158.95,-33.56 160.31,-28.91"/>
<polygon fill="#63b8ff" stroke="#63b8ff" points="163.61,-27.73 157.49,-19.08 156.88,-29.66 163.61,-27.73"/>
</a>
</g>
</g>
</g>
</svg>
</svg>

<style type='text/css'>
<![CDATA[
[data-mouse-over-selected='false'] { opacity: 0.7; }
[data-mouse-over-selected='true']  { opacity: 1.0; }
]]>
</style>
<script type="application/ecmascript"><![CDATA[
document.addEventListener('DOMContentLoaded', (event) => {
  highlightEdges();
  highlightAdjacentNodes();
});
]]></script>
</svg>
