<?xml version="1.0" encoding="UTF-8" standalone="no"?>
<!DOCTYPE svg PUBLIC "-//W3C//DTD SVG 1.1//EN"
 "http://www.w3.org/Graphics/SVG/1.1/DTD/svg11.dtd">
<!-- Generated by graphviz version 2.43.0 (0)
 -->
<!-- Title: cstr_substr Pages: 1 -->
<svg width="266pt" height="73pt"
 viewBox="0.00 0.00 266.00 73.00" xmlns="http://www.w3.org/2000/svg" xmlns:xlink="http://www.w3.org/1999/xlink">

<svg id="main" version="1.1" xmlns="http://www.w3.org/2000/svg" xmlns:xlink="http://www.w3.org/1999/xlink" xml:space="preserve" onload="init(evt)">
<style type="text/css"><![CDATA[
.node, .edge {opacity: 0.7;}
.node.selected, .edge.selected {opacity: 1;}
.edge:hover path { stroke: red; }
.edge:hover polygon { stroke: red; fill: red; }
]]></style>
<script type="application/ecmascript" xlink:href="svg.min.js"/>
<svg id="graph" class="graph">
<g id="graph0" class="graph" transform="scale(1 1) rotate(0) translate(4 69)">
<title>cstr_substr</title>
<!-- Node1 -->
<g id="Node000001" class="node">
<title>Node1</title>
<g id="a_Node000001"><a xlink:title="Extracts a substring from the cstr.">
<polygon fill="#999999" stroke="#666666" points="70,-47 0,-47 0,-28 70,-28 70,-47"/>
<text text-anchor="middle" x="35" y="-35" font-family="Helvetica,sans-Serif" font-size="10.00">cstr_substr</text>
</a>
</g>
</g>
<!-- Node1&#45;&gt;Node1 -->
<g id="edge6_Node000001_Node000001" class="edge">
<title>Node1&#45;&gt;Node1</title>
<g id="a_edge6_Node000001_Node000001"><a xlink:title=" ">
<path fill="none" stroke="#63b8ff" d="M19.59,-47.08C12.09,-55.73 17.23,-65 35,-65 45.83,-65 51.97,-61.56 53.42,-56.91"/>
<polygon fill="#63b8ff" stroke="#63b8ff" points="56.68,-55.62 50.41,-47.08 49.99,-57.67 56.68,-55.62"/>
</a>
</g>
</g>
<!-- Node2 -->
<g id="Node000002" class="node">
<title>Node2</title>
<g id="a_Node000002"><a xlink:href="cstr_8c.html#addbb5ac6b50949c8b4ef489563117300" target="_top" xlink:title="Creates a new empty cstr with specified initial capacity.">
<polygon fill="white" stroke="#666666" points="258,-47 202,-47 202,-28 258,-28 258,-47"/>
<text text-anchor="middle" x="230" y="-35" font-family="Helvetica,sans-Serif" font-size="10.00">cstr_init</text>
</a>
</g>
</g>
<!-- Node1&#45;&gt;Node2 -->
<g id="edge1_Node000001_Node000002" class="edge">
<title>Node1&#45;&gt;Node2</title>
<g id="a_edge1_Node000001_Node000002"><a xlink:title=" ">
<path fill="none" stroke="#63b8ff" d="M70.1,-42.77C81.48,-44.29 94.26,-45.75 106,-46.5 132.61,-48.2 139.4,-48.39 166,-46.5 174.38,-45.9 183.35,-44.87 191.81,-43.71"/>
<polygon fill="#63b8ff" stroke="#63b8ff" points="192.41,-47.15 201.8,-42.25 191.4,-40.23 192.41,-47.15"/>
</a>
</g>
</g>
<!-- Node3 -->
<g id="Node000003" class="node">
<title>Node3</title>
<g id="a_Node000003"><a xlink:href="cstr_8c.html#a7effe7536a6058739d5d43a601e9f857" target="_top" xlink:title="Creates a new cstr from a C string.">
<polygon fill="white" stroke="#666666" points="166,-19 106,-19 106,0 166,0 166,-19"/>
<text text-anchor="middle" x="136" y="-7" font-family="Helvetica,sans-Serif" font-size="10.00">cstr_new</text>
</a>
</g>
</g>
<!-- Node1&#45;&gt;Node3 -->
<g id="edge3_Node000001_Node000003" class="edge">
<title>Node1&#45;&gt;Node3</title>
<g id="a_edge3_Node000001_Node000003"><a xlink:title=" ">
<path fill="none" stroke="#63b8ff" d="M69.79,-27.94C78.34,-25.53 87.58,-22.91 96.35,-20.43"/>
<polygon fill="#63b8ff" stroke="#63b8ff" points="97.31,-23.8 105.98,-17.71 95.41,-17.06 97.31,-23.8"/>
</a>
</g>
</g>
<!-- Node2&#45;&gt;Node2 -->
<g id="edge2_Node000002_Node000002" class="edge">
<title>Node2&#45;&gt;Node2</title>
<g id="a_edge2_Node000002_Node000002"><a xlink:title=" ">
<path fill="none" stroke="#63b8ff" d="M215.51,-47.08C208.46,-55.73 213.29,-65 230,-65 240.18,-65 245.95,-61.56 247.31,-56.91"/>
<polygon fill="#63b8ff" stroke="#63b8ff" points="250.61,-55.73 244.49,-47.08 243.88,-57.66 250.61,-55.73"/>
</a>
</g>
</g>
<!-- Node3&#45;&gt;Node2 -->
<g id="edge4_Node000003_Node000002" class="edge">
<title>Node3&#45;&gt;Node2</title>
<g id="a_edge4_Node000003_Node000002"><a xlink:title=" ">
<path fill="none" stroke="#63b8ff" d="M166.11,-18.36C174.45,-20.9 183.65,-23.7 192.37,-26.35"/>
<polygon fill="#63b8ff" stroke="#63b8ff" points="191.37,-29.71 201.96,-29.27 193.41,-23.01 191.37,-29.71"/>
</a>
</g>
</g>
<!-- Node3&#45;&gt;Node3 -->
<g id="edge5_Node000003_Node000003" class="edge">
<title>Node3&#45;&gt;Node3</title>
<g id="a_edge5_Node000003_Node000003"><a xlink:title=" ">
<path fill="none" stroke="#63b8ff" d="M121.51,-19.08C114.46,-27.73 119.29,-37 136,-37 146.18,-37 151.95,-33.56 153.31,-28.91"/>
<polygon fill="#63b8ff" stroke="#63b8ff" points="156.61,-27.73 150.49,-19.08 149.88,-29.66 156.61,-27.73"/>
</a>
</g>
</g>
</g>
</svg>
</svg>

<style type='text/css'>
<![CDATA[
[data-mouse-over-selected='false'] { opacity: 0.7; }
[data-mouse-over-selected='true']  { opacity: 1.0; }
]]>
</style>
<script type="application/ecmascript"><![CDATA[
document.addEventListener('DOMContentLoaded', (event) => {
  highlightEdges();
  highlightAdjacentNodes();
});
]]></script>
</svg>
