<?xml version="1.0" encoding="UTF-8" standalone="no"?>
<!DOCTYPE svg PUBLIC "-//W3C//DTD SVG 1.1//EN"
 "http://www.w3.org/Graphics/SVG/1.1/DTD/svg11.dtd">
<!-- Generated by graphviz version 2.43.0 (0)
 -->
<!-- Title: cstr_new Pages: 1 -->
<svg width="197pt" height="320pt"
 viewBox="0.00 0.00 197.00 320.00" xmlns="http://www.w3.org/2000/svg" xmlns:xlink="http://www.w3.org/1999/xlink">

<svg id="main" version="1.1" xmlns="http://www.w3.org/2000/svg" xmlns:xlink="http://www.w3.org/1999/xlink" xml:space="preserve" onload="init(evt)">
<style type="text/css"><![CDATA[
.node, .edge {opacity: 0.7;}
.node.selected, .edge.selected {opacity: 1;}
.edge:hover path { stroke: red; }
.edge:hover polygon { stroke: red; fill: red; }
]]></style>
<script type="application/ecmascript" xlink:href="svg.min.js"/>
<svg id="graph" class="graph">
<g id="graph0" class="graph" transform="scale(1 1) rotate(0) translate(4 316)">
<title>cstr_new</title>
<!-- Node1 -->
<g id="Node000001" class="node">
<title>Node1</title>
<g id="a_Node000001"><a xlink:title="Creates a new cstr from a C string.">
<polygon fill="#999999" stroke="#666666" points="189,-156 129,-156 129,-137 189,-137 189,-156"/>
<text text-anchor="middle" x="159" y="-144" font-family="Helvetica,sans-Serif" font-size="10.00">cstr_new</text>
</a>
</g>
</g>
<!-- Node1&#45;&gt;Node1 -->
<g id="edge3_Node000001_Node000001" class="edge">
<title>Node1&#45;&gt;Node1</title>
<g id="a_edge3_Node000001_Node000001"><a xlink:title=" ">
<path fill="none" stroke="#63b8ff" d="M179.74,-165.55C178.35,-170.38 171.44,-174 159,-174 139.09,-174 133.34,-164.73 141.74,-156.08"/>
<polygon fill="#63b8ff" stroke="#63b8ff" points="182.99,-164.26 176.26,-156.08 176.42,-166.68 182.99,-164.26"/>
</a>
</g>
</g>
<!-- Node2 -->
<g id="Node000002" class="node">
<title>Node2</title>
<g id="a_Node000002"><a xlink:href="cstr_8c.html#a44181a4b47f50b2520ae3ed80c5191b1" target="_top" xlink:title="Joins multiple cstrs with a delimiter.">
<polygon fill="white" stroke="#666666" points="75.5,-294 17.5,-294 17.5,-275 75.5,-275 75.5,-294"/>
<text text-anchor="middle" x="46.5" y="-282" font-family="Helvetica,sans-Serif" font-size="10.00">cstr_join</text>
</a>
</g>
</g>
<!-- Node1&#45;&gt;Node2 -->
<g id="edge1_Node000001_Node000002" class="edge">
<title>Node1&#45;&gt;Node2</title>
<g id="a_edge1_Node000001_Node000002"><a xlink:title=" ">
<path fill="none" stroke="#63b8ff" d="M152.18,-165.89C143.38,-192.09 124.33,-238.71 93,-266.5 88.04,-270.9 81.88,-274.29 75.71,-276.87"/>
<polygon fill="#63b8ff" stroke="#63b8ff" points="155.62,-166.62 155.32,-156.03 148.95,-164.49 155.62,-166.62"/>
</a>
</g>
</g>
<!-- Node3 -->
<g id="Node000003" class="node">
<title>Node3</title>
<g id="a_Node000003"><a xlink:href="cstr_8c.html#ab09b35f79bd6b009ca46cb3e2beee52c" target="_top" xlink:title="Replaces the first occurrence of a substring with another in the cstr.">
<polygon fill="white" stroke="#666666" points="84.5,-239 8.5,-239 8.5,-220 84.5,-220 84.5,-239"/>
<text text-anchor="middle" x="46.5" y="-227" font-family="Helvetica,sans-Serif" font-size="10.00">cstr_replace</text>
</a>
</g>
</g>
<!-- Node1&#45;&gt;Node3 -->
<g id="edge4_Node000001_Node000003" class="edge">
<title>Node1&#45;&gt;Node3</title>
<g id="a_edge4_Node000001_Node000003"><a xlink:title=" ">
<path fill="none" stroke="#63b8ff" d="M143.86,-164.22C131.65,-178.55 112.88,-198.44 93,-211.5 88.03,-214.76 82.38,-217.59 76.78,-219.97"/>
<polygon fill="#63b8ff" stroke="#63b8ff" points="146.88,-166.05 150.56,-156.12 141.49,-161.59 146.88,-166.05"/>
</a>
</g>
</g>
<!-- Node4 -->
<g id="Node000004" class="node">
<title>Node4</title>
<g id="a_Node000004"><a xlink:href="cstr_8c.html#a5e8d893a2d7559b2eb124d18bff2ff99" target="_top" xlink:title="Replaces all occurrences of a substring with another.">
<polygon fill="white" stroke="#666666" points="93,-184 0,-184 0,-165 93,-165 93,-184"/>
<text text-anchor="middle" x="46.5" y="-172" font-family="Helvetica,sans-Serif" font-size="10.00">cstr_replace_all</text>
</a>
</g>
</g>
<!-- Node1&#45;&gt;Node4 -->
<g id="edge6_Node000001_Node000004" class="edge">
<title>Node1&#45;&gt;Node4</title>
<g id="a_edge6_Node000001_Node000004"><a xlink:title=" ">
<path fill="none" stroke="#63b8ff" d="M119.14,-156.35C108.08,-159.15 96.06,-162.2 85.08,-164.98"/>
<polygon fill="#63b8ff" stroke="#63b8ff" points="120.13,-159.71 128.97,-153.86 118.41,-152.92 120.13,-159.71"/>
</a>
</g>
</g>
<!-- Node5 -->
<g id="Node000005" class="node">
<title>Node5</title>
<g id="a_Node000005"><a xlink:href="cstr_8c.html#a3cb97207769b7dcc91c8d805293f19b6" target="_top" xlink:title="Creates a new cstr with the contents of the input cstr reversed.">
<polygon fill="white" stroke="#666666" points="85,-129 8,-129 8,-110 85,-110 85,-129"/>
<text text-anchor="middle" x="46.5" y="-117" font-family="Helvetica,sans-Serif" font-size="10.00">cstr_reverse</text>
</a>
</g>
</g>
<!-- Node1&#45;&gt;Node5 -->
<g id="edge8_Node000001_Node000005" class="edge">
<title>Node1&#45;&gt;Node5</title>
<g id="a_edge8_Node000001_Node000005"><a xlink:title=" ">
<path fill="none" stroke="#63b8ff" d="M119.14,-137C108.08,-134.3 96.06,-131.37 85.08,-128.68"/>
<polygon fill="#63b8ff" stroke="#63b8ff" points="118.42,-140.43 128.97,-139.41 120.08,-133.63 118.42,-140.43"/>
</a>
</g>
</g>
<!-- Node6 -->
<g id="Node000006" class="node">
<title>Node6</title>
<g id="a_Node000006"><a xlink:href="cstr_8c.html#ae40a0dbbb1586e7ae46735342a773825" target="_top" xlink:title="Splits the cstr into substrings based on a delimiter.">
<polygon fill="white" stroke="#666666" points="77,-74 16,-74 16,-55 77,-55 77,-74"/>
<text text-anchor="middle" x="46.5" y="-62" font-family="Helvetica,sans-Serif" font-size="10.00">cstr_split</text>
</a>
</g>
</g>
<!-- Node1&#45;&gt;Node6 -->
<g id="edge10_Node000001_Node000006" class="edge">
<title>Node1&#45;&gt;Node6</title>
<g id="a_edge10_Node000001_Node000006"><a xlink:title=" ">
<path fill="none" stroke="#63b8ff" d="M136.63,-130.65C114.11,-113.93 79.36,-88.14 60.59,-74.22"/>
<polygon fill="#63b8ff" stroke="#63b8ff" points="134.77,-133.62 144.89,-136.77 138.95,-128 134.77,-133.62"/>
</a>
</g>
</g>
<!-- Node7 -->
<g id="Node000007" class="node">
<title>Node7</title>
<g id="a_Node000007"><a xlink:href="cstr_8c.html#ab0329e72b480c5a1c0b51053cc725be9" target="_top" xlink:title="Extracts a substring from the cstr.">
<polygon fill="white" stroke="#666666" points="81.5,-19 11.5,-19 11.5,0 81.5,0 81.5,-19"/>
<text text-anchor="middle" x="46.5" y="-7" font-family="Helvetica,sans-Serif" font-size="10.00">cstr_substr</text>
</a>
</g>
</g>
<!-- Node1&#45;&gt;Node7 -->
<g id="edge12_Node000001_Node000007" class="edge">
<title>Node1&#45;&gt;Node7</title>
<g id="a_edge12_Node000001_Node000007"><a xlink:title=" ">
<path fill="none" stroke="#63b8ff" d="M148.2,-127.82C136.64,-106.78 116.06,-72.16 93,-46.5 83.61,-36.05 71.12,-26.12 61.6,-19.18"/>
<polygon fill="#63b8ff" stroke="#63b8ff" points="145.16,-129.57 152.98,-136.71 151.32,-126.25 145.16,-129.57"/>
</a>
</g>
</g>
<!-- Node2&#45;&gt;Node2 -->
<g id="edge2_Node000002_Node000002" class="edge">
<title>Node2&#45;&gt;Node2</title>
<g id="a_edge2_Node000002_Node000002"><a xlink:title=" ">
<path fill="none" stroke="#63b8ff" d="M67.24,-303.55C65.85,-308.38 58.94,-312 46.5,-312 26.59,-312 20.84,-302.73 29.24,-294.08"/>
<polygon fill="#63b8ff" stroke="#63b8ff" points="70.49,-302.26 63.76,-294.08 63.92,-304.68 70.49,-302.26"/>
</a>
</g>
</g>
<!-- Node3&#45;&gt;Node3 -->
<g id="edge5_Node000003_Node000003" class="edge">
<title>Node3&#45;&gt;Node3</title>
<g id="a_edge5_Node000003_Node000003"><a xlink:title=" ">
<path fill="none" stroke="#63b8ff" d="M67.24,-248.55C65.85,-253.38 58.94,-257 46.5,-257 26.59,-257 20.84,-247.73 29.24,-239.08"/>
<polygon fill="#63b8ff" stroke="#63b8ff" points="70.49,-247.26 63.76,-239.08 63.92,-249.68 70.49,-247.26"/>
</a>
</g>
</g>
<!-- Node4&#45;&gt;Node4 -->
<g id="edge7_Node000004_Node000004" class="edge">
<title>Node4&#45;&gt;Node4</title>
<g id="a_edge7_Node000004_Node000004"><a xlink:title=" ">
<path fill="none" stroke="#63b8ff" d="M67.24,-193.55C65.85,-198.38 58.94,-202 46.5,-202 26.59,-202 20.84,-192.73 29.24,-184.08"/>
<polygon fill="#63b8ff" stroke="#63b8ff" points="70.49,-192.26 63.76,-184.08 63.92,-194.68 70.49,-192.26"/>
</a>
</g>
</g>
<!-- Node5&#45;&gt;Node5 -->
<g id="edge9_Node000005_Node000005" class="edge">
<title>Node5&#45;&gt;Node5</title>
<g id="a_edge9_Node000005_Node000005"><a xlink:title=" ">
<path fill="none" stroke="#63b8ff" d="M67.24,-138.55C65.85,-143.38 58.94,-147 46.5,-147 26.59,-147 20.84,-137.73 29.24,-129.08"/>
<polygon fill="#63b8ff" stroke="#63b8ff" points="70.49,-137.26 63.76,-129.08 63.92,-139.68 70.49,-137.26"/>
</a>
</g>
</g>
<!-- Node6&#45;&gt;Node6 -->
<g id="edge11_Node000006_Node000006" class="edge">
<title>Node6&#45;&gt;Node6</title>
<g id="a_edge11_Node000006_Node000006"><a xlink:title=" ">
<path fill="none" stroke="#63b8ff" d="M67.24,-83.55C65.85,-88.38 58.94,-92 46.5,-92 26.59,-92 20.84,-82.73 29.24,-74.08"/>
<polygon fill="#63b8ff" stroke="#63b8ff" points="70.49,-82.26 63.76,-74.08 63.92,-84.68 70.49,-82.26"/>
</a>
</g>
</g>
<!-- Node7&#45;&gt;Node7 -->
<g id="edge13_Node000007_Node000007" class="edge">
<title>Node7&#45;&gt;Node7</title>
<g id="a_edge13_Node000007_Node000007"><a xlink:title=" ">
<path fill="none" stroke="#63b8ff" d="M67.24,-28.55C65.85,-33.38 58.94,-37 46.5,-37 26.59,-37 20.84,-27.73 29.24,-19.08"/>
<polygon fill="#63b8ff" stroke="#63b8ff" points="70.49,-27.26 63.76,-19.08 63.92,-29.68 70.49,-27.26"/>
</a>
</g>
</g>
</g>
</svg>
</svg>

<style type='text/css'>
<![CDATA[
[data-mouse-over-selected='false'] { opacity: 0.7; }
[data-mouse-over-selected='true']  { opacity: 1.0; }
]]>
</style>
<script type="application/ecmascript"><![CDATA[
document.addEventListener('DOMContentLoaded', (event) => {
  highlightEdges();
  highlightAdjacentNodes();
});
]]></script>
</svg>
