<?xml version="1.0" encoding="UTF-8" standalone="no"?>
<!DOCTYPE svg PUBLIC "-//W3C//DTD SVG 1.1//EN"
 "http://www.w3.org/Graphics/SVG/1.1/DTD/svg11.dtd">
<!-- Generated by graphviz version 2.43.0 (0)
 -->
<!-- Title: cstr_heap_cap Pages: 1 -->
<svg width="230pt" height="101pt"
 viewBox="0.00 0.00 230.00 101.00" xmlns="http://www.w3.org/2000/svg" xmlns:xlink="http://www.w3.org/1999/xlink">
<g id="graph0" class="graph" transform="scale(1 1) rotate(0) translate(4 97)">
<title>cstr_heap_cap</title>
<!-- Node1 -->
<g id="Node000001" class="node">
<title>Node1</title>
<g id="a_Node000001"><a xlink:title=" ">
<polygon fill="#999999" stroke="#666666" points="222,-56 136,-56 136,-37 222,-37 222,-56"/>
<text text-anchor="middle" x="179" y="-44" font-family="Helvetica,sans-Serif" font-size="10.00">cstr_heap_cap</text>
</a>
</g>
</g>
<!-- Node2 -->
<g id="Node000002" class="node">
<title>Node2</title>
<g id="a_Node000002"><a xlink:href="cstr_8h.html#aaee799b13da4e7fc4a2cc10db9775f0b" target="_top" xlink:title="Current storage capacity (bytes available before reallocation). For SSO strings this is CSTR_SSO_CAP ...">
<polygon fill="white" stroke="#666666" points="90.5,-93 9.5,-93 9.5,-74 90.5,-74 90.5,-93"/>
<text text-anchor="middle" x="50" y="-81" font-family="Helvetica,sans-Serif" font-size="10.00">cstr_capacity</text>
</a>
</g>
</g>
<!-- Node1&#45;&gt;Node2 -->
<g id="edge1_Node000001_Node000002" class="edge">
<title>Node1&#45;&gt;Node2</title>
<g id="a_edge1_Node000001_Node000002"><a xlink:title=" ">
<path fill="none" stroke="#63b8ff" d="M135.69,-58.83C118.87,-63.73 99.81,-69.28 84.04,-73.88"/>
<polygon fill="#63b8ff" stroke="#63b8ff" points="136.67,-62.19 145.29,-56.03 134.71,-55.47 136.67,-62.19"/>
</a>
</g>
</g>
<!-- Node3 -->
<g id="Node000003" class="node">
<title>Node3</title>
<g id="a_Node000003"><a xlink:href="cstr_8c.html#a502782ea6c7a22c7032b34526b3b6e29" target="_top" xlink:title="Print debug information about a cstr to stderr.">
<polygon fill="white" stroke="#666666" points="85,-56 15,-56 15,-37 85,-37 85,-56"/>
<text text-anchor="middle" x="50" y="-44" font-family="Helvetica,sans-Serif" font-size="10.00">cstr_debug</text>
</a>
</g>
</g>
<!-- Node1&#45;&gt;Node3 -->
<g id="edge2_Node000001_Node000003" class="edge">
<title>Node1&#45;&gt;Node3</title>
<g id="a_edge2_Node000001_Node000003"><a xlink:title=" ">
<path fill="none" stroke="#63b8ff" d="M125.46,-46.5C111.83,-46.5 97.5,-46.5 85.09,-46.5"/>
<polygon fill="#63b8ff" stroke="#63b8ff" points="125.71,-50 135.71,-46.5 125.71,-43 125.71,-50"/>
</a>
</g>
</g>
<!-- Node4 -->
<g id="Node000004" class="node">
<title>Node4</title>
<g id="a_Node000004"><a xlink:href="cstr_8c.html#aaaffc7231bda5e82e146df5ad9584b8d" target="_top" xlink:title="Shrink heap allocation to fit the current length (frees wasted memory).">
<polygon fill="white" stroke="#666666" points="100,-19 0,-19 0,0 100,0 100,-19"/>
<text text-anchor="middle" x="50" y="-7" font-family="Helvetica,sans-Serif" font-size="10.00">cstr_shrink_to_fit</text>
</a>
</g>
</g>
<!-- Node1&#45;&gt;Node4 -->
<g id="edge3_Node000001_Node000004" class="edge">
<title>Node1&#45;&gt;Node4</title>
<g id="a_edge3_Node000001_Node000004"><a xlink:title=" ">
<path fill="none" stroke="#63b8ff" d="M135.69,-34.17C118.87,-29.27 99.81,-23.72 84.04,-19.12"/>
<polygon fill="#63b8ff" stroke="#63b8ff" points="134.71,-37.53 145.29,-36.97 136.67,-30.81 134.71,-37.53"/>
</a>
</g>
</g>
</g>
</svg>
