<?xml version="1.0" encoding="UTF-8" standalone="no"?>
<!DOCTYPE svg PUBLIC "-//W3C//DTD SVG 1.1//EN"
 "http://www.w3.org/Graphics/SVG/1.1/DTD/svg11.dtd">
<!-- Generated by graphviz version 2.43.0 (0)
 -->
<!-- Title: cstr_init_inplace Pages: 1 -->
<svg width="316pt" height="101pt"
 viewBox="0.00 0.00 316.00 101.00" xmlns="http://www.w3.org/2000/svg" xmlns:xlink="http://www.w3.org/1999/xlink">

<svg id="main" version="1.1" xmlns="http://www.w3.org/2000/svg" xmlns:xlink="http://www.w3.org/1999/xlink" xml:space="preserve" onload="init(evt)">
<style type="text/css"><![CDATA[
.node, .edge {opacity: 0.7;}
.node.selected, .edge.selected {opacity: 1;}
.edge:hover path { stroke: red; }
.edge:hover polygon { stroke: red; fill: red; }
]]></style>
<script type="application/ecmascript" xlink:href="svg.min.js"/>
<svg id="graph" class="graph">
<g id="graph0" class="graph" transform="scale(1 1) rotate(0) translate(4 97)">
<title>cstr_init_inplace</title>
<!-- Node1 -->
<g id="Node000001" class="node">
<title>Node1</title>
<g id="a_Node000001"><a xlink:title="Initialize an already&#45;allocated cstr in SSO mode (no heap).">
<polygon fill="#999999" stroke="#666666" points="308,-56 212,-56 212,-37 308,-37 308,-56"/>
<text text-anchor="middle" x="260" y="-44" font-family="Helvetica,sans-Serif" font-size="10.00">cstr_init_inplace</text>
</a>
</g>
</g>
<!-- Node2 -->
<g id="Node000002" class="node">
<title>Node2</title>
<g id="a_Node000002"><a xlink:href="cstr_8c.html#ad783e4a1ef53d26feed9c59cd88b99de" target="_top" xlink:title="Release only the internal heap buffer of an embedded cstr (one created via cstr_init_inplace)....">
<polygon fill="white" stroke="#666666" points="167,-93 105,-93 105,-74 167,-74 167,-93"/>
<text text-anchor="middle" x="136" y="-81" font-family="Helvetica,sans-Serif" font-size="10.00">cstr_drop</text>
</a>
</g>
</g>
<!-- Node1&#45;&gt;Node2 -->
<g id="edge1_Node000001_Node000002" class="edge">
<title>Node1&#45;&gt;Node2</title>
<g id="a_edge1_Node000001_Node000002"><a xlink:title=" ">
<path fill="none" stroke="#63b8ff" d="M217.59,-59.06C201.02,-64.09 182.28,-69.77 167.05,-74.39"/>
<polygon fill="#63b8ff" stroke="#63b8ff" points="219.03,-62.28 227.58,-56.03 217,-55.58 219.03,-62.28"/>
</a>
</g>
</g>
<!-- Node3 -->
<g id="Node000003" class="node">
<title>Node3</title>
<g id="a_Node000003"><a xlink:href="cstr_8c.html#addbb5ac6b50949c8b4ef489563117300" target="_top" xlink:title="Create a new heap&#45;allocated cstr with a given initial capacity.">
<polygon fill="white" stroke="#666666" points="164,-56 108,-56 108,-37 164,-37 164,-56"/>
<text text-anchor="middle" x="136" y="-44" font-family="Helvetica,sans-Serif" font-size="10.00">cstr_init</text>
</a>
</g>
</g>
<!-- Node1&#45;&gt;Node3 -->
<g id="edge2_Node000001_Node000003" class="edge">
<title>Node1&#45;&gt;Node3</title>
<g id="a_edge2_Node000001_Node000003"><a xlink:title=" ">
<path fill="none" stroke="#63b8ff" d="M201.51,-46.5C188.53,-46.5 175.34,-46.5 164.29,-46.5"/>
<polygon fill="#63b8ff" stroke="#63b8ff" points="201.83,-50 211.83,-46.5 201.83,-43 201.83,-50"/>
</a>
</g>
</g>
<!-- Node5 -->
<g id="Node000005" class="node">
<title>Node5</title>
<g id="a_Node000005"><a xlink:href="cstr_8c.html#a9d0695940c5df080ac5b29df7439d02b" target="_top" xlink:title="Create a new cstr from a buffer of known length (no strlen needed).">
<polygon fill="white" stroke="#666666" points="176,-19 96,-19 96,0 176,0 176,-19"/>
<text text-anchor="middle" x="136" y="-7" font-family="Helvetica,sans-Serif" font-size="10.00">cstr_new_len</text>
</a>
</g>
</g>
<!-- Node1&#45;&gt;Node5 -->
<g id="edge4_Node000001_Node000005" class="edge">
<title>Node1&#45;&gt;Node5</title>
<g id="a_edge4_Node000001_Node000005"><a xlink:title=" ">
<path fill="none" stroke="#63b8ff" d="M217.9,-34.04C201.86,-29.17 183.75,-23.68 168.74,-19.12"/>
<polygon fill="#63b8ff" stroke="#63b8ff" points="217,-37.42 227.58,-36.97 219.03,-30.72 217,-37.42"/>
</a>
</g>
</g>
<!-- Node4 -->
<g id="Node000004" class="node">
<title>Node4</title>
<g id="a_Node000004"><a xlink:href="cstr_8c.html#a44181a4b47f50b2520ae3ed80c5191b1" target="_top" xlink:title="Join an array of cstr pointers with a delimiter.">
<polygon fill="white" stroke="#666666" points="59,-56 1,-56 1,-37 59,-37 59,-56"/>
<text text-anchor="middle" x="30" y="-44" font-family="Helvetica,sans-Serif" font-size="10.00">cstr_join</text>
</a>
</g>
</g>
<!-- Node3&#45;&gt;Node4 -->
<g id="edge3_Node000003_Node000004" class="edge">
<title>Node3&#45;&gt;Node4</title>
<g id="a_edge3_Node000003_Node000004"><a xlink:title=" ">
<path fill="none" stroke="#63b8ff" d="M97.62,-46.5C84.89,-46.5 70.88,-46.5 59.01,-46.5"/>
<polygon fill="#63b8ff" stroke="#63b8ff" points="97.95,-50 107.95,-46.5 97.95,-43 97.95,-50"/>
</a>
</g>
</g>
<!-- Node5&#45;&gt;Node4 -->
<g id="edge5_Node000005_Node000004" class="edge">
<title>Node5&#45;&gt;Node4</title>
<g id="a_edge5_Node000005_Node000004"><a xlink:title=" ">
<path fill="none" stroke="#63b8ff" d="M98.41,-22.52C85.13,-27.24 70.37,-32.49 58.05,-36.88"/>
<polygon fill="#63b8ff" stroke="#63b8ff" points="99.97,-25.68 108.22,-19.03 97.62,-19.08 99.97,-25.68"/>
</a>
</g>
</g>
<!-- Node6 -->
<g id="Node000006" class="node">
<title>Node6</title>
<g id="a_Node000006"><a xlink:href="cstr_8c.html#a7effe7536a6058739d5d43a601e9f857" target="_top" xlink:title="Create a new cstr from a C string.">
<polygon fill="white" stroke="#666666" points="60,-19 0,-19 0,0 60,0 60,-19"/>
<text text-anchor="middle" x="30" y="-7" font-family="Helvetica,sans-Serif" font-size="10.00">cstr_new</text>
</a>
</g>
</g>
<!-- Node5&#45;&gt;Node6 -->
<g id="edge6_Node000005_Node000006" class="edge">
<title>Node5&#45;&gt;Node6</title>
<g id="a_edge6_Node000005_Node000006"><a xlink:title=" ">
<path fill="none" stroke="#63b8ff" d="M85.79,-9.5C77.02,-9.5 68.14,-9.5 60.16,-9.5"/>
<polygon fill="#63b8ff" stroke="#63b8ff" points="85.98,-13 95.98,-9.5 85.98,-6 85.98,-13"/>
</a>
</g>
</g>
</g>
</svg>
</svg>

<style type='text/css'>
<![CDATA[
[data-mouse-over-selected='false'] { opacity: 0.7; }
[data-mouse-over-selected='true']  { opacity: 1.0; }
]]>
</style>
<script type="application/ecmascript"><![CDATA[
document.addEventListener('DOMContentLoaded', (event) => {
  highlightEdges();
  highlightAdjacentNodes();
});
]]></script>
</svg>
