<?xml version="1.0" encoding="UTF-8" standalone="no"?>
<!DOCTYPE svg PUBLIC "-//W3C//DTD SVG 1.1//EN"
 "http://www.w3.org/Graphics/SVG/1.1/DTD/svg11.dtd">
<!-- Generated by graphviz version 2.43.0 (0)
 -->
<!-- Title: cstr_init Pages: 1 -->
<svg width="289pt" height="320pt"
 viewBox="0.00 0.00 289.00 320.00" xmlns="http://www.w3.org/2000/svg" xmlns:xlink="http://www.w3.org/1999/xlink">

<svg id="main" version="1.1" xmlns="http://www.w3.org/2000/svg" xmlns:xlink="http://www.w3.org/1999/xlink" xml:space="preserve" onload="init(evt)">
<style type="text/css"><![CDATA[
.node, .edge {opacity: 0.7;}
.node.selected, .edge.selected {opacity: 1;}
.edge:hover path { stroke: red; }
.edge:hover polygon { stroke: red; fill: red; }
]]></style>
<script type="application/ecmascript" xlink:href="svg.min.js"/>
<svg id="graph" class="graph">
<g id="graph0" class="graph" transform="scale(1 1) rotate(0) translate(4 316)">
<title>cstr_init</title>
<!-- Node1 -->
<g id="Node000001" class="node">
<title>Node1</title>
<g id="a_Node000001"><a xlink:title="Creates a new empty cstr with specified initial capacity.">
<polygon fill="#999999" stroke="#666666" points="281,-147 225,-147 225,-128 281,-128 281,-147"/>
<text text-anchor="middle" x="253" y="-135" font-family="Helvetica,sans-Serif" font-size="10.00">cstr_init</text>
</a>
</g>
</g>
<!-- Node1&#45;&gt;Node1 -->
<g id="edge1_Node000001_Node000001" class="edge">
<title>Node1&#45;&gt;Node1</title>
<g id="a_edge1_Node000001_Node000001"><a xlink:title=" ">
<path fill="none" stroke="#63b8ff" d="M270.31,-156.91C268.95,-161.56 263.18,-165 253,-165 236.29,-165 231.46,-155.73 238.51,-147.08"/>
<polygon fill="#63b8ff" stroke="#63b8ff" points="273.61,-155.73 267.49,-147.08 266.88,-157.66 273.61,-155.73"/>
</a>
</g>
</g>
<!-- Node2 -->
<g id="Node000002" class="node">
<title>Node2</title>
<g id="a_Node000002"><a xlink:href="cstr_8c.html#a44181a4b47f50b2520ae3ed80c5191b1" target="_top" xlink:title="Joins multiple cstrs with a delimiter.">
<polygon fill="white" stroke="#666666" points="75.5,-294 17.5,-294 17.5,-275 75.5,-275 75.5,-294"/>
<text text-anchor="middle" x="46.5" y="-282" font-family="Helvetica,sans-Serif" font-size="10.00">cstr_join</text>
</a>
</g>
</g>
<!-- Node1&#45;&gt;Node2 -->
<g id="edge2_Node000001_Node000002" class="edge">
<title>Node1&#45;&gt;Node2</title>
<g id="a_edge2_Node000001_Node000002"><a xlink:title=" ">
<path fill="none" stroke="#63b8ff" d="M240.73,-155.69C229.33,-172.99 210.37,-198.91 189,-216.5 154.39,-245 105.83,-264.95 75.54,-275.57"/>
<polygon fill="#63b8ff" stroke="#63b8ff" points="243.8,-157.39 246.26,-147.08 237.91,-153.61 243.8,-157.39"/>
</a>
</g>
</g>
<!-- Node3 -->
<g id="Node000003" class="node">
<title>Node3</title>
<g id="a_Node000003"><a xlink:href="cstr_8c.html#a7effe7536a6058739d5d43a601e9f857" target="_top" xlink:title="Creates a new cstr from a C string.">
<polygon fill="white" stroke="#666666" points="189,-147 129,-147 129,-128 189,-128 189,-147"/>
<text text-anchor="middle" x="159" y="-135" font-family="Helvetica,sans-Serif" font-size="10.00">cstr_new</text>
</a>
</g>
</g>
<!-- Node1&#45;&gt;Node3 -->
<g id="edge4_Node000001_Node000003" class="edge">
<title>Node1&#45;&gt;Node3</title>
<g id="a_edge4_Node000001_Node000003"><a xlink:title=" ">
<path fill="none" stroke="#63b8ff" d="M214.78,-137.5C206.24,-137.5 197.29,-137.5 189.16,-137.5"/>
<polygon fill="#63b8ff" stroke="#63b8ff" points="214.89,-141 224.89,-137.5 214.89,-134 214.89,-141"/>
</a>
</g>
</g>
<!-- Node4 -->
<g id="Node000004" class="node">
<title>Node4</title>
<g id="a_Node000004"><a xlink:href="cstr_8c.html#ab09b35f79bd6b009ca46cb3e2beee52c" target="_top" xlink:title="Replaces the first occurrence of a substring with another in the cstr.">
<polygon fill="white" stroke="#666666" points="84.5,-239 8.5,-239 8.5,-220 84.5,-220 84.5,-239"/>
<text text-anchor="middle" x="46.5" y="-227" font-family="Helvetica,sans-Serif" font-size="10.00">cstr_replace</text>
</a>
</g>
</g>
<!-- Node1&#45;&gt;Node4 -->
<g id="edge17_Node000001_Node000004" class="edge">
<title>Node1&#45;&gt;Node4</title>
<g id="a_edge17_Node000001_Node000004"><a xlink:title=" ">
<path fill="none" stroke="#63b8ff" d="M236.18,-154.64C224.27,-166.58 206.98,-182.02 189,-191.5 155.93,-208.95 114.18,-218.89 84.63,-224.19"/>
<polygon fill="#63b8ff" stroke="#63b8ff" points="238.75,-157.02 243.18,-147.39 233.72,-152.15 238.75,-157.02"/>
</a>
</g>
</g>
<!-- Node5 -->
<g id="Node000005" class="node">
<title>Node5</title>
<g id="a_Node000005"><a xlink:href="cstr_8c.html#a5e8d893a2d7559b2eb124d18bff2ff99" target="_top" xlink:title="Replaces all occurrences of a substring with another.">
<polygon fill="white" stroke="#666666" points="93,-184 0,-184 0,-165 93,-165 93,-184"/>
<text text-anchor="middle" x="46.5" y="-172" font-family="Helvetica,sans-Serif" font-size="10.00">cstr_replace_all</text>
</a>
</g>
</g>
<!-- Node1&#45;&gt;Node5 -->
<g id="edge18_Node000001_Node000005" class="edge">
<title>Node1&#45;&gt;Node5</title>
<g id="a_edge18_Node000001_Node000005"><a xlink:title=" ">
<path fill="none" stroke="#63b8ff" d="M231.67,-153.21C219.9,-161.29 204.41,-170.31 189,-174.5 157.83,-182.98 121.34,-182.75 93.23,-180.51"/>
<polygon fill="#63b8ff" stroke="#63b8ff" points="233.8,-155.98 239.87,-147.3 229.71,-150.3 233.8,-155.98"/>
</a>
</g>
</g>
<!-- Node6 -->
<g id="Node000006" class="node">
<title>Node6</title>
<g id="a_Node000006"><a xlink:href="cstr_8c.html#a3cb97207769b7dcc91c8d805293f19b6" target="_top" xlink:title="Creates a new cstr with the contents of the input cstr reversed.">
<polygon fill="white" stroke="#666666" points="85,-129 8,-129 8,-110 85,-110 85,-129"/>
<text text-anchor="middle" x="46.5" y="-117" font-family="Helvetica,sans-Serif" font-size="10.00">cstr_reverse</text>
</a>
</g>
</g>
<!-- Node1&#45;&gt;Node6 -->
<g id="edge19_Node000001_Node000006" class="edge">
<title>Node1&#45;&gt;Node6</title>
<g id="a_edge19_Node000001_Node000006"><a xlink:title=" ">
<path fill="none" stroke="#63b8ff" d="M215.12,-125.11C206.64,-122.78 197.58,-120.7 189,-119.5 154.09,-114.61 113.86,-115.2 85.24,-116.67"/>
<polygon fill="#63b8ff" stroke="#63b8ff" points="214.18,-128.48 224.76,-127.93 216.14,-121.76 214.18,-128.48"/>
</a>
</g>
</g>
<!-- Node7 -->
<g id="Node000007" class="node">
<title>Node7</title>
<g id="a_Node000007"><a xlink:href="cstr_8c.html#ae40a0dbbb1586e7ae46735342a773825" target="_top" xlink:title="Splits the cstr into substrings based on a delimiter.">
<polygon fill="white" stroke="#666666" points="77,-74 16,-74 16,-55 77,-55 77,-74"/>
<text text-anchor="middle" x="46.5" y="-62" font-family="Helvetica,sans-Serif" font-size="10.00">cstr_split</text>
</a>
</g>
</g>
<!-- Node1&#45;&gt;Node7 -->
<g id="edge20_Node000001_Node000007" class="edge">
<title>Node1&#45;&gt;Node7</title>
<g id="a_edge20_Node000001_Node000007"><a xlink:title=" ">
<path fill="none" stroke="#63b8ff" d="M220.76,-124.1C210.68,-119.91 199.42,-115.38 189,-111.5 150.79,-97.29 106.03,-82.77 77.25,-73.71"/>
<polygon fill="#63b8ff" stroke="#63b8ff" points="219.42,-127.33 229.99,-127.97 222.13,-120.87 219.42,-127.33"/>
</a>
</g>
</g>
<!-- Node8 -->
<g id="Node000008" class="node">
<title>Node8</title>
<g id="a_Node000008"><a xlink:href="cstr_8c.html#ab0329e72b480c5a1c0b51053cc725be9" target="_top" xlink:title="Extracts a substring from the cstr.">
<polygon fill="white" stroke="#666666" points="81.5,-19 11.5,-19 11.5,0 81.5,0 81.5,-19"/>
<text text-anchor="middle" x="46.5" y="-7" font-family="Helvetica,sans-Serif" font-size="10.00">cstr_substr</text>
</a>
</g>
</g>
<!-- Node1&#45;&gt;Node8 -->
<g id="edge21_Node000001_Node000008" class="edge">
<title>Node1&#45;&gt;Node8</title>
<g id="a_edge21_Node000001_Node000008"><a xlink:title=" ">
<path fill="none" stroke="#63b8ff" d="M233.63,-121.14C221.42,-110.64 204.78,-97.05 189,-86.5 147.85,-58.98 95.96,-32.71 67.85,-19.11"/>
<polygon fill="#63b8ff" stroke="#63b8ff" points="231.48,-123.9 241.32,-127.84 236.08,-118.63 231.48,-123.9"/>
</a>
</g>
</g>
<!-- Node2&#45;&gt;Node2 -->
<g id="edge3_Node000002_Node000002" class="edge">
<title>Node2&#45;&gt;Node2</title>
<g id="a_edge3_Node000002_Node000002"><a xlink:title=" ">
<path fill="none" stroke="#63b8ff" d="M67.24,-303.55C65.85,-308.38 58.94,-312 46.5,-312 26.59,-312 20.84,-302.73 29.24,-294.08"/>
<polygon fill="#63b8ff" stroke="#63b8ff" points="70.49,-302.26 63.76,-294.08 63.92,-304.68 70.49,-302.26"/>
</a>
</g>
</g>
<!-- Node3&#45;&gt;Node2 -->
<g id="edge5_Node000003_Node000002" class="edge">
<title>Node3&#45;&gt;Node2</title>
<g id="a_edge5_Node000003_Node000002"><a xlink:title=" ">
<path fill="none" stroke="#63b8ff" d="M153.04,-156.76C144.94,-184.59 126.34,-236.03 93,-266.5 88.11,-270.97 81.97,-274.39 75.81,-276.98"/>
<polygon fill="#63b8ff" stroke="#63b8ff" points="156.44,-157.6 155.72,-147.03 149.69,-155.75 156.44,-157.6"/>
</a>
</g>
</g>
<!-- Node3&#45;&gt;Node3 -->
<g id="edge6_Node000003_Node000003" class="edge">
<title>Node3&#45;&gt;Node3</title>
<g id="a_edge6_Node000003_Node000003"><a xlink:title=" ">
<path fill="none" stroke="#63b8ff" d="M176.31,-156.91C174.95,-161.56 169.18,-165 159,-165 142.29,-165 137.46,-155.73 144.51,-147.08"/>
<polygon fill="#63b8ff" stroke="#63b8ff" points="179.61,-155.73 173.49,-147.08 172.88,-157.66 179.61,-155.73"/>
</a>
</g>
</g>
<!-- Node3&#45;&gt;Node4 -->
<g id="edge7_Node000003_Node000004" class="edge">
<title>Node3&#45;&gt;Node4</title>
<g id="a_edge7_Node000003_Node000004"><a xlink:title=" ">
<path fill="none" stroke="#63b8ff" d="M145.81,-155.76C133.99,-172.26 114.71,-196.22 93,-211.5 88.42,-214.73 83.17,-217.49 77.91,-219.81"/>
<polygon fill="#63b8ff" stroke="#63b8ff" points="148.74,-157.68 151.57,-147.47 142.99,-153.68 148.74,-157.68"/>
</a>
</g>
</g>
<!-- Node3&#45;&gt;Node5 -->
<g id="edge9_Node000003_Node000005" class="edge">
<title>Node3&#45;&gt;Node5</title>
<g id="a_edge9_Node000003_Node000005"><a xlink:title=" ">
<path fill="none" stroke="#63b8ff" d="M119.95,-150.24C105.63,-155.04 89.58,-160.41 76.24,-164.88"/>
<polygon fill="#63b8ff" stroke="#63b8ff" points="121.17,-153.52 129.54,-147.03 118.95,-146.88 121.17,-153.52"/>
</a>
</g>
</g>
<!-- Node3&#45;&gt;Node6 -->
<g id="edge11_Node000003_Node000006" class="edge">
<title>Node3&#45;&gt;Node6</title>
<g id="a_edge11_Node000003_Node000006"><a xlink:title=" ">
<path fill="none" stroke="#63b8ff" d="M118.8,-131.11C107.84,-129.33 95.95,-127.39 85.08,-125.62"/>
<polygon fill="#63b8ff" stroke="#63b8ff" points="118.53,-134.62 128.97,-132.77 119.66,-127.71 118.53,-134.62"/>
</a>
</g>
</g>
<!-- Node3&#45;&gt;Node7 -->
<g id="edge13_Node000003_Node000007" class="edge">
<title>Node3&#45;&gt;Node7</title>
<g id="a_edge13_Node000003_Node000007"><a xlink:title=" ">
<path fill="none" stroke="#63b8ff" d="M135.13,-122.39C113.14,-107.86 80.56,-86.34 61.95,-74.05"/>
<polygon fill="#63b8ff" stroke="#63b8ff" points="133.28,-125.36 143.55,-127.96 137.14,-119.52 133.28,-125.36"/>
</a>
</g>
</g>
<!-- Node3&#45;&gt;Node8 -->
<g id="edge15_Node000003_Node000008" class="edge">
<title>Node3&#45;&gt;Node8</title>
<g id="a_edge15_Node000003_Node000008"><a xlink:title=" ">
<path fill="none" stroke="#63b8ff" d="M147.26,-119.2C135.38,-99.76 114.97,-68.7 93,-45.5 83.58,-35.55 71.33,-26.02 61.91,-19.26"/>
<polygon fill="#63b8ff" stroke="#63b8ff" points="144.38,-121.19 152.52,-127.96 150.38,-117.59 144.38,-121.19"/>
</a>
</g>
</g>
<!-- Node4&#45;&gt;Node4 -->
<g id="edge8_Node000004_Node000004" class="edge">
<title>Node4&#45;&gt;Node4</title>
<g id="a_edge8_Node000004_Node000004"><a xlink:title=" ">
<path fill="none" stroke="#63b8ff" d="M67.24,-248.55C65.85,-253.38 58.94,-257 46.5,-257 26.59,-257 20.84,-247.73 29.24,-239.08"/>
<polygon fill="#63b8ff" stroke="#63b8ff" points="70.49,-247.26 63.76,-239.08 63.92,-249.68 70.49,-247.26"/>
</a>
</g>
</g>
<!-- Node5&#45;&gt;Node5 -->
<g id="edge10_Node000005_Node000005" class="edge">
<title>Node5&#45;&gt;Node5</title>
<g id="a_edge10_Node000005_Node000005"><a xlink:title=" ">
<path fill="none" stroke="#63b8ff" d="M67.24,-193.55C65.85,-198.38 58.94,-202 46.5,-202 26.59,-202 20.84,-192.73 29.24,-184.08"/>
<polygon fill="#63b8ff" stroke="#63b8ff" points="70.49,-192.26 63.76,-184.08 63.92,-194.68 70.49,-192.26"/>
</a>
</g>
</g>
<!-- Node6&#45;&gt;Node6 -->
<g id="edge12_Node000006_Node000006" class="edge">
<title>Node6&#45;&gt;Node6</title>
<g id="a_edge12_Node000006_Node000006"><a xlink:title=" ">
<path fill="none" stroke="#63b8ff" d="M67.24,-138.55C65.85,-143.38 58.94,-147 46.5,-147 26.59,-147 20.84,-137.73 29.24,-129.08"/>
<polygon fill="#63b8ff" stroke="#63b8ff" points="70.49,-137.26 63.76,-129.08 63.92,-139.68 70.49,-137.26"/>
</a>
</g>
</g>
<!-- Node7&#45;&gt;Node7 -->
<g id="edge14_Node000007_Node000007" class="edge">
<title>Node7&#45;&gt;Node7</title>
<g id="a_edge14_Node000007_Node000007"><a xlink:title=" ">
<path fill="none" stroke="#63b8ff" d="M67.24,-83.55C65.85,-88.38 58.94,-92 46.5,-92 26.59,-92 20.84,-82.73 29.24,-74.08"/>
<polygon fill="#63b8ff" stroke="#63b8ff" points="70.49,-82.26 63.76,-74.08 63.92,-84.68 70.49,-82.26"/>
</a>
</g>
</g>
<!-- Node8&#45;&gt;Node8 -->
<g id="edge16_Node000008_Node000008" class="edge">
<title>Node8&#45;&gt;Node8</title>
<g id="a_edge16_Node000008_Node000008"><a xlink:title=" ">
<path fill="none" stroke="#63b8ff" d="M67.24,-28.55C65.85,-33.38 58.94,-37 46.5,-37 26.59,-37 20.84,-27.73 29.24,-19.08"/>
<polygon fill="#63b8ff" stroke="#63b8ff" points="70.49,-27.26 63.76,-19.08 63.92,-29.68 70.49,-27.26"/>
</a>
</g>
</g>
</g>
</svg>
</svg>

<style type='text/css'>
<![CDATA[
[data-mouse-over-selected='false'] { opacity: 0.7; }
[data-mouse-over-selected='true']  { opacity: 1.0; }
]]>
</style>
<script type="application/ecmascript"><![CDATA[
document.addEventListener('DOMContentLoaded', (event) => {
  highlightEdges();
  highlightAdjacentNodes();
});
]]></script>
</svg>
