<?xml version="1.0" encoding="UTF-8" standalone="no"?>
<!DOCTYPE svg PUBLIC "-//W3C//DTD SVG 1.1//EN"
 "http://www.w3.org/Graphics/SVG/1.1/DTD/svg11.dtd">
<!-- Generated by graphviz version 2.43.0 (0)
 -->
<!-- Title: cstr_replace Pages: 1 -->
<svg width="272pt" height="73pt"
 viewBox="0.00 0.00 272.00 73.00" xmlns="http://www.w3.org/2000/svg" xmlns:xlink="http://www.w3.org/1999/xlink">
<g id="graph0" class="graph" transform="scale(1 1) rotate(0) translate(4 69)">
<title>cstr_replace</title>
<!-- Node1 -->
<g id="Node000001" class="node">
<title>Node1</title>
<g id="a_Node000001"><a xlink:title="Replaces the first occurrence of a substring with another in the cstr.">
<polygon fill="#999999" stroke="#666666" points="76,-47 0,-47 0,-28 76,-28 76,-47"/>
<text text-anchor="middle" x="38" y="-35" font-family="Helvetica,sans-Serif" font-size="10.00">cstr_replace</text>
</a>
</g>
</g>
<!-- Node1&#45;&gt;Node1 -->
<g id="edge6_Node000001_Node000001" class="edge">
<title>Node1&#45;&gt;Node1</title>
<g id="a_edge6_Node000001_Node000001"><a xlink:title=" ">
<path fill="none" stroke="#63b8ff" d="M21.97,-47.08C14.17,-55.73 19.52,-65 38,-65 49.55,-65 55.97,-61.38 57.26,-56.55"/>
<polygon fill="#63b8ff" stroke="#63b8ff" points="60.57,-55.42 54.03,-47.08 53.94,-57.68 60.57,-55.42"/>
</a>
</g>
</g>
<!-- Node2 -->
<g id="Node000002" class="node">
<title>Node2</title>
<g id="a_Node000002"><a xlink:href="cstr_8c.html#addbb5ac6b50949c8b4ef489563117300" target="_top" xlink:title="Creates a new empty cstr with specified initial capacity.">
<polygon fill="white" stroke="#666666" points="264,-47 208,-47 208,-28 264,-28 264,-47"/>
<text text-anchor="middle" x="236" y="-35" font-family="Helvetica,sans-Serif" font-size="10.00">cstr_init</text>
</a>
</g>
</g>
<!-- Node1&#45;&gt;Node2 -->
<g id="edge1_Node000001_Node000002" class="edge">
<title>Node1&#45;&gt;Node2</title>
<g id="a_edge1_Node000001_Node000002"><a xlink:title=" ">
<path fill="none" stroke="#63b8ff" d="M76.06,-42.96C87.55,-44.42 100.27,-45.78 112,-46.5 138.62,-48.13 145.4,-48.39 172,-46.5 180.38,-45.9 189.35,-44.87 197.81,-43.71"/>
<polygon fill="#63b8ff" stroke="#63b8ff" points="198.41,-47.15 207.8,-42.25 197.4,-40.23 198.41,-47.15"/>
</a>
</g>
</g>
<!-- Node3 -->
<g id="Node000003" class="node">
<title>Node3</title>
<g id="a_Node000003"><a xlink:href="cstr_8c.html#a7effe7536a6058739d5d43a601e9f857" target="_top" xlink:title="Creates a new cstr from a C string.">
<polygon fill="white" stroke="#666666" points="172,-19 112,-19 112,0 172,0 172,-19"/>
<text text-anchor="middle" x="142" y="-7" font-family="Helvetica,sans-Serif" font-size="10.00">cstr_new</text>
</a>
</g>
</g>
<!-- Node1&#45;&gt;Node3 -->
<g id="edge3_Node000001_Node000003" class="edge">
<title>Node1&#45;&gt;Node3</title>
<g id="a_edge3_Node000001_Node000003"><a xlink:title=" ">
<path fill="none" stroke="#63b8ff" d="M73.82,-27.94C82.89,-25.45 92.72,-22.75 101.99,-20.21"/>
<polygon fill="#63b8ff" stroke="#63b8ff" points="103.05,-23.55 111.77,-17.52 101.2,-16.8 103.05,-23.55"/>
</a>
</g>
</g>
<!-- Node2&#45;&gt;Node2 -->
<g id="edge2_Node000002_Node000002" class="edge">
<title>Node2&#45;&gt;Node2</title>
<g id="a_edge2_Node000002_Node000002"><a xlink:title=" ">
<path fill="none" stroke="#63b8ff" d="M221.51,-47.08C214.46,-55.73 219.29,-65 236,-65 246.18,-65 251.95,-61.56 253.31,-56.91"/>
<polygon fill="#63b8ff" stroke="#63b8ff" points="256.61,-55.73 250.49,-47.08 249.88,-57.66 256.61,-55.73"/>
</a>
</g>
</g>
<!-- Node3&#45;&gt;Node2 -->
<g id="edge4_Node000003_Node000002" class="edge">
<title>Node3&#45;&gt;Node2</title>
<g id="a_edge4_Node000003_Node000002"><a xlink:title=" ">
<path fill="none" stroke="#63b8ff" d="M172.11,-18.36C180.45,-20.9 189.65,-23.7 198.37,-26.35"/>
<polygon fill="#63b8ff" stroke="#63b8ff" points="197.37,-29.71 207.96,-29.27 199.41,-23.01 197.37,-29.71"/>
</a>
</g>
</g>
<!-- Node3&#45;&gt;Node3 -->
<g id="edge5_Node000003_Node000003" class="edge">
<title>Node3&#45;&gt;Node3</title>
<g id="a_edge5_Node000003_Node000003"><a xlink:title=" ">
<path fill="none" stroke="#63b8ff" d="M127.51,-19.08C120.46,-27.73 125.29,-37 142,-37 152.18,-37 157.95,-33.56 159.31,-28.91"/>
<polygon fill="#63b8ff" stroke="#63b8ff" points="162.61,-27.73 156.49,-19.08 155.88,-29.66 162.61,-27.73"/>
</a>
</g>
</g>
</g>
</svg>
