<?xml version="1.0" encoding="UTF-8" standalone="no"?>
<!DOCTYPE svg PUBLIC "-//W3C//DTD SVG 1.1//EN"
 "http://www.w3.org/Graphics/SVG/1.1/DTD/svg11.dtd">
<!-- Generated by graphviz version 2.43.0 (0)
 -->
<!-- Title: cstr_replace_all Pages: 1 -->
<svg width="289pt" height="139pt"
 viewBox="0.00 0.00 289.00 139.00" xmlns="http://www.w3.org/2000/svg" xmlns:xlink="http://www.w3.org/1999/xlink">
<g id="graph0" class="graph" transform="scale(1 1) rotate(0) translate(4 135)">
<title>cstr_replace_all</title>
<!-- Node1 -->
<g id="Node000001" class="node">
<title>Node1</title>
<g id="a_Node000001"><a xlink:title="Replaces all occurrences of a substring with another.">
<polygon fill="#999999" stroke="#666666" points="93,-75 0,-75 0,-56 93,-56 93,-75"/>
<text text-anchor="middle" x="46.5" y="-63" font-family="Helvetica,sans-Serif" font-size="10.00">cstr_replace_all</text>
</a>
</g>
</g>
<!-- Node1&#45;&gt;Node1 -->
<g id="edge8_Node000001_Node000001" class="edge">
<title>Node1&#45;&gt;Node1</title>
<g id="a_edge8_Node000001_Node000001"><a xlink:title=" ">
<path fill="none" stroke="#63b8ff" d="M29.24,-75.08C20.84,-83.73 26.59,-93 46.5,-93 58.94,-93 65.85,-89.38 67.24,-84.55"/>
<polygon fill="#63b8ff" stroke="#63b8ff" points="70.49,-83.26 63.76,-75.08 63.92,-85.68 70.49,-83.26"/>
</a>
</g>
</g>
<!-- Node2 -->
<g id="Node000002" class="node">
<title>Node2</title>
<g id="a_Node000002"><a xlink:href="cstr_8c.html#ac0035d2d1ada61ea0e7b9bf077885ac0" target="_top" xlink:title="Frees a cstr and all associated memory.">
<polygon fill="white" stroke="#666666" points="188.5,-113 129.5,-113 129.5,-94 188.5,-94 188.5,-113"/>
<text text-anchor="middle" x="159" y="-101" font-family="Helvetica,sans-Serif" font-size="10.00">cstr_free</text>
</a>
</g>
</g>
<!-- Node1&#45;&gt;Node2 -->
<g id="edge1_Node000001_Node000002" class="edge">
<title>Node1&#45;&gt;Node2</title>
<g id="a_edge1_Node000001_Node000002"><a xlink:title=" ">
<path fill="none" stroke="#63b8ff" d="M75.38,-75.09C88.99,-79.77 105.57,-85.47 120.29,-90.53"/>
<polygon fill="#63b8ff" stroke="#63b8ff" points="119.53,-93.97 130.13,-93.91 121.81,-87.35 119.53,-93.97"/>
</a>
</g>
</g>
<!-- Node3 -->
<g id="Node000003" class="node">
<title>Node3</title>
<g id="a_Node000003"><a xlink:href="cstr_8c.html#addbb5ac6b50949c8b4ef489563117300" target="_top" xlink:title="Creates a new empty cstr with specified initial capacity.">
<polygon fill="white" stroke="#666666" points="281,-47 225,-47 225,-28 281,-28 281,-47"/>
<text text-anchor="middle" x="253" y="-35" font-family="Helvetica,sans-Serif" font-size="10.00">cstr_init</text>
</a>
</g>
</g>
<!-- Node1&#45;&gt;Node3 -->
<g id="edge3_Node000001_Node000003" class="edge">
<title>Node1&#45;&gt;Node3</title>
<g id="a_edge3_Node000001_Node000003"><a xlink:title=" ">
<path fill="none" stroke="#63b8ff" d="M93.08,-59.48C120.82,-55.79 156.96,-50.94 189,-46.5 197.33,-45.35 206.27,-44.08 214.72,-42.88"/>
<polygon fill="#63b8ff" stroke="#63b8ff" points="215.31,-46.33 224.72,-41.45 214.32,-39.4 215.31,-46.33"/>
</a>
</g>
</g>
<!-- Node4 -->
<g id="Node000004" class="node">
<title>Node4</title>
<g id="a_Node000004"><a xlink:href="cstr_8c.html#a7effe7536a6058739d5d43a601e9f857" target="_top" xlink:title="Creates a new cstr from a C string.">
<polygon fill="white" stroke="#666666" points="189,-19 129,-19 129,0 189,0 189,-19"/>
<text text-anchor="middle" x="159" y="-7" font-family="Helvetica,sans-Serif" font-size="10.00">cstr_new</text>
</a>
</g>
</g>
<!-- Node1&#45;&gt;Node4 -->
<g id="edge5_Node000001_Node000004" class="edge">
<title>Node1&#45;&gt;Node4</title>
<g id="a_edge5_Node000001_Node000004"><a xlink:title=" ">
<path fill="none" stroke="#63b8ff" d="M66.75,-55.75C84.18,-46.91 110.07,-33.79 129.83,-23.78"/>
<polygon fill="#63b8ff" stroke="#63b8ff" points="131.64,-26.79 138.97,-19.14 128.47,-20.54 131.64,-26.79"/>
</a>
</g>
</g>
<!-- Node2&#45;&gt;Node2 -->
<g id="edge2_Node000002_Node000002" class="edge">
<title>Node2&#45;&gt;Node2</title>
<g id="a_edge2_Node000002_Node000002"><a xlink:title=" ">
<path fill="none" stroke="#63b8ff" d="M144.51,-113.08C137.46,-121.73 142.29,-131 159,-131 169.18,-131 174.95,-127.56 176.31,-122.91"/>
<polygon fill="#63b8ff" stroke="#63b8ff" points="179.61,-121.73 173.49,-113.08 172.88,-123.66 179.61,-121.73"/>
</a>
</g>
</g>
<!-- Node3&#45;&gt;Node3 -->
<g id="edge4_Node000003_Node000003" class="edge">
<title>Node3&#45;&gt;Node3</title>
<g id="a_edge4_Node000003_Node000003"><a xlink:title=" ">
<path fill="none" stroke="#63b8ff" d="M238.51,-47.08C231.46,-55.73 236.29,-65 253,-65 263.18,-65 268.95,-61.56 270.31,-56.91"/>
<polygon fill="#63b8ff" stroke="#63b8ff" points="273.61,-55.73 267.49,-47.08 266.88,-57.66 273.61,-55.73"/>
</a>
</g>
</g>
<!-- Node4&#45;&gt;Node3 -->
<g id="edge6_Node000004_Node000003" class="edge">
<title>Node4&#45;&gt;Node3</title>
<g id="a_edge6_Node000004_Node000003"><a xlink:title=" ">
<path fill="none" stroke="#63b8ff" d="M189.11,-18.36C197.45,-20.9 206.65,-23.7 215.37,-26.35"/>
<polygon fill="#63b8ff" stroke="#63b8ff" points="214.37,-29.71 224.96,-29.27 216.41,-23.01 214.37,-29.71"/>
</a>
</g>
</g>
<!-- Node4&#45;&gt;Node4 -->
<g id="edge7_Node000004_Node000004" class="edge">
<title>Node4&#45;&gt;Node4</title>
<g id="a_edge7_Node000004_Node000004"><a xlink:title=" ">
<path fill="none" stroke="#63b8ff" d="M144.51,-19.08C137.46,-27.73 142.29,-37 159,-37 169.18,-37 174.95,-33.56 176.31,-28.91"/>
<polygon fill="#63b8ff" stroke="#63b8ff" points="179.61,-27.73 173.49,-19.08 172.88,-29.66 179.61,-27.73"/>
</a>
</g>
</g>
</g>
</svg>
