<?xml version="1.0" encoding="UTF-8" standalone="no"?>
<!DOCTYPE svg PUBLIC "-//W3C//DTD SVG 1.1//EN"
 "http://www.w3.org/Graphics/SVG/1.1/DTD/svg11.dtd">
<!-- Generated by graphviz version 2.43.0 (0)
 -->
<!-- Title: cstr_replace_all Pages: 1 -->
<svg width="355pt" height="139pt"
 viewBox="0.00 0.00 355.00 139.00" xmlns="http://www.w3.org/2000/svg" xmlns:xlink="http://www.w3.org/1999/xlink">

<svg id="main" version="1.1" xmlns="http://www.w3.org/2000/svg" xmlns:xlink="http://www.w3.org/1999/xlink" xml:space="preserve" onload="init(evt)">
<style type="text/css"><![CDATA[
.node, .edge {opacity: 0.7;}
.node.selected, .edge.selected {opacity: 1;}
.edge:hover path { stroke: red; }
.edge:hover polygon { stroke: red; fill: red; }
]]></style>
<script type="application/ecmascript" xlink:href="svg.min.js"/>
<svg id="graph" class="graph">
<g id="graph0" class="graph" transform="scale(1 1) rotate(0) translate(4 135)">
<title>cstr_replace_all</title>
<!-- Node1 -->
<g id="Node000001" class="node">
<title>Node1</title>
<g id="a_Node000001"><a xlink:title="Replaces all occurrences of a substring with another.">
<polygon fill="#999999" stroke="#666666" points="93,-75 0,-75 0,-56 93,-56 93,-75"/>
<text text-anchor="middle" x="46.5" y="-63" font-family="Helvetica,sans-Serif" font-size="10.00">cstr_replace_all</text>
</a>
</g>
</g>
<!-- Node1&#45;&gt;Node1 -->
<g id="edge8_Node000001_Node000001" class="edge">
<title>Node1&#45;&gt;Node1</title>
<g id="a_edge8_Node000001_Node000001"><a xlink:title=" ">
<path fill="none" stroke="#63b8ff" d="M26.77,-75.08C17.17,-83.73 23.75,-93 46.5,-93 60.72,-93 68.62,-89.38 70.2,-84.55"/>
<polygon fill="#63b8ff" stroke="#63b8ff" points="73.33,-82.95 66.23,-75.08 66.87,-85.66 73.33,-82.95"/>
</a>
</g>
</g>
<!-- Node2 -->
<g id="Node000002" class="node">
<title>Node2</title>
<g id="a_Node000002"><a xlink:href="cstr_8c.html#ac0035d2d1ada61ea0e7b9bf077885ac0" target="_top" xlink:title="Frees a cstr and all associated memory.">
<polygon fill="white" stroke="#666666" points="205,-113 146,-113 146,-94 205,-94 205,-113"/>
<text text-anchor="middle" x="175.5" y="-101" font-family="Helvetica,sans-Serif" font-size="10.00">cstr_free</text>
</a>
</g>
</g>
<!-- Node1&#45;&gt;Node2 -->
<g id="edge1_Node000001_Node000002" class="edge">
<title>Node1&#45;&gt;Node2</title>
<g id="a_edge1_Node000001_Node000002"><a xlink:title=" ">
<path fill="none" stroke="#63b8ff" d="M79.55,-75.09C96.78,-80.25 118.16,-86.64 136.26,-92.06"/>
<polygon fill="#63b8ff" stroke="#63b8ff" points="135.35,-95.44 145.93,-94.95 137.35,-88.73 135.35,-95.44"/>
</a>
</g>
</g>
<!-- Node3 -->
<g id="Node000003" class="node">
<title>Node3</title>
<g id="a_Node000003"><a xlink:href="cstr_8c.html#aaafd0342dcc8c8e0e2fabf7edacc5520" target="_top" xlink:title="Creates a new empty cstr using a custom arena allocator.">
<polygon fill="white" stroke="#666666" points="347,-47 258,-47 258,-28 347,-28 347,-47"/>
<text text-anchor="middle" x="302.5" y="-35" font-family="Helvetica,sans-Serif" font-size="10.00">cstr_init_arena</text>
</a>
</g>
</g>
<!-- Node1&#45;&gt;Node3 -->
<g id="edge3_Node000001_Node000003" class="edge">
<title>Node1&#45;&gt;Node3</title>
<g id="a_edge3_Node000001_Node000003"><a xlink:title=" ">
<path fill="none" stroke="#63b8ff" d="M93.07,-60.59C128.28,-56.79 178.23,-51.36 222,-46.5 230.34,-45.57 239.16,-44.58 247.78,-43.61"/>
<polygon fill="#63b8ff" stroke="#63b8ff" points="248.22,-47.09 257.77,-42.49 247.44,-40.13 248.22,-47.09"/>
</a>
</g>
</g>
<!-- Node4 -->
<g id="Node000004" class="node">
<title>Node4</title>
<g id="a_Node000004"><a xlink:href="cstr_8c.html#a1eca5d7fc6deccb9e28a6e4075c7e5aa" target="_top" xlink:title="Creates a new cstr from a C string using a custom arena allocator.">
<polygon fill="white" stroke="#666666" points="222,-19 129,-19 129,0 222,0 222,-19"/>
<text text-anchor="middle" x="175.5" y="-7" font-family="Helvetica,sans-Serif" font-size="10.00">cstr_new_arena</text>
</a>
</g>
</g>
<!-- Node1&#45;&gt;Node4 -->
<g id="edge5_Node000001_Node000004" class="edge">
<title>Node1&#45;&gt;Node4</title>
<g id="a_edge5_Node000001_Node000004"><a xlink:title=" ">
<path fill="none" stroke="#63b8ff" d="M69.33,-55.87C89.81,-46.84 120.64,-33.25 143.63,-23.11"/>
<polygon fill="#63b8ff" stroke="#63b8ff" points="145.21,-26.24 152.95,-19 142.39,-19.83 145.21,-26.24"/>
</a>
</g>
</g>
<!-- Node2&#45;&gt;Node2 -->
<g id="edge2_Node000002_Node000002" class="edge">
<title>Node2&#45;&gt;Node2</title>
<g id="a_edge2_Node000002_Node000002"><a xlink:title=" ">
<path fill="none" stroke="#63b8ff" d="M156.08,-113.08C146.63,-121.73 153.11,-131 175.5,-131 189.5,-131 197.27,-127.38 198.83,-122.55"/>
<polygon fill="#63b8ff" stroke="#63b8ff" points="201.97,-120.99 194.92,-113.08 195.5,-123.66 201.97,-120.99"/>
</a>
</g>
</g>
<!-- Node3&#45;&gt;Node3 -->
<g id="edge4_Node000003_Node000003" class="edge">
<title>Node3&#45;&gt;Node3</title>
<g id="a_edge4_Node000003_Node000003"><a xlink:title=" ">
<path fill="none" stroke="#63b8ff" d="M283.08,-47.08C273.63,-55.73 280.11,-65 302.5,-65 316.5,-65 324.27,-61.38 325.83,-56.55"/>
<polygon fill="#63b8ff" stroke="#63b8ff" points="328.97,-54.99 321.92,-47.08 322.5,-57.66 328.97,-54.99"/>
</a>
</g>
</g>
<!-- Node4&#45;&gt;Node3 -->
<g id="edge6_Node000004_Node000003" class="edge">
<title>Node4&#45;&gt;Node3</title>
<g id="a_edge6_Node000004_Node000003"><a xlink:title=" ">
<path fill="none" stroke="#63b8ff" d="M219.17,-19.06C228.82,-21.22 239.18,-23.54 249.18,-25.78"/>
<polygon fill="#63b8ff" stroke="#63b8ff" points="248.5,-29.21 259.02,-27.99 250.03,-22.38 248.5,-29.21"/>
</a>
</g>
</g>
<!-- Node4&#45;&gt;Node4 -->
<g id="edge7_Node000004_Node000004" class="edge">
<title>Node4&#45;&gt;Node4</title>
<g id="a_edge7_Node000004_Node000004"><a xlink:title=" ">
<path fill="none" stroke="#63b8ff" d="M156.08,-19.08C146.63,-27.73 153.11,-37 175.5,-37 189.5,-37 197.27,-33.38 198.83,-28.55"/>
<polygon fill="#63b8ff" stroke="#63b8ff" points="201.97,-26.99 194.92,-19.08 195.5,-29.66 201.97,-26.99"/>
</a>
</g>
</g>
</g>
</svg>
</svg>

<style type='text/css'>
<![CDATA[
[data-mouse-over-selected='false'] { opacity: 0.7; }
[data-mouse-over-selected='true']  { opacity: 1.0; }
]]>
</style>
<script type="application/ecmascript"><![CDATA[
document.addEventListener('DOMContentLoaded', (event) => {
  highlightEdges();
  highlightAdjacentNodes();
});
]]></script>
</svg>
