<?xml version="1.0" encoding="UTF-8" standalone="no"?>
<!DOCTYPE svg PUBLIC "-//W3C//DTD SVG 1.1//EN"
 "http://www.w3.org/Graphics/SVG/1.1/DTD/svg11.dtd">
<!-- Generated by graphviz version 2.43.0 (0)
 -->
<!-- Title: cstr_split Pages: 1 -->
<svg width="323pt" height="139pt"
 viewBox="0.00 0.00 323.00 139.00" xmlns="http://www.w3.org/2000/svg" xmlns:xlink="http://www.w3.org/1999/xlink">

<svg id="main" version="1.1" xmlns="http://www.w3.org/2000/svg" xmlns:xlink="http://www.w3.org/1999/xlink" xml:space="preserve" onload="init(evt)">
<style type="text/css"><![CDATA[
.node, .edge {opacity: 0.7;}
.node.selected, .edge.selected {opacity: 1;}
.edge:hover path { stroke: red; }
.edge:hover polygon { stroke: red; fill: red; }
]]></style>
<script type="application/ecmascript" xlink:href="svg.min.js"/>
<svg id="graph" class="graph">
<g id="graph0" class="graph" transform="scale(1 1) rotate(0) translate(4 135)">
<title>cstr_split</title>
<!-- Node1 -->
<g id="Node000001" class="node">
<title>Node1</title>
<g id="a_Node000001"><a xlink:title="Splits the cstr into substrings based on a delimiter.">
<polygon fill="#999999" stroke="#666666" points="61,-75 0,-75 0,-56 61,-56 61,-75"/>
<text text-anchor="middle" x="30.5" y="-63" font-family="Helvetica,sans-Serif" font-size="10.00">cstr_split</text>
</a>
</g>
</g>
<!-- Node1&#45;&gt;Node1 -->
<g id="edge8_Node000001_Node000001" class="edge">
<title>Node1&#45;&gt;Node1</title>
<g id="a_edge8_Node000001_Node000001"><a xlink:title=" ">
<path fill="none" stroke="#63b8ff" d="M13.24,-75.08C4.84,-83.73 10.59,-93 30.5,-93 42.94,-93 49.85,-89.38 51.24,-84.55"/>
<polygon fill="#63b8ff" stroke="#63b8ff" points="54.49,-83.26 47.76,-75.08 47.92,-85.68 54.49,-83.26"/>
</a>
</g>
</g>
<!-- Node2 -->
<g id="Node000002" class="node">
<title>Node2</title>
<g id="a_Node000002"><a xlink:href="cstr_8c.html#ac0035d2d1ada61ea0e7b9bf077885ac0" target="_top" xlink:title="Frees a cstr and all associated memory.">
<polygon fill="white" stroke="#666666" points="173,-113 114,-113 114,-94 173,-94 173,-113"/>
<text text-anchor="middle" x="143.5" y="-101" font-family="Helvetica,sans-Serif" font-size="10.00">cstr_free</text>
</a>
</g>
</g>
<!-- Node1&#45;&gt;Node2 -->
<g id="edge1_Node000001_Node000002" class="edge">
<title>Node1&#45;&gt;Node2</title>
<g id="a_edge1_Node000001_Node000002"><a xlink:title=" ">
<path fill="none" stroke="#63b8ff" d="M59.51,-75.09C73.18,-79.77 89.83,-85.47 104.62,-90.53"/>
<polygon fill="#63b8ff" stroke="#63b8ff" points="103.9,-93.99 114.5,-93.91 106.17,-87.36 103.9,-93.99"/>
</a>
</g>
</g>
<!-- Node3 -->
<g id="Node000003" class="node">
<title>Node3</title>
<g id="a_Node000003"><a xlink:href="cstr_8c.html#aaafd0342dcc8c8e0e2fabf7edacc5520" target="_top" xlink:title="Creates a new empty cstr using a custom arena allocator.">
<polygon fill="white" stroke="#666666" points="315,-47 226,-47 226,-28 315,-28 315,-47"/>
<text text-anchor="middle" x="270.5" y="-35" font-family="Helvetica,sans-Serif" font-size="10.00">cstr_init_arena</text>
</a>
</g>
</g>
<!-- Node1&#45;&gt;Node3 -->
<g id="edge3_Node000001_Node000003" class="edge">
<title>Node1&#45;&gt;Node3</title>
<g id="a_edge3_Node000001_Node000003"><a xlink:title=" ">
<path fill="none" stroke="#63b8ff" d="M61.16,-62.01C99.7,-57.48 167.71,-49.48 215.52,-43.85"/>
<polygon fill="#63b8ff" stroke="#63b8ff" points="216.17,-47.3 225.7,-42.65 215.36,-40.35 216.17,-47.3"/>
</a>
</g>
</g>
<!-- Node4 -->
<g id="Node000004" class="node">
<title>Node4</title>
<g id="a_Node000004"><a xlink:href="cstr_8c.html#a1eca5d7fc6deccb9e28a6e4075c7e5aa" target="_top" xlink:title="Creates a new cstr from a C string using a custom arena allocator.">
<polygon fill="white" stroke="#666666" points="190,-19 97,-19 97,0 190,0 190,-19"/>
<text text-anchor="middle" x="143.5" y="-7" font-family="Helvetica,sans-Serif" font-size="10.00">cstr_new_arena</text>
</a>
</g>
</g>
<!-- Node1&#45;&gt;Node4 -->
<g id="edge5_Node000001_Node000004" class="edge">
<title>Node1&#45;&gt;Node4</title>
<g id="a_edge5_Node000001_Node000004"><a xlink:title=" ">
<path fill="none" stroke="#63b8ff" d="M50.58,-55.87C68.24,-46.96 94.71,-33.61 114.71,-23.52"/>
<polygon fill="#63b8ff" stroke="#63b8ff" points="116.32,-26.63 123.67,-19 113.16,-20.38 116.32,-26.63"/>
</a>
</g>
</g>
<!-- Node2&#45;&gt;Node2 -->
<g id="edge2_Node000002_Node000002" class="edge">
<title>Node2&#45;&gt;Node2</title>
<g id="a_edge2_Node000002_Node000002"><a xlink:title=" ">
<path fill="none" stroke="#63b8ff" d="M126.24,-113.08C117.84,-121.73 123.59,-131 143.5,-131 155.94,-131 162.85,-127.38 164.24,-122.55"/>
<polygon fill="#63b8ff" stroke="#63b8ff" points="167.49,-121.26 160.76,-113.08 160.92,-123.68 167.49,-121.26"/>
</a>
</g>
</g>
<!-- Node3&#45;&gt;Node3 -->
<g id="edge4_Node000003_Node000003" class="edge">
<title>Node3&#45;&gt;Node3</title>
<g id="a_edge4_Node000003_Node000003"><a xlink:title=" ">
<path fill="none" stroke="#63b8ff" d="M251.08,-47.08C241.63,-55.73 248.11,-65 270.5,-65 284.5,-65 292.27,-61.38 293.83,-56.55"/>
<polygon fill="#63b8ff" stroke="#63b8ff" points="296.97,-54.99 289.92,-47.08 290.5,-57.66 296.97,-54.99"/>
</a>
</g>
</g>
<!-- Node4&#45;&gt;Node3 -->
<g id="edge6_Node000004_Node000003" class="edge">
<title>Node4&#45;&gt;Node3</title>
<g id="a_edge6_Node000004_Node000003"><a xlink:title=" ">
<path fill="none" stroke="#63b8ff" d="M187.17,-19.06C196.82,-21.22 207.18,-23.54 217.18,-25.78"/>
<polygon fill="#63b8ff" stroke="#63b8ff" points="216.5,-29.21 227.02,-27.99 218.03,-22.38 216.5,-29.21"/>
</a>
</g>
</g>
<!-- Node4&#45;&gt;Node4 -->
<g id="edge7_Node000004_Node000004" class="edge">
<title>Node4&#45;&gt;Node4</title>
<g id="a_edge7_Node000004_Node000004"><a xlink:title=" ">
<path fill="none" stroke="#63b8ff" d="M126.24,-19.08C117.84,-27.73 123.59,-37 143.5,-37 155.94,-37 162.85,-33.38 164.24,-28.55"/>
<polygon fill="#63b8ff" stroke="#63b8ff" points="167.49,-27.26 160.76,-19.08 160.92,-29.68 167.49,-27.26"/>
</a>
</g>
</g>
</g>
</svg>
</svg>

<style type='text/css'>
<![CDATA[
[data-mouse-over-selected='false'] { opacity: 0.7; }
[data-mouse-over-selected='true']  { opacity: 1.0; }
]]>
</style>
<script type="application/ecmascript"><![CDATA[
document.addEventListener('DOMContentLoaded', (event) => {
  highlightEdges();
  highlightAdjacentNodes();
});
]]></script>
</svg>
