<?xml version="1.0" encoding="UTF-8" standalone="no"?>
<!DOCTYPE svg PUBLIC "-//W3C//DTD SVG 1.1//EN"
 "http://www.w3.org/Graphics/SVG/1.1/DTD/svg11.dtd">
<!-- Generated by graphviz version 2.43.0 (0)
 -->
<!-- Title: cstr_new_len Pages: 1 -->
<svg width="184pt" height="64pt"
 viewBox="0.00 0.00 184.00 64.00" xmlns="http://www.w3.org/2000/svg" xmlns:xlink="http://www.w3.org/1999/xlink">
<g id="graph0" class="graph" transform="scale(1 1) rotate(0) translate(4 60)">
<title>cstr_new_len</title>
<!-- Node1 -->
<g id="Node000001" class="node">
<title>Node1</title>
<g id="a_Node000001"><a xlink:title="Create a new cstr from a buffer of known length (no strlen needed).">
<polygon fill="#999999" stroke="#666666" points="176,-37 96,-37 96,-18 176,-18 176,-37"/>
<text text-anchor="middle" x="136" y="-25" font-family="Helvetica,sans-Serif" font-size="10.00">cstr_new_len</text>
</a>
</g>
</g>
<!-- Node2 -->
<g id="Node000002" class="node">
<title>Node2</title>
<g id="a_Node000002"><a xlink:href="cstr_8c.html#a44181a4b47f50b2520ae3ed80c5191b1" target="_top" xlink:title="Join an array of cstr pointers with a delimiter.">
<polygon fill="white" stroke="#666666" points="59,-56 1,-56 1,-37 59,-37 59,-56"/>
<text text-anchor="middle" x="30" y="-44" font-family="Helvetica,sans-Serif" font-size="10.00">cstr_join</text>
</a>
</g>
</g>
<!-- Node1&#45;&gt;Node2 -->
<g id="edge1_Node000001_Node000002" class="edge">
<title>Node1&#45;&gt;Node2</title>
<g id="a_edge1_Node000001_Node000002"><a xlink:title=" ">
<path fill="none" stroke="#63b8ff" d="M86.08,-36.44C76.86,-38.12 67.51,-39.83 59.2,-41.35"/>
<polygon fill="#63b8ff" stroke="#63b8ff" points="86.77,-39.87 95.98,-34.63 85.51,-32.98 86.77,-39.87"/>
</a>
</g>
</g>
<!-- Node3 -->
<g id="Node000003" class="node">
<title>Node3</title>
<g id="a_Node000003"><a xlink:href="cstr_8c.html#a7effe7536a6058739d5d43a601e9f857" target="_top" xlink:title="Create a new cstr from a C string.">
<polygon fill="white" stroke="#666666" points="60,-19 0,-19 0,0 60,0 60,-19"/>
<text text-anchor="middle" x="30" y="-7" font-family="Helvetica,sans-Serif" font-size="10.00">cstr_new</text>
</a>
</g>
</g>
<!-- Node1&#45;&gt;Node3 -->
<g id="edge2_Node000001_Node000003" class="edge">
<title>Node1&#45;&gt;Node3</title>
<g id="a_edge2_Node000001_Node000003"><a xlink:title=" ">
<path fill="none" stroke="#63b8ff" d="M86.08,-19.03C77.21,-17.5 68.23,-15.94 60.16,-14.55"/>
<polygon fill="#63b8ff" stroke="#63b8ff" points="85.53,-22.49 95.98,-20.75 86.72,-15.59 85.53,-22.49"/>
</a>
</g>
</g>
</g>
</svg>
