<?xml version="1.0" encoding="UTF-8" standalone="no"?>
<!DOCTYPE svg PUBLIC "-//W3C//DTD SVG 1.1//EN"
 "http://www.w3.org/Graphics/SVG/1.1/DTD/svg11.dtd">
<!-- Generated by graphviz version 2.43.0 (0)
 -->
<!-- Title: src/cstr.c Pages: 1 -->
<svg width="615pt" height="192pt"
 viewBox="0.00 0.00 614.71 192.00" xmlns="http://www.w3.org/2000/svg" xmlns:xlink="http://www.w3.org/1999/xlink">
<g id="graph0" class="graph" transform="scale(1 1) rotate(0) translate(4 188)">
<title>src/cstr.c</title>
<!-- Node1 -->
<g id="Node000001" class="node">
<title>Node1</title>
<g id="a_Node000001"><a xlink:title="Implementation of high&#45;performance C string with SSO.">
<polygon fill="#999999" stroke="#666666" points="406.21,-184 347.21,-184 347.21,-165 406.21,-165 406.21,-184"/>
<text text-anchor="middle" x="376.71" y="-172" font-family="Helvetica,sans-Serif" font-size="10.00">src/cstr.c</text>
</a>
</g>
</g>
<!-- Node2 -->
<g id="Node000002" class="node">
<title>Node2</title>
<g id="a_Node000002"><a xlink:href="cstr_8h.html" target="_top" xlink:title="High&#45;performance C string with Small String Optimization (SSO).">
<polygon fill="white" stroke="#666666" points="219.21,-129 176.21,-129 176.21,-110 219.21,-110 219.21,-129"/>
<text text-anchor="middle" x="197.71" y="-117" font-family="Helvetica,sans-Serif" font-size="10.00">cstr.h</text>
</a>
</g>
</g>
<!-- Node1&#45;&gt;Node2 -->
<g id="edge1_Node000001_Node000002" class="edge">
<title>Node1&#45;&gt;Node2</title>
<g id="a_edge1_Node000001_Node000002"><a xlink:title=" ">
<path fill="none" stroke="#63b8ff" d="M347.95,-164.98C315.44,-155.36 262.68,-139.74 229.11,-129.8"/>
<polygon fill="#63b8ff" stroke="#63b8ff" points="229.94,-126.39 219.36,-126.91 227.95,-133.11 229.94,-126.39"/>
</a>
</g>
</g>
<!-- Node6 -->
<g id="Node000006" class="node">
<title>Node6</title>
<g id="a_Node000006"><a xlink:title=" ">
<polygon fill="#e0e0e0" stroke="#999999" points="160.21,-19 107.21,-19 107.21,0 160.21,0 160.21,-19"/>
<text text-anchor="middle" x="133.71" y="-7" font-family="Helvetica,sans-Serif" font-size="10.00">string.h</text>
</a>
</g>
</g>
<!-- Node1&#45;&gt;Node6 -->
<g id="edge17_Node000001_Node000006" class="edge">
<title>Node1&#45;&gt;Node6</title>
<g id="a_edge17_Node000001_Node000006"><a xlink:title=" ">
<path fill="none" stroke="#63b8ff" d="M347.01,-170.3C266.28,-160.91 46.1,-130.48 5.71,-74 -19.78,-38.36 50.84,-21.67 97.08,-14.75"/>
<polygon fill="#63b8ff" stroke="#63b8ff" points="97.69,-18.2 107.1,-13.34 96.71,-11.27 97.69,-18.2"/>
</a>
</g>
</g>
<!-- Node8 -->
<g id="Node000008" class="node">
<title>Node8</title>
<g id="a_Node000008"><a xlink:title=" ">
<polygon fill="#e0e0e0" stroke="#999999" points="365.71,-19 315.71,-19 315.71,0 365.71,0 365.71,-19"/>
<text text-anchor="middle" x="340.71" y="-7" font-family="Helvetica,sans-Serif" font-size="10.00">stdio.h</text>
</a>
</g>
</g>
<!-- Node1&#45;&gt;Node8 -->
<g id="edge15_Node000001_Node000008" class="edge">
<title>Node1&#45;&gt;Node8</title>
<g id="a_edge15_Node000001_Node000008"><a xlink:title=" ">
<path fill="none" stroke="#63b8ff" d="M374.77,-164.74C369.13,-139.2 352.62,-64.43 344.84,-29.23"/>
<polygon fill="#63b8ff" stroke="#63b8ff" points="348.23,-28.32 342.65,-19.31 341.39,-29.83 348.23,-28.32"/>
</a>
</g>
</g>
<!-- Node9 -->
<g id="Node000009" class="node">
<title>Node9</title>
<g id="a_Node000009"><a xlink:title=" ">
<polygon fill="#e0e0e0" stroke="#999999" points="437.21,-19 384.21,-19 384.21,0 437.21,0 437.21,-19"/>
<text text-anchor="middle" x="410.71" y="-7" font-family="Helvetica,sans-Serif" font-size="10.00">stdlib.h</text>
</a>
</g>
</g>
<!-- Node1&#45;&gt;Node9 -->
<g id="edge16_Node000001_Node000009" class="edge">
<title>Node1&#45;&gt;Node9</title>
<g id="a_edge16_Node000001_Node000009"><a xlink:title=" ">
<path fill="none" stroke="#63b8ff" d="M378.53,-164.74C383.86,-139.2 399.46,-64.43 406.8,-29.23"/>
<polygon fill="#63b8ff" stroke="#63b8ff" points="410.25,-29.81 408.87,-19.31 403.4,-28.38 410.25,-29.81"/>
</a>
</g>
</g>
<!-- Node11 -->
<g id="Node000011" class="node">
<title>Node11</title>
<g id="a_Node000011"><a xlink:title=" ">
<polygon fill="#e0e0e0" stroke="#999999" points="460.71,-129 404.71,-129 404.71,-110 460.71,-110 460.71,-129"/>
<text text-anchor="middle" x="432.71" y="-117" font-family="Helvetica,sans-Serif" font-size="10.00">assert.h</text>
</a>
</g>
</g>
<!-- Node1&#45;&gt;Node11 -->
<g id="edge12_Node000001_Node000011" class="edge">
<title>Node1&#45;&gt;Node11</title>
<g id="a_edge12_Node000001_Node000011"><a xlink:title=" ">
<path fill="none" stroke="#63b8ff" d="M385.7,-164.98C393.9,-157.23 406.21,-145.58 416.18,-136.14"/>
<polygon fill="#63b8ff" stroke="#63b8ff" points="418.69,-138.59 423.54,-129.17 413.88,-133.5 418.69,-138.59"/>
</a>
</g>
</g>
<!-- Node12 -->
<g id="Node000012" class="node">
<title>Node12</title>
<g id="a_Node000012"><a xlink:title=" ">
<polygon fill="#e0e0e0" stroke="#999999" points="532.21,-129 479.21,-129 479.21,-110 532.21,-110 532.21,-129"/>
<text text-anchor="middle" x="505.71" y="-117" font-family="Helvetica,sans-Serif" font-size="10.00">ctype.h</text>
</a>
</g>
</g>
<!-- Node1&#45;&gt;Node12 -->
<g id="edge13_Node000001_Node000012" class="edge">
<title>Node1&#45;&gt;Node12</title>
<g id="a_edge13_Node000001_Node000012"><a xlink:title=" ">
<path fill="none" stroke="#63b8ff" d="M397.43,-164.98C418.46,-156.34 451.26,-142.87 475.24,-133.02"/>
<polygon fill="#63b8ff" stroke="#63b8ff" points="476.68,-136.21 484.6,-129.17 474.02,-129.73 476.68,-136.21"/>
</a>
</g>
</g>
<!-- Node13 -->
<g id="Node000013" class="node">
<title>Node13</title>
<g id="a_Node000013"><a xlink:title=" ">
<polygon fill="#e0e0e0" stroke="#999999" points="606.71,-129 550.71,-129 550.71,-110 606.71,-110 606.71,-129"/>
<text text-anchor="middle" x="578.71" y="-117" font-family="Helvetica,sans-Serif" font-size="10.00">stdarg.h</text>
</a>
</g>
</g>
<!-- Node1&#45;&gt;Node13 -->
<g id="edge14_Node000001_Node000013" class="edge">
<title>Node1&#45;&gt;Node13</title>
<g id="a_edge14_Node000001_Node000013"><a xlink:title=" ">
<path fill="none" stroke="#63b8ff" d="M406.51,-165.68C442.07,-156.35 501.6,-140.73 540.5,-130.52"/>
<polygon fill="#63b8ff" stroke="#63b8ff" points="541.63,-133.85 550.41,-127.92 539.85,-127.08 541.63,-133.85"/>
</a>
</g>
</g>
<!-- Node3 -->
<g id="Node000003" class="node">
<title>Node3</title>
<g id="a_Node000003"><a xlink:title=" ">
<polygon fill="#e0e0e0" stroke="#999999" points="76.71,-74 14.71,-74 14.71,-55 76.71,-55 76.71,-74"/>
<text text-anchor="middle" x="45.71" y="-62" font-family="Helvetica,sans-Serif" font-size="10.00">stdbool.h</text>
</a>
</g>
</g>
<!-- Node2&#45;&gt;Node3 -->
<g id="edge2_Node000002_Node000003" class="edge">
<title>Node2&#45;&gt;Node3</title>
<g id="a_edge2_Node000002_Node000003"><a xlink:title=" ">
<path fill="none" stroke="#63b8ff" d="M175.93,-110.91C150.78,-102.14 109.1,-87.6 79.68,-77.35"/>
<polygon fill="#63b8ff" stroke="#63b8ff" points="80.81,-74.03 70.21,-74.05 78.5,-80.64 80.81,-74.03"/>
</a>
</g>
</g>
<!-- Node4 -->
<g id="Node000004" class="node">
<title>Node4</title>
<g id="a_Node000004"><a xlink:title=" ">
<polygon fill="#e0e0e0" stroke="#999999" points="150.71,-74 94.71,-74 94.71,-55 150.71,-55 150.71,-74"/>
<text text-anchor="middle" x="122.71" y="-62" font-family="Helvetica,sans-Serif" font-size="10.00">stddef.h</text>
</a>
</g>
</g>
<!-- Node2&#45;&gt;Node4 -->
<g id="edge3_Node000002_Node000004" class="edge">
<title>Node2&#45;&gt;Node4</title>
<g id="a_edge3_Node000002_Node000004"><a xlink:title=" ">
<path fill="none" stroke="#63b8ff" d="M185.66,-109.98C174.24,-101.92 156.88,-89.65 143.27,-80.03"/>
<polygon fill="#63b8ff" stroke="#63b8ff" points="145.16,-77.08 134.98,-74.17 141.12,-82.8 145.16,-77.08"/>
</a>
</g>
</g>
<!-- Node5 -->
<g id="Node000005" class="node">
<title>Node5</title>
<g id="a_Node000005"><a xlink:title=" ">
<polygon fill="#e0e0e0" stroke="#999999" points="231.21,-19 178.21,-19 178.21,0 231.21,0 231.21,-19"/>
<text text-anchor="middle" x="204.71" y="-7" font-family="Helvetica,sans-Serif" font-size="10.00">stdint.h</text>
</a>
</g>
</g>
<!-- Node2&#45;&gt;Node5 -->
<g id="edge4_Node000002_Node000005" class="edge">
<title>Node2&#45;&gt;Node5</title>
<g id="a_edge4_Node000002_Node000005"><a xlink:title=" ">
<path fill="none" stroke="#63b8ff" d="M198.28,-109.66C199.41,-92.17 201.96,-52.8 203.49,-29.27"/>
<polygon fill="#63b8ff" stroke="#63b8ff" points="206.99,-29.36 204.14,-19.16 200.01,-28.91 206.99,-29.36"/>
</a>
</g>
</g>
<!-- Node2&#45;&gt;Node6 -->
<g id="edge5_Node000002_Node000006" class="edge">
<title>Node2&#45;&gt;Node6</title>
<g id="a_edge5_Node000002_Node000006"><a xlink:title=" ">
<path fill="none" stroke="#63b8ff" d="M192.47,-109.66C181.92,-91.85 157.92,-51.37 144.08,-28.01"/>
<polygon fill="#63b8ff" stroke="#63b8ff" points="146.95,-25.98 138.84,-19.16 140.92,-29.55 146.95,-25.98"/>
</a>
</g>
</g>
<!-- Node7 -->
<g id="Node000007" class="node">
<title>Node7</title>
<g id="a_Node000007"><a xlink:href="macros_8h.html" target="_top" xlink:title="Collection of utility macros for assertions, memory management, math, and debugging.">
<polygon fill="white" stroke="#666666" points="306.71,-74 244.71,-74 244.71,-55 306.71,-55 306.71,-74"/>
<text text-anchor="middle" x="275.71" y="-62" font-family="Helvetica,sans-Serif" font-size="10.00">macros.h</text>
</a>
</g>
</g>
<!-- Node2&#45;&gt;Node7 -->
<g id="edge6_Node000002_Node000007" class="edge">
<title>Node2&#45;&gt;Node7</title>
<g id="a_edge6_Node000002_Node000007"><a xlink:title=" ">
<path fill="none" stroke="#63b8ff" d="M210.24,-109.98C222.11,-101.92 240.17,-89.65 254.32,-80.03"/>
<polygon fill="#63b8ff" stroke="#63b8ff" points="256.64,-82.69 262.95,-74.17 252.71,-76.9 256.64,-82.69"/>
</a>
</g>
</g>
<!-- Node7&#45;&gt;Node5 -->
<g id="edge7_Node000007_Node000005" class="edge">
<title>Node7&#45;&gt;Node5</title>
<g id="a_edge7_Node000007_Node000005"><a xlink:title=" ">
<path fill="none" stroke="#63b8ff" d="M264.3,-54.98C253.6,-47 237.37,-34.88 224.54,-25.31"/>
<polygon fill="#63b8ff" stroke="#63b8ff" points="226.43,-22.35 216.32,-19.17 222.24,-27.96 226.43,-22.35"/>
</a>
</g>
</g>
<!-- Node7&#45;&gt;Node6 -->
<g id="edge10_Node000007_Node000006" class="edge">
<title>Node7&#45;&gt;Node6</title>
<g id="a_edge10_Node000007_Node000006"><a xlink:title=" ">
<path fill="none" stroke="#63b8ff" d="M252.89,-54.98C229.53,-46.27 193,-32.63 166.54,-22.75"/>
<polygon fill="#63b8ff" stroke="#63b8ff" points="167.53,-19.39 156.94,-19.17 165.08,-25.95 167.53,-19.39"/>
</a>
</g>
</g>
<!-- Node7&#45;&gt;Node8 -->
<g id="edge8_Node000007_Node000008" class="edge">
<title>Node7&#45;&gt;Node8</title>
<g id="a_edge8_Node000007_Node000008"><a xlink:title=" ">
<path fill="none" stroke="#63b8ff" d="M286.15,-54.98C295.85,-47.07 310.52,-35.11 322.21,-25.58"/>
<polygon fill="#63b8ff" stroke="#63b8ff" points="324.53,-28.2 330.07,-19.17 320.11,-22.78 324.53,-28.2"/>
</a>
</g>
</g>
<!-- Node7&#45;&gt;Node9 -->
<g id="edge9_Node000007_Node000009" class="edge">
<title>Node7&#45;&gt;Node9</title>
<g id="a_edge9_Node000007_Node000009"><a xlink:title=" ">
<path fill="none" stroke="#63b8ff" d="M297.4,-54.98C319.5,-46.3 354.03,-32.75 379.16,-22.88"/>
<polygon fill="#63b8ff" stroke="#63b8ff" points="380.59,-26.08 388.62,-19.17 378.03,-19.57 380.59,-26.08"/>
</a>
</g>
</g>
<!-- Node10 -->
<g id="Node000010" class="node">
<title>Node10</title>
<g id="a_Node000010"><a xlink:title=" ">
<polygon fill="#e0e0e0" stroke="#999999" points="297.71,-19 249.71,-19 249.71,0 297.71,0 297.71,-19"/>
<text text-anchor="middle" x="273.71" y="-7" font-family="Helvetica,sans-Serif" font-size="10.00">time.h</text>
</a>
</g>
</g>
<!-- Node7&#45;&gt;Node10 -->
<g id="edge11_Node000007_Node000010" class="edge">
<title>Node7&#45;&gt;Node10</title>
<g id="a_edge11_Node000007_Node000010"><a xlink:title=" ">
<path fill="none" stroke="#63b8ff" d="M275.38,-54.75C275.11,-47.8 274.74,-37.85 274.41,-29.13"/>
<polygon fill="#63b8ff" stroke="#63b8ff" points="277.9,-28.95 274.03,-19.09 270.91,-29.21 277.9,-28.95"/>
</a>
</g>
</g>
</g>
</svg>
