<?xml version="1.0" encoding="UTF-8" standalone="no"?>
<!DOCTYPE svg PUBLIC "-//W3C//DTD SVG 1.1//EN"
 "http://www.w3.org/Graphics/SVG/1.1/DTD/svg11.dtd">
<!-- Generated by graphviz version 2.43.0 (0)
 -->
<!-- Title: cstr_compare Pages: 1 -->
<svg width="188pt" height="45pt"
 viewBox="0.00 0.00 188.00 45.00" xmlns="http://www.w3.org/2000/svg" xmlns:xlink="http://www.w3.org/1999/xlink">
<g id="graph0" class="graph" transform="scale(1 1) rotate(0) translate(4 41)">
<title>cstr_compare</title>
<!-- Node1 -->
<g id="Node000001" class="node">
<title>Node1</title>
<g id="a_Node000001"><a xlink:title="Compares two cstrs lexicographically.">
<polygon fill="#999999" stroke="#666666" points="180,-19 97,-19 97,0 180,0 180,-19"/>
<text text-anchor="middle" x="138.5" y="-7" font-family="Helvetica,sans-Serif" font-size="10.00">cstr_compare</text>
</a>
</g>
</g>
<!-- Node1&#45;&gt;Node1 -->
<g id="edge3_Node000001_Node000001" class="edge">
<title>Node1&#45;&gt;Node1</title>
<g id="a_edge3_Node000001_Node000001"><a xlink:title=" ">
<path fill="none" stroke="#63b8ff" d="M158.5,-28.55C157.16,-33.38 150.5,-37 138.5,-37 119.3,-37 113.76,-27.73 121.85,-19.08"/>
<polygon fill="#63b8ff" stroke="#63b8ff" points="161.78,-27.34 155.15,-19.08 155.18,-29.68 161.78,-27.34"/>
</a>
</g>
</g>
<!-- Node2 -->
<g id="Node000002" class="node">
<title>Node2</title>
<g id="a_Node000002"><a xlink:href="cstr_8c.html#ad779f65f504ad58f1a2e40104dfc5cfc" target="_top" xlink:title="Alias for cstr_compare.">
<polygon fill="white" stroke="#666666" points="61,-19 0,-19 0,0 61,0 61,-19"/>
<text text-anchor="middle" x="30.5" y="-7" font-family="Helvetica,sans-Serif" font-size="10.00">cstr_cmp</text>
</a>
</g>
</g>
<!-- Node1&#45;&gt;Node2 -->
<g id="edge1_Node000001_Node000002" class="edge">
<title>Node1&#45;&gt;Node2</title>
<g id="a_edge1_Node000001_Node000002"><a xlink:title=" ">
<path fill="none" stroke="#63b8ff" d="M86.62,-9.5C77.85,-9.5 69.01,-9.5 61.04,-9.5"/>
<polygon fill="#63b8ff" stroke="#63b8ff" points="86.82,-13 96.82,-9.5 86.82,-6 86.82,-13"/>
</a>
</g>
</g>
<!-- Node2&#45;&gt;Node2 -->
<g id="edge2_Node000002_Node000002" class="edge">
<title>Node2&#45;&gt;Node2</title>
<g id="a_edge2_Node000002_Node000002"><a xlink:title=" ">
<path fill="none" stroke="#63b8ff" d="M50.5,-28.55C49.16,-33.38 42.5,-37 30.5,-37 11.3,-37 5.76,-27.73 13.85,-19.08"/>
<polygon fill="#63b8ff" stroke="#63b8ff" points="53.78,-27.34 47.15,-19.08 47.18,-29.68 53.78,-27.34"/>
</a>
</g>
</g>
</g>
</svg>
