<?xml version="1.0" encoding="UTF-8" standalone="no"?>
<!DOCTYPE svg PUBLIC "-//W3C//DTD SVG 1.1//EN"
 "http://www.w3.org/Graphics/SVG/1.1/DTD/svg11.dtd">
<!-- Generated by graphviz version 2.43.0 (0)
 -->
<!-- Title: cstr_init_arena Pages: 1 -->
<svg width="449pt" height="414pt"
 viewBox="0.00 0.00 449.00 414.00" xmlns="http://www.w3.org/2000/svg" xmlns:xlink="http://www.w3.org/1999/xlink">
<g id="graph0" class="graph" transform="scale(1 1) rotate(0) translate(4 410)">
<title>cstr_init_arena</title>
<!-- Node1 -->
<g id="Node000001" class="node">
<title>Node1</title>
<g id="a_Node000001"><a xlink:title="Creates a new empty cstr using a custom arena allocator.">
<polygon fill="#999999" stroke="#666666" points="441,-211 352,-211 352,-192 441,-192 441,-211"/>
<text text-anchor="middle" x="396.5" y="-199" font-family="Helvetica,sans-Serif" font-size="10.00">cstr_init_arena</text>
</a>
</g>
</g>
<!-- Node1&#45;&gt;Node1 -->
<g id="edge3_Node000001_Node000001" class="edge">
<title>Node1&#45;&gt;Node1</title>
<g id="a_edge3_Node000001_Node000001"><a xlink:title=" ">
<path fill="none" stroke="#63b8ff" d="M419.83,-220.55C418.27,-225.38 410.5,-229 396.5,-229 374.11,-229 367.63,-219.73 377.08,-211.08"/>
<polygon fill="#63b8ff" stroke="#63b8ff" points="422.97,-218.99 415.92,-211.08 416.5,-221.66 422.97,-218.99"/>
</a>
</g>
</g>
<!-- Node2 -->
<g id="Node000002" class="node">
<title>Node2</title>
<g id="a_Node000002"><a xlink:href="cstr_8c.html#addbb5ac6b50949c8b4ef489563117300" target="_top" xlink:title="Creates a new empty cstr with specified initial capacity.">
<polygon fill="white" stroke="#666666" points="297.5,-388 241.5,-388 241.5,-369 297.5,-369 297.5,-388"/>
<text text-anchor="middle" x="269.5" y="-376" font-family="Helvetica,sans-Serif" font-size="10.00">cstr_init</text>
</a>
</g>
</g>
<!-- Node1&#45;&gt;Node2 -->
<g id="edge1_Node000001_Node000002" class="edge">
<title>Node1&#45;&gt;Node2</title>
<g id="a_edge1_Node000001_Node000002"><a xlink:title=" ">
<path fill="none" stroke="#63b8ff" d="M389.58,-221.13C379.21,-252.7 355.07,-315.19 316,-354.5 310.08,-360.45 302.38,-365.27 294.99,-368.98"/>
<polygon fill="#63b8ff" stroke="#63b8ff" points="393,-221.93 392.68,-211.34 386.33,-219.82 393,-221.93"/>
</a>
</g>
</g>
<!-- Node3 -->
<g id="Node000003" class="node">
<title>Node3</title>
<g id="a_Node000003"><a xlink:href="cstr_8c.html#a44181a4b47f50b2520ae3ed80c5191b1" target="_top" xlink:title="Joins multiple cstrs with a delimiter.">
<polygon fill="white" stroke="#666666" points="58,-267 0,-267 0,-248 58,-248 58,-267"/>
<text text-anchor="middle" x="29" y="-255" font-family="Helvetica,sans-Serif" font-size="10.00">cstr_join</text>
</a>
</g>
</g>
<!-- Node1&#45;&gt;Node3 -->
<g id="edge4_Node000001_Node000003" class="edge">
<title>Node1&#45;&gt;Node3</title>
<g id="a_edge4_Node000001_Node000003"><a xlink:title=" ">
<path fill="none" stroke="#63b8ff" d="M376.41,-217.7C341.58,-245.99 264.16,-303.16 187,-321.5 146.79,-331.06 132.19,-337.32 94,-321.5 67.29,-310.44 45.91,-282.21 36,-267.21"/>
<polygon fill="#63b8ff" stroke="#63b8ff" points="378.84,-220.23 384.33,-211.17 374.38,-214.83 378.84,-220.23"/>
</a>
</g>
</g>
<!-- Node4 -->
<g id="Node000004" class="node">
<title>Node4</title>
<g id="a_Node000004"><a xlink:href="cstr_8c.html#a1eca5d7fc6deccb9e28a6e4075c7e5aa" target="_top" xlink:title="Creates a new cstr from a C string using a custom arena allocator.">
<polygon fill="white" stroke="#666666" points="316,-183 223,-183 223,-164 316,-164 316,-183"/>
<text text-anchor="middle" x="269.5" y="-171" font-family="Helvetica,sans-Serif" font-size="10.00">cstr_new_arena</text>
</a>
</g>
</g>
<!-- Node1&#45;&gt;Node4 -->
<g id="edge6_Node000001_Node000004" class="edge">
<title>Node1&#45;&gt;Node4</title>
<g id="a_edge6_Node000001_Node000004"><a xlink:title=" ">
<path fill="none" stroke="#63b8ff" d="M342.98,-189.74C332.98,-187.49 322.62,-185.18 312.98,-183.01"/>
<polygon fill="#63b8ff" stroke="#63b8ff" points="342.31,-193.17 352.83,-191.94 343.84,-186.34 342.31,-193.17"/>
</a>
</g>
</g>
<!-- Node6 -->
<g id="Node000006" class="node">
<title>Node6</title>
<g id="a_Node000006"><a xlink:href="cstr_8c.html#ab09b35f79bd6b009ca46cb3e2beee52c" target="_top" xlink:title="Replaces the first occurrence of a substring with another in the cstr.">
<polygon fill="white" stroke="#666666" points="178.5,-294 102.5,-294 102.5,-275 178.5,-275 178.5,-294"/>
<text text-anchor="middle" x="140.5" y="-282" font-family="Helvetica,sans-Serif" font-size="10.00">cstr_replace</text>
</a>
</g>
</g>
<!-- Node1&#45;&gt;Node6 -->
<g id="edge21_Node000001_Node000006" class="edge">
<title>Node1&#45;&gt;Node6</title>
<g id="a_edge21_Node000001_Node000006"><a xlink:title=" ">
<path fill="none" stroke="#63b8ff" d="M357.86,-214.43C344.64,-218.93 329.68,-223.98 316,-228.5 265.55,-245.16 206.66,-263.92 171.81,-274.94"/>
<polygon fill="#63b8ff" stroke="#63b8ff" points="359.24,-217.65 367.58,-211.11 356.98,-211.03 359.24,-217.65"/>
</a>
</g>
</g>
<!-- Node7 -->
<g id="Node000007" class="node">
<title>Node7</title>
<g id="a_Node000007"><a xlink:href="cstr_8c.html#a5e8d893a2d7559b2eb124d18bff2ff99" target="_top" xlink:title="Replaces all occurrences of a substring with another.">
<polygon fill="white" stroke="#666666" points="187,-239 94,-239 94,-220 187,-220 187,-239"/>
<text text-anchor="middle" x="140.5" y="-227" font-family="Helvetica,sans-Serif" font-size="10.00">cstr_replace_all</text>
</a>
</g>
</g>
<!-- Node1&#45;&gt;Node7 -->
<g id="edge22_Node000001_Node000007" class="edge">
<title>Node1&#45;&gt;Node7</title>
<g id="a_edge22_Node000001_Node000007"><a xlink:title=" ">
<path fill="none" stroke="#63b8ff" d="M341.78,-207.61C333.16,-208.58 324.34,-209.57 316,-210.5 272.23,-215.36 222.28,-220.79 187.07,-224.59"/>
<polygon fill="#63b8ff" stroke="#63b8ff" points="342.22,-211.09 351.77,-206.49 341.44,-204.13 342.22,-211.09"/>
</a>
</g>
</g>
<!-- Node8 -->
<g id="Node000008" class="node">
<title>Node8</title>
<g id="a_Node000008"><a xlink:href="cstr_8c.html#a3cb97207769b7dcc91c8d805293f19b6" target="_top" xlink:title="Creates a new cstr with the contents of the input cstr reversed.">
<polygon fill="white" stroke="#666666" points="179,-129 102,-129 102,-110 179,-110 179,-129"/>
<text text-anchor="middle" x="140.5" y="-117" font-family="Helvetica,sans-Serif" font-size="10.00">cstr_reverse</text>
</a>
</g>
</g>
<!-- Node1&#45;&gt;Node8 -->
<g id="edge23_Node000001_Node000008" class="edge">
<title>Node1&#45;&gt;Node8</title>
<g id="a_edge23_Node000001_Node000008"><a xlink:title=" ">
<path fill="none" stroke="#63b8ff" d="M373.76,-186.35C358.3,-176.23 336.68,-163.38 316,-155.5 270.62,-138.21 215.27,-128.59 179.24,-123.73"/>
<polygon fill="#63b8ff" stroke="#63b8ff" points="371.85,-189.28 382.1,-191.94 375.74,-183.46 371.85,-189.28"/>
</a>
</g>
</g>
<!-- Node9 -->
<g id="Node000009" class="node">
<title>Node9</title>
<g id="a_Node000009"><a xlink:href="cstr_8c.html#ae40a0dbbb1586e7ae46735342a773825" target="_top" xlink:title="Splits the cstr into substrings based on a delimiter.">
<polygon fill="white" stroke="#666666" points="171,-74 110,-74 110,-55 171,-55 171,-74"/>
<text text-anchor="middle" x="140.5" y="-62" font-family="Helvetica,sans-Serif" font-size="10.00">cstr_split</text>
</a>
</g>
</g>
<!-- Node1&#45;&gt;Node9 -->
<g id="edge24_Node000001_Node000009" class="edge">
<title>Node1&#45;&gt;Node9</title>
<g id="a_edge24_Node000001_Node000009"><a xlink:title=" ">
<path fill="none" stroke="#63b8ff" d="M380.28,-183.68C365.35,-167.16 341.22,-142.89 316,-127.5 269.13,-98.89 207.29,-80.44 171.21,-71.31"/>
<polygon fill="#63b8ff" stroke="#63b8ff" points="377.96,-186.34 387.2,-191.52 383.2,-181.71 377.96,-186.34"/>
</a>
</g>
</g>
<!-- Node10 -->
<g id="Node000010" class="node">
<title>Node10</title>
<g id="a_Node000010"><a xlink:href="cstr_8c.html#ab0329e72b480c5a1c0b51053cc725be9" target="_top" xlink:title="Extracts a substring from the cstr.">
<polygon fill="white" stroke="#666666" points="175.5,-19 105.5,-19 105.5,0 175.5,0 175.5,-19"/>
<text text-anchor="middle" x="140.5" y="-7" font-family="Helvetica,sans-Serif" font-size="10.00">cstr_substr</text>
</a>
</g>
</g>
<!-- Node1&#45;&gt;Node10 -->
<g id="edge25_Node000001_Node000010" class="edge">
<title>Node1&#45;&gt;Node10</title>
<g id="a_edge25_Node000001_Node000010"><a xlink:title=" ">
<path fill="none" stroke="#63b8ff" d="M387.25,-182.68C375.08,-156.88 350.03,-110.53 316,-82.5 274.05,-47.95 213.41,-27.56 175.78,-17.46"/>
<polygon fill="#63b8ff" stroke="#63b8ff" points="384.07,-184.14 391.41,-191.78 390.43,-181.23 384.07,-184.14"/>
</a>
</g>
</g>
<!-- Node2&#45;&gt;Node2 -->
<g id="edge2_Node000002_Node000002" class="edge">
<title>Node2&#45;&gt;Node2</title>
<g id="a_edge2_Node000002_Node000002"><a xlink:title=" ">
<path fill="none" stroke="#63b8ff" d="M292.83,-397.55C291.27,-402.38 283.5,-406 269.5,-406 247.11,-406 240.63,-396.73 250.08,-388.08"/>
<polygon fill="#63b8ff" stroke="#63b8ff" points="295.97,-395.99 288.92,-388.08 289.5,-398.66 295.97,-395.99"/>
</a>
</g>
</g>
<!-- Node3&#45;&gt;Node3 -->
<g id="edge5_Node000003_Node000003" class="edge">
<title>Node3&#45;&gt;Node3</title>
<g id="a_edge5_Node000003_Node000003"><a xlink:title=" ">
<path fill="none" stroke="#63b8ff" d="M49.37,-276.55C48.01,-281.38 41.22,-285 29,-285 9.45,-285 3.8,-275.73 12.05,-267.08"/>
<polygon fill="#63b8ff" stroke="#63b8ff" points="52.64,-275.3 45.95,-267.08 46.05,-277.68 52.64,-275.3"/>
</a>
</g>
</g>
<!-- Node4&#45;&gt;Node4 -->
<g id="edge10_Node000004_Node000004" class="edge">
<title>Node4&#45;&gt;Node4</title>
<g id="a_edge10_Node000004_Node000004"><a xlink:title=" ">
<path fill="none" stroke="#63b8ff" d="M292.83,-192.55C291.27,-197.38 283.5,-201 269.5,-201 247.11,-201 240.63,-191.73 250.08,-183.08"/>
<polygon fill="#63b8ff" stroke="#63b8ff" points="295.97,-190.99 288.92,-183.08 289.5,-193.66 295.97,-190.99"/>
</a>
</g>
</g>
<!-- Node5 -->
<g id="Node000005" class="node">
<title>Node5</title>
<g id="a_Node000005"><a xlink:href="cstr_8c.html#a7effe7536a6058739d5d43a601e9f857" target="_top" xlink:title="Creates a new cstr from a C string.">
<polygon fill="white" stroke="#666666" points="170.5,-184 110.5,-184 110.5,-165 170.5,-165 170.5,-184"/>
<text text-anchor="middle" x="140.5" y="-172" font-family="Helvetica,sans-Serif" font-size="10.00">cstr_new</text>
</a>
</g>
</g>
<!-- Node4&#45;&gt;Node5 -->
<g id="edge7_Node000004_Node000005" class="edge">
<title>Node4&#45;&gt;Node5</title>
<g id="a_edge7_Node000004_Node000005"><a xlink:title=" ">
<path fill="none" stroke="#63b8ff" d="M212.32,-173.94C197.94,-174.06 183.06,-174.17 170.68,-174.27"/>
<polygon fill="#63b8ff" stroke="#63b8ff" points="212.68,-177.44 222.65,-173.86 212.62,-170.44 212.68,-177.44"/>
</a>
</g>
</g>
<!-- Node4&#45;&gt;Node6 -->
<g id="edge11_Node000004_Node000006" class="edge">
<title>Node4&#45;&gt;Node6</title>
<g id="a_edge11_Node000004_Node000006"><a xlink:title=" ">
<path fill="none" stroke="#63b8ff" d="M256.74,-191.46C242.44,-212.07 216.52,-245.69 187,-266.5 182.42,-269.73 177.17,-272.49 171.91,-274.81"/>
<polygon fill="#63b8ff" stroke="#63b8ff" points="259.76,-193.24 262.46,-183 253.96,-189.32 259.76,-193.24"/>
</a>
</g>
</g>
<!-- Node4&#45;&gt;Node7 -->
<g id="edge13_Node000004_Node000007" class="edge">
<title>Node4&#45;&gt;Node7</title>
<g id="a_edge13_Node000004_Node000007"><a xlink:title=" ">
<path fill="none" stroke="#63b8ff" d="M239.79,-187.39C224.26,-194.78 204.69,-203.88 187,-211.5 180.45,-214.32 173.29,-217.23 166.64,-219.86"/>
<polygon fill="#63b8ff" stroke="#63b8ff" points="241.37,-190.52 248.89,-183.05 238.35,-184.2 241.37,-190.52"/>
</a>
</g>
</g>
<!-- Node4&#45;&gt;Node8 -->
<g id="edge15_Node000004_Node000008" class="edge">
<title>Node4&#45;&gt;Node8</title>
<g id="a_edge15_Node000004_Node000008"><a xlink:title=" ">
<path fill="none" stroke="#63b8ff" d="M236.59,-159.93C214.01,-150.33 184.28,-137.69 164.12,-129.12"/>
<polygon fill="#63b8ff" stroke="#63b8ff" points="235.52,-163.28 246.09,-163.97 238.25,-156.84 235.52,-163.28"/>
</a>
</g>
</g>
<!-- Node4&#45;&gt;Node9 -->
<g id="edge17_Node000004_Node000009" class="edge">
<title>Node4&#45;&gt;Node9</title>
<g id="a_edge17_Node000004_Node000009"><a xlink:title=" ">
<path fill="none" stroke="#63b8ff" d="M250.05,-156.82C233.66,-142.08 208.95,-120.11 187,-101.5 175.82,-92.02 162.82,-81.5 153.58,-74.11"/>
<polygon fill="#63b8ff" stroke="#63b8ff" points="248.04,-159.72 257.81,-163.81 252.73,-154.51 248.04,-159.72"/>
</a>
</g>
</g>
<!-- Node4&#45;&gt;Node10 -->
<g id="edge19_Node000004_Node000010" class="edge">
<title>Node4&#45;&gt;Node10</title>
<g id="a_edge19_Node000004_Node000010"><a xlink:title=" ">
<path fill="none" stroke="#63b8ff" d="M259.03,-154.54C245.38,-128.3 218.32,-80.2 187,-45.5 177.82,-35.33 165.55,-25.81 156.07,-19.11"/>
<polygon fill="#63b8ff" stroke="#63b8ff" points="256.08,-156.45 263.74,-163.76 262.31,-153.26 256.08,-156.45"/>
</a>
</g>
</g>
<!-- Node5&#45;&gt;Node3 -->
<g id="edge8_Node000005_Node000003" class="edge">
<title>Node5&#45;&gt;Node3</title>
<g id="a_edge8_Node000005_Node000003"><a xlink:title=" ">
<path fill="none" stroke="#63b8ff" d="M118.75,-190.23C96.36,-207.2 61.41,-233.69 42.75,-247.83"/>
<polygon fill="#63b8ff" stroke="#63b8ff" points="121.08,-192.85 126.94,-184.02 116.86,-187.27 121.08,-192.85"/>
</a>
</g>
</g>
<!-- Node5&#45;&gt;Node5 -->
<g id="edge9_Node000005_Node000005" class="edge">
<title>Node5&#45;&gt;Node5</title>
<g id="a_edge9_Node000005_Node000005"><a xlink:title=" ">
<path fill="none" stroke="#63b8ff" d="M160.87,-193.55C159.51,-198.38 152.72,-202 140.5,-202 120.95,-202 115.3,-192.73 123.55,-184.08"/>
<polygon fill="#63b8ff" stroke="#63b8ff" points="164.14,-192.3 157.45,-184.08 157.55,-194.68 164.14,-192.3"/>
</a>
</g>
</g>
<!-- Node6&#45;&gt;Node6 -->
<g id="edge12_Node000006_Node000006" class="edge">
<title>Node6&#45;&gt;Node6</title>
<g id="a_edge12_Node000006_Node000006"><a xlink:title=" ">
<path fill="none" stroke="#63b8ff" d="M160.87,-303.55C159.51,-308.38 152.72,-312 140.5,-312 120.95,-312 115.3,-302.73 123.55,-294.08"/>
<polygon fill="#63b8ff" stroke="#63b8ff" points="164.14,-302.3 157.45,-294.08 157.55,-304.68 164.14,-302.3"/>
</a>
</g>
</g>
<!-- Node7&#45;&gt;Node7 -->
<g id="edge14_Node000007_Node000007" class="edge">
<title>Node7&#45;&gt;Node7</title>
<g id="a_edge14_Node000007_Node000007"><a xlink:title=" ">
<path fill="none" stroke="#63b8ff" d="M160.87,-248.55C159.51,-253.38 152.72,-257 140.5,-257 120.95,-257 115.3,-247.73 123.55,-239.08"/>
<polygon fill="#63b8ff" stroke="#63b8ff" points="164.14,-247.3 157.45,-239.08 157.55,-249.68 164.14,-247.3"/>
</a>
</g>
</g>
<!-- Node8&#45;&gt;Node8 -->
<g id="edge16_Node000008_Node000008" class="edge">
<title>Node8&#45;&gt;Node8</title>
<g id="a_edge16_Node000008_Node000008"><a xlink:title=" ">
<path fill="none" stroke="#63b8ff" d="M160.87,-138.55C159.51,-143.38 152.72,-147 140.5,-147 120.95,-147 115.3,-137.73 123.55,-129.08"/>
<polygon fill="#63b8ff" stroke="#63b8ff" points="164.14,-137.3 157.45,-129.08 157.55,-139.68 164.14,-137.3"/>
</a>
</g>
</g>
<!-- Node9&#45;&gt;Node9 -->
<g id="edge18_Node000009_Node000009" class="edge">
<title>Node9&#45;&gt;Node9</title>
<g id="a_edge18_Node000009_Node000009"><a xlink:title=" ">
<path fill="none" stroke="#63b8ff" d="M160.87,-83.55C159.51,-88.38 152.72,-92 140.5,-92 120.95,-92 115.3,-82.73 123.55,-74.08"/>
<polygon fill="#63b8ff" stroke="#63b8ff" points="164.14,-82.3 157.45,-74.08 157.55,-84.68 164.14,-82.3"/>
</a>
</g>
</g>
<!-- Node10&#45;&gt;Node10 -->
<g id="edge20_Node000010_Node000010" class="edge">
<title>Node10&#45;&gt;Node10</title>
<g id="a_edge20_Node000010_Node000010"><a xlink:title=" ">
<path fill="none" stroke="#63b8ff" d="M160.87,-28.55C159.51,-33.38 152.72,-37 140.5,-37 120.95,-37 115.3,-27.73 123.55,-19.08"/>
<polygon fill="#63b8ff" stroke="#63b8ff" points="164.14,-27.3 157.45,-19.08 157.55,-29.68 164.14,-27.3"/>
</a>
</g>
</g>
</g>
</svg>
