<?xml version="1.0" encoding="UTF-8" standalone="no"?>
<!DOCTYPE svg PUBLIC "-//W3C//DTD SVG 1.1//EN"
 "http://www.w3.org/Graphics/SVG/1.1/DTD/svg11.dtd">
<!-- Generated by graphviz version 2.43.0 (0)
 -->
<!-- Title: include/cstr.h Pages: 1 -->
<svg width="596pt" height="137pt"
 viewBox="0.00 0.00 595.50 137.00" xmlns="http://www.w3.org/2000/svg" xmlns:xlink="http://www.w3.org/1999/xlink">
<g id="graph0" class="graph" transform="scale(1 1) rotate(0) translate(4 133)">
<title>include/cstr.h</title>
<!-- Node1 -->
<g id="Node000001" class="node">
<title>Node1</title>
<g id="a_Node000001"><a xlink:title="C string utilities and safe string operations.">
<polygon fill="#999999" stroke="#666666" points="477,-129 396,-129 396,-110 477,-110 477,-129"/>
<text text-anchor="middle" x="436.5" y="-117" font-family="Helvetica,sans-Serif" font-size="10.00">include/cstr.h</text>
</a>
</g>
</g>
<!-- Node2 -->
<g id="Node000002" class="node">
<title>Node2</title>
<g id="a_Node000002"><a xlink:href="macros_8h.html" target="_top" xlink:title="Collection of utility macros for assertions, memory management, math, and debugging.">
<polygon fill="white" stroke="#666666" points="232.5,-74 170.5,-74 170.5,-55 232.5,-55 232.5,-74"/>
<text text-anchor="middle" x="201.5" y="-62" font-family="Helvetica,sans-Serif" font-size="10.00">macros.h</text>
</a>
</g>
</g>
<!-- Node1&#45;&gt;Node2 -->
<g id="edge1_Node000001_Node000002" class="edge">
<title>Node1&#45;&gt;Node2</title>
<g id="a_edge1_Node000001_Node000002"><a xlink:title=" ">
<path fill="none" stroke="#63b8ff" d="M398.74,-109.98C356.01,-100.35 286.64,-84.7 242.58,-74.77"/>
<polygon fill="#63b8ff" stroke="#63b8ff" points="243.3,-71.34 232.77,-72.55 241.76,-78.17 243.3,-71.34"/>
</a>
</g>
</g>
<!-- Node8 -->
<g id="Node000008" class="node">
<title>Node8</title>
<g id="a_Node000008"><a xlink:href="str__utils_8h.html" target="_top" xlink:title="String utility functions for manipulation and processing.">
<polygon fill="white" stroke="#666666" points="469,-74 404,-74 404,-55 469,-55 469,-74"/>
<text text-anchor="middle" x="436.5" y="-62" font-family="Helvetica,sans-Serif" font-size="10.00">str_utils.h</text>
</a>
</g>
</g>
<!-- Node1&#45;&gt;Node8 -->
<g id="edge7_Node000001_Node000008" class="edge">
<title>Node1&#45;&gt;Node8</title>
<g id="a_edge7_Node000001_Node000008"><a xlink:title=" ">
<path fill="none" stroke="#63b8ff" d="M436.5,-109.75C436.5,-102.8 436.5,-92.85 436.5,-84.13"/>
<polygon fill="#63b8ff" stroke="#63b8ff" points="440,-84.09 436.5,-74.09 433,-84.09 440,-84.09"/>
</a>
</g>
</g>
<!-- Node9 -->
<g id="Node000009" class="node">
<title>Node9</title>
<g id="a_Node000009"><a xlink:title=" ">
<polygon fill="#e0e0e0" stroke="#999999" points="402,-19 349,-19 349,0 402,0 402,-19"/>
<text text-anchor="middle" x="375.5" y="-7" font-family="Helvetica,sans-Serif" font-size="10.00">ctype.h</text>
</a>
</g>
</g>
<!-- Node1&#45;&gt;Node9 -->
<g id="edge12_Node000001_Node000009" class="edge">
<title>Node1&#45;&gt;Node9</title>
<g id="a_edge12_Node000001_Node000009"><a xlink:title=" ">
<path fill="none" stroke="#63b8ff" d="M426.38,-109.93C417.14,-101.6 403.71,-88.18 395.5,-74 387.36,-59.93 382.12,-42.16 379.06,-29"/>
<polygon fill="#63b8ff" stroke="#63b8ff" points="382.48,-28.26 376.99,-19.21 375.64,-29.71 382.48,-28.26"/>
</a>
</g>
</g>
<!-- Node10 -->
<g id="Node000010" class="node">
<title>Node10</title>
<g id="a_Node000010"><a xlink:title=" ">
<polygon fill="#e0e0e0" stroke="#999999" points="553.5,-19 497.5,-19 497.5,0 553.5,0 553.5,-19"/>
<text text-anchor="middle" x="525.5" y="-7" font-family="Helvetica,sans-Serif" font-size="10.00">stddef.h</text>
</a>
</g>
</g>
<!-- Node1&#45;&gt;Node10 -->
<g id="edge14_Node000001_Node000010" class="edge">
<title>Node1&#45;&gt;Node10</title>
<g id="a_edge14_Node000001_Node000010"><a xlink:title=" ">
<path fill="none" stroke="#63b8ff" d="M445.19,-109.92C453.91,-101.16 467.59,-87.03 478.5,-74 491.11,-58.93 504.32,-40.85 513.51,-27.84"/>
<polygon fill="#63b8ff" stroke="#63b8ff" points="516.57,-29.58 519.43,-19.38 510.83,-25.57 516.57,-29.58"/>
</a>
</g>
</g>
<!-- Node12 -->
<g id="Node000012" class="node">
<title>Node12</title>
<g id="a_Node000012"><a xlink:title=" ">
<polygon fill="#e0e0e0" stroke="#999999" points="587.5,-74 525.5,-74 525.5,-55 587.5,-55 587.5,-74"/>
<text text-anchor="middle" x="556.5" y="-62" font-family="Helvetica,sans-Serif" font-size="10.00">stdbool.h</text>
</a>
</g>
</g>
<!-- Node1&#45;&gt;Node12 -->
<g id="edge13_Node000001_Node000012" class="edge">
<title>Node1&#45;&gt;Node12</title>
<g id="a_edge13_Node000001_Node000012"><a xlink:title=" ">
<path fill="none" stroke="#63b8ff" d="M455.78,-109.98C475.17,-101.42 505.31,-88.11 527.57,-78.28"/>
<polygon fill="#63b8ff" stroke="#63b8ff" points="529.14,-81.41 536.87,-74.17 526.31,-75.01 529.14,-81.41"/>
</a>
</g>
</g>
<!-- Node3 -->
<g id="Node000003" class="node">
<title>Node3</title>
<g id="a_Node000003"><a xlink:title=" ">
<polygon fill="#e0e0e0" stroke="#999999" points="53,-19 0,-19 0,0 53,0 53,-19"/>
<text text-anchor="middle" x="26.5" y="-7" font-family="Helvetica,sans-Serif" font-size="10.00">stdint.h</text>
</a>
</g>
</g>
<!-- Node2&#45;&gt;Node3 -->
<g id="edge2_Node000002_Node000003" class="edge">
<title>Node2&#45;&gt;Node3</title>
<g id="a_edge2_Node000002_Node000003"><a xlink:title=" ">
<path fill="none" stroke="#63b8ff" d="M173.38,-54.98C143.35,-45.89 95.64,-31.44 62.79,-21.49"/>
<polygon fill="#63b8ff" stroke="#63b8ff" points="63.7,-18.11 53.11,-18.56 61.67,-24.81 63.7,-18.11"/>
</a>
</g>
</g>
<!-- Node4 -->
<g id="Node000004" class="node">
<title>Node4</title>
<g id="a_Node000004"><a xlink:title=" ">
<polygon fill="#e0e0e0" stroke="#999999" points="121.5,-19 71.5,-19 71.5,0 121.5,0 121.5,-19"/>
<text text-anchor="middle" x="96.5" y="-7" font-family="Helvetica,sans-Serif" font-size="10.00">stdio.h</text>
</a>
</g>
</g>
<!-- Node2&#45;&gt;Node4 -->
<g id="edge3_Node000002_Node000004" class="edge">
<title>Node2&#45;&gt;Node4</title>
<g id="a_edge3_Node000002_Node000004"><a xlink:title=" ">
<path fill="none" stroke="#63b8ff" d="M184.63,-54.98C167.89,-46.54 142,-33.47 122.61,-23.68"/>
<polygon fill="#63b8ff" stroke="#63b8ff" points="124.18,-20.55 113.68,-19.17 121.03,-26.8 124.18,-20.55"/>
</a>
</g>
</g>
<!-- Node5 -->
<g id="Node000005" class="node">
<title>Node5</title>
<g id="a_Node000005"><a xlink:title=" ">
<polygon fill="#e0e0e0" stroke="#999999" points="193,-19 140,-19 140,0 193,0 193,-19"/>
<text text-anchor="middle" x="166.5" y="-7" font-family="Helvetica,sans-Serif" font-size="10.00">stdlib.h</text>
</a>
</g>
</g>
<!-- Node2&#45;&gt;Node5 -->
<g id="edge4_Node000002_Node000005" class="edge">
<title>Node2&#45;&gt;Node5</title>
<g id="a_edge4_Node000002_Node000005"><a xlink:title=" ">
<path fill="none" stroke="#63b8ff" d="M195.72,-54.75C190.88,-47.42 183.82,-36.73 177.86,-27.7"/>
<polygon fill="#63b8ff" stroke="#63b8ff" points="180.6,-25.5 172.17,-19.09 174.76,-29.36 180.6,-25.5"/>
</a>
</g>
</g>
<!-- Node6 -->
<g id="Node000006" class="node">
<title>Node6</title>
<g id="a_Node000006"><a xlink:title=" ">
<polygon fill="#e0e0e0" stroke="#999999" points="331,-19 278,-19 278,0 331,0 331,-19"/>
<text text-anchor="middle" x="304.5" y="-7" font-family="Helvetica,sans-Serif" font-size="10.00">string.h</text>
</a>
</g>
</g>
<!-- Node2&#45;&gt;Node6 -->
<g id="edge5_Node000002_Node000006" class="edge">
<title>Node2&#45;&gt;Node6</title>
<g id="a_edge5_Node000002_Node000006"><a xlink:title=" ">
<path fill="none" stroke="#63b8ff" d="M218.05,-54.98C234.39,-46.57 259.63,-33.59 278.63,-23.81"/>
<polygon fill="#63b8ff" stroke="#63b8ff" points="280.36,-26.86 287.65,-19.17 277.16,-20.63 280.36,-26.86"/>
</a>
</g>
</g>
<!-- Node7 -->
<g id="Node000007" class="node">
<title>Node7</title>
<g id="a_Node000007"><a xlink:title=" ">
<polygon fill="#e0e0e0" stroke="#999999" points="259.5,-19 211.5,-19 211.5,0 259.5,0 259.5,-19"/>
<text text-anchor="middle" x="235.5" y="-7" font-family="Helvetica,sans-Serif" font-size="10.00">time.h</text>
</a>
</g>
</g>
<!-- Node2&#45;&gt;Node7 -->
<g id="edge6_Node000002_Node000007" class="edge">
<title>Node2&#45;&gt;Node7</title>
<g id="a_edge6_Node000002_Node000007"><a xlink:title=" ">
<path fill="none" stroke="#63b8ff" d="M207.11,-54.75C211.82,-47.42 218.67,-36.73 224.47,-27.7"/>
<polygon fill="#63b8ff" stroke="#63b8ff" points="227.54,-29.4 229.99,-19.09 221.64,-25.62 227.54,-29.4"/>
</a>
</g>
</g>
<!-- Node8&#45;&gt;Node6 -->
<g id="edge10_Node000008_Node000006" class="edge">
<title>Node8&#45;&gt;Node6</title>
<g id="a_edge10_Node000008_Node000006"><a xlink:title=" ">
<path fill="none" stroke="#63b8ff" d="M415.29,-54.98C393.77,-46.34 360.22,-32.87 335.67,-23.02"/>
<polygon fill="#63b8ff" stroke="#63b8ff" points="336.68,-19.65 326.09,-19.17 334.07,-26.14 336.68,-19.65"/>
</a>
</g>
</g>
<!-- Node8&#45;&gt;Node9 -->
<g id="edge8_Node000008_Node000009" class="edge">
<title>Node8&#45;&gt;Node9</title>
<g id="a_edge8_Node000008_Node000009"><a xlink:title=" ">
<path fill="none" stroke="#63b8ff" d="M426.7,-54.98C417.68,-47.15 404.09,-35.34 393.18,-25.86"/>
<polygon fill="#63b8ff" stroke="#63b8ff" points="395.32,-23.09 385.48,-19.17 390.73,-28.37 395.32,-23.09"/>
</a>
</g>
</g>
<!-- Node8&#45;&gt;Node10 -->
<g id="edge9_Node000008_Node000010" class="edge">
<title>Node8&#45;&gt;Node10</title>
<g id="a_edge9_Node000008_Node000010"><a xlink:title=" ">
<path fill="none" stroke="#63b8ff" d="M450.8,-54.98C464.6,-46.77 485.74,-34.18 502.01,-24.49"/>
<polygon fill="#63b8ff" stroke="#63b8ff" points="504.14,-27.29 510.94,-19.17 500.56,-21.28 504.14,-27.29"/>
</a>
</g>
</g>
<!-- Node11 -->
<g id="Node000011" class="node">
<title>Node11</title>
<g id="a_Node000011"><a xlink:title=" ">
<polygon fill="#e0e0e0" stroke="#999999" points="479,-19 420,-19 420,0 479,0 479,-19"/>
<text text-anchor="middle" x="449.5" y="-7" font-family="Helvetica,sans-Serif" font-size="10.00">strings.h</text>
</a>
</g>
</g>
<!-- Node8&#45;&gt;Node11 -->
<g id="edge11_Node000008_Node000011" class="edge">
<title>Node8&#45;&gt;Node11</title>
<g id="a_edge11_Node000008_Node000011"><a xlink:title=" ">
<path fill="none" stroke="#63b8ff" d="M438.65,-54.75C440.37,-47.72 442.85,-37.62 445,-28.84"/>
<polygon fill="#63b8ff" stroke="#63b8ff" points="448.41,-29.63 447.39,-19.09 441.61,-27.97 448.41,-29.63"/>
</a>
</g>
</g>
</g>
</svg>
