<?xml version="1.0" encoding="UTF-8" standalone="no"?>
<!DOCTYPE svg PUBLIC "-//W3C//DTD SVG 1.1//EN"
 "http://www.w3.org/Graphics/SVG/1.1/DTD/svg11.dtd">
<!-- Generated by graphviz version 2.43.0 (0)
 -->
<!-- Title: cstr_join Pages: 1 -->
<svg width="254pt" height="73pt"
 viewBox="0.00 0.00 254.00 73.00" xmlns="http://www.w3.org/2000/svg" xmlns:xlink="http://www.w3.org/1999/xlink">

<svg id="main" version="1.1" xmlns="http://www.w3.org/2000/svg" xmlns:xlink="http://www.w3.org/1999/xlink" xml:space="preserve" onload="init(evt)">
<style type="text/css"><![CDATA[
.node, .edge {opacity: 0.7;}
.node.selected, .edge.selected {opacity: 1;}
.edge:hover path { stroke: red; }
.edge:hover polygon { stroke: red; fill: red; }
]]></style>
<script type="application/ecmascript" xlink:href="svg.min.js"/>
<svg id="graph" class="graph">
<g id="graph0" class="graph" transform="scale(1 1) rotate(0) translate(4 69)">
<title>cstr_join</title>
<!-- Node1 -->
<g id="Node000001" class="node">
<title>Node1</title>
<g id="a_Node000001"><a xlink:title="Joins multiple cstrs with a delimiter.">
<polygon fill="#999999" stroke="#666666" points="58,-47 0,-47 0,-28 58,-28 58,-47"/>
<text text-anchor="middle" x="29" y="-35" font-family="Helvetica,sans-Serif" font-size="10.00">cstr_join</text>
</a>
</g>
</g>
<!-- Node1&#45;&gt;Node1 -->
<g id="edge3_Node000001_Node000001" class="edge">
<title>Node1&#45;&gt;Node1</title>
<g id="a_edge3_Node000001_Node000001"><a xlink:title=" ">
<path fill="none" stroke="#63b8ff" d="M14.51,-47.08C7.46,-55.73 12.29,-65 29,-65 39.18,-65 44.95,-61.56 46.31,-56.91"/>
<polygon fill="#63b8ff" stroke="#63b8ff" points="49.61,-55.73 43.49,-47.08 42.88,-57.66 49.61,-55.73"/>
</a>
</g>
</g>
<!-- Node2 -->
<g id="Node000002" class="node">
<title>Node2</title>
<g id="a_Node000002"><a xlink:href="cstr_8c.html#addbb5ac6b50949c8b4ef489563117300" target="_top" xlink:title="Creates a new empty cstr with specified initial capacity.">
<polygon fill="white" stroke="#666666" points="246,-47 190,-47 190,-28 246,-28 246,-47"/>
<text text-anchor="middle" x="218" y="-35" font-family="Helvetica,sans-Serif" font-size="10.00">cstr_init</text>
</a>
</g>
</g>
<!-- Node1&#45;&gt;Node2 -->
<g id="edge1_Node000001_Node000002" class="edge">
<title>Node1&#45;&gt;Node2</title>
<g id="a_edge1_Node000001_Node000002"><a xlink:title=" ">
<path fill="none" stroke="#63b8ff" d="M58.27,-42.34C69.37,-44.02 82.25,-45.68 94,-46.5 120.6,-48.36 127.4,-48.39 154,-46.5 162.38,-45.9 171.35,-44.87 179.81,-43.71"/>
<polygon fill="#63b8ff" stroke="#63b8ff" points="180.41,-47.15 189.8,-42.25 179.4,-40.23 180.41,-47.15"/>
</a>
</g>
</g>
<!-- Node3 -->
<g id="Node000003" class="node">
<title>Node3</title>
<g id="a_Node000003"><a xlink:href="cstr_8c.html#a7effe7536a6058739d5d43a601e9f857" target="_top" xlink:title="Creates a new cstr from a C string.">
<polygon fill="white" stroke="#666666" points="154,-19 94,-19 94,0 154,0 154,-19"/>
<text text-anchor="middle" x="124" y="-7" font-family="Helvetica,sans-Serif" font-size="10.00">cstr_new</text>
</a>
</g>
</g>
<!-- Node1&#45;&gt;Node3 -->
<g id="edge4_Node000001_Node000003" class="edge">
<title>Node1&#45;&gt;Node3</title>
<g id="a_edge4_Node000001_Node000003"><a xlink:title=" ">
<path fill="none" stroke="#63b8ff" d="M58.16,-29.02C66.39,-26.54 75.54,-23.79 84.31,-21.15"/>
<polygon fill="#63b8ff" stroke="#63b8ff" points="85.41,-24.47 93.97,-18.24 83.39,-17.77 85.41,-24.47"/>
</a>
</g>
</g>
<!-- Node2&#45;&gt;Node2 -->
<g id="edge2_Node000002_Node000002" class="edge">
<title>Node2&#45;&gt;Node2</title>
<g id="a_edge2_Node000002_Node000002"><a xlink:title=" ">
<path fill="none" stroke="#63b8ff" d="M203.51,-47.08C196.46,-55.73 201.29,-65 218,-65 228.18,-65 233.95,-61.56 235.31,-56.91"/>
<polygon fill="#63b8ff" stroke="#63b8ff" points="238.61,-55.73 232.49,-47.08 231.88,-57.66 238.61,-55.73"/>
</a>
</g>
</g>
<!-- Node3&#45;&gt;Node2 -->
<g id="edge5_Node000003_Node000002" class="edge">
<title>Node3&#45;&gt;Node2</title>
<g id="a_edge5_Node000003_Node000002"><a xlink:title=" ">
<path fill="none" stroke="#63b8ff" d="M154.11,-18.36C162.45,-20.9 171.65,-23.7 180.37,-26.35"/>
<polygon fill="#63b8ff" stroke="#63b8ff" points="179.37,-29.71 189.96,-29.27 181.41,-23.01 179.37,-29.71"/>
</a>
</g>
</g>
<!-- Node3&#45;&gt;Node3 -->
<g id="edge6_Node000003_Node000003" class="edge">
<title>Node3&#45;&gt;Node3</title>
<g id="a_edge6_Node000003_Node000003"><a xlink:title=" ">
<path fill="none" stroke="#63b8ff" d="M109.51,-19.08C102.46,-27.73 107.29,-37 124,-37 134.18,-37 139.95,-33.56 141.31,-28.91"/>
<polygon fill="#63b8ff" stroke="#63b8ff" points="144.61,-27.73 138.49,-19.08 137.88,-29.66 144.61,-27.73"/>
</a>
</g>
</g>
</g>
</svg>
</svg>

<style type='text/css'>
<![CDATA[
[data-mouse-over-selected='false'] { opacity: 0.7; }
[data-mouse-over-selected='true']  { opacity: 1.0; }
]]>
</style>
<script type="application/ecmascript"><![CDATA[
document.addEventListener('DOMContentLoaded', (event) => {
  highlightEdges();
  highlightAdjacentNodes();
});
]]></script>
</svg>
