<?xml version="1.0" encoding="UTF-8" standalone="no"?>
<!DOCTYPE svg PUBLIC "-//W3C//DTD SVG 1.1//EN"
 "http://www.w3.org/Graphics/SVG/1.1/DTD/svg11.dtd">
<!-- Generated by graphviz version 2.43.0 (0)
 -->
<!-- Title: cstr_new Pages: 1 -->
<svg width="316pt" height="27pt"
 viewBox="0.00 0.00 316.00 27.00" xmlns="http://www.w3.org/2000/svg" xmlns:xlink="http://www.w3.org/1999/xlink">
<g id="graph0" class="graph" transform="scale(1 1) rotate(0) translate(4 23)">
<title>cstr_new</title>
<!-- Node1 -->
<g id="Node000001" class="node">
<title>Node1</title>
<g id="a_Node000001"><a xlink:title="Create a new cstr from a C string.">
<polygon fill="#999999" stroke="#666666" points="60,-19 0,-19 0,0 60,0 60,-19"/>
<text text-anchor="middle" x="30" y="-7" font-family="Helvetica,sans-Serif" font-size="10.00">cstr_new</text>
</a>
</g>
</g>
<!-- Node2 -->
<g id="Node000002" class="node">
<title>Node2</title>
<g id="a_Node000002"><a xlink:href="cstr_8c.html#a9d0695940c5df080ac5b29df7439d02b" target="_top" xlink:title="Create a new cstr from a buffer of known length (no strlen needed).">
<polygon fill="white" stroke="#666666" points="176,-19 96,-19 96,0 176,0 176,-19"/>
<text text-anchor="middle" x="136" y="-7" font-family="Helvetica,sans-Serif" font-size="10.00">cstr_new_len</text>
</a>
</g>
</g>
<!-- Node1&#45;&gt;Node2 -->
<g id="edge1_Node000001_Node000002" class="edge">
<title>Node1&#45;&gt;Node2</title>
<g id="a_edge1_Node000001_Node000002"><a xlink:title=" ">
<path fill="none" stroke="#63b8ff" d="M60.25,-9.5C68.19,-9.5 77.02,-9.5 85.75,-9.5"/>
<polygon fill="#63b8ff" stroke="#63b8ff" points="85.88,-13 95.88,-9.5 85.88,-6 85.88,-13"/>
</a>
</g>
</g>
<!-- Node3 -->
<g id="Node000003" class="node">
<title>Node3</title>
<g id="a_Node000003"><a xlink:href="cstr_8h.html#a5651c258e36e803d11c2c502a765a416" target="_top" xlink:title="Initialize an already&#45;allocated cstr in SSO mode (no heap).">
<polygon fill="white" stroke="#666666" points="308,-19 212,-19 212,0 308,0 308,-19"/>
<text text-anchor="middle" x="260" y="-7" font-family="Helvetica,sans-Serif" font-size="10.00">cstr_init_inplace</text>
</a>
</g>
</g>
<!-- Node2&#45;&gt;Node3 -->
<g id="edge2_Node000002_Node000003" class="edge">
<title>Node2&#45;&gt;Node3</title>
<g id="a_edge2_Node000002_Node000003"><a xlink:title=" ">
<path fill="none" stroke="#63b8ff" d="M176.27,-9.5C184.38,-9.5 193.08,-9.5 201.69,-9.5"/>
<polygon fill="#63b8ff" stroke="#63b8ff" points="201.7,-13 211.7,-9.5 201.7,-6 201.7,-13"/>
</a>
</g>
</g>
</g>
</svg>
