<?xml version="1.0" encoding="UTF-8" standalone="no"?>
<!DOCTYPE svg PUBLIC "-//W3C//DTD SVG 1.1//EN"
 "http://www.w3.org/Graphics/SVG/1.1/DTD/svg11.dtd">
<!-- Generated by graphviz version 2.43.0 (0)
 -->
<!-- Title: cstr_join Pages: 1 -->
<svg width="416pt" height="73pt"
 viewBox="0.00 0.00 416.00 73.00" xmlns="http://www.w3.org/2000/svg" xmlns:xlink="http://www.w3.org/1999/xlink">
<g id="graph0" class="graph" transform="scale(1 1) rotate(0) translate(4 69)">
<title>cstr_join</title>
<!-- Node1 -->
<g id="Node000001" class="node">
<title>Node1</title>
<g id="a_Node000001"><a xlink:title="Joins multiple cstrs with a delimiter.">
<polygon fill="#999999" stroke="#666666" points="58,-47 0,-47 0,-28 58,-28 58,-47"/>
<text text-anchor="middle" x="29" y="-35" font-family="Helvetica,sans-Serif" font-size="10.00">cstr_join</text>
</a>
</g>
</g>
<!-- Node1&#45;&gt;Node1 -->
<g id="edge3_Node000001_Node000001" class="edge">
<title>Node1&#45;&gt;Node1</title>
<g id="a_edge3_Node000001_Node000001"><a xlink:title=" ">
<path fill="none" stroke="#63b8ff" d="M14.51,-47.08C7.46,-55.73 12.29,-65 29,-65 39.18,-65 44.95,-61.56 46.31,-56.91"/>
<polygon fill="#63b8ff" stroke="#63b8ff" points="49.61,-55.73 43.49,-47.08 42.88,-57.66 49.61,-55.73"/>
</a>
</g>
</g>
<!-- Node2 -->
<g id="Node000002" class="node">
<title>Node2</title>
<g id="a_Node000002"><a xlink:href="cstr_8c.html#aaafd0342dcc8c8e0e2fabf7edacc5520" target="_top" xlink:title="Creates a new empty cstr using a custom arena allocator.">
<polygon fill="white" stroke="#666666" points="408,-47 319,-47 319,-28 408,-28 408,-47"/>
<text text-anchor="middle" x="363.5" y="-35" font-family="Helvetica,sans-Serif" font-size="10.00">cstr_init_arena</text>
</a>
</g>
</g>
<!-- Node1&#45;&gt;Node2 -->
<g id="edge1_Node000001_Node000002" class="edge">
<title>Node1&#45;&gt;Node2</title>
<g id="a_edge1_Node000001_Node000002"><a xlink:title=" ">
<path fill="none" stroke="#63b8ff" d="M58.28,-41.8C69.39,-43.29 82.27,-44.77 94,-45.5 177.84,-50.72 199.11,-49.71 283,-45.5 291.36,-45.08 300.21,-44.41 308.83,-43.64"/>
<polygon fill="#63b8ff" stroke="#63b8ff" points="309.2,-47.12 318.82,-42.69 308.54,-40.15 309.2,-47.12"/>
</a>
</g>
</g>
<!-- Node3 -->
<g id="Node000003" class="node">
<title>Node3</title>
<g id="a_Node000003"><a xlink:href="cstr_8c.html#a7effe7536a6058739d5d43a601e9f857" target="_top" xlink:title="Creates a new cstr from a C string.">
<polygon fill="white" stroke="#666666" points="154,-19 94,-19 94,0 154,0 154,-19"/>
<text text-anchor="middle" x="124" y="-7" font-family="Helvetica,sans-Serif" font-size="10.00">cstr_new</text>
</a>
</g>
</g>
<!-- Node1&#45;&gt;Node3 -->
<g id="edge4_Node000001_Node000003" class="edge">
<title>Node1&#45;&gt;Node3</title>
<g id="a_edge4_Node000001_Node000003"><a xlink:title=" ">
<path fill="none" stroke="#63b8ff" d="M58.16,-29.02C66.39,-26.54 75.54,-23.79 84.31,-21.15"/>
<polygon fill="#63b8ff" stroke="#63b8ff" points="85.41,-24.47 93.97,-18.24 83.39,-17.77 85.41,-24.47"/>
</a>
</g>
</g>
<!-- Node2&#45;&gt;Node2 -->
<g id="edge2_Node000002_Node000002" class="edge">
<title>Node2&#45;&gt;Node2</title>
<g id="a_edge2_Node000002_Node000002"><a xlink:title=" ">
<path fill="none" stroke="#63b8ff" d="M344.08,-47.08C334.63,-55.73 341.11,-65 363.5,-65 377.5,-65 385.27,-61.38 386.83,-56.55"/>
<polygon fill="#63b8ff" stroke="#63b8ff" points="389.97,-54.99 382.92,-47.08 383.5,-57.66 389.97,-54.99"/>
</a>
</g>
</g>
<!-- Node3&#45;&gt;Node3 -->
<g id="edge5_Node000003_Node000003" class="edge">
<title>Node3&#45;&gt;Node3</title>
<g id="a_edge5_Node000003_Node000003"><a xlink:title=" ">
<path fill="none" stroke="#63b8ff" d="M109.51,-19.08C102.46,-27.73 107.29,-37 124,-37 134.18,-37 139.95,-33.56 141.31,-28.91"/>
<polygon fill="#63b8ff" stroke="#63b8ff" points="144.61,-27.73 138.49,-19.08 137.88,-29.66 144.61,-27.73"/>
</a>
</g>
</g>
<!-- Node4 -->
<g id="Node000004" class="node">
<title>Node4</title>
<g id="a_Node000004"><a xlink:href="cstr_8c.html#a1eca5d7fc6deccb9e28a6e4075c7e5aa" target="_top" xlink:title="Creates a new cstr from a C string using a custom arena allocator.">
<polygon fill="white" stroke="#666666" points="283,-19 190,-19 190,0 283,0 283,-19"/>
<text text-anchor="middle" x="236.5" y="-7" font-family="Helvetica,sans-Serif" font-size="10.00">cstr_new_arena</text>
</a>
</g>
</g>
<!-- Node3&#45;&gt;Node4 -->
<g id="edge6_Node000003_Node000004" class="edge">
<title>Node3&#45;&gt;Node4</title>
<g id="a_edge6_Node000003_Node000004"><a xlink:title=" ">
<path fill="none" stroke="#63b8ff" d="M154.03,-9.5C162.02,-9.5 170.97,-9.5 179.92,-9.5"/>
<polygon fill="#63b8ff" stroke="#63b8ff" points="179.99,-13 189.99,-9.5 179.99,-6 179.99,-13"/>
</a>
</g>
</g>
<!-- Node4&#45;&gt;Node2 -->
<g id="edge7_Node000004_Node000002" class="edge">
<title>Node4&#45;&gt;Node2</title>
<g id="a_edge7_Node000004_Node000002"><a xlink:title=" ">
<path fill="none" stroke="#63b8ff" d="M280.17,-19.06C289.82,-21.22 300.18,-23.54 310.18,-25.78"/>
<polygon fill="#63b8ff" stroke="#63b8ff" points="309.5,-29.21 320.02,-27.99 311.03,-22.38 309.5,-29.21"/>
</a>
</g>
</g>
<!-- Node4&#45;&gt;Node4 -->
<g id="edge8_Node000004_Node000004" class="edge">
<title>Node4&#45;&gt;Node4</title>
<g id="a_edge8_Node000004_Node000004"><a xlink:title=" ">
<path fill="none" stroke="#63b8ff" d="M219.24,-19.08C210.84,-27.73 216.59,-37 236.5,-37 248.94,-37 255.85,-33.38 257.24,-28.55"/>
<polygon fill="#63b8ff" stroke="#63b8ff" points="260.49,-27.26 253.76,-19.08 253.92,-29.68 260.49,-27.26"/>
</a>
</g>
</g>
</g>
</svg>
