<?xml version="1.0" encoding="UTF-8" standalone="no"?>
<!DOCTYPE svg PUBLIC "-//W3C//DTD SVG 1.1//EN"
 "http://www.w3.org/Graphics/SVG/1.1/DTD/svg11.dtd">
<!-- Generated by graphviz version 2.43.0 (0)
 -->
<!-- Title: include/cstr.h Pages: 1 -->
<!--zoomable 137 -->

<svg id="main" version="1.1" xmlns="http://www.w3.org/2000/svg" xmlns:xlink="http://www.w3.org/1999/xlink" xml:space="preserve" onload="init(evt)">
<style type="text/css"><![CDATA[
.node, .edge {opacity: 0.7;}
.node.selected, .edge.selected {opacity: 1;}
.edge:hover path { stroke: red; }
.edge:hover polygon { stroke: red; fill: red; }
]]></style>

<defs>
  <circle id="rim" cx="0" cy="0" r="7"/>
  <circle id="rim2" cx="0" cy="0" r="3.5"/>
  <g id="zoomPlus">
    <use xlink:href="#rim" fill="#404040"><set attributeName="fill" to="#808080" begin="zoomplus.mouseover" end="zoomplus.mouseout"/></use>
    <path d="M-4,0h8M0,-4v8" fill="none" stroke="white" stroke-width="1.5" pointer-events="none"/>
  </g>
  <g id="zoomMin">
    <use xlink:href="#rim" fill="#404040"><set attributeName="fill" to="#808080" begin="zoomminus.mouseover" end="zoomminus.mouseout"/></use>
    <path d="M-4,0h8" fill="none" stroke="white" stroke-width="1.5" pointer-events="none"/>
  </g>
  <g id="arrowUp" transform="translate(30 24)">
    <use xlink:href="#rim"/>
    <path pointer-events="none" fill="none" stroke="white" stroke-width="1.5" d="M0,-3.0v7 M-2.5,-0.5L0,-3.0L2.5,-0.5"/>
  </g>
  <g id="arrowRight" transform="rotate(90) translate(36 -43)">
    <use xlink:href="#rim"/>
    <path pointer-events="none" fill="none" stroke="white" stroke-width="1.5" d="M0,-3.0v7 M-2.5,-0.5L0,-3.0L2.5,-0.5"/>
  </g>
  <g id="arrowDown" transform="rotate(180) translate(-30 -48)">
    <use xlink:href="#rim"/>
    <path pointer-events="none" fill="none" stroke="white" stroke-width="1.5" d="M0,-3.0v7 M-2.5,-0.5L0,-3.0L2.5,-0.5"/>
  </g>
  <g id="arrowLeft" transform="rotate(270) translate(-36 17)">
    <use xlink:href="#rim"/>
    <path pointer-events="none" fill="none" stroke="white" stroke-width="1.5" d="M0,-3.0v7 M-2.5,-0.5L0,-3.0L2.5,-0.5"/>
  </g>
  <g id="resetDef">
    <use xlink:href="#rim2" fill="#404040"><set attributeName="fill" to="#808080" begin="reset.mouseover" end="reset.mouseout"/></use>
  </g>
</defs>
<script type="application/ecmascript">
var viewWidth = 562;
var viewHeight = 137;
var sectionId = 'dynsection-0';
</script>
<script type="application/ecmascript" xlink:href="svg.min.js"/>
<svg id="graph" class="graph">
<g id="viewport">
<title>include/cstr.h</title>
<!-- Node1 -->
<g id="Node000001" class="node">
<title>Node1</title>
<g id="a_Node000001"><a xlink:title="C string utilities and safe string operations.">
<polygon fill="#999999" stroke="#666666" points="212,-129 131,-129 131,-110 212,-110 212,-129"/>
<text text-anchor="middle" x="171.5" y="-117" font-family="Helvetica,sans-Serif" font-size="10.00">include/cstr.h</text>
</a>
</g>
</g>
<!-- Node2 -->
<g id="Node000002" class="node">
<title>Node2</title>
<g id="a_Node000002"><a xlink:title=" ">
<polygon fill="#e0e0e0" stroke="#999999" points="53,-19 0,-19 0,0 53,0 53,-19"/>
<text text-anchor="middle" x="26.5" y="-7" font-family="Helvetica,sans-Serif" font-size="10.00">ctype.h</text>
</a>
</g>
</g>
<!-- Node1&#45;&gt;Node2 -->
<g id="edge1_Node000001_Node000002" class="edge">
<title>Node1&#45;&gt;Node2</title>
<g id="a_edge1_Node000001_Node000002"><a xlink:title=" ">
<path fill="none" stroke="#63b8ff" d="M159.63,-109.66C134.76,-91.14 76.95,-48.08 46.34,-25.28"/>
<polygon fill="#63b8ff" stroke="#63b8ff" points="48.24,-22.32 38.12,-19.16 44.05,-27.94 48.24,-22.32"/>
</a>
</g>
</g>
<!-- Node3 -->
<g id="Node000003" class="node">
<title>Node3</title>
<g id="a_Node000003"><a xlink:title=" ">
<polygon fill="#e0e0e0" stroke="#999999" points="431.5,-74 369.5,-74 369.5,-55 431.5,-55 431.5,-74"/>
<text text-anchor="middle" x="400.5" y="-62" font-family="Helvetica,sans-Serif" font-size="10.00">stdbool.h</text>
</a>
</g>
</g>
<!-- Node1&#45;&gt;Node3 -->
<g id="edge2_Node000001_Node000003" class="edge">
<title>Node1&#45;&gt;Node3</title>
<g id="a_edge2_Node000001_Node000003"><a xlink:title=" ">
<path fill="none" stroke="#63b8ff" d="M208.29,-109.98C249.61,-100.42 316.49,-84.94 359.47,-75"/>
<polygon fill="#63b8ff" stroke="#63b8ff" points="360.36,-78.38 369.32,-72.72 358.78,-71.56 360.36,-78.38"/>
</a>
</g>
</g>
<!-- Node4 -->
<g id="Node000004" class="node">
<title>Node4</title>
<g id="a_Node000004"><a xlink:title=" ">
<polygon fill="#e0e0e0" stroke="#999999" points="127.5,-19 71.5,-19 71.5,0 127.5,0 127.5,-19"/>
<text text-anchor="middle" x="99.5" y="-7" font-family="Helvetica,sans-Serif" font-size="10.00">stddef.h</text>
</a>
</g>
</g>
<!-- Node1&#45;&gt;Node4 -->
<g id="edge3_Node000001_Node000004" class="edge">
<title>Node1&#45;&gt;Node4</title>
<g id="a_edge3_Node000001_Node000004"><a xlink:title=" ">
<path fill="none" stroke="#63b8ff" d="M161.56,-109.7C152.4,-101.22 138.84,-87.69 129.5,-74 119.74,-59.7 111.57,-41.72 106.24,-28.55"/>
<polygon fill="#63b8ff" stroke="#63b8ff" points="109.48,-27.22 102.59,-19.17 102.96,-29.76 109.48,-27.22"/>
</a>
</g>
</g>
<!-- Node5 -->
<g id="Node000005" class="node">
<title>Node5</title>
<g id="a_Node000005"><a xlink:href="macros_8h.html" target="_top" xlink:title="Collection of utility macros for assertions, memory management, math, and debugging.">
<polygon fill="white" stroke="#666666" points="351.5,-74 289.5,-74 289.5,-55 351.5,-55 351.5,-74"/>
<text text-anchor="middle" x="320.5" y="-62" font-family="Helvetica,sans-Serif" font-size="10.00">macros.h</text>
</a>
</g>
</g>
<!-- Node1&#45;&gt;Node5 -->
<g id="edge4_Node000001_Node000005" class="edge">
<title>Node1&#45;&gt;Node5</title>
<g id="a_edge4_Node000001_Node000005"><a xlink:title=" ">
<path fill="none" stroke="#63b8ff" d="M195.44,-109.98C220.06,-101.23 258.62,-87.51 286.42,-77.62"/>
<polygon fill="#63b8ff" stroke="#63b8ff" points="287.88,-80.82 296.12,-74.17 285.53,-74.22 287.88,-80.82"/>
</a>
</g>
</g>
<!-- Node11 -->
<g id="Node000011" class="node">
<title>Node11</title>
<g id="a_Node000011"><a xlink:href="str__utils_8h.html" target="_top" xlink:title="String utility functions for manipulation and processing.">
<polygon fill="white" stroke="#666666" points="204,-74 139,-74 139,-55 204,-55 204,-74"/>
<text text-anchor="middle" x="171.5" y="-62" font-family="Helvetica,sans-Serif" font-size="10.00">str_utils.h</text>
</a>
</g>
</g>
<!-- Node1&#45;&gt;Node11 -->
<g id="edge10_Node000001_Node000011" class="edge">
<title>Node1&#45;&gt;Node11</title>
<g id="a_edge10_Node000001_Node000011"><a xlink:title=" ">
<path fill="none" stroke="#63b8ff" d="M171.5,-109.75C171.5,-102.8 171.5,-92.85 171.5,-84.13"/>
<polygon fill="#63b8ff" stroke="#63b8ff" points="175,-84.09 171.5,-74.09 168,-84.09 175,-84.09"/>
</a>
</g>
</g>
<!-- Node6 -->
<g id="Node000006" class="node">
<title>Node6</title>
<g id="a_Node000006"><a xlink:title=" ">
<polygon fill="#e0e0e0" stroke="#999999" points="347,-19 294,-19 294,0 347,0 347,-19"/>
<text text-anchor="middle" x="320.5" y="-7" font-family="Helvetica,sans-Serif" font-size="10.00">stdint.h</text>
</a>
</g>
</g>
<!-- Node5&#45;&gt;Node6 -->
<g id="edge5_Node000005_Node000006" class="edge">
<title>Node5&#45;&gt;Node6</title>
<g id="a_edge5_Node000005_Node000006"><a xlink:title=" ">
<path fill="none" stroke="#63b8ff" d="M320.5,-54.75C320.5,-47.8 320.5,-37.85 320.5,-29.13"/>
<polygon fill="#63b8ff" stroke="#63b8ff" points="324,-29.09 320.5,-19.09 317,-29.09 324,-29.09"/>
</a>
</g>
</g>
<!-- Node7 -->
<g id="Node000007" class="node">
<title>Node7</title>
<g id="a_Node000007"><a xlink:title=" ">
<polygon fill="#e0e0e0" stroke="#999999" points="415.5,-19 365.5,-19 365.5,0 415.5,0 415.5,-19"/>
<text text-anchor="middle" x="390.5" y="-7" font-family="Helvetica,sans-Serif" font-size="10.00">stdio.h</text>
</a>
</g>
</g>
<!-- Node5&#45;&gt;Node7 -->
<g id="edge6_Node000005_Node000007" class="edge">
<title>Node5&#45;&gt;Node7</title>
<g id="a_edge6_Node000005_Node000007"><a xlink:title=" ">
<path fill="none" stroke="#63b8ff" d="M331.75,-54.98C342.3,-47 358.3,-34.88 370.94,-25.31"/>
<polygon fill="#63b8ff" stroke="#63b8ff" points="373.19,-28 379.05,-19.17 368.96,-22.42 373.19,-28"/>
</a>
</g>
</g>
<!-- Node8 -->
<g id="Node000008" class="node">
<title>Node8</title>
<g id="a_Node000008"><a xlink:title=" ">
<polygon fill="#e0e0e0" stroke="#999999" points="487,-19 434,-19 434,0 487,0 487,-19"/>
<text text-anchor="middle" x="460.5" y="-7" font-family="Helvetica,sans-Serif" font-size="10.00">stdlib.h</text>
</a>
</g>
</g>
<!-- Node5&#45;&gt;Node8 -->
<g id="edge7_Node000005_Node000008" class="edge">
<title>Node5&#45;&gt;Node8</title>
<g id="a_edge7_Node000005_Node000008"><a xlink:title=" ">
<path fill="none" stroke="#63b8ff" d="M342.99,-54.98C366.02,-46.27 402.04,-32.63 428.13,-22.75"/>
<polygon fill="#63b8ff" stroke="#63b8ff" points="429.48,-25.98 437.6,-19.17 427.01,-19.44 429.48,-25.98"/>
</a>
</g>
</g>
<!-- Node9 -->
<g id="Node000009" class="node">
<title>Node9</title>
<g id="a_Node000009"><a xlink:title=" ">
<polygon fill="#e0e0e0" stroke="#999999" points="276,-19 223,-19 223,0 276,0 276,-19"/>
<text text-anchor="middle" x="249.5" y="-7" font-family="Helvetica,sans-Serif" font-size="10.00">string.h</text>
</a>
</g>
</g>
<!-- Node5&#45;&gt;Node9 -->
<g id="edge8_Node000005_Node000009" class="edge">
<title>Node5&#45;&gt;Node9</title>
<g id="a_edge8_Node000005_Node000009"><a xlink:title=" ">
<path fill="none" stroke="#63b8ff" d="M309.09,-54.98C298.39,-47 282.16,-34.88 269.34,-25.31"/>
<polygon fill="#63b8ff" stroke="#63b8ff" points="271.22,-22.35 261.11,-19.17 267.03,-27.96 271.22,-22.35"/>
</a>
</g>
</g>
<!-- Node10 -->
<g id="Node000010" class="node">
<title>Node10</title>
<g id="a_Node000010"><a xlink:title=" ">
<polygon fill="#e0e0e0" stroke="#999999" points="553.5,-19 505.5,-19 505.5,0 553.5,0 553.5,-19"/>
<text text-anchor="middle" x="529.5" y="-7" font-family="Helvetica,sans-Serif" font-size="10.00">time.h</text>
</a>
</g>
</g>
<!-- Node5&#45;&gt;Node10 -->
<g id="edge9_Node000005_Node000010" class="edge">
<title>Node5&#45;&gt;Node10</title>
<g id="a_edge9_Node000005_Node000010"><a xlink:title=" ">
<path fill="none" stroke="#63b8ff" d="M351.67,-55.66C384.93,-47.29 439.43,-33.55 495.59,-19.22"/>
<polygon fill="#63b8ff" stroke="#63b8ff" points="496.53,-22.6 505.35,-16.73 494.8,-15.81 496.53,-22.6"/>
</a>
</g>
</g>
<!-- Node11&#45;&gt;Node2 -->
<g id="edge11_Node000011_Node000002" class="edge">
<title>Node11&#45;&gt;Node2</title>
<g id="a_edge11_Node000011_Node000002"><a xlink:title=" ">
<path fill="none" stroke="#63b8ff" d="M148.2,-54.98C124.25,-46.23 86.72,-32.51 59.67,-22.62"/>
<polygon fill="#63b8ff" stroke="#63b8ff" points="60.81,-19.32 50.22,-19.17 58.41,-25.89 60.81,-19.32"/>
</a>
</g>
</g>
<!-- Node11&#45;&gt;Node4 -->
<g id="edge12_Node000011_Node000004" class="edge">
<title>Node11&#45;&gt;Node4</title>
<g id="a_edge12_Node000011_Node000004"><a xlink:title=" ">
<path fill="none" stroke="#63b8ff" d="M159.93,-54.98C149.08,-47 132.62,-34.88 119.62,-25.31"/>
<polygon fill="#63b8ff" stroke="#63b8ff" points="121.41,-22.28 111.28,-19.17 117.26,-27.92 121.41,-22.28"/>
</a>
</g>
</g>
<!-- Node11&#45;&gt;Node9 -->
<g id="edge13_Node000011_Node000009" class="edge">
<title>Node11&#45;&gt;Node9</title>
<g id="a_edge13_Node000011_Node000009"><a xlink:title=" ">
<path fill="none" stroke="#63b8ff" d="M184.03,-54.98C195.9,-46.92 213.96,-34.65 228.11,-25.03"/>
<polygon fill="#63b8ff" stroke="#63b8ff" points="230.44,-27.69 236.74,-19.17 226.5,-21.9 230.44,-27.69"/>
</a>
</g>
</g>
<!-- Node12 -->
<g id="Node000012" class="node">
<title>Node12</title>
<g id="a_Node000012"><a xlink:title=" ">
<polygon fill="#e0e0e0" stroke="#999999" points="205,-19 146,-19 146,0 205,0 205,-19"/>
<text text-anchor="middle" x="175.5" y="-7" font-family="Helvetica,sans-Serif" font-size="10.00">strings.h</text>
</a>
</g>
</g>
<!-- Node11&#45;&gt;Node12 -->
<g id="edge14_Node000011_Node000012" class="edge">
<title>Node11&#45;&gt;Node12</title>
<g id="a_edge14_Node000011_Node000012"><a xlink:title=" ">
<path fill="none" stroke="#63b8ff" d="M172.16,-54.75C172.68,-47.8 173.44,-37.85 174.09,-29.13"/>
<polygon fill="#63b8ff" stroke="#63b8ff" points="177.59,-29.32 174.85,-19.09 170.61,-28.8 177.59,-29.32"/>
</a>
</g>
</g>
</g>
</svg>

<g id="navigator" transform="translate(0 0)" fill="#404254">
  <rect fill="#f2f5e9" fill-opacity="0.5" stroke="#606060" stroke-width=".5" x="0" y="0" width="60" height="60"/>
  <use id="zoomplus" xlink:href="#zoomPlus" x="17" y="9" onmousedown="handleZoom(evt,'in')"/>
  <use id="zoomminus" xlink:href="#zoomMin" x="42" y="9" onmousedown="handleZoom(evt,'out')"/>
  <use id="reset" xlink:href="#resetDef" x="30" y="36" onmousedown="handleReset()"/>
   <use id="arrowup" xlink:href="#arrowUp" x="0" y="0" onmousedown="handlePan(0,-1)"/>
  <use id="arrowright" xlink:href="#arrowRight" x="0" y="0" onmousedown="handlePan(1,0)"/>
  <use id="arrowdown" xlink:href="#arrowDown" x="0" y="0" onmousedown="handlePan(0,1)"/>
  <use id="arrowleft" xlink:href="#arrowLeft" x="0" y="0" onmousedown="handlePan(-1,0)"/>
</g>
<svg viewBox="0 0 15 15" width="100%" height="30px" preserveAspectRatio="xMaxYMin meet">
 <g id="arrow_out" transform="scale(0.3 0.3)">
  <a xlink:href="cstr_8h__incl_org.svg" target="_base">
   <rect id="button" ry="5" rx="5" y="6" x="6" height="38" width="38"
        fill="#f2f5e9" fill-opacity="0.5" stroke="#606060" stroke-width="1.0"/>
   <path id="arrow"
     d="M 11.500037,31.436501 C 11.940474,20.09759 22.043105,11.32322 32.158766,21.979434 L 37.068811,17.246167 C 37.068811,17.246167 37.088388,32 37.088388,32 L 22.160133,31.978069 C 22.160133,31.978069 26.997745,27.140456 26.997745,27.140456 C 18.528582,18.264221 13.291696,25.230495 11.500037,31.436501 z"
     style="fill:#404040;"/>
  </a>
 </g>
</svg>

<style type='text/css'>
<![CDATA[
[data-mouse-over-selected='false'] { opacity: 0.7; }
[data-mouse-over-selected='true']  { opacity: 1.0; }
]]>
</style>
<script type="application/ecmascript"><![CDATA[
document.addEventListener('DOMContentLoaded', (event) => {
  highlightEdges();
  highlightAdjacentNodes();
});
]]></script>
</svg>
