<?xml version="1.0" encoding="UTF-8" standalone="no"?>
<!DOCTYPE svg PUBLIC "-//W3C//DTD SVG 1.1//EN"
 "http://www.w3.org/Graphics/SVG/1.1/DTD/svg11.dtd">
<!-- Generated by graphviz version 2.43.0 (0)
 -->
<!-- Title: src/cstr.c Pages: 1 -->
<svg width="580pt" height="192pt"
 viewBox="0.00 0.00 580.17 192.00" xmlns="http://www.w3.org/2000/svg" xmlns:xlink="http://www.w3.org/1999/xlink">
<g id="graph0" class="graph" transform="scale(1 1) rotate(0) translate(4 188)">
<title>src/cstr.c</title>
<!-- Node1 -->
<g id="Node000001" class="node">
<title>Node1</title>
<g id="a_Node000001"><a xlink:title="Implementation of high&#45;performance C string with SSO.">
<polygon fill="#999999" stroke="#666666" points="371.67,-184 312.67,-184 312.67,-165 371.67,-165 371.67,-184"/>
<text text-anchor="middle" x="342.17" y="-172" font-family="Helvetica,sans-Serif" font-size="10.00">src/cstr.c</text>
</a>
</g>
</g>
<!-- Node2 -->
<g id="Node000002" class="node">
<title>Node2</title>
<g id="a_Node000002"><a xlink:href="cstr_8h.html" target="_top" xlink:title="High&#45;performance C string with Small String Optimization (SSO).">
<polygon fill="white" stroke="#666666" points="181.67,-129 138.67,-129 138.67,-110 181.67,-110 181.67,-129"/>
<text text-anchor="middle" x="160.17" y="-117" font-family="Helvetica,sans-Serif" font-size="10.00">cstr.h</text>
</a>
</g>
</g>
<!-- Node1&#45;&gt;Node2 -->
<g id="edge1_Node000001_Node000002" class="edge">
<title>Node1&#45;&gt;Node2</title>
<g id="a_edge1_Node000001_Node000002"><a xlink:title=" ">
<path fill="none" stroke="#63b8ff" d="M312.93,-164.98C279.78,-155.33 225.94,-139.65 191.82,-129.72"/>
<polygon fill="#63b8ff" stroke="#63b8ff" points="192.5,-126.27 181.92,-126.83 190.54,-132.99 192.5,-126.27"/>
</a>
</g>
</g>
<!-- Node6 -->
<g id="Node000006" class="node">
<title>Node6</title>
<g id="a_Node000006"><a xlink:title=" ">
<polygon fill="#e0e0e0" stroke="#999999" points="54.67,-19 1.67,-19 1.67,0 54.67,0 54.67,-19"/>
<text text-anchor="middle" x="28.17" y="-7" font-family="Helvetica,sans-Serif" font-size="10.00">string.h</text>
</a>
</g>
</g>
<!-- Node1&#45;&gt;Node6 -->
<g id="edge18_Node000001_Node000006" class="edge">
<title>Node1&#45;&gt;Node6</title>
<g id="a_edge18_Node000001_Node000006"><a xlink:title=" ">
<path fill="none" stroke="#63b8ff" d="M312.47,-169.63C236.48,-159.04 38.6,-126.77 4.17,-74 -5.34,-59.43 4.11,-40.54 13.8,-27.16"/>
<polygon fill="#63b8ff" stroke="#63b8ff" points="16.58,-29.29 20.02,-19.27 11.08,-24.96 16.58,-29.29"/>
</a>
</g>
</g>
<!-- Node8 -->
<g id="Node000008" class="node">
<title>Node8</title>
<g id="a_Node000008"><a xlink:title=" ">
<polygon fill="#e0e0e0" stroke="#999999" points="335.17,-19 285.17,-19 285.17,0 335.17,0 335.17,-19"/>
<text text-anchor="middle" x="310.17" y="-7" font-family="Helvetica,sans-Serif" font-size="10.00">stdio.h</text>
</a>
</g>
</g>
<!-- Node1&#45;&gt;Node8 -->
<g id="edge16_Node000001_Node000008" class="edge">
<title>Node1&#45;&gt;Node8</title>
<g id="a_edge16_Node000001_Node000008"><a xlink:title=" ">
<path fill="none" stroke="#63b8ff" d="M338.98,-164.75C335.83,-155.85 331.1,-141.62 328.17,-129 320.09,-94.16 314.75,-52.69 312.11,-29.19"/>
<polygon fill="#63b8ff" stroke="#63b8ff" points="315.58,-28.78 311.03,-19.21 308.62,-29.53 315.58,-28.78"/>
</a>
</g>
</g>
<!-- Node9 -->
<g id="Node000009" class="node">
<title>Node9</title>
<g id="a_Node000009"><a xlink:title=" ">
<polygon fill="#e0e0e0" stroke="#999999" points="406.67,-19 353.67,-19 353.67,0 406.67,0 406.67,-19"/>
<text text-anchor="middle" x="380.17" y="-7" font-family="Helvetica,sans-Serif" font-size="10.00">stdlib.h</text>
</a>
</g>
</g>
<!-- Node1&#45;&gt;Node9 -->
<g id="edge17_Node000001_Node000009" class="edge">
<title>Node1&#45;&gt;Node9</title>
<g id="a_edge17_Node000001_Node000009"><a xlink:title=" ">
<path fill="none" stroke="#63b8ff" d="M344.21,-164.74C350.17,-139.2 367.6,-64.43 375.8,-29.23"/>
<polygon fill="#63b8ff" stroke="#63b8ff" points="379.26,-29.84 378.12,-19.31 372.44,-28.25 379.26,-29.84"/>
</a>
</g>
</g>
<!-- Node11 -->
<g id="Node000011" class="node">
<title>Node11</title>
<g id="a_Node000011"><a xlink:title=" ">
<polygon fill="#e0e0e0" stroke="#999999" points="426.17,-129 370.17,-129 370.17,-110 426.17,-110 426.17,-129"/>
<text text-anchor="middle" x="398.17" y="-117" font-family="Helvetica,sans-Serif" font-size="10.00">assert.h</text>
</a>
</g>
</g>
<!-- Node1&#45;&gt;Node11 -->
<g id="edge13_Node000001_Node000011" class="edge">
<title>Node1&#45;&gt;Node11</title>
<g id="a_edge13_Node000001_Node000011"><a xlink:title=" ">
<path fill="none" stroke="#63b8ff" d="M351.17,-164.98C359.37,-157.23 371.68,-145.58 381.64,-136.14"/>
<polygon fill="#63b8ff" stroke="#63b8ff" points="384.15,-138.59 389.01,-129.17 379.34,-133.5 384.15,-138.59"/>
</a>
</g>
</g>
<!-- Node12 -->
<g id="Node000012" class="node">
<title>Node12</title>
<g id="a_Node000012"><a xlink:title=" ">
<polygon fill="#e0e0e0" stroke="#999999" points="497.67,-129 444.67,-129 444.67,-110 497.67,-110 497.67,-129"/>
<text text-anchor="middle" x="471.17" y="-117" font-family="Helvetica,sans-Serif" font-size="10.00">ctype.h</text>
</a>
</g>
</g>
<!-- Node1&#45;&gt;Node12 -->
<g id="edge14_Node000001_Node000012" class="edge">
<title>Node1&#45;&gt;Node12</title>
<g id="a_edge14_Node000001_Node000012"><a xlink:title=" ">
<path fill="none" stroke="#63b8ff" d="M362.9,-164.98C383.93,-156.34 416.72,-142.87 440.71,-133.02"/>
<polygon fill="#63b8ff" stroke="#63b8ff" points="442.15,-136.21 450.07,-129.17 439.49,-129.73 442.15,-136.21"/>
</a>
</g>
</g>
<!-- Node13 -->
<g id="Node000013" class="node">
<title>Node13</title>
<g id="a_Node000013"><a xlink:title=" ">
<polygon fill="#e0e0e0" stroke="#999999" points="572.17,-129 516.17,-129 516.17,-110 572.17,-110 572.17,-129"/>
<text text-anchor="middle" x="544.17" y="-117" font-family="Helvetica,sans-Serif" font-size="10.00">stdarg.h</text>
</a>
</g>
</g>
<!-- Node1&#45;&gt;Node13 -->
<g id="edge15_Node000001_Node000013" class="edge">
<title>Node1&#45;&gt;Node13</title>
<g id="a_edge15_Node000001_Node000013"><a xlink:title=" ">
<path fill="none" stroke="#63b8ff" d="M371.98,-165.68C407.54,-156.35 467.06,-140.73 505.97,-130.52"/>
<polygon fill="#63b8ff" stroke="#63b8ff" points="507.09,-133.85 515.87,-127.92 505.31,-127.08 507.09,-133.85"/>
</a>
</g>
</g>
<!-- Node3 -->
<g id="Node000003" class="node">
<title>Node3</title>
<g id="a_Node000003"><a xlink:title=" ">
<polygon fill="#e0e0e0" stroke="#999999" points="75.17,-74 13.17,-74 13.17,-55 75.17,-55 75.17,-74"/>
<text text-anchor="middle" x="44.17" y="-62" font-family="Helvetica,sans-Serif" font-size="10.00">stdbool.h</text>
</a>
</g>
</g>
<!-- Node2&#45;&gt;Node3 -->
<g id="edge2_Node000002_Node000003" class="edge">
<title>Node2&#45;&gt;Node3</title>
<g id="a_edge2_Node000002_Node000003"><a xlink:title=" ">
<path fill="none" stroke="#63b8ff" d="M141.53,-109.98C122.87,-101.46 93.92,-88.23 72.43,-78.41"/>
<polygon fill="#63b8ff" stroke="#63b8ff" points="73.7,-75.14 63.15,-74.17 70.79,-81.51 73.7,-75.14"/>
</a>
</g>
</g>
<!-- Node4 -->
<g id="Node000004" class="node">
<title>Node4</title>
<g id="a_Node000004"><a xlink:title=" ">
<polygon fill="#e0e0e0" stroke="#999999" points="129.17,-19 73.17,-19 73.17,0 129.17,0 129.17,-19"/>
<text text-anchor="middle" x="101.17" y="-7" font-family="Helvetica,sans-Serif" font-size="10.00">stddef.h</text>
</a>
</g>
</g>
<!-- Node2&#45;&gt;Node4 -->
<g id="edge3_Node000002_Node000004" class="edge">
<title>Node2&#45;&gt;Node4</title>
<g id="a_edge3_Node000002_Node000004"><a xlink:title=" ">
<path fill="none" stroke="#63b8ff" d="M155.34,-109.66C145.61,-91.85 123.5,-51.37 110.73,-28.01"/>
<polygon fill="#63b8ff" stroke="#63b8ff" points="113.77,-26.26 105.9,-19.16 107.62,-29.61 113.77,-26.26"/>
</a>
</g>
</g>
<!-- Node5 -->
<g id="Node000005" class="node">
<title>Node5</title>
<g id="a_Node000005"><a xlink:title=" ">
<polygon fill="#e0e0e0" stroke="#999999" points="200.67,-19 147.67,-19 147.67,0 200.67,0 200.67,-19"/>
<text text-anchor="middle" x="174.17" y="-7" font-family="Helvetica,sans-Serif" font-size="10.00">stdint.h</text>
</a>
</g>
</g>
<!-- Node2&#45;&gt;Node5 -->
<g id="edge4_Node000002_Node000005" class="edge">
<title>Node2&#45;&gt;Node5</title>
<g id="a_edge4_Node000002_Node000005"><a xlink:title=" ">
<path fill="none" stroke="#63b8ff" d="M161.32,-109.66C163.58,-92.17 168.69,-52.8 171.74,-29.27"/>
<polygon fill="#63b8ff" stroke="#63b8ff" points="175.23,-29.53 173.05,-19.16 168.29,-28.63 175.23,-29.53"/>
</a>
</g>
</g>
<!-- Node2&#45;&gt;Node6 -->
<g id="edge5_Node000002_Node000006" class="edge">
<title>Node2&#45;&gt;Node6</title>
<g id="a_edge5_Node000002_Node000006"><a xlink:title=" ">
<path fill="none" stroke="#63b8ff" d="M149.91,-109.79C135.37,-97.48 107.9,-74.33 84.17,-55 72.02,-45.1 58.23,-34.14 47.38,-25.57"/>
<polygon fill="#63b8ff" stroke="#63b8ff" points="49.41,-22.72 39.39,-19.29 45.08,-28.22 49.41,-22.72"/>
</a>
</g>
</g>
<!-- Node7 -->
<g id="Node000007" class="node">
<title>Node7</title>
<g id="a_Node000007"><a xlink:href="macros_8h.html" target="_top" xlink:title="Portable utility macros for assertions, memory, math, iteration, timing, and platform compatibility.">
<polygon fill="white" stroke="#666666" points="269.17,-74 207.17,-74 207.17,-55 269.17,-55 269.17,-74"/>
<text text-anchor="middle" x="238.17" y="-62" font-family="Helvetica,sans-Serif" font-size="10.00">macros.h</text>
</a>
</g>
</g>
<!-- Node2&#45;&gt;Node7 -->
<g id="edge6_Node000002_Node000007" class="edge">
<title>Node2&#45;&gt;Node7</title>
<g id="a_edge6_Node000002_Node000007"><a xlink:title=" ">
<path fill="none" stroke="#63b8ff" d="M172.7,-109.98C184.57,-101.92 202.64,-89.65 216.78,-80.03"/>
<polygon fill="#63b8ff" stroke="#63b8ff" points="219.11,-82.69 225.41,-74.17 215.17,-76.9 219.11,-82.69"/>
</a>
</g>
</g>
<!-- Node7&#45;&gt;Node4 -->
<g id="edge7_Node000007_Node000004" class="edge">
<title>Node7&#45;&gt;Node4</title>
<g id="a_edge7_Node000007_Node000004"><a xlink:title=" ">
<path fill="none" stroke="#63b8ff" d="M216.16,-54.98C193.72,-46.3 158.69,-32.75 133.18,-22.88"/>
<polygon fill="#63b8ff" stroke="#63b8ff" points="134.17,-19.51 123.58,-19.17 131.65,-26.04 134.17,-19.51"/>
</a>
</g>
</g>
<!-- Node7&#45;&gt;Node5 -->
<g id="edge8_Node000007_Node000005" class="edge">
<title>Node7&#45;&gt;Node5</title>
<g id="a_edge8_Node000007_Node000005"><a xlink:title=" ">
<path fill="none" stroke="#63b8ff" d="M227.89,-54.98C218.33,-47.07 203.89,-35.11 192.39,-25.58"/>
<polygon fill="#63b8ff" stroke="#63b8ff" points="194.57,-22.85 184.64,-19.17 190.11,-28.24 194.57,-22.85"/>
</a>
</g>
</g>
<!-- Node7&#45;&gt;Node6 -->
<g id="edge11_Node000007_Node000006" class="edge">
<title>Node7&#45;&gt;Node6</title>
<g id="a_edge11_Node000007_Node000006"><a xlink:title=" ">
<path fill="none" stroke="#63b8ff" d="M206.73,-55.57C168.73,-45.98 104.91,-29.87 64.74,-19.73"/>
<polygon fill="#63b8ff" stroke="#63b8ff" points="65.38,-16.28 54.82,-17.23 63.66,-23.07 65.38,-16.28"/>
</a>
</g>
</g>
<!-- Node7&#45;&gt;Node8 -->
<g id="edge9_Node000007_Node000008" class="edge">
<title>Node7&#45;&gt;Node8</title>
<g id="a_edge9_Node000007_Node000008"><a xlink:title=" ">
<path fill="none" stroke="#63b8ff" d="M249.74,-54.98C260.59,-47 277.05,-34.88 290.05,-25.31"/>
<polygon fill="#63b8ff" stroke="#63b8ff" points="292.41,-27.92 298.39,-19.17 288.26,-22.28 292.41,-27.92"/>
</a>
</g>
</g>
<!-- Node7&#45;&gt;Node9 -->
<g id="edge10_Node000007_Node000009" class="edge">
<title>Node7&#45;&gt;Node9</title>
<g id="a_edge10_Node000007_Node000009"><a xlink:title=" ">
<path fill="none" stroke="#63b8ff" d="M260.99,-54.98C284.34,-46.27 320.88,-32.63 347.34,-22.75"/>
<polygon fill="#63b8ff" stroke="#63b8ff" points="348.8,-25.95 356.94,-19.17 346.35,-19.39 348.8,-25.95"/>
</a>
</g>
</g>
<!-- Node10 -->
<g id="Node000010" class="node">
<title>Node10</title>
<g id="a_Node000010"><a xlink:title=" ">
<polygon fill="#e0e0e0" stroke="#999999" points="267.17,-19 219.17,-19 219.17,0 267.17,0 267.17,-19"/>
<text text-anchor="middle" x="243.17" y="-7" font-family="Helvetica,sans-Serif" font-size="10.00">time.h</text>
</a>
</g>
</g>
<!-- Node7&#45;&gt;Node10 -->
<g id="edge12_Node000007_Node000010" class="edge">
<title>Node7&#45;&gt;Node10</title>
<g id="a_edge12_Node000007_Node000010"><a xlink:title=" ">
<path fill="none" stroke="#63b8ff" d="M239,-54.75C239.65,-47.8 240.59,-37.85 241.41,-29.13"/>
<polygon fill="#63b8ff" stroke="#63b8ff" points="244.91,-29.37 242.36,-19.09 237.94,-28.72 244.91,-29.37"/>
</a>
</g>
</g>
</g>
</svg>
