<?xml version="1.0" encoding="UTF-8" standalone="no"?>
<!DOCTYPE svg PUBLIC "-//W3C//DTD SVG 1.1//EN"
 "http://www.w3.org/Graphics/SVG/1.1/DTD/svg11.dtd">
<!-- Generated by graphviz version 2.43.0 (0)
 -->
<!-- Title: cstr_split Pages: 1 -->
<svg width="257pt" height="139pt"
 viewBox="0.00 0.00 257.00 139.00" xmlns="http://www.w3.org/2000/svg" xmlns:xlink="http://www.w3.org/1999/xlink">
<g id="graph0" class="graph" transform="scale(1 1) rotate(0) translate(4 135)">
<title>cstr_split</title>
<!-- Node1 -->
<g id="Node000001" class="node">
<title>Node1</title>
<g id="a_Node000001"><a xlink:title="Splits the cstr into substrings based on a delimiter.">
<polygon fill="#999999" stroke="#666666" points="61,-75 0,-75 0,-56 61,-56 61,-75"/>
<text text-anchor="middle" x="30.5" y="-63" font-family="Helvetica,sans-Serif" font-size="10.00">cstr_split</text>
</a>
</g>
</g>
<!-- Node1&#45;&gt;Node1 -->
<g id="edge8_Node000001_Node000001" class="edge">
<title>Node1&#45;&gt;Node1</title>
<g id="a_edge8_Node000001_Node000001"><a xlink:title=" ">
<path fill="none" stroke="#63b8ff" d="M15.7,-75.08C8.51,-83.73 13.44,-93 30.5,-93 40.9,-93 46.79,-89.56 48.18,-84.91"/>
<polygon fill="#63b8ff" stroke="#63b8ff" points="51.47,-83.69 45.3,-75.08 44.75,-85.66 51.47,-83.69"/>
</a>
</g>
</g>
<!-- Node2 -->
<g id="Node000002" class="node">
<title>Node2</title>
<g id="a_Node000002"><a xlink:href="cstr_8c.html#ac0035d2d1ada61ea0e7b9bf077885ac0" target="_top" xlink:title="Frees a cstr and all associated memory.">
<polygon fill="white" stroke="#666666" points="156.5,-113 97.5,-113 97.5,-94 156.5,-94 156.5,-113"/>
<text text-anchor="middle" x="127" y="-101" font-family="Helvetica,sans-Serif" font-size="10.00">cstr_free</text>
</a>
</g>
</g>
<!-- Node1&#45;&gt;Node2 -->
<g id="edge1_Node000001_Node000002" class="edge">
<title>Node1&#45;&gt;Node2</title>
<g id="a_edge1_Node000001_Node000002"><a xlink:title=" ">
<path fill="none" stroke="#63b8ff" d="M55.35,-75.09C66.65,-79.63 80.34,-85.14 92.66,-90.09"/>
<polygon fill="#63b8ff" stroke="#63b8ff" points="91.58,-93.43 102.16,-93.91 94.19,-86.94 91.58,-93.43"/>
</a>
</g>
</g>
<!-- Node3 -->
<g id="Node000003" class="node">
<title>Node3</title>
<g id="a_Node000003"><a xlink:href="cstr_8c.html#addbb5ac6b50949c8b4ef489563117300" target="_top" xlink:title="Creates a new empty cstr with specified initial capacity.">
<polygon fill="white" stroke="#666666" points="249,-47 193,-47 193,-28 249,-28 249,-47"/>
<text text-anchor="middle" x="221" y="-35" font-family="Helvetica,sans-Serif" font-size="10.00">cstr_init</text>
</a>
</g>
</g>
<!-- Node1&#45;&gt;Node3 -->
<g id="edge3_Node000001_Node000003" class="edge">
<title>Node1&#45;&gt;Node3</title>
<g id="a_edge3_Node000001_Node000003"><a xlink:title=" ">
<path fill="none" stroke="#63b8ff" d="M61.37,-61.06C94.25,-56.18 147.16,-48.32 182.73,-43.04"/>
<polygon fill="#63b8ff" stroke="#63b8ff" points="183.34,-46.48 192.72,-41.55 182.31,-39.56 183.34,-46.48"/>
</a>
</g>
</g>
<!-- Node4 -->
<g id="Node000004" class="node">
<title>Node4</title>
<g id="a_Node000004"><a xlink:href="cstr_8c.html#a7effe7536a6058739d5d43a601e9f857" target="_top" xlink:title="Creates a new cstr from a C string.">
<polygon fill="white" stroke="#666666" points="157,-19 97,-19 97,0 157,0 157,-19"/>
<text text-anchor="middle" x="127" y="-7" font-family="Helvetica,sans-Serif" font-size="10.00">cstr_new</text>
</a>
</g>
</g>
<!-- Node1&#45;&gt;Node4 -->
<g id="edge5_Node000001_Node000004" class="edge">
<title>Node1&#45;&gt;Node4</title>
<g id="a_edge5_Node000001_Node000004"><a xlink:title=" ">
<path fill="none" stroke="#63b8ff" d="M47.96,-55.75C62.6,-47.07 84.21,-34.26 100.98,-24.32"/>
<polygon fill="#63b8ff" stroke="#63b8ff" points="102.91,-27.25 109.73,-19.14 99.34,-21.23 102.91,-27.25"/>
</a>
</g>
</g>
<!-- Node2&#45;&gt;Node2 -->
<g id="edge2_Node000002_Node000002" class="edge">
<title>Node2&#45;&gt;Node2</title>
<g id="a_edge2_Node000002_Node000002"><a xlink:title=" ">
<path fill="none" stroke="#63b8ff" d="M112.51,-113.08C105.46,-121.73 110.29,-131 127,-131 137.18,-131 142.95,-127.56 144.31,-122.91"/>
<polygon fill="#63b8ff" stroke="#63b8ff" points="147.61,-121.73 141.49,-113.08 140.88,-123.66 147.61,-121.73"/>
</a>
</g>
</g>
<!-- Node3&#45;&gt;Node3 -->
<g id="edge4_Node000003_Node000003" class="edge">
<title>Node3&#45;&gt;Node3</title>
<g id="a_edge4_Node000003_Node000003"><a xlink:title=" ">
<path fill="none" stroke="#63b8ff" d="M206.51,-47.08C199.46,-55.73 204.29,-65 221,-65 231.18,-65 236.95,-61.56 238.31,-56.91"/>
<polygon fill="#63b8ff" stroke="#63b8ff" points="241.61,-55.73 235.49,-47.08 234.88,-57.66 241.61,-55.73"/>
</a>
</g>
</g>
<!-- Node4&#45;&gt;Node3 -->
<g id="edge6_Node000004_Node000003" class="edge">
<title>Node4&#45;&gt;Node3</title>
<g id="a_edge6_Node000004_Node000003"><a xlink:title=" ">
<path fill="none" stroke="#63b8ff" d="M157.11,-18.36C165.45,-20.9 174.65,-23.7 183.37,-26.35"/>
<polygon fill="#63b8ff" stroke="#63b8ff" points="182.37,-29.71 192.96,-29.27 184.41,-23.01 182.37,-29.71"/>
</a>
</g>
</g>
<!-- Node4&#45;&gt;Node4 -->
<g id="edge7_Node000004_Node000004" class="edge">
<title>Node4&#45;&gt;Node4</title>
<g id="a_edge7_Node000004_Node000004"><a xlink:title=" ">
<path fill="none" stroke="#63b8ff" d="M112.51,-19.08C105.46,-27.73 110.29,-37 127,-37 137.18,-37 142.95,-33.56 144.31,-28.91"/>
<polygon fill="#63b8ff" stroke="#63b8ff" points="147.61,-27.73 141.49,-19.08 140.88,-29.66 147.61,-27.73"/>
</a>
</g>
</g>
</g>
</svg>
