<?xml version="1.0" encoding="UTF-8" standalone="no"?>
<!DOCTYPE svg PUBLIC "-//W3C//DTD SVG 1.1//EN"
 "http://www.w3.org/Graphics/SVG/1.1/DTD/svg11.dtd">
<!-- Generated by graphviz version 2.43.0 (0)
 -->
<!-- Title: cstr_is_heap Pages: 1 -->
<svg width="221pt" height="212pt"
 viewBox="0.00 0.00 221.00 212.00" xmlns="http://www.w3.org/2000/svg" xmlns:xlink="http://www.w3.org/1999/xlink">

<svg id="main" version="1.1" xmlns="http://www.w3.org/2000/svg" xmlns:xlink="http://www.w3.org/1999/xlink" xml:space="preserve" onload="init(evt)">
<style type="text/css"><![CDATA[
.node, .edge {opacity: 0.7;}
.node.selected, .edge.selected {opacity: 1;}
.edge:hover path { stroke: red; }
.edge:hover polygon { stroke: red; fill: red; }
]]></style>
<script type="application/ecmascript" xlink:href="svg.min.js"/>
<svg id="graph" class="graph">
<g id="graph0" class="graph" transform="scale(1 1) rotate(0) translate(4 208)">
<title>cstr_is_heap</title>
<!-- Node1 -->
<g id="Node000001" class="node">
<title>Node1</title>
<g id="a_Node000001"><a xlink:title=" ">
<polygon fill="#999999" stroke="#666666" points="213,-111 136,-111 136,-92 213,-92 213,-111"/>
<text text-anchor="middle" x="174.5" y="-99" font-family="Helvetica,sans-Serif" font-size="10.00">cstr_is_heap</text>
</a>
</g>
</g>
<!-- Node2 -->
<g id="Node000002" class="node">
<title>Node2</title>
<g id="a_Node000002"><a xlink:href="cstr_8h.html#acb52762bd703d1b224e79ad5c4f8da8a" target="_top" xlink:title=" ">
<polygon fill="white" stroke="#666666" points="92.5,-204 7.5,-204 7.5,-185 92.5,-185 92.5,-204"/>
<text text-anchor="middle" x="50" y="-192" font-family="Helvetica,sans-Serif" font-size="10.00">cstr_allocated</text>
</a>
</g>
</g>
<!-- Node1&#45;&gt;Node2 -->
<g id="edge1_Node000001_Node000002" class="edge">
<title>Node1&#45;&gt;Node2</title>
<g id="a_edge1_Node000001_Node000002"><a xlink:title=" ">
<path fill="none" stroke="#63b8ff" d="M160.17,-119.06C146.63,-135.84 124.25,-160.83 100,-176.5 94.9,-179.8 89.11,-182.6 83.35,-184.94"/>
<polygon fill="#63b8ff" stroke="#63b8ff" points="162.98,-121.15 166.41,-111.13 157.47,-116.82 162.98,-121.15"/>
</a>
</g>
</g>
<!-- Node3 -->
<g id="Node000003" class="node">
<title>Node3</title>
<g id="a_Node000003"><a xlink:href="cstr_8h.html#aaee799b13da4e7fc4a2cc10db9775f0b" target="_top" xlink:title="Current storage capacity (bytes available before reallocation). For SSO strings this is CSTR_SSO_CAP ...">
<polygon fill="white" stroke="#666666" points="90.5,-167 9.5,-167 9.5,-148 90.5,-148 90.5,-167"/>
<text text-anchor="middle" x="50" y="-155" font-family="Helvetica,sans-Serif" font-size="10.00">cstr_capacity</text>
</a>
</g>
</g>
<!-- Node1&#45;&gt;Node3 -->
<g id="edge2_Node000001_Node000003" class="edge">
<title>Node1&#45;&gt;Node3</title>
<g id="a_edge2_Node000001_Node000003"><a xlink:title=" ">
<path fill="none" stroke="#63b8ff" d="M147.59,-115.91C133.68,-123.38 116.13,-132.4 100,-139.5 93.28,-142.46 85.91,-145.34 78.97,-147.91"/>
<polygon fill="#63b8ff" stroke="#63b8ff" points="149.45,-118.88 156.57,-111.02 146.11,-112.73 149.45,-118.88"/>
</a>
</g>
</g>
<!-- Node4 -->
<g id="Node000004" class="node">
<title>Node4</title>
<g id="a_Node000004"><a xlink:href="cstr_8c.html#a502782ea6c7a22c7032b34526b3b6e29" target="_top" xlink:title="Print debug information about a cstr to stderr.">
<polygon fill="white" stroke="#666666" points="85,-130 15,-130 15,-111 85,-111 85,-130"/>
<text text-anchor="middle" x="50" y="-118" font-family="Helvetica,sans-Serif" font-size="10.00">cstr_debug</text>
</a>
</g>
</g>
<!-- Node1&#45;&gt;Node4 -->
<g id="edge3_Node000001_Node000004" class="edge">
<title>Node1&#45;&gt;Node4</title>
<g id="a_edge3_Node000001_Node000004"><a xlink:title=" ">
<path fill="none" stroke="#63b8ff" d="M125.62,-108.93C112.09,-111.03 97.64,-113.27 85.09,-115.21"/>
<polygon fill="#63b8ff" stroke="#63b8ff" points="126.4,-112.35 135.75,-107.36 125.33,-105.43 126.4,-112.35"/>
</a>
</g>
</g>
<!-- Node5 -->
<g id="Node000005" class="node">
<title>Node5</title>
<g id="a_Node000005"><a xlink:href="cstr_8c.html#ad783e4a1ef53d26feed9c59cd88b99de" target="_top" xlink:title="Release only the internal heap buffer of an embedded cstr (one created via cstr_init_inplace)....">
<polygon fill="white" stroke="#666666" points="81,-93 19,-93 19,-74 81,-74 81,-93"/>
<text text-anchor="middle" x="50" y="-81" font-family="Helvetica,sans-Serif" font-size="10.00">cstr_drop</text>
</a>
</g>
</g>
<!-- Node1&#45;&gt;Node5 -->
<g id="edge4_Node000001_Node000005" class="edge">
<title>Node1&#45;&gt;Node5</title>
<g id="a_edge4_Node000001_Node000005"><a xlink:title=" ">
<path fill="none" stroke="#63b8ff" d="M125.59,-94.46C110.58,-92.26 94.46,-89.89 81.06,-87.92"/>
<polygon fill="#63b8ff" stroke="#63b8ff" points="125.34,-97.96 135.75,-95.95 126.36,-91.04 125.34,-97.96"/>
</a>
</g>
</g>
<!-- Node6 -->
<g id="Node000006" class="node">
<title>Node6</title>
<g id="a_Node000006"><a xlink:href="cstr_8c.html#ac0035d2d1ada61ea0e7b9bf077885ac0" target="_top" xlink:title="Free a heap&#45;allocated cstr and its storage. Safe to call with NULL.">
<polygon fill="white" stroke="#666666" points="79.5,-56 20.5,-56 20.5,-37 79.5,-37 79.5,-56"/>
<text text-anchor="middle" x="50" y="-44" font-family="Helvetica,sans-Serif" font-size="10.00">cstr_free</text>
</a>
</g>
</g>
<!-- Node1&#45;&gt;Node6 -->
<g id="edge5_Node000001_Node000006" class="edge">
<title>Node1&#45;&gt;Node6</title>
<g id="a_edge5_Node000001_Node000006"><a xlink:title=" ">
<path fill="none" stroke="#63b8ff" d="M145.66,-87.17C132.03,-80.33 115.29,-72.2 100,-65.5 92.56,-62.24 84.37,-58.95 76.85,-56.05"/>
<polygon fill="#63b8ff" stroke="#63b8ff" points="144.47,-90.49 154.98,-91.88 147.63,-84.24 144.47,-90.49"/>
</a>
</g>
</g>
<!-- Node7 -->
<g id="Node000007" class="node">
<title>Node7</title>
<g id="a_Node000007"><a xlink:href="cstr_8c.html#aaaffc7231bda5e82e146df5ad9584b8d" target="_top" xlink:title="Shrink heap allocation to fit the current length (frees wasted memory).">
<polygon fill="white" stroke="#666666" points="100,-19 0,-19 0,0 100,0 100,-19"/>
<text text-anchor="middle" x="50" y="-7" font-family="Helvetica,sans-Serif" font-size="10.00">cstr_shrink_to_fit</text>
</a>
</g>
</g>
<!-- Node1&#45;&gt;Node7 -->
<g id="edge6_Node000001_Node000007" class="edge">
<title>Node1&#45;&gt;Node7</title>
<g id="a_edge6_Node000001_Node000007"><a xlink:title=" ">
<path fill="none" stroke="#63b8ff" d="M159.19,-83.55C145.46,-67.32 123.42,-43.71 100,-28.5 94.34,-24.82 87.85,-21.68 81.5,-19.08"/>
<polygon fill="#63b8ff" stroke="#63b8ff" points="156.85,-86.21 165.91,-91.7 162.25,-81.76 156.85,-86.21"/>
</a>
</g>
</g>
</g>
</svg>
</svg>

<style type='text/css'>
<![CDATA[
[data-mouse-over-selected='false'] { opacity: 0.7; }
[data-mouse-over-selected='true']  { opacity: 1.0; }
]]>
</style>
<script type="application/ecmascript"><![CDATA[
document.addEventListener('DOMContentLoaded', (event) => {
  highlightEdges();
  highlightAdjacentNodes();
});
]]></script>
</svg>
