<?xml version="1.0" encoding="UTF-8" standalone="no"?>
<!DOCTYPE svg PUBLIC "-//W3C//DTD SVG 1.1//EN"
 "http://www.w3.org/Graphics/SVG/1.1/DTD/svg11.dtd">
<!-- Generated by graphviz version 2.43.0 (0)
 -->
<!-- Title: include/cstr.h Pages: 1 -->
<svg width="443pt" height="137pt"
 viewBox="0.00 0.00 443.00 137.00" xmlns="http://www.w3.org/2000/svg" xmlns:xlink="http://www.w3.org/1999/xlink">

<svg id="main" version="1.1" xmlns="http://www.w3.org/2000/svg" xmlns:xlink="http://www.w3.org/1999/xlink" xml:space="preserve" onload="init(evt)">
<style type="text/css"><![CDATA[
.node, .edge {opacity: 0.7;}
.node.selected, .edge.selected {opacity: 1;}
.edge:hover path { stroke: red; }
.edge:hover polygon { stroke: red; fill: red; }
]]></style>
<script type="application/ecmascript" xlink:href="svg.min.js"/>
<svg id="graph" class="graph">
<g id="graph0" class="graph" transform="scale(1 1) rotate(0) translate(4 133)">
<title>include/cstr.h</title>
<!-- Node1 -->
<g id="Node000001" class="node">
<title>Node1</title>
<g id="a_Node000001"><a xlink:title="High&#45;performance C string with Small String Optimization (SSO).">
<polygon fill="#999999" stroke="#666666" points="204.5,-129 123.5,-129 123.5,-110 204.5,-110 204.5,-129"/>
<text text-anchor="middle" x="164" y="-117" font-family="Helvetica,sans-Serif" font-size="10.00">include/cstr.h</text>
</a>
</g>
</g>
<!-- Node2 -->
<g id="Node000002" class="node">
<title>Node2</title>
<g id="a_Node000002"><a xlink:title=" ">
<polygon fill="#e0e0e0" stroke="#999999" points="62,-74 0,-74 0,-55 62,-55 62,-74"/>
<text text-anchor="middle" x="31" y="-62" font-family="Helvetica,sans-Serif" font-size="10.00">stdbool.h</text>
</a>
</g>
</g>
<!-- Node1&#45;&gt;Node2 -->
<g id="edge1_Node000001_Node000002" class="edge">
<title>Node1&#45;&gt;Node2</title>
<g id="a_edge1_Node000001_Node000002"><a xlink:title=" ">
<path fill="none" stroke="#63b8ff" d="M142.63,-109.98C120.85,-101.3 86.84,-87.75 62.08,-77.88"/>
<polygon fill="#63b8ff" stroke="#63b8ff" points="63.34,-74.62 52.76,-74.17 60.75,-81.12 63.34,-74.62"/>
</a>
</g>
</g>
<!-- Node3 -->
<g id="Node000003" class="node">
<title>Node3</title>
<g id="a_Node000003"><a xlink:title=" ">
<polygon fill="#e0e0e0" stroke="#999999" points="136,-74 80,-74 80,-55 136,-55 136,-74"/>
<text text-anchor="middle" x="108" y="-62" font-family="Helvetica,sans-Serif" font-size="10.00">stddef.h</text>
</a>
</g>
</g>
<!-- Node1&#45;&gt;Node3 -->
<g id="edge2_Node000001_Node000003" class="edge">
<title>Node1&#45;&gt;Node3</title>
<g id="a_edge2_Node000001_Node000003"><a xlink:title=" ">
<path fill="none" stroke="#63b8ff" d="M155,-109.98C146.81,-102.23 134.49,-90.58 124.53,-81.14"/>
<polygon fill="#63b8ff" stroke="#63b8ff" points="126.83,-78.5 117.16,-74.17 122.02,-83.59 126.83,-78.5"/>
</a>
</g>
</g>
<!-- Node4 -->
<g id="Node000004" class="node">
<title>Node4</title>
<g id="a_Node000004"><a xlink:title=" ">
<polygon fill="#e0e0e0" stroke="#999999" points="157.5,-19 104.5,-19 104.5,0 157.5,0 157.5,-19"/>
<text text-anchor="middle" x="131" y="-7" font-family="Helvetica,sans-Serif" font-size="10.00">stdint.h</text>
</a>
</g>
</g>
<!-- Node1&#45;&gt;Node4 -->
<g id="edge3_Node000001_Node000004" class="edge">
<title>Node1&#45;&gt;Node4</title>
<g id="a_edge3_Node000001_Node000004"><a xlink:title=" ">
<path fill="none" stroke="#63b8ff" d="M161.46,-109.86C157.85,-97.63 151.01,-74.58 145,-55 142.35,-46.38 139.36,-36.83 136.82,-28.8"/>
<polygon fill="#63b8ff" stroke="#63b8ff" points="140.08,-27.49 133.72,-19.02 133.41,-29.61 140.08,-27.49"/>
</a>
</g>
</g>
<!-- Node5 -->
<g id="Node000005" class="node">
<title>Node5</title>
<g id="a_Node000005"><a xlink:title=" ">
<polygon fill="#e0e0e0" stroke="#999999" points="228.5,-19 175.5,-19 175.5,0 228.5,0 228.5,-19"/>
<text text-anchor="middle" x="202" y="-7" font-family="Helvetica,sans-Serif" font-size="10.00">string.h</text>
</a>
</g>
</g>
<!-- Node1&#45;&gt;Node5 -->
<g id="edge4_Node000001_Node000005" class="edge">
<title>Node1&#45;&gt;Node5</title>
<g id="a_edge4_Node000001_Node000005"><a xlink:title=" ">
<path fill="none" stroke="#63b8ff" d="M167.11,-109.66C173.32,-92.01 187.37,-52.09 195.62,-28.64"/>
<polygon fill="#63b8ff" stroke="#63b8ff" points="198.94,-29.75 198.95,-19.16 192.33,-27.43 198.94,-29.75"/>
</a>
</g>
</g>
<!-- Node6 -->
<g id="Node000006" class="node">
<title>Node6</title>
<g id="a_Node000006"><a xlink:href="macros_8h.html" target="_top" xlink:title="Collection of utility macros for assertions, memory management, math, and debugging.">
<polygon fill="white" stroke="#666666" points="297,-74 235,-74 235,-55 297,-55 297,-74"/>
<text text-anchor="middle" x="266" y="-62" font-family="Helvetica,sans-Serif" font-size="10.00">macros.h</text>
</a>
</g>
</g>
<!-- Node1&#45;&gt;Node6 -->
<g id="edge5_Node000001_Node000006" class="edge">
<title>Node1&#45;&gt;Node6</title>
<g id="a_edge5_Node000001_Node000006"><a xlink:title=" ">
<path fill="none" stroke="#63b8ff" d="M180.39,-109.98C196.57,-101.57 221.57,-88.59 240.38,-78.81"/>
<polygon fill="#63b8ff" stroke="#63b8ff" points="242.05,-81.89 249.31,-74.17 238.83,-75.68 242.05,-81.89"/>
</a>
</g>
</g>
<!-- Node6&#45;&gt;Node4 -->
<g id="edge6_Node000006_Node000004" class="edge">
<title>Node6&#45;&gt;Node4</title>
<g id="a_edge6_Node000006_Node000004"><a xlink:title=" ">
<path fill="none" stroke="#63b8ff" d="M244.31,-54.98C222.2,-46.3 187.68,-32.75 162.55,-22.88"/>
<polygon fill="#63b8ff" stroke="#63b8ff" points="163.67,-19.57 153.08,-19.17 161.11,-26.08 163.67,-19.57"/>
</a>
</g>
</g>
<!-- Node6&#45;&gt;Node5 -->
<g id="edge9_Node000006_Node000005" class="edge">
<title>Node6&#45;&gt;Node5</title>
<g id="a_edge9_Node000006_Node000005"><a xlink:title=" ">
<path fill="none" stroke="#63b8ff" d="M255.72,-54.98C246.16,-47.07 231.72,-35.11 220.22,-25.58"/>
<polygon fill="#63b8ff" stroke="#63b8ff" points="222.4,-22.85 212.47,-19.17 217.94,-28.24 222.4,-22.85"/>
</a>
</g>
</g>
<!-- Node7 -->
<g id="Node000007" class="node">
<title>Node7</title>
<g id="a_Node000007"><a xlink:title=" ">
<polygon fill="#e0e0e0" stroke="#999999" points="297,-19 247,-19 247,0 297,0 297,-19"/>
<text text-anchor="middle" x="272" y="-7" font-family="Helvetica,sans-Serif" font-size="10.00">stdio.h</text>
</a>
</g>
</g>
<!-- Node6&#45;&gt;Node7 -->
<g id="edge7_Node000006_Node000007" class="edge">
<title>Node6&#45;&gt;Node7</title>
<g id="a_edge7_Node000006_Node000007"><a xlink:title=" ">
<path fill="none" stroke="#63b8ff" d="M266.99,-54.75C267.78,-47.8 268.9,-37.85 269.89,-29.13"/>
<polygon fill="#63b8ff" stroke="#63b8ff" points="273.38,-29.42 271.03,-19.09 266.42,-28.63 273.38,-29.42"/>
</a>
</g>
</g>
<!-- Node8 -->
<g id="Node000008" class="node">
<title>Node8</title>
<g id="a_Node000008"><a xlink:title=" ">
<polygon fill="#e0e0e0" stroke="#999999" points="368.5,-19 315.5,-19 315.5,0 368.5,0 368.5,-19"/>
<text text-anchor="middle" x="342" y="-7" font-family="Helvetica,sans-Serif" font-size="10.00">stdlib.h</text>
</a>
</g>
</g>
<!-- Node6&#45;&gt;Node8 -->
<g id="edge8_Node000006_Node000008" class="edge">
<title>Node6&#45;&gt;Node8</title>
<g id="a_edge8_Node000006_Node000008"><a xlink:title=" ">
<path fill="none" stroke="#63b8ff" d="M278.21,-54.98C289.78,-46.92 307.38,-34.65 321.16,-25.03"/>
<polygon fill="#63b8ff" stroke="#63b8ff" points="323.37,-27.76 329.57,-19.17 319.36,-22.02 323.37,-27.76"/>
</a>
</g>
</g>
<!-- Node9 -->
<g id="Node000009" class="node">
<title>Node9</title>
<g id="a_Node000009"><a xlink:title=" ">
<polygon fill="#e0e0e0" stroke="#999999" points="435,-19 387,-19 387,0 435,0 435,-19"/>
<text text-anchor="middle" x="411" y="-7" font-family="Helvetica,sans-Serif" font-size="10.00">time.h</text>
</a>
</g>
</g>
<!-- Node6&#45;&gt;Node9 -->
<g id="edge10_Node000006_Node000009" class="edge">
<title>Node6&#45;&gt;Node9</title>
<g id="a_edge10_Node000006_Node000009"><a xlink:title=" ">
<path fill="none" stroke="#63b8ff" d="M289.3,-54.98C313.25,-46.23 350.78,-32.51 377.83,-22.62"/>
<polygon fill="#63b8ff" stroke="#63b8ff" points="379.09,-25.89 387.28,-19.17 376.69,-19.32 379.09,-25.89"/>
</a>
</g>
</g>
</g>
</svg>
</svg>

<style type='text/css'>
<![CDATA[
[data-mouse-over-selected='false'] { opacity: 0.7; }
[data-mouse-over-selected='true']  { opacity: 1.0; }
]]>
</style>
<script type="application/ecmascript"><![CDATA[
document.addEventListener('DOMContentLoaded', (event) => {
  highlightEdges();
  highlightAdjacentNodes();
});
]]></script>
</svg>
