<?xml version="1.0" encoding="UTF-8" standalone="no"?>
<!DOCTYPE svg PUBLIC "-//W3C//DTD SVG 1.1//EN"
 "http://www.w3.org/Graphics/SVG/1.1/DTD/svg11.dtd">
<!-- Generated by graphviz version 2.43.0 (0)
 -->
<!-- Title: cstr_reverse Pages: 1 -->
<svg width="339pt" height="73pt"
 viewBox="0.00 0.00 339.00 73.00" xmlns="http://www.w3.org/2000/svg" xmlns:xlink="http://www.w3.org/1999/xlink">
<g id="graph0" class="graph" transform="scale(1 1) rotate(0) translate(4 69)">
<title>cstr_reverse</title>
<!-- Node1 -->
<g id="Node000001" class="node">
<title>Node1</title>
<g id="a_Node000001"><a xlink:title="Creates a new cstr with the contents of the input cstr reversed.">
<polygon fill="#999999" stroke="#666666" points="77,-47 0,-47 0,-28 77,-28 77,-47"/>
<text text-anchor="middle" x="38.5" y="-35" font-family="Helvetica,sans-Serif" font-size="10.00">cstr_reverse</text>
</a>
</g>
</g>
<!-- Node1&#45;&gt;Node1 -->
<g id="edge6_Node000001_Node000001" class="edge">
<title>Node1&#45;&gt;Node1</title>
<g id="a_edge6_Node000001_Node000001"><a xlink:title=" ">
<path fill="none" stroke="#63b8ff" d="M20,-47.08C11.01,-55.73 17.17,-65 38.5,-65 51.83,-65 59.24,-61.38 60.72,-56.55"/>
<polygon fill="#63b8ff" stroke="#63b8ff" points="63.91,-55.11 57,-47.08 57.4,-57.67 63.91,-55.11"/>
</a>
</g>
</g>
<!-- Node2 -->
<g id="Node000002" class="node">
<title>Node2</title>
<g id="a_Node000002"><a xlink:href="cstr_8c.html#aaafd0342dcc8c8e0e2fabf7edacc5520" target="_top" xlink:title="Creates a new empty cstr using a custom arena allocator.">
<polygon fill="white" stroke="#666666" points="331,-47 242,-47 242,-28 331,-28 331,-47"/>
<text text-anchor="middle" x="286.5" y="-35" font-family="Helvetica,sans-Serif" font-size="10.00">cstr_init_arena</text>
</a>
</g>
</g>
<!-- Node1&#45;&gt;Node2 -->
<g id="edge1_Node000001_Node000002" class="edge">
<title>Node1&#45;&gt;Node2</title>
<g id="a_edge1_Node000001_Node000002"><a xlink:title=" ">
<path fill="none" stroke="#63b8ff" d="M77.19,-43.01C88.66,-44.44 101.32,-45.79 113,-46.5 154.26,-49.02 164.73,-48.83 206,-46.5 214.37,-46.03 223.22,-45.28 231.85,-44.41"/>
<polygon fill="#63b8ff" stroke="#63b8ff" points="232.27,-47.88 241.84,-43.34 231.52,-40.92 232.27,-47.88"/>
</a>
</g>
</g>
<!-- Node3 -->
<g id="Node000003" class="node">
<title>Node3</title>
<g id="a_Node000003"><a xlink:href="cstr_8c.html#a1eca5d7fc6deccb9e28a6e4075c7e5aa" target="_top" xlink:title="Creates a new cstr from a C string using a custom arena allocator.">
<polygon fill="white" stroke="#666666" points="206,-19 113,-19 113,0 206,0 206,-19"/>
<text text-anchor="middle" x="159.5" y="-7" font-family="Helvetica,sans-Serif" font-size="10.00">cstr_new_arena</text>
</a>
</g>
</g>
<!-- Node1&#45;&gt;Node3 -->
<g id="edge3_Node000001_Node000003" class="edge">
<title>Node1&#45;&gt;Node3</title>
<g id="a_edge3_Node000001_Node000003"><a xlink:title=" ">
<path fill="none" stroke="#63b8ff" d="M77.15,-28.64C86.96,-26.33 97.68,-23.81 108.03,-21.38"/>
<polygon fill="#63b8ff" stroke="#63b8ff" points="108.86,-24.77 117.8,-19.08 107.26,-17.96 108.86,-24.77"/>
</a>
</g>
</g>
<!-- Node2&#45;&gt;Node2 -->
<g id="edge2_Node000002_Node000002" class="edge">
<title>Node2&#45;&gt;Node2</title>
<g id="a_edge2_Node000002_Node000002"><a xlink:title=" ">
<path fill="none" stroke="#63b8ff" d="M267.08,-47.08C257.63,-55.73 264.11,-65 286.5,-65 300.5,-65 308.27,-61.38 309.83,-56.55"/>
<polygon fill="#63b8ff" stroke="#63b8ff" points="312.97,-54.99 305.92,-47.08 306.5,-57.66 312.97,-54.99"/>
</a>
</g>
</g>
<!-- Node3&#45;&gt;Node2 -->
<g id="edge4_Node000003_Node000002" class="edge">
<title>Node3&#45;&gt;Node2</title>
<g id="a_edge4_Node000003_Node000002"><a xlink:title=" ">
<path fill="none" stroke="#63b8ff" d="M203.17,-19.06C212.82,-21.22 223.18,-23.54 233.18,-25.78"/>
<polygon fill="#63b8ff" stroke="#63b8ff" points="232.5,-29.21 243.02,-27.99 234.03,-22.38 232.5,-29.21"/>
</a>
</g>
</g>
<!-- Node3&#45;&gt;Node3 -->
<g id="edge5_Node000003_Node000003" class="edge">
<title>Node3&#45;&gt;Node3</title>
<g id="a_edge5_Node000003_Node000003"><a xlink:title=" ">
<path fill="none" stroke="#63b8ff" d="M141,-19.08C132.01,-27.73 138.17,-37 159.5,-37 172.83,-37 180.24,-33.38 181.72,-28.55"/>
<polygon fill="#63b8ff" stroke="#63b8ff" points="184.91,-27.11 178,-19.08 178.4,-29.67 184.91,-27.11"/>
</a>
</g>
</g>
</g>
</svg>
