<?xml version="1.0" encoding="UTF-8" standalone="no"?>
<!DOCTYPE svg PUBLIC "-//W3C//DTD SVG 1.1//EN"
 "http://www.w3.org/Graphics/SVG/1.1/DTD/svg11.dtd">
<!-- Generated by graphviz version 2.43.0 (0)
 -->
<!-- Title: cstr_trim_chars Pages: 1 -->
<svg width="200pt" height="45pt"
 viewBox="0.00 0.00 200.00 45.00" xmlns="http://www.w3.org/2000/svg" xmlns:xlink="http://www.w3.org/1999/xlink">
<g id="graph0" class="graph" transform="scale(1 1) rotate(0) translate(4 41)">
<title>cstr_trim_chars</title>
<!-- Node1 -->
<g id="Node000001" class="node">
<title>Node1</title>
<g id="a_Node000001"><a xlink:title="Removes leading and trailing characters from the cstr in place based on a set of characters.">
<polygon fill="#999999" stroke="#666666" points="92,-19 0,-19 0,0 92,0 92,-19"/>
<text text-anchor="middle" x="46" y="-7" font-family="Helvetica,sans-Serif" font-size="10.00">cstr_trim_chars</text>
</a>
</g>
</g>
<!-- Node1&#45;&gt;Node1 -->
<g id="edge3_Node000001_Node000001" class="edge">
<title>Node1&#45;&gt;Node1</title>
<g id="a_edge3_Node000001_Node000001"><a xlink:title=" ">
<path fill="none" stroke="#63b8ff" d="M28.43,-19.08C19.88,-27.73 25.74,-37 46,-37 58.66,-37 65.7,-33.38 67.11,-28.55"/>
<polygon fill="#63b8ff" stroke="#63b8ff" points="70.35,-27.22 63.57,-19.08 63.79,-29.68 70.35,-27.22"/>
</a>
</g>
</g>
<!-- Node2 -->
<g id="Node000002" class="node">
<title>Node2</title>
<g id="a_Node000002"><a xlink:href="cstr_8c.html#aac384bc30a7cba763812edbfecf22df1" target="_top" xlink:title="Clears the cstr, setting its length to 0.">
<polygon fill="white" stroke="#666666" points="192,-19 128,-19 128,0 192,0 192,-19"/>
<text text-anchor="middle" x="160" y="-7" font-family="Helvetica,sans-Serif" font-size="10.00">cstr_clear</text>
</a>
</g>
</g>
<!-- Node1&#45;&gt;Node2 -->
<g id="edge1_Node000001_Node000002" class="edge">
<title>Node1&#45;&gt;Node2</title>
<g id="a_edge1_Node000001_Node000002"><a xlink:title=" ">
<path fill="none" stroke="#63b8ff" d="M92.23,-9.5C100.6,-9.5 109.3,-9.5 117.55,-9.5"/>
<polygon fill="#63b8ff" stroke="#63b8ff" points="117.69,-13 127.69,-9.5 117.69,-6 117.69,-13"/>
</a>
</g>
</g>
<!-- Node2&#45;&gt;Node2 -->
<g id="edge2_Node000002_Node000002" class="edge">
<title>Node2&#45;&gt;Node2</title>
<g id="a_edge2_Node000002_Node000002"><a xlink:title=" ">
<path fill="none" stroke="#63b8ff" d="M142.43,-19.08C133.88,-27.73 139.74,-37 160,-37 172.66,-37 179.7,-33.38 181.11,-28.55"/>
<polygon fill="#63b8ff" stroke="#63b8ff" points="184.35,-27.22 177.57,-19.08 177.79,-29.68 184.35,-27.22"/>
</a>
</g>
</g>
</g>
</svg>
