<?xml version="1.0" encoding="UTF-8" standalone="no"?>
<!DOCTYPE svg PUBLIC "-//W3C//DTD SVG 1.1//EN"
 "http://www.w3.org/Graphics/SVG/1.1/DTD/svg11.dtd">
<!-- Generated by graphviz version 2.43.0 (0)
 -->
<!-- Title: dynarray_reserve Pages: 1 -->
<svg width="271pt" height="155pt"
 viewBox="0.00 0.00 271.00 155.00" xmlns="http://www.w3.org/2000/svg" xmlns:xlink="http://www.w3.org/1999/xlink">
<g id="graph0" class="graph" transform="scale(1 1) rotate(0) translate(4 151)">
<title>dynarray_reserve</title>
<!-- Node1 -->
<g id="Node000001" class="node">
<title>Node1</title>
<g id="a_Node000001"><a xlink:title=" ">
<polygon fill="#999999" stroke="#666666" points="263,-74 161,-74 161,-55 263,-55 263,-74"/>
<text text-anchor="middle" x="212" y="-62" font-family="Helvetica,sans-Serif" font-size="10.00">dynarray_reserve</text>
</a>
</g>
</g>
<!-- Node1&#45;&gt;Node1 -->
<g id="edge5_Node000001_Node000001" class="edge">
<title>Node1&#45;&gt;Node1</title>
<g id="a_edge5_Node000001_Node000001"><a xlink:title=" ">
<path fill="none" stroke="#63b8ff" d="M239.53,-83.19C238.03,-88.2 228.85,-92 212,-92 185.7,-92 178.09,-82.73 189.19,-74.08"/>
<polygon fill="#63b8ff" stroke="#63b8ff" points="242.52,-81.35 234.81,-74.08 236.3,-84.57 242.52,-81.35"/>
</a>
</g>
</g>
<!-- Node2 -->
<g id="Node000002" class="node">
<title>Node2</title>
<g id="a_Node000002"><a xlink:href="dynarray_8c.html#a4ffd5686da4a5536c94814c70ff7b8cb" target="_top" xlink:title=" ">
<polygon fill="white" stroke="#666666" points="104,-129 21,-129 21,-110 104,-110 104,-129"/>
<text text-anchor="middle" x="62.5" y="-117" font-family="Helvetica,sans-Serif" font-size="10.00">dynarray_pop</text>
</a>
</g>
</g>
<!-- Node1&#45;&gt;Node2 -->
<g id="edge1_Node000001_Node000002" class="edge">
<title>Node1&#45;&gt;Node2</title>
<g id="a_edge1_Node000001_Node000002"><a xlink:title=" ">
<path fill="none" stroke="#63b8ff" d="M181.66,-78.18C165.2,-85.58 144.18,-94.6 125,-101.5 116.63,-104.51 107.48,-107.4 98.86,-109.95"/>
<polygon fill="#63b8ff" stroke="#63b8ff" points="183.12,-81.36 190.78,-74.03 180.22,-74.98 183.12,-81.36"/>
</a>
</g>
</g>
<!-- Node3 -->
<g id="Node000003" class="node">
<title>Node3</title>
<g id="a_Node000003"><a xlink:href="dynarray_8c.html#a13d24ddc6043c6239ecaf98385ea09dd" target="_top" xlink:title=" ">
<polygon fill="white" stroke="#666666" points="107,-74 18,-74 18,-55 107,-55 107,-74"/>
<text text-anchor="middle" x="62.5" y="-62" font-family="Helvetica,sans-Serif" font-size="10.00">dynarray_push</text>
</a>
</g>
</g>
<!-- Node1&#45;&gt;Node3 -->
<g id="edge3_Node000001_Node000003" class="edge">
<title>Node1&#45;&gt;Node3</title>
<g id="a_edge3_Node000001_Node000003"><a xlink:title=" ">
<path fill="none" stroke="#63b8ff" d="M150.29,-64.5C135.85,-64.5 120.73,-64.5 107.22,-64.5"/>
<polygon fill="#63b8ff" stroke="#63b8ff" points="150.65,-68 160.65,-64.5 150.65,-61 150.65,-68"/>
</a>
</g>
</g>
<!-- Node4 -->
<g id="Node000004" class="node">
<title>Node4</title>
<g id="a_Node000004"><a xlink:href="dynarray_8c.html#a5f288466ef4096563fae63a6d0709367" target="_top" xlink:title=" ">
<polygon fill="white" stroke="#666666" points="125,-19 0,-19 0,0 125,0 125,-19"/>
<text text-anchor="middle" x="62.5" y="-7" font-family="Helvetica,sans-Serif" font-size="10.00">dynarray_shrink_to_fit</text>
</a>
</g>
</g>
<!-- Node1&#45;&gt;Node4 -->
<g id="edge6_Node000001_Node000004" class="edge">
<title>Node1&#45;&gt;Node4</title>
<g id="a_edge6_Node000001_Node000004"><a xlink:title=" ">
<path fill="none" stroke="#63b8ff" d="M175.62,-51.31C149.07,-41.41 113.32,-28.08 89.39,-19.16"/>
<polygon fill="#63b8ff" stroke="#63b8ff" points="174.71,-54.71 185.31,-54.92 177.16,-48.15 174.71,-54.71"/>
</a>
</g>
</g>
<!-- Node2&#45;&gt;Node2 -->
<g id="edge2_Node000002_Node000002" class="edge">
<title>Node2&#45;&gt;Node2</title>
<g id="a_edge2_Node000002_Node000002"><a xlink:title=" ">
<path fill="none" stroke="#63b8ff" d="M90.03,-138.19C88.53,-143.2 79.35,-147 62.5,-147 36.2,-147 28.59,-137.73 39.69,-129.08"/>
<polygon fill="#63b8ff" stroke="#63b8ff" points="93.02,-136.35 85.31,-129.08 86.8,-139.57 93.02,-136.35"/>
</a>
</g>
</g>
<!-- Node3&#45;&gt;Node3 -->
<g id="edge4_Node000003_Node000003" class="edge">
<title>Node3&#45;&gt;Node3</title>
<g id="a_edge4_Node000003_Node000003"><a xlink:title=" ">
<path fill="none" stroke="#63b8ff" d="M90.03,-83.19C88.53,-88.2 79.35,-92 62.5,-92 36.2,-92 28.59,-82.73 39.69,-74.08"/>
<polygon fill="#63b8ff" stroke="#63b8ff" points="93.02,-81.35 85.31,-74.08 86.8,-84.57 93.02,-81.35"/>
</a>
</g>
</g>
<!-- Node4&#45;&gt;Node4 -->
<g id="edge7_Node000004_Node000004" class="edge">
<title>Node4&#45;&gt;Node4</title>
<g id="a_edge7_Node000004_Node000004"><a xlink:title=" ">
<path fill="none" stroke="#63b8ff" d="M90.03,-28.19C88.53,-33.2 79.35,-37 62.5,-37 36.2,-37 28.59,-27.73 39.69,-19.08"/>
<polygon fill="#63b8ff" stroke="#63b8ff" points="93.02,-26.35 85.31,-19.08 86.8,-29.57 93.02,-26.35"/>
</a>
</g>
</g>
</g>
</svg>
