<?xml version="1.0" encoding="UTF-8" standalone="no"?>
<!DOCTYPE svg PUBLIC "-//W3C//DTD SVG 1.1//EN"
 "http://www.w3.org/Graphics/SVG/1.1/DTD/svg11.dtd">
<!-- Generated by graphviz version 2.43.0 (0)
 -->
<!-- Title: include/env.h Pages: 1 -->
<svg width="374pt" height="137pt"
 viewBox="0.00 0.00 374.00 137.00" xmlns="http://www.w3.org/2000/svg" xmlns:xlink="http://www.w3.org/1999/xlink">
<g id="graph0" class="graph" transform="scale(1 1) rotate(0) translate(4 133)">
<title>include/env.h</title>
<!-- Node1 -->
<g id="Node000001" class="node">
<title>Node1</title>
<g id="a_Node000001"><a xlink:title="Environment variable utilities and safe access functions.">
<polygon fill="#999999" stroke="#666666" points="219,-129 138,-129 138,-110 219,-110 219,-129"/>
<text text-anchor="middle" x="178.5" y="-117" font-family="Helvetica,sans-Serif" font-size="10.00">include/env.h</text>
</a>
</g>
</g>
<!-- Node2 -->
<g id="Node000002" class="node">
<title>Node2</title>
<g id="a_Node000002"><a xlink:href="dotenv_8h.html" target="_top" xlink:title="Environment variable loading from .env files.">
<polygon fill="white" stroke="#666666" points="111,-74 14,-74 14,-55 111,-55 111,-74"/>
<text text-anchor="middle" x="62.5" y="-62" font-family="Helvetica,sans-Serif" font-size="10.00">include/dotenv.h</text>
</a>
</g>
</g>
<!-- Node1&#45;&gt;Node2 -->
<g id="edge1_Node000001_Node000002" class="edge">
<title>Node1&#45;&gt;Node2</title>
<g id="a_edge1_Node000001_Node000002"><a xlink:title=" ">
<path fill="none" stroke="#63b8ff" d="M150.63,-105.77C129.23,-95.99 100.26,-82.75 81.48,-74.17"/>
<polygon fill="#63b8ff" stroke="#63b8ff" points="149.31,-109.01 159.86,-109.98 152.22,-102.65 149.31,-109.01"/>
</a>
</g>
</g>
<!-- Node3 -->
<g id="Node000003" class="node">
<title>Node3</title>
<g id="a_Node000003"><a xlink:href="solidc_8h.html" target="_top" xlink:title="Master header file that includes all SolidC library modules.">
<polygon fill="white" stroke="#666666" points="185.5,-19 93.5,-19 93.5,0 185.5,0 185.5,-19"/>
<text text-anchor="middle" x="139.5" y="-7" font-family="Helvetica,sans-Serif" font-size="10.00">include/solidc.h</text>
</a>
</g>
</g>
<!-- Node1&#45;&gt;Node3 -->
<g id="edge7_Node000001_Node000003" class="edge">
<title>Node1&#45;&gt;Node3</title>
<g id="a_edge7_Node000001_Node000003"><a xlink:title=" ">
<path fill="none" stroke="#63b8ff" d="M169.83,-100.65C166.09,-92.6 161.83,-82.93 158.5,-74 151.35,-54.81 144.96,-31.6 141.73,-19.25"/>
<polygon fill="#63b8ff" stroke="#63b8ff" points="166.71,-102.25 174.17,-109.78 173.04,-99.24 166.71,-102.25"/>
</a>
</g>
</g>
<!-- Node5 -->
<g id="Node000005" class="node">
<title>Node5</title>
<g id="a_Node000005"><a xlink:href="process_8h.html" target="_top" xlink:title="A modern, cross&#45;platform API for process management and IPC.">
<polygon fill="white" stroke="#666666" points="269,-74 168,-74 168,-55 269,-55 269,-74"/>
<text text-anchor="middle" x="218.5" y="-62" font-family="Helvetica,sans-Serif" font-size="10.00">include/process.h</text>
</a>
</g>
</g>
<!-- Node1&#45;&gt;Node5 -->
<g id="edge4_Node000001_Node000005" class="edge">
<title>Node1&#45;&gt;Node5</title>
<g id="a_edge4_Node000001_Node000005"><a xlink:title=" ">
<path fill="none" stroke="#63b8ff" d="M191.2,-101.67C198.13,-92.5 206.41,-81.52 212.02,-74.09"/>
<polygon fill="#63b8ff" stroke="#63b8ff" points="188.34,-99.66 185.11,-109.75 193.92,-103.87 188.34,-99.66"/>
</a>
</g>
</g>
<!-- Node7 -->
<g id="Node000007" class="node">
<title>Node7</title>
<g id="a_Node000007"><a xlink:href="filepath_8c_source.html" target="_top" xlink:title=" ">
<polygon fill="white" stroke="#666666" points="366,-74 287,-74 287,-55 366,-55 366,-74"/>
<text text-anchor="middle" x="326.5" y="-62" font-family="Helvetica,sans-Serif" font-size="10.00">src/filepath.c</text>
</a>
</g>
</g>
<!-- Node1&#45;&gt;Node7 -->
<g id="edge8_Node000001_Node000007" class="edge">
<title>Node1&#45;&gt;Node7</title>
<g id="a_edge8_Node000001_Node000007"><a xlink:title=" ">
<path fill="none" stroke="#63b8ff" d="M211.87,-106.55C239.35,-96.71 277.67,-82.98 302.29,-74.17"/>
<polygon fill="#63b8ff" stroke="#63b8ff" points="210.51,-103.32 202.28,-109.98 212.87,-109.91 210.51,-103.32"/>
</a>
</g>
</g>
<!-- Node2&#45;&gt;Node3 -->
<g id="edge2_Node000002_Node000003" class="edge">
<title>Node2&#45;&gt;Node3</title>
<g id="a_edge2_Node000002_Node000003"><a xlink:title=" ">
<path fill="none" stroke="#63b8ff" d="M83.35,-49.15C97.26,-39.57 115.11,-27.29 126.9,-19.17"/>
<polygon fill="#63b8ff" stroke="#63b8ff" points="81.12,-46.43 74.87,-54.98 85.09,-52.2 81.12,-46.43"/>
</a>
</g>
</g>
<!-- Node4 -->
<g id="Node000004" class="node">
<title>Node4</title>
<g id="a_Node000004"><a xlink:href="dotenv_8c_source.html" target="_top" xlink:title=" ">
<polygon fill="white" stroke="#666666" points="75,-19 0,-19 0,0 75,0 75,-19"/>
<text text-anchor="middle" x="37.5" y="-7" font-family="Helvetica,sans-Serif" font-size="10.00">src/dotenv.c</text>
</a>
</g>
</g>
<!-- Node2&#45;&gt;Node4 -->
<g id="edge3_Node000002_Node000004" class="edge">
<title>Node2&#45;&gt;Node4</title>
<g id="a_edge3_Node000002_Node000004"><a xlink:title=" ">
<path fill="none" stroke="#63b8ff" d="M54.02,-45.53C49.81,-36.6 44.91,-26.22 41.55,-19.09"/>
<polygon fill="#63b8ff" stroke="#63b8ff" points="50.94,-47.2 58.37,-54.75 57.27,-44.21 50.94,-47.2"/>
</a>
</g>
</g>
<!-- Node5&#45;&gt;Node3 -->
<g id="edge5_Node000005_Node000003" class="edge">
<title>Node5&#45;&gt;Node3</title>
<g id="a_edge5_Node000005_Node000003"><a xlink:title=" ">
<path fill="none" stroke="#63b8ff" d="M197.11,-49.15C182.83,-39.57 164.53,-27.29 152.42,-19.17"/>
<polygon fill="#63b8ff" stroke="#63b8ff" points="195.55,-52.32 205.81,-54.98 199.45,-46.51 195.55,-52.32"/>
</a>
</g>
</g>
<!-- Node6 -->
<g id="Node000006" class="node">
<title>Node6</title>
<g id="a_Node000006"><a xlink:href="process_8c.html" target="_top" xlink:title="Implementation of the process management API.">
<polygon fill="white" stroke="#666666" points="283.5,-19 203.5,-19 203.5,0 283.5,0 283.5,-19"/>
<text text-anchor="middle" x="243.5" y="-7" font-family="Helvetica,sans-Serif" font-size="10.00">src/process.c</text>
</a>
</g>
</g>
<!-- Node5&#45;&gt;Node6 -->
<g id="edge6_Node000005_Node000006" class="edge">
<title>Node5&#45;&gt;Node6</title>
<g id="a_edge6_Node000005_Node000006"><a xlink:title=" ">
<path fill="none" stroke="#63b8ff" d="M226.98,-45.53C231.19,-36.6 236.09,-26.22 239.45,-19.09"/>
<polygon fill="#63b8ff" stroke="#63b8ff" points="223.73,-44.21 222.63,-54.75 230.06,-47.2 223.73,-44.21"/>
</a>
</g>
</g>
</g>
</svg>
