<?xml version="1.0" encoding="UTF-8" standalone="no"?>
<!DOCTYPE svg PUBLIC "-//W3C//DTD SVG 1.1//EN"
 "http://www.w3.org/Graphics/SVG/1.1/DTD/svg11.dtd">
<!-- Generated by graphviz version 2.43.0 (0)
 -->
<!-- Title: dir_close Pages: 1 -->
<svg width="450pt" height="174pt"
 viewBox="0.00 0.00 450.00 174.00" xmlns="http://www.w3.org/2000/svg" xmlns:xlink="http://www.w3.org/1999/xlink">
<g id="graph0" class="graph" transform="scale(1 1) rotate(0) translate(4 170)">
<title>dir_close</title>
<!-- Node1 -->
<g id="Node000001" class="node">
<title>Node1</title>
<g id="a_Node000001"><a xlink:title=" ">
<polygon fill="#999999" stroke="#666666" points="442,-101 382,-101 382,-82 442,-82 442,-101"/>
<text text-anchor="middle" x="412" y="-89" font-family="Helvetica,sans-Serif" font-size="10.00">dir_close</text>
</a>
</g>
</g>
<!-- Node1&#45;&gt;Node1 -->
<g id="edge1_Node000001_Node000001" class="edge">
<title>Node1&#45;&gt;Node1</title>
<g id="a_edge1_Node000001_Node000001"><a xlink:title=" ">
<path fill="none" stroke="#63b8ff" d="M435.33,-110.55C433.77,-115.38 426,-119 412,-119 389.61,-119 383.13,-109.73 392.58,-101.08"/>
<polygon fill="#63b8ff" stroke="#63b8ff" points="438.47,-108.99 431.42,-101.08 432,-111.66 438.47,-108.99"/>
</a>
</g>
</g>
<!-- Node2 -->
<g id="Node000002" class="node">
<title>Node2</title>
<g id="a_Node000002"><a xlink:href="filepath_8c.html#a9288507f81483b0f6983d238b38977c8" target="_top" xlink:title=" ">
<polygon fill="white" stroke="#666666" points="310,-166 260,-166 260,-147 310,-147 310,-166"/>
<text text-anchor="middle" x="285" y="-154" font-family="Helvetica,sans-Serif" font-size="10.00">dir_list</text>
</a>
</g>
</g>
<!-- Node1&#45;&gt;Node2 -->
<g id="edge2_Node000001_Node000002" class="edge">
<title>Node1&#45;&gt;Node2</title>
<g id="a_edge2_Node000001_Node000002"><a xlink:title=" ">
<path fill="none" stroke="#63b8ff" d="M392.43,-107.52C379.98,-117.58 362.84,-130.18 346,-138.5 334.69,-144.09 321.31,-148.31 310.06,-151.25"/>
<polygon fill="#63b8ff" stroke="#63b8ff" points="394.77,-110.13 400.23,-101.05 390.3,-104.74 394.77,-110.13"/>
</a>
</g>
</g>
<!-- Node3 -->
<g id="Node000003" class="node">
<title>Node3</title>
<g id="a_Node000003"><a xlink:href="filepath_8c.html#a9a153c4ce322fc099eb4725fa95b2c57" target="_top" xlink:title=" ">
<polygon fill="white" stroke="#666666" points="346,-129 224,-129 224,-110 346,-110 346,-129"/>
<text text-anchor="middle" x="285" y="-117" font-family="Helvetica,sans-Serif" font-size="10.00">dir_list_with_callback</text>
</a>
</g>
</g>
<!-- Node1&#45;&gt;Node3 -->
<g id="edge3_Node000001_Node000003" class="edge">
<title>Node1&#45;&gt;Node3</title>
<g id="a_edge3_Node000001_Node000003"><a xlink:title=" ">
<path fill="none" stroke="#63b8ff" d="M371.67,-100.31C358.06,-103.36 342.74,-106.79 328.86,-109.9"/>
<polygon fill="#63b8ff" stroke="#63b8ff" points="372.7,-103.67 381.69,-98.06 371.17,-96.84 372.7,-103.67"/>
</a>
</g>
</g>
<!-- Node4 -->
<g id="Node000004" class="node">
<title>Node4</title>
<g id="a_Node000004"><a xlink:href="filepath_8c.html#af247d0017f4fc538777d06c9f40443bd" target="_top" xlink:title=" ">
<polygon fill="white" stroke="#666666" points="314,-74 256,-74 256,-55 314,-55 314,-74"/>
<text text-anchor="middle" x="285" y="-62" font-family="Helvetica,sans-Serif" font-size="10.00">dir_walk</text>
</a>
</g>
</g>
<!-- Node1&#45;&gt;Node4 -->
<g id="edge4_Node000001_Node000004" class="edge">
<title>Node1&#45;&gt;Node4</title>
<g id="a_edge4_Node000001_Node000004"><a xlink:title=" ">
<path fill="none" stroke="#63b8ff" d="M371.72,-83.02C353.09,-78.99 331.24,-74.27 314.26,-70.6"/>
<polygon fill="#63b8ff" stroke="#63b8ff" points="371.18,-86.48 381.69,-85.17 372.66,-79.64 371.18,-86.48"/>
</a>
</g>
</g>
<!-- Node7 -->
<g id="Node000007" class="node">
<title>Node7</title>
<g id="a_Node000007"><a xlink:href="filepath_8c.html#af54d8cbf030f00437fdef2047afdafb3" target="_top" xlink:title=" ">
<polygon fill="white" stroke="#666666" points="342.5,-19 227.5,-19 227.5,0 342.5,0 342.5,-19"/>
<text text-anchor="middle" x="285" y="-7" font-family="Helvetica,sans-Serif" font-size="10.00">dir_walk_depth_first</text>
</a>
</g>
</g>
<!-- Node1&#45;&gt;Node7 -->
<g id="edge8_Node000001_Node000007" class="edge">
<title>Node1&#45;&gt;Node7</title>
<g id="a_edge8_Node000001_Node000007"><a xlink:title=" ">
<path fill="none" stroke="#63b8ff" d="M389.36,-75.57C376.85,-66.52 360.72,-55.11 346,-45.5 331.66,-36.14 314.91,-26.17 302.76,-19.1"/>
<polygon fill="#63b8ff" stroke="#63b8ff" points="387.62,-78.63 397.76,-81.69 391.74,-72.97 387.62,-78.63"/>
</a>
</g>
</g>
<!-- Node4&#45;&gt;Node4 -->
<g id="edge7_Node000004_Node000004" class="edge">
<title>Node4&#45;&gt;Node4</title>
<g id="a_edge7_Node000004_Node000004"><a xlink:title=" ">
<path fill="none" stroke="#63b8ff" d="M308.33,-83.55C306.77,-88.38 299,-92 285,-92 262.61,-92 256.13,-82.73 265.58,-74.08"/>
<polygon fill="#63b8ff" stroke="#63b8ff" points="311.47,-81.99 304.42,-74.08 305,-84.66 311.47,-81.99"/>
</a>
</g>
</g>
<!-- Node5 -->
<g id="Node000005" class="node">
<title>Node5</title>
<g id="a_Node000005"><a xlink:href="filepath_8c.html#abdfec26581dba8143ff4e170ba4d7ba0" target="_top" xlink:title=" ">
<polygon fill="white" stroke="#666666" points="179,-74 125,-74 125,-55 179,-55 179,-74"/>
<text text-anchor="middle" x="152" y="-62" font-family="Helvetica,sans-Serif" font-size="10.00">dir_size</text>
</a>
</g>
</g>
<!-- Node4&#45;&gt;Node5 -->
<g id="edge5_Node000004_Node000005" class="edge">
<title>Node4&#45;&gt;Node5</title>
<g id="a_edge5_Node000004_Node000005"><a xlink:title=" ">
<path fill="none" stroke="#63b8ff" d="M245.84,-64.5C224.46,-64.5 198.35,-64.5 179.27,-64.5"/>
<polygon fill="#63b8ff" stroke="#63b8ff" points="245.9,-68 255.9,-64.5 245.9,-61 245.9,-68"/>
</a>
</g>
</g>
<!-- Node6 -->
<g id="Node000006" class="node">
<title>Node6</title>
<g id="a_Node000006"><a xlink:href="filepath_8c.html#ad540bdb7e70253c52d292e93a466e920" target="_top" xlink:title=" ">
<polygon fill="white" stroke="#666666" points="80,-74 0,-74 0,-55 80,-55 80,-74"/>
<text text-anchor="middle" x="40" y="-62" font-family="Helvetica,sans-Serif" font-size="10.00">filepath_split</text>
</a>
</g>
</g>
<!-- Node5&#45;&gt;Node6 -->
<g id="edge6_Node000005_Node000006" class="edge">
<title>Node5&#45;&gt;Node6</title>
<g id="a_edge6_Node000005_Node000006"><a xlink:title=" ">
<path fill="none" stroke="#63b8ff" d="M114.75,-64.5C103.69,-64.5 91.48,-64.5 80.23,-64.5"/>
<polygon fill="#63b8ff" stroke="#63b8ff" points="114.93,-68 124.93,-64.5 114.93,-61 114.93,-68"/>
</a>
</g>
</g>
<!-- Node7&#45;&gt;Node7 -->
<g id="edge10_Node000007_Node000007" class="edge">
<title>Node7&#45;&gt;Node7</title>
<g id="a_edge10_Node000007_Node000007"><a xlink:title=" ">
<path fill="none" stroke="#63b8ff" d="M308.33,-28.55C306.77,-33.38 299,-37 285,-37 262.61,-37 256.13,-27.73 265.58,-19.08"/>
<polygon fill="#63b8ff" stroke="#63b8ff" points="311.47,-26.99 304.42,-19.08 305,-29.66 311.47,-26.99"/>
</a>
</g>
</g>
<!-- Node8 -->
<g id="Node000008" class="node">
<title>Node8</title>
<g id="a_Node000008"><a xlink:href="filepath_8c.html#afae02b4234ea48108fb575ac53f7f0a1" target="_top" xlink:title=" ">
<polygon fill="white" stroke="#666666" points="188,-19 116,-19 116,0 188,0 188,-19"/>
<text text-anchor="middle" x="152" y="-7" font-family="Helvetica,sans-Serif" font-size="10.00">dir_remove</text>
</a>
</g>
</g>
<!-- Node7&#45;&gt;Node8 -->
<g id="edge9_Node000007_Node000008" class="edge">
<title>Node7&#45;&gt;Node8</title>
<g id="a_edge9_Node000007_Node000008"><a xlink:title=" ">
<path fill="none" stroke="#63b8ff" d="M217.29,-9.5C207.25,-9.5 197.25,-9.5 188.23,-9.5"/>
<polygon fill="#63b8ff" stroke="#63b8ff" points="217.3,-13 227.3,-9.5 217.3,-6 217.3,-13"/>
</a>
</g>
</g>
</g>
</svg>
