<?xml version="1.0" encoding="UTF-8" standalone="no"?>
<!DOCTYPE svg PUBLIC "-//W3C//DTD SVG 1.1//EN"
 "http://www.w3.org/Graphics/SVG/1.1/DTD/svg11.dtd">
<!-- Generated by graphviz version 2.43.0 (0)
 -->
<!-- Title: include/file.h Pages: 1 -->
<svg width="273pt" height="82pt"
 viewBox="0.00 0.00 272.50 82.00" xmlns="http://www.w3.org/2000/svg" xmlns:xlink="http://www.w3.org/1999/xlink">
<g id="graph0" class="graph" transform="scale(1 1) rotate(0) translate(4 78)">
<title>include/file.h</title>
<!-- Node1 -->
<g id="Node000001" class="node">
<title>Node1</title>
<g id="a_Node000001"><a xlink:title="Cross&#45;platform file handling API with synchronous and asynchronous I/O support.">
<polygon fill="#999999" stroke="#666666" points="178.5,-74 99.5,-74 99.5,-55 178.5,-55 178.5,-74"/>
<text text-anchor="middle" x="139" y="-62" font-family="Helvetica,sans-Serif" font-size="10.00">include/file.h</text>
</a>
</g>
</g>
<!-- Node2 -->
<g id="Node000002" class="node">
<title>Node2</title>
<g id="a_Node000002"><a xlink:href="solidc_8h.html" target="_top" xlink:title="Master header file that includes all SolidC library modules.">
<polygon fill="white" stroke="#666666" points="92,-19 0,-19 0,0 92,0 92,-19"/>
<text text-anchor="middle" x="46" y="-7" font-family="Helvetica,sans-Serif" font-size="10.00">include/solidc.h</text>
</a>
</g>
</g>
<!-- Node1&#45;&gt;Node2 -->
<g id="edge1_Node000001_Node000002" class="edge">
<title>Node1&#45;&gt;Node2</title>
<g id="a_edge1_Node000001_Node000002"><a xlink:title=" ">
<path fill="none" stroke="#63b8ff" d="M115.25,-49.97C98.25,-40.28 75.87,-27.52 61.21,-19.17"/>
<polygon fill="#63b8ff" stroke="#63b8ff" points="113.64,-53.07 124.06,-54.98 117.1,-46.99 113.64,-53.07"/>
</a>
</g>
</g>
<!-- Node3 -->
<g id="Node000003" class="node">
<title>Node3</title>
<g id="a_Node000003"><a xlink:href="file_8c_source.html" target="_top" xlink:title=" ">
<polygon fill="white" stroke="#666666" points="167.5,-19 110.5,-19 110.5,0 167.5,0 167.5,-19"/>
<text text-anchor="middle" x="139" y="-7" font-family="Helvetica,sans-Serif" font-size="10.00">src/file.c</text>
</a>
</g>
</g>
<!-- Node1&#45;&gt;Node3 -->
<g id="edge2_Node000001_Node000003" class="edge">
<title>Node1&#45;&gt;Node3</title>
<g id="a_edge2_Node000001_Node000003"><a xlink:title=" ">
<path fill="none" stroke="#63b8ff" d="M139,-44.66C139,-35.93 139,-25.99 139,-19.09"/>
<polygon fill="#63b8ff" stroke="#63b8ff" points="135.5,-44.75 139,-54.75 142.5,-44.75 135.5,-44.75"/>
</a>
</g>
</g>
<!-- Node4 -->
<g id="Node000004" class="node">
<title>Node4</title>
<g id="a_Node000004"><a xlink:href="filepath_8c_source.html" target="_top" xlink:title=" ">
<polygon fill="white" stroke="#666666" points="264.5,-19 185.5,-19 185.5,0 264.5,0 264.5,-19"/>
<text text-anchor="middle" x="225" y="-7" font-family="Helvetica,sans-Serif" font-size="10.00">src/filepath.c</text>
</a>
</g>
</g>
<!-- Node1&#45;&gt;Node4 -->
<g id="edge3_Node000001_Node000004" class="edge">
<title>Node1&#45;&gt;Node4</title>
<g id="a_edge3_Node000001_Node000004"><a xlink:title=" ">
<path fill="none" stroke="#63b8ff" d="M161.4,-49.7C177.07,-40.04 197.51,-27.44 210.93,-19.17"/>
<polygon fill="#63b8ff" stroke="#63b8ff" points="159.49,-46.76 152.82,-54.98 163.17,-52.72 159.49,-46.76"/>
</a>
</g>
</g>
</g>
</svg>
