<?xml version="1.0" encoding="UTF-8" standalone="no"?>
<!DOCTYPE svg PUBLIC "-//W3C//DTD SVG 1.1//EN"
 "http://www.w3.org/Graphics/SVG/1.1/DTD/svg11.dtd">
<!-- Generated by graphviz version 2.43.0 (0)
 -->
<!-- Title: filepath_join_buf Pages: 1 -->
<svg width="481pt" height="100pt"
 viewBox="0.00 0.00 481.00 100.00" xmlns="http://www.w3.org/2000/svg" xmlns:xlink="http://www.w3.org/1999/xlink">
<g id="graph0" class="graph" transform="scale(1 1) rotate(0) translate(4 96)">
<title>filepath_join_buf</title>
<!-- Node1 -->
<g id="Node000001" class="node">
<title>Node1</title>
<g id="a_Node000001"><a xlink:title=" ">
<polygon fill="#999999" stroke="#666666" points="473,-46 375,-46 375,-27 473,-27 473,-46"/>
<text text-anchor="middle" x="424" y="-34" font-family="Helvetica,sans-Serif" font-size="10.00">filepath_join_buf</text>
</a>
</g>
</g>
<!-- Node2 -->
<g id="Node000002" class="node">
<title>Node2</title>
<g id="a_Node000002"><a xlink:href="filepath_8c.html#af247d0017f4fc538777d06c9f40443bd" target="_top" xlink:title=" ">
<polygon fill="white" stroke="#666666" points="310.5,-74 252.5,-74 252.5,-55 310.5,-55 310.5,-74"/>
<text text-anchor="middle" x="281.5" y="-62" font-family="Helvetica,sans-Serif" font-size="10.00">dir_walk</text>
</a>
</g>
</g>
<!-- Node1&#45;&gt;Node2 -->
<g id="edge1_Node000001_Node000002" class="edge">
<title>Node1&#45;&gt;Node2</title>
<g id="a_edge1_Node000001_Node000002"><a xlink:title=" ">
<path fill="none" stroke="#63b8ff" d="M365.05,-48.05C346.24,-51.8 326.21,-55.79 310.59,-58.9"/>
<polygon fill="#63b8ff" stroke="#63b8ff" points="365.92,-51.44 375.04,-46.06 364.55,-44.58 365.92,-51.44"/>
</a>
</g>
</g>
<!-- Node5 -->
<g id="Node000005" class="node">
<title>Node5</title>
<g id="a_Node000005"><a xlink:href="filepath_8c.html#af54d8cbf030f00437fdef2047afdafb3" target="_top" xlink:title=" ">
<polygon fill="white" stroke="#666666" points="339,-19 224,-19 224,0 339,0 339,-19"/>
<text text-anchor="middle" x="281.5" y="-7" font-family="Helvetica,sans-Serif" font-size="10.00">dir_walk_depth_first</text>
</a>
</g>
</g>
<!-- Node1&#45;&gt;Node5 -->
<g id="edge5_Node000001_Node000005" class="edge">
<title>Node1&#45;&gt;Node5</title>
<g id="a_edge5_Node000001_Node000005"><a xlink:title=" ">
<path fill="none" stroke="#63b8ff" d="M364.55,-25.27C353.85,-23.21 342.79,-21.09 332.37,-19.08"/>
<polygon fill="#63b8ff" stroke="#63b8ff" points="364.17,-28.76 374.65,-27.21 365.49,-21.88 364.17,-28.76"/>
</a>
</g>
</g>
<!-- Node2&#45;&gt;Node2 -->
<g id="edge4_Node000002_Node000002" class="edge">
<title>Node2&#45;&gt;Node2</title>
<g id="a_edge4_Node000002_Node000002"><a xlink:title=" ">
<path fill="none" stroke="#63b8ff" d="M305.2,-83.55C303.62,-88.38 295.72,-92 281.5,-92 258.75,-92 252.17,-82.73 261.77,-74.08"/>
<polygon fill="#63b8ff" stroke="#63b8ff" points="308.33,-81.95 301.23,-74.08 301.87,-84.66 308.33,-81.95"/>
</a>
</g>
</g>
<!-- Node3 -->
<g id="Node000003" class="node">
<title>Node3</title>
<g id="a_Node000003"><a xlink:href="filepath_8c.html#abdfec26581dba8143ff4e170ba4d7ba0" target="_top" xlink:title=" ">
<polygon fill="white" stroke="#666666" points="179,-74 125,-74 125,-55 179,-55 179,-74"/>
<text text-anchor="middle" x="152" y="-62" font-family="Helvetica,sans-Serif" font-size="10.00">dir_size</text>
</a>
</g>
</g>
<!-- Node2&#45;&gt;Node3 -->
<g id="edge2_Node000002_Node000003" class="edge">
<title>Node2&#45;&gt;Node3</title>
<g id="a_edge2_Node000002_Node000003"><a xlink:title=" ">
<path fill="none" stroke="#63b8ff" d="M241.98,-64.5C221.62,-64.5 197.16,-64.5 179.05,-64.5"/>
<polygon fill="#63b8ff" stroke="#63b8ff" points="242.2,-68 252.2,-64.5 242.2,-61 242.2,-68"/>
</a>
</g>
</g>
<!-- Node4 -->
<g id="Node000004" class="node">
<title>Node4</title>
<g id="a_Node000004"><a xlink:href="filepath_8c.html#ad540bdb7e70253c52d292e93a466e920" target="_top" xlink:title=" ">
<polygon fill="white" stroke="#666666" points="80,-74 0,-74 0,-55 80,-55 80,-74"/>
<text text-anchor="middle" x="40" y="-62" font-family="Helvetica,sans-Serif" font-size="10.00">filepath_split</text>
</a>
</g>
</g>
<!-- Node3&#45;&gt;Node4 -->
<g id="edge3_Node000003_Node000004" class="edge">
<title>Node3&#45;&gt;Node4</title>
<g id="a_edge3_Node000003_Node000004"><a xlink:title=" ">
<path fill="none" stroke="#63b8ff" d="M114.75,-64.5C103.69,-64.5 91.48,-64.5 80.23,-64.5"/>
<polygon fill="#63b8ff" stroke="#63b8ff" points="114.93,-68 124.93,-64.5 114.93,-61 114.93,-68"/>
</a>
</g>
</g>
<!-- Node5&#45;&gt;Node5 -->
<g id="edge7_Node000005_Node000005" class="edge">
<title>Node5&#45;&gt;Node5</title>
<g id="a_edge7_Node000005_Node000005"><a xlink:title=" ">
<path fill="none" stroke="#63b8ff" d="M305.2,-28.55C303.62,-33.38 295.72,-37 281.5,-37 258.75,-37 252.17,-27.73 261.77,-19.08"/>
<polygon fill="#63b8ff" stroke="#63b8ff" points="308.33,-26.95 301.23,-19.08 301.87,-29.66 308.33,-26.95"/>
</a>
</g>
</g>
<!-- Node6 -->
<g id="Node000006" class="node">
<title>Node6</title>
<g id="a_Node000006"><a xlink:href="filepath_8c.html#afae02b4234ea48108fb575ac53f7f0a1" target="_top" xlink:title=" ">
<polygon fill="white" stroke="#666666" points="188,-19 116,-19 116,0 188,0 188,-19"/>
<text text-anchor="middle" x="152" y="-7" font-family="Helvetica,sans-Serif" font-size="10.00">dir_remove</text>
</a>
</g>
</g>
<!-- Node5&#45;&gt;Node6 -->
<g id="edge6_Node000005_Node000006" class="edge">
<title>Node5&#45;&gt;Node6</title>
<g id="a_edge6_Node000005_Node000006"><a xlink:title=" ">
<path fill="none" stroke="#63b8ff" d="M213.58,-9.5C204.84,-9.5 196.18,-9.5 188.26,-9.5"/>
<polygon fill="#63b8ff" stroke="#63b8ff" points="213.83,-13 223.83,-9.5 213.83,-6 213.83,-13"/>
</a>
</g>
</g>
</g>
</svg>
