<?xml version="1.0" encoding="UTF-8" standalone="no"?>
<!DOCTYPE svg PUBLIC "-//W3C//DTD SVG 1.1//EN"
 "http://www.w3.org/Graphics/SVG/1.1/DTD/svg11.dtd">
<!-- Generated by graphviz version 2.43.0 (0)
 -->
<!-- Title: filepath_split Pages: 1 -->
<svg width="415pt" height="192pt"
 viewBox="0.00 0.00 415.00 192.00" xmlns="http://www.w3.org/2000/svg" xmlns:xlink="http://www.w3.org/1999/xlink">
<g id="graph0" class="graph" transform="scale(1 1) rotate(0) translate(4 188)">
<title>filepath_split</title>
<!-- Node1 -->
<g id="Node000001" class="node">
<title>Node1</title>
<g id="a_Node000001"><a xlink:title=" ">
<polygon fill="#999999" stroke="#666666" points="80,-92 0,-92 0,-73 80,-73 80,-92"/>
<text text-anchor="middle" x="40" y="-80" font-family="Helvetica,sans-Serif" font-size="10.00">filepath_split</text>
</a>
</g>
</g>
<!-- Node2 -->
<g id="Node000002" class="node">
<title>Node2</title>
<g id="a_Node000002"><a xlink:href="filepath_8c.html#abdfec26581dba8143ff4e170ba4d7ba0" target="_top" xlink:title=" ">
<polygon fill="white" stroke="#666666" points="170,-92 116,-92 116,-73 170,-73 170,-92"/>
<text text-anchor="middle" x="143" y="-80" font-family="Helvetica,sans-Serif" font-size="10.00">dir_size</text>
</a>
</g>
</g>
<!-- Node1&#45;&gt;Node2 -->
<g id="edge1_Node000001_Node000002" class="edge">
<title>Node1&#45;&gt;Node2</title>
<g id="a_edge1_Node000001_Node000002"><a xlink:title=" ">
<path fill="none" stroke="#63b8ff" d="M80.05,-82.5C88.48,-82.5 97.36,-82.5 105.68,-82.5"/>
<polygon fill="#63b8ff" stroke="#63b8ff" points="105.85,-86 115.85,-82.5 105.85,-79 105.85,-86"/>
</a>
</g>
</g>
<!-- Node3 -->
<g id="Node000003" class="node">
<title>Node3</title>
<g id="a_Node000003"><a xlink:href="filepath_8c.html#af247d0017f4fc538777d06c9f40443bd" target="_top" xlink:title=" ">
<polygon fill="white" stroke="#666666" points="264,-92 206,-92 206,-73 264,-73 264,-92"/>
<text text-anchor="middle" x="235" y="-80" font-family="Helvetica,sans-Serif" font-size="10.00">dir_walk</text>
</a>
</g>
</g>
<!-- Node2&#45;&gt;Node3 -->
<g id="edge2_Node000002_Node000003" class="edge">
<title>Node2&#45;&gt;Node3</title>
<g id="a_edge2_Node000002_Node000003"><a xlink:title=" ">
<path fill="none" stroke="#63b8ff" d="M170.03,-82.5C178,-82.5 186.95,-82.5 195.56,-82.5"/>
<polygon fill="#63b8ff" stroke="#63b8ff" points="195.82,-86 205.82,-82.5 195.82,-79 195.82,-86"/>
</a>
</g>
</g>
<!-- Node3&#45;&gt;Node3 -->
<g id="edge7_Node000003_Node000003" class="edge">
<title>Node3&#45;&gt;Node3</title>
<g id="a_edge7_Node000003_Node000003"><a xlink:title=" ">
<path fill="none" stroke="#63b8ff" d="M220.82,-92.08C213.92,-100.73 218.65,-110 235,-110 244.96,-110 250.61,-106.56 251.94,-101.91"/>
<polygon fill="#63b8ff" stroke="#63b8ff" points="255.25,-100.76 249.18,-92.08 248.52,-102.66 255.25,-100.76"/>
</a>
</g>
</g>
<!-- Node4 -->
<g id="Node000004" class="node">
<title>Node4</title>
<g id="a_Node000004"><a xlink:href="filepath_8c.html#ac8e3c6d41770ce40cf0669d2b99b037a" target="_top" xlink:title=" ">
<polygon fill="white" stroke="#666666" points="383.5,-166 323.5,-166 323.5,-147 383.5,-147 383.5,-166"/>
<text text-anchor="middle" x="353.5" y="-154" font-family="Helvetica,sans-Serif" font-size="10.00">dir_close</text>
</a>
</g>
</g>
<!-- Node3&#45;&gt;Node4 -->
<g id="edge3_Node000003_Node000004" class="edge">
<title>Node3&#45;&gt;Node4</title>
<g id="a_edge3_Node000003_Node000004"><a xlink:title=" ">
<path fill="none" stroke="#63b8ff" d="M244.65,-92.1C256.19,-104.39 277.76,-125.63 300,-138.5 304.26,-140.96 308.91,-143.16 313.62,-145.1"/>
<polygon fill="#63b8ff" stroke="#63b8ff" points="312.69,-148.49 323.28,-148.72 315.15,-141.93 312.69,-148.49"/>
</a>
</g>
</g>
<!-- Node5 -->
<g id="Node000005" class="node">
<title>Node5</title>
<g id="a_Node000005"><a xlink:href="filepath_8c.html#aed2439100a9cc53757707f5753afb9a8" target="_top" xlink:title=" ">
<polygon fill="white" stroke="#666666" points="383,-111 324,-111 324,-92 383,-92 383,-111"/>
<text text-anchor="middle" x="353.5" y="-99" font-family="Helvetica,sans-Serif" font-size="10.00">dir_open</text>
</a>
</g>
</g>
<!-- Node3&#45;&gt;Node5 -->
<g id="edge5_Node000003_Node000005" class="edge">
<title>Node3&#45;&gt;Node5</title>
<g id="a_edge5_Node000003_Node000005"><a xlink:title=" ">
<path fill="none" stroke="#63b8ff" d="M264.2,-87.1C279.01,-89.51 297.38,-92.51 313.52,-95.14"/>
<polygon fill="#63b8ff" stroke="#63b8ff" points="313.32,-98.66 323.75,-96.81 314.44,-91.75 313.32,-98.66"/>
</a>
</g>
</g>
<!-- Node6 -->
<g id="Node000006" class="node">
<title>Node6</title>
<g id="a_Node000006"><a xlink:href="filepath_8c.html#a745f8e2389ede07765ad35ba6b6c12ea" target="_top" xlink:title=" ">
<polygon fill="white" stroke="#666666" points="402.5,-74 304.5,-74 304.5,-55 402.5,-55 402.5,-74"/>
<text text-anchor="middle" x="353.5" y="-62" font-family="Helvetica,sans-Serif" font-size="10.00">filepath_join_buf</text>
</a>
</g>
</g>
<!-- Node3&#45;&gt;Node6 -->
<g id="edge8_Node000003_Node000006" class="edge">
<title>Node3&#45;&gt;Node6</title>
<g id="a_edge8_Node000003_Node000006"><a xlink:title=" ">
<path fill="none" stroke="#63b8ff" d="M264.2,-78.14C273.29,-76.74 283.71,-75.13 294.14,-73.52"/>
<polygon fill="#63b8ff" stroke="#63b8ff" points="294.75,-76.96 304.1,-71.98 293.68,-70.05 294.75,-76.96"/>
</a>
</g>
</g>
<!-- Node7 -->
<g id="Node000007" class="node">
<title>Node7</title>
<g id="a_Node000007"><a xlink:href="file_8c.html#ae876faa1a30905108f9ad397ae52d7ac" target="_top" xlink:title=" ">
<polygon fill="white" stroke="#666666" points="407,-19 300,-19 300,0 407,0 407,-19"/>
<text text-anchor="middle" x="353.5" y="-7" font-family="Helvetica,sans-Serif" font-size="10.00">populate_file_attrs</text>
</a>
</g>
</g>
<!-- Node3&#45;&gt;Node7 -->
<g id="edge9_Node000003_Node000007" class="edge">
<title>Node3&#45;&gt;Node7</title>
<g id="a_edge9_Node000003_Node000007"><a xlink:title=" ">
<path fill="none" stroke="#63b8ff" d="M251.23,-72.96C270.94,-60.61 305.5,-38.95 328.69,-24.42"/>
<polygon fill="#63b8ff" stroke="#63b8ff" points="330.65,-27.32 337.27,-19.05 326.93,-21.39 330.65,-27.32"/>
</a>
</g>
</g>
<!-- Node4&#45;&gt;Node4 -->
<g id="edge4_Node000004_Node000004" class="edge">
<title>Node4&#45;&gt;Node4</title>
<g id="a_edge4_Node000004_Node000004"><a xlink:title=" ">
<path fill="none" stroke="#63b8ff" d="M335.31,-166.08C326.46,-174.73 332.53,-184 353.5,-184 366.61,-184 373.89,-180.38 375.35,-175.55"/>
<polygon fill="#63b8ff" stroke="#63b8ff" points="378.56,-174.15 371.69,-166.08 372.03,-176.67 378.56,-174.15"/>
</a>
</g>
</g>
<!-- Node5&#45;&gt;Node5 -->
<g id="edge6_Node000005_Node000005" class="edge">
<title>Node5&#45;&gt;Node5</title>
<g id="a_edge6_Node000005_Node000005"><a xlink:title=" ">
<path fill="none" stroke="#63b8ff" d="M335.31,-111.08C326.46,-119.73 332.53,-129 353.5,-129 366.61,-129 373.89,-125.38 375.35,-120.55"/>
<polygon fill="#63b8ff" stroke="#63b8ff" points="378.56,-119.15 371.69,-111.08 372.03,-121.67 378.56,-119.15"/>
</a>
</g>
</g>
<!-- Node7&#45;&gt;Node7 -->
<g id="edge10_Node000007_Node000007" class="edge">
<title>Node7&#45;&gt;Node7</title>
<g id="a_edge10_Node000007_Node000007"><a xlink:title=" ">
<path fill="none" stroke="#63b8ff" d="M335.31,-19.08C326.46,-27.73 332.53,-37 353.5,-37 366.61,-37 373.89,-33.38 375.35,-28.55"/>
<polygon fill="#63b8ff" stroke="#63b8ff" points="378.56,-27.15 371.69,-19.08 372.03,-29.67 378.56,-27.15"/>
</a>
</g>
</g>
</g>
</svg>
