<?xml version="1.0" encoding="UTF-8" standalone="no"?>
<!DOCTYPE svg PUBLIC "-//W3C//DTD SVG 1.1//EN"
 "http://www.w3.org/Graphics/SVG/1.1/DTD/svg11.dtd">
<!-- Generated by graphviz version 2.43.0 (0)
 -->
<!-- Title: file_open Pages: 1 -->
<svg width="212pt" height="45pt"
 viewBox="0.00 0.00 212.00 45.00" xmlns="http://www.w3.org/2000/svg" xmlns:xlink="http://www.w3.org/1999/xlink">
<g id="graph0" class="graph" transform="scale(1 1) rotate(0) translate(4 41)">
<title>file_open</title>
<!-- Node1 -->
<g id="Node000001" class="node">
<title>Node1</title>
<g id="a_Node000001"><a xlink:title=" ">
<polygon fill="#999999" stroke="#666666" points="61,-19 0,-19 0,0 61,0 61,-19"/>
<text text-anchor="middle" x="30.5" y="-7" font-family="Helvetica,sans-Serif" font-size="10.00">file_open</text>
</a>
</g>
</g>
<!-- Node2 -->
<g id="Node000002" class="node">
<title>Node2</title>
<g id="a_Node000002"><a xlink:href="file_8c.html#ae876faa1a30905108f9ad397ae52d7ac" target="_top" xlink:title=" ">
<polygon fill="white" stroke="#666666" points="204,-19 97,-19 97,0 204,0 204,-19"/>
<text text-anchor="middle" x="150.5" y="-7" font-family="Helvetica,sans-Serif" font-size="10.00">populate_file_attrs</text>
</a>
</g>
</g>
<!-- Node1&#45;&gt;Node2 -->
<g id="edge1_Node000001_Node000002" class="edge">
<title>Node1&#45;&gt;Node2</title>
<g id="a_edge1_Node000001_Node000002"><a xlink:title=" ">
<path fill="none" stroke="#63b8ff" d="M61.28,-9.5C69.11,-9.5 77.87,-9.5 86.74,-9.5"/>
<polygon fill="#63b8ff" stroke="#63b8ff" points="86.77,-13 96.77,-9.5 86.77,-6 86.77,-13"/>
</a>
</g>
</g>
<!-- Node2&#45;&gt;Node2 -->
<g id="edge2_Node000002_Node000002" class="edge">
<title>Node2&#45;&gt;Node2</title>
<g id="a_edge2_Node000002_Node000002"><a xlink:title=" ">
<path fill="none" stroke="#63b8ff" d="M132,-19.08C123.01,-27.73 129.17,-37 150.5,-37 163.83,-37 171.24,-33.38 172.72,-28.55"/>
<polygon fill="#63b8ff" stroke="#63b8ff" points="175.91,-27.11 169,-19.08 169.4,-29.67 175.91,-27.11"/>
</a>
</g>
</g>
</g>
</svg>
