<?xml version="1.0" encoding="UTF-8" standalone="no"?>
<!DOCTYPE svg PUBLIC "-//W3C//DTD SVG 1.1//EN"
 "http://www.w3.org/Graphics/SVG/1.1/DTD/svg11.dtd">
<!-- Generated by graphviz version 2.43.0 (0)
 -->
<!-- Title: user_home_dir Pages: 1 -->
<svg width="270pt" height="64pt"
 viewBox="0.00 0.00 270.00 64.00" xmlns="http://www.w3.org/2000/svg" xmlns:xlink="http://www.w3.org/1999/xlink">
<g id="graph0" class="graph" transform="scale(1 1) rotate(0) translate(4 60)">
<title>user_home_dir</title>
<!-- Node1 -->
<g id="Node000001" class="node">
<title>Node1</title>
<g id="a_Node000001"><a xlink:title=" ">
<polygon fill="#999999" stroke="#666666" points="262,-37 173,-37 173,-18 262,-18 262,-37"/>
<text text-anchor="middle" x="217.5" y="-25" font-family="Helvetica,sans-Serif" font-size="10.00">user_home_dir</text>
</a>
</g>
</g>
<!-- Node2 -->
<g id="Node000002" class="node">
<title>Node2</title>
<g id="a_Node000002"><a xlink:href="filepath_8c.html#a86fa367eb70f4f3d9f302284b8e1c3da" target="_top" xlink:title=" ">
<polygon fill="white" stroke="#666666" points="126.5,-56 10.5,-56 10.5,-37 126.5,-37 126.5,-56"/>
<text text-anchor="middle" x="68.5" y="-44" font-family="Helvetica,sans-Serif" font-size="10.00">filepath_expanduser</text>
</a>
</g>
</g>
<!-- Node1&#45;&gt;Node2 -->
<g id="edge1_Node000001_Node000002" class="edge">
<title>Node1&#45;&gt;Node2</title>
<g id="a_edge1_Node000001_Node000002"><a xlink:title=" ">
<path fill="none" stroke="#63b8ff" d="M162.7,-34.45C150.97,-35.97 138.52,-37.58 126.67,-39.11"/>
<polygon fill="#63b8ff" stroke="#63b8ff" points="163.32,-37.9 172.79,-33.15 162.43,-30.96 163.32,-37.9"/>
</a>
</g>
</g>
<!-- Node3 -->
<g id="Node000003" class="node">
<title>Node3</title>
<g id="a_Node000003"><a xlink:href="filepath_8c.html#af93f98e689ba719837503222b98e19aa" target="_top" xlink:title=" ">
<polygon fill="white" stroke="#666666" points="137,-19 0,-19 0,0 137,0 137,-19"/>
<text text-anchor="middle" x="68.5" y="-7" font-family="Helvetica,sans-Serif" font-size="10.00">filepath_expanduser_buf</text>
</a>
</g>
</g>
<!-- Node1&#45;&gt;Node3 -->
<g id="edge2_Node000001_Node000003" class="edge">
<title>Node1&#45;&gt;Node3</title>
<g id="a_edge2_Node000001_Node000003"><a xlink:title=" ">
<path fill="none" stroke="#63b8ff" d="M162.78,-20.92C154.4,-19.9 145.64,-18.82 137,-17.77"/>
<polygon fill="#63b8ff" stroke="#63b8ff" points="162.44,-24.41 172.79,-22.15 163.29,-17.46 162.44,-24.41"/>
</a>
</g>
</g>
</g>
</svg>
