<?xml version="1.0" encoding="UTF-8" standalone="no"?>
<!DOCTYPE svg PUBLIC "-//W3C//DTD SVG 1.1//EN"
 "http://www.w3.org/Graphics/SVG/1.1/DTD/svg11.dtd">
<!-- Generated by graphviz version 2.43.0 (0)
 -->
<!-- Title: file_readall Pages: 1 -->
<svg width="192pt" height="101pt"
 viewBox="0.00 0.00 192.00 101.00" xmlns="http://www.w3.org/2000/svg" xmlns:xlink="http://www.w3.org/1999/xlink">
<g id="graph0" class="graph" transform="scale(1 1) rotate(0) translate(4 97)">
<title>file_readall</title>
<!-- Node1 -->
<g id="Node000001" class="node">
<title>Node1</title>
<g id="a_Node000001"><a xlink:title=" ">
<polygon fill="#999999" stroke="#666666" points="71,-56 0,-56 0,-37 71,-37 71,-56"/>
<text text-anchor="middle" x="35.5" y="-44" font-family="Helvetica,sans-Serif" font-size="10.00">file_readall</text>
</a>
</g>
</g>
<!-- Node2 -->
<g id="Node000002" class="node">
<title>Node2</title>
<g id="a_Node000002"><a xlink:href="file_8c.html#a7a6a551efeb209a84502fbe7ed3e044b" target="_top" xlink:title=" ">
<polygon fill="white" stroke="#666666" points="184,-93 107,-93 107,-74 184,-74 184,-93"/>
<text text-anchor="middle" x="145.5" y="-81" font-family="Helvetica,sans-Serif" font-size="10.00">file_get_size</text>
</a>
</g>
</g>
<!-- Node1&#45;&gt;Node2 -->
<g id="edge1_Node000001_Node000002" class="edge">
<title>Node1&#45;&gt;Node2</title>
<g id="a_edge1_Node000001_Node000002"><a xlink:title=" ">
<path fill="none" stroke="#63b8ff" d="M64.31,-56.03C77.19,-60.44 92.68,-65.75 106.61,-70.52"/>
<polygon fill="#63b8ff" stroke="#63b8ff" points="105.81,-73.95 116.41,-73.88 108.08,-67.32 105.81,-73.95"/>
</a>
</g>
</g>
<!-- Node3 -->
<g id="Node000003" class="node">
<title>Node3</title>
<g id="a_Node000003"><a xlink:href="file_8c.html#a335f0dbdf02ed9e484f39db8d10a1be0" target="_top" xlink:title=" ">
<polygon fill="white" stroke="#666666" points="175,-56 116,-56 116,-37 175,-37 175,-56"/>
<text text-anchor="middle" x="145.5" y="-44" font-family="Helvetica,sans-Serif" font-size="10.00">file_read</text>
</a>
</g>
</g>
<!-- Node1&#45;&gt;Node3 -->
<g id="edge2_Node000001_Node000003" class="edge">
<title>Node1&#45;&gt;Node3</title>
<g id="a_edge2_Node000001_Node000003"><a xlink:title=" ">
<path fill="none" stroke="#63b8ff" d="M71.27,-46.5C82.31,-46.5 94.6,-46.5 105.9,-46.5"/>
<polygon fill="#63b8ff" stroke="#63b8ff" points="105.94,-50 115.94,-46.5 105.94,-43 105.94,-50"/>
</a>
</g>
</g>
<!-- Node4 -->
<g id="Node000004" class="node">
<title>Node4</title>
<g id="a_Node000004"><a xlink:href="file_8c.html#acab5e1a4fcb3f306832dea97c0c92f70" target="_top" xlink:title=" ">
<polygon fill="white" stroke="#666666" points="172,-19 119,-19 119,0 172,0 172,-19"/>
<text text-anchor="middle" x="145.5" y="-7" font-family="Helvetica,sans-Serif" font-size="10.00">file_tell</text>
</a>
</g>
</g>
<!-- Node1&#45;&gt;Node4 -->
<g id="edge3_Node000001_Node000004" class="edge">
<title>Node1&#45;&gt;Node4</title>
<g id="a_edge3_Node000001_Node000004"><a xlink:title=" ">
<path fill="none" stroke="#63b8ff" d="M64.31,-36.97C77.92,-32.31 94.46,-26.64 108.97,-21.67"/>
<polygon fill="#63b8ff" stroke="#63b8ff" points="110.31,-24.91 118.64,-18.36 108.04,-18.29 110.31,-24.91"/>
</a>
</g>
</g>
</g>
</svg>
