<?xml version="1.0" encoding="UTF-8" standalone="no"?>
<!DOCTYPE svg PUBLIC "-//W3C//DTD SVG 1.1//EN"
 "http://www.w3.org/Graphics/SVG/1.1/DTD/svg11.dtd">
<!-- Generated by graphviz version 2.43.0 (0)
 -->
<!-- Title: dir_remove Pages: 1 -->
<svg width="374pt" height="192pt"
 viewBox="0.00 0.00 374.00 192.00" xmlns="http://www.w3.org/2000/svg" xmlns:xlink="http://www.w3.org/1999/xlink">

<svg id="main" version="1.1" xmlns="http://www.w3.org/2000/svg" xmlns:xlink="http://www.w3.org/1999/xlink" xml:space="preserve" onload="init(evt)">
<style type="text/css"><![CDATA[
.node, .edge {opacity: 0.7;}
.node.selected, .edge.selected {opacity: 1;}
.edge:hover path { stroke: red; }
.edge:hover polygon { stroke: red; fill: red; }
]]></style>
<script type="application/ecmascript" xlink:href="svg.min.js"/>
<svg id="graph" class="graph">
<g id="graph0" class="graph" transform="scale(1 1) rotate(0) translate(4 188)">
<title>dir_remove</title>
<!-- Node1 -->
<g id="Node000001" class="node">
<title>Node1</title>
<g id="a_Node000001"><a xlink:title=" ">
<polygon fill="#999999" stroke="#666666" points="72,-92 0,-92 0,-73 72,-73 72,-92"/>
<text text-anchor="middle" x="36" y="-80" font-family="Helvetica,sans-Serif" font-size="10.00">dir_remove</text>
</a>
</g>
</g>
<!-- Node2 -->
<g id="Node000002" class="node">
<title>Node2</title>
<g id="a_Node000002"><a xlink:href="filepath_8c.html#af54d8cbf030f00437fdef2047afdafb3" target="_top" xlink:title=" ">
<polygon fill="white" stroke="#666666" points="223,-92 108,-92 108,-73 223,-73 223,-92"/>
<text text-anchor="middle" x="165.5" y="-80" font-family="Helvetica,sans-Serif" font-size="10.00">dir_walk_depth_first</text>
</a>
</g>
</g>
<!-- Node1&#45;&gt;Node2 -->
<g id="edge1_Node000001_Node000002" class="edge">
<title>Node1&#45;&gt;Node2</title>
<g id="a_edge1_Node000001_Node000002"><a xlink:title=" ">
<path fill="none" stroke="#63b8ff" d="M72.18,-82.5C80.21,-82.5 89.01,-82.5 97.88,-82.5"/>
<polygon fill="#63b8ff" stroke="#63b8ff" points="97.89,-86 107.89,-82.5 97.89,-79 97.89,-86"/>
</a>
</g>
</g>
<!-- Node2&#45;&gt;Node2 -->
<g id="edge6_Node000002_Node000002" class="edge">
<title>Node2&#45;&gt;Node2</title>
<g id="a_edge6_Node000002_Node000002"><a xlink:title=" ">
<path fill="none" stroke="#63b8ff" d="M145.77,-92.08C136.17,-100.73 142.75,-110 165.5,-110 179.72,-110 187.62,-106.38 189.2,-101.55"/>
<polygon fill="#63b8ff" stroke="#63b8ff" points="192.33,-99.95 185.23,-92.08 185.87,-102.66 192.33,-99.95"/>
</a>
</g>
</g>
<!-- Node3 -->
<g id="Node000003" class="node">
<title>Node3</title>
<g id="a_Node000003"><a xlink:href="filepath_8c.html#ac8e3c6d41770ce40cf0669d2b99b037a" target="_top" xlink:title=" ">
<polygon fill="white" stroke="#666666" points="342.5,-166 282.5,-166 282.5,-147 342.5,-147 342.5,-166"/>
<text text-anchor="middle" x="312.5" y="-154" font-family="Helvetica,sans-Serif" font-size="10.00">dir_close</text>
</a>
</g>
</g>
<!-- Node2&#45;&gt;Node3 -->
<g id="edge2_Node000002_Node000003" class="edge">
<title>Node2&#45;&gt;Node3</title>
<g id="a_edge2_Node000002_Node000003"><a xlink:title=" ">
<path fill="none" stroke="#63b8ff" d="M180.09,-92.01C197.68,-104.01 229.58,-124.75 259,-138.5 263.41,-140.56 268.11,-142.51 272.84,-144.31"/>
<polygon fill="#63b8ff" stroke="#63b8ff" points="271.86,-147.67 282.45,-147.78 274.23,-141.09 271.86,-147.67"/>
</a>
</g>
</g>
<!-- Node4 -->
<g id="Node000004" class="node">
<title>Node4</title>
<g id="a_Node000004"><a xlink:href="filepath_8c.html#aed2439100a9cc53757707f5753afb9a8" target="_top" xlink:title=" ">
<polygon fill="white" stroke="#666666" points="342,-111 283,-111 283,-92 342,-92 342,-111"/>
<text text-anchor="middle" x="312.5" y="-99" font-family="Helvetica,sans-Serif" font-size="10.00">dir_open</text>
</a>
</g>
</g>
<!-- Node2&#45;&gt;Node4 -->
<g id="edge4_Node000002_Node000004" class="edge">
<title>Node2&#45;&gt;Node4</title>
<g id="a_edge4_Node000002_Node000004"><a xlink:title=" ">
<path fill="none" stroke="#63b8ff" d="M223.39,-89.95C239.89,-92.12 257.53,-94.43 272.65,-96.41"/>
<polygon fill="#63b8ff" stroke="#63b8ff" points="272.31,-99.89 282.68,-97.72 273.22,-92.95 272.31,-99.89"/>
</a>
</g>
</g>
<!-- Node5 -->
<g id="Node000005" class="node">
<title>Node5</title>
<g id="a_Node000005"><a xlink:href="filepath_8c.html#a745f8e2389ede07765ad35ba6b6c12ea" target="_top" xlink:title=" ">
<polygon fill="white" stroke="#666666" points="361.5,-74 263.5,-74 263.5,-55 361.5,-55 361.5,-74"/>
<text text-anchor="middle" x="312.5" y="-62" font-family="Helvetica,sans-Serif" font-size="10.00">filepath_join_buf</text>
</a>
</g>
</g>
<!-- Node2&#45;&gt;Node5 -->
<g id="edge7_Node000002_Node000005" class="edge">
<title>Node2&#45;&gt;Node5</title>
<g id="a_edge7_Node000002_Node000005"><a xlink:title=" ">
<path fill="none" stroke="#63b8ff" d="M223.39,-75.44C233.17,-74.22 243.34,-72.96 253.15,-71.74"/>
<polygon fill="#63b8ff" stroke="#63b8ff" points="253.72,-75.2 263.22,-70.49 252.86,-68.25 253.72,-75.2"/>
</a>
</g>
</g>
<!-- Node6 -->
<g id="Node000006" class="node">
<title>Node6</title>
<g id="a_Node000006"><a xlink:href="file_8c.html#ae876faa1a30905108f9ad397ae52d7ac" target="_top" xlink:title=" ">
<polygon fill="white" stroke="#666666" points="366,-19 259,-19 259,0 366,0 366,-19"/>
<text text-anchor="middle" x="312.5" y="-7" font-family="Helvetica,sans-Serif" font-size="10.00">populate_file_attrs</text>
</a>
</g>
</g>
<!-- Node2&#45;&gt;Node6 -->
<g id="edge8_Node000002_Node000006" class="edge">
<title>Node2&#45;&gt;Node6</title>
<g id="a_edge8_Node000002_Node000006"><a xlink:title=" ">
<path fill="none" stroke="#63b8ff" d="M185.46,-72.96C210.42,-60.39 254.53,-38.18 283.39,-23.65"/>
<polygon fill="#63b8ff" stroke="#63b8ff" points="285.18,-26.67 292.54,-19.05 282.03,-20.42 285.18,-26.67"/>
</a>
</g>
</g>
<!-- Node3&#45;&gt;Node3 -->
<g id="edge3_Node000003_Node000003" class="edge">
<title>Node3&#45;&gt;Node3</title>
<g id="a_edge3_Node000003_Node000003"><a xlink:title=" ">
<path fill="none" stroke="#63b8ff" d="M290,-166.08C279.05,-174.73 286.55,-184 312.5,-184 329.12,-184 338.18,-180.2 339.66,-175.19"/>
<polygon fill="#63b8ff" stroke="#63b8ff" points="342.67,-173.39 335,-166.08 336.44,-176.58 342.67,-173.39"/>
</a>
</g>
</g>
<!-- Node4&#45;&gt;Node4 -->
<g id="edge5_Node000004_Node000004" class="edge">
<title>Node4&#45;&gt;Node4</title>
<g id="a_edge5_Node000004_Node000004"><a xlink:title=" ">
<path fill="none" stroke="#63b8ff" d="M290,-111.08C279.05,-119.73 286.55,-129 312.5,-129 329.12,-129 338.18,-125.2 339.66,-120.19"/>
<polygon fill="#63b8ff" stroke="#63b8ff" points="342.67,-118.39 335,-111.08 336.44,-121.58 342.67,-118.39"/>
</a>
</g>
</g>
<!-- Node6&#45;&gt;Node6 -->
<g id="edge9_Node000006_Node000006" class="edge">
<title>Node6&#45;&gt;Node6</title>
<g id="a_edge9_Node000006_Node000006"><a xlink:title=" ">
<path fill="none" stroke="#63b8ff" d="M290,-19.08C279.05,-27.73 286.55,-37 312.5,-37 329.12,-37 338.18,-33.2 339.66,-28.19"/>
<polygon fill="#63b8ff" stroke="#63b8ff" points="342.67,-26.39 335,-19.08 336.44,-29.58 342.67,-26.39"/>
</a>
</g>
</g>
</g>
</svg>
</svg>

<style type='text/css'>
<![CDATA[
[data-mouse-over-selected='false'] { opacity: 0.7; }
[data-mouse-over-selected='true']  { opacity: 1.0; }
]]>
</style>
<script type="application/ecmascript"><![CDATA[
document.addEventListener('DOMContentLoaded', (event) => {
  highlightEdges();
  highlightAdjacentNodes();
});
]]></script>
</svg>
