<?xml version="1.0" encoding="UTF-8" standalone="no"?>
<!DOCTYPE svg PUBLIC "-//W3C//DTD SVG 1.1//EN"
 "http://www.w3.org/Graphics/SVG/1.1/DTD/svg11.dtd">
<!-- Generated by graphviz version 2.43.0 (0)
 -->
<!-- Title: dir_walk Pages: 1 -->
<svg width="209pt" height="192pt"
 viewBox="0.00 0.00 209.00 192.00" xmlns="http://www.w3.org/2000/svg" xmlns:xlink="http://www.w3.org/1999/xlink">

<svg id="main" version="1.1" xmlns="http://www.w3.org/2000/svg" xmlns:xlink="http://www.w3.org/1999/xlink" xml:space="preserve" onload="init(evt)">
<style type="text/css"><![CDATA[
.node, .edge {opacity: 0.7;}
.node.selected, .edge.selected {opacity: 1;}
.edge:hover path { stroke: red; }
.edge:hover polygon { stroke: red; fill: red; }
]]></style>
<script type="application/ecmascript" xlink:href="svg.min.js"/>
<svg id="graph" class="graph">
<g id="graph0" class="graph" transform="scale(1 1) rotate(0) translate(4 188)">
<title>dir_walk</title>
<!-- Node1 -->
<g id="Node000001" class="node">
<title>Node1</title>
<g id="a_Node000001"><a xlink:title=" ">
<polygon fill="#999999" stroke="#666666" points="58,-92 0,-92 0,-73 58,-73 58,-92"/>
<text text-anchor="middle" x="29" y="-80" font-family="Helvetica,sans-Serif" font-size="10.00">dir_walk</text>
</a>
</g>
</g>
<!-- Node1&#45;&gt;Node1 -->
<g id="edge5_Node000001_Node000001" class="edge">
<title>Node1&#45;&gt;Node1</title>
<g id="a_edge5_Node000001_Node000001"><a xlink:title=" ">
<path fill="none" stroke="#63b8ff" d="M10.81,-92.08C1.96,-100.73 8.03,-110 29,-110 42.11,-110 49.39,-106.38 50.85,-101.55"/>
<polygon fill="#63b8ff" stroke="#63b8ff" points="54.06,-100.15 47.19,-92.08 47.53,-102.67 54.06,-100.15"/>
</a>
</g>
</g>
<!-- Node2 -->
<g id="Node000002" class="node">
<title>Node2</title>
<g id="a_Node000002"><a xlink:href="filepath_8c.html#ac8e3c6d41770ce40cf0669d2b99b037a" target="_top" xlink:title=" ">
<polygon fill="white" stroke="#666666" points="177.5,-166 117.5,-166 117.5,-147 177.5,-147 177.5,-166"/>
<text text-anchor="middle" x="147.5" y="-154" font-family="Helvetica,sans-Serif" font-size="10.00">dir_close</text>
</a>
</g>
</g>
<!-- Node1&#45;&gt;Node2 -->
<g id="edge1_Node000001_Node000002" class="edge">
<title>Node1&#45;&gt;Node2</title>
<g id="a_edge1_Node000001_Node000002"><a xlink:title=" ">
<path fill="none" stroke="#63b8ff" d="M38.65,-92.1C50.19,-104.39 71.76,-125.63 94,-138.5 98.26,-140.96 102.91,-143.16 107.62,-145.1"/>
<polygon fill="#63b8ff" stroke="#63b8ff" points="106.69,-148.49 117.28,-148.72 109.15,-141.93 106.69,-148.49"/>
</a>
</g>
</g>
<!-- Node3 -->
<g id="Node000003" class="node">
<title>Node3</title>
<g id="a_Node000003"><a xlink:href="filepath_8c.html#aed2439100a9cc53757707f5753afb9a8" target="_top" xlink:title=" ">
<polygon fill="white" stroke="#666666" points="177,-111 118,-111 118,-92 177,-92 177,-111"/>
<text text-anchor="middle" x="147.5" y="-99" font-family="Helvetica,sans-Serif" font-size="10.00">dir_open</text>
</a>
</g>
</g>
<!-- Node1&#45;&gt;Node3 -->
<g id="edge3_Node000001_Node000003" class="edge">
<title>Node1&#45;&gt;Node3</title>
<g id="a_edge3_Node000001_Node000003"><a xlink:title=" ">
<path fill="none" stroke="#63b8ff" d="M58.2,-87.1C73.01,-89.51 91.38,-92.51 107.52,-95.14"/>
<polygon fill="#63b8ff" stroke="#63b8ff" points="107.32,-98.66 117.75,-96.81 108.44,-91.75 107.32,-98.66"/>
</a>
</g>
</g>
<!-- Node4 -->
<g id="Node000004" class="node">
<title>Node4</title>
<g id="a_Node000004"><a xlink:href="filepath_8c.html#a745f8e2389ede07765ad35ba6b6c12ea" target="_top" xlink:title=" ">
<polygon fill="white" stroke="#666666" points="196.5,-74 98.5,-74 98.5,-55 196.5,-55 196.5,-74"/>
<text text-anchor="middle" x="147.5" y="-62" font-family="Helvetica,sans-Serif" font-size="10.00">filepath_join_buf</text>
</a>
</g>
</g>
<!-- Node1&#45;&gt;Node4 -->
<g id="edge6_Node000001_Node000004" class="edge">
<title>Node1&#45;&gt;Node4</title>
<g id="a_edge6_Node000001_Node000004"><a xlink:title=" ">
<path fill="none" stroke="#63b8ff" d="M58.2,-78.14C67.29,-76.74 77.71,-75.13 88.14,-73.52"/>
<polygon fill="#63b8ff" stroke="#63b8ff" points="88.75,-76.96 98.1,-71.98 87.68,-70.05 88.75,-76.96"/>
</a>
</g>
</g>
<!-- Node5 -->
<g id="Node000005" class="node">
<title>Node5</title>
<g id="a_Node000005"><a xlink:href="file_8c.html#ae876faa1a30905108f9ad397ae52d7ac" target="_top" xlink:title=" ">
<polygon fill="white" stroke="#666666" points="201,-19 94,-19 94,0 201,0 201,-19"/>
<text text-anchor="middle" x="147.5" y="-7" font-family="Helvetica,sans-Serif" font-size="10.00">populate_file_attrs</text>
</a>
</g>
</g>
<!-- Node1&#45;&gt;Node5 -->
<g id="edge7_Node000001_Node000005" class="edge">
<title>Node1&#45;&gt;Node5</title>
<g id="a_edge7_Node000001_Node000005"><a xlink:title=" ">
<path fill="none" stroke="#63b8ff" d="M45.23,-72.96C64.94,-60.61 99.5,-38.95 122.69,-24.42"/>
<polygon fill="#63b8ff" stroke="#63b8ff" points="124.65,-27.32 131.27,-19.05 120.93,-21.39 124.65,-27.32"/>
</a>
</g>
</g>
<!-- Node2&#45;&gt;Node2 -->
<g id="edge2_Node000002_Node000002" class="edge">
<title>Node2&#45;&gt;Node2</title>
<g id="a_edge2_Node000002_Node000002"><a xlink:title=" ">
<path fill="none" stroke="#63b8ff" d="M129.31,-166.08C120.46,-174.73 126.53,-184 147.5,-184 160.61,-184 167.89,-180.38 169.35,-175.55"/>
<polygon fill="#63b8ff" stroke="#63b8ff" points="172.56,-174.15 165.69,-166.08 166.03,-176.67 172.56,-174.15"/>
</a>
</g>
</g>
<!-- Node3&#45;&gt;Node3 -->
<g id="edge4_Node000003_Node000003" class="edge">
<title>Node3&#45;&gt;Node3</title>
<g id="a_edge4_Node000003_Node000003"><a xlink:title=" ">
<path fill="none" stroke="#63b8ff" d="M129.31,-111.08C120.46,-119.73 126.53,-129 147.5,-129 160.61,-129 167.89,-125.38 169.35,-120.55"/>
<polygon fill="#63b8ff" stroke="#63b8ff" points="172.56,-119.15 165.69,-111.08 166.03,-121.67 172.56,-119.15"/>
</a>
</g>
</g>
<!-- Node5&#45;&gt;Node5 -->
<g id="edge8_Node000005_Node000005" class="edge">
<title>Node5&#45;&gt;Node5</title>
<g id="a_edge8_Node000005_Node000005"><a xlink:title=" ">
<path fill="none" stroke="#63b8ff" d="M129.31,-19.08C120.46,-27.73 126.53,-37 147.5,-37 160.61,-37 167.89,-33.38 169.35,-28.55"/>
<polygon fill="#63b8ff" stroke="#63b8ff" points="172.56,-27.15 165.69,-19.08 166.03,-29.67 172.56,-27.15"/>
</a>
</g>
</g>
</g>
</svg>
</svg>

<style type='text/css'>
<![CDATA[
[data-mouse-over-selected='false'] { opacity: 0.7; }
[data-mouse-over-selected='true']  { opacity: 1.0; }
]]>
</style>
<script type="application/ecmascript"><![CDATA[
document.addEventListener('DOMContentLoaded', (event) => {
  highlightEdges();
  highlightAdjacentNodes();
});
]]></script>
</svg>
