<?xml version="1.0" encoding="UTF-8" standalone="no"?>
<!DOCTYPE svg PUBLIC "-//W3C//DTD SVG 1.1//EN"
 "http://www.w3.org/Graphics/SVG/1.1/DTD/svg11.dtd">
<!-- Generated by graphviz version 2.43.0 (0)
 -->
<!-- Title: dir_walk_depth_first Pages: 1 -->
<svg width="266pt" height="192pt"
 viewBox="0.00 0.00 266.00 192.00" xmlns="http://www.w3.org/2000/svg" xmlns:xlink="http://www.w3.org/1999/xlink">
<g id="graph0" class="graph" transform="scale(1 1) rotate(0) translate(4 188)">
<title>dir_walk_depth_first</title>
<!-- Node1 -->
<g id="Node000001" class="node">
<title>Node1</title>
<g id="a_Node000001"><a xlink:title=" ">
<polygon fill="#999999" stroke="#666666" points="115,-92 0,-92 0,-73 115,-73 115,-92"/>
<text text-anchor="middle" x="57.5" y="-80" font-family="Helvetica,sans-Serif" font-size="10.00">dir_walk_depth_first</text>
</a>
</g>
</g>
<!-- Node1&#45;&gt;Node1 -->
<g id="edge5_Node000001_Node000001" class="edge">
<title>Node1&#45;&gt;Node1</title>
<g id="a_edge5_Node000001_Node000001"><a xlink:title=" ">
<path fill="none" stroke="#63b8ff" d="M35,-92.08C24.05,-100.73 31.55,-110 57.5,-110 74.12,-110 83.18,-106.2 84.66,-101.19"/>
<polygon fill="#63b8ff" stroke="#63b8ff" points="87.67,-99.39 80,-92.08 81.44,-102.58 87.67,-99.39"/>
</a>
</g>
</g>
<!-- Node2 -->
<g id="Node000002" class="node">
<title>Node2</title>
<g id="a_Node000002"><a xlink:href="filepath_8c.html#ac8e3c6d41770ce40cf0669d2b99b037a" target="_top" xlink:title=" ">
<polygon fill="white" stroke="#666666" points="234.5,-166 174.5,-166 174.5,-147 234.5,-147 234.5,-166"/>
<text text-anchor="middle" x="204.5" y="-154" font-family="Helvetica,sans-Serif" font-size="10.00">dir_close</text>
</a>
</g>
</g>
<!-- Node1&#45;&gt;Node2 -->
<g id="edge1_Node000001_Node000002" class="edge">
<title>Node1&#45;&gt;Node2</title>
<g id="a_edge1_Node000001_Node000002"><a xlink:title=" ">
<path fill="none" stroke="#63b8ff" d="M72.09,-92.01C89.68,-104.01 121.58,-124.75 151,-138.5 155.41,-140.56 160.11,-142.51 164.84,-144.31"/>
<polygon fill="#63b8ff" stroke="#63b8ff" points="163.86,-147.67 174.45,-147.78 166.23,-141.09 163.86,-147.67"/>
</a>
</g>
</g>
<!-- Node3 -->
<g id="Node000003" class="node">
<title>Node3</title>
<g id="a_Node000003"><a xlink:href="filepath_8c.html#aed2439100a9cc53757707f5753afb9a8" target="_top" xlink:title=" ">
<polygon fill="white" stroke="#666666" points="234,-111 175,-111 175,-92 234,-92 234,-111"/>
<text text-anchor="middle" x="204.5" y="-99" font-family="Helvetica,sans-Serif" font-size="10.00">dir_open</text>
</a>
</g>
</g>
<!-- Node1&#45;&gt;Node3 -->
<g id="edge3_Node000001_Node000003" class="edge">
<title>Node1&#45;&gt;Node3</title>
<g id="a_edge3_Node000001_Node000003"><a xlink:title=" ">
<path fill="none" stroke="#63b8ff" d="M115.39,-89.95C131.89,-92.12 149.53,-94.43 164.65,-96.41"/>
<polygon fill="#63b8ff" stroke="#63b8ff" points="164.31,-99.89 174.68,-97.72 165.22,-92.95 164.31,-99.89"/>
</a>
</g>
</g>
<!-- Node4 -->
<g id="Node000004" class="node">
<title>Node4</title>
<g id="a_Node000004"><a xlink:href="filepath_8c.html#a745f8e2389ede07765ad35ba6b6c12ea" target="_top" xlink:title=" ">
<polygon fill="white" stroke="#666666" points="253.5,-74 155.5,-74 155.5,-55 253.5,-55 253.5,-74"/>
<text text-anchor="middle" x="204.5" y="-62" font-family="Helvetica,sans-Serif" font-size="10.00">filepath_join_buf</text>
</a>
</g>
</g>
<!-- Node1&#45;&gt;Node4 -->
<g id="edge6_Node000001_Node000004" class="edge">
<title>Node1&#45;&gt;Node4</title>
<g id="a_edge6_Node000001_Node000004"><a xlink:title=" ">
<path fill="none" stroke="#63b8ff" d="M115.39,-75.44C125.17,-74.22 135.34,-72.96 145.15,-71.74"/>
<polygon fill="#63b8ff" stroke="#63b8ff" points="145.72,-75.2 155.22,-70.49 144.86,-68.25 145.72,-75.2"/>
</a>
</g>
</g>
<!-- Node5 -->
<g id="Node000005" class="node">
<title>Node5</title>
<g id="a_Node000005"><a xlink:href="file_8c.html#ae876faa1a30905108f9ad397ae52d7ac" target="_top" xlink:title=" ">
<polygon fill="white" stroke="#666666" points="258,-19 151,-19 151,0 258,0 258,-19"/>
<text text-anchor="middle" x="204.5" y="-7" font-family="Helvetica,sans-Serif" font-size="10.00">populate_file_attrs</text>
</a>
</g>
</g>
<!-- Node1&#45;&gt;Node5 -->
<g id="edge7_Node000001_Node000005" class="edge">
<title>Node1&#45;&gt;Node5</title>
<g id="a_edge7_Node000001_Node000005"><a xlink:title=" ">
<path fill="none" stroke="#63b8ff" d="M77.46,-72.96C102.42,-60.39 146.53,-38.18 175.39,-23.65"/>
<polygon fill="#63b8ff" stroke="#63b8ff" points="177.18,-26.67 184.54,-19.05 174.03,-20.42 177.18,-26.67"/>
</a>
</g>
</g>
<!-- Node2&#45;&gt;Node2 -->
<g id="edge2_Node000002_Node000002" class="edge">
<title>Node2&#45;&gt;Node2</title>
<g id="a_edge2_Node000002_Node000002"><a xlink:title=" ">
<path fill="none" stroke="#63b8ff" d="M182,-166.08C171.05,-174.73 178.55,-184 204.5,-184 221.12,-184 230.18,-180.2 231.66,-175.19"/>
<polygon fill="#63b8ff" stroke="#63b8ff" points="234.67,-173.39 227,-166.08 228.44,-176.58 234.67,-173.39"/>
</a>
</g>
</g>
<!-- Node3&#45;&gt;Node3 -->
<g id="edge4_Node000003_Node000003" class="edge">
<title>Node3&#45;&gt;Node3</title>
<g id="a_edge4_Node000003_Node000003"><a xlink:title=" ">
<path fill="none" stroke="#63b8ff" d="M182,-111.08C171.05,-119.73 178.55,-129 204.5,-129 221.12,-129 230.18,-125.2 231.66,-120.19"/>
<polygon fill="#63b8ff" stroke="#63b8ff" points="234.67,-118.39 227,-111.08 228.44,-121.58 234.67,-118.39"/>
</a>
</g>
</g>
<!-- Node5&#45;&gt;Node5 -->
<g id="edge8_Node000005_Node000005" class="edge">
<title>Node5&#45;&gt;Node5</title>
<g id="a_edge8_Node000005_Node000005"><a xlink:title=" ">
<path fill="none" stroke="#63b8ff" d="M182,-19.08C171.05,-27.73 178.55,-37 204.5,-37 221.12,-37 230.18,-33.2 231.66,-28.19"/>
<polygon fill="#63b8ff" stroke="#63b8ff" points="234.67,-26.39 227,-19.08 228.44,-29.58 234.67,-26.39"/>
</a>
</g>
</g>
</g>
</svg>
