<?xml version="1.0" encoding="UTF-8" standalone="no"?>
<!DOCTYPE svg PUBLIC "-//W3C//DTD SVG 1.1//EN"
 "http://www.w3.org/Graphics/SVG/1.1/DTD/svg11.dtd">
<!-- Generated by graphviz version 2.43.0 (0)
 -->
<!-- Title: fp_random_name Pages: 1 -->
<svg width="235pt" height="64pt"
 viewBox="0.00 0.00 235.00 64.00" xmlns="http://www.w3.org/2000/svg" xmlns:xlink="http://www.w3.org/1999/xlink">
<g id="graph0" class="graph" transform="scale(1 1) rotate(0) translate(4 60)">
<title>fp_random_name</title>
<!-- Node1 -->
<g id="Node000001" class="node">
<title>Node1</title>
<g id="a_Node000001"><a xlink:title="Generates a random NUL&#45;terminated name of len characters drawn from [A&#45;Za&#45;z0&#45;9] via fp_random_bytes()...">
<polygon fill="#999999" stroke="#666666" points="227,-37 125,-37 125,-18 227,-18 227,-37"/>
<text text-anchor="middle" x="176" y="-25" font-family="Helvetica,sans-Serif" font-size="10.00">fp_random_name</text>
</a>
</g>
</g>
<!-- Node2 -->
<g id="Node000002" class="node">
<title>Node2</title>
<g id="a_Node000002"><a xlink:href="filepath_8c.html#a3511af86bb8f63da6e55c3e393349b12" target="_top" xlink:title="Builds &quot;&lt;tempdir&gt;/&lt;random prefix&gt;XXXXXX&quot; and creates the directory via fp_create_tempdir().">
<polygon fill="white" stroke="#666666" points="88,-56 1,-56 1,-37 88,-37 88,-56"/>
<text text-anchor="middle" x="44.5" y="-44" font-family="Helvetica,sans-Serif" font-size="10.00">make_tempdir</text>
</a>
</g>
</g>
<!-- Node1&#45;&gt;Node2 -->
<g id="edge1_Node000001_Node000002" class="edge">
<title>Node1&#45;&gt;Node2</title>
<g id="a_edge1_Node000001_Node000002"><a xlink:title=" ">
<path fill="none" stroke="#63b8ff" d="M114.88,-36.32C105.9,-37.64 96.8,-38.97 88.28,-40.22"/>
<polygon fill="#63b8ff" stroke="#63b8ff" points="115.55,-39.76 124.93,-34.85 114.53,-32.83 115.55,-39.76"/>
</a>
</g>
</g>
<!-- Node3 -->
<g id="Node000003" class="node">
<title>Node3</title>
<g id="a_Node000003"><a xlink:href="filepath_8c.html#a8a7e59889c6bd2c87851dc91e65434bb" target="_top" xlink:title="Builds &quot;&lt;tempdir&gt;/&lt;random prefix&gt;XXXXXX&quot; and creates the file via fp_create_tempfile() (mode 0600 on ...">
<polygon fill="white" stroke="#666666" points="89,-19 0,-19 0,0 89,0 89,-19"/>
<text text-anchor="middle" x="44.5" y="-7" font-family="Helvetica,sans-Serif" font-size="10.00">make_tempfile</text>
</a>
</g>
</g>
<!-- Node1&#45;&gt;Node3 -->
<g id="edge2_Node000001_Node000003" class="edge">
<title>Node1&#45;&gt;Node3</title>
<g id="a_edge2_Node000001_Node000003"><a xlink:title=" ">
<path fill="none" stroke="#63b8ff" d="M114.84,-19.14C106.16,-17.93 97.38,-16.71 89.11,-15.56"/>
<polygon fill="#63b8ff" stroke="#63b8ff" points="114.55,-22.63 124.93,-20.54 115.51,-15.7 114.55,-22.63"/>
</a>
</g>
</g>
</g>
</svg>
