<?xml version="1.0" encoding="UTF-8" standalone="no"?>
<!DOCTYPE svg PUBLIC "-//W3C//DTD SVG 1.1//EN"
 "http://www.w3.org/Graphics/SVG/1.1/DTD/svg11.dtd">
<!-- Generated by graphviz version 2.43.0 (0)
 -->
<!-- Title: get_tempdir Pages: 1 -->
<svg width="209pt" height="64pt"
 viewBox="0.00 0.00 209.00 64.00" xmlns="http://www.w3.org/2000/svg" xmlns:xlink="http://www.w3.org/1999/xlink">
<g id="graph0" class="graph" transform="scale(1 1) rotate(0) translate(4 60)">
<title>get_tempdir</title>
<!-- Node1 -->
<g id="Node000001" class="node">
<title>Node1</title>
<g id="a_Node000001"><a xlink:title=" ">
<polygon fill="#999999" stroke="#666666" points="201,-37 125,-37 125,-18 201,-18 201,-37"/>
<text text-anchor="middle" x="163" y="-25" font-family="Helvetica,sans-Serif" font-size="10.00">get_tempdir</text>
</a>
</g>
</g>
<!-- Node2 -->
<g id="Node000002" class="node">
<title>Node2</title>
<g id="a_Node000002"><a xlink:href="filepath_8c.html#a3511af86bb8f63da6e55c3e393349b12" target="_top" xlink:title=" ">
<polygon fill="white" stroke="#666666" points="88,-56 1,-56 1,-37 88,-37 88,-56"/>
<text text-anchor="middle" x="44.5" y="-44" font-family="Helvetica,sans-Serif" font-size="10.00">make_tempdir</text>
</a>
</g>
</g>
<!-- Node1&#45;&gt;Node2 -->
<g id="edge1_Node000001_Node000002" class="edge">
<title>Node1&#45;&gt;Node2</title>
<g id="a_edge1_Node000001_Node000002"><a xlink:title=" ">
<path fill="none" stroke="#63b8ff" d="M114.67,-35.22C105.84,-36.66 96.67,-38.15 88,-39.57"/>
<polygon fill="#63b8ff" stroke="#63b8ff" points="115.51,-38.63 124.82,-33.56 114.39,-31.72 115.51,-38.63"/>
</a>
</g>
</g>
<!-- Node3 -->
<g id="Node000003" class="node">
<title>Node3</title>
<g id="a_Node000003"><a xlink:href="filepath_8c.html#a8a7e59889c6bd2c87851dc91e65434bb" target="_top" xlink:title=" ">
<polygon fill="white" stroke="#666666" points="89,-19 0,-19 0,0 89,0 89,-19"/>
<text text-anchor="middle" x="44.5" y="-7" font-family="Helvetica,sans-Serif" font-size="10.00">make_tempfile</text>
</a>
</g>
</g>
<!-- Node1&#45;&gt;Node3 -->
<g id="edge2_Node000001_Node000003" class="edge">
<title>Node1&#45;&gt;Node3</title>
<g id="a_edge2_Node000001_Node000003"><a xlink:title=" ">
<path fill="none" stroke="#63b8ff" d="M114.74,-20.2C106.31,-18.9 97.57,-17.54 89.24,-16.26"/>
<polygon fill="#63b8ff" stroke="#63b8ff" points="114.4,-23.69 124.82,-21.76 115.47,-16.77 114.4,-23.69"/>
</a>
</g>
</g>
</g>
</svg>
