<?xml version="1.0" encoding="UTF-8" standalone="no"?>
<!DOCTYPE svg PUBLIC "-//W3C//DTD SVG 1.1//EN"
 "http://www.w3.org/Graphics/SVG/1.1/DTD/svg11.dtd">
<!-- Generated by graphviz version 2.43.0 (0)
 -->
<!-- Title: dir_list Pages: 1 -->
<svg width="154pt" height="155pt"
 viewBox="0.00 0.00 154.00 155.00" xmlns="http://www.w3.org/2000/svg" xmlns:xlink="http://www.w3.org/1999/xlink">

<svg id="main" version="1.1" xmlns="http://www.w3.org/2000/svg" xmlns:xlink="http://www.w3.org/1999/xlink" xml:space="preserve" onload="init(evt)">
<style type="text/css"><![CDATA[
.node, .edge {opacity: 0.7;}
.node.selected, .edge.selected {opacity: 1;}
.edge:hover path { stroke: red; }
.edge:hover polygon { stroke: red; fill: red; }
]]></style>
<script type="application/ecmascript" xlink:href="svg.min.js"/>
<svg id="graph" class="graph">
<g id="graph0" class="graph" transform="scale(1 1) rotate(0) translate(4 151)">
<title>dir_list</title>
<!-- Node1 -->
<g id="Node000001" class="node">
<title>Node1</title>
<g id="a_Node000001"><a xlink:title=" ">
<polygon fill="#999999" stroke="#666666" points="50,-74 0,-74 0,-55 50,-55 50,-74"/>
<text text-anchor="middle" x="25" y="-62" font-family="Helvetica,sans-Serif" font-size="10.00">dir_list</text>
</a>
</g>
</g>
<!-- Node2 -->
<g id="Node000002" class="node">
<title>Node2</title>
<g id="a_Node000002"><a xlink:href="filepath_8c.html#ac8e3c6d41770ce40cf0669d2b99b037a" target="_top" xlink:title=" ">
<polygon fill="white" stroke="#666666" points="146,-129 86,-129 86,-110 146,-110 146,-129"/>
<text text-anchor="middle" x="116" y="-117" font-family="Helvetica,sans-Serif" font-size="10.00">dir_close</text>
</a>
</g>
</g>
<!-- Node1&#45;&gt;Node2 -->
<g id="edge1_Node000001_Node000002" class="edge">
<title>Node1&#45;&gt;Node2</title>
<g id="a_edge1_Node000001_Node000002"><a xlink:title=" ">
<path fill="none" stroke="#63b8ff" d="M41.5,-74.08C55.07,-82.47 75.02,-94.79 90.71,-104.49"/>
<polygon fill="#63b8ff" stroke="#63b8ff" points="89.03,-107.57 99.38,-109.84 92.71,-101.61 89.03,-107.57"/>
</a>
</g>
</g>
<!-- Node3 -->
<g id="Node000003" class="node">
<title>Node3</title>
<g id="a_Node000003"><a xlink:href="filepath_8c.html#a21d34a2b1af79607edb3e2afe8f7c3be" target="_top" xlink:title=" ">
<polygon fill="white" stroke="#666666" points="144,-74 88,-74 88,-55 144,-55 144,-74"/>
<text text-anchor="middle" x="116" y="-62" font-family="Helvetica,sans-Serif" font-size="10.00">dir_next</text>
</a>
</g>
</g>
<!-- Node1&#45;&gt;Node3 -->
<g id="edge3_Node000001_Node000003" class="edge">
<title>Node1&#45;&gt;Node3</title>
<g id="a_edge3_Node000001_Node000003"><a xlink:title=" ">
<path fill="none" stroke="#63b8ff" d="M50.32,-64.5C58.77,-64.5 68.45,-64.5 77.71,-64.5"/>
<polygon fill="#63b8ff" stroke="#63b8ff" points="77.89,-68 87.89,-64.5 77.89,-61 77.89,-68"/>
</a>
</g>
</g>
<!-- Node4 -->
<g id="Node000004" class="node">
<title>Node4</title>
<g id="a_Node000004"><a xlink:href="filepath_8c.html#aed2439100a9cc53757707f5753afb9a8" target="_top" xlink:title=" ">
<polygon fill="white" stroke="#666666" points="145.5,-19 86.5,-19 86.5,0 145.5,0 145.5,-19"/>
<text text-anchor="middle" x="116" y="-7" font-family="Helvetica,sans-Serif" font-size="10.00">dir_open</text>
</a>
</g>
</g>
<!-- Node1&#45;&gt;Node4 -->
<g id="edge5_Node000001_Node000004" class="edge">
<title>Node1&#45;&gt;Node4</title>
<g id="a_edge5_Node000001_Node000004"><a xlink:title=" ">
<path fill="none" stroke="#63b8ff" d="M41.5,-54.92C55.07,-46.53 75.02,-34.21 90.71,-24.51"/>
<polygon fill="#63b8ff" stroke="#63b8ff" points="92.71,-27.39 99.38,-19.16 89.03,-21.43 92.71,-27.39"/>
</a>
</g>
</g>
<!-- Node2&#45;&gt;Node2 -->
<g id="edge2_Node000002_Node000002" class="edge">
<title>Node2&#45;&gt;Node2</title>
<g id="a_edge2_Node000002_Node000002"><a xlink:title=" ">
<path fill="none" stroke="#63b8ff" d="M102.13,-129.08C95.38,-137.73 100,-147 116,-147 125.75,-147 131.27,-143.56 132.57,-138.91"/>
<polygon fill="#63b8ff" stroke="#63b8ff" points="135.9,-137.8 129.87,-129.08 129.15,-139.65 135.9,-137.8"/>
</a>
</g>
</g>
<!-- Node3&#45;&gt;Node3 -->
<g id="edge4_Node000003_Node000003" class="edge">
<title>Node3&#45;&gt;Node3</title>
<g id="a_edge4_Node000003_Node000003"><a xlink:title=" ">
<path fill="none" stroke="#63b8ff" d="M102.13,-74.08C95.38,-82.73 100,-92 116,-92 125.75,-92 131.27,-88.56 132.57,-83.91"/>
<polygon fill="#63b8ff" stroke="#63b8ff" points="135.9,-82.8 129.87,-74.08 129.15,-84.65 135.9,-82.8"/>
</a>
</g>
</g>
<!-- Node4&#45;&gt;Node4 -->
<g id="edge6_Node000004_Node000004" class="edge">
<title>Node4&#45;&gt;Node4</title>
<g id="a_edge6_Node000004_Node000004"><a xlink:title=" ">
<path fill="none" stroke="#63b8ff" d="M102.13,-19.08C95.38,-27.73 100,-37 116,-37 125.75,-37 131.27,-33.56 132.57,-28.91"/>
<polygon fill="#63b8ff" stroke="#63b8ff" points="135.9,-27.8 129.87,-19.08 129.15,-29.65 135.9,-27.8"/>
</a>
</g>
</g>
</g>
</svg>
</svg>

<style type='text/css'>
<![CDATA[
[data-mouse-over-selected='false'] { opacity: 0.7; }
[data-mouse-over-selected='true']  { opacity: 1.0; }
]]>
</style>
<script type="application/ecmascript"><![CDATA[
document.addEventListener('DOMContentLoaded', (event) => {
  highlightEdges();
  highlightAdjacentNodes();
});
]]></script>
</svg>
