<?xml version="1.0" encoding="UTF-8" standalone="no"?>
<!DOCTYPE svg PUBLIC "-//W3C//DTD SVG 1.1//EN"
 "http://www.w3.org/Graphics/SVG/1.1/DTD/svg11.dtd">
<!-- Generated by graphviz version 2.43.0 (0)
 -->
<!-- Title: dir_size Pages: 1 -->
<svg width="299pt" height="192pt"
 viewBox="0.00 0.00 299.00 192.00" xmlns="http://www.w3.org/2000/svg" xmlns:xlink="http://www.w3.org/1999/xlink">
<g id="graph0" class="graph" transform="scale(1 1) rotate(0) translate(4 188)">
<title>dir_size</title>
<!-- Node1 -->
<g id="Node000001" class="node">
<title>Node1</title>
<g id="a_Node000001"><a xlink:title=" ">
<polygon fill="#999999" stroke="#666666" points="54,-92 0,-92 0,-73 54,-73 54,-92"/>
<text text-anchor="middle" x="27" y="-80" font-family="Helvetica,sans-Serif" font-size="10.00">dir_size</text>
</a>
</g>
</g>
<!-- Node2 -->
<g id="Node000002" class="node">
<title>Node2</title>
<g id="a_Node000002"><a xlink:href="filepath_8c.html#af247d0017f4fc538777d06c9f40443bd" target="_top" xlink:title=" ">
<polygon fill="white" stroke="#666666" points="148,-92 90,-92 90,-73 148,-73 148,-92"/>
<text text-anchor="middle" x="119" y="-80" font-family="Helvetica,sans-Serif" font-size="10.00">dir_walk</text>
</a>
</g>
</g>
<!-- Node1&#45;&gt;Node2 -->
<g id="edge1_Node000001_Node000002" class="edge">
<title>Node1&#45;&gt;Node2</title>
<g id="a_edge1_Node000001_Node000002"><a xlink:title=" ">
<path fill="none" stroke="#63b8ff" d="M54.03,-82.5C62,-82.5 70.95,-82.5 79.56,-82.5"/>
<polygon fill="#63b8ff" stroke="#63b8ff" points="79.82,-86 89.82,-82.5 79.82,-79 79.82,-86"/>
</a>
</g>
</g>
<!-- Node2&#45;&gt;Node2 -->
<g id="edge6_Node000002_Node000002" class="edge">
<title>Node2&#45;&gt;Node2</title>
<g id="a_edge6_Node000002_Node000002"><a xlink:title=" ">
<path fill="none" stroke="#63b8ff" d="M104.82,-92.08C97.92,-100.73 102.65,-110 119,-110 128.96,-110 134.61,-106.56 135.94,-101.91"/>
<polygon fill="#63b8ff" stroke="#63b8ff" points="139.25,-100.76 133.18,-92.08 132.52,-102.66 139.25,-100.76"/>
</a>
</g>
</g>
<!-- Node3 -->
<g id="Node000003" class="node">
<title>Node3</title>
<g id="a_Node000003"><a xlink:href="filepath_8c.html#ac8e3c6d41770ce40cf0669d2b99b037a" target="_top" xlink:title=" ">
<polygon fill="white" stroke="#666666" points="267.5,-166 207.5,-166 207.5,-147 267.5,-147 267.5,-166"/>
<text text-anchor="middle" x="237.5" y="-154" font-family="Helvetica,sans-Serif" font-size="10.00">dir_close</text>
</a>
</g>
</g>
<!-- Node2&#45;&gt;Node3 -->
<g id="edge2_Node000002_Node000003" class="edge">
<title>Node2&#45;&gt;Node3</title>
<g id="a_edge2_Node000002_Node000003"><a xlink:title=" ">
<path fill="none" stroke="#63b8ff" d="M128.65,-92.1C140.19,-104.39 161.76,-125.63 184,-138.5 188.26,-140.96 192.91,-143.16 197.62,-145.1"/>
<polygon fill="#63b8ff" stroke="#63b8ff" points="196.69,-148.49 207.28,-148.72 199.15,-141.93 196.69,-148.49"/>
</a>
</g>
</g>
<!-- Node4 -->
<g id="Node000004" class="node">
<title>Node4</title>
<g id="a_Node000004"><a xlink:href="filepath_8c.html#aed2439100a9cc53757707f5753afb9a8" target="_top" xlink:title=" ">
<polygon fill="white" stroke="#666666" points="267,-111 208,-111 208,-92 267,-92 267,-111"/>
<text text-anchor="middle" x="237.5" y="-99" font-family="Helvetica,sans-Serif" font-size="10.00">dir_open</text>
</a>
</g>
</g>
<!-- Node2&#45;&gt;Node4 -->
<g id="edge4_Node000002_Node000004" class="edge">
<title>Node2&#45;&gt;Node4</title>
<g id="a_edge4_Node000002_Node000004"><a xlink:title=" ">
<path fill="none" stroke="#63b8ff" d="M148.2,-87.1C163.01,-89.51 181.38,-92.51 197.52,-95.14"/>
<polygon fill="#63b8ff" stroke="#63b8ff" points="197.32,-98.66 207.75,-96.81 198.44,-91.75 197.32,-98.66"/>
</a>
</g>
</g>
<!-- Node5 -->
<g id="Node000005" class="node">
<title>Node5</title>
<g id="a_Node000005"><a xlink:href="filepath_8c.html#a745f8e2389ede07765ad35ba6b6c12ea" target="_top" xlink:title=" ">
<polygon fill="white" stroke="#666666" points="286.5,-74 188.5,-74 188.5,-55 286.5,-55 286.5,-74"/>
<text text-anchor="middle" x="237.5" y="-62" font-family="Helvetica,sans-Serif" font-size="10.00">filepath_join_buf</text>
</a>
</g>
</g>
<!-- Node2&#45;&gt;Node5 -->
<g id="edge7_Node000002_Node000005" class="edge">
<title>Node2&#45;&gt;Node5</title>
<g id="a_edge7_Node000002_Node000005"><a xlink:title=" ">
<path fill="none" stroke="#63b8ff" d="M148.2,-78.14C157.29,-76.74 167.71,-75.13 178.14,-73.52"/>
<polygon fill="#63b8ff" stroke="#63b8ff" points="178.75,-76.96 188.1,-71.98 177.68,-70.05 178.75,-76.96"/>
</a>
</g>
</g>
<!-- Node6 -->
<g id="Node000006" class="node">
<title>Node6</title>
<g id="a_Node000006"><a xlink:href="file_8c.html#ae876faa1a30905108f9ad397ae52d7ac" target="_top" xlink:title=" ">
<polygon fill="white" stroke="#666666" points="291,-19 184,-19 184,0 291,0 291,-19"/>
<text text-anchor="middle" x="237.5" y="-7" font-family="Helvetica,sans-Serif" font-size="10.00">populate_file_attrs</text>
</a>
</g>
</g>
<!-- Node2&#45;&gt;Node6 -->
<g id="edge8_Node000002_Node000006" class="edge">
<title>Node2&#45;&gt;Node6</title>
<g id="a_edge8_Node000002_Node000006"><a xlink:title=" ">
<path fill="none" stroke="#63b8ff" d="M135.23,-72.96C154.94,-60.61 189.5,-38.95 212.69,-24.42"/>
<polygon fill="#63b8ff" stroke="#63b8ff" points="214.65,-27.32 221.27,-19.05 210.93,-21.39 214.65,-27.32"/>
</a>
</g>
</g>
<!-- Node3&#45;&gt;Node3 -->
<g id="edge3_Node000003_Node000003" class="edge">
<title>Node3&#45;&gt;Node3</title>
<g id="a_edge3_Node000003_Node000003"><a xlink:title=" ">
<path fill="none" stroke="#63b8ff" d="M219.31,-166.08C210.46,-174.73 216.53,-184 237.5,-184 250.61,-184 257.89,-180.38 259.35,-175.55"/>
<polygon fill="#63b8ff" stroke="#63b8ff" points="262.56,-174.15 255.69,-166.08 256.03,-176.67 262.56,-174.15"/>
</a>
</g>
</g>
<!-- Node4&#45;&gt;Node4 -->
<g id="edge5_Node000004_Node000004" class="edge">
<title>Node4&#45;&gt;Node4</title>
<g id="a_edge5_Node000004_Node000004"><a xlink:title=" ">
<path fill="none" stroke="#63b8ff" d="M219.31,-111.08C210.46,-119.73 216.53,-129 237.5,-129 250.61,-129 257.89,-125.38 259.35,-120.55"/>
<polygon fill="#63b8ff" stroke="#63b8ff" points="262.56,-119.15 255.69,-111.08 256.03,-121.67 262.56,-119.15"/>
</a>
</g>
</g>
<!-- Node6&#45;&gt;Node6 -->
<g id="edge9_Node000006_Node000006" class="edge">
<title>Node6&#45;&gt;Node6</title>
<g id="a_edge9_Node000006_Node000006"><a xlink:title=" ">
<path fill="none" stroke="#63b8ff" d="M219.31,-19.08C210.46,-27.73 216.53,-37 237.5,-37 250.61,-37 257.89,-33.38 259.35,-28.55"/>
<polygon fill="#63b8ff" stroke="#63b8ff" points="262.56,-27.15 255.69,-19.08 256.03,-29.67 262.56,-27.15"/>
</a>
</g>
</g>
</g>
</svg>
