<?xml version="1.0" encoding="UTF-8" standalone="no"?>
<!DOCTYPE svg PUBLIC "-//W3C//DTD SVG 1.1//EN"
 "http://www.w3.org/Graphics/SVG/1.1/DTD/svg11.dtd">
<!-- Generated by graphviz version 2.43.0 (0)
 -->
<!-- Title: populate_file_attrs Pages: 1 -->
<svg width="490pt" height="137pt"
 viewBox="0.00 0.00 490.00 137.00" xmlns="http://www.w3.org/2000/svg" xmlns:xlink="http://www.w3.org/1999/xlink">
<g id="graph0" class="graph" transform="scale(1 1) rotate(0) translate(4 133)">
<title>populate_file_attrs</title>
<!-- Node1 -->
<g id="Node000001" class="node">
<title>Node1</title>
<g id="a_Node000001"><a xlink:title=" ">
<polygon fill="#999999" stroke="#666666" points="482,-56 375,-56 375,-37 482,-37 482,-56"/>
<text text-anchor="middle" x="428.5" y="-44" font-family="Helvetica,sans-Serif" font-size="10.00">populate_file_attrs</text>
</a>
</g>
</g>
<!-- Node1&#45;&gt;Node1 -->
<g id="edge9_Node000001_Node000001" class="edge">
<title>Node1&#45;&gt;Node1</title>
<g id="a_edge9_Node000001_Node000001"><a xlink:title=" ">
<path fill="none" stroke="#63b8ff" d="M455.66,-65.19C454.18,-70.2 445.12,-74 428.5,-74 402.55,-74 395.05,-64.73 406,-56.08"/>
<polygon fill="#63b8ff" stroke="#63b8ff" points="458.67,-63.39 451,-56.08 452.44,-66.58 458.67,-63.39"/>
</a>
</g>
</g>
<!-- Node2 -->
<g id="Node000002" class="node">
<title>Node2</title>
<g id="a_Node000002"><a xlink:href="filepath_8c.html#af247d0017f4fc538777d06c9f40443bd" target="_top" xlink:title=" ">
<polygon fill="white" stroke="#666666" points="310.5,-111 252.5,-111 252.5,-92 310.5,-92 310.5,-111"/>
<text text-anchor="middle" x="281.5" y="-99" font-family="Helvetica,sans-Serif" font-size="10.00">dir_walk</text>
</a>
</g>
</g>
<!-- Node1&#45;&gt;Node2 -->
<g id="edge1_Node000001_Node000002" class="edge">
<title>Node1&#45;&gt;Node2</title>
<g id="a_edge1_Node000001_Node000002"><a xlink:title=" ">
<path fill="none" stroke="#63b8ff" d="M395.75,-59.97C378.98,-66.95 357.98,-75.46 339,-82.5 329.88,-85.88 319.84,-89.35 310.78,-92.37"/>
<polygon fill="#63b8ff" stroke="#63b8ff" points="397.22,-63.15 405.1,-56.06 394.52,-56.69 397.22,-63.15"/>
</a>
</g>
</g>
<!-- Node5 -->
<g id="Node000005" class="node">
<title>Node5</title>
<g id="a_Node000005"><a xlink:href="filepath_8c.html#af54d8cbf030f00437fdef2047afdafb3" target="_top" xlink:title=" ">
<polygon fill="white" stroke="#666666" points="339,-56 224,-56 224,-37 339,-37 339,-56"/>
<text text-anchor="middle" x="281.5" y="-44" font-family="Helvetica,sans-Serif" font-size="10.00">dir_walk_depth_first</text>
</a>
</g>
</g>
<!-- Node1&#45;&gt;Node5 -->
<g id="edge5_Node000001_Node000005" class="edge">
<title>Node1&#45;&gt;Node5</title>
<g id="a_edge5_Node000001_Node000005"><a xlink:title=" ">
<path fill="none" stroke="#63b8ff" d="M364.62,-46.5C356.23,-46.5 347.66,-46.5 339.38,-46.5"/>
<polygon fill="#63b8ff" stroke="#63b8ff" points="364.74,-50 374.74,-46.5 364.74,-43 364.74,-50"/>
</a>
</g>
</g>
<!-- Node7 -->
<g id="Node000007" class="node">
<title>Node7</title>
<g id="a_Node000007"><a xlink:href="file_8c.html#a81d0134870ca46f804e9fc14d2c15952" target="_top" xlink:title=" ">
<polygon fill="white" stroke="#666666" points="312,-19 251,-19 251,0 312,0 312,-19"/>
<text text-anchor="middle" x="281.5" y="-7" font-family="Helvetica,sans-Serif" font-size="10.00">file_open</text>
</a>
</g>
</g>
<!-- Node1&#45;&gt;Node7 -->
<g id="edge8_Node000001_Node000007" class="edge">
<title>Node1&#45;&gt;Node7</title>
<g id="a_edge8_Node000001_Node000007"><a xlink:title=" ">
<path fill="none" stroke="#63b8ff" d="M380.2,-34.43C357.9,-28.74 331.96,-22.12 312.41,-17.13"/>
<polygon fill="#63b8ff" stroke="#63b8ff" points="379.6,-37.89 390.16,-36.97 381.33,-31.11 379.6,-37.89"/>
</a>
</g>
</g>
<!-- Node2&#45;&gt;Node2 -->
<g id="edge4_Node000002_Node000002" class="edge">
<title>Node2&#45;&gt;Node2</title>
<g id="a_edge4_Node000002_Node000002"><a xlink:title=" ">
<path fill="none" stroke="#63b8ff" d="M305.2,-120.55C303.62,-125.38 295.72,-129 281.5,-129 258.75,-129 252.17,-119.73 261.77,-111.08"/>
<polygon fill="#63b8ff" stroke="#63b8ff" points="308.33,-118.95 301.23,-111.08 301.87,-121.66 308.33,-118.95"/>
</a>
</g>
</g>
<!-- Node3 -->
<g id="Node000003" class="node">
<title>Node3</title>
<g id="a_Node000003"><a xlink:href="filepath_8c.html#abdfec26581dba8143ff4e170ba4d7ba0" target="_top" xlink:title=" ">
<polygon fill="white" stroke="#666666" points="179,-111 125,-111 125,-92 179,-92 179,-111"/>
<text text-anchor="middle" x="152" y="-99" font-family="Helvetica,sans-Serif" font-size="10.00">dir_size</text>
</a>
</g>
</g>
<!-- Node2&#45;&gt;Node3 -->
<g id="edge2_Node000002_Node000003" class="edge">
<title>Node2&#45;&gt;Node3</title>
<g id="a_edge2_Node000002_Node000003"><a xlink:title=" ">
<path fill="none" stroke="#63b8ff" d="M241.98,-101.5C221.62,-101.5 197.16,-101.5 179.05,-101.5"/>
<polygon fill="#63b8ff" stroke="#63b8ff" points="242.2,-105 252.2,-101.5 242.2,-98 242.2,-105"/>
</a>
</g>
</g>
<!-- Node4 -->
<g id="Node000004" class="node">
<title>Node4</title>
<g id="a_Node000004"><a xlink:href="filepath_8c.html#ad540bdb7e70253c52d292e93a466e920" target="_top" xlink:title=" ">
<polygon fill="white" stroke="#666666" points="80,-111 0,-111 0,-92 80,-92 80,-111"/>
<text text-anchor="middle" x="40" y="-99" font-family="Helvetica,sans-Serif" font-size="10.00">filepath_split</text>
</a>
</g>
</g>
<!-- Node3&#45;&gt;Node4 -->
<g id="edge3_Node000003_Node000004" class="edge">
<title>Node3&#45;&gt;Node4</title>
<g id="a_edge3_Node000003_Node000004"><a xlink:title=" ">
<path fill="none" stroke="#63b8ff" d="M114.75,-101.5C103.69,-101.5 91.48,-101.5 80.23,-101.5"/>
<polygon fill="#63b8ff" stroke="#63b8ff" points="114.93,-105 124.93,-101.5 114.93,-98 114.93,-105"/>
</a>
</g>
</g>
<!-- Node5&#45;&gt;Node5 -->
<g id="edge7_Node000005_Node000005" class="edge">
<title>Node5&#45;&gt;Node5</title>
<g id="a_edge7_Node000005_Node000005"><a xlink:title=" ">
<path fill="none" stroke="#63b8ff" d="M305.2,-65.55C303.62,-70.38 295.72,-74 281.5,-74 258.75,-74 252.17,-64.73 261.77,-56.08"/>
<polygon fill="#63b8ff" stroke="#63b8ff" points="308.33,-63.95 301.23,-56.08 301.87,-66.66 308.33,-63.95"/>
</a>
</g>
</g>
<!-- Node6 -->
<g id="Node000006" class="node">
<title>Node6</title>
<g id="a_Node000006"><a xlink:href="filepath_8c.html#afae02b4234ea48108fb575ac53f7f0a1" target="_top" xlink:title=" ">
<polygon fill="white" stroke="#666666" points="188,-56 116,-56 116,-37 188,-37 188,-56"/>
<text text-anchor="middle" x="152" y="-44" font-family="Helvetica,sans-Serif" font-size="10.00">dir_remove</text>
</a>
</g>
</g>
<!-- Node5&#45;&gt;Node6 -->
<g id="edge6_Node000005_Node000006" class="edge">
<title>Node5&#45;&gt;Node6</title>
<g id="a_edge6_Node000005_Node000006"><a xlink:title=" ">
<path fill="none" stroke="#63b8ff" d="M213.58,-46.5C204.84,-46.5 196.18,-46.5 188.26,-46.5"/>
<polygon fill="#63b8ff" stroke="#63b8ff" points="213.83,-50 223.83,-46.5 213.83,-43 213.83,-50"/>
</a>
</g>
</g>
</g>
</svg>
