<?xml version="1.0" encoding="UTF-8" standalone="no"?>
<!DOCTYPE svg PUBLIC "-//W3C//DTD SVG 1.1//EN"
 "http://www.w3.org/Graphics/SVG/1.1/DTD/svg11.dtd">
<!-- Generated by graphviz version 2.43.0 (0)
 -->
<!-- Title: file_copy Pages: 1 -->
<svg width="166pt" height="64pt"
 viewBox="0.00 0.00 166.00 64.00" xmlns="http://www.w3.org/2000/svg" xmlns:xlink="http://www.w3.org/1999/xlink">
<g id="graph0" class="graph" transform="scale(1 1) rotate(0) translate(4 60)">
<title>file_copy</title>
<!-- Node1 -->
<g id="Node000001" class="node">
<title>Node1</title>
<g id="a_Node000001"><a xlink:title=" ">
<polygon fill="#999999" stroke="#666666" points="60,-37 0,-37 0,-18 60,-18 60,-37"/>
<text text-anchor="middle" x="30" y="-25" font-family="Helvetica,sans-Serif" font-size="10.00">file_copy</text>
</a>
</g>
</g>
<!-- Node2 -->
<g id="Node000002" class="node">
<title>Node2</title>
<g id="a_Node000002"><a xlink:href="file_8c.html#a335f0dbdf02ed9e484f39db8d10a1be0" target="_top" xlink:title=" ">
<polygon fill="white" stroke="#666666" points="156.5,-56 97.5,-56 97.5,-37 156.5,-37 156.5,-56"/>
<text text-anchor="middle" x="127" y="-44" font-family="Helvetica,sans-Serif" font-size="10.00">file_read</text>
</a>
</g>
</g>
<!-- Node1&#45;&gt;Node2 -->
<g id="edge1_Node000001_Node000002" class="edge">
<title>Node1&#45;&gt;Node2</title>
<g id="a_edge1_Node000001_Node000002"><a xlink:title=" ">
<path fill="none" stroke="#63b8ff" d="M60.02,-33.3C68.66,-35.03 78.27,-36.95 87.42,-38.78"/>
<polygon fill="#63b8ff" stroke="#63b8ff" points="86.99,-42.27 97.48,-40.8 88.37,-35.4 86.99,-42.27"/>
</a>
</g>
</g>
<!-- Node3 -->
<g id="Node000003" class="node">
<title>Node3</title>
<g id="a_Node000003"><a xlink:href="file_8c.html#ae717d08b8429474f8af4df156cf6d103" target="_top" xlink:title=" ">
<polygon fill="white" stroke="#666666" points="158,-19 96,-19 96,0 158,0 158,-19"/>
<text text-anchor="middle" x="127" y="-7" font-family="Helvetica,sans-Serif" font-size="10.00">file_write</text>
</a>
</g>
</g>
<!-- Node1&#45;&gt;Node3 -->
<g id="edge2_Node000001_Node000003" class="edge">
<title>Node1&#45;&gt;Node3</title>
<g id="a_edge2_Node000001_Node000003"><a xlink:title=" ">
<path fill="none" stroke="#63b8ff" d="M60.02,-22C68.18,-20.46 77.2,-18.75 85.88,-17.1"/>
<polygon fill="#63b8ff" stroke="#63b8ff" points="86.67,-20.51 95.84,-15.21 85.37,-13.64 86.67,-20.51"/>
</a>
</g>
</g>
</g>
</svg>
