<?xml version="1.0" encoding="UTF-8" standalone="no"?>
<!DOCTYPE svg PUBLIC "-//W3C//DTD SVG 1.1//EN"
 "http://www.w3.org/Graphics/SVG/1.1/DTD/svg11.dtd">
<!-- Generated by graphviz version 2.43.0 (0)
 -->
<!-- Title: dir_list_with_callback Pages: 1 -->
<svg width="226pt" height="155pt"
 viewBox="0.00 0.00 226.00 155.00" xmlns="http://www.w3.org/2000/svg" xmlns:xlink="http://www.w3.org/1999/xlink">
<g id="graph0" class="graph" transform="scale(1 1) rotate(0) translate(4 151)">
<title>dir_list_with_callback</title>
<!-- Node1 -->
<g id="Node000001" class="node">
<title>Node1</title>
<g id="a_Node000001"><a xlink:title=" ">
<polygon fill="#999999" stroke="#666666" points="122,-74 0,-74 0,-55 122,-55 122,-74"/>
<text text-anchor="middle" x="61" y="-62" font-family="Helvetica,sans-Serif" font-size="10.00">dir_list_with_callback</text>
</a>
</g>
</g>
<!-- Node2 -->
<g id="Node000002" class="node">
<title>Node2</title>
<g id="a_Node000002"><a xlink:href="filepath_8c.html#ac8e3c6d41770ce40cf0669d2b99b037a" target="_top" xlink:title=" ">
<polygon fill="white" stroke="#666666" points="218,-129 158,-129 158,-110 218,-110 218,-129"/>
<text text-anchor="middle" x="188" y="-117" font-family="Helvetica,sans-Serif" font-size="10.00">dir_close</text>
</a>
</g>
</g>
<!-- Node1&#45;&gt;Node2 -->
<g id="edge1_Node000001_Node000002" class="edge">
<title>Node1&#45;&gt;Node2</title>
<g id="a_edge1_Node000001_Node000002"><a xlink:title=" ">
<path fill="none" stroke="#63b8ff" d="M83.77,-74.08C103.64,-82.82 133.22,-95.84 155.63,-105.7"/>
<polygon fill="#63b8ff" stroke="#63b8ff" points="154.49,-109.02 165.06,-109.84 157.31,-102.61 154.49,-109.02"/>
</a>
</g>
</g>
<!-- Node3 -->
<g id="Node000003" class="node">
<title>Node3</title>
<g id="a_Node000003"><a xlink:href="filepath_8c.html#a21d34a2b1af79607edb3e2afe8f7c3be" target="_top" xlink:title=" ">
<polygon fill="white" stroke="#666666" points="216,-74 160,-74 160,-55 216,-55 216,-74"/>
<text text-anchor="middle" x="188" y="-62" font-family="Helvetica,sans-Serif" font-size="10.00">dir_next</text>
</a>
</g>
</g>
<!-- Node1&#45;&gt;Node3 -->
<g id="edge3_Node000001_Node000003" class="edge">
<title>Node1&#45;&gt;Node3</title>
<g id="a_edge3_Node000001_Node000003"><a xlink:title=" ">
<path fill="none" stroke="#63b8ff" d="M122.3,-64.5C131.62,-64.5 141.01,-64.5 149.63,-64.5"/>
<polygon fill="#63b8ff" stroke="#63b8ff" points="149.71,-68 159.71,-64.5 149.71,-61 149.71,-68"/>
</a>
</g>
</g>
<!-- Node4 -->
<g id="Node000004" class="node">
<title>Node4</title>
<g id="a_Node000004"><a xlink:href="filepath_8c.html#aed2439100a9cc53757707f5753afb9a8" target="_top" xlink:title=" ">
<polygon fill="white" stroke="#666666" points="217.5,-19 158.5,-19 158.5,0 217.5,0 217.5,-19"/>
<text text-anchor="middle" x="188" y="-7" font-family="Helvetica,sans-Serif" font-size="10.00">dir_open</text>
</a>
</g>
</g>
<!-- Node1&#45;&gt;Node4 -->
<g id="edge5_Node000001_Node000004" class="edge">
<title>Node1&#45;&gt;Node4</title>
<g id="a_edge5_Node000001_Node000004"><a xlink:title=" ">
<path fill="none" stroke="#63b8ff" d="M83.77,-54.92C103.64,-46.18 133.22,-33.16 155.63,-23.3"/>
<polygon fill="#63b8ff" stroke="#63b8ff" points="157.31,-26.39 165.06,-19.16 154.49,-19.98 157.31,-26.39"/>
</a>
</g>
</g>
<!-- Node2&#45;&gt;Node2 -->
<g id="edge2_Node000002_Node000002" class="edge">
<title>Node2&#45;&gt;Node2</title>
<g id="a_edge2_Node000002_Node000002"><a xlink:title=" ">
<path fill="none" stroke="#63b8ff" d="M168.58,-129.08C159.13,-137.73 165.61,-147 188,-147 202,-147 209.77,-143.38 211.33,-138.55"/>
<polygon fill="#63b8ff" stroke="#63b8ff" points="214.47,-136.99 207.42,-129.08 208,-139.66 214.47,-136.99"/>
</a>
</g>
</g>
<!-- Node3&#45;&gt;Node3 -->
<g id="edge4_Node000003_Node000003" class="edge">
<title>Node3&#45;&gt;Node3</title>
<g id="a_edge4_Node000003_Node000003"><a xlink:title=" ">
<path fill="none" stroke="#63b8ff" d="M168.58,-74.08C159.13,-82.73 165.61,-92 188,-92 202,-92 209.77,-88.38 211.33,-83.55"/>
<polygon fill="#63b8ff" stroke="#63b8ff" points="214.47,-81.99 207.42,-74.08 208,-84.66 214.47,-81.99"/>
</a>
</g>
</g>
<!-- Node4&#45;&gt;Node4 -->
<g id="edge6_Node000004_Node000004" class="edge">
<title>Node4&#45;&gt;Node4</title>
<g id="a_edge6_Node000004_Node000004"><a xlink:title=" ">
<path fill="none" stroke="#63b8ff" d="M168.58,-19.08C159.13,-27.73 165.61,-37 188,-37 202,-37 209.77,-33.38 211.33,-28.55"/>
<polygon fill="#63b8ff" stroke="#63b8ff" points="214.47,-26.99 207.42,-19.08 208,-29.66 214.47,-26.99"/>
</a>
</g>
</g>
</g>
</svg>
