<?xml version="1.0" encoding="UTF-8" standalone="no"?>
<!DOCTYPE svg PUBLIC "-//W3C//DTD SVG 1.1//EN"
 "http://www.w3.org/Graphics/SVG/1.1/DTD/svg11.dtd">
<!-- Generated by graphviz version 2.43.0 (0)
 -->
<!-- Title: include/flags.h Pages: 1 -->
<svg width="820pt" height="192pt"
 viewBox="0.00 0.00 820.00 192.00" xmlns="http://www.w3.org/2000/svg" xmlns:xlink="http://www.w3.org/1999/xlink">
<g id="graph0" class="graph" transform="scale(1 1) rotate(0) translate(4 188)">
<title>include/flags.h</title>
<!-- Node1 -->
<g id="Node000001" class="node">
<title>Node1</title>
<g id="a_Node000001"><a xlink:title="Command&#45;line flag parsing library.">
<polygon fill="#999999" stroke="#666666" points="370,-184 283,-184 283,-165 370,-165 370,-184"/>
<text text-anchor="middle" x="326.5" y="-172" font-family="Helvetica,sans-Serif" font-size="10.00">include/flags.h</text>
</a>
</g>
</g>
<!-- Node2 -->
<g id="Node000002" class="node">
<title>Node2</title>
<g id="a_Node000002"><a xlink:title=" ">
<polygon fill="#e0e0e0" stroke="#999999" points="51,-129 0,-129 0,-110 51,-110 51,-129"/>
<text text-anchor="middle" x="25.5" y="-117" font-family="Helvetica,sans-Serif" font-size="10.00">errno.h</text>
</a>
</g>
</g>
<!-- Node1&#45;&gt;Node2 -->
<g id="edge1_Node000001_Node000002" class="edge">
<title>Node1&#45;&gt;Node2</title>
<g id="a_edge1_Node000001_Node000002"><a xlink:title=" ">
<path fill="none" stroke="#63b8ff" d="M282.83,-167.32C231.81,-159.85 144.67,-146.35 60.99,-129.18"/>
<polygon fill="#63b8ff" stroke="#63b8ff" points="61.57,-125.73 51.07,-127.12 60.15,-132.58 61.57,-125.73"/>
</a>
</g>
</g>
<!-- Node3 -->
<g id="Node000003" class="node">
<title>Node3</title>
<g id="a_Node000003"><a xlink:title=" ">
<polygon fill="#e0e0e0" stroke="#999999" points="134,-129 69,-129 69,-110 134,-110 134,-129"/>
<text text-anchor="middle" x="101.5" y="-117" font-family="Helvetica,sans-Serif" font-size="10.00">inttypes.h</text>
</a>
</g>
</g>
<!-- Node1&#45;&gt;Node3 -->
<g id="edge2_Node000001_Node000003" class="edge">
<title>Node1&#45;&gt;Node3</title>
<g id="a_edge2_Node000001_Node000003"><a xlink:title=" ">
<path fill="none" stroke="#63b8ff" d="M290.35,-164.98C250.53,-155.6 186.54,-140.53 144.26,-130.57"/>
<polygon fill="#63b8ff" stroke="#63b8ff" points="144.8,-127.1 134.27,-128.22 143.2,-133.92 144.8,-127.1"/>
</a>
</g>
</g>
<!-- Node4 -->
<g id="Node000004" class="node">
<title>Node4</title>
<g id="a_Node000004"><a xlink:title=" ">
<polygon fill="#e0e0e0" stroke="#999999" points="205,-129 152,-129 152,-110 205,-110 205,-129"/>
<text text-anchor="middle" x="178.5" y="-117" font-family="Helvetica,sans-Serif" font-size="10.00">limits.h</text>
</a>
</g>
</g>
<!-- Node1&#45;&gt;Node4 -->
<g id="edge3_Node000001_Node000004" class="edge">
<title>Node1&#45;&gt;Node4</title>
<g id="a_edge3_Node000001_Node000004"><a xlink:title=" ">
<path fill="none" stroke="#63b8ff" d="M302.72,-164.98C278.27,-156.23 239.97,-142.51 212.35,-132.62"/>
<polygon fill="#63b8ff" stroke="#63b8ff" points="213.31,-129.25 202.71,-129.17 210.95,-135.84 213.31,-129.25"/>
</a>
</g>
</g>
<!-- Node5 -->
<g id="Node000005" class="node">
<title>Node5</title>
<g id="a_Node000005"><a xlink:title=" ">
<polygon fill="#e0e0e0" stroke="#999999" points="279.5,-129 223.5,-129 223.5,-110 279.5,-110 279.5,-129"/>
<text text-anchor="middle" x="251.5" y="-117" font-family="Helvetica,sans-Serif" font-size="10.00">stdarg.h</text>
</a>
</g>
</g>
<!-- Node1&#45;&gt;Node5 -->
<g id="edge4_Node000001_Node000005" class="edge">
<title>Node1&#45;&gt;Node5</title>
<g id="a_edge4_Node000001_Node000005"><a xlink:title=" ">
<path fill="none" stroke="#63b8ff" d="M314.45,-164.98C303.04,-156.92 285.67,-144.65 272.07,-135.03"/>
<polygon fill="#63b8ff" stroke="#63b8ff" points="273.96,-132.08 263.77,-129.17 269.92,-137.8 273.96,-132.08"/>
</a>
</g>
</g>
<!-- Node6 -->
<g id="Node000006" class="node">
<title>Node6</title>
<g id="a_Node000006"><a xlink:title=" ">
<polygon fill="#e0e0e0" stroke="#999999" points="376.5,-74 314.5,-74 314.5,-55 376.5,-55 376.5,-74"/>
<text text-anchor="middle" x="345.5" y="-62" font-family="Helvetica,sans-Serif" font-size="10.00">stdbool.h</text>
</a>
</g>
</g>
<!-- Node1&#45;&gt;Node6 -->
<g id="edge5_Node000001_Node000006" class="edge">
<title>Node1&#45;&gt;Node6</title>
<g id="a_edge5_Node000001_Node000006"><a xlink:title=" ">
<path fill="none" stroke="#63b8ff" d="M328.05,-164.66C331.13,-147.17 338.06,-107.8 342.2,-84.27"/>
<polygon fill="#63b8ff" stroke="#63b8ff" points="345.69,-84.61 343.98,-74.16 338.8,-83.4 345.69,-84.61"/>
</a>
</g>
</g>
<!-- Node7 -->
<g id="Node000007" class="node">
<title>Node7</title>
<g id="a_Node000007"><a xlink:title=" ">
<polygon fill="#e0e0e0" stroke="#999999" points="314.5,-19 258.5,-19 258.5,0 314.5,0 314.5,-19"/>
<text text-anchor="middle" x="286.5" y="-7" font-family="Helvetica,sans-Serif" font-size="10.00">stddef.h</text>
</a>
</g>
</g>
<!-- Node1&#45;&gt;Node7 -->
<g id="edge6_Node000001_Node000007" class="edge">
<title>Node1&#45;&gt;Node7</title>
<g id="a_edge6_Node000001_Node000007"><a xlink:title=" ">
<path fill="none" stroke="#63b8ff" d="M324.35,-164.74C318.08,-139.2 299.73,-64.43 291.1,-29.23"/>
<polygon fill="#63b8ff" stroke="#63b8ff" points="294.44,-28.18 288.66,-19.31 287.65,-29.85 294.44,-28.18"/>
</a>
</g>
</g>
<!-- Node8 -->
<g id="Node000008" class="node">
<title>Node8</title>
<g id="a_Node000008"><a xlink:title=" ">
<polygon fill="#e0e0e0" stroke="#999999" points="672,-19 619,-19 619,0 672,0 672,-19"/>
<text text-anchor="middle" x="645.5" y="-7" font-family="Helvetica,sans-Serif" font-size="10.00">stdint.h</text>
</a>
</g>
</g>
<!-- Node1&#45;&gt;Node8 -->
<g id="edge7_Node000001_Node000008" class="edge">
<title>Node1&#45;&gt;Node8</title>
<g id="a_edge7_Node000001_Node000008"><a xlink:title=" ">
<path fill="none" stroke="#63b8ff" d="M370.03,-171.11C434.67,-165.21 555.86,-144.78 625.5,-74 637.27,-62.04 642.12,-43.22 644.12,-29.17"/>
<polygon fill="#63b8ff" stroke="#63b8ff" points="647.61,-29.46 645.18,-19.15 640.65,-28.72 647.61,-29.46"/>
</a>
</g>
</g>
<!-- Node9 -->
<g id="Node000009" class="node">
<title>Node9</title>
<g id="a_Node000009"><a xlink:title=" ">
<polygon fill="#e0e0e0" stroke="#999999" points="740.5,-19 690.5,-19 690.5,0 740.5,0 740.5,-19"/>
<text text-anchor="middle" x="715.5" y="-7" font-family="Helvetica,sans-Serif" font-size="10.00">stdio.h</text>
</a>
</g>
</g>
<!-- Node1&#45;&gt;Node9 -->
<g id="edge8_Node000001_Node000009" class="edge">
<title>Node1&#45;&gt;Node9</title>
<g id="a_edge8_Node000001_Node000009"><a xlink:title=" ">
<path fill="none" stroke="#63b8ff" d="M370.43,-172.18C421.92,-169.2 508.81,-159.6 576.5,-129 629.98,-104.82 678.78,-53.67 701.72,-27.18"/>
<polygon fill="#63b8ff" stroke="#63b8ff" points="704.68,-29.11 708.48,-19.22 699.34,-24.58 704.68,-29.11"/>
</a>
</g>
</g>
<!-- Node10 -->
<g id="Node000010" class="node">
<title>Node10</title>
<g id="a_Node000010"><a xlink:title=" ">
<polygon fill="#e0e0e0" stroke="#999999" points="812,-19 759,-19 759,0 812,0 812,-19"/>
<text text-anchor="middle" x="785.5" y="-7" font-family="Helvetica,sans-Serif" font-size="10.00">stdlib.h</text>
</a>
</g>
</g>
<!-- Node1&#45;&gt;Node10 -->
<g id="edge9_Node000001_Node000010" class="edge">
<title>Node1&#45;&gt;Node10</title>
<g id="a_edge9_Node000001_Node000010"><a xlink:title=" ">
<path fill="none" stroke="#63b8ff" d="M370.2,-172.27C426.6,-169.41 526.92,-159.98 606.5,-129 671.9,-103.55 737.93,-51.43 768.29,-25.64"/>
<polygon fill="#63b8ff" stroke="#63b8ff" points="770.58,-28.29 775.87,-19.11 766.01,-22.98 770.58,-28.29"/>
</a>
</g>
</g>
<!-- Node11 -->
<g id="Node000011" class="node">
<title>Node11</title>
<g id="a_Node000011"><a xlink:href="cstr_8h.html" target="_top" xlink:title="C string utilities and safe string operations.">
<polygon fill="white" stroke="#666666" points="445,-129 402,-129 402,-110 445,-110 445,-129"/>
<text text-anchor="middle" x="423.5" y="-117" font-family="Helvetica,sans-Serif" font-size="10.00">cstr.h</text>
</a>
</g>
</g>
<!-- Node1&#45;&gt;Node11 -->
<g id="edge10_Node000001_Node000011" class="edge">
<title>Node1&#45;&gt;Node11</title>
<g id="a_edge10_Node000001_Node000011"><a xlink:title=" ">
<path fill="none" stroke="#63b8ff" d="M342.08,-164.98C357.27,-156.69 380.6,-143.94 398.4,-134.22"/>
<polygon fill="#63b8ff" stroke="#63b8ff" points="400.53,-137.04 407.63,-129.17 397.18,-130.89 400.53,-137.04"/>
</a>
</g>
</g>
<!-- Node11&#45;&gt;Node6 -->
<g id="edge12_Node000011_Node000006" class="edge">
<title>Node11&#45;&gt;Node6</title>
<g id="a_edge12_Node000011_Node000006"><a xlink:title=" ">
<path fill="none" stroke="#63b8ff" d="M410.97,-109.98C399.1,-101.92 381.04,-89.65 366.89,-80.03"/>
<polygon fill="#63b8ff" stroke="#63b8ff" points="368.5,-76.9 358.26,-74.17 364.56,-82.69 368.5,-76.9"/>
</a>
</g>
</g>
<!-- Node11&#45;&gt;Node7 -->
<g id="edge13_Node000011_Node000007" class="edge">
<title>Node11&#45;&gt;Node7</title>
<g id="a_edge13_Node000011_Node000007"><a xlink:title=" ">
<path fill="none" stroke="#63b8ff" d="M420.36,-109.98C415.07,-96.64 403.16,-70.71 385.5,-55 368.03,-39.46 344.25,-28.54 324.37,-21.4"/>
<polygon fill="#63b8ff" stroke="#63b8ff" points="325.28,-18.01 314.68,-18.1 323.02,-24.64 325.28,-18.01"/>
</a>
</g>
</g>
<!-- Node12 -->
<g id="Node000012" class="node">
<title>Node12</title>
<g id="a_Node000012"><a xlink:title=" ">
<polygon fill="#e0e0e0" stroke="#999999" points="386,-19 333,-19 333,0 386,0 386,-19"/>
<text text-anchor="middle" x="359.5" y="-7" font-family="Helvetica,sans-Serif" font-size="10.00">ctype.h</text>
</a>
</g>
</g>
<!-- Node11&#45;&gt;Node12 -->
<g id="edge11_Node000011_Node000012" class="edge">
<title>Node11&#45;&gt;Node12</title>
<g id="a_edge11_Node000011_Node000012"><a xlink:title=" ">
<path fill="none" stroke="#63b8ff" d="M424.97,-109.65C426.65,-96.76 428.07,-72.45 418.5,-55 411.37,-42 398.66,-31.67 386.85,-24.25"/>
<polygon fill="#63b8ff" stroke="#63b8ff" points="388.51,-21.16 378.11,-19.14 384.98,-27.21 388.51,-21.16"/>
</a>
</g>
</g>
<!-- Node13 -->
<g id="Node000013" class="node">
<title>Node13</title>
<g id="a_Node000013"><a xlink:href="macros_8h.html" target="_top" xlink:title="Collection of utility macros for assertions, memory management, math, and debugging.">
<polygon fill="white" stroke="#666666" points="616.5,-74 554.5,-74 554.5,-55 616.5,-55 616.5,-74"/>
<text text-anchor="middle" x="585.5" y="-62" font-family="Helvetica,sans-Serif" font-size="10.00">macros.h</text>
</a>
</g>
</g>
<!-- Node11&#45;&gt;Node13 -->
<g id="edge14_Node000011_Node000013" class="edge">
<title>Node11&#45;&gt;Node13</title>
<g id="a_edge14_Node000011_Node000013"><a xlink:title=" ">
<path fill="none" stroke="#63b8ff" d="M445.01,-111.46C471.65,-102.75 517.42,-87.77 549.46,-77.29"/>
<polygon fill="#63b8ff" stroke="#63b8ff" points="550.92,-80.5 559.33,-74.06 548.74,-73.84 550.92,-80.5"/>
</a>
</g>
</g>
<!-- Node16 -->
<g id="Node000016" class="node">
<title>Node16</title>
<g id="a_Node000016"><a xlink:href="str__utils_8h.html" target="_top" xlink:title="String utility functions for manipulation and processing.">
<polygon fill="white" stroke="#666666" points="536,-74 471,-74 471,-55 536,-55 536,-74"/>
<text text-anchor="middle" x="503.5" y="-62" font-family="Helvetica,sans-Serif" font-size="10.00">str_utils.h</text>
</a>
</g>
</g>
<!-- Node11&#45;&gt;Node16 -->
<g id="edge20_Node000011_Node000016" class="edge">
<title>Node11&#45;&gt;Node16</title>
<g id="a_edge20_Node000011_Node000016"><a xlink:title=" ">
<path fill="none" stroke="#63b8ff" d="M436.35,-109.98C448.64,-101.84 467.41,-89.41 481.98,-79.76"/>
<polygon fill="#63b8ff" stroke="#63b8ff" points="484.01,-82.61 490.41,-74.17 480.14,-76.78 484.01,-82.61"/>
</a>
</g>
</g>
<!-- Node13&#45;&gt;Node8 -->
<g id="edge15_Node000013_Node000008" class="edge">
<title>Node13&#45;&gt;Node8</title>
<g id="a_edge15_Node000013_Node000008"><a xlink:title=" ">
<path fill="none" stroke="#63b8ff" d="M595.14,-54.98C604.01,-47.15 617.37,-35.34 628.11,-25.86"/>
<polygon fill="#63b8ff" stroke="#63b8ff" points="630.51,-28.41 635.68,-19.17 625.87,-23.17 630.51,-28.41"/>
</a>
</g>
</g>
<!-- Node13&#45;&gt;Node9 -->
<g id="edge16_Node000013_Node000009" class="edge">
<title>Node13&#45;&gt;Node9</title>
<g id="a_edge16_Node000013_Node000009"><a xlink:title=" ">
<path fill="none" stroke="#63b8ff" d="M606.39,-54.98C627.58,-46.34 660.63,-32.87 684.8,-23.02"/>
<polygon fill="#63b8ff" stroke="#63b8ff" points="686.29,-26.19 694.23,-19.17 683.65,-19.7 686.29,-26.19"/>
</a>
</g>
</g>
<!-- Node13&#45;&gt;Node10 -->
<g id="edge17_Node000013_Node000010" class="edge">
<title>Node13&#45;&gt;Node10</title>
<g id="a_edge17_Node000013_Node000010"><a xlink:title=" ">
<path fill="none" stroke="#63b8ff" d="M616.75,-55.22C652.5,-45.74 710.97,-30.25 748.84,-20.21"/>
<polygon fill="#63b8ff" stroke="#63b8ff" points="750.17,-23.48 758.94,-17.54 748.38,-16.72 750.17,-23.48"/>
</a>
</g>
</g>
<!-- Node14 -->
<g id="Node000014" class="node">
<title>Node14</title>
<g id="a_Node000014"><a xlink:title=" ">
<polygon fill="#e0e0e0" stroke="#999999" points="534,-19 481,-19 481,0 534,0 534,-19"/>
<text text-anchor="middle" x="507.5" y="-7" font-family="Helvetica,sans-Serif" font-size="10.00">string.h</text>
</a>
</g>
</g>
<!-- Node13&#45;&gt;Node14 -->
<g id="edge18_Node000013_Node000014" class="edge">
<title>Node13&#45;&gt;Node14</title>
<g id="a_edge18_Node000013_Node000014"><a xlink:title=" ">
<path fill="none" stroke="#63b8ff" d="M572.97,-54.98C561.1,-46.92 543.04,-34.65 528.89,-25.03"/>
<polygon fill="#63b8ff" stroke="#63b8ff" points="530.5,-21.9 520.26,-19.17 526.56,-27.69 530.5,-21.9"/>
</a>
</g>
</g>
<!-- Node15 -->
<g id="Node000015" class="node">
<title>Node15</title>
<g id="a_Node000015"><a xlink:title=" ">
<polygon fill="#e0e0e0" stroke="#999999" points="600.5,-19 552.5,-19 552.5,0 600.5,0 600.5,-19"/>
<text text-anchor="middle" x="576.5" y="-7" font-family="Helvetica,sans-Serif" font-size="10.00">time.h</text>
</a>
</g>
</g>
<!-- Node13&#45;&gt;Node15 -->
<g id="edge19_Node000013_Node000015" class="edge">
<title>Node13&#45;&gt;Node15</title>
<g id="a_edge19_Node000013_Node000015"><a xlink:title=" ">
<path fill="none" stroke="#63b8ff" d="M584.01,-54.75C582.83,-47.8 581.14,-37.85 579.66,-29.13"/>
<polygon fill="#63b8ff" stroke="#63b8ff" points="583.08,-28.36 577.96,-19.09 576.18,-29.53 583.08,-28.36"/>
</a>
</g>
</g>
<!-- Node16&#45;&gt;Node7 -->
<g id="edge22_Node000016_Node000007" class="edge">
<title>Node16&#45;&gt;Node7</title>
<g id="a_edge22_Node000016_Node000007"><a xlink:title=" ">
<path fill="none" stroke="#63b8ff" d="M470.54,-55.45C431.3,-45.87 365.89,-29.89 324.54,-19.79"/>
<polygon fill="#63b8ff" stroke="#63b8ff" points="325.12,-16.33 314.58,-17.36 323.46,-23.13 325.12,-16.33"/>
</a>
</g>
</g>
<!-- Node16&#45;&gt;Node12 -->
<g id="edge21_Node000016_Node000012" class="edge">
<title>Node16&#45;&gt;Node12</title>
<g id="a_edge21_Node000016_Node000012"><a xlink:title=" ">
<path fill="none" stroke="#63b8ff" d="M480.36,-54.98C456.68,-46.27 419.63,-32.63 392.79,-22.75"/>
<polygon fill="#63b8ff" stroke="#63b8ff" points="393.65,-19.34 383.06,-19.17 391.23,-25.91 393.65,-19.34"/>
</a>
</g>
</g>
<!-- Node16&#45;&gt;Node14 -->
<g id="edge23_Node000016_Node000014" class="edge">
<title>Node16&#45;&gt;Node14</title>
<g id="a_edge23_Node000016_Node000014"><a xlink:title=" ">
<path fill="none" stroke="#63b8ff" d="M504.16,-54.75C504.68,-47.8 505.44,-37.85 506.09,-29.13"/>
<polygon fill="#63b8ff" stroke="#63b8ff" points="509.59,-29.32 506.85,-19.09 502.61,-28.8 509.59,-29.32"/>
</a>
</g>
</g>
<!-- Node17 -->
<g id="Node000017" class="node">
<title>Node17</title>
<g id="a_Node000017"><a xlink:title=" ">
<polygon fill="#e0e0e0" stroke="#999999" points="463,-19 404,-19 404,0 463,0 463,-19"/>
<text text-anchor="middle" x="433.5" y="-7" font-family="Helvetica,sans-Serif" font-size="10.00">strings.h</text>
</a>
</g>
</g>
<!-- Node16&#45;&gt;Node17 -->
<g id="edge24_Node000016_Node000017" class="edge">
<title>Node16&#45;&gt;Node17</title>
<g id="a_edge24_Node000016_Node000017"><a xlink:title=" ">
<path fill="none" stroke="#63b8ff" d="M492.25,-54.98C481.7,-47 465.7,-34.88 453.06,-25.31"/>
<polygon fill="#63b8ff" stroke="#63b8ff" points="455.04,-22.42 444.95,-19.17 450.81,-28 455.04,-22.42"/>
</a>
</g>
</g>
</g>
</svg>
