<?xml version="1.0" encoding="UTF-8" standalone="no"?>
<!DOCTYPE svg PUBLIC "-//W3C//DTD SVG 1.1//EN"
 "http://www.w3.org/Graphics/SVG/1.1/DTD/svg11.dtd">
<!-- Generated by graphviz version 2.43.0 (0)
 -->
<!-- Title: flag_parse Pages: 1 -->
<svg width="239pt" height="45pt"
 viewBox="0.00 0.00 239.00 45.00" xmlns="http://www.w3.org/2000/svg" xmlns:xlink="http://www.w3.org/1999/xlink">
<g id="graph0" class="graph" transform="scale(1 1) rotate(0) translate(4 41)">
<title>flag_parse</title>
<!-- Node1 -->
<g id="Node000001" class="node">
<title>Node1</title>
<g id="a_Node000001"><a xlink:title="Parse command&#45;line arguments.">
<polygon fill="#999999" stroke="#666666" points="231,-19 164,-19 164,0 231,0 231,-19"/>
<text text-anchor="middle" x="197.5" y="-7" font-family="Helvetica,sans-Serif" font-size="10.00">flag_parse</text>
</a>
</g>
</g>
<!-- Node1&#45;&gt;Node1 -->
<g id="edge1_Node000001_Node000001" class="edge">
<title>Node1&#45;&gt;Node1</title>
<g id="a_edge1_Node000001_Node000001"><a xlink:title=" ">
<path fill="none" stroke="#63b8ff" d="M222.05,-28.19C220.71,-33.2 212.53,-37 197.5,-37 174.04,-37 167.26,-27.73 177.15,-19.08"/>
<polygon fill="#63b8ff" stroke="#63b8ff" points="225.22,-26.69 217.85,-19.08 218.86,-29.63 225.22,-26.69"/>
</a>
</g>
</g>
<!-- Node2 -->
<g id="Node000002" class="node">
<title>Node2</title>
<g id="a_Node000002"><a xlink:href="flags_8c.html#a469f6058916e0ebe18871e235732377b" target="_top" xlink:title=" ">
<polygon fill="white" stroke="#666666" points="128,-19 0,-19 0,0 128,0 128,-19"/>
<text text-anchor="middle" x="64" y="-7" font-family="Helvetica,sans-Serif" font-size="10.00">flag_parse_and_invoke</text>
</a>
</g>
</g>
<!-- Node1&#45;&gt;Node2 -->
<g id="edge2_Node000001_Node000002" class="edge">
<title>Node1&#45;&gt;Node2</title>
<g id="a_edge2_Node000001_Node000002"><a xlink:title=" ">
<path fill="none" stroke="#63b8ff" d="M153.92,-9.5C145.69,-9.5 136.91,-9.5 128.19,-9.5"/>
<polygon fill="#63b8ff" stroke="#63b8ff" points="153.99,-13 163.99,-9.5 153.99,-6 153.99,-13"/>
</a>
</g>
</g>
</g>
</svg>
