<?xml version="1.0" encoding="UTF-8" standalone="no"?>
<!DOCTYPE svg PUBLIC "-//W3C//DTD SVG 1.1//EN"
 "http://www.w3.org/Graphics/SVG/1.1/DTD/svg11.dtd">
<!-- Generated by graphviz version 2.43.0 (0)
 -->
<!-- Title: include/flags.h Pages: 1 -->
<svg width="821pt" height="192pt"
 viewBox="0.00 0.00 820.50 192.00" xmlns="http://www.w3.org/2000/svg" xmlns:xlink="http://www.w3.org/1999/xlink">
<g id="graph0" class="graph" transform="scale(1 1) rotate(0) translate(4 188)">
<title>include/flags.h</title>
<!-- Node1 -->
<g id="Node000001" class="node">
<title>Node1</title>
<g id="a_Node000001"><a xlink:title="Command&#45;line flag parsing library.">
<polygon fill="#999999" stroke="#666666" points="529,-184 442,-184 442,-165 529,-165 529,-184"/>
<text text-anchor="middle" x="485.5" y="-172" font-family="Helvetica,sans-Serif" font-size="10.00">include/flags.h</text>
</a>
</g>
</g>
<!-- Node2 -->
<g id="Node000002" class="node">
<title>Node2</title>
<g id="a_Node000002"><a xlink:href="cstr_8h.html" target="_top" xlink:title="C string utilities and safe string operations.">
<polygon fill="white" stroke="#666666" points="398,-129 355,-129 355,-110 398,-110 398,-129"/>
<text text-anchor="middle" x="376.5" y="-117" font-family="Helvetica,sans-Serif" font-size="10.00">cstr.h</text>
</a>
</g>
</g>
<!-- Node1&#45;&gt;Node2 -->
<g id="edge1_Node000001_Node000002" class="edge">
<title>Node1&#45;&gt;Node2</title>
<g id="a_edge1_Node000001_Node000002"><a xlink:title=" ">
<path fill="none" stroke="#63b8ff" d="M467.99,-164.98C450.53,-156.5 423.49,-143.35 403.33,-133.54"/>
<polygon fill="#63b8ff" stroke="#63b8ff" points="404.86,-130.4 394.33,-129.17 401.79,-136.69 404.86,-130.4"/>
</a>
</g>
</g>
<!-- Node4 -->
<g id="Node000004" class="node">
<title>Node4</title>
<g id="a_Node000004"><a xlink:title=" ">
<polygon fill="#e0e0e0" stroke="#999999" points="53,-19 0,-19 0,0 53,0 53,-19"/>
<text text-anchor="middle" x="26.5" y="-7" font-family="Helvetica,sans-Serif" font-size="10.00">stdint.h</text>
</a>
</g>
</g>
<!-- Node1&#45;&gt;Node4 -->
<g id="edge22_Node000001_Node000004" class="edge">
<title>Node1&#45;&gt;Node4</title>
<g id="a_edge22_Node000001_Node000004"><a xlink:title=" ">
<path fill="none" stroke="#63b8ff" d="M441.95,-172.81C384.12,-170.56 279.73,-161.81 197.5,-129 134.6,-103.9 72.11,-52 43.17,-26.02"/>
<polygon fill="#63b8ff" stroke="#63b8ff" points="45.36,-23.29 35.61,-19.14 40.65,-28.46 45.36,-23.29"/>
</a>
</g>
</g>
<!-- Node5 -->
<g id="Node000005" class="node">
<title>Node5</title>
<g id="a_Node000005"><a xlink:title=" ">
<polygon fill="#e0e0e0" stroke="#999999" points="121.5,-19 71.5,-19 71.5,0 121.5,0 121.5,-19"/>
<text text-anchor="middle" x="96.5" y="-7" font-family="Helvetica,sans-Serif" font-size="10.00">stdio.h</text>
</a>
</g>
</g>
<!-- Node1&#45;&gt;Node5 -->
<g id="edge23_Node000001_Node000005" class="edge">
<title>Node1&#45;&gt;Node5</title>
<g id="a_edge23_Node000001_Node000005"><a xlink:title=" ">
<path fill="none" stroke="#63b8ff" d="M441.81,-173.02C389.2,-170.88 299.34,-162.12 230.5,-129 178.71,-104.08 131.76,-53.26 109.73,-27.01"/>
<polygon fill="#63b8ff" stroke="#63b8ff" points="112.3,-24.62 103.24,-19.12 106.89,-29.07 112.3,-24.62"/>
</a>
</g>
</g>
<!-- Node6 -->
<g id="Node000006" class="node">
<title>Node6</title>
<g id="a_Node000006"><a xlink:title=" ">
<polygon fill="#e0e0e0" stroke="#999999" points="193,-19 140,-19 140,0 193,0 193,-19"/>
<text text-anchor="middle" x="166.5" y="-7" font-family="Helvetica,sans-Serif" font-size="10.00">stdlib.h</text>
</a>
</g>
</g>
<!-- Node1&#45;&gt;Node6 -->
<g id="edge24_Node000001_Node000006" class="edge">
<title>Node1&#45;&gt;Node6</title>
<g id="a_edge24_Node000001_Node000006"><a xlink:title=" ">
<path fill="none" stroke="#63b8ff" d="M441.86,-171.21C377.09,-165.45 255.73,-145.19 186.5,-74 174.8,-61.97 169.94,-43.16 167.92,-29.13"/>
<polygon fill="#63b8ff" stroke="#63b8ff" points="171.39,-28.69 166.84,-19.13 164.44,-29.44 171.39,-28.69"/>
</a>
</g>
</g>
<!-- Node11 -->
<g id="Node000011" class="node">
<title>Node11</title>
<g id="a_Node000011"><a xlink:title=" ">
<polygon fill="#e0e0e0" stroke="#999999" points="553.5,-19 497.5,-19 497.5,0 553.5,0 553.5,-19"/>
<text text-anchor="middle" x="525.5" y="-7" font-family="Helvetica,sans-Serif" font-size="10.00">stddef.h</text>
</a>
</g>
</g>
<!-- Node1&#45;&gt;Node11 -->
<g id="edge21_Node000001_Node000011" class="edge">
<title>Node1&#45;&gt;Node11</title>
<g id="a_edge21_Node000001_Node000011"><a xlink:title=" ">
<path fill="none" stroke="#63b8ff" d="M487.65,-164.74C493.92,-139.2 512.27,-64.43 520.9,-29.23"/>
<polygon fill="#63b8ff" stroke="#63b8ff" points="524.35,-29.85 523.34,-19.31 517.56,-28.18 524.35,-29.85"/>
</a>
</g>
</g>
<!-- Node13 -->
<g id="Node000013" class="node">
<title>Node13</title>
<g id="a_Node000013"><a xlink:title=" ">
<polygon fill="#e0e0e0" stroke="#999999" points="497.5,-74 435.5,-74 435.5,-55 497.5,-55 497.5,-74"/>
<text text-anchor="middle" x="466.5" y="-62" font-family="Helvetica,sans-Serif" font-size="10.00">stdbool.h</text>
</a>
</g>
</g>
<!-- Node1&#45;&gt;Node13 -->
<g id="edge20_Node000001_Node000013" class="edge">
<title>Node1&#45;&gt;Node13</title>
<g id="a_edge20_Node000001_Node000013"><a xlink:title=" ">
<path fill="none" stroke="#63b8ff" d="M483.95,-164.66C480.87,-147.17 473.94,-107.8 469.8,-84.27"/>
<polygon fill="#63b8ff" stroke="#63b8ff" points="473.2,-83.4 468.02,-74.16 466.31,-84.61 473.2,-83.4"/>
</a>
</g>
</g>
<!-- Node14 -->
<g id="Node000014" class="node">
<title>Node14</title>
<g id="a_Node000014"><a xlink:title=" ">
<polygon fill="#e0e0e0" stroke="#999999" points="584,-129 533,-129 533,-110 584,-110 584,-129"/>
<text text-anchor="middle" x="558.5" y="-117" font-family="Helvetica,sans-Serif" font-size="10.00">errno.h</text>
</a>
</g>
</g>
<!-- Node1&#45;&gt;Node14 -->
<g id="edge16_Node000001_Node000014" class="edge">
<title>Node1&#45;&gt;Node14</title>
<g id="a_edge16_Node000001_Node000014"><a xlink:title=" ">
<path fill="none" stroke="#63b8ff" d="M497.23,-164.98C508.23,-157 524.92,-144.88 538.1,-135.31"/>
<polygon fill="#63b8ff" stroke="#63b8ff" points="540.52,-137.88 546.56,-129.17 536.41,-132.21 540.52,-137.88"/>
</a>
</g>
</g>
<!-- Node15 -->
<g id="Node000015" class="node">
<title>Node15</title>
<g id="a_Node000015"><a xlink:title=" ">
<polygon fill="#e0e0e0" stroke="#999999" points="667,-129 602,-129 602,-110 667,-110 667,-129"/>
<text text-anchor="middle" x="634.5" y="-117" font-family="Helvetica,sans-Serif" font-size="10.00">inttypes.h</text>
</a>
</g>
</g>
<!-- Node1&#45;&gt;Node15 -->
<g id="edge17_Node000001_Node000015" class="edge">
<title>Node1&#45;&gt;Node15</title>
<g id="a_edge17_Node000001_Node000015"><a xlink:title=" ">
<path fill="none" stroke="#63b8ff" d="M509.44,-164.98C534.06,-156.23 572.62,-142.51 600.42,-132.62"/>
<polygon fill="#63b8ff" stroke="#63b8ff" points="601.88,-135.82 610.12,-129.17 599.53,-129.22 601.88,-135.82"/>
</a>
</g>
</g>
<!-- Node16 -->
<g id="Node000016" class="node">
<title>Node16</title>
<g id="a_Node000016"><a xlink:title=" ">
<polygon fill="#e0e0e0" stroke="#999999" points="738,-129 685,-129 685,-110 738,-110 738,-129"/>
<text text-anchor="middle" x="711.5" y="-117" font-family="Helvetica,sans-Serif" font-size="10.00">limits.h</text>
</a>
</g>
</g>
<!-- Node1&#45;&gt;Node16 -->
<g id="edge18_Node000001_Node000016" class="edge">
<title>Node1&#45;&gt;Node16</title>
<g id="a_edge18_Node000001_Node000016"><a xlink:title=" ">
<path fill="none" stroke="#63b8ff" d="M522.5,-164.99C558.96,-156.57 616.53,-143.23 674.99,-129.35"/>
<polygon fill="#63b8ff" stroke="#63b8ff" points="675.83,-132.74 684.75,-127.02 674.21,-125.93 675.83,-132.74"/>
</a>
</g>
</g>
<!-- Node17 -->
<g id="Node000017" class="node">
<title>Node17</title>
<g id="a_Node000017"><a xlink:title=" ">
<polygon fill="#e0e0e0" stroke="#999999" points="812.5,-129 756.5,-129 756.5,-110 812.5,-110 812.5,-129"/>
<text text-anchor="middle" x="784.5" y="-117" font-family="Helvetica,sans-Serif" font-size="10.00">stdarg.h</text>
</a>
</g>
</g>
<!-- Node1&#45;&gt;Node17 -->
<g id="edge19_Node000001_Node000017" class="edge">
<title>Node1&#45;&gt;Node17</title>
<g id="a_edge19_Node000001_Node000017"><a xlink:title=" ">
<path fill="none" stroke="#63b8ff" d="M529.22,-166.86C579.31,-159.08 664.09,-145.39 746.25,-129.16"/>
<polygon fill="#63b8ff" stroke="#63b8ff" points="747.13,-132.55 756.25,-127.17 745.76,-125.68 747.13,-132.55"/>
</a>
</g>
</g>
<!-- Node3 -->
<g id="Node000003" class="node">
<title>Node3</title>
<g id="a_Node000003"><a xlink:href="macros_8h.html" target="_top" xlink:title="Collection of utility macros for assertions, memory management, math, and debugging.">
<polygon fill="white" stroke="#666666" points="257.5,-74 195.5,-74 195.5,-55 257.5,-55 257.5,-74"/>
<text text-anchor="middle" x="226.5" y="-62" font-family="Helvetica,sans-Serif" font-size="10.00">macros.h</text>
</a>
</g>
</g>
<!-- Node2&#45;&gt;Node3 -->
<g id="edge2_Node000002_Node000003" class="edge">
<title>Node2&#45;&gt;Node3</title>
<g id="a_edge2_Node000002_Node000003"><a xlink:title=" ">
<path fill="none" stroke="#63b8ff" d="M354.69,-110.79C329.9,-102.04 289.15,-87.64 260.25,-77.43"/>
<polygon fill="#63b8ff" stroke="#63b8ff" points="261.17,-74.04 250.57,-74.01 258.84,-80.64 261.17,-74.04"/>
</a>
</g>
</g>
<!-- Node9 -->
<g id="Node000009" class="node">
<title>Node9</title>
<g id="a_Node000009"><a xlink:href="str__utils_8h.html" target="_top" xlink:title="String utility functions for manipulation and processing.">
<polygon fill="white" stroke="#666666" points="379,-74 314,-74 314,-55 379,-55 379,-74"/>
<text text-anchor="middle" x="346.5" y="-62" font-family="Helvetica,sans-Serif" font-size="10.00">str_utils.h</text>
</a>
</g>
</g>
<!-- Node2&#45;&gt;Node9 -->
<g id="edge8_Node000002_Node000009" class="edge">
<title>Node2&#45;&gt;Node9</title>
<g id="a_edge8_Node000002_Node000009"><a xlink:title=" ">
<path fill="none" stroke="#63b8ff" d="M371.55,-109.75C367.44,-102.49 361.47,-91.95 356.4,-82.98"/>
<polygon fill="#63b8ff" stroke="#63b8ff" points="359.33,-81.07 351.36,-74.09 353.24,-84.52 359.33,-81.07"/>
</a>
</g>
</g>
<!-- Node10 -->
<g id="Node000010" class="node">
<title>Node10</title>
<g id="a_Node000010"><a xlink:title=" ">
<polygon fill="#e0e0e0" stroke="#999999" points="402,-19 349,-19 349,0 402,0 402,-19"/>
<text text-anchor="middle" x="375.5" y="-7" font-family="Helvetica,sans-Serif" font-size="10.00">ctype.h</text>
</a>
</g>
</g>
<!-- Node2&#45;&gt;Node10 -->
<g id="edge13_Node000002_Node000010" class="edge">
<title>Node2&#45;&gt;Node10</title>
<g id="a_edge13_Node000002_Node000010"><a xlink:title=" ">
<path fill="none" stroke="#63b8ff" d="M354.87,-111.7C337.8,-105.06 315.16,-93.12 304.5,-74 292.49,-52.45 318.59,-34.45 342.46,-23.18"/>
<polygon fill="#63b8ff" stroke="#63b8ff" points="344.04,-26.31 351.76,-19.06 341.2,-19.92 344.04,-26.31"/>
</a>
</g>
</g>
<!-- Node2&#45;&gt;Node11 -->
<g id="edge15_Node000002_Node000011" class="edge">
<title>Node2&#45;&gt;Node11</title>
<g id="a_edge15_Node000002_Node000011"><a xlink:title=" ">
<path fill="none" stroke="#63b8ff" d="M381.57,-109.59C389.59,-96.18 406.37,-70.72 426.5,-55 444.79,-40.71 468.41,-29.87 487.98,-22.47"/>
<polygon fill="#63b8ff" stroke="#63b8ff" points="489.31,-25.71 497.51,-19.01 486.92,-19.13 489.31,-25.71"/>
</a>
</g>
</g>
<!-- Node2&#45;&gt;Node13 -->
<g id="edge14_Node000002_Node000013" class="edge">
<title>Node2&#45;&gt;Node13</title>
<g id="a_edge14_Node000002_Node000013"><a xlink:title=" ">
<path fill="none" stroke="#63b8ff" d="M390.96,-109.98C404.92,-101.77 426.29,-89.18 442.75,-79.49"/>
<polygon fill="#63b8ff" stroke="#63b8ff" points="444.94,-82.26 451.78,-74.17 441.38,-76.23 444.94,-82.26"/>
</a>
</g>
</g>
<!-- Node3&#45;&gt;Node4 -->
<g id="edge3_Node000003_Node000004" class="edge">
<title>Node3&#45;&gt;Node4</title>
<g id="a_edge3_Node000003_Node000004"><a xlink:title=" ">
<path fill="none" stroke="#63b8ff" d="M195.25,-55.22C159.5,-45.74 101.03,-30.25 63.16,-20.21"/>
<polygon fill="#63b8ff" stroke="#63b8ff" points="63.62,-16.72 53.06,-17.54 61.83,-23.48 63.62,-16.72"/>
</a>
</g>
</g>
<!-- Node3&#45;&gt;Node5 -->
<g id="edge4_Node000003_Node000005" class="edge">
<title>Node3&#45;&gt;Node5</title>
<g id="a_edge4_Node000003_Node000005"><a xlink:title=" ">
<path fill="none" stroke="#63b8ff" d="M205.61,-54.98C184.42,-46.34 151.37,-32.87 127.2,-23.02"/>
<polygon fill="#63b8ff" stroke="#63b8ff" points="128.35,-19.7 117.77,-19.17 125.71,-26.19 128.35,-19.7"/>
</a>
</g>
</g>
<!-- Node3&#45;&gt;Node6 -->
<g id="edge5_Node000003_Node000006" class="edge">
<title>Node3&#45;&gt;Node6</title>
<g id="a_edge5_Node000003_Node000006"><a xlink:title=" ">
<path fill="none" stroke="#63b8ff" d="M216.86,-54.98C207.99,-47.15 194.63,-35.34 183.89,-25.86"/>
<polygon fill="#63b8ff" stroke="#63b8ff" points="186.13,-23.17 176.32,-19.17 181.49,-28.41 186.13,-23.17"/>
</a>
</g>
</g>
<!-- Node7 -->
<g id="Node000007" class="node">
<title>Node7</title>
<g id="a_Node000007"><a xlink:title=" ">
<polygon fill="#e0e0e0" stroke="#999999" points="331,-19 278,-19 278,0 331,0 331,-19"/>
<text text-anchor="middle" x="304.5" y="-7" font-family="Helvetica,sans-Serif" font-size="10.00">string.h</text>
</a>
</g>
</g>
<!-- Node3&#45;&gt;Node7 -->
<g id="edge6_Node000003_Node000007" class="edge">
<title>Node3&#45;&gt;Node7</title>
<g id="a_edge6_Node000003_Node000007"><a xlink:title=" ">
<path fill="none" stroke="#63b8ff" d="M239.03,-54.98C250.9,-46.92 268.96,-34.65 283.11,-25.03"/>
<polygon fill="#63b8ff" stroke="#63b8ff" points="285.44,-27.69 291.74,-19.17 281.5,-21.9 285.44,-27.69"/>
</a>
</g>
</g>
<!-- Node8 -->
<g id="Node000008" class="node">
<title>Node8</title>
<g id="a_Node000008"><a xlink:title=" ">
<polygon fill="#e0e0e0" stroke="#999999" points="259.5,-19 211.5,-19 211.5,0 259.5,0 259.5,-19"/>
<text text-anchor="middle" x="235.5" y="-7" font-family="Helvetica,sans-Serif" font-size="10.00">time.h</text>
</a>
</g>
</g>
<!-- Node3&#45;&gt;Node8 -->
<g id="edge7_Node000003_Node000008" class="edge">
<title>Node3&#45;&gt;Node8</title>
<g id="a_edge7_Node000003_Node000008"><a xlink:title=" ">
<path fill="none" stroke="#63b8ff" d="M227.99,-54.75C229.17,-47.8 230.86,-37.85 232.34,-29.13"/>
<polygon fill="#63b8ff" stroke="#63b8ff" points="235.82,-29.53 234.04,-19.09 228.92,-28.36 235.82,-29.53"/>
</a>
</g>
</g>
<!-- Node9&#45;&gt;Node7 -->
<g id="edge11_Node000009_Node000007" class="edge">
<title>Node9&#45;&gt;Node7</title>
<g id="a_edge11_Node000009_Node000007"><a xlink:title=" ">
<path fill="none" stroke="#63b8ff" d="M339.56,-54.75C333.63,-47.26 324.93,-36.28 317.68,-27.13"/>
<polygon fill="#63b8ff" stroke="#63b8ff" points="320.26,-24.75 311.31,-19.09 314.77,-29.1 320.26,-24.75"/>
</a>
</g>
</g>
<!-- Node9&#45;&gt;Node10 -->
<g id="edge9_Node000009_Node000010" class="edge">
<title>Node9&#45;&gt;Node10</title>
<g id="a_edge9_Node000009_Node000010"><a xlink:title=" ">
<path fill="none" stroke="#63b8ff" d="M351.29,-54.75C355.26,-47.49 361.03,-36.95 365.93,-27.98"/>
<polygon fill="#63b8ff" stroke="#63b8ff" points="369.07,-29.54 370.8,-19.09 362.93,-26.18 369.07,-29.54"/>
</a>
</g>
</g>
<!-- Node9&#45;&gt;Node11 -->
<g id="edge10_Node000009_Node000011" class="edge">
<title>Node9&#45;&gt;Node11</title>
<g id="a_edge10_Node000009_Node000011"><a xlink:title=" ">
<path fill="none" stroke="#63b8ff" d="M375.26,-54.98C405.71,-45.97 453.92,-31.69 487.49,-21.75"/>
<polygon fill="#63b8ff" stroke="#63b8ff" points="488.81,-25.01 497.4,-18.82 486.82,-18.3 488.81,-25.01"/>
</a>
</g>
</g>
<!-- Node12 -->
<g id="Node000012" class="node">
<title>Node12</title>
<g id="a_Node000012"><a xlink:title=" ">
<polygon fill="#e0e0e0" stroke="#999999" points="479,-19 420,-19 420,0 479,0 479,-19"/>
<text text-anchor="middle" x="449.5" y="-7" font-family="Helvetica,sans-Serif" font-size="10.00">strings.h</text>
</a>
</g>
</g>
<!-- Node9&#45;&gt;Node12 -->
<g id="edge12_Node000009_Node000012" class="edge">
<title>Node9&#45;&gt;Node12</title>
<g id="a_edge12_Node000009_Node000012"><a xlink:title=" ">
<path fill="none" stroke="#63b8ff" d="M363.05,-54.98C379.39,-46.57 404.63,-33.59 423.63,-23.81"/>
<polygon fill="#63b8ff" stroke="#63b8ff" points="425.36,-26.86 432.65,-19.17 422.16,-20.63 425.36,-26.86"/>
</a>
</g>
</g>
</g>
</svg>
