<?xml version="1.0" encoding="UTF-8" standalone="no"?>
<!DOCTYPE svg PUBLIC "-//W3C//DTD SVG 1.1//EN"
 "http://www.w3.org/Graphics/SVG/1.1/DTD/svg11.dtd">
<!-- Generated by graphviz version 2.43.0 (0)
 -->
<!-- Title: flag_print_usage Pages: 1 -->
<svg width="372pt" height="45pt"
 viewBox="0.00 0.00 372.00 45.00" xmlns="http://www.w3.org/2000/svg" xmlns:xlink="http://www.w3.org/1999/xlink">
<g id="graph0" class="graph" transform="scale(1 1) rotate(0) translate(4 41)">
<title>flag_print_usage</title>
<!-- Node1 -->
<g id="Node000001" class="node">
<title>Node1</title>
<g id="a_Node000001"><a xlink:title="Print usage/help information for the parser.">
<polygon fill="#999999" stroke="#666666" points="364,-19 267,-19 267,0 364,0 364,-19"/>
<text text-anchor="middle" x="315.5" y="-7" font-family="Helvetica,sans-Serif" font-size="10.00">flag_print_usage</text>
</a>
</g>
</g>
<!-- Node2 -->
<g id="Node000002" class="node">
<title>Node2</title>
<g id="a_Node000002"><a xlink:href="flags_8c.html#aeac664ad38a589c6e81ba58f4a75a005" target="_top" xlink:title="Parse command&#45;line arguments.">
<polygon fill="white" stroke="#666666" points="231,-19 164,-19 164,0 231,0 231,-19"/>
<text text-anchor="middle" x="197.5" y="-7" font-family="Helvetica,sans-Serif" font-size="10.00">flag_parse</text>
</a>
</g>
</g>
<!-- Node1&#45;&gt;Node2 -->
<g id="edge1_Node000001_Node000002" class="edge">
<title>Node1&#45;&gt;Node2</title>
<g id="a_edge1_Node000001_Node000002"><a xlink:title=" ">
<path fill="none" stroke="#63b8ff" d="M256.75,-9.5C247.99,-9.5 239.21,-9.5 231.24,-9.5"/>
<polygon fill="#63b8ff" stroke="#63b8ff" points="256.98,-13 266.98,-9.5 256.98,-6 256.98,-13"/>
</a>
</g>
</g>
<!-- Node2&#45;&gt;Node2 -->
<g id="edge2_Node000002_Node000002" class="edge">
<title>Node2&#45;&gt;Node2</title>
<g id="a_edge2_Node000002_Node000002"><a xlink:title=" ">
<path fill="none" stroke="#63b8ff" d="M219.35,-28.55C217.89,-33.38 210.61,-37 197.5,-37 176.53,-37 170.46,-27.73 179.31,-19.08"/>
<polygon fill="#63b8ff" stroke="#63b8ff" points="222.56,-27.15 215.69,-19.08 216.03,-29.67 222.56,-27.15"/>
</a>
</g>
</g>
<!-- Node3 -->
<g id="Node000003" class="node">
<title>Node3</title>
<g id="a_Node000003"><a xlink:href="flags_8c.html#a469f6058916e0ebe18871e235732377b" target="_top" xlink:title=" ">
<polygon fill="white" stroke="#666666" points="128,-19 0,-19 0,0 128,0 128,-19"/>
<text text-anchor="middle" x="64" y="-7" font-family="Helvetica,sans-Serif" font-size="10.00">flag_parse_and_invoke</text>
</a>
</g>
</g>
<!-- Node2&#45;&gt;Node3 -->
<g id="edge3_Node000002_Node000003" class="edge">
<title>Node2&#45;&gt;Node3</title>
<g id="a_edge3_Node000002_Node000003"><a xlink:title=" ">
<path fill="none" stroke="#63b8ff" d="M153.92,-9.5C145.69,-9.5 136.91,-9.5 128.19,-9.5"/>
<polygon fill="#63b8ff" stroke="#63b8ff" points="153.99,-13 163.99,-9.5 153.99,-6 153.99,-13"/>
</a>
</g>
</g>
</g>
</svg>
