<?xml version="1.0" encoding="UTF-8" standalone="no"?>
<!DOCTYPE svg PUBLIC "-//W3C//DTD SVG 1.1//EN"
 "http://www.w3.org/Graphics/SVG/1.1/DTD/svg11.dtd">
<!-- Generated by graphviz version 2.43.0 (0)
 -->
<!-- Title: include/flags.h Pages: 1 -->
<svg width="689pt" height="192pt"
 viewBox="0.00 0.00 688.53 192.00" xmlns="http://www.w3.org/2000/svg" xmlns:xlink="http://www.w3.org/1999/xlink">
<g id="graph0" class="graph" transform="scale(1 1) rotate(0) translate(4 188)">
<title>include/flags.h</title>
<!-- Node1 -->
<g id="Node000001" class="node">
<title>Node1</title>
<g id="a_Node000001"><a xlink:title="Command&#45;line flag parsing library.">
<polygon fill="#999999" stroke="#666666" points="397.03,-184 310.03,-184 310.03,-165 397.03,-165 397.03,-184"/>
<text text-anchor="middle" x="353.53" y="-172" font-family="Helvetica,sans-Serif" font-size="10.00">include/flags.h</text>
</a>
</g>
</g>
<!-- Node2 -->
<g id="Node000002" class="node">
<title>Node2</title>
<g id="a_Node000002"><a xlink:href="cstr_8h.html" target="_top" xlink:title="High&#45;performance C string with Small String Optimization (SSO).">
<polygon fill="white" stroke="#666666" points="195.03,-129 152.03,-129 152.03,-110 195.03,-110 195.03,-129"/>
<text text-anchor="middle" x="173.53" y="-117" font-family="Helvetica,sans-Serif" font-size="10.00">cstr.h</text>
</a>
</g>
</g>
<!-- Node1&#45;&gt;Node2 -->
<g id="edge1_Node000001_Node000002" class="edge">
<title>Node1&#45;&gt;Node2</title>
<g id="a_edge1_Node000001_Node000002"><a xlink:title=" ">
<path fill="none" stroke="#63b8ff" d="M324.61,-164.98C291.83,-155.33 238.57,-139.65 204.83,-129.72"/>
<polygon fill="#63b8ff" stroke="#63b8ff" points="205.62,-126.3 195.03,-126.83 203.64,-133.01 205.62,-126.3"/>
</a>
</g>
</g>
<!-- Node3 -->
<g id="Node000003" class="node">
<title>Node3</title>
<g id="a_Node000003"><a xlink:title=" ">
<polygon fill="#e0e0e0" stroke="#999999" points="74.53,-74 12.53,-74 12.53,-55 74.53,-55 74.53,-74"/>
<text text-anchor="middle" x="43.53" y="-62" font-family="Helvetica,sans-Serif" font-size="10.00">stdbool.h</text>
</a>
</g>
</g>
<!-- Node1&#45;&gt;Node3 -->
<g id="edge17_Node000001_Node000003" class="edge">
<title>Node1&#45;&gt;Node3</title>
<g id="a_edge17_Node000001_Node000003"><a xlink:title=" ">
<path fill="none" stroke="#63b8ff" d="M309.74,-168.95C266.09,-163.35 197.78,-151.65 142.53,-129 112.36,-116.63 81.3,-94.98 62.2,-80.44"/>
<polygon fill="#63b8ff" stroke="#63b8ff" points="64.13,-77.51 54.08,-74.14 59.84,-83.03 64.13,-77.51"/>
</a>
</g>
</g>
<!-- Node4 -->
<g id="Node000004" class="node">
<title>Node4</title>
<g id="a_Node000004"><a xlink:title=" ">
<polygon fill="#e0e0e0" stroke="#999999" points="291.53,-19 235.53,-19 235.53,0 291.53,0 291.53,-19"/>
<text text-anchor="middle" x="263.53" y="-7" font-family="Helvetica,sans-Serif" font-size="10.00">stddef.h</text>
</a>
</g>
</g>
<!-- Node1&#45;&gt;Node4 -->
<g id="edge18_Node000001_Node000004" class="edge">
<title>Node1&#45;&gt;Node4</title>
<g id="a_edge18_Node000001_Node000004"><a xlink:title=" ">
<path fill="none" stroke="#63b8ff" d="M348.69,-164.74C334.47,-138.98 292.59,-63.13 273.37,-28.33"/>
<polygon fill="#63b8ff" stroke="#63b8ff" points="276.29,-26.37 268.39,-19.31 270.16,-29.75 276.29,-26.37"/>
</a>
</g>
</g>
<!-- Node5 -->
<g id="Node000005" class="node">
<title>Node5</title>
<g id="a_Node000005"><a xlink:title=" ">
<polygon fill="#e0e0e0" stroke="#999999" points="80.03,-19 27.03,-19 27.03,0 80.03,0 80.03,-19"/>
<text text-anchor="middle" x="53.53" y="-7" font-family="Helvetica,sans-Serif" font-size="10.00">stdint.h</text>
</a>
</g>
</g>
<!-- Node1&#45;&gt;Node5 -->
<g id="edge19_Node000001_Node000005" class="edge">
<title>Node1&#45;&gt;Node5</title>
<g id="a_edge19_Node000001_Node000005"><a xlink:title=" ">
<path fill="none" stroke="#63b8ff" d="M309.71,-169.96C259.11,-164.9 173.93,-153.37 104.53,-129 56.3,-112.06 29.64,-117.94 3.53,-74 -7.31,-55.75 12.11,-36.9 29.82,-24.53"/>
<polygon fill="#63b8ff" stroke="#63b8ff" points="31.8,-27.42 38.24,-19.01 27.96,-21.57 31.8,-27.42"/>
</a>
</g>
</g>
<!-- Node8 -->
<g id="Node000008" class="node">
<title>Node8</title>
<g id="a_Node000008"><a xlink:title=" ">
<polygon fill="#e0e0e0" stroke="#999999" points="359.53,-19 309.53,-19 309.53,0 359.53,0 359.53,-19"/>
<text text-anchor="middle" x="334.53" y="-7" font-family="Helvetica,sans-Serif" font-size="10.00">stdio.h</text>
</a>
</g>
</g>
<!-- Node1&#45;&gt;Node8 -->
<g id="edge20_Node000001_Node000008" class="edge">
<title>Node1&#45;&gt;Node8</title>
<g id="a_edge20_Node000001_Node000008"><a xlink:title=" ">
<path fill="none" stroke="#63b8ff" d="M352.51,-164.74C349.54,-139.31 340.89,-65.08 336.77,-29.69"/>
<polygon fill="#63b8ff" stroke="#63b8ff" points="340.19,-28.83 335.56,-19.31 333.24,-29.64 340.19,-28.83"/>
</a>
</g>
</g>
<!-- Node9 -->
<g id="Node000009" class="node">
<title>Node9</title>
<g id="a_Node000009"><a xlink:title=" ">
<polygon fill="#e0e0e0" stroke="#999999" points="431.03,-19 378.03,-19 378.03,0 431.03,0 431.03,-19"/>
<text text-anchor="middle" x="404.53" y="-7" font-family="Helvetica,sans-Serif" font-size="10.00">stdlib.h</text>
</a>
</g>
</g>
<!-- Node1&#45;&gt;Node9 -->
<g id="edge21_Node000001_Node000009" class="edge">
<title>Node1&#45;&gt;Node9</title>
<g id="a_edge21_Node000001_Node000009"><a xlink:title=" ">
<path fill="none" stroke="#63b8ff" d="M356.27,-164.74C364.26,-139.2 387.65,-64.43 398.67,-29.23"/>
<polygon fill="#63b8ff" stroke="#63b8ff" points="402.13,-29.9 401.77,-19.31 395.45,-27.81 402.13,-29.9"/>
</a>
</g>
</g>
<!-- Node11 -->
<g id="Node000011" class="node">
<title>Node11</title>
<g id="a_Node000011"><a xlink:title=" ">
<polygon fill="#e0e0e0" stroke="#999999" points="452.03,-129 401.03,-129 401.03,-110 452.03,-110 452.03,-129"/>
<text text-anchor="middle" x="426.53" y="-117" font-family="Helvetica,sans-Serif" font-size="10.00">errno.h</text>
</a>
</g>
</g>
<!-- Node1&#45;&gt;Node11 -->
<g id="edge13_Node000001_Node000011" class="edge">
<title>Node1&#45;&gt;Node11</title>
<g id="a_edge13_Node000001_Node000011"><a xlink:title=" ">
<path fill="none" stroke="#63b8ff" d="M365.26,-164.98C376.26,-157 392.95,-144.88 406.13,-135.31"/>
<polygon fill="#63b8ff" stroke="#63b8ff" points="408.55,-137.88 414.59,-129.17 404.44,-132.21 408.55,-137.88"/>
</a>
</g>
</g>
<!-- Node12 -->
<g id="Node000012" class="node">
<title>Node12</title>
<g id="a_Node000012"><a xlink:title=" ">
<polygon fill="#e0e0e0" stroke="#999999" points="535.03,-129 470.03,-129 470.03,-110 535.03,-110 535.03,-129"/>
<text text-anchor="middle" x="502.53" y="-117" font-family="Helvetica,sans-Serif" font-size="10.00">inttypes.h</text>
</a>
</g>
</g>
<!-- Node1&#45;&gt;Node12 -->
<g id="edge14_Node000001_Node000012" class="edge">
<title>Node1&#45;&gt;Node12</title>
<g id="a_edge14_Node000001_Node000012"><a xlink:title=" ">
<path fill="none" stroke="#63b8ff" d="M377.47,-164.98C402.09,-156.23 440.65,-142.51 468.45,-132.62"/>
<polygon fill="#63b8ff" stroke="#63b8ff" points="469.9,-135.82 478.15,-129.17 467.56,-129.22 469.9,-135.82"/>
</a>
</g>
</g>
<!-- Node13 -->
<g id="Node000013" class="node">
<title>Node13</title>
<g id="a_Node000013"><a xlink:title=" ">
<polygon fill="#e0e0e0" stroke="#999999" points="606.03,-129 553.03,-129 553.03,-110 606.03,-110 606.03,-129"/>
<text text-anchor="middle" x="579.53" y="-117" font-family="Helvetica,sans-Serif" font-size="10.00">limits.h</text>
</a>
</g>
</g>
<!-- Node1&#45;&gt;Node13 -->
<g id="edge15_Node000001_Node000013" class="edge">
<title>Node1&#45;&gt;Node13</title>
<g id="a_edge15_Node000001_Node000013"><a xlink:title=" ">
<path fill="none" stroke="#63b8ff" d="M390.53,-164.99C426.99,-156.57 484.56,-143.23 543.01,-129.35"/>
<polygon fill="#63b8ff" stroke="#63b8ff" points="543.86,-132.74 552.78,-127.02 542.24,-125.93 543.86,-132.74"/>
</a>
</g>
</g>
<!-- Node14 -->
<g id="Node000014" class="node">
<title>Node14</title>
<g id="a_Node000014"><a xlink:title=" ">
<polygon fill="#e0e0e0" stroke="#999999" points="680.53,-129 624.53,-129 624.53,-110 680.53,-110 680.53,-129"/>
<text text-anchor="middle" x="652.53" y="-117" font-family="Helvetica,sans-Serif" font-size="10.00">stdarg.h</text>
</a>
</g>
</g>
<!-- Node1&#45;&gt;Node14 -->
<g id="edge16_Node000001_Node000014" class="edge">
<title>Node1&#45;&gt;Node14</title>
<g id="a_edge16_Node000001_Node000014"><a xlink:title=" ">
<path fill="none" stroke="#63b8ff" d="M397.25,-166.86C447.34,-159.08 532.11,-145.39 614.28,-129.16"/>
<polygon fill="#63b8ff" stroke="#63b8ff" points="615.16,-132.55 624.28,-127.17 613.79,-125.68 615.16,-132.55"/>
</a>
</g>
</g>
<!-- Node2&#45;&gt;Node3 -->
<g id="edge2_Node000002_Node000003" class="edge">
<title>Node2&#45;&gt;Node3</title>
<g id="a_edge2_Node000002_Node000003"><a xlink:title=" ">
<path fill="none" stroke="#63b8ff" d="M152.64,-109.98C131.45,-101.34 98.4,-87.87 74.23,-78.02"/>
<polygon fill="#63b8ff" stroke="#63b8ff" points="75.38,-74.7 64.8,-74.17 72.73,-81.19 75.38,-74.7"/>
</a>
</g>
</g>
<!-- Node2&#45;&gt;Node4 -->
<g id="edge3_Node000002_Node000004" class="edge">
<title>Node2&#45;&gt;Node4</title>
<g id="a_edge3_Node000002_Node000004"><a xlink:title=" ">
<path fill="none" stroke="#63b8ff" d="M192.08,-109.99C206.76,-102.41 226.84,-90.04 239.53,-74 249.93,-60.86 256.18,-42.73 259.68,-29.2"/>
<polygon fill="#63b8ff" stroke="#63b8ff" points="263.17,-29.67 262.01,-19.13 256.35,-28.09 263.17,-29.67"/>
</a>
</g>
</g>
<!-- Node2&#45;&gt;Node5 -->
<g id="edge4_Node000002_Node000005" class="edge">
<title>Node2&#45;&gt;Node5</title>
<g id="a_edge4_Node000002_Node000005"><a xlink:title=" ">
<path fill="none" stroke="#63b8ff" d="M163.71,-109.66C143.3,-91.3 96.1,-48.81 70.6,-25.87"/>
<polygon fill="#63b8ff" stroke="#63b8ff" points="72.92,-23.25 63.15,-19.16 68.24,-28.45 72.92,-23.25"/>
</a>
</g>
</g>
<!-- Node6 -->
<g id="Node000006" class="node">
<title>Node6</title>
<g id="a_Node000006"><a xlink:title=" ">
<polygon fill="#e0e0e0" stroke="#999999" points="151.03,-19 98.03,-19 98.03,0 151.03,0 151.03,-19"/>
<text text-anchor="middle" x="124.53" y="-7" font-family="Helvetica,sans-Serif" font-size="10.00">string.h</text>
</a>
</g>
</g>
<!-- Node2&#45;&gt;Node6 -->
<g id="edge5_Node000002_Node000006" class="edge">
<title>Node2&#45;&gt;Node6</title>
<g id="a_edge5_Node000002_Node000006"><a xlink:title=" ">
<path fill="none" stroke="#63b8ff" d="M169.52,-109.66C161.47,-91.93 143.23,-51.73 132.61,-28.32"/>
<polygon fill="#63b8ff" stroke="#63b8ff" points="135.78,-26.82 128.46,-19.16 129.4,-29.71 135.78,-26.82"/>
</a>
</g>
</g>
<!-- Node7 -->
<g id="Node000007" class="node">
<title>Node7</title>
<g id="a_Node000007"><a xlink:href="macros_8h.html" target="_top" xlink:title="Portable utility macros for assertions, memory, math, iteration, timing, and platform compatibility.">
<polygon fill="white" stroke="#666666" points="230.53,-74 168.53,-74 168.53,-55 230.53,-55 230.53,-74"/>
<text text-anchor="middle" x="199.53" y="-62" font-family="Helvetica,sans-Serif" font-size="10.00">macros.h</text>
</a>
</g>
</g>
<!-- Node2&#45;&gt;Node7 -->
<g id="edge6_Node000002_Node000007" class="edge">
<title>Node2&#45;&gt;Node7</title>
<g id="a_edge6_Node000002_Node000007"><a xlink:title=" ">
<path fill="none" stroke="#63b8ff" d="M177.82,-109.75C181.34,-102.57 186.44,-92.18 190.81,-83.27"/>
<polygon fill="#63b8ff" stroke="#63b8ff" points="194.05,-84.61 195.32,-74.09 187.77,-81.53 194.05,-84.61"/>
</a>
</g>
</g>
<!-- Node7&#45;&gt;Node4 -->
<g id="edge7_Node000007_Node000004" class="edge">
<title>Node7&#45;&gt;Node4</title>
<g id="a_edge7_Node000007_Node000004"><a xlink:title=" ">
<path fill="none" stroke="#63b8ff" d="M209.81,-54.98C219.36,-47.07 233.81,-35.11 245.31,-25.58"/>
<polygon fill="#63b8ff" stroke="#63b8ff" points="247.59,-28.24 253.06,-19.17 243.12,-22.85 247.59,-28.24"/>
</a>
</g>
</g>
<!-- Node7&#45;&gt;Node5 -->
<g id="edge8_Node000007_Node000005" class="edge">
<title>Node7&#45;&gt;Node5</title>
<g id="a_edge8_Node000007_Node000005"><a xlink:title=" ">
<path fill="none" stroke="#63b8ff" d="M176.07,-54.98C151.95,-46.23 114.16,-32.51 86.93,-22.62"/>
<polygon fill="#63b8ff" stroke="#63b8ff" points="88.01,-19.29 77.41,-19.17 85.62,-25.87 88.01,-19.29"/>
</a>
</g>
</g>
<!-- Node7&#45;&gt;Node6 -->
<g id="edge11_Node000007_Node000006" class="edge">
<title>Node7&#45;&gt;Node6</title>
<g id="a_edge11_Node000007_Node000006"><a xlink:title=" ">
<path fill="none" stroke="#63b8ff" d="M187.48,-54.98C176.07,-46.92 158.7,-34.65 145.09,-25.03"/>
<polygon fill="#63b8ff" stroke="#63b8ff" points="146.98,-22.08 136.8,-19.17 142.94,-27.8 146.98,-22.08"/>
</a>
</g>
</g>
<!-- Node7&#45;&gt;Node8 -->
<g id="edge9_Node000007_Node000008" class="edge">
<title>Node7&#45;&gt;Node8</title>
<g id="a_edge9_Node000007_Node000008"><a xlink:title=" ">
<path fill="none" stroke="#63b8ff" d="M221.22,-54.98C243.33,-46.3 277.85,-32.75 302.98,-22.88"/>
<polygon fill="#63b8ff" stroke="#63b8ff" points="304.41,-26.08 312.44,-19.17 301.86,-19.57 304.41,-26.08"/>
</a>
</g>
</g>
<!-- Node7&#45;&gt;Node9 -->
<g id="edge10_Node000007_Node000009" class="edge">
<title>Node7&#45;&gt;Node9</title>
<g id="a_edge10_Node000007_Node000009"><a xlink:title=" ">
<path fill="none" stroke="#63b8ff" d="M230.66,-55.45C267.58,-45.91 329,-30.03 368.09,-19.92"/>
<polygon fill="#63b8ff" stroke="#63b8ff" points="369.2,-23.25 378,-17.36 367.44,-16.47 369.2,-23.25"/>
</a>
</g>
</g>
<!-- Node10 -->
<g id="Node000010" class="node">
<title>Node10</title>
<g id="a_Node000010"><a xlink:title=" ">
<polygon fill="#e0e0e0" stroke="#999999" points="217.53,-19 169.53,-19 169.53,0 217.53,0 217.53,-19"/>
<text text-anchor="middle" x="193.53" y="-7" font-family="Helvetica,sans-Serif" font-size="10.00">time.h</text>
</a>
</g>
</g>
<!-- Node7&#45;&gt;Node10 -->
<g id="edge12_Node000007_Node000010" class="edge">
<title>Node7&#45;&gt;Node10</title>
<g id="a_edge12_Node000007_Node000010"><a xlink:title=" ">
<path fill="none" stroke="#63b8ff" d="M198.54,-54.75C197.75,-47.8 196.62,-37.85 195.64,-29.13"/>
<polygon fill="#63b8ff" stroke="#63b8ff" points="199.1,-28.63 194.5,-19.09 192.15,-29.42 199.1,-28.63"/>
</a>
</g>
</g>
</g>
</svg>
