<?xml version="1.0" encoding="UTF-8" standalone="no"?>
<!DOCTYPE svg PUBLIC "-//W3C//DTD SVG 1.1//EN"
 "http://www.w3.org/Graphics/SVG/1.1/DTD/svg11.dtd">
<!-- Generated by graphviz version 2.43.0 (0)
 -->
<!-- Title: include/flags.h Pages: 1 -->
<svg width="688pt" height="192pt"
 viewBox="0.00 0.00 687.56 192.00" xmlns="http://www.w3.org/2000/svg" xmlns:xlink="http://www.w3.org/1999/xlink">
<g id="graph0" class="graph" transform="scale(1 1) rotate(0) translate(4 188)">
<title>include/flags.h</title>
<!-- Node1 -->
<g id="Node000001" class="node">
<title>Node1</title>
<g id="a_Node000001"><a xlink:title="Command&#45;line flag parsing library.">
<polygon fill="#999999" stroke="#666666" points="396.06,-184 309.06,-184 309.06,-165 396.06,-165 396.06,-184"/>
<text text-anchor="middle" x="352.56" y="-172" font-family="Helvetica,sans-Serif" font-size="10.00">include/flags.h</text>
</a>
</g>
</g>
<!-- Node2 -->
<g id="Node000002" class="node">
<title>Node2</title>
<g id="a_Node000002"><a xlink:href="cstr_8h.html" target="_top" xlink:title="High&#45;performance C string with Small String Optimization (SSO).">
<polygon fill="white" stroke="#666666" points="226.06,-129 183.06,-129 183.06,-110 226.06,-110 226.06,-129"/>
<text text-anchor="middle" x="204.56" y="-117" font-family="Helvetica,sans-Serif" font-size="10.00">cstr.h</text>
</a>
</g>
</g>
<!-- Node1&#45;&gt;Node2 -->
<g id="edge1_Node000001_Node000002" class="edge">
<title>Node1&#45;&gt;Node2</title>
<g id="a_edge1_Node000001_Node000002"><a xlink:title=" ">
<path fill="none" stroke="#63b8ff" d="M328.78,-164.98C303.6,-155.97 263.74,-141.69 235.98,-131.75"/>
<polygon fill="#63b8ff" stroke="#63b8ff" points="236.95,-128.38 226.35,-128.3 234.59,-134.97 236.95,-128.38"/>
</a>
</g>
</g>
<!-- Node3 -->
<g id="Node000003" class="node">
<title>Node3</title>
<g id="a_Node000003"><a xlink:title=" ">
<polygon fill="#e0e0e0" stroke="#999999" points="75.56,-74 13.56,-74 13.56,-55 75.56,-55 75.56,-74"/>
<text text-anchor="middle" x="44.56" y="-62" font-family="Helvetica,sans-Serif" font-size="10.00">stdbool.h</text>
</a>
</g>
</g>
<!-- Node1&#45;&gt;Node3 -->
<g id="edge16_Node000001_Node000003" class="edge">
<title>Node1&#45;&gt;Node3</title>
<g id="a_edge16_Node000001_Node000003"><a xlink:title=" ">
<path fill="none" stroke="#63b8ff" d="M308.73,-168.25C266.56,-162.2 201.55,-150.25 148.56,-129 117.06,-116.37 84.2,-94.63 64.05,-80.16"/>
<polygon fill="#63b8ff" stroke="#63b8ff" points="65.88,-77.16 55.74,-74.08 61.75,-82.81 65.88,-77.16"/>
</a>
</g>
</g>
<!-- Node4 -->
<g id="Node000004" class="node">
<title>Node4</title>
<g id="a_Node000004"><a xlink:title=" ">
<polygon fill="#e0e0e0" stroke="#999999" points="149.56,-74 93.56,-74 93.56,-55 149.56,-55 149.56,-74"/>
<text text-anchor="middle" x="121.56" y="-62" font-family="Helvetica,sans-Serif" font-size="10.00">stddef.h</text>
</a>
</g>
</g>
<!-- Node1&#45;&gt;Node4 -->
<g id="edge17_Node000001_Node000004" class="edge">
<title>Node1&#45;&gt;Node4</title>
<g id="a_edge17_Node000001_Node000004"><a xlink:title=" ">
<path fill="none" stroke="#63b8ff" d="M309.06,-170.41C270.82,-165.98 214.96,-155.2 173.56,-129 155.56,-117.61 140.85,-97.87 131.73,-83.41"/>
<polygon fill="#63b8ff" stroke="#63b8ff" points="134.48,-81.19 126.33,-74.42 128.47,-84.79 134.48,-81.19"/>
</a>
</g>
</g>
<!-- Node5 -->
<g id="Node000005" class="node">
<title>Node5</title>
<g id="a_Node000005"><a xlink:title=" ">
<polygon fill="#e0e0e0" stroke="#999999" points="157.06,-19 104.06,-19 104.06,0 157.06,0 157.06,-19"/>
<text text-anchor="middle" x="130.56" y="-7" font-family="Helvetica,sans-Serif" font-size="10.00">stdint.h</text>
</a>
</g>
</g>
<!-- Node1&#45;&gt;Node5 -->
<g id="edge18_Node000001_Node000005" class="edge">
<title>Node1&#45;&gt;Node5</title>
<g id="a_edge18_Node000001_Node000005"><a xlink:title=" ">
<path fill="none" stroke="#63b8ff" d="M308.77,-168.26C222.54,-156.87 36.36,-126.55 4.56,-74 -17.61,-37.35 49.31,-21.14 93.94,-14.55"/>
<polygon fill="#63b8ff" stroke="#63b8ff" points="94.49,-18.01 103.92,-13.18 93.53,-11.07 94.49,-18.01"/>
</a>
</g>
</g>
<!-- Node8 -->
<g id="Node000008" class="node">
<title>Node8</title>
<g id="a_Node000008"><a xlink:title=" ">
<polygon fill="#e0e0e0" stroke="#999999" points="362.56,-19 312.56,-19 312.56,0 362.56,0 362.56,-19"/>
<text text-anchor="middle" x="337.56" y="-7" font-family="Helvetica,sans-Serif" font-size="10.00">stdio.h</text>
</a>
</g>
</g>
<!-- Node1&#45;&gt;Node8 -->
<g id="edge19_Node000001_Node000008" class="edge">
<title>Node1&#45;&gt;Node8</title>
<g id="a_edge19_Node000001_Node000008"><a xlink:title=" ">
<path fill="none" stroke="#63b8ff" d="M351.76,-164.74C349.42,-139.31 342.59,-65.08 339.33,-29.69"/>
<polygon fill="#63b8ff" stroke="#63b8ff" points="342.77,-28.94 338.37,-19.31 335.8,-29.59 342.77,-28.94"/>
</a>
</g>
</g>
<!-- Node9 -->
<g id="Node000009" class="node">
<title>Node9</title>
<g id="a_Node000009"><a xlink:title=" ">
<polygon fill="#e0e0e0" stroke="#999999" points="434.06,-19 381.06,-19 381.06,0 434.06,0 434.06,-19"/>
<text text-anchor="middle" x="407.56" y="-7" font-family="Helvetica,sans-Serif" font-size="10.00">stdlib.h</text>
</a>
</g>
</g>
<!-- Node1&#45;&gt;Node9 -->
<g id="edge20_Node000001_Node000009" class="edge">
<title>Node1&#45;&gt;Node9</title>
<g id="a_edge20_Node000001_Node000009"><a xlink:title=" ">
<path fill="none" stroke="#63b8ff" d="M355.52,-164.74C364.14,-139.2 389.37,-64.43 401.24,-29.23"/>
<polygon fill="#63b8ff" stroke="#63b8ff" points="404.71,-29.9 404.59,-19.31 398.08,-27.66 404.71,-29.9"/>
</a>
</g>
</g>
<!-- Node11 -->
<g id="Node000011" class="node">
<title>Node11</title>
<g id="a_Node000011"><a xlink:title=" ">
<polygon fill="#e0e0e0" stroke="#999999" points="451.06,-129 400.06,-129 400.06,-110 451.06,-110 451.06,-129"/>
<text text-anchor="middle" x="425.56" y="-117" font-family="Helvetica,sans-Serif" font-size="10.00">errno.h</text>
</a>
</g>
</g>
<!-- Node1&#45;&gt;Node11 -->
<g id="edge12_Node000001_Node000011" class="edge">
<title>Node1&#45;&gt;Node11</title>
<g id="a_edge12_Node000001_Node000011"><a xlink:title=" ">
<path fill="none" stroke="#63b8ff" d="M364.29,-164.98C375.29,-157 391.98,-144.88 405.17,-135.31"/>
<polygon fill="#63b8ff" stroke="#63b8ff" points="407.58,-137.88 413.62,-129.17 403.47,-132.21 407.58,-137.88"/>
</a>
</g>
</g>
<!-- Node12 -->
<g id="Node000012" class="node">
<title>Node12</title>
<g id="a_Node000012"><a xlink:title=" ">
<polygon fill="#e0e0e0" stroke="#999999" points="534.06,-129 469.06,-129 469.06,-110 534.06,-110 534.06,-129"/>
<text text-anchor="middle" x="501.56" y="-117" font-family="Helvetica,sans-Serif" font-size="10.00">inttypes.h</text>
</a>
</g>
</g>
<!-- Node1&#45;&gt;Node12 -->
<g id="edge13_Node000001_Node000012" class="edge">
<title>Node1&#45;&gt;Node12</title>
<g id="a_edge13_Node000001_Node000012"><a xlink:title=" ">
<path fill="none" stroke="#63b8ff" d="M376.5,-164.98C401.12,-156.23 439.68,-142.51 467.48,-132.62"/>
<polygon fill="#63b8ff" stroke="#63b8ff" points="468.94,-135.82 477.19,-129.17 466.59,-129.22 468.94,-135.82"/>
</a>
</g>
</g>
<!-- Node13 -->
<g id="Node000013" class="node">
<title>Node13</title>
<g id="a_Node000013"><a xlink:title=" ">
<polygon fill="#e0e0e0" stroke="#999999" points="605.06,-129 552.06,-129 552.06,-110 605.06,-110 605.06,-129"/>
<text text-anchor="middle" x="578.56" y="-117" font-family="Helvetica,sans-Serif" font-size="10.00">limits.h</text>
</a>
</g>
</g>
<!-- Node1&#45;&gt;Node13 -->
<g id="edge14_Node000001_Node000013" class="edge">
<title>Node1&#45;&gt;Node13</title>
<g id="a_edge14_Node000001_Node000013"><a xlink:title=" ">
<path fill="none" stroke="#63b8ff" d="M389.56,-164.99C426.02,-156.57 483.59,-143.23 542.05,-129.35"/>
<polygon fill="#63b8ff" stroke="#63b8ff" points="542.9,-132.74 551.82,-127.02 541.28,-125.93 542.9,-132.74"/>
</a>
</g>
</g>
<!-- Node14 -->
<g id="Node000014" class="node">
<title>Node14</title>
<g id="a_Node000014"><a xlink:title=" ">
<polygon fill="#e0e0e0" stroke="#999999" points="679.56,-129 623.56,-129 623.56,-110 679.56,-110 679.56,-129"/>
<text text-anchor="middle" x="651.56" y="-117" font-family="Helvetica,sans-Serif" font-size="10.00">stdarg.h</text>
</a>
</g>
</g>
<!-- Node1&#45;&gt;Node14 -->
<g id="edge15_Node000001_Node000014" class="edge">
<title>Node1&#45;&gt;Node14</title>
<g id="a_edge15_Node000001_Node000014"><a xlink:title=" ">
<path fill="none" stroke="#63b8ff" d="M396.28,-166.86C446.37,-159.08 531.15,-145.39 613.31,-129.16"/>
<polygon fill="#63b8ff" stroke="#63b8ff" points="614.19,-132.55 623.32,-127.17 612.83,-125.68 614.19,-132.55"/>
</a>
</g>
</g>
<!-- Node2&#45;&gt;Node3 -->
<g id="edge2_Node000002_Node000003" class="edge">
<title>Node2&#45;&gt;Node3</title>
<g id="a_edge2_Node000002_Node000003"><a xlink:title=" ">
<path fill="none" stroke="#63b8ff" d="M182.98,-111.35C156.58,-102.61 111.52,-87.68 80,-77.24"/>
<polygon fill="#63b8ff" stroke="#63b8ff" points="80.88,-73.84 70.29,-74.02 78.68,-80.49 80.88,-73.84"/>
</a>
</g>
</g>
<!-- Node2&#45;&gt;Node4 -->
<g id="edge3_Node000002_Node000004" class="edge">
<title>Node2&#45;&gt;Node4</title>
<g id="a_edge3_Node000002_Node000004"><a xlink:title=" ">
<path fill="none" stroke="#63b8ff" d="M191.23,-109.98C178.48,-101.84 159.01,-89.41 143.89,-79.76"/>
<polygon fill="#63b8ff" stroke="#63b8ff" points="145.45,-76.6 135.14,-74.17 141.69,-82.5 145.45,-76.6"/>
</a>
</g>
</g>
<!-- Node2&#45;&gt;Node5 -->
<g id="edge4_Node000002_Node000005" class="edge">
<title>Node2&#45;&gt;Node5</title>
<g id="a_edge4_Node000002_Node000005"><a xlink:title=" ">
<path fill="none" stroke="#63b8ff" d="M198.51,-109.66C186.25,-91.77 158.32,-51 142.34,-27.69"/>
<polygon fill="#63b8ff" stroke="#63b8ff" points="145.03,-25.43 136.5,-19.16 139.26,-29.39 145.03,-25.43"/>
</a>
</g>
</g>
<!-- Node6 -->
<g id="Node000006" class="node">
<title>Node6</title>
<g id="a_Node000006"><a xlink:title=" ">
<polygon fill="#e0e0e0" stroke="#999999" points="228.06,-19 175.06,-19 175.06,0 228.06,0 228.06,-19"/>
<text text-anchor="middle" x="201.56" y="-7" font-family="Helvetica,sans-Serif" font-size="10.00">string.h</text>
</a>
</g>
</g>
<!-- Node2&#45;&gt;Node6 -->
<g id="edge5_Node000002_Node000006" class="edge">
<title>Node2&#45;&gt;Node6</title>
<g id="a_edge5_Node000002_Node000006"><a xlink:title=" ">
<path fill="none" stroke="#63b8ff" d="M204.32,-109.66C203.83,-92.17 202.74,-52.8 202.08,-29.27"/>
<polygon fill="#63b8ff" stroke="#63b8ff" points="205.58,-29.06 201.8,-19.16 198.58,-29.25 205.58,-29.06"/>
</a>
</g>
</g>
<!-- Node7 -->
<g id="Node000007" class="node">
<title>Node7</title>
<g id="a_Node000007"><a xlink:href="macros_8h.html" target="_top" xlink:title="Collection of utility macros for assertions, memory management, math, and debugging.">
<polygon fill="white" stroke="#666666" points="305.56,-74 243.56,-74 243.56,-55 305.56,-55 305.56,-74"/>
<text text-anchor="middle" x="274.56" y="-62" font-family="Helvetica,sans-Serif" font-size="10.00">macros.h</text>
</a>
</g>
</g>
<!-- Node2&#45;&gt;Node7 -->
<g id="edge6_Node000002_Node000007" class="edge">
<title>Node2&#45;&gt;Node7</title>
<g id="a_edge6_Node000002_Node000007"><a xlink:title=" ">
<path fill="none" stroke="#63b8ff" d="M215.81,-109.98C226.36,-102 242.36,-89.88 255,-80.31"/>
<polygon fill="#63b8ff" stroke="#63b8ff" points="257.25,-83 263.11,-74.17 253.03,-77.42 257.25,-83"/>
</a>
</g>
</g>
<!-- Node7&#45;&gt;Node5 -->
<g id="edge7_Node000007_Node000005" class="edge">
<title>Node7&#45;&gt;Node5</title>
<g id="a_edge7_Node000007_Node000005"><a xlink:title=" ">
<path fill="none" stroke="#63b8ff" d="M251.43,-54.98C227.74,-46.27 190.69,-32.63 163.86,-22.75"/>
<polygon fill="#63b8ff" stroke="#63b8ff" points="164.71,-19.34 154.12,-19.17 162.3,-25.91 164.71,-19.34"/>
</a>
</g>
</g>
<!-- Node7&#45;&gt;Node6 -->
<g id="edge10_Node000007_Node000006" class="edge">
<title>Node7&#45;&gt;Node6</title>
<g id="a_edge10_Node000007_Node000006"><a xlink:title=" ">
<path fill="none" stroke="#63b8ff" d="M262.83,-54.98C251.83,-47 235.14,-34.88 221.96,-25.31"/>
<polygon fill="#63b8ff" stroke="#63b8ff" points="223.65,-22.21 213.5,-19.17 219.54,-27.88 223.65,-22.21"/>
</a>
</g>
</g>
<!-- Node7&#45;&gt;Node8 -->
<g id="edge8_Node000007_Node000008" class="edge">
<title>Node7&#45;&gt;Node8</title>
<g id="a_edge8_Node000007_Node000008"><a xlink:title=" ">
<path fill="none" stroke="#63b8ff" d="M284.68,-54.98C294,-47.15 308.03,-35.34 319.3,-25.86"/>
<polygon fill="#63b8ff" stroke="#63b8ff" points="321.86,-28.29 327.26,-19.17 317.35,-22.93 321.86,-28.29"/>
</a>
</g>
</g>
<!-- Node7&#45;&gt;Node9 -->
<g id="edge9_Node000007_Node000009" class="edge">
<title>Node7&#45;&gt;Node9</title>
<g id="a_edge9_Node000007_Node000009"><a xlink:title=" ">
<path fill="none" stroke="#63b8ff" d="M295.93,-54.98C317.71,-46.3 351.72,-32.75 376.48,-22.88"/>
<polygon fill="#63b8ff" stroke="#63b8ff" points="377.81,-26.12 385.81,-19.17 375.22,-19.62 377.81,-26.12"/>
</a>
</g>
</g>
<!-- Node10 -->
<g id="Node000010" class="node">
<title>Node10</title>
<g id="a_Node000010"><a xlink:title=" ">
<polygon fill="#e0e0e0" stroke="#999999" points="294.56,-19 246.56,-19 246.56,0 294.56,0 294.56,-19"/>
<text text-anchor="middle" x="270.56" y="-7" font-family="Helvetica,sans-Serif" font-size="10.00">time.h</text>
</a>
</g>
</g>
<!-- Node7&#45;&gt;Node10 -->
<g id="edge11_Node000007_Node000010" class="edge">
<title>Node7&#45;&gt;Node10</title>
<g id="a_edge11_Node000007_Node000010"><a xlink:title=" ">
<path fill="none" stroke="#63b8ff" d="M273.9,-54.75C273.38,-47.8 272.63,-37.85 271.97,-29.13"/>
<polygon fill="#63b8ff" stroke="#63b8ff" points="275.45,-28.8 271.21,-19.09 268.47,-29.32 275.45,-28.8"/>
</a>
</g>
</g>
</g>
</svg>
