<?xml version="1.0" encoding="UTF-8" standalone="no"?>
<!DOCTYPE svg PUBLIC "-//W3C//DTD SVG 1.1//EN"
 "http://www.w3.org/Graphics/SVG/1.1/DTD/svg11.dtd">
<!-- Generated by graphviz version 2.43.0 (0)
 -->
<!-- Title: include/linear_alg.h Pages: 1 -->
<svg width="443pt" height="247pt"
 viewBox="0.00 0.00 443.00 247.00" xmlns="http://www.w3.org/2000/svg" xmlns:xlink="http://www.w3.org/1999/xlink">
<g id="graph0" class="graph" transform="scale(1 1) rotate(0) translate(4 243)">
<title>include/linear_alg.h</title>
<!-- Node1 -->
<g id="Node000001" class="node">
<title>Node1</title>
<g id="a_Node000001"><a xlink:title="Linear algebra operations and utilities.">
<polygon fill="#999999" stroke="#666666" points="212.5,-239 100.5,-239 100.5,-220 212.5,-220 212.5,-239"/>
<text text-anchor="middle" x="156.5" y="-227" font-family="Helvetica,sans-Serif" font-size="10.00">include/linear_alg.h</text>
</a>
</g>
</g>
<!-- Node2 -->
<g id="Node000002" class="node">
<title>Node2</title>
<g id="a_Node000002"><a xlink:href="matrix_8h.html" target="_top" xlink:title="Matrix operations and mathematical utilities.">
<polygon fill="white" stroke="#666666" points="157.5,-184 99.5,-184 99.5,-165 157.5,-165 157.5,-184"/>
<text text-anchor="middle" x="128.5" y="-172" font-family="Helvetica,sans-Serif" font-size="10.00">matrix.h</text>
</a>
</g>
</g>
<!-- Node1&#45;&gt;Node2 -->
<g id="edge1_Node000001_Node000002" class="edge">
<title>Node1&#45;&gt;Node2</title>
<g id="a_edge1_Node000001_Node000002"><a xlink:title=" ">
<path fill="none" stroke="#63b8ff" d="M151.88,-219.75C148.04,-212.49 142.48,-201.95 137.74,-192.98"/>
<polygon fill="#63b8ff" stroke="#63b8ff" points="140.8,-191.3 133.04,-184.09 134.61,-194.57 140.8,-191.3"/>
</a>
</g>
</g>
<!-- Node6 -->
<g id="Node000006" class="node">
<title>Node6</title>
<g id="a_Node000006"><a xlink:href="vec_8h_source.html" target="_top" xlink:title=" ">
<polygon fill="white" stroke="#666666" points="232,-129 189,-129 189,-110 232,-110 232,-129"/>
<text text-anchor="middle" x="210.5" y="-117" font-family="Helvetica,sans-Serif" font-size="10.00">vec.h</text>
</a>
</g>
</g>
<!-- Node1&#45;&gt;Node6 -->
<g id="edge17_Node000001_Node000006" class="edge">
<title>Node1&#45;&gt;Node6</title>
<g id="a_edge17_Node000001_Node000006"><a xlink:title=" ">
<path fill="none" stroke="#63b8ff" d="M160.92,-219.66C169.78,-201.93 189.89,-161.73 201.59,-138.32"/>
<polygon fill="#63b8ff" stroke="#63b8ff" points="204.83,-139.67 206.17,-129.16 198.57,-136.54 204.83,-139.67"/>
</a>
</g>
</g>
<!-- Node3 -->
<g id="Node000003" class="node">
<title>Node3</title>
<g id="a_Node000003"><a xlink:title=" ">
<polygon fill="#e0e0e0" stroke="#999999" points="47,-129 0,-129 0,-110 47,-110 47,-129"/>
<text text-anchor="middle" x="23.5" y="-117" font-family="Helvetica,sans-Serif" font-size="10.00">float.h</text>
</a>
</g>
</g>
<!-- Node2&#45;&gt;Node3 -->
<g id="edge2_Node000002_Node000003" class="edge">
<title>Node2&#45;&gt;Node3</title>
<g id="a_edge2_Node000002_Node000003"><a xlink:title=" ">
<path fill="none" stroke="#63b8ff" d="M111.63,-164.98C94.89,-156.54 69,-143.47 49.61,-133.68"/>
<polygon fill="#63b8ff" stroke="#63b8ff" points="51.18,-130.55 40.68,-129.17 48.03,-136.8 51.18,-130.55"/>
</a>
</g>
</g>
<!-- Node4 -->
<g id="Node000004" class="node">
<title>Node4</title>
<g id="a_Node000004"><a xlink:title=" ">
<polygon fill="#e0e0e0" stroke="#999999" points="154.5,-19 92.5,-19 92.5,0 154.5,0 154.5,-19"/>
<text text-anchor="middle" x="123.5" y="-7" font-family="Helvetica,sans-Serif" font-size="10.00">stdbool.h</text>
</a>
</g>
</g>
<!-- Node2&#45;&gt;Node4 -->
<g id="edge3_Node000002_Node000004" class="edge">
<title>Node2&#45;&gt;Node4</title>
<g id="a_edge3_Node000002_Node000004"><a xlink:title=" ">
<path fill="none" stroke="#63b8ff" d="M122.58,-164.86C109.92,-145.28 82.31,-96.03 94.5,-55 97.48,-44.98 103.5,-35.11 109.29,-27.22"/>
<polygon fill="#63b8ff" stroke="#63b8ff" points="112.13,-29.28 115.56,-19.25 106.63,-24.95 112.13,-29.28"/>
</a>
</g>
</g>
<!-- Node5 -->
<g id="Node000005" class="node">
<title>Node5</title>
<g id="a_Node000005"><a xlink:title=" ">
<polygon fill="#e0e0e0" stroke="#999999" points="153.5,-74 103.5,-74 103.5,-55 153.5,-55 153.5,-74"/>
<text text-anchor="middle" x="128.5" y="-62" font-family="Helvetica,sans-Serif" font-size="10.00">stdio.h</text>
</a>
</g>
</g>
<!-- Node2&#45;&gt;Node5 -->
<g id="edge4_Node000002_Node000005" class="edge">
<title>Node2&#45;&gt;Node5</title>
<g id="a_edge4_Node000002_Node000005"><a xlink:title=" ">
<path fill="none" stroke="#63b8ff" d="M128.5,-164.66C128.5,-147.17 128.5,-107.8 128.5,-84.27"/>
<polygon fill="#63b8ff" stroke="#63b8ff" points="132,-84.16 128.5,-74.16 125,-84.16 132,-84.16"/>
</a>
</g>
</g>
<!-- Node2&#45;&gt;Node6 -->
<g id="edge5_Node000002_Node000006" class="edge">
<title>Node2&#45;&gt;Node6</title>
<g id="a_edge5_Node000002_Node000006"><a xlink:title=" ">
<path fill="none" stroke="#63b8ff" d="M141.67,-164.98C154.27,-156.84 173.5,-144.41 188.44,-134.76"/>
<polygon fill="#63b8ff" stroke="#63b8ff" points="190.59,-137.54 197.09,-129.17 186.79,-131.66 190.59,-137.54"/>
</a>
</g>
</g>
<!-- Node6&#45;&gt;Node4 -->
<g id="edge8_Node000006_Node000004" class="edge">
<title>Node6&#45;&gt;Node4</title>
<g id="a_edge8_Node000006_Node000004"><a xlink:title=" ">
<path fill="none" stroke="#63b8ff" d="M204.17,-109.72C195.17,-97.32 178.03,-74.07 162.5,-55 154.72,-45.44 145.66,-35.07 138.23,-26.74"/>
<polygon fill="#63b8ff" stroke="#63b8ff" points="140.75,-24.3 131.46,-19.2 135.54,-28.98 140.75,-24.3"/>
</a>
</g>
</g>
<!-- Node6&#45;&gt;Node5 -->
<g id="edge6_Node000006_Node000005" class="edge">
<title>Node6&#45;&gt;Node5</title>
<g id="a_edge6_Node000006_Node000005"><a xlink:title=" ">
<path fill="none" stroke="#63b8ff" d="M197.33,-109.98C184.73,-101.84 165.5,-89.41 150.56,-79.76"/>
<polygon fill="#63b8ff" stroke="#63b8ff" points="152.21,-76.66 141.91,-74.17 148.41,-82.54 152.21,-76.66"/>
</a>
</g>
</g>
<!-- Node7 -->
<g id="Node000007" class="node">
<title>Node7</title>
<g id="a_Node000007"><a xlink:title=" ">
<polygon fill="#e0e0e0" stroke="#999999" points="224,-19 173,-19 173,0 224,0 224,-19"/>
<text text-anchor="middle" x="198.5" y="-7" font-family="Helvetica,sans-Serif" font-size="10.00">math.h</text>
</a>
</g>
</g>
<!-- Node6&#45;&gt;Node7 -->
<g id="edge7_Node000006_Node000007" class="edge">
<title>Node6&#45;&gt;Node7</title>
<g id="a_edge7_Node000006_Node000007"><a xlink:title=" ">
<path fill="none" stroke="#63b8ff" d="M209.52,-109.66C207.57,-92.17 203.2,-52.8 200.59,-29.27"/>
<polygon fill="#63b8ff" stroke="#63b8ff" points="204.05,-28.71 199.46,-19.16 197.09,-29.48 204.05,-28.71"/>
</a>
</g>
</g>
<!-- Node8 -->
<g id="Node000008" class="node">
<title>Node8</title>
<g id="a_Node000008"><a xlink:title=" ">
<polygon fill="#e0e0e0" stroke="#999999" points="364,-19 311,-19 311,0 364,0 364,-19"/>
<text text-anchor="middle" x="337.5" y="-7" font-family="Helvetica,sans-Serif" font-size="10.00">stdint.h</text>
</a>
</g>
</g>
<!-- Node6&#45;&gt;Node8 -->
<g id="edge9_Node000006_Node000008" class="edge">
<title>Node6&#45;&gt;Node8</title>
<g id="a_edge9_Node000006_Node000008"><a xlink:title=" ">
<path fill="none" stroke="#63b8ff" d="M232.02,-113.1C253.26,-106.81 285.51,-94.57 306.5,-74 319.08,-61.67 327.3,-43.19 332.1,-29.34"/>
<polygon fill="#63b8ff" stroke="#63b8ff" points="335.55,-30.02 335.22,-19.43 328.88,-27.92 335.55,-30.02"/>
</a>
</g>
</g>
<!-- Node9 -->
<g id="Node000009" class="node">
<title>Node9</title>
<g id="a_Node000009"><a xlink:title=" ">
<polygon fill="#e0e0e0" stroke="#999999" points="435,-19 382,-19 382,0 435,0 435,-19"/>
<text text-anchor="middle" x="408.5" y="-7" font-family="Helvetica,sans-Serif" font-size="10.00">string.h</text>
</a>
</g>
</g>
<!-- Node6&#45;&gt;Node9 -->
<g id="edge10_Node000006_Node000009" class="edge">
<title>Node6&#45;&gt;Node9</title>
<g id="a_edge10_Node000006_Node000009"><a xlink:title=" ">
<path fill="none" stroke="#63b8ff" d="M232.07,-112.45C256.22,-105.19 296.09,-91.74 327.5,-74 351.39,-60.51 375.77,-40.35 391.45,-26.38"/>
<polygon fill="#63b8ff" stroke="#63b8ff" points="394.15,-28.65 399.21,-19.34 389.45,-23.47 394.15,-28.65"/>
</a>
</g>
</g>
<!-- Node10 -->
<g id="Node000010" class="node">
<title>Node10</title>
<g id="a_Node000010"><a xlink:href="simd_8h.html" target="_top" xlink:title="Portable Single Instruction Multiple Data (SIMD) Intrinsics Wrapper.">
<polygon fill="white" stroke="#666666" points="297.5,-74 247.5,-74 247.5,-55 297.5,-55 297.5,-74"/>
<text text-anchor="middle" x="272.5" y="-62" font-family="Helvetica,sans-Serif" font-size="10.00">simd.h</text>
</a>
</g>
</g>
<!-- Node6&#45;&gt;Node10 -->
<g id="edge11_Node000006_Node000010" class="edge">
<title>Node6&#45;&gt;Node10</title>
<g id="a_edge11_Node000006_Node000010"><a xlink:title=" ">
<path fill="none" stroke="#63b8ff" d="M220.46,-109.98C229.63,-102.15 243.44,-90.34 254.53,-80.86"/>
<polygon fill="#63b8ff" stroke="#63b8ff" points="257.03,-83.33 262.36,-74.17 252.48,-78.01 257.03,-83.33"/>
</a>
</g>
</g>
<!-- Node10&#45;&gt;Node4 -->
<g id="edge13_Node000010_Node000004" class="edge">
<title>Node10&#45;&gt;Node4</title>
<g id="a_edge13_Node000010_Node000004"><a xlink:title=" ">
<path fill="none" stroke="#63b8ff" d="M248.56,-54.98C223.94,-46.23 185.38,-32.51 157.58,-22.62"/>
<polygon fill="#63b8ff" stroke="#63b8ff" points="158.47,-19.22 147.88,-19.17 156.12,-25.82 158.47,-19.22"/>
</a>
</g>
</g>
<!-- Node10&#45;&gt;Node7 -->
<g id="edge12_Node000010_Node000007" class="edge">
<title>Node10&#45;&gt;Node7</title>
<g id="a_edge12_Node000010_Node000007"><a xlink:title=" ">
<path fill="none" stroke="#63b8ff" d="M260.61,-54.98C249.35,-46.92 232.21,-34.65 218.79,-25.03"/>
<polygon fill="#63b8ff" stroke="#63b8ff" points="220.77,-22.15 210.61,-19.17 216.7,-27.84 220.77,-22.15"/>
</a>
</g>
</g>
<!-- Node10&#45;&gt;Node8 -->
<g id="edge14_Node000010_Node000008" class="edge">
<title>Node10&#45;&gt;Node8</title>
<g id="a_edge14_Node000010_Node000008"><a xlink:title=" ">
<path fill="none" stroke="#63b8ff" d="M282.94,-54.98C292.65,-47.07 307.32,-35.11 319,-25.58"/>
<polygon fill="#63b8ff" stroke="#63b8ff" points="321.33,-28.2 326.87,-19.17 316.9,-22.78 321.33,-28.2"/>
</a>
</g>
</g>
<!-- Node10&#45;&gt;Node9 -->
<g id="edge15_Node000010_Node000009" class="edge">
<title>Node10&#45;&gt;Node9</title>
<g id="a_edge15_Node000010_Node000009"><a xlink:title=" ">
<path fill="none" stroke="#63b8ff" d="M294.35,-54.98C316.62,-46.3 351.4,-32.75 376.72,-22.88"/>
<polygon fill="#63b8ff" stroke="#63b8ff" points="378.21,-26.06 386.25,-19.17 375.66,-19.54 378.21,-26.06"/>
</a>
</g>
</g>
<!-- Node11 -->
<g id="Node000011" class="node">
<title>Node11</title>
<g id="a_Node000011"><a xlink:href="align_8h.html" target="_top" xlink:title="Memory alignment utilities and macros for cross&#45;platform alignment.">
<polygon fill="white" stroke="#666666" points="292.5,-19 242.5,-19 242.5,0 292.5,0 292.5,-19"/>
<text text-anchor="middle" x="267.5" y="-7" font-family="Helvetica,sans-Serif" font-size="10.00">align.h</text>
</a>
</g>
</g>
<!-- Node10&#45;&gt;Node11 -->
<g id="edge16_Node000010_Node000011" class="edge">
<title>Node10&#45;&gt;Node11</title>
<g id="a_edge16_Node000010_Node000011"><a xlink:title=" ">
<path fill="none" stroke="#63b8ff" d="M271.67,-54.75C271.02,-47.8 270.08,-37.85 269.26,-29.13"/>
<polygon fill="#63b8ff" stroke="#63b8ff" points="272.73,-28.72 268.31,-19.09 265.77,-29.37 272.73,-28.72"/>
</a>
</g>
</g>
</g>
</svg>
