<?xml version="1.0" encoding="UTF-8" standalone="no"?>
<!DOCTYPE svg PUBLIC "-//W3C//DTD SVG 1.1//EN"
 "http://www.w3.org/Graphics/SVG/1.1/DTD/svg11.dtd">
<!-- Generated by graphviz version 2.43.0 (0)
 -->
<!-- Title: list_index_of Pages: 1 -->
<svg width="224pt" height="155pt"
 viewBox="0.00 0.00 224.00 155.00" xmlns="http://www.w3.org/2000/svg" xmlns:xlink="http://www.w3.org/1999/xlink">

<svg id="main" version="1.1" xmlns="http://www.w3.org/2000/svg" xmlns:xlink="http://www.w3.org/1999/xlink" xml:space="preserve" onload="init(evt)">
<style type="text/css"><![CDATA[
.node, .edge {opacity: 0.7;}
.node.selected, .edge.selected {opacity: 1;}
.edge:hover path { stroke: red; }
.edge:hover polygon { stroke: red; fill: red; }
]]></style>
<script type="application/ecmascript" xlink:href="svg.min.js"/>
<svg id="graph" class="graph">
<g id="graph0" class="graph" transform="scale(1 1) rotate(0) translate(4 151)">
<title>list_index_of</title>
<!-- Node1 -->
<g id="Node000001" class="node">
<title>Node1</title>
<g id="a_Node000001"><a xlink:title=" ">
<polygon fill="#999999" stroke="#666666" points="216,-74 137,-74 137,-55 216,-55 216,-74"/>
<text text-anchor="middle" x="176.5" y="-62" font-family="Helvetica,sans-Serif" font-size="10.00">list_index_of</text>
</a>
</g>
</g>
<!-- Node1&#45;&gt;Node1 -->
<g id="edge1_Node000001_Node000001" class="edge">
<title>Node1&#45;&gt;Node1</title>
<g id="a_edge1_Node000001_Node000001"><a xlink:title=" ">
<path fill="none" stroke="#63b8ff" d="M199.83,-83.55C198.27,-88.38 190.5,-92 176.5,-92 154.11,-92 147.63,-82.73 157.08,-74.08"/>
<polygon fill="#63b8ff" stroke="#63b8ff" points="202.97,-81.99 195.92,-74.08 196.5,-84.66 202.97,-81.99"/>
</a>
</g>
</g>
<!-- Node2 -->
<g id="Node000002" class="node">
<title>Node2</title>
<g id="a_Node000002"><a xlink:href="list_8c.html#a458c9bd26f9d410e47295674ce641856" target="_top" xlink:title=" ">
<polygon fill="white" stroke="#666666" points="96.5,-129 4.5,-129 4.5,-110 96.5,-110 96.5,-129"/>
<text text-anchor="middle" x="50.5" y="-117" font-family="Helvetica,sans-Serif" font-size="10.00">list_insert_after</text>
</a>
</g>
</g>
<!-- Node1&#45;&gt;Node2 -->
<g id="edge2_Node000001_Node000002" class="edge">
<title>Node1&#45;&gt;Node2</title>
<g id="a_edge2_Node000001_Node000002"><a xlink:title=" ">
<path fill="none" stroke="#63b8ff" d="M148.62,-78.76C134.6,-85.97 117.07,-94.61 101,-101.5 94.11,-104.45 86.55,-107.36 79.47,-109.95"/>
<polygon fill="#63b8ff" stroke="#63b8ff" points="150.44,-81.76 157.7,-74.05 147.21,-75.55 150.44,-81.76"/>
</a>
</g>
</g>
<!-- Node3 -->
<g id="Node000003" class="node">
<title>Node3</title>
<g id="a_Node000003"><a xlink:href="list_8c.html#a24974973809996e771e8dd849d73dec2" target="_top" xlink:title=" ">
<polygon fill="white" stroke="#666666" points="101,-74 0,-74 0,-55 101,-55 101,-74"/>
<text text-anchor="middle" x="50.5" y="-62" font-family="Helvetica,sans-Serif" font-size="10.00">list_insert_before</text>
</a>
</g>
</g>
<!-- Node1&#45;&gt;Node3 -->
<g id="edge4_Node000001_Node000003" class="edge">
<title>Node1&#45;&gt;Node3</title>
<g id="a_edge4_Node000001_Node000003"><a xlink:title=" ">
<path fill="none" stroke="#63b8ff" d="M126.67,-64.5C118.38,-64.5 109.76,-64.5 101.45,-64.5"/>
<polygon fill="#63b8ff" stroke="#63b8ff" points="126.95,-68 136.95,-64.5 126.95,-61 126.95,-68"/>
</a>
</g>
</g>
<!-- Node4 -->
<g id="Node000004" class="node">
<title>Node4</title>
<g id="a_Node000004"><a xlink:href="list_8c.html#adaea9d3c6da6811fc1d63b88791df9b8" target="_top" xlink:title=" ">
<polygon fill="white" stroke="#666666" points="87.5,-19 13.5,-19 13.5,0 87.5,0 87.5,-19"/>
<text text-anchor="middle" x="50.5" y="-7" font-family="Helvetica,sans-Serif" font-size="10.00">list_remove</text>
</a>
</g>
</g>
<!-- Node1&#45;&gt;Node4 -->
<g id="edge6_Node000001_Node000004" class="edge">
<title>Node1&#45;&gt;Node4</title>
<g id="a_edge6_Node000001_Node000004"><a xlink:title=" ">
<path fill="none" stroke="#63b8ff" d="M144.57,-50.78C122.38,-40.94 93.03,-27.92 73.27,-19.16"/>
<polygon fill="#63b8ff" stroke="#63b8ff" points="143.34,-54.06 153.9,-54.92 146.18,-47.67 143.34,-54.06"/>
</a>
</g>
</g>
<!-- Node2&#45;&gt;Node2 -->
<g id="edge3_Node000002_Node000002" class="edge">
<title>Node2&#45;&gt;Node2</title>
<g id="a_edge3_Node000002_Node000002"><a xlink:title=" ">
<path fill="none" stroke="#63b8ff" d="M73.83,-138.55C72.27,-143.38 64.5,-147 50.5,-147 28.11,-147 21.63,-137.73 31.08,-129.08"/>
<polygon fill="#63b8ff" stroke="#63b8ff" points="76.97,-136.99 69.92,-129.08 70.5,-139.66 76.97,-136.99"/>
</a>
</g>
</g>
<!-- Node3&#45;&gt;Node3 -->
<g id="edge5_Node000003_Node000003" class="edge">
<title>Node3&#45;&gt;Node3</title>
<g id="a_edge5_Node000003_Node000003"><a xlink:title=" ">
<path fill="none" stroke="#63b8ff" d="M73.83,-83.55C72.27,-88.38 64.5,-92 50.5,-92 28.11,-92 21.63,-82.73 31.08,-74.08"/>
<polygon fill="#63b8ff" stroke="#63b8ff" points="76.97,-81.99 69.92,-74.08 70.5,-84.66 76.97,-81.99"/>
</a>
</g>
</g>
<!-- Node4&#45;&gt;Node4 -->
<g id="edge7_Node000004_Node000004" class="edge">
<title>Node4&#45;&gt;Node4</title>
<g id="a_edge7_Node000004_Node000004"><a xlink:title=" ">
<path fill="none" stroke="#63b8ff" d="M73.83,-28.55C72.27,-33.38 64.5,-37 50.5,-37 28.11,-37 21.63,-27.73 31.08,-19.08"/>
<polygon fill="#63b8ff" stroke="#63b8ff" points="76.97,-26.99 69.92,-19.08 70.5,-29.66 76.97,-26.99"/>
</a>
</g>
</g>
</g>
</svg>
</svg>

<style type='text/css'>
<![CDATA[
[data-mouse-over-selected='false'] { opacity: 0.7; }
[data-mouse-over-selected='true']  { opacity: 1.0; }
]]>
</style>
<script type="application/ecmascript"><![CDATA[
document.addEventListener('DOMContentLoaded', (event) => {
  highlightEdges();
  highlightAdjacentNodes();
});
]]></script>
</svg>
