<?xml version="1.0" encoding="UTF-8" standalone="no"?>
<!DOCTYPE svg PUBLIC "-//W3C//DTD SVG 1.1//EN"
 "http://www.w3.org/Graphics/SVG/1.1/DTD/svg11.dtd">
<!-- Generated by graphviz version 2.43.0 (0)
 -->
<!-- Title: list_insert_after Pages: 1 -->
<svg width="340pt" height="127pt"
 viewBox="0.00 0.00 340.00 127.00" xmlns="http://www.w3.org/2000/svg" xmlns:xlink="http://www.w3.org/1999/xlink">

<svg id="main" version="1.1" xmlns="http://www.w3.org/2000/svg" xmlns:xlink="http://www.w3.org/1999/xlink" xml:space="preserve" onload="init(evt)">
<style type="text/css"><![CDATA[
.node, .edge {opacity: 0.7;}
.node.selected, .edge.selected {opacity: 1;}
.edge:hover path { stroke: red; }
.edge:hover polygon { stroke: red; fill: red; }
]]></style>
<script type="application/ecmascript" xlink:href="svg.min.js"/>
<svg id="graph" class="graph">
<g id="graph0" class="graph" transform="scale(1 1) rotate(0) translate(4 123)">
<title>list_insert_after</title>
<!-- Node1 -->
<g id="Node000001" class="node">
<title>Node1</title>
<g id="a_Node000001"><a xlink:title=" ">
<polygon fill="#999999" stroke="#666666" points="92,-73 0,-73 0,-54 92,-54 92,-73"/>
<text text-anchor="middle" x="46" y="-61" font-family="Helvetica,sans-Serif" font-size="10.00">list_insert_after</text>
</a>
</g>
</g>
<!-- Node1&#45;&gt;Node1 -->
<g id="edge9_Node000001_Node000001" class="edge">
<title>Node1&#45;&gt;Node1</title>
<g id="a_edge9_Node000001_Node000001"><a xlink:title=" ">
<path fill="none" stroke="#63b8ff" d="M27.5,-73.08C18.51,-81.73 24.67,-91 46,-91 59.33,-91 66.74,-87.38 68.22,-82.55"/>
<polygon fill="#63b8ff" stroke="#63b8ff" points="71.41,-81.11 64.5,-73.08 64.9,-83.67 71.41,-81.11"/>
</a>
</g>
</g>
<!-- Node2 -->
<g id="Node000002" class="node">
<title>Node2</title>
<g id="a_Node000002"><a xlink:href="list_8c.html#a644a26c1f66777490f979d4d75fb8a19" target="_top" xlink:title=" ">
<polygon fill="white" stroke="#666666" points="207,-101 128,-101 128,-82 207,-82 207,-101"/>
<text text-anchor="middle" x="167.5" y="-89" font-family="Helvetica,sans-Serif" font-size="10.00">list_index_of</text>
</a>
</g>
</g>
<!-- Node1&#45;&gt;Node2 -->
<g id="edge1_Node000001_Node000002" class="edge">
<title>Node1&#45;&gt;Node2</title>
<g id="a_edge1_Node000001_Node000002"><a xlink:title=" ">
<path fill="none" stroke="#63b8ff" d="M87.79,-73.06C97.53,-75.34 108.01,-77.8 118.06,-80.15"/>
<polygon fill="#63b8ff" stroke="#63b8ff" points="117.37,-83.58 127.91,-82.46 118.97,-76.77 117.37,-83.58"/>
</a>
</g>
</g>
<!-- Node3 -->
<g id="Node000003" class="node">
<title>Node3</title>
<g id="a_Node000003"><a xlink:href="list_8c.html#a1fb3cc24f620c300434ddde61c4d8038" target="_top" xlink:title=" ">
<polygon fill="white" stroke="#666666" points="200,-46 135,-46 135,-27 200,-27 200,-46"/>
<text text-anchor="middle" x="167.5" y="-34" font-family="Helvetica,sans-Serif" font-size="10.00">list_insert</text>
</a>
</g>
</g>
<!-- Node1&#45;&gt;Node3 -->
<g id="edge3_Node000001_Node000003" class="edge">
<title>Node1&#45;&gt;Node3</title>
<g id="a_edge3_Node000001_Node000003"><a xlink:title=" ">
<path fill="none" stroke="#63b8ff" d="M89.13,-53.98C100.77,-51.35 113.39,-48.5 125,-45.88"/>
<polygon fill="#63b8ff" stroke="#63b8ff" points="125.91,-49.26 134.89,-43.64 124.36,-42.43 125.91,-49.26"/>
</a>
</g>
</g>
<!-- Node2&#45;&gt;Node2 -->
<g id="edge2_Node000002_Node000002" class="edge">
<title>Node2&#45;&gt;Node2</title>
<g id="a_edge2_Node000002_Node000002"><a xlink:title=" ">
<path fill="none" stroke="#63b8ff" d="M149.31,-101.08C140.46,-109.73 146.53,-119 167.5,-119 180.61,-119 187.89,-115.38 189.35,-110.55"/>
<polygon fill="#63b8ff" stroke="#63b8ff" points="192.56,-109.15 185.69,-101.08 186.03,-111.67 192.56,-109.15"/>
</a>
</g>
</g>
<!-- Node3&#45;&gt;Node3 -->
<g id="edge4_Node000003_Node000003" class="edge">
<title>Node3&#45;&gt;Node3</title>
<g id="a_edge4_Node000003_Node000003"><a xlink:title=" ">
<path fill="none" stroke="#63b8ff" d="M149.31,-46.08C140.46,-54.73 146.53,-64 167.5,-64 180.61,-64 187.89,-60.38 189.35,-55.55"/>
<polygon fill="#63b8ff" stroke="#63b8ff" points="192.56,-54.15 185.69,-46.08 186.03,-56.67 192.56,-54.15"/>
</a>
</g>
</g>
<!-- Node4 -->
<g id="Node000004" class="node">
<title>Node4</title>
<g id="a_Node000004"><a xlink:href="list_8c.html#adad364a21ca3d17f65a50bfd06c2ba37" target="_top" xlink:title=" ">
<polygon fill="white" stroke="#666666" points="332,-74 243,-74 243,-55 332,-55 332,-74"/>
<text text-anchor="middle" x="287.5" y="-62" font-family="Helvetica,sans-Serif" font-size="10.00">list_push_back</text>
</a>
</g>
</g>
<!-- Node3&#45;&gt;Node4 -->
<g id="edge5_Node000003_Node000004" class="edge">
<title>Node3&#45;&gt;Node4</title>
<g id="a_edge5_Node000003_Node000004"><a xlink:title=" ">
<path fill="none" stroke="#63b8ff" d="M200.12,-44C211.33,-46.66 224.22,-49.72 236.58,-52.65"/>
<polygon fill="#63b8ff" stroke="#63b8ff" points="235.79,-56.06 246.32,-54.97 237.4,-49.25 235.79,-56.06"/>
</a>
</g>
</g>
<!-- Node5 -->
<g id="Node000005" class="node">
<title>Node5</title>
<g id="a_Node000005"><a xlink:href="list_8c.html#abb0c2f349e681ca55f1c16e328d586f0" target="_top" xlink:title=" ">
<polygon fill="white" stroke="#666666" points="332,-19 243,-19 243,0 332,0 332,-19"/>
<text text-anchor="middle" x="287.5" y="-7" font-family="Helvetica,sans-Serif" font-size="10.00">list_push_front</text>
</a>
</g>
</g>
<!-- Node3&#45;&gt;Node5 -->
<g id="edge7_Node000003_Node000005" class="edge">
<title>Node3&#45;&gt;Node5</title>
<g id="a_edge7_Node000003_Node000005"><a xlink:title=" ">
<path fill="none" stroke="#63b8ff" d="M200.12,-29.26C210.79,-26.82 222.99,-24.03 234.79,-21.33"/>
<polygon fill="#63b8ff" stroke="#63b8ff" points="235.61,-24.74 244.58,-19.09 234.05,-17.91 235.61,-24.74"/>
</a>
</g>
</g>
<!-- Node4&#45;&gt;Node4 -->
<g id="edge6_Node000004_Node000004" class="edge">
<title>Node4&#45;&gt;Node4</title>
<g id="a_edge6_Node000004_Node000004"><a xlink:title=" ">
<path fill="none" stroke="#63b8ff" d="M269.31,-74.08C260.46,-82.73 266.53,-92 287.5,-92 300.61,-92 307.89,-88.38 309.35,-83.55"/>
<polygon fill="#63b8ff" stroke="#63b8ff" points="312.56,-82.15 305.69,-74.08 306.03,-84.67 312.56,-82.15"/>
</a>
</g>
</g>
<!-- Node5&#45;&gt;Node5 -->
<g id="edge8_Node000005_Node000005" class="edge">
<title>Node5&#45;&gt;Node5</title>
<g id="a_edge8_Node000005_Node000005"><a xlink:title=" ">
<path fill="none" stroke="#63b8ff" d="M269.31,-19.08C260.46,-27.73 266.53,-37 287.5,-37 300.61,-37 307.89,-33.38 309.35,-28.55"/>
<polygon fill="#63b8ff" stroke="#63b8ff" points="312.56,-27.15 305.69,-19.08 306.03,-29.67 312.56,-27.15"/>
</a>
</g>
</g>
</g>
</svg>
</svg>

<style type='text/css'>
<![CDATA[
[data-mouse-over-selected='false'] { opacity: 0.7; }
[data-mouse-over-selected='true']  { opacity: 1.0; }
]]>
</style>
<script type="application/ecmascript"><![CDATA[
document.addEventListener('DOMContentLoaded', (event) => {
  highlightEdges();
  highlightAdjacentNodes();
});
]]></script>
</svg>
