<?xml version="1.0" encoding="UTF-8" standalone="no"?>
<!DOCTYPE svg PUBLIC "-//W3C//DTD SVG 1.1//EN"
 "http://www.w3.org/Graphics/SVG/1.1/DTD/svg11.dtd">
<!-- Generated by graphviz version 2.43.0 (0)
 -->
<!-- Title: list_push_back Pages: 1 -->
<svg width="335pt" height="100pt"
 viewBox="0.00 0.00 335.00 100.00" xmlns="http://www.w3.org/2000/svg" xmlns:xlink="http://www.w3.org/1999/xlink">

<svg id="main" version="1.1" xmlns="http://www.w3.org/2000/svg" xmlns:xlink="http://www.w3.org/1999/xlink" xml:space="preserve" onload="init(evt)">
<style type="text/css"><![CDATA[
.node, .edge {opacity: 0.7;}
.node.selected, .edge.selected {opacity: 1;}
.edge:hover path { stroke: red; }
.edge:hover polygon { stroke: red; fill: red; }
]]></style>
<script type="application/ecmascript" xlink:href="svg.min.js"/>
<svg id="graph" class="graph">
<g id="graph0" class="graph" transform="scale(1 1) rotate(0) translate(4 96)">
<title>list_push_back</title>
<!-- Node1 -->
<g id="Node000001" class="node">
<title>Node1</title>
<g id="a_Node000001"><a xlink:title=" ">
<polygon fill="#999999" stroke="#666666" points="327,-46 238,-46 238,-27 327,-27 327,-46"/>
<text text-anchor="middle" x="282.5" y="-34" font-family="Helvetica,sans-Serif" font-size="10.00">list_push_back</text>
</a>
</g>
</g>
<!-- Node1&#45;&gt;Node1 -->
<g id="edge7_Node000001_Node000001" class="edge">
<title>Node1&#45;&gt;Node1</title>
<g id="a_edge7_Node000001_Node000001"><a xlink:title=" ">
<path fill="none" stroke="#63b8ff" d="M303.24,-55.55C301.85,-60.38 294.94,-64 282.5,-64 262.59,-64 256.84,-54.73 265.24,-46.08"/>
<polygon fill="#63b8ff" stroke="#63b8ff" points="306.49,-54.26 299.76,-46.08 299.92,-56.68 306.49,-54.26"/>
</a>
</g>
</g>
<!-- Node2 -->
<g id="Node000002" class="node">
<title>Node2</title>
<g id="a_Node000002"><a xlink:href="list_8c.html#a1fb3cc24f620c300434ddde61c4d8038" target="_top" xlink:title=" ">
<polygon fill="white" stroke="#666666" points="202,-46 137,-46 137,-27 202,-27 202,-46"/>
<text text-anchor="middle" x="169.5" y="-34" font-family="Helvetica,sans-Serif" font-size="10.00">list_insert</text>
</a>
</g>
</g>
<!-- Node1&#45;&gt;Node2 -->
<g id="edge1_Node000001_Node000002" class="edge">
<title>Node1&#45;&gt;Node2</title>
<g id="a_edge1_Node000001_Node000002"><a xlink:title=" ">
<path fill="none" stroke="#63b8ff" d="M227.77,-36.5C219.04,-36.5 210.24,-36.5 202.26,-36.5"/>
<polygon fill="#63b8ff" stroke="#63b8ff" points="227.95,-40 237.95,-36.5 227.95,-33 227.95,-40"/>
</a>
</g>
</g>
<!-- Node2&#45;&gt;Node2 -->
<g id="edge2_Node000002_Node000002" class="edge">
<title>Node2&#45;&gt;Node2</title>
<g id="a_edge2_Node000002_Node000002"><a xlink:title=" ">
<path fill="none" stroke="#63b8ff" d="M190.24,-55.55C188.85,-60.38 181.94,-64 169.5,-64 149.59,-64 143.84,-54.73 152.24,-46.08"/>
<polygon fill="#63b8ff" stroke="#63b8ff" points="193.49,-54.26 186.76,-46.08 186.92,-56.68 193.49,-54.26"/>
</a>
</g>
</g>
<!-- Node3 -->
<g id="Node000003" class="node">
<title>Node3</title>
<g id="a_Node000003"><a xlink:href="list_8c.html#a458c9bd26f9d410e47295674ce641856" target="_top" xlink:title=" ">
<polygon fill="white" stroke="#666666" points="96.5,-74 4.5,-74 4.5,-55 96.5,-55 96.5,-74"/>
<text text-anchor="middle" x="50.5" y="-62" font-family="Helvetica,sans-Serif" font-size="10.00">list_insert_after</text>
</a>
</g>
</g>
<!-- Node2&#45;&gt;Node3 -->
<g id="edge3_Node000002_Node000003" class="edge">
<title>Node2&#45;&gt;Node3</title>
<g id="a_edge3_Node000002_Node000003"><a xlink:title=" ">
<path fill="none" stroke="#63b8ff" d="M127.01,-46.43C115.49,-49.19 103.01,-52.17 91.57,-54.91"/>
<polygon fill="#63b8ff" stroke="#63b8ff" points="127.93,-49.81 136.84,-44.08 126.3,-43 127.93,-49.81"/>
</a>
</g>
</g>
<!-- Node4 -->
<g id="Node000004" class="node">
<title>Node4</title>
<g id="a_Node000004"><a xlink:href="list_8c.html#a24974973809996e771e8dd849d73dec2" target="_top" xlink:title=" ">
<polygon fill="white" stroke="#666666" points="101,-19 0,-19 0,0 101,0 101,-19"/>
<text text-anchor="middle" x="50.5" y="-7" font-family="Helvetica,sans-Serif" font-size="10.00">list_insert_before</text>
</a>
</g>
</g>
<!-- Node2&#45;&gt;Node4 -->
<g id="edge5_Node000002_Node000004" class="edge">
<title>Node2&#45;&gt;Node4</title>
<g id="a_edge5_Node000002_Node000004"><a xlink:title=" ">
<path fill="none" stroke="#63b8ff" d="M126.97,-26.92C115.9,-24.36 103.93,-21.6 92.87,-19.05"/>
<polygon fill="#63b8ff" stroke="#63b8ff" points="126.31,-30.36 136.84,-29.19 127.88,-23.53 126.31,-30.36"/>
</a>
</g>
</g>
<!-- Node3&#45;&gt;Node3 -->
<g id="edge4_Node000003_Node000003" class="edge">
<title>Node3&#45;&gt;Node3</title>
<g id="a_edge4_Node000003_Node000003"><a xlink:title=" ">
<path fill="none" stroke="#63b8ff" d="M72.35,-83.55C70.89,-88.38 63.61,-92 50.5,-92 29.53,-92 23.46,-82.73 32.31,-74.08"/>
<polygon fill="#63b8ff" stroke="#63b8ff" points="75.56,-82.15 68.69,-74.08 69.03,-84.67 75.56,-82.15"/>
</a>
</g>
</g>
<!-- Node4&#45;&gt;Node4 -->
<g id="edge6_Node000004_Node000004" class="edge">
<title>Node4&#45;&gt;Node4</title>
<g id="a_edge6_Node000004_Node000004"><a xlink:title=" ">
<path fill="none" stroke="#63b8ff" d="M72.35,-28.55C70.89,-33.38 63.61,-37 50.5,-37 29.53,-37 23.46,-27.73 32.31,-19.08"/>
<polygon fill="#63b8ff" stroke="#63b8ff" points="75.56,-27.15 68.69,-19.08 69.03,-29.67 75.56,-27.15"/>
</a>
</g>
</g>
</g>
</svg>
</svg>

<style type='text/css'>
<![CDATA[
[data-mouse-over-selected='false'] { opacity: 0.7; }
[data-mouse-over-selected='true']  { opacity: 1.0; }
]]>
</style>
<script type="application/ecmascript"><![CDATA[
document.addEventListener('DOMContentLoaded', (event) => {
  highlightEdges();
  highlightAdjacentNodes();
});
]]></script>
</svg>
