<?xml version="1.0" encoding="UTF-8" standalone="no"?>
<!DOCTYPE svg PUBLIC "-//W3C//DTD SVG 1.1//EN"
 "http://www.w3.org/Graphics/SVG/1.1/DTD/svg11.dtd">
<!-- Generated by graphviz version 2.43.0 (0)
 -->
<!-- Title: list_insert Pages: 1 -->
<svg width="198pt" height="100pt"
 viewBox="0.00 0.00 198.00 100.00" xmlns="http://www.w3.org/2000/svg" xmlns:xlink="http://www.w3.org/1999/xlink">

<svg id="main" version="1.1" xmlns="http://www.w3.org/2000/svg" xmlns:xlink="http://www.w3.org/1999/xlink" xml:space="preserve" onload="init(evt)">
<style type="text/css"><![CDATA[
.node, .edge {opacity: 0.7;}
.node.selected, .edge.selected {opacity: 1;}
.edge:hover path { stroke: red; }
.edge:hover polygon { stroke: red; fill: red; }
]]></style>
<script type="application/ecmascript" xlink:href="svg.min.js"/>
<svg id="graph" class="graph">
<g id="graph0" class="graph" transform="scale(1 1) rotate(0) translate(4 96)">
<title>list_insert</title>
<!-- Node1 -->
<g id="Node000001" class="node">
<title>Node1</title>
<g id="a_Node000001"><a xlink:title=" ">
<polygon fill="#999999" stroke="#666666" points="65,-46 0,-46 0,-27 65,-27 65,-46"/>
<text text-anchor="middle" x="32.5" y="-34" font-family="Helvetica,sans-Serif" font-size="10.00">list_insert</text>
</a>
</g>
</g>
<!-- Node1&#45;&gt;Node1 -->
<g id="edge1_Node000001_Node000001" class="edge">
<title>Node1&#45;&gt;Node1</title>
<g id="a_edge1_Node000001_Node000001"><a xlink:title=" ">
<path fill="none" stroke="#63b8ff" d="M15.24,-46.08C6.84,-54.73 12.59,-64 32.5,-64 44.94,-64 51.85,-60.38 53.24,-55.55"/>
<polygon fill="#63b8ff" stroke="#63b8ff" points="56.49,-54.26 49.76,-46.08 49.92,-56.68 56.49,-54.26"/>
</a>
</g>
</g>
<!-- Node2 -->
<g id="Node000002" class="node">
<title>Node2</title>
<g id="a_Node000002"><a xlink:href="list_8c.html#adad364a21ca3d17f65a50bfd06c2ba37" target="_top" xlink:title=" ">
<polygon fill="white" stroke="#666666" points="190,-74 101,-74 101,-55 190,-55 190,-74"/>
<text text-anchor="middle" x="145.5" y="-62" font-family="Helvetica,sans-Serif" font-size="10.00">list_push_back</text>
</a>
</g>
</g>
<!-- Node1&#45;&gt;Node2 -->
<g id="edge2_Node000001_Node000002" class="edge">
<title>Node1&#45;&gt;Node2</title>
<g id="a_edge2_Node000001_Node000002"><a xlink:title=" ">
<path fill="none" stroke="#63b8ff" d="M65.01,-44.45C74.92,-46.95 86.1,-49.77 96.87,-52.49"/>
<polygon fill="#63b8ff" stroke="#63b8ff" points="96.05,-55.89 106.61,-54.94 97.77,-49.1 96.05,-55.89"/>
</a>
</g>
</g>
<!-- Node3 -->
<g id="Node000003" class="node">
<title>Node3</title>
<g id="a_Node000003"><a xlink:href="list_8c.html#abb0c2f349e681ca55f1c16e328d586f0" target="_top" xlink:title=" ">
<polygon fill="white" stroke="#666666" points="190,-19 101,-19 101,0 190,0 190,-19"/>
<text text-anchor="middle" x="145.5" y="-7" font-family="Helvetica,sans-Serif" font-size="10.00">list_push_front</text>
</a>
</g>
</g>
<!-- Node1&#45;&gt;Node3 -->
<g id="edge4_Node000001_Node000003" class="edge">
<title>Node1&#45;&gt;Node3</title>
<g id="a_edge4_Node000001_Node000003"><a xlink:title=" ">
<path fill="none" stroke="#63b8ff" d="M65.01,-28.84C74.53,-26.52 85.22,-23.92 95.59,-21.4"/>
<polygon fill="#63b8ff" stroke="#63b8ff" points="96.51,-24.78 105.39,-19.01 94.85,-17.97 96.51,-24.78"/>
</a>
</g>
</g>
<!-- Node2&#45;&gt;Node2 -->
<g id="edge3_Node000002_Node000002" class="edge">
<title>Node2&#45;&gt;Node2</title>
<g id="a_edge3_Node000002_Node000002"><a xlink:title=" ">
<path fill="none" stroke="#63b8ff" d="M128.24,-74.08C119.84,-82.73 125.59,-92 145.5,-92 157.94,-92 164.85,-88.38 166.24,-83.55"/>
<polygon fill="#63b8ff" stroke="#63b8ff" points="169.49,-82.26 162.76,-74.08 162.92,-84.68 169.49,-82.26"/>
</a>
</g>
</g>
<!-- Node3&#45;&gt;Node3 -->
<g id="edge5_Node000003_Node000003" class="edge">
<title>Node3&#45;&gt;Node3</title>
<g id="a_edge5_Node000003_Node000003"><a xlink:title=" ">
<path fill="none" stroke="#63b8ff" d="M128.24,-19.08C119.84,-27.73 125.59,-37 145.5,-37 157.94,-37 164.85,-33.38 166.24,-28.55"/>
<polygon fill="#63b8ff" stroke="#63b8ff" points="169.49,-27.26 162.76,-19.08 162.92,-29.68 169.49,-27.26"/>
</a>
</g>
</g>
</g>
</svg>
</svg>

<style type='text/css'>
<![CDATA[
[data-mouse-over-selected='false'] { opacity: 0.7; }
[data-mouse-over-selected='true']  { opacity: 1.0; }
]]>
</style>
<script type="application/ecmascript"><![CDATA[
document.addEventListener('DOMContentLoaded', (event) => {
  highlightEdges();
  highlightAdjacentNodes();
});
]]></script>
</svg>
