<?xml version="1.0" encoding="UTF-8" standalone="no"?>
<!DOCTYPE svg PUBLIC "-//W3C//DTD SVG 1.1//EN"
 "http://www.w3.org/Graphics/SVG/1.1/DTD/svg11.dtd">
<!-- Generated by graphviz version 2.43.0 (0)
 -->
<!-- Title: list_insert_before Pages: 1 -->
<svg width="349pt" height="127pt"
 viewBox="0.00 0.00 349.00 127.00" xmlns="http://www.w3.org/2000/svg" xmlns:xlink="http://www.w3.org/1999/xlink">
<g id="graph0" class="graph" transform="scale(1 1) rotate(0) translate(4 123)">
<title>list_insert_before</title>
<!-- Node1 -->
<g id="Node000001" class="node">
<title>Node1</title>
<g id="a_Node000001"><a xlink:title=" ">
<polygon fill="#999999" stroke="#666666" points="101,-73 0,-73 0,-54 101,-54 101,-73"/>
<text text-anchor="middle" x="50.5" y="-61" font-family="Helvetica,sans-Serif" font-size="10.00">list_insert_before</text>
</a>
</g>
</g>
<!-- Node1&#45;&gt;Node1 -->
<g id="edge9_Node000001_Node000001" class="edge">
<title>Node1&#45;&gt;Node1</title>
<g id="a_edge9_Node000001_Node000001"><a xlink:title=" ">
<path fill="none" stroke="#63b8ff" d="M31.08,-73.08C21.63,-81.73 28.11,-91 50.5,-91 64.5,-91 72.27,-87.38 73.83,-82.55"/>
<polygon fill="#63b8ff" stroke="#63b8ff" points="76.97,-80.99 69.92,-73.08 70.5,-83.66 76.97,-80.99"/>
</a>
</g>
</g>
<!-- Node2 -->
<g id="Node000002" class="node">
<title>Node2</title>
<g id="a_Node000002"><a xlink:href="list_8c.html#a644a26c1f66777490f979d4d75fb8a19" target="_top" xlink:title=" ">
<polygon fill="white" stroke="#666666" points="216,-101 137,-101 137,-82 216,-82 216,-101"/>
<text text-anchor="middle" x="176.5" y="-89" font-family="Helvetica,sans-Serif" font-size="10.00">list_index_of</text>
</a>
</g>
</g>
<!-- Node1&#45;&gt;Node2 -->
<g id="edge1_Node000001_Node000002" class="edge">
<title>Node1&#45;&gt;Node2</title>
<g id="a_edge1_Node000001_Node000002"><a xlink:title=" ">
<path fill="none" stroke="#63b8ff" d="M93.83,-73.06C104.46,-75.46 115.96,-78.06 126.88,-80.52"/>
<polygon fill="#63b8ff" stroke="#63b8ff" points="126.17,-83.95 136.7,-82.74 127.71,-77.12 126.17,-83.95"/>
</a>
</g>
</g>
<!-- Node3 -->
<g id="Node000003" class="node">
<title>Node3</title>
<g id="a_Node000003"><a xlink:href="list_8c.html#a1fb3cc24f620c300434ddde61c4d8038" target="_top" xlink:title=" ">
<polygon fill="white" stroke="#666666" points="209,-46 144,-46 144,-27 209,-27 209,-46"/>
<text text-anchor="middle" x="176.5" y="-34" font-family="Helvetica,sans-Serif" font-size="10.00">list_insert</text>
</a>
</g>
</g>
<!-- Node1&#45;&gt;Node3 -->
<g id="edge3_Node000001_Node000003" class="edge">
<title>Node1&#45;&gt;Node3</title>
<g id="a_edge3_Node000001_Node000003"><a xlink:title=" ">
<path fill="none" stroke="#63b8ff" d="M95.22,-53.98C107.75,-51.25 121.37,-48.29 133.78,-45.59"/>
<polygon fill="#63b8ff" stroke="#63b8ff" points="134.83,-48.94 143.86,-43.39 133.34,-42.1 134.83,-48.94"/>
</a>
</g>
</g>
<!-- Node2&#45;&gt;Node2 -->
<g id="edge2_Node000002_Node000002" class="edge">
<title>Node2&#45;&gt;Node2</title>
<g id="a_edge2_Node000002_Node000002"><a xlink:title=" ">
<path fill="none" stroke="#63b8ff" d="M158.31,-101.08C149.46,-109.73 155.53,-119 176.5,-119 189.61,-119 196.89,-115.38 198.35,-110.55"/>
<polygon fill="#63b8ff" stroke="#63b8ff" points="201.56,-109.15 194.69,-101.08 195.03,-111.67 201.56,-109.15"/>
</a>
</g>
</g>
<!-- Node3&#45;&gt;Node3 -->
<g id="edge4_Node000003_Node000003" class="edge">
<title>Node3&#45;&gt;Node3</title>
<g id="a_edge4_Node000003_Node000003"><a xlink:title=" ">
<path fill="none" stroke="#63b8ff" d="M158.31,-46.08C149.46,-54.73 155.53,-64 176.5,-64 189.61,-64 196.89,-60.38 198.35,-55.55"/>
<polygon fill="#63b8ff" stroke="#63b8ff" points="201.56,-54.15 194.69,-46.08 195.03,-56.67 201.56,-54.15"/>
</a>
</g>
</g>
<!-- Node4 -->
<g id="Node000004" class="node">
<title>Node4</title>
<g id="a_Node000004"><a xlink:href="list_8c.html#adad364a21ca3d17f65a50bfd06c2ba37" target="_top" xlink:title=" ">
<polygon fill="white" stroke="#666666" points="341,-74 252,-74 252,-55 341,-55 341,-74"/>
<text text-anchor="middle" x="296.5" y="-62" font-family="Helvetica,sans-Serif" font-size="10.00">list_push_back</text>
</a>
</g>
</g>
<!-- Node3&#45;&gt;Node4 -->
<g id="edge5_Node000003_Node000004" class="edge">
<title>Node3&#45;&gt;Node4</title>
<g id="a_edge5_Node000003_Node000004"><a xlink:title=" ">
<path fill="none" stroke="#63b8ff" d="M209.12,-44C220.33,-46.66 233.22,-49.72 245.58,-52.65"/>
<polygon fill="#63b8ff" stroke="#63b8ff" points="244.79,-56.06 255.32,-54.97 246.4,-49.25 244.79,-56.06"/>
</a>
</g>
</g>
<!-- Node5 -->
<g id="Node000005" class="node">
<title>Node5</title>
<g id="a_Node000005"><a xlink:href="list_8c.html#abb0c2f349e681ca55f1c16e328d586f0" target="_top" xlink:title=" ">
<polygon fill="white" stroke="#666666" points="341,-19 252,-19 252,0 341,0 341,-19"/>
<text text-anchor="middle" x="296.5" y="-7" font-family="Helvetica,sans-Serif" font-size="10.00">list_push_front</text>
</a>
</g>
</g>
<!-- Node3&#45;&gt;Node5 -->
<g id="edge7_Node000003_Node000005" class="edge">
<title>Node3&#45;&gt;Node5</title>
<g id="a_edge7_Node000003_Node000005"><a xlink:title=" ">
<path fill="none" stroke="#63b8ff" d="M209.12,-29.26C219.79,-26.82 231.99,-24.03 243.79,-21.33"/>
<polygon fill="#63b8ff" stroke="#63b8ff" points="244.61,-24.74 253.58,-19.09 243.05,-17.91 244.61,-24.74"/>
</a>
</g>
</g>
<!-- Node4&#45;&gt;Node4 -->
<g id="edge6_Node000004_Node000004" class="edge">
<title>Node4&#45;&gt;Node4</title>
<g id="a_edge6_Node000004_Node000004"><a xlink:title=" ">
<path fill="none" stroke="#63b8ff" d="M278.31,-74.08C269.46,-82.73 275.53,-92 296.5,-92 309.61,-92 316.89,-88.38 318.35,-83.55"/>
<polygon fill="#63b8ff" stroke="#63b8ff" points="321.56,-82.15 314.69,-74.08 315.03,-84.67 321.56,-82.15"/>
</a>
</g>
</g>
<!-- Node5&#45;&gt;Node5 -->
<g id="edge8_Node000005_Node000005" class="edge">
<title>Node5&#45;&gt;Node5</title>
<g id="a_edge8_Node000005_Node000005"><a xlink:title=" ">
<path fill="none" stroke="#63b8ff" d="M278.31,-19.08C269.46,-27.73 275.53,-37 296.5,-37 309.61,-37 316.89,-33.38 318.35,-28.55"/>
<polygon fill="#63b8ff" stroke="#63b8ff" points="321.56,-27.15 314.69,-19.08 315.03,-29.67 321.56,-27.15"/>
</a>
</g>
</g>
</g>
</svg>
