<?xml version="1.0" encoding="UTF-8" standalone="no"?>
<!DOCTYPE svg PUBLIC "-//W3C//DTD SVG 1.1//EN"
 "http://www.w3.org/Graphics/SVG/1.1/DTD/svg11.dtd">
<!-- Generated by graphviz version 2.43.0 (0)
 -->
<!-- Title: list_free Pages: 1 -->
<svg width="161pt" height="45pt"
 viewBox="0.00 0.00 161.00 45.00" xmlns="http://www.w3.org/2000/svg" xmlns:xlink="http://www.w3.org/1999/xlink">
<g id="graph0" class="graph" transform="scale(1 1) rotate(0) translate(4 41)">
<title>list_free</title>
<!-- Node1 -->
<g id="Node000001" class="node">
<title>Node1</title>
<g id="a_Node000001"><a xlink:title=" ">
<polygon fill="#999999" stroke="#666666" points="56,-19 0,-19 0,0 56,0 56,-19"/>
<text text-anchor="middle" x="28" y="-7" font-family="Helvetica,sans-Serif" font-size="10.00">list_free</text>
</a>
</g>
</g>
<!-- Node1&#45;&gt;Node1 -->
<g id="edge3_Node000001_Node000001" class="edge">
<title>Node1&#45;&gt;Node1</title>
<g id="a_edge3_Node000001_Node000001"><a xlink:title=" ">
<path fill="none" stroke="#63b8ff" d="M13.51,-19.08C6.46,-27.73 11.29,-37 28,-37 38.18,-37 43.95,-33.56 45.31,-28.91"/>
<polygon fill="#63b8ff" stroke="#63b8ff" points="48.61,-27.73 42.49,-19.08 41.88,-29.66 48.61,-27.73"/>
</a>
</g>
</g>
<!-- Node2 -->
<g id="Node000002" class="node">
<title>Node2</title>
<g id="a_Node000002"><a xlink:href="list_8c.html#ad111df0e7b0ff8f3dfb2f9b1622496ee" target="_top" xlink:title=" ">
<polygon fill="white" stroke="#666666" points="153,-19 92,-19 92,0 153,0 153,-19"/>
<text text-anchor="middle" x="122.5" y="-7" font-family="Helvetica,sans-Serif" font-size="10.00">list_clear</text>
</a>
</g>
</g>
<!-- Node1&#45;&gt;Node2 -->
<g id="edge1_Node000001_Node000002" class="edge">
<title>Node1&#45;&gt;Node2</title>
<g id="a_edge1_Node000001_Node000002"><a xlink:title=" ">
<path fill="none" stroke="#63b8ff" d="M56.25,-9.5C64.21,-9.5 73.07,-9.5 81.64,-9.5"/>
<polygon fill="#63b8ff" stroke="#63b8ff" points="81.86,-13 91.86,-9.5 81.86,-6 81.86,-13"/>
</a>
</g>
</g>
<!-- Node2&#45;&gt;Node2 -->
<g id="edge2_Node000002_Node000002" class="edge">
<title>Node2&#45;&gt;Node2</title>
<g id="a_edge2_Node000002_Node000002"><a xlink:title=" ">
<path fill="none" stroke="#63b8ff" d="M108.01,-19.08C100.96,-27.73 105.79,-37 122.5,-37 132.68,-37 138.45,-33.56 139.81,-28.91"/>
<polygon fill="#63b8ff" stroke="#63b8ff" points="143.11,-27.73 136.99,-19.08 136.38,-29.66 143.11,-27.73"/>
</a>
</g>
</g>
</g>
</svg>
