<?xml version="1.0" encoding="UTF-8" standalone="no"?>
<!DOCTYPE svg PUBLIC "-//W3C//DTD SVG 1.1//EN"
 "http://www.w3.org/Graphics/SVG/1.1/DTD/svg11.dtd">
<!-- Generated by graphviz version 2.43.0 (0)
 -->
<!-- Title: cond_wait Pages: 1 -->
<svg width="508pt" height="127pt"
 viewBox="0.00 0.00 508.00 127.00" xmlns="http://www.w3.org/2000/svg" xmlns:xlink="http://www.w3.org/1999/xlink">
<g id="graph0" class="graph" transform="scale(1 1) rotate(0) translate(4 123)">
<title>cond_wait</title>
<!-- Node1 -->
<g id="Node000001" class="node">
<title>Node1</title>
<g id="a_Node000001"><a xlink:title=" ">
<polygon fill="#999999" stroke="#666666" points="500,-46 434,-46 434,-27 500,-27 500,-46"/>
<text text-anchor="middle" x="467" y="-34" font-family="Helvetica,sans-Serif" font-size="10.00">cond_wait</text>
</a>
</g>
</g>
<!-- Node1&#45;&gt;Node1 -->
<g id="edge1_Node000001_Node000001" class="edge">
<title>Node1&#45;&gt;Node1</title>
<g id="a_edge1_Node000001_Node000001"><a xlink:title=" ">
<path fill="none" stroke="#63b8ff" d="M489.96,-55.55C488.43,-60.38 480.77,-64 467,-64 444.96,-64 438.59,-54.73 447.89,-46.08"/>
<polygon fill="#63b8ff" stroke="#63b8ff" points="493.12,-54.03 486.11,-46.08 486.64,-56.66 493.12,-54.03"/>
</a>
</g>
</g>
<!-- Node2 -->
<g id="Node000002" class="node">
<title>Node2</title>
<g id="a_Node000002"><a xlink:href="lock_8c.html#a817db5657996111335ebc9d470d79aaf" target="_top" xlink:title=" ">
<polygon fill="white" stroke="#666666" points="398,-74 288,-74 288,-55 398,-55 398,-74"/>
<text text-anchor="middle" x="343" y="-62" font-family="Helvetica,sans-Serif" font-size="10.00">cond_wait_timeout</text>
</a>
</g>
</g>
<!-- Node1&#45;&gt;Node2 -->
<g id="edge2_Node000001_Node000002" class="edge">
<title>Node1&#45;&gt;Node2</title>
<g id="a_edge2_Node000001_Node000002"><a xlink:title=" ">
<path fill="none" stroke="#63b8ff" d="M423.84,-46.18C411.43,-49.02 397.86,-52.14 385.49,-54.98"/>
<polygon fill="#63b8ff" stroke="#63b8ff" points="424.98,-49.5 433.95,-43.86 423.42,-42.68 424.98,-49.5"/>
</a>
</g>
</g>
<!-- Node6 -->
<g id="Node000006" class="node">
<title>Node6</title>
<g id="a_Node000006"><a xlink:href="threadpool_8c.html#abd1b1f200a182a6ee87054aa265585cf" target="_top" xlink:title="Block until all currently submitted tasks have completed.">
<polygon fill="white" stroke="#666666" points="390.5,-19 295.5,-19 295.5,0 390.5,0 390.5,-19"/>
<text text-anchor="middle" x="343" y="-7" font-family="Helvetica,sans-Serif" font-size="10.00">threadpool_wait</text>
</a>
</g>
</g>
<!-- Node1&#45;&gt;Node6 -->
<g id="edge10_Node000001_Node000006" class="edge">
<title>Node1&#45;&gt;Node6</title>
<g id="a_edge10_Node000001_Node000006"><a xlink:title=" ">
<path fill="none" stroke="#63b8ff" d="M423.88,-27.18C412.06,-24.56 399.19,-21.72 387.31,-19.08"/>
<polygon fill="#63b8ff" stroke="#63b8ff" points="423.43,-30.66 433.95,-29.41 424.94,-23.83 423.43,-30.66"/>
</a>
</g>
</g>
<!-- Node2&#45;&gt;Node2 -->
<g id="edge3_Node000002_Node000002" class="edge">
<title>Node2&#45;&gt;Node2</title>
<g id="a_edge3_Node000002_Node000002"><a xlink:title=" ">
<path fill="none" stroke="#63b8ff" d="M365.96,-83.55C364.43,-88.38 356.77,-92 343,-92 320.96,-92 314.59,-82.73 323.89,-74.08"/>
<polygon fill="#63b8ff" stroke="#63b8ff" points="369.12,-82.03 362.11,-74.08 362.64,-84.66 369.12,-82.03"/>
</a>
</g>
</g>
<!-- Node3 -->
<g id="Node000003" class="node">
<title>Node3</title>
<g id="a_Node000003"><a xlink:href="lock_8c.html#af38c47e19d60284e863bda42ffe7c484" target="_top" xlink:title=" ">
<polygon fill="white" stroke="#666666" points="228,-101 165,-101 165,-82 228,-82 228,-101"/>
<text text-anchor="middle" x="196.5" y="-89" font-family="Helvetica,sans-Serif" font-size="10.00">lock_wait</text>
</a>
</g>
</g>
<!-- Node2&#45;&gt;Node3 -->
<g id="edge4_Node000002_Node000003" class="edge">
<title>Node2&#45;&gt;Node3</title>
<g id="a_edge4_Node000002_Node000003"><a xlink:title=" ">
<path fill="none" stroke="#63b8ff" d="M281.07,-75.89C262.85,-79.29 243.65,-82.88 228.25,-85.75"/>
<polygon fill="#63b8ff" stroke="#63b8ff" points="281.87,-79.3 291.05,-74.02 280.58,-72.42 281.87,-79.3"/>
</a>
</g>
</g>
<!-- Node4 -->
<g id="Node000004" class="node">
<title>Node4</title>
<g id="a_Node000004"><a xlink:href="threadpool_8c.html#a9d3ae515204c1f045e1572a7440f1479" target="_top" xlink:title="Drain all pending tasks, stop all workers, and free the pool.">
<polygon fill="white" stroke="#666666" points="252,-46 141,-46 141,-27 252,-27 252,-46"/>
<text text-anchor="middle" x="196.5" y="-34" font-family="Helvetica,sans-Serif" font-size="10.00">threadpool_destroy</text>
</a>
</g>
</g>
<!-- Node2&#45;&gt;Node4 -->
<g id="edge6_Node000002_Node000004" class="edge">
<title>Node2&#45;&gt;Node4</title>
<g id="a_edge6_Node000002_Node000004"><a xlink:title=" ">
<path fill="none" stroke="#63b8ff" d="M282.73,-53.02C270.72,-50.69 258.22,-48.27 246.6,-46.01"/>
<polygon fill="#63b8ff" stroke="#63b8ff" points="282.19,-56.48 292.68,-54.94 283.52,-49.6 282.19,-56.48"/>
</a>
</g>
</g>
<!-- Node3&#45;&gt;Node3 -->
<g id="edge5_Node000003_Node000003" class="edge">
<title>Node3&#45;&gt;Node3</title>
<g id="a_edge5_Node000003_Node000003"><a xlink:title=" ">
<path fill="none" stroke="#63b8ff" d="M223.29,-110.19C221.82,-115.2 212.9,-119 196.5,-119 170.91,-119 163.51,-109.73 174.31,-101.08"/>
<polygon fill="#63b8ff" stroke="#63b8ff" points="226.32,-108.44 218.69,-101.08 220.07,-111.59 226.32,-108.44"/>
</a>
</g>
</g>
<!-- Node4&#45;&gt;Node4 -->
<g id="edge9_Node000004_Node000004" class="edge">
<title>Node4&#45;&gt;Node4</title>
<g id="a_edge9_Node000004_Node000004"><a xlink:title=" ">
<path fill="none" stroke="#63b8ff" d="M223.29,-55.19C221.82,-60.2 212.9,-64 196.5,-64 170.91,-64 163.51,-54.73 174.31,-46.08"/>
<polygon fill="#63b8ff" stroke="#63b8ff" points="226.32,-53.44 218.69,-46.08 220.07,-56.59 226.32,-53.44"/>
</a>
</g>
</g>
<!-- Node5 -->
<g id="Node000005" class="node">
<title>Node5</title>
<g id="a_Node000005"><a xlink:href="threadpool_8c.html#a87dcbf4e1f2c693ff3252d0dc4608161" target="_top" xlink:title="Create a new thread pool.">
<polygon fill="white" stroke="#666666" points="105,-46 0,-46 0,-27 105,-27 105,-46"/>
<text text-anchor="middle" x="52.5" y="-34" font-family="Helvetica,sans-Serif" font-size="10.00">threadpool_create</text>
</a>
</g>
</g>
<!-- Node4&#45;&gt;Node5 -->
<g id="edge7_Node000004_Node000005" class="edge">
<title>Node4&#45;&gt;Node5</title>
<g id="a_edge7_Node000004_Node000005"><a xlink:title=" ">
<path fill="none" stroke="#63b8ff" d="M130.46,-36.5C122.08,-36.5 113.59,-36.5 105.46,-36.5"/>
<polygon fill="#63b8ff" stroke="#63b8ff" points="130.6,-40 140.6,-36.5 130.6,-33 130.6,-40"/>
</a>
</g>
</g>
<!-- Node5&#45;&gt;Node5 -->
<g id="edge8_Node000005_Node000005" class="edge">
<title>Node5&#45;&gt;Node5</title>
<g id="a_edge8_Node000005_Node000005"><a xlink:title=" ">
<path fill="none" stroke="#63b8ff" d="M79.29,-55.19C77.82,-60.2 68.9,-64 52.5,-64 26.91,-64 19.51,-54.73 30.31,-46.08"/>
<polygon fill="#63b8ff" stroke="#63b8ff" points="82.32,-53.44 74.69,-46.08 76.07,-56.59 82.32,-53.44"/>
</a>
</g>
</g>
<!-- Node6&#45;&gt;Node6 -->
<g id="edge11_Node000006_Node000006" class="edge">
<title>Node6&#45;&gt;Node6</title>
<g id="a_edge11_Node000006_Node000006"><a xlink:title=" ">
<path fill="none" stroke="#63b8ff" d="M365.96,-28.55C364.43,-33.38 356.77,-37 343,-37 320.96,-37 314.59,-27.73 323.89,-19.08"/>
<polygon fill="#63b8ff" stroke="#63b8ff" points="369.12,-27.03 362.11,-19.08 362.64,-29.66 369.12,-27.03"/>
</a>
</g>
</g>
</g>
</svg>
