<?xml version="1.0" encoding="UTF-8" standalone="no"?>
<!DOCTYPE svg PUBLIC "-//W3C//DTD SVG 1.1//EN"
 "http://www.w3.org/Graphics/SVG/1.1/DTD/svg11.dtd">
<!-- Generated by graphviz version 2.43.0 (0)
 -->
<!-- Title: lock_release Pages: 1 -->
<svg width="374pt" height="100pt"
 viewBox="0.00 0.00 374.00 100.00" xmlns="http://www.w3.org/2000/svg" xmlns:xlink="http://www.w3.org/1999/xlink">
<g id="graph0" class="graph" transform="scale(1 1) rotate(0) translate(4 96)">
<title>lock_release</title>
<!-- Node1 -->
<g id="Node000001" class="node">
<title>Node1</title>
<g id="a_Node000001"><a xlink:title=" ">
<polygon fill="#999999" stroke="#666666" points="366,-46 288,-46 288,-27 366,-27 366,-46"/>
<text text-anchor="middle" x="327" y="-34" font-family="Helvetica,sans-Serif" font-size="10.00">lock_release</text>
</a>
</g>
</g>
<!-- Node1&#45;&gt;Node1 -->
<g id="edge1_Node000001_Node000001" class="edge">
<title>Node1&#45;&gt;Node1</title>
<g id="a_edge1_Node000001_Node000001"><a xlink:title=" ">
<path fill="none" stroke="#63b8ff" d="M351.18,-55.19C349.86,-60.2 341.8,-64 327,-64 303.89,-64 297.22,-54.73 306.96,-46.08"/>
<polygon fill="#63b8ff" stroke="#63b8ff" points="354.36,-53.73 347.04,-46.08 347.99,-56.63 354.36,-53.73"/>
</a>
</g>
</g>
<!-- Node2 -->
<g id="Node000002" class="node">
<title>Node2</title>
<g id="a_Node000002"><a xlink:href="threadpool_8c.html#a9d3ae515204c1f045e1572a7440f1479" target="_top" xlink:title="Drain all pending tasks, stop all workers, and free the pool.">
<polygon fill="white" stroke="#666666" points="252,-74 141,-74 141,-55 252,-55 252,-74"/>
<text text-anchor="middle" x="196.5" y="-62" font-family="Helvetica,sans-Serif" font-size="10.00">threadpool_destroy</text>
</a>
</g>
</g>
<!-- Node1&#45;&gt;Node2 -->
<g id="edge2_Node000001_Node000002" class="edge">
<title>Node1&#45;&gt;Node2</title>
<g id="a_edge2_Node000001_Node000002"><a xlink:title=" ">
<path fill="none" stroke="#63b8ff" d="M277.91,-46.98C265.87,-49.6 253.01,-52.4 241.2,-54.98"/>
<polygon fill="#63b8ff" stroke="#63b8ff" points="278.77,-50.37 287.79,-44.83 277.28,-43.53 278.77,-50.37"/>
</a>
</g>
</g>
<!-- Node4 -->
<g id="Node000004" class="node">
<title>Node4</title>
<g id="a_Node000004"><a xlink:href="threadpool_8c.html#abd1b1f200a182a6ee87054aa265585cf" target="_top" xlink:title="Block until all currently submitted tasks have completed.">
<polygon fill="white" stroke="#666666" points="244,-19 149,-19 149,0 244,0 244,-19"/>
<text text-anchor="middle" x="196.5" y="-7" font-family="Helvetica,sans-Serif" font-size="10.00">threadpool_wait</text>
</a>
</g>
</g>
<!-- Node1&#45;&gt;Node4 -->
<g id="edge6_Node000001_Node000004" class="edge">
<title>Node1&#45;&gt;Node4</title>
<g id="a_edge6_Node000001_Node000004"><a xlink:title=" ">
<path fill="none" stroke="#63b8ff" d="M277.97,-26.41C266.53,-24.01 254.36,-21.45 243.04,-19.07"/>
<polygon fill="#63b8ff" stroke="#63b8ff" points="277.29,-29.84 287.79,-28.47 278.73,-22.99 277.29,-29.84"/>
</a>
</g>
</g>
<!-- Node2&#45;&gt;Node2 -->
<g id="edge5_Node000002_Node000002" class="edge">
<title>Node2&#45;&gt;Node2</title>
<g id="a_edge5_Node000002_Node000002"><a xlink:title=" ">
<path fill="none" stroke="#63b8ff" d="M220.68,-83.19C219.36,-88.2 211.3,-92 196.5,-92 173.39,-92 166.72,-82.73 176.46,-74.08"/>
<polygon fill="#63b8ff" stroke="#63b8ff" points="223.86,-81.73 216.54,-74.08 217.49,-84.63 223.86,-81.73"/>
</a>
</g>
</g>
<!-- Node3 -->
<g id="Node000003" class="node">
<title>Node3</title>
<g id="a_Node000003"><a xlink:href="threadpool_8c.html#a87dcbf4e1f2c693ff3252d0dc4608161" target="_top" xlink:title="Create a new thread pool.">
<polygon fill="white" stroke="#666666" points="105,-74 0,-74 0,-55 105,-55 105,-74"/>
<text text-anchor="middle" x="52.5" y="-62" font-family="Helvetica,sans-Serif" font-size="10.00">threadpool_create</text>
</a>
</g>
</g>
<!-- Node2&#45;&gt;Node3 -->
<g id="edge3_Node000002_Node000003" class="edge">
<title>Node2&#45;&gt;Node3</title>
<g id="a_edge3_Node000002_Node000003"><a xlink:title=" ">
<path fill="none" stroke="#63b8ff" d="M130.46,-64.5C122.08,-64.5 113.59,-64.5 105.46,-64.5"/>
<polygon fill="#63b8ff" stroke="#63b8ff" points="130.6,-68 140.6,-64.5 130.6,-61 130.6,-68"/>
</a>
</g>
</g>
<!-- Node3&#45;&gt;Node3 -->
<g id="edge4_Node000003_Node000003" class="edge">
<title>Node3&#45;&gt;Node3</title>
<g id="a_edge4_Node000003_Node000003"><a xlink:title=" ">
<path fill="none" stroke="#63b8ff" d="M79.29,-83.19C77.82,-88.2 68.9,-92 52.5,-92 26.91,-92 19.51,-82.73 30.31,-74.08"/>
<polygon fill="#63b8ff" stroke="#63b8ff" points="82.32,-81.44 74.69,-74.08 76.07,-84.59 82.32,-81.44"/>
</a>
</g>
</g>
<!-- Node4&#45;&gt;Node4 -->
<g id="edge7_Node000004_Node000004" class="edge">
<title>Node4&#45;&gt;Node4</title>
<g id="a_edge7_Node000004_Node000004"><a xlink:title=" ">
<path fill="none" stroke="#63b8ff" d="M220.68,-28.19C219.36,-33.2 211.3,-37 196.5,-37 173.39,-37 166.72,-27.73 176.46,-19.08"/>
<polygon fill="#63b8ff" stroke="#63b8ff" points="223.86,-26.73 216.54,-19.08 217.49,-29.63 223.86,-26.73"/>
</a>
</g>
</g>
</g>
</svg>
