<?xml version="1.0" encoding="UTF-8" standalone="no"?>
<!DOCTYPE svg PUBLIC "-//W3C//DTD SVG 1.1//EN"
 "http://www.w3.org/Graphics/SVG/1.1/DTD/svg11.dtd">
<!-- Generated by graphviz version 2.43.0 (0)
 -->
<!-- Title: lock_init Pages: 1 -->
<svg width="207pt" height="45pt"
 viewBox="0.00 0.00 207.00 45.00" xmlns="http://www.w3.org/2000/svg" xmlns:xlink="http://www.w3.org/1999/xlink">
<g id="graph0" class="graph" transform="scale(1 1) rotate(0) translate(4 41)">
<title>lock_init</title>
<!-- Node1 -->
<g id="Node000001" class="node">
<title>Node1</title>
<g id="a_Node000001"><a xlink:title=" ">
<polygon fill="#999999" stroke="#666666" points="199,-19 141,-19 141,0 199,0 199,-19"/>
<text text-anchor="middle" x="170" y="-7" font-family="Helvetica,sans-Serif" font-size="10.00">lock_init</text>
</a>
</g>
</g>
<!-- Node1&#45;&gt;Node1 -->
<g id="edge1_Node000001_Node000001" class="edge">
<title>Node1&#45;&gt;Node1</title>
<g id="a_edge1_Node000001_Node000001"><a xlink:title=" ">
<path fill="none" stroke="#63b8ff" d="M191.48,-28.55C190.05,-33.38 182.89,-37 170,-37 149.38,-37 143.42,-27.73 152.12,-19.08"/>
<polygon fill="#63b8ff" stroke="#63b8ff" points="194.7,-27.19 187.88,-19.08 188.16,-29.67 194.7,-27.19"/>
</a>
</g>
</g>
<!-- Node2 -->
<g id="Node000002" class="node">
<title>Node2</title>
<g id="a_Node000002"><a xlink:href="threadpool_8c.html#a87dcbf4e1f2c693ff3252d0dc4608161" target="_top" xlink:title=" ">
<polygon fill="white" stroke="#666666" points="105,-19 0,-19 0,0 105,0 105,-19"/>
<text text-anchor="middle" x="52.5" y="-7" font-family="Helvetica,sans-Serif" font-size="10.00">threadpool_create</text>
</a>
</g>
</g>
<!-- Node1&#45;&gt;Node2 -->
<g id="edge2_Node000001_Node000002" class="edge">
<title>Node1&#45;&gt;Node2</title>
<g id="a_edge2_Node000001_Node000002"><a xlink:title=" ">
<path fill="none" stroke="#63b8ff" d="M130.53,-9.5C122.46,-9.5 113.82,-9.5 105.36,-9.5"/>
<polygon fill="#63b8ff" stroke="#63b8ff" points="130.75,-13 140.75,-9.5 130.75,-6 130.75,-13"/>
</a>
</g>
</g>
<!-- Node2&#45;&gt;Node2 -->
<g id="edge3_Node000002_Node000002" class="edge">
<title>Node2&#45;&gt;Node2</title>
<g id="a_edge3_Node000002_Node000002"><a xlink:title=" ">
<path fill="none" stroke="#63b8ff" d="M73.98,-28.55C72.55,-33.38 65.39,-37 52.5,-37 31.88,-37 25.92,-27.73 34.62,-19.08"/>
<polygon fill="#63b8ff" stroke="#63b8ff" points="77.2,-27.19 70.38,-19.08 70.66,-29.67 77.2,-27.19"/>
</a>
</g>
</g>
</g>
</svg>
