<?xml version="1.0" encoding="UTF-8" standalone="no"?>
<!DOCTYPE svg PUBLIC "-//W3C//DTD SVG 1.1//EN"
 "http://www.w3.org/Graphics/SVG/1.1/DTD/svg11.dtd">
<!-- Generated by graphviz version 2.43.0 (0)
 -->
<!-- Title: lock_release Pages: 1 -->
<svg width="374pt" height="45pt"
 viewBox="0.00 0.00 374.00 45.00" xmlns="http://www.w3.org/2000/svg" xmlns:xlink="http://www.w3.org/1999/xlink">
<g id="graph0" class="graph" transform="scale(1 1) rotate(0) translate(4 41)">
<title>lock_release</title>
<!-- Node1 -->
<g id="Node000001" class="node">
<title>Node1</title>
<g id="a_Node000001"><a xlink:title=" ">
<polygon fill="#999999" stroke="#666666" points="366,-19 288,-19 288,0 366,0 366,-19"/>
<text text-anchor="middle" x="327" y="-7" font-family="Helvetica,sans-Serif" font-size="10.00">lock_release</text>
</a>
</g>
</g>
<!-- Node1&#45;&gt;Node1 -->
<g id="edge1_Node000001_Node000001" class="edge">
<title>Node1&#45;&gt;Node1</title>
<g id="a_edge1_Node000001_Node000001"><a xlink:title=" ">
<path fill="none" stroke="#63b8ff" d="M351.18,-28.19C349.86,-33.2 341.8,-37 327,-37 303.89,-37 297.22,-27.73 306.96,-19.08"/>
<polygon fill="#63b8ff" stroke="#63b8ff" points="354.36,-26.73 347.04,-19.08 347.99,-29.63 354.36,-26.73"/>
</a>
</g>
</g>
<!-- Node2 -->
<g id="Node000002" class="node">
<title>Node2</title>
<g id="a_Node000002"><a xlink:href="threadpool_8c.html#a9d3ae515204c1f045e1572a7440f1479" target="_top" xlink:title=" ">
<polygon fill="white" stroke="#666666" points="252,-19 141,-19 141,0 252,0 252,-19"/>
<text text-anchor="middle" x="196.5" y="-7" font-family="Helvetica,sans-Serif" font-size="10.00">threadpool_destroy</text>
</a>
</g>
</g>
<!-- Node1&#45;&gt;Node2 -->
<g id="edge2_Node000001_Node000002" class="edge">
<title>Node1&#45;&gt;Node2</title>
<g id="a_edge2_Node000001_Node000002"><a xlink:title=" ">
<path fill="none" stroke="#63b8ff" d="M277.62,-9.5C269.41,-9.5 260.82,-9.5 252.44,-9.5"/>
<polygon fill="#63b8ff" stroke="#63b8ff" points="277.79,-13 287.79,-9.5 277.79,-6 277.79,-13"/>
</a>
</g>
</g>
<!-- Node2&#45;&gt;Node2 -->
<g id="edge5_Node000002_Node000002" class="edge">
<title>Node2&#45;&gt;Node2</title>
<g id="a_edge5_Node000002_Node000002"><a xlink:title=" ">
<path fill="none" stroke="#63b8ff" d="M220.68,-28.19C219.36,-33.2 211.3,-37 196.5,-37 173.39,-37 166.72,-27.73 176.46,-19.08"/>
<polygon fill="#63b8ff" stroke="#63b8ff" points="223.86,-26.73 216.54,-19.08 217.49,-29.63 223.86,-26.73"/>
</a>
</g>
</g>
<!-- Node3 -->
<g id="Node000003" class="node">
<title>Node3</title>
<g id="a_Node000003"><a xlink:href="threadpool_8c.html#a87dcbf4e1f2c693ff3252d0dc4608161" target="_top" xlink:title=" ">
<polygon fill="white" stroke="#666666" points="105,-19 0,-19 0,0 105,0 105,-19"/>
<text text-anchor="middle" x="52.5" y="-7" font-family="Helvetica,sans-Serif" font-size="10.00">threadpool_create</text>
</a>
</g>
</g>
<!-- Node2&#45;&gt;Node3 -->
<g id="edge3_Node000002_Node000003" class="edge">
<title>Node2&#45;&gt;Node3</title>
<g id="a_edge3_Node000002_Node000003"><a xlink:title=" ">
<path fill="none" stroke="#63b8ff" d="M130.46,-9.5C122.08,-9.5 113.59,-9.5 105.46,-9.5"/>
<polygon fill="#63b8ff" stroke="#63b8ff" points="130.6,-13 140.6,-9.5 130.6,-6 130.6,-13"/>
</a>
</g>
</g>
<!-- Node3&#45;&gt;Node3 -->
<g id="edge4_Node000003_Node000003" class="edge">
<title>Node3&#45;&gt;Node3</title>
<g id="a_edge4_Node000003_Node000003"><a xlink:title=" ">
<path fill="none" stroke="#63b8ff" d="M79.29,-28.19C77.82,-33.2 68.9,-37 52.5,-37 26.91,-37 19.51,-27.73 30.31,-19.08"/>
<polygon fill="#63b8ff" stroke="#63b8ff" points="82.32,-26.44 74.69,-19.08 76.07,-29.59 82.32,-26.44"/>
</a>
</g>
</g>
</g>
</svg>
