<?xml version="1.0" encoding="UTF-8" standalone="no"?>
<!DOCTYPE svg PUBLIC "-//W3C//DTD SVG 1.1//EN"
 "http://www.w3.org/Graphics/SVG/1.1/DTD/svg11.dtd">
<!-- Generated by graphviz version 2.43.0 (0)
 -->
<!-- Title: lock_wait Pages: 1 -->
<svg width="319pt" height="45pt"
 viewBox="0.00 0.00 319.00 45.00" xmlns="http://www.w3.org/2000/svg" xmlns:xlink="http://www.w3.org/1999/xlink">
<g id="graph0" class="graph" transform="scale(1 1) rotate(0) translate(4 41)">
<title>lock_wait</title>
<!-- Node1 -->
<g id="Node000001" class="node">
<title>Node1</title>
<g id="a_Node000001"><a xlink:title=" ">
<polygon fill="#999999" stroke="#666666" points="63,-19 0,-19 0,0 63,0 63,-19"/>
<text text-anchor="middle" x="31.5" y="-7" font-family="Helvetica,sans-Serif" font-size="10.00">lock_wait</text>
</a>
</g>
</g>
<!-- Node1&#45;&gt;Node1 -->
<g id="edge5_Node000001_Node000001" class="edge">
<title>Node1&#45;&gt;Node1</title>
<g id="a_edge5_Node000001_Node000001"><a xlink:title=" ">
<path fill="none" stroke="#63b8ff" d="M12.7,-19.08C3.55,-27.73 9.82,-37 31.5,-37 45.05,-37 52.58,-33.38 54.09,-28.55"/>
<polygon fill="#63b8ff" stroke="#63b8ff" points="57.27,-27.07 50.3,-19.08 50.77,-29.67 57.27,-27.07"/>
</a>
</g>
</g>
<!-- Node2 -->
<g id="Node000002" class="node">
<title>Node2</title>
<g id="a_Node000002"><a xlink:href="lock_8c.html#a817db5657996111335ebc9d470d79aaf" target="_top" xlink:title=" ">
<polygon fill="white" stroke="#666666" points="209,-19 99,-19 99,0 209,0 209,-19"/>
<text text-anchor="middle" x="154" y="-7" font-family="Helvetica,sans-Serif" font-size="10.00">cond_wait_timeout</text>
</a>
</g>
</g>
<!-- Node1&#45;&gt;Node2 -->
<g id="edge1_Node000001_Node000002" class="edge">
<title>Node1&#45;&gt;Node2</title>
<g id="a_edge1_Node000001_Node000002"><a xlink:title=" ">
<path fill="none" stroke="#63b8ff" d="M63.22,-9.5C71.12,-9.5 79.93,-9.5 88.84,-9.5"/>
<polygon fill="#63b8ff" stroke="#63b8ff" points="88.92,-13 98.92,-9.5 88.92,-6 88.92,-13"/>
</a>
</g>
</g>
<!-- Node2&#45;&gt;Node2 -->
<g id="edge4_Node000002_Node000002" class="edge">
<title>Node2&#45;&gt;Node2</title>
<g id="a_edge4_Node000002_Node000002"><a xlink:title=" ">
<path fill="none" stroke="#63b8ff" d="M135.2,-19.08C126.05,-27.73 132.32,-37 154,-37 167.55,-37 175.08,-33.38 176.59,-28.55"/>
<polygon fill="#63b8ff" stroke="#63b8ff" points="179.77,-27.07 172.8,-19.08 173.27,-29.67 179.77,-27.07"/>
</a>
</g>
</g>
<!-- Node3 -->
<g id="Node000003" class="node">
<title>Node3</title>
<g id="a_Node000003"><a xlink:href="lock_8c.html#a2460579b5ba8ad8079d42d449d9bcc80" target="_top" xlink:title=" ">
<polygon fill="white" stroke="#666666" points="311,-19 245,-19 245,0 311,0 311,-19"/>
<text text-anchor="middle" x="278" y="-7" font-family="Helvetica,sans-Serif" font-size="10.00">cond_wait</text>
</a>
</g>
</g>
<!-- Node2&#45;&gt;Node3 -->
<g id="edge2_Node000002_Node000003" class="edge">
<title>Node2&#45;&gt;Node3</title>
<g id="a_edge2_Node000002_Node000003"><a xlink:title=" ">
<path fill="none" stroke="#63b8ff" d="M209.22,-9.5C217.81,-9.5 226.59,-9.5 234.85,-9.5"/>
<polygon fill="#63b8ff" stroke="#63b8ff" points="234.99,-13 244.99,-9.5 234.99,-6 234.99,-13"/>
</a>
</g>
</g>
<!-- Node3&#45;&gt;Node3 -->
<g id="edge3_Node000003_Node000003" class="edge">
<title>Node3&#45;&gt;Node3</title>
<g id="a_edge3_Node000003_Node000003"><a xlink:title=" ">
<path fill="none" stroke="#63b8ff" d="M258.89,-19.08C249.59,-27.73 255.96,-37 278,-37 291.77,-37 299.43,-33.38 300.96,-28.55"/>
<polygon fill="#63b8ff" stroke="#63b8ff" points="304.12,-27.03 297.11,-19.08 297.64,-29.66 304.12,-27.03"/>
</a>
</g>
</g>
</g>
</svg>
