<?xml version="1.0" encoding="UTF-8" standalone="no"?>
<!DOCTYPE svg PUBLIC "-//W3C//DTD SVG 1.1//EN"
 "http://www.w3.org/Graphics/SVG/1.1/DTD/svg11.dtd">
<!-- Generated by graphviz version 2.43.0 (0)
 -->
<!-- Title: include/macros.h Pages: 1 -->
<!--zoomable 192 -->

<svg id="main" version="1.1" xmlns="http://www.w3.org/2000/svg" xmlns:xlink="http://www.w3.org/1999/xlink" xml:space="preserve" onload="init(evt)">
<style type="text/css"><![CDATA[
.node, .edge {opacity: 0.7;}
.node.selected, .edge.selected {opacity: 1;}
.edge:hover path { stroke: red; }
.edge:hover polygon { stroke: red; fill: red; }
]]></style>

<defs>
  <circle id="rim" cx="0" cy="0" r="7"/>
  <circle id="rim2" cx="0" cy="0" r="3.5"/>
  <g id="zoomPlus">
    <use xlink:href="#rim" fill="#404040"><set attributeName="fill" to="#808080" begin="zoomplus.mouseover" end="zoomplus.mouseout"/></use>
    <path d="M-4,0h8M0,-4v8" fill="none" stroke="white" stroke-width="1.5" pointer-events="none"/>
  </g>
  <g id="zoomMin">
    <use xlink:href="#rim" fill="#404040"><set attributeName="fill" to="#808080" begin="zoomminus.mouseover" end="zoomminus.mouseout"/></use>
    <path d="M-4,0h8" fill="none" stroke="white" stroke-width="1.5" pointer-events="none"/>
  </g>
  <g id="arrowUp" transform="translate(30 24)">
    <use xlink:href="#rim"/>
    <path pointer-events="none" fill="none" stroke="white" stroke-width="1.5" d="M0,-3.0v7 M-2.5,-0.5L0,-3.0L2.5,-0.5"/>
  </g>
  <g id="arrowRight" transform="rotate(90) translate(36 -43)">
    <use xlink:href="#rim"/>
    <path pointer-events="none" fill="none" stroke="white" stroke-width="1.5" d="M0,-3.0v7 M-2.5,-0.5L0,-3.0L2.5,-0.5"/>
  </g>
  <g id="arrowDown" transform="rotate(180) translate(-30 -48)">
    <use xlink:href="#rim"/>
    <path pointer-events="none" fill="none" stroke="white" stroke-width="1.5" d="M0,-3.0v7 M-2.5,-0.5L0,-3.0L2.5,-0.5"/>
  </g>
  <g id="arrowLeft" transform="rotate(270) translate(-36 17)">
    <use xlink:href="#rim"/>
    <path pointer-events="none" fill="none" stroke="white" stroke-width="1.5" d="M0,-3.0v7 M-2.5,-0.5L0,-3.0L2.5,-0.5"/>
  </g>
  <g id="resetDef">
    <use xlink:href="#rim2" fill="#404040"><set attributeName="fill" to="#808080" begin="reset.mouseover" end="reset.mouseout"/></use>
  </g>
</defs>
<script type="application/ecmascript">
var viewWidth = 674;
var viewHeight = 192;
var sectionId = 'dynsection-1';
</script>
<script type="application/ecmascript" xlink:href="svg.min.js"/>
<svg id="graph" class="graph">
<g id="viewport">
<title>include/macros.h</title>
<!-- Node1 -->
<g id="Node000001" class="node">
<title>Node1</title>
<g id="a_Node000001"><a xlink:title="Collection of utility macros for assertions, memory management, math, and debugging.">
<polygon fill="#999999" stroke="#666666" points="457.5,-184 357.5,-184 357.5,-165 457.5,-165 457.5,-184"/>
<text text-anchor="middle" x="407.5" y="-172" font-family="Helvetica,sans-Serif" font-size="10.00">include/macros.h</text>
</a>
</g>
</g>
<!-- Node2 -->
<g id="Node000002" class="node">
<title>Node2</title>
<g id="a_Node000002"><a xlink:href="cstr_8h.html" target="_top" xlink:title="C string utilities and safe string operations.">
<polygon fill="white" stroke="#666666" points="293,-129 212,-129 212,-110 293,-110 293,-129"/>
<text text-anchor="middle" x="252.5" y="-117" font-family="Helvetica,sans-Serif" font-size="10.00">include/cstr.h</text>
</a>
</g>
</g>
<!-- Node1&#45;&gt;Node2 -->
<g id="edge1_Node000001_Node000002" class="edge">
<title>Node1&#45;&gt;Node2</title>
<g id="a_edge1_Node000001_Node000002"><a xlink:title=" ">
<path fill="none" stroke="#63b8ff" d="M372.9,-161.67C344,-151.79 303.47,-137.93 277.6,-129.08"/>
<polygon fill="#63b8ff" stroke="#63b8ff" points="372,-165.06 382.6,-164.98 374.27,-158.44 372,-165.06"/>
</a>
</g>
</g>
<!-- Node4 -->
<g id="Node000004" class="node">
<title>Node4</title>
<g id="a_Node000004"><a xlink:href="solidc_8h.html" target="_top" xlink:title="Master header file that includes all SolidC library modules.">
<polygon fill="white" stroke="#666666" points="356.5,-19 264.5,-19 264.5,0 356.5,0 356.5,-19"/>
<text text-anchor="middle" x="310.5" y="-7" font-family="Helvetica,sans-Serif" font-size="10.00">include/solidc.h</text>
</a>
</g>
</g>
<!-- Node1&#45;&gt;Node4 -->
<g id="edge12_Node000001_Node000004" class="edge">
<title>Node1&#45;&gt;Node4</title>
<g id="a_edge12_Node000001_Node000004"><a xlink:title=" ">
<path fill="none" stroke="#63b8ff" d="M399.16,-155.42C385.89,-126.87 360.24,-72.75 348.5,-55 339.64,-41.61 327.25,-27.8 319.05,-19.19"/>
<polygon fill="#63b8ff" stroke="#63b8ff" points="396.07,-157.06 403.45,-164.67 402.42,-154.12 396.07,-157.06"/>
</a>
</g>
</g>
<!-- Node8 -->
<g id="Node000008" class="node">
<title>Node8</title>
<g id="a_Node000008"><a xlink:href="filepath_8h.html" target="_top" xlink:title="Cross&#45;platform file path manipulation and directory traversal utilities.">
<polygon fill="white" stroke="#666666" points="498,-129 397,-129 397,-110 498,-110 498,-129"/>
<text text-anchor="middle" x="447.5" y="-117" font-family="Helvetica,sans-Serif" font-size="10.00">include/filepath.h</text>
</a>
</g>
</g>
<!-- Node1&#45;&gt;Node8 -->
<g id="edge9_Node000001_Node000008" class="edge">
<title>Node1&#45;&gt;Node8</title>
<g id="a_edge9_Node000001_Node000008"><a xlink:title=" ">
<path fill="none" stroke="#63b8ff" d="M420.2,-156.67C427.13,-147.5 435.41,-136.52 441.02,-129.09"/>
<polygon fill="#63b8ff" stroke="#63b8ff" points="417.34,-154.66 414.11,-164.75 422.92,-158.87 417.34,-154.66"/>
</a>
</g>
</g>
<!-- Node10 -->
<g id="Node000010" class="node">
<title>Node10</title>
<g id="a_Node000010"><a xlink:href="threadpool_8h.html" target="_top" xlink:title="Thread pool implementation for concurrent task execution.">
<polygon fill="white" stroke="#666666" points="632.5,-129 516.5,-129 516.5,-110 632.5,-110 632.5,-129"/>
<text text-anchor="middle" x="574.5" y="-117" font-family="Helvetica,sans-Serif" font-size="10.00">include/threadpool.h</text>
</a>
</g>
</g>
<!-- Node1&#45;&gt;Node10 -->
<g id="edge13_Node000001_Node000010" class="edge">
<title>Node1&#45;&gt;Node10</title>
<g id="a_edge13_Node000001_Node000010"><a xlink:title=" ">
<path fill="none" stroke="#63b8ff" d="M443.96,-161.93C475.16,-152.03 519.34,-138.01 547.46,-129.08"/>
<polygon fill="#63b8ff" stroke="#63b8ff" points="442.8,-158.62 434.33,-164.98 444.92,-165.3 442.8,-158.62"/>
</a>
</g>
</g>
<!-- Node3 -->
<g id="Node000003" class="node">
<title>Node3</title>
<g id="a_Node000003"><a xlink:href="flags_8h.html" target="_top" xlink:title="Command&#45;line flag parsing library.">
<polygon fill="white" stroke="#666666" points="224,-74 137,-74 137,-55 224,-55 224,-74"/>
<text text-anchor="middle" x="180.5" y="-62" font-family="Helvetica,sans-Serif" font-size="10.00">include/flags.h</text>
</a>
</g>
</g>
<!-- Node2&#45;&gt;Node3 -->
<g id="edge2_Node000002_Node000003" class="edge">
<title>Node2&#45;&gt;Node3</title>
<g id="a_edge2_Node000002_Node000003"><a xlink:title=" ">
<path fill="none" stroke="#63b8ff" d="M232.63,-103.88C219.68,-94.34 203.2,-82.21 192.28,-74.17"/>
<polygon fill="#63b8ff" stroke="#63b8ff" points="230.8,-106.88 240.93,-109.98 234.95,-101.24 230.8,-106.88"/>
</a>
</g>
</g>
<!-- Node2&#45;&gt;Node4 -->
<g id="edge4_Node000002_Node000004" class="edge">
<title>Node2&#45;&gt;Node4</title>
<g id="a_edge4_Node000002_Node000004"><a xlink:title=" ">
<path fill="none" stroke="#63b8ff" d="M255.91,-99.67C258.81,-86.57 263.75,-69.02 271.5,-55 279.26,-40.98 292.04,-27.52 300.85,-19.15"/>
<polygon fill="#63b8ff" stroke="#63b8ff" points="252.41,-99.33 253.88,-109.83 259.27,-100.71 252.41,-99.33"/>
</a>
</g>
</g>
<!-- Node5 -->
<g id="Node000005" class="node">
<title>Node5</title>
<g id="a_Node000005"><a xlink:href="stdstreams_8h.html" target="_top" xlink:title="Standard stream handling utilities.">
<polygon fill="white" stroke="#666666" points="119,-74 0,-74 0,-55 119,-55 119,-74"/>
<text text-anchor="middle" x="59.5" y="-62" font-family="Helvetica,sans-Serif" font-size="10.00">include/stdstreams.h</text>
</a>
</g>
</g>
<!-- Node2&#45;&gt;Node5 -->
<g id="edge5_Node000002_Node000005" class="edge">
<title>Node2&#45;&gt;Node5</title>
<g id="a_edge5_Node000002_Node000005"><a xlink:title=" ">
<path fill="none" stroke="#63b8ff" d="M211.75,-107.31C175.64,-97.39 123.67,-83.12 90.75,-74.08"/>
<polygon fill="#63b8ff" stroke="#63b8ff" points="210.92,-110.71 221.49,-109.98 212.78,-103.96 210.92,-110.71"/>
</a>
</g>
</g>
<!-- Node7 -->
<g id="Node000007" class="node">
<title>Node7</title>
<g id="a_Node000007"><a xlink:href="cstr_8c_source.html" target="_top" xlink:title=" ">
<polygon fill="white" stroke="#666666" points="340,-74 281,-74 281,-55 340,-55 340,-74"/>
<text text-anchor="middle" x="310.5" y="-62" font-family="Helvetica,sans-Serif" font-size="10.00">src/cstr.c</text>
</a>
</g>
</g>
<!-- Node2&#45;&gt;Node7 -->
<g id="edge8_Node000002_Node000007" class="edge">
<title>Node2&#45;&gt;Node7</title>
<g id="a_edge8_Node000002_Node000007"><a xlink:title=" ">
<path fill="none" stroke="#63b8ff" d="M269.41,-103.04C279.7,-93.64 292.47,-81.98 301.01,-74.17"/>
<polygon fill="#63b8ff" stroke="#63b8ff" points="266.84,-100.66 261.82,-109.98 271.56,-105.82 266.84,-100.66"/>
</a>
</g>
</g>
<!-- Node3&#45;&gt;Node4 -->
<g id="edge3_Node000003_Node000004" class="edge">
<title>Node3&#45;&gt;Node4</title>
<g id="a_edge3_Node000003_Node000004"><a xlink:title=" ">
<path fill="none" stroke="#63b8ff" d="M210.77,-51.16C234.84,-41.35 267.9,-27.87 289.23,-19.17"/>
<polygon fill="#63b8ff" stroke="#63b8ff" points="209.33,-47.97 201.39,-54.98 211.97,-54.45 209.33,-47.97"/>
</a>
</g>
</g>
<!-- Node5&#45;&gt;Node4 -->
<g id="edge6_Node000005_Node000004" class="edge">
<title>Node5&#45;&gt;Node4</title>
<g id="a_edge6_Node000005_Node000004"><a xlink:title=" ">
<path fill="none" stroke="#63b8ff" d="M109.8,-52.88C156.85,-42.94 226.22,-28.3 269.86,-19.08"/>
<polygon fill="#63b8ff" stroke="#63b8ff" points="108.89,-49.49 99.83,-54.98 110.33,-56.34 108.89,-49.49"/>
</a>
</g>
</g>
<!-- Node6 -->
<g id="Node000006" class="node">
<title>Node6</title>
<g id="a_Node000006"><a xlink:href="stdstreams_8c_source.html" target="_top" xlink:title=" ">
<polygon fill="white" stroke="#666666" points="108,-19 11,-19 11,0 108,0 108,-19"/>
<text text-anchor="middle" x="59.5" y="-7" font-family="Helvetica,sans-Serif" font-size="10.00">src/stdstreams.c</text>
</a>
</g>
</g>
<!-- Node5&#45;&gt;Node6 -->
<g id="edge7_Node000005_Node000006" class="edge">
<title>Node5&#45;&gt;Node6</title>
<g id="a_edge7_Node000005_Node000006"><a xlink:title=" ">
<path fill="none" stroke="#63b8ff" d="M59.5,-44.66C59.5,-35.93 59.5,-25.99 59.5,-19.09"/>
<polygon fill="#63b8ff" stroke="#63b8ff" points="56,-44.75 59.5,-54.75 63,-44.75 56,-44.75"/>
</a>
</g>
</g>
<!-- Node8&#45;&gt;Node4 -->
<g id="edge10_Node000008_Node000004" class="edge">
<title>Node8&#45;&gt;Node4</title>
<g id="a_edge10_Node000008_Node000004"><a xlink:title=" ">
<path fill="none" stroke="#63b8ff" d="M432.65,-102.1C420.01,-88.63 401.02,-69.49 382.5,-55 364.44,-40.88 341.66,-27.44 326.61,-19.1"/>
<polygon fill="#63b8ff" stroke="#63b8ff" points="430.27,-104.69 439.63,-109.66 435.42,-99.94 430.27,-104.69"/>
</a>
</g>
</g>
<!-- Node9 -->
<g id="Node000009" class="node">
<title>Node9</title>
<g id="a_Node000009"><a xlink:href="filepath_8c_source.html" target="_top" xlink:title=" ">
<polygon fill="white" stroke="#666666" points="514,-74 435,-74 435,-55 514,-55 514,-74"/>
<text text-anchor="middle" x="474.5" y="-62" font-family="Helvetica,sans-Serif" font-size="10.00">src/filepath.c</text>
</a>
</g>
</g>
<!-- Node8&#45;&gt;Node9 -->
<g id="edge11_Node000008_Node000009" class="edge">
<title>Node8&#45;&gt;Node9</title>
<g id="a_edge11_Node000008_Node000009"><a xlink:title=" ">
<path fill="none" stroke="#63b8ff" d="M456.51,-100.82C461.09,-91.82 466.45,-81.29 470.12,-74.09"/>
<polygon fill="#63b8ff" stroke="#63b8ff" points="453.38,-99.25 451.96,-109.75 459.62,-102.43 453.38,-99.25"/>
</a>
</g>
</g>
<!-- Node10&#45;&gt;Node4 -->
<g id="edge14_Node000010_Node000004" class="edge">
<title>Node10&#45;&gt;Node4</title>
<g id="a_edge14_Node000010_Node000004"><a xlink:title=" ">
<path fill="none" stroke="#63b8ff" d="M564.74,-100.89C555.7,-86.29 540.91,-66.18 522.5,-55 471.39,-23.96 401.99,-14.31 356.73,-11.46"/>
<polygon fill="#63b8ff" stroke="#63b8ff" points="561.97,-103.08 570.04,-109.94 568,-99.54 561.97,-103.08"/>
</a>
</g>
</g>
<!-- Node11 -->
<g id="Node000011" class="node">
<title>Node11</title>
<g id="a_Node000011"><a xlink:href="threadpool_8c_source.html" target="_top" xlink:title=" ">
<polygon fill="white" stroke="#666666" points="666,-74 571,-74 571,-55 666,-55 666,-74"/>
<text text-anchor="middle" x="618.5" y="-62" font-family="Helvetica,sans-Serif" font-size="10.00">src/threadpool.c</text>
</a>
</g>
</g>
<!-- Node10&#45;&gt;Node11 -->
<g id="edge15_Node000010_Node000011" class="edge">
<title>Node10&#45;&gt;Node11</title>
<g id="a_edge15_Node000010_Node000011"><a xlink:title=" ">
<path fill="none" stroke="#63b8ff" d="M588.23,-101.96C595.9,-92.72 605.13,-81.6 611.37,-74.09"/>
<polygon fill="#63b8ff" stroke="#63b8ff" points="585.46,-99.82 581.77,-109.75 590.85,-104.29 585.46,-99.82"/>
</a>
</g>
</g>
</g>
</svg>

<g id="navigator" transform="translate(0 0)" fill="#404254">
  <rect fill="#f2f5e9" fill-opacity="0.5" stroke="#606060" stroke-width=".5" x="0" y="0" width="60" height="60"/>
  <use id="zoomplus" xlink:href="#zoomPlus" x="17" y="9" onmousedown="handleZoom(evt,'in')"/>
  <use id="zoomminus" xlink:href="#zoomMin" x="42" y="9" onmousedown="handleZoom(evt,'out')"/>
  <use id="reset" xlink:href="#resetDef" x="30" y="36" onmousedown="handleReset()"/>
   <use id="arrowup" xlink:href="#arrowUp" x="0" y="0" onmousedown="handlePan(0,-1)"/>
  <use id="arrowright" xlink:href="#arrowRight" x="0" y="0" onmousedown="handlePan(1,0)"/>
  <use id="arrowdown" xlink:href="#arrowDown" x="0" y="0" onmousedown="handlePan(0,1)"/>
  <use id="arrowleft" xlink:href="#arrowLeft" x="0" y="0" onmousedown="handlePan(-1,0)"/>
</g>
<svg viewBox="0 0 15 15" width="100%" height="30px" preserveAspectRatio="xMaxYMin meet">
 <g id="arrow_out" transform="scale(0.3 0.3)">
  <a xlink:href="macros_8h__dep__incl_org.svg" target="_base">
   <rect id="button" ry="5" rx="5" y="6" x="6" height="38" width="38"
        fill="#f2f5e9" fill-opacity="0.5" stroke="#606060" stroke-width="1.0"/>
   <path id="arrow"
     d="M 11.500037,31.436501 C 11.940474,20.09759 22.043105,11.32322 32.158766,21.979434 L 37.068811,17.246167 C 37.068811,17.246167 37.088388,32 37.088388,32 L 22.160133,31.978069 C 22.160133,31.978069 26.997745,27.140456 26.997745,27.140456 C 18.528582,18.264221 13.291696,25.230495 11.500037,31.436501 z"
     style="fill:#404040;"/>
  </a>
 </g>
</svg>

<style type='text/css'>
<![CDATA[
[data-mouse-over-selected='false'] { opacity: 0.7; }
[data-mouse-over-selected='true']  { opacity: 1.0; }
]]>
</style>
<script type="application/ecmascript"><![CDATA[
document.addEventListener('DOMContentLoaded', (event) => {
  highlightEdges();
  highlightAdjacentNodes();
});
]]></script>
</svg>
