<?xml version="1.0" encoding="UTF-8" standalone="no"?>
<!DOCTYPE svg PUBLIC "-//W3C//DTD SVG 1.1//EN"
 "http://www.w3.org/Graphics/SVG/1.1/DTD/svg11.dtd">
<!-- Generated by graphviz version 2.43.0 (0)
 -->
<!-- Title: include/macros.h Pages: 1 -->
<svg width="590pt" height="192pt"
 viewBox="0.00 0.00 589.99 192.00" xmlns="http://www.w3.org/2000/svg" xmlns:xlink="http://www.w3.org/1999/xlink">
<g id="graph0" class="graph" transform="scale(1 1) rotate(0) translate(4 188)">
<title>include/macros.h</title>
<!-- Node1 -->
<g id="Node000001" class="node">
<title>Node1</title>
<g id="a_Node000001"><a xlink:title="Collection of utility macros for assertions, memory management, math, and debugging.">
<polygon fill="#999999" stroke="#666666" points="113.49,-184 13.49,-184 13.49,-165 113.49,-165 113.49,-184"/>
<text text-anchor="middle" x="63.49" y="-172" font-family="Helvetica,sans-Serif" font-size="10.00">include/macros.h</text>
</a>
</g>
</g>
<!-- Node2 -->
<g id="Node000002" class="node">
<title>Node2</title>
<g id="a_Node000002"><a xlink:href="cstr_8h.html" target="_top" xlink:title="High&#45;performance C string with Small String Optimization (SSO).">
<polygon fill="white" stroke="#666666" points="355.99,-129 274.99,-129 274.99,-110 355.99,-110 355.99,-129"/>
<text text-anchor="middle" x="315.49" y="-117" font-family="Helvetica,sans-Serif" font-size="10.00">include/cstr.h</text>
</a>
</g>
</g>
<!-- Node1&#45;&gt;Node2 -->
<g id="edge1_Node000001_Node000002" class="edge">
<title>Node1&#45;&gt;Node2</title>
<g id="a_edge1_Node000001_Node000002"><a xlink:title=" ">
<path fill="none" stroke="#63b8ff" d="M114,-162.88C161.23,-152.94 230.88,-138.3 274.69,-129.08"/>
<polygon fill="#63b8ff" stroke="#63b8ff" points="113.04,-159.5 103.98,-164.98 114.49,-166.35 113.04,-159.5"/>
</a>
</g>
</g>
<!-- Node4 -->
<g id="Node000004" class="node">
<title>Node4</title>
<g id="a_Node000004"><a xlink:href="solidc_8h.html" target="_top" xlink:title="Master header file that includes all SolidC library modules.">
<polygon fill="white" stroke="#666666" points="224.49,-19 132.49,-19 132.49,0 224.49,0 224.49,-19"/>
<text text-anchor="middle" x="178.49" y="-7" font-family="Helvetica,sans-Serif" font-size="10.00">include/solidc.h</text>
</a>
</g>
</g>
<!-- Node1&#45;&gt;Node4 -->
<g id="edge13_Node000001_Node000004" class="edge">
<title>Node1&#45;&gt;Node4</title>
<g id="a_edge13_Node000001_Node000004"><a xlink:title=" ">
<path fill="none" stroke="#63b8ff" d="M34.96,-159.95C22.93,-152.61 10.18,-142.29 3.49,-129 -7.36,-107.43 12.76,-62.54 20.49,-55 50.18,-26.05 97.16,-15.64 132.18,-12.04"/>
<polygon fill="#63b8ff" stroke="#63b8ff" points="33.48,-163.13 43.91,-164.98 36.91,-157.03 33.48,-163.13"/>
</a>
</g>
</g>
<!-- Node9 -->
<g id="Node000009" class="node">
<title>Node9</title>
<g id="a_Node000009"><a xlink:href="filepath_8h.html" target="_top" xlink:title="Cross&#45;platform file path manipulation and directory traversal utilities.">
<polygon fill="white" stroke="#666666" points="113.99,-129 12.99,-129 12.99,-110 113.99,-110 113.99,-129"/>
<text text-anchor="middle" x="63.49" y="-117" font-family="Helvetica,sans-Serif" font-size="10.00">include/filepath.h</text>
</a>
</g>
</g>
<!-- Node1&#45;&gt;Node9 -->
<g id="edge10_Node000001_Node000009" class="edge">
<title>Node1&#45;&gt;Node9</title>
<g id="a_edge10_Node000001_Node000009"><a xlink:title=" ">
<path fill="none" stroke="#63b8ff" d="M63.49,-154.66C63.49,-145.93 63.49,-135.99 63.49,-129.09"/>
<polygon fill="#63b8ff" stroke="#63b8ff" points="59.99,-154.75 63.49,-164.75 66.99,-154.75 59.99,-154.75"/>
</a>
</g>
</g>
<!-- Node3 -->
<g id="Node000003" class="node">
<title>Node3</title>
<g id="a_Node000003"><a xlink:href="flags_8h.html" target="_top" xlink:title="Command&#45;line flag parsing library.">
<polygon fill="white" stroke="#666666" points="221.99,-74 134.99,-74 134.99,-55 221.99,-55 221.99,-74"/>
<text text-anchor="middle" x="178.49" y="-62" font-family="Helvetica,sans-Serif" font-size="10.00">include/flags.h</text>
</a>
</g>
</g>
<!-- Node2&#45;&gt;Node3 -->
<g id="edge2_Node000002_Node000003" class="edge">
<title>Node2&#45;&gt;Node3</title>
<g id="a_edge2_Node000002_Node000003"><a xlink:title=" ">
<path fill="none" stroke="#63b8ff" d="M283.93,-106.29C258.54,-96.47 223.49,-82.91 200.9,-74.17"/>
<polygon fill="#63b8ff" stroke="#63b8ff" points="282.89,-109.64 293.48,-109.98 285.42,-103.11 282.89,-109.64"/>
</a>
</g>
</g>
<!-- Node2&#45;&gt;Node4 -->
<g id="edge4_Node000002_Node000004" class="edge">
<title>Node2&#45;&gt;Node4</title>
<g id="a_edge4_Node000002_Node000004"><a xlink:title=" ">
<path fill="none" stroke="#63b8ff" d="M362.61,-107.14C397.29,-96.55 435.24,-78.8 415.49,-55 391.73,-26.37 286.71,-16.04 224.72,-12.41"/>
<polygon fill="#63b8ff" stroke="#63b8ff" points="361.59,-103.79 352.96,-109.94 363.54,-110.52 361.59,-103.79"/>
</a>
</g>
</g>
<!-- Node5 -->
<g id="Node000005" class="node">
<title>Node5</title>
<g id="a_Node000005"><a xlink:href="stdstreams_8h.html" target="_top" xlink:title="Standard stream handling utilities.">
<polygon fill="white" stroke="#666666" points="581.99,-74 462.99,-74 462.99,-55 581.99,-55 581.99,-74"/>
<text text-anchor="middle" x="522.49" y="-62" font-family="Helvetica,sans-Serif" font-size="10.00">include/stdstreams.h</text>
</a>
</g>
</g>
<!-- Node2&#45;&gt;Node5 -->
<g id="edge5_Node000002_Node000005" class="edge">
<title>Node2&#45;&gt;Node5</title>
<g id="a_edge5_Node000002_Node000005"><a xlink:title=" ">
<path fill="none" stroke="#63b8ff" d="M358.7,-107.44C397.45,-97.52 453.52,-83.16 488.97,-74.08"/>
<polygon fill="#63b8ff" stroke="#63b8ff" points="357.57,-104.11 348.75,-109.98 359.3,-110.89 357.57,-104.11"/>
</a>
</g>
</g>
<!-- Node7 -->
<g id="Node000007" class="node">
<title>Node7</title>
<g id="a_Node000007"><a xlink:href="cstr_8c.html" target="_top" xlink:title="Implementation of high&#45;performance C string with SSO.">
<polygon fill="white" stroke="#666666" points="298.99,-74 239.99,-74 239.99,-55 298.99,-55 298.99,-74"/>
<text text-anchor="middle" x="269.49" y="-62" font-family="Helvetica,sans-Serif" font-size="10.00">src/cstr.c</text>
</a>
</g>
</g>
<!-- Node2&#45;&gt;Node7 -->
<g id="edge8_Node000002_Node000007" class="edge">
<title>Node2&#45;&gt;Node7</title>
<g id="a_edge8_Node000002_Node000007"><a xlink:title=" ">
<path fill="none" stroke="#63b8ff" d="M301.13,-101.96C293.12,-92.72 283.47,-81.6 276.95,-74.09"/>
<polygon fill="#63b8ff" stroke="#63b8ff" points="298.7,-104.49 307.9,-109.75 303.98,-99.9 298.7,-104.49"/>
</a>
</g>
</g>
<!-- Node8 -->
<g id="Node000008" class="node">
<title>Node8</title>
<g id="a_Node000008"><a xlink:href="csvparser_8c_source.html" target="_top" xlink:title=" ">
<polygon fill="white" stroke="#666666" points="405.99,-74 316.99,-74 316.99,-55 405.99,-55 405.99,-74"/>
<text text-anchor="middle" x="361.49" y="-62" font-family="Helvetica,sans-Serif" font-size="10.00">src/csvparser.c</text>
</a>
</g>
</g>
<!-- Node2&#45;&gt;Node8 -->
<g id="edge9_Node000002_Node000008" class="edge">
<title>Node2&#45;&gt;Node8</title>
<g id="a_edge9_Node000002_Node000008"><a xlink:title=" ">
<path fill="none" stroke="#63b8ff" d="M329.85,-101.96C337.86,-92.72 347.52,-81.6 354.04,-74.09"/>
<polygon fill="#63b8ff" stroke="#63b8ff" points="327,-99.9 323.09,-109.75 332.29,-104.49 327,-99.9"/>
</a>
</g>
</g>
<!-- Node3&#45;&gt;Node4 -->
<g id="edge3_Node000003_Node000004" class="edge">
<title>Node3&#45;&gt;Node4</title>
<g id="a_edge3_Node000003_Node000004"><a xlink:title=" ">
<path fill="none" stroke="#63b8ff" d="M178.49,-44.66C178.49,-35.93 178.49,-25.99 178.49,-19.09"/>
<polygon fill="#63b8ff" stroke="#63b8ff" points="174.99,-44.75 178.49,-54.75 181.99,-44.75 174.99,-44.75"/>
</a>
</g>
</g>
<!-- Node5&#45;&gt;Node4 -->
<g id="edge6_Node000005_Node000004" class="edge">
<title>Node5&#45;&gt;Node4</title>
<g id="a_edge6_Node000005_Node000004"><a xlink:title=" ">
<path fill="none" stroke="#63b8ff" d="M457.05,-53.42C389.02,-42.94 284.31,-26.8 224.53,-17.59"/>
<polygon fill="#63b8ff" stroke="#63b8ff" points="456.81,-56.92 467.22,-54.98 457.87,-50 456.81,-56.92"/>
</a>
</g>
</g>
<!-- Node6 -->
<g id="Node000006" class="node">
<title>Node6</title>
<g id="a_Node000006"><a xlink:href="stdstreams_8c_source.html" target="_top" xlink:title=" ">
<polygon fill="white" stroke="#666666" points="570.99,-19 473.99,-19 473.99,0 570.99,0 570.99,-19"/>
<text text-anchor="middle" x="522.49" y="-7" font-family="Helvetica,sans-Serif" font-size="10.00">src/stdstreams.c</text>
</a>
</g>
</g>
<!-- Node5&#45;&gt;Node6 -->
<g id="edge7_Node000005_Node000006" class="edge">
<title>Node5&#45;&gt;Node6</title>
<g id="a_edge7_Node000005_Node000006"><a xlink:title=" ">
<path fill="none" stroke="#63b8ff" d="M522.49,-44.66C522.49,-35.93 522.49,-25.99 522.49,-19.09"/>
<polygon fill="#63b8ff" stroke="#63b8ff" points="518.99,-44.75 522.49,-54.75 525.99,-44.75 518.99,-44.75"/>
</a>
</g>
</g>
<!-- Node9&#45;&gt;Node4 -->
<g id="edge11_Node000009_Node000004" class="edge">
<title>Node9&#45;&gt;Node4</title>
<g id="a_edge11_Node000009_Node000004"><a xlink:title=" ">
<path fill="none" stroke="#63b8ff" d="M45.19,-102.72C31.97,-89.38 18.25,-70.09 29.49,-55 52.96,-23.5 97.88,-13.43 132.29,-10.61"/>
<polygon fill="#63b8ff" stroke="#63b8ff" points="43.04,-105.5 52.73,-109.81 47.84,-100.4 43.04,-105.5"/>
</a>
</g>
</g>
<!-- Node10 -->
<g id="Node000010" class="node">
<title>Node10</title>
<g id="a_Node000010"><a xlink:href="filepath_8c_source.html" target="_top" xlink:title=" ">
<polygon fill="white" stroke="#666666" points="116.99,-74 37.99,-74 37.99,-55 116.99,-55 116.99,-74"/>
<text text-anchor="middle" x="77.49" y="-62" font-family="Helvetica,sans-Serif" font-size="10.00">src/filepath.c</text>
</a>
</g>
</g>
<!-- Node9&#45;&gt;Node10 -->
<g id="edge12_Node000009_Node000010" class="edge">
<title>Node9&#45;&gt;Node10</title>
<g id="a_edge12_Node000009_Node000010"><a xlink:title=" ">
<path fill="none" stroke="#63b8ff" d="M68.39,-99.95C70.72,-91.15 73.38,-81.06 75.22,-74.09"/>
<polygon fill="#63b8ff" stroke="#63b8ff" points="64.97,-99.19 65.8,-109.75 71.74,-100.97 64.97,-99.19"/>
</a>
</g>
</g>
</g>
</svg>
