<?xml version="1.0" encoding="UTF-8" standalone="no"?>
<!DOCTYPE svg PUBLIC "-//W3C//DTD SVG 1.1//EN"
 "http://www.w3.org/Graphics/SVG/1.1/DTD/svg11.dtd">
<!-- Generated by graphviz version 2.43.0 (0)
 -->
<!-- Title: include/macros.h Pages: 1 -->
<svg width="781pt" height="192pt"
 viewBox="0.00 0.00 781.00 192.00" xmlns="http://www.w3.org/2000/svg" xmlns:xlink="http://www.w3.org/1999/xlink">
<g id="graph0" class="graph" transform="scale(1 1) rotate(0) translate(4 188)">
<title>include/macros.h</title>
<!-- Node1 -->
<g id="Node000001" class="node">
<title>Node1</title>
<g id="a_Node000001"><a xlink:title="Collection of utility macros for assertions, memory management, math, and debugging.">
<polygon fill="#999999" stroke="#666666" points="564.5,-184 464.5,-184 464.5,-165 564.5,-165 564.5,-184"/>
<text text-anchor="middle" x="514.5" y="-172" font-family="Helvetica,sans-Serif" font-size="10.00">include/macros.h</text>
</a>
</g>
</g>
<!-- Node2 -->
<g id="Node000002" class="node">
<title>Node2</title>
<g id="a_Node000002"><a xlink:href="cstr_8h.html" target="_top" xlink:title="C string utilities and safe string operations.">
<polygon fill="white" stroke="#666666" points="322,-129 241,-129 241,-110 322,-110 322,-129"/>
<text text-anchor="middle" x="281.5" y="-117" font-family="Helvetica,sans-Serif" font-size="10.00">include/cstr.h</text>
</a>
</g>
</g>
<!-- Node1&#45;&gt;Node2 -->
<g id="edge1_Node000001_Node000002" class="edge">
<title>Node1&#45;&gt;Node2</title>
<g id="a_edge1_Node000001_Node000002"><a xlink:title=" ">
<path fill="none" stroke="#63b8ff" d="M467.25,-162.75C423.59,-152.82 359.56,-138.26 319.23,-129.08"/>
<polygon fill="#63b8ff" stroke="#63b8ff" points="466.54,-166.18 477.06,-164.98 468.09,-159.35 466.54,-166.18"/>
</a>
</g>
</g>
<!-- Node4 -->
<g id="Node000004" class="node">
<title>Node4</title>
<g id="a_Node000004"><a xlink:href="solidc_8h.html" target="_top" xlink:title="Master header file that includes all SolidC library modules.">
<polygon fill="white" stroke="#666666" points="409.5,-19 317.5,-19 317.5,0 409.5,0 409.5,-19"/>
<text text-anchor="middle" x="363.5" y="-7" font-family="Helvetica,sans-Serif" font-size="10.00">include/solidc.h</text>
</a>
</g>
</g>
<!-- Node1&#45;&gt;Node4 -->
<g id="edge13_Node000001_Node000004" class="edge">
<title>Node1&#45;&gt;Node4</title>
<g id="a_edge13_Node000001_Node000004"><a xlink:title=" ">
<path fill="none" stroke="#63b8ff" d="M506.41,-155.69C492.14,-124.54 463.28,-62.69 455.5,-55 437.96,-37.66 412.35,-26.03 392.59,-19.02"/>
<polygon fill="#63b8ff" stroke="#63b8ff" points="503.3,-157.31 510.64,-164.96 509.67,-154.41 503.3,-157.31"/>
</a>
</g>
</g>
<!-- Node9 -->
<g id="Node000009" class="node">
<title>Node9</title>
<g id="a_Node000009"><a xlink:href="filepath_8h.html" target="_top" xlink:title="Cross&#45;platform file path manipulation and directory traversal utilities.">
<polygon fill="white" stroke="#666666" points="605,-129 504,-129 504,-110 605,-110 605,-129"/>
<text text-anchor="middle" x="554.5" y="-117" font-family="Helvetica,sans-Serif" font-size="10.00">include/filepath.h</text>
</a>
</g>
</g>
<!-- Node1&#45;&gt;Node9 -->
<g id="edge10_Node000001_Node000009" class="edge">
<title>Node1&#45;&gt;Node9</title>
<g id="a_edge10_Node000001_Node000009"><a xlink:title=" ">
<path fill="none" stroke="#63b8ff" d="M527.2,-156.67C534.13,-147.5 542.41,-136.52 548.02,-129.09"/>
<polygon fill="#63b8ff" stroke="#63b8ff" points="524.34,-154.66 521.11,-164.75 529.92,-158.87 524.34,-154.66"/>
</a>
</g>
</g>
<!-- Node11 -->
<g id="Node000011" class="node">
<title>Node11</title>
<g id="a_Node000011"><a xlink:href="threadpool_8h.html" target="_top" xlink:title="Thread pool implementation for concurrent task execution.">
<polygon fill="white" stroke="#666666" points="739.5,-129 623.5,-129 623.5,-110 739.5,-110 739.5,-129"/>
<text text-anchor="middle" x="681.5" y="-117" font-family="Helvetica,sans-Serif" font-size="10.00">include/threadpool.h</text>
</a>
</g>
</g>
<!-- Node1&#45;&gt;Node11 -->
<g id="edge14_Node000001_Node000011" class="edge">
<title>Node1&#45;&gt;Node11</title>
<g id="a_edge14_Node000001_Node000011"><a xlink:title=" ">
<path fill="none" stroke="#63b8ff" d="M550.96,-161.93C582.16,-152.03 626.34,-138.01 654.46,-129.08"/>
<polygon fill="#63b8ff" stroke="#63b8ff" points="549.8,-158.62 541.33,-164.98 551.92,-165.3 549.8,-158.62"/>
</a>
</g>
</g>
<!-- Node3 -->
<g id="Node000003" class="node">
<title>Node3</title>
<g id="a_Node000003"><a xlink:href="flags_8h.html" target="_top" xlink:title="Command&#45;line flag parsing library.">
<polygon fill="white" stroke="#666666" points="224,-74 137,-74 137,-55 224,-55 224,-74"/>
<text text-anchor="middle" x="180.5" y="-62" font-family="Helvetica,sans-Serif" font-size="10.00">include/flags.h</text>
</a>
</g>
</g>
<!-- Node2&#45;&gt;Node3 -->
<g id="edge2_Node000002_Node000003" class="edge">
<title>Node2&#45;&gt;Node3</title>
<g id="a_edge2_Node000002_Node000003"><a xlink:title=" ">
<path fill="none" stroke="#63b8ff" d="M256.22,-105.23C237.7,-95.51 213.08,-82.6 197.02,-74.17"/>
<polygon fill="#63b8ff" stroke="#63b8ff" points="254.79,-108.44 265.27,-109.98 258.04,-102.24 254.79,-108.44"/>
</a>
</g>
</g>
<!-- Node2&#45;&gt;Node4 -->
<g id="edge4_Node000002_Node000004" class="edge">
<title>Node2&#45;&gt;Node4</title>
<g id="a_edge4_Node000002_Node000004"><a xlink:title=" ">
<path fill="none" stroke="#63b8ff" d="M272.64,-100.78C267.25,-87.27 262.9,-68.71 271.5,-55 283.09,-36.51 304.79,-25.52 324.19,-19.08"/>
<polygon fill="#63b8ff" stroke="#63b8ff" points="269.48,-102.28 276.77,-109.96 275.87,-99.41 269.48,-102.28"/>
</a>
</g>
</g>
<!-- Node5 -->
<g id="Node000005" class="node">
<title>Node5</title>
<g id="a_Node000005"><a xlink:href="stdstreams_8h.html" target="_top" xlink:title="Standard stream handling utilities.">
<polygon fill="white" stroke="#666666" points="119,-74 0,-74 0,-55 119,-55 119,-74"/>
<text text-anchor="middle" x="59.5" y="-62" font-family="Helvetica,sans-Serif" font-size="10.00">include/stdstreams.h</text>
</a>
</g>
</g>
<!-- Node2&#45;&gt;Node5 -->
<g id="edge5_Node000002_Node000005" class="edge">
<title>Node2&#45;&gt;Node5</title>
<g id="a_edge5_Node000002_Node000005"><a xlink:title=" ">
<path fill="none" stroke="#63b8ff" d="M235.96,-107.63C194.37,-97.7 133.72,-83.22 95.45,-74.08"/>
<polygon fill="#63b8ff" stroke="#63b8ff" points="235.29,-111.07 245.83,-109.98 236.92,-104.26 235.29,-111.07"/>
</a>
</g>
</g>
<!-- Node7 -->
<g id="Node000007" class="node">
<title>Node7</title>
<g id="a_Node000007"><a xlink:href="cstr_8c_source.html" target="_top" xlink:title=" ">
<polygon fill="white" stroke="#666666" points="340,-74 281,-74 281,-55 340,-55 340,-74"/>
<text text-anchor="middle" x="310.5" y="-62" font-family="Helvetica,sans-Serif" font-size="10.00">src/cstr.c</text>
</a>
</g>
</g>
<!-- Node2&#45;&gt;Node7 -->
<g id="edge8_Node000002_Node000007" class="edge">
<title>Node2&#45;&gt;Node7</title>
<g id="a_edge8_Node000002_Node000007"><a xlink:title=" ">
<path fill="none" stroke="#63b8ff" d="M291.18,-100.82C296.1,-91.82 301.86,-81.29 305.8,-74.09"/>
<polygon fill="#63b8ff" stroke="#63b8ff" points="288.02,-99.3 286.29,-109.75 294.16,-102.66 288.02,-99.3"/>
</a>
</g>
</g>
<!-- Node8 -->
<g id="Node000008" class="node">
<title>Node8</title>
<g id="a_Node000008"><a xlink:href="csvparser_8c_source.html" target="_top" xlink:title=" ">
<polygon fill="white" stroke="#666666" points="447,-74 358,-74 358,-55 447,-55 447,-74"/>
<text text-anchor="middle" x="402.5" y="-62" font-family="Helvetica,sans-Serif" font-size="10.00">src/csvparser.c</text>
</a>
</g>
</g>
<!-- Node2&#45;&gt;Node8 -->
<g id="edge9_Node000002_Node000008" class="edge">
<title>Node2&#45;&gt;Node8</title>
<g id="a_edge9_Node000002_Node000008"><a xlink:title=" ">
<path fill="none" stroke="#63b8ff" d="M310.27,-105.9C332.62,-96.11 363.02,-82.79 382.71,-74.17"/>
<polygon fill="#63b8ff" stroke="#63b8ff" points="308.7,-102.77 300.94,-109.98 311.5,-109.18 308.7,-102.77"/>
</a>
</g>
</g>
<!-- Node3&#45;&gt;Node4 -->
<g id="edge3_Node000003_Node000004" class="edge">
<title>Node3&#45;&gt;Node4</title>
<g id="a_edge3_Node000003_Node000004"><a xlink:title=" ">
<path fill="none" stroke="#63b8ff" d="M219.57,-52.18C253.8,-42.27 302.79,-28.08 333.87,-19.08"/>
<polygon fill="#63b8ff" stroke="#63b8ff" points="218.53,-48.84 209.9,-54.98 220.48,-55.56 218.53,-48.84"/>
</a>
</g>
</g>
<!-- Node5&#45;&gt;Node4 -->
<g id="edge6_Node000005_Node000004" class="edge">
<title>Node5&#45;&gt;Node4</title>
<g id="a_edge6_Node000005_Node000004"><a xlink:title=" ">
<path fill="none" stroke="#63b8ff" d="M118.47,-53.22C176.54,-43.09 264.06,-27.84 317.27,-18.56"/>
<polygon fill="#63b8ff" stroke="#63b8ff" points="117.59,-49.82 108.34,-54.98 118.8,-56.72 117.59,-49.82"/>
</a>
</g>
</g>
<!-- Node6 -->
<g id="Node000006" class="node">
<title>Node6</title>
<g id="a_Node000006"><a xlink:href="stdstreams_8c_source.html" target="_top" xlink:title=" ">
<polygon fill="white" stroke="#666666" points="108,-19 11,-19 11,0 108,0 108,-19"/>
<text text-anchor="middle" x="59.5" y="-7" font-family="Helvetica,sans-Serif" font-size="10.00">src/stdstreams.c</text>
</a>
</g>
</g>
<!-- Node5&#45;&gt;Node6 -->
<g id="edge7_Node000005_Node000006" class="edge">
<title>Node5&#45;&gt;Node6</title>
<g id="a_edge7_Node000005_Node000006"><a xlink:title=" ">
<path fill="none" stroke="#63b8ff" d="M59.5,-44.66C59.5,-35.93 59.5,-25.99 59.5,-19.09"/>
<polygon fill="#63b8ff" stroke="#63b8ff" points="56,-44.75 59.5,-54.75 63,-44.75 56,-44.75"/>
</a>
</g>
</g>
<!-- Node9&#45;&gt;Node4 -->
<g id="edge11_Node000009_Node000004" class="edge">
<title>Node9&#45;&gt;Node4</title>
<g id="a_edge11_Node000009_Node000004"><a xlink:title=" ">
<path fill="none" stroke="#63b8ff" d="M541.2,-101.95C529.05,-87.78 509.91,-67.7 489.5,-55 461.92,-37.84 426.83,-26.14 400.68,-19.06"/>
<polygon fill="#63b8ff" stroke="#63b8ff" points="538.73,-104.45 547.82,-109.9 544.11,-99.97 538.73,-104.45"/>
</a>
</g>
</g>
<!-- Node10 -->
<g id="Node000010" class="node">
<title>Node10</title>
<g id="a_Node000010"><a xlink:href="filepath_8c_source.html" target="_top" xlink:title=" ">
<polygon fill="white" stroke="#666666" points="621,-74 542,-74 542,-55 621,-55 621,-74"/>
<text text-anchor="middle" x="581.5" y="-62" font-family="Helvetica,sans-Serif" font-size="10.00">src/filepath.c</text>
</a>
</g>
</g>
<!-- Node9&#45;&gt;Node10 -->
<g id="edge12_Node000009_Node000010" class="edge">
<title>Node9&#45;&gt;Node10</title>
<g id="a_edge12_Node000009_Node000010"><a xlink:title=" ">
<path fill="none" stroke="#63b8ff" d="M563.51,-100.82C568.09,-91.82 573.45,-81.29 577.12,-74.09"/>
<polygon fill="#63b8ff" stroke="#63b8ff" points="560.38,-99.25 558.96,-109.75 566.62,-102.43 560.38,-99.25"/>
</a>
</g>
</g>
<!-- Node11&#45;&gt;Node4 -->
<g id="edge15_Node000011_Node000004" class="edge">
<title>Node11&#45;&gt;Node4</title>
<g id="a_edge15_Node000011_Node000004"><a xlink:title=" ">
<path fill="none" stroke="#63b8ff" d="M672.11,-101.12C663.17,-86.36 648.31,-65.9 629.5,-55 592.94,-33.81 475.7,-20.38 409.72,-14.3"/>
<polygon fill="#63b8ff" stroke="#63b8ff" points="669.09,-102.9 677.11,-109.83 675.17,-99.42 669.09,-102.9"/>
</a>
</g>
</g>
<!-- Node12 -->
<g id="Node000012" class="node">
<title>Node12</title>
<g id="a_Node000012"><a xlink:href="threadpool_8c_source.html" target="_top" xlink:title=" ">
<polygon fill="white" stroke="#666666" points="773,-74 678,-74 678,-55 773,-55 773,-74"/>
<text text-anchor="middle" x="725.5" y="-62" font-family="Helvetica,sans-Serif" font-size="10.00">src/threadpool.c</text>
</a>
</g>
</g>
<!-- Node11&#45;&gt;Node12 -->
<g id="edge16_Node000011_Node000012" class="edge">
<title>Node11&#45;&gt;Node12</title>
<g id="a_edge16_Node000011_Node000012"><a xlink:title=" ">
<path fill="none" stroke="#63b8ff" d="M695.23,-101.96C702.9,-92.72 712.13,-81.6 718.37,-74.09"/>
<polygon fill="#63b8ff" stroke="#63b8ff" points="692.46,-99.82 688.77,-109.75 697.85,-104.29 692.46,-99.82"/>
</a>
</g>
</g>
</g>
</svg>
