<?xml version="1.0" encoding="UTF-8" standalone="no"?>
<!DOCTYPE svg PUBLIC "-//W3C//DTD SVG 1.1//EN"
 "http://www.w3.org/Graphics/SVG/1.1/DTD/svg11.dtd">
<!-- Generated by graphviz version 2.43.0 (0)
 -->
<!-- Title: include/macros.h Pages: 1 -->
<svg width="673pt" height="192pt"
 viewBox="0.00 0.00 673.00 192.00" xmlns="http://www.w3.org/2000/svg" xmlns:xlink="http://www.w3.org/1999/xlink">
<g id="graph0" class="graph" transform="scale(1 1) rotate(0) translate(4 188)">
<title>include/macros.h</title>
<!-- Node1 -->
<g id="Node000001" class="node">
<title>Node1</title>
<g id="a_Node000001"><a xlink:title="Collection of utility macros for assertions, memory management, math, and debugging.">
<polygon fill="#999999" stroke="#666666" points="456.5,-184 356.5,-184 356.5,-165 456.5,-165 456.5,-184"/>
<text text-anchor="middle" x="406.5" y="-172" font-family="Helvetica,sans-Serif" font-size="10.00">include/macros.h</text>
</a>
</g>
</g>
<!-- Node2 -->
<g id="Node000002" class="node">
<title>Node2</title>
<g id="a_Node000002"><a xlink:href="cstr_8h.html" target="_top" xlink:title="C string utilities and safe string operations.">
<polygon fill="white" stroke="#666666" points="282,-129 201,-129 201,-110 282,-110 282,-129"/>
<text text-anchor="middle" x="241.5" y="-117" font-family="Helvetica,sans-Serif" font-size="10.00">include/cstr.h</text>
</a>
</g>
</g>
<!-- Node1&#45;&gt;Node2 -->
<g id="edge1_Node000001_Node000002" class="edge">
<title>Node1&#45;&gt;Node2</title>
<g id="a_edge1_Node000001_Node000002"><a xlink:title=" ">
<path fill="none" stroke="#63b8ff" d="M370.07,-161.8C339.28,-151.91 295.88,-137.97 268.22,-129.08"/>
<polygon fill="#63b8ff" stroke="#63b8ff" points="369.4,-165.26 379.99,-164.98 371.54,-158.59 369.4,-165.26"/>
</a>
</g>
</g>
<!-- Node4 -->
<g id="Node000004" class="node">
<title>Node4</title>
<g id="a_Node000004"><a xlink:href="solidc_8h.html" target="_top" xlink:title="Master header file that includes all SolidC library modules.">
<polygon fill="white" stroke="#666666" points="406.5,-19 314.5,-19 314.5,0 406.5,0 406.5,-19"/>
<text text-anchor="middle" x="360.5" y="-7" font-family="Helvetica,sans-Serif" font-size="10.00">include/solidc.h</text>
</a>
</g>
</g>
<!-- Node1&#45;&gt;Node4 -->
<g id="edge13_Node000001_Node000004" class="edge">
<title>Node1&#45;&gt;Node4</title>
<g id="a_edge13_Node000001_Node000004"><a xlink:title=" ">
<path fill="none" stroke="#63b8ff" d="M397.51,-155.76C393.71,-147.74 389.49,-138.05 386.5,-129 373.28,-89 364.85,-39.17 361.79,-19.29"/>
<polygon fill="#63b8ff" stroke="#63b8ff" points="394.42,-157.41 401.97,-164.85 400.71,-154.33 394.42,-157.41"/>
</a>
</g>
</g>
<!-- Node9 -->
<g id="Node000009" class="node">
<title>Node9</title>
<g id="a_Node000009"><a xlink:href="filepath_8h.html" target="_top" xlink:title="Cross&#45;platform file path manipulation and directory traversal utilities.">
<polygon fill="white" stroke="#666666" points="497,-129 396,-129 396,-110 497,-110 497,-129"/>
<text text-anchor="middle" x="446.5" y="-117" font-family="Helvetica,sans-Serif" font-size="10.00">include/filepath.h</text>
</a>
</g>
</g>
<!-- Node1&#45;&gt;Node9 -->
<g id="edge10_Node000001_Node000009" class="edge">
<title>Node1&#45;&gt;Node9</title>
<g id="a_edge10_Node000001_Node000009"><a xlink:title=" ">
<path fill="none" stroke="#63b8ff" d="M419.2,-156.67C426.13,-147.5 434.41,-136.52 440.02,-129.09"/>
<polygon fill="#63b8ff" stroke="#63b8ff" points="416.34,-154.66 413.11,-164.75 421.92,-158.87 416.34,-154.66"/>
</a>
</g>
</g>
<!-- Node11 -->
<g id="Node000011" class="node">
<title>Node11</title>
<g id="a_Node000011"><a xlink:href="threadpool_8h.html" target="_top" xlink:title="Thread pool implementation for concurrent task execution.">
<polygon fill="white" stroke="#666666" points="631.5,-129 515.5,-129 515.5,-110 631.5,-110 631.5,-129"/>
<text text-anchor="middle" x="573.5" y="-117" font-family="Helvetica,sans-Serif" font-size="10.00">include/threadpool.h</text>
</a>
</g>
</g>
<!-- Node1&#45;&gt;Node11 -->
<g id="edge14_Node000001_Node000011" class="edge">
<title>Node1&#45;&gt;Node11</title>
<g id="a_edge14_Node000001_Node000011"><a xlink:title=" ">
<path fill="none" stroke="#63b8ff" d="M442.96,-161.93C474.16,-152.03 518.34,-138.01 546.46,-129.08"/>
<polygon fill="#63b8ff" stroke="#63b8ff" points="441.8,-158.62 433.33,-164.98 443.92,-165.3 441.8,-158.62"/>
</a>
</g>
</g>
<!-- Node3 -->
<g id="Node000003" class="node">
<title>Node3</title>
<g id="a_Node000003"><a xlink:href="flags_8h.html" target="_top" xlink:title="Command&#45;line flag parsing library.">
<polygon fill="white" stroke="#666666" points="164,-74 77,-74 77,-55 164,-55 164,-74"/>
<text text-anchor="middle" x="120.5" y="-62" font-family="Helvetica,sans-Serif" font-size="10.00">include/flags.h</text>
</a>
</g>
</g>
<!-- Node2&#45;&gt;Node3 -->
<g id="edge2_Node000002_Node000003" class="edge">
<title>Node2&#45;&gt;Node3</title>
<g id="a_edge2_Node000002_Node000003"><a xlink:title=" ">
<path fill="none" stroke="#63b8ff" d="M212.73,-105.9C190.38,-96.11 159.98,-82.79 140.29,-74.17"/>
<polygon fill="#63b8ff" stroke="#63b8ff" points="211.5,-109.18 222.06,-109.98 214.3,-102.77 211.5,-109.18"/>
</a>
</g>
</g>
<!-- Node2&#45;&gt;Node4 -->
<g id="edge5_Node000002_Node000004" class="edge">
<title>Node2&#45;&gt;Node4</title>
<g id="a_edge5_Node000002_Node000004"><a xlink:title=" ">
<path fill="none" stroke="#63b8ff" d="M266.39,-104.8C279.89,-96.76 296.43,-85.86 309.5,-74 328.56,-56.71 346.3,-31.91 354.96,-19.02"/>
<polygon fill="#63b8ff" stroke="#63b8ff" points="264.51,-101.84 257.62,-109.89 268.03,-107.9 264.51,-101.84"/>
</a>
</g>
</g>
<!-- Node6 -->
<g id="Node000006" class="node">
<title>Node6</title>
<g id="a_Node000006"><a xlink:href="stdstreams_8h.html" target="_top" xlink:title="Standard stream handling utilities.">
<polygon fill="white" stroke="#666666" points="301,-74 182,-74 182,-55 301,-55 301,-74"/>
<text text-anchor="middle" x="241.5" y="-62" font-family="Helvetica,sans-Serif" font-size="10.00">include/stdstreams.h</text>
</a>
</g>
</g>
<!-- Node2&#45;&gt;Node6 -->
<g id="edge6_Node000002_Node000006" class="edge">
<title>Node2&#45;&gt;Node6</title>
<g id="a_edge6_Node000002_Node000006"><a xlink:title=" ">
<path fill="none" stroke="#63b8ff" d="M241.5,-99.66C241.5,-90.93 241.5,-80.99 241.5,-74.09"/>
<polygon fill="#63b8ff" stroke="#63b8ff" points="238,-99.75 241.5,-109.75 245,-99.75 238,-99.75"/>
</a>
</g>
</g>
<!-- Node8 -->
<g id="Node000008" class="node">
<title>Node8</title>
<g id="a_Node000008"><a xlink:href="cstr_8c_source.html" target="_top" xlink:title=" ">
<polygon fill="white" stroke="#666666" points="59,-74 0,-74 0,-55 59,-55 59,-74"/>
<text text-anchor="middle" x="29.5" y="-62" font-family="Helvetica,sans-Serif" font-size="10.00">src/cstr.c</text>
</a>
</g>
</g>
<!-- Node2&#45;&gt;Node8 -->
<g id="edge9_Node000002_Node000008" class="edge">
<title>Node2&#45;&gt;Node8</title>
<g id="a_edge9_Node000002_Node000008"><a xlink:title=" ">
<path fill="none" stroke="#63b8ff" d="M197.6,-107.53C156.11,-97.15 95.01,-81.88 59.03,-72.88"/>
<polygon fill="#63b8ff" stroke="#63b8ff" points="196.89,-110.95 207.44,-109.98 198.59,-104.16 196.89,-110.95"/>
</a>
</g>
</g>
<!-- Node3&#45;&gt;Node4 -->
<g id="edge3_Node000003_Node000004" class="edge">
<title>Node3&#45;&gt;Node4</title>
<g id="a_edge3_Node000003_Node000004"><a xlink:title=" ">
<path fill="none" stroke="#63b8ff" d="M168.88,-52.82C213.86,-42.88 280,-28.28 321.64,-19.08"/>
<polygon fill="#63b8ff" stroke="#63b8ff" points="168.07,-49.41 159.06,-54.98 169.58,-56.25 168.07,-49.41"/>
</a>
</g>
</g>
<!-- Node5 -->
<g id="Node000005" class="node">
<title>Node5</title>
<g id="a_Node000005"><a xlink:href="flags_8c.html" target="_top" xlink:title="Command&#45;line flag parsing library implementation.">
<polygon fill="white" stroke="#666666" points="153,-19 88,-19 88,0 153,0 153,-19"/>
<text text-anchor="middle" x="120.5" y="-7" font-family="Helvetica,sans-Serif" font-size="10.00">src/flags.c</text>
</a>
</g>
</g>
<!-- Node3&#45;&gt;Node5 -->
<g id="edge4_Node000003_Node000005" class="edge">
<title>Node3&#45;&gt;Node5</title>
<g id="a_edge4_Node000003_Node000005"><a xlink:title=" ">
<path fill="none" stroke="#63b8ff" d="M120.5,-44.66C120.5,-35.93 120.5,-25.99 120.5,-19.09"/>
<polygon fill="#63b8ff" stroke="#63b8ff" points="117,-44.75 120.5,-54.75 124,-44.75 117,-44.75"/>
</a>
</g>
</g>
<!-- Node6&#45;&gt;Node4 -->
<g id="edge7_Node000006_Node000004" class="edge">
<title>Node6&#45;&gt;Node4</title>
<g id="a_edge7_Node000006_Node000004"><a xlink:title=" ">
<path fill="none" stroke="#63b8ff" d="M269.8,-50.9C291.78,-41.11 321.68,-27.79 341.03,-19.17"/>
<polygon fill="#63b8ff" stroke="#63b8ff" points="268.33,-47.72 260.62,-54.98 271.18,-54.11 268.33,-47.72"/>
</a>
</g>
</g>
<!-- Node7 -->
<g id="Node000007" class="node">
<title>Node7</title>
<g id="a_Node000007"><a xlink:href="stdstreams_8c_source.html" target="_top" xlink:title=" ">
<polygon fill="white" stroke="#666666" points="290,-19 193,-19 193,0 290,0 290,-19"/>
<text text-anchor="middle" x="241.5" y="-7" font-family="Helvetica,sans-Serif" font-size="10.00">src/stdstreams.c</text>
</a>
</g>
</g>
<!-- Node6&#45;&gt;Node7 -->
<g id="edge8_Node000006_Node000007" class="edge">
<title>Node6&#45;&gt;Node7</title>
<g id="a_edge8_Node000006_Node000007"><a xlink:title=" ">
<path fill="none" stroke="#63b8ff" d="M241.5,-44.66C241.5,-35.93 241.5,-25.99 241.5,-19.09"/>
<polygon fill="#63b8ff" stroke="#63b8ff" points="238,-44.75 241.5,-54.75 245,-44.75 238,-44.75"/>
</a>
</g>
</g>
<!-- Node9&#45;&gt;Node4 -->
<g id="edge11_Node000009_Node000004" class="edge">
<title>Node9&#45;&gt;Node4</title>
<g id="a_edge11_Node000009_Node000004"><a xlink:title=" ">
<path fill="none" stroke="#63b8ff" d="M433.12,-101.69C414.54,-78.37 381.64,-37.05 367.39,-19.16"/>
<polygon fill="#63b8ff" stroke="#63b8ff" points="430.49,-104.02 439.46,-109.66 435.97,-99.66 430.49,-104.02"/>
</a>
</g>
</g>
<!-- Node10 -->
<g id="Node000010" class="node">
<title>Node10</title>
<g id="a_Node000010"><a xlink:href="filepath_8c_source.html" target="_top" xlink:title=" ">
<polygon fill="white" stroke="#666666" points="513,-74 434,-74 434,-55 513,-55 513,-74"/>
<text text-anchor="middle" x="473.5" y="-62" font-family="Helvetica,sans-Serif" font-size="10.00">src/filepath.c</text>
</a>
</g>
</g>
<!-- Node9&#45;&gt;Node10 -->
<g id="edge12_Node000009_Node000010" class="edge">
<title>Node9&#45;&gt;Node10</title>
<g id="a_edge12_Node000009_Node000010"><a xlink:title=" ">
<path fill="none" stroke="#63b8ff" d="M455.51,-100.82C460.09,-91.82 465.45,-81.29 469.12,-74.09"/>
<polygon fill="#63b8ff" stroke="#63b8ff" points="452.38,-99.25 450.96,-109.75 458.62,-102.43 452.38,-99.25"/>
</a>
</g>
</g>
<!-- Node11&#45;&gt;Node4 -->
<g id="edge15_Node000011_Node000004" class="edge">
<title>Node11&#45;&gt;Node4</title>
<g id="a_edge15_Node000011_Node000004"><a xlink:title=" ">
<path fill="none" stroke="#63b8ff" d="M563.26,-100.71C554.09,-86.33 539.35,-66.62 521.5,-55 486.75,-32.37 440.58,-21.14 406.6,-15.63"/>
<polygon fill="#63b8ff" stroke="#63b8ff" points="560.51,-102.92 568.69,-109.65 566.49,-99.29 560.51,-102.92"/>
</a>
</g>
</g>
<!-- Node12 -->
<g id="Node000012" class="node">
<title>Node12</title>
<g id="a_Node000012"><a xlink:href="threadpool_8c_source.html" target="_top" xlink:title=" ">
<polygon fill="white" stroke="#666666" points="665,-74 570,-74 570,-55 665,-55 665,-74"/>
<text text-anchor="middle" x="617.5" y="-62" font-family="Helvetica,sans-Serif" font-size="10.00">src/threadpool.c</text>
</a>
</g>
</g>
<!-- Node11&#45;&gt;Node12 -->
<g id="edge16_Node000011_Node000012" class="edge">
<title>Node11&#45;&gt;Node12</title>
<g id="a_edge16_Node000011_Node000012"><a xlink:title=" ">
<path fill="none" stroke="#63b8ff" d="M587.23,-101.96C594.9,-92.72 604.13,-81.6 610.37,-74.09"/>
<polygon fill="#63b8ff" stroke="#63b8ff" points="584.46,-99.82 580.77,-109.75 589.85,-104.29 584.46,-99.82"/>
</a>
</g>
</g>
</g>
</svg>
