<?xml version="1.0" encoding="UTF-8" standalone="no"?>
<!DOCTYPE svg PUBLIC "-//W3C//DTD SVG 1.1//EN"
 "http://www.w3.org/Graphics/SVG/1.1/DTD/svg11.dtd">
<!-- Generated by graphviz version 2.43.0 (0)
 -->
<!-- Title: include/macros.h Pages: 1 -->
<!--zoomable 192 -->

<svg id="main" version="1.1" xmlns="http://www.w3.org/2000/svg" xmlns:xlink="http://www.w3.org/1999/xlink" xml:space="preserve" onload="init(evt)">
<style type="text/css"><![CDATA[
.node, .edge {opacity: 0.7;}
.node.selected, .edge.selected {opacity: 1;}
.edge:hover path { stroke: red; }
.edge:hover polygon { stroke: red; fill: red; }
]]></style>

<defs>
  <circle id="rim" cx="0" cy="0" r="7"/>
  <circle id="rim2" cx="0" cy="0" r="3.5"/>
  <g id="zoomPlus">
    <use xlink:href="#rim" fill="#404040"><set attributeName="fill" to="#808080" begin="zoomplus.mouseover" end="zoomplus.mouseout"/></use>
    <path d="M-4,0h8M0,-4v8" fill="none" stroke="white" stroke-width="1.5" pointer-events="none"/>
  </g>
  <g id="zoomMin">
    <use xlink:href="#rim" fill="#404040"><set attributeName="fill" to="#808080" begin="zoomminus.mouseover" end="zoomminus.mouseout"/></use>
    <path d="M-4,0h8" fill="none" stroke="white" stroke-width="1.5" pointer-events="none"/>
  </g>
  <g id="arrowUp" transform="translate(30 24)">
    <use xlink:href="#rim"/>
    <path pointer-events="none" fill="none" stroke="white" stroke-width="1.5" d="M0,-3.0v7 M-2.5,-0.5L0,-3.0L2.5,-0.5"/>
  </g>
  <g id="arrowRight" transform="rotate(90) translate(36 -43)">
    <use xlink:href="#rim"/>
    <path pointer-events="none" fill="none" stroke="white" stroke-width="1.5" d="M0,-3.0v7 M-2.5,-0.5L0,-3.0L2.5,-0.5"/>
  </g>
  <g id="arrowDown" transform="rotate(180) translate(-30 -48)">
    <use xlink:href="#rim"/>
    <path pointer-events="none" fill="none" stroke="white" stroke-width="1.5" d="M0,-3.0v7 M-2.5,-0.5L0,-3.0L2.5,-0.5"/>
  </g>
  <g id="arrowLeft" transform="rotate(270) translate(-36 17)">
    <use xlink:href="#rim"/>
    <path pointer-events="none" fill="none" stroke="white" stroke-width="1.5" d="M0,-3.0v7 M-2.5,-0.5L0,-3.0L2.5,-0.5"/>
  </g>
  <g id="resetDef">
    <use xlink:href="#rim2" fill="#404040"><set attributeName="fill" to="#808080" begin="reset.mouseover" end="reset.mouseout"/></use>
  </g>
</defs>
<script type="application/ecmascript">
var viewWidth = 673;
var viewHeight = 192;
var sectionId = 'dynsection-1';
</script>
<script type="application/ecmascript" xlink:href="svg.min.js"/>
<svg id="graph" class="graph">
<g id="viewport">
<title>include/macros.h</title>
<!-- Node1 -->
<g id="Node000001" class="node">
<title>Node1</title>
<g id="a_Node000001"><a xlink:title="Collection of utility macros for assertions, memory management, math, and debugging.">
<polygon fill="#999999" stroke="#666666" points="456.5,-184 356.5,-184 356.5,-165 456.5,-165 456.5,-184"/>
<text text-anchor="middle" x="406.5" y="-172" font-family="Helvetica,sans-Serif" font-size="10.00">include/macros.h</text>
</a>
</g>
</g>
<!-- Node2 -->
<g id="Node000002" class="node">
<title>Node2</title>
<g id="a_Node000002"><a xlink:href="cstr_8h.html" target="_top" xlink:title="C string utilities and safe string operations.">
<polygon fill="white" stroke="#666666" points="282,-129 201,-129 201,-110 282,-110 282,-129"/>
<text text-anchor="middle" x="241.5" y="-117" font-family="Helvetica,sans-Serif" font-size="10.00">include/cstr.h</text>
</a>
</g>
</g>
<!-- Node1&#45;&gt;Node2 -->
<g id="edge1_Node000001_Node000002" class="edge">
<title>Node1&#45;&gt;Node2</title>
<g id="a_edge1_Node000001_Node000002"><a xlink:title=" ">
<path fill="none" stroke="#63b8ff" d="M370.07,-161.8C339.28,-151.91 295.88,-137.97 268.22,-129.08"/>
<polygon fill="#63b8ff" stroke="#63b8ff" points="369.4,-165.26 379.99,-164.98 371.54,-158.59 369.4,-165.26"/>
</a>
</g>
</g>
<!-- Node4 -->
<g id="Node000004" class="node">
<title>Node4</title>
<g id="a_Node000004"><a xlink:href="solidc_8h.html" target="_top" xlink:title="Master header file that includes all SolidC library modules.">
<polygon fill="white" stroke="#666666" points="406.5,-19 314.5,-19 314.5,0 406.5,0 406.5,-19"/>
<text text-anchor="middle" x="360.5" y="-7" font-family="Helvetica,sans-Serif" font-size="10.00">include/solidc.h</text>
</a>
</g>
</g>
<!-- Node1&#45;&gt;Node4 -->
<g id="edge13_Node000001_Node000004" class="edge">
<title>Node1&#45;&gt;Node4</title>
<g id="a_edge13_Node000001_Node000004"><a xlink:title=" ">
<path fill="none" stroke="#63b8ff" d="M397.51,-155.76C393.71,-147.74 389.49,-138.05 386.5,-129 373.28,-89 364.85,-39.17 361.79,-19.29"/>
<polygon fill="#63b8ff" stroke="#63b8ff" points="394.42,-157.41 401.97,-164.85 400.71,-154.33 394.42,-157.41"/>
</a>
</g>
</g>
<!-- Node9 -->
<g id="Node000009" class="node">
<title>Node9</title>
<g id="a_Node000009"><a xlink:href="filepath_8h.html" target="_top" xlink:title="Cross&#45;platform file path manipulation and directory traversal utilities.">
<polygon fill="white" stroke="#666666" points="497,-129 396,-129 396,-110 497,-110 497,-129"/>
<text text-anchor="middle" x="446.5" y="-117" font-family="Helvetica,sans-Serif" font-size="10.00">include/filepath.h</text>
</a>
</g>
</g>
<!-- Node1&#45;&gt;Node9 -->
<g id="edge10_Node000001_Node000009" class="edge">
<title>Node1&#45;&gt;Node9</title>
<g id="a_edge10_Node000001_Node000009"><a xlink:title=" ">
<path fill="none" stroke="#63b8ff" d="M419.2,-156.67C426.13,-147.5 434.41,-136.52 440.02,-129.09"/>
<polygon fill="#63b8ff" stroke="#63b8ff" points="416.34,-154.66 413.11,-164.75 421.92,-158.87 416.34,-154.66"/>
</a>
</g>
</g>
<!-- Node11 -->
<g id="Node000011" class="node">
<title>Node11</title>
<g id="a_Node000011"><a xlink:href="threadpool_8h.html" target="_top" xlink:title="Thread pool implementation for concurrent task execution.">
<polygon fill="white" stroke="#666666" points="631.5,-129 515.5,-129 515.5,-110 631.5,-110 631.5,-129"/>
<text text-anchor="middle" x="573.5" y="-117" font-family="Helvetica,sans-Serif" font-size="10.00">include/threadpool.h</text>
</a>
</g>
</g>
<!-- Node1&#45;&gt;Node11 -->
<g id="edge14_Node000001_Node000011" class="edge">
<title>Node1&#45;&gt;Node11</title>
<g id="a_edge14_Node000001_Node000011"><a xlink:title=" ">
<path fill="none" stroke="#63b8ff" d="M442.96,-161.93C474.16,-152.03 518.34,-138.01 546.46,-129.08"/>
<polygon fill="#63b8ff" stroke="#63b8ff" points="441.8,-158.62 433.33,-164.98 443.92,-165.3 441.8,-158.62"/>
</a>
</g>
</g>
<!-- Node3 -->
<g id="Node000003" class="node">
<title>Node3</title>
<g id="a_Node000003"><a xlink:href="flags_8h.html" target="_top" xlink:title="Command&#45;line flag parsing library.">
<polygon fill="white" stroke="#666666" points="164,-74 77,-74 77,-55 164,-55 164,-74"/>
<text text-anchor="middle" x="120.5" y="-62" font-family="Helvetica,sans-Serif" font-size="10.00">include/flags.h</text>
</a>
</g>
</g>
<!-- Node2&#45;&gt;Node3 -->
<g id="edge2_Node000002_Node000003" class="edge">
<title>Node2&#45;&gt;Node3</title>
<g id="a_edge2_Node000002_Node000003"><a xlink:title=" ">
<path fill="none" stroke="#63b8ff" d="M212.73,-105.9C190.38,-96.11 159.98,-82.79 140.29,-74.17"/>
<polygon fill="#63b8ff" stroke="#63b8ff" points="211.5,-109.18 222.06,-109.98 214.3,-102.77 211.5,-109.18"/>
</a>
</g>
</g>
<!-- Node2&#45;&gt;Node4 -->
<g id="edge5_Node000002_Node000004" class="edge">
<title>Node2&#45;&gt;Node4</title>
<g id="a_edge5_Node000002_Node000004"><a xlink:title=" ">
<path fill="none" stroke="#63b8ff" d="M266.39,-104.8C279.89,-96.76 296.43,-85.86 309.5,-74 328.56,-56.71 346.3,-31.91 354.96,-19.02"/>
<polygon fill="#63b8ff" stroke="#63b8ff" points="264.51,-101.84 257.62,-109.89 268.03,-107.9 264.51,-101.84"/>
</a>
</g>
</g>
<!-- Node6 -->
<g id="Node000006" class="node">
<title>Node6</title>
<g id="a_Node000006"><a xlink:href="stdstreams_8h.html" target="_top" xlink:title="Standard stream handling utilities.">
<polygon fill="white" stroke="#666666" points="301,-74 182,-74 182,-55 301,-55 301,-74"/>
<text text-anchor="middle" x="241.5" y="-62" font-family="Helvetica,sans-Serif" font-size="10.00">include/stdstreams.h</text>
</a>
</g>
</g>
<!-- Node2&#45;&gt;Node6 -->
<g id="edge6_Node000002_Node000006" class="edge">
<title>Node2&#45;&gt;Node6</title>
<g id="a_edge6_Node000002_Node000006"><a xlink:title=" ">
<path fill="none" stroke="#63b8ff" d="M241.5,-99.66C241.5,-90.93 241.5,-80.99 241.5,-74.09"/>
<polygon fill="#63b8ff" stroke="#63b8ff" points="238,-99.75 241.5,-109.75 245,-99.75 238,-99.75"/>
</a>
</g>
</g>
<!-- Node8 -->
<g id="Node000008" class="node">
<title>Node8</title>
<g id="a_Node000008"><a xlink:href="cstr_8c_source.html" target="_top" xlink:title=" ">
<polygon fill="white" stroke="#666666" points="59,-74 0,-74 0,-55 59,-55 59,-74"/>
<text text-anchor="middle" x="29.5" y="-62" font-family="Helvetica,sans-Serif" font-size="10.00">src/cstr.c</text>
</a>
</g>
</g>
<!-- Node2&#45;&gt;Node8 -->
<g id="edge9_Node000002_Node000008" class="edge">
<title>Node2&#45;&gt;Node8</title>
<g id="a_edge9_Node000002_Node000008"><a xlink:title=" ">
<path fill="none" stroke="#63b8ff" d="M197.6,-107.53C156.11,-97.15 95.01,-81.88 59.03,-72.88"/>
<polygon fill="#63b8ff" stroke="#63b8ff" points="196.89,-110.95 207.44,-109.98 198.59,-104.16 196.89,-110.95"/>
</a>
</g>
</g>
<!-- Node3&#45;&gt;Node4 -->
<g id="edge3_Node000003_Node000004" class="edge">
<title>Node3&#45;&gt;Node4</title>
<g id="a_edge3_Node000003_Node000004"><a xlink:title=" ">
<path fill="none" stroke="#63b8ff" d="M168.88,-52.82C213.86,-42.88 280,-28.28 321.64,-19.08"/>
<polygon fill="#63b8ff" stroke="#63b8ff" points="168.07,-49.41 159.06,-54.98 169.58,-56.25 168.07,-49.41"/>
</a>
</g>
</g>
<!-- Node5 -->
<g id="Node000005" class="node">
<title>Node5</title>
<g id="a_Node000005"><a xlink:href="flags_8c.html" target="_top" xlink:title="Command&#45;line flag parsing library implementation.">
<polygon fill="white" stroke="#666666" points="153,-19 88,-19 88,0 153,0 153,-19"/>
<text text-anchor="middle" x="120.5" y="-7" font-family="Helvetica,sans-Serif" font-size="10.00">src/flags.c</text>
</a>
</g>
</g>
<!-- Node3&#45;&gt;Node5 -->
<g id="edge4_Node000003_Node000005" class="edge">
<title>Node3&#45;&gt;Node5</title>
<g id="a_edge4_Node000003_Node000005"><a xlink:title=" ">
<path fill="none" stroke="#63b8ff" d="M120.5,-44.66C120.5,-35.93 120.5,-25.99 120.5,-19.09"/>
<polygon fill="#63b8ff" stroke="#63b8ff" points="117,-44.75 120.5,-54.75 124,-44.75 117,-44.75"/>
</a>
</g>
</g>
<!-- Node6&#45;&gt;Node4 -->
<g id="edge7_Node000006_Node000004" class="edge">
<title>Node6&#45;&gt;Node4</title>
<g id="a_edge7_Node000006_Node000004"><a xlink:title=" ">
<path fill="none" stroke="#63b8ff" d="M269.8,-50.9C291.78,-41.11 321.68,-27.79 341.03,-19.17"/>
<polygon fill="#63b8ff" stroke="#63b8ff" points="268.33,-47.72 260.62,-54.98 271.18,-54.11 268.33,-47.72"/>
</a>
</g>
</g>
<!-- Node7 -->
<g id="Node000007" class="node">
<title>Node7</title>
<g id="a_Node000007"><a xlink:href="stdstreams_8c_source.html" target="_top" xlink:title=" ">
<polygon fill="white" stroke="#666666" points="290,-19 193,-19 193,0 290,0 290,-19"/>
<text text-anchor="middle" x="241.5" y="-7" font-family="Helvetica,sans-Serif" font-size="10.00">src/stdstreams.c</text>
</a>
</g>
</g>
<!-- Node6&#45;&gt;Node7 -->
<g id="edge8_Node000006_Node000007" class="edge">
<title>Node6&#45;&gt;Node7</title>
<g id="a_edge8_Node000006_Node000007"><a xlink:title=" ">
<path fill="none" stroke="#63b8ff" d="M241.5,-44.66C241.5,-35.93 241.5,-25.99 241.5,-19.09"/>
<polygon fill="#63b8ff" stroke="#63b8ff" points="238,-44.75 241.5,-54.75 245,-44.75 238,-44.75"/>
</a>
</g>
</g>
<!-- Node9&#45;&gt;Node4 -->
<g id="edge11_Node000009_Node000004" class="edge">
<title>Node9&#45;&gt;Node4</title>
<g id="a_edge11_Node000009_Node000004"><a xlink:title=" ">
<path fill="none" stroke="#63b8ff" d="M433.12,-101.69C414.54,-78.37 381.64,-37.05 367.39,-19.16"/>
<polygon fill="#63b8ff" stroke="#63b8ff" points="430.49,-104.02 439.46,-109.66 435.97,-99.66 430.49,-104.02"/>
</a>
</g>
</g>
<!-- Node10 -->
<g id="Node000010" class="node">
<title>Node10</title>
<g id="a_Node000010"><a xlink:href="filepath_8c_source.html" target="_top" xlink:title=" ">
<polygon fill="white" stroke="#666666" points="513,-74 434,-74 434,-55 513,-55 513,-74"/>
<text text-anchor="middle" x="473.5" y="-62" font-family="Helvetica,sans-Serif" font-size="10.00">src/filepath.c</text>
</a>
</g>
</g>
<!-- Node9&#45;&gt;Node10 -->
<g id="edge12_Node000009_Node000010" class="edge">
<title>Node9&#45;&gt;Node10</title>
<g id="a_edge12_Node000009_Node000010"><a xlink:title=" ">
<path fill="none" stroke="#63b8ff" d="M455.51,-100.82C460.09,-91.82 465.45,-81.29 469.12,-74.09"/>
<polygon fill="#63b8ff" stroke="#63b8ff" points="452.38,-99.25 450.96,-109.75 458.62,-102.43 452.38,-99.25"/>
</a>
</g>
</g>
<!-- Node11&#45;&gt;Node4 -->
<g id="edge15_Node000011_Node000004" class="edge">
<title>Node11&#45;&gt;Node4</title>
<g id="a_edge15_Node000011_Node000004"><a xlink:title=" ">
<path fill="none" stroke="#63b8ff" d="M563.26,-100.71C554.09,-86.33 539.35,-66.62 521.5,-55 486.75,-32.37 440.58,-21.14 406.6,-15.63"/>
<polygon fill="#63b8ff" stroke="#63b8ff" points="560.51,-102.92 568.69,-109.65 566.49,-99.29 560.51,-102.92"/>
</a>
</g>
</g>
<!-- Node12 -->
<g id="Node000012" class="node">
<title>Node12</title>
<g id="a_Node000012"><a xlink:href="threadpool_8c_source.html" target="_top" xlink:title=" ">
<polygon fill="white" stroke="#666666" points="665,-74 570,-74 570,-55 665,-55 665,-74"/>
<text text-anchor="middle" x="617.5" y="-62" font-family="Helvetica,sans-Serif" font-size="10.00">src/threadpool.c</text>
</a>
</g>
</g>
<!-- Node11&#45;&gt;Node12 -->
<g id="edge16_Node000011_Node000012" class="edge">
<title>Node11&#45;&gt;Node12</title>
<g id="a_edge16_Node000011_Node000012"><a xlink:title=" ">
<path fill="none" stroke="#63b8ff" d="M587.23,-101.96C594.9,-92.72 604.13,-81.6 610.37,-74.09"/>
<polygon fill="#63b8ff" stroke="#63b8ff" points="584.46,-99.82 580.77,-109.75 589.85,-104.29 584.46,-99.82"/>
</a>
</g>
</g>
</g>
</svg>

<g id="navigator" transform="translate(0 0)" fill="#404254">
  <rect fill="#f2f5e9" fill-opacity="0.5" stroke="#606060" stroke-width=".5" x="0" y="0" width="60" height="60"/>
  <use id="zoomplus" xlink:href="#zoomPlus" x="17" y="9" onmousedown="handleZoom(evt,'in')"/>
  <use id="zoomminus" xlink:href="#zoomMin" x="42" y="9" onmousedown="handleZoom(evt,'out')"/>
  <use id="reset" xlink:href="#resetDef" x="30" y="36" onmousedown="handleReset()"/>
   <use id="arrowup" xlink:href="#arrowUp" x="0" y="0" onmousedown="handlePan(0,-1)"/>
  <use id="arrowright" xlink:href="#arrowRight" x="0" y="0" onmousedown="handlePan(1,0)"/>
  <use id="arrowdown" xlink:href="#arrowDown" x="0" y="0" onmousedown="handlePan(0,1)"/>
  <use id="arrowleft" xlink:href="#arrowLeft" x="0" y="0" onmousedown="handlePan(-1,0)"/>
</g>
<svg viewBox="0 0 15 15" width="100%" height="30px" preserveAspectRatio="xMaxYMin meet">
 <g id="arrow_out" transform="scale(0.3 0.3)">
  <a xlink:href="macros_8h__dep__incl_org.svg" target="_base">
   <rect id="button" ry="5" rx="5" y="6" x="6" height="38" width="38"
        fill="#f2f5e9" fill-opacity="0.5" stroke="#606060" stroke-width="1.0"/>
   <path id="arrow"
     d="M 11.500037,31.436501 C 11.940474,20.09759 22.043105,11.32322 32.158766,21.979434 L 37.068811,17.246167 C 37.068811,17.246167 37.088388,32 37.088388,32 L 22.160133,31.978069 C 22.160133,31.978069 26.997745,27.140456 26.997745,27.140456 C 18.528582,18.264221 13.291696,25.230495 11.500037,31.436501 z"
     style="fill:#404040;"/>
  </a>
 </g>
</svg>

<style type='text/css'>
<![CDATA[
[data-mouse-over-selected='false'] { opacity: 0.7; }
[data-mouse-over-selected='true']  { opacity: 1.0; }
]]>
</style>
<script type="application/ecmascript"><![CDATA[
document.addEventListener('DOMContentLoaded', (event) => {
  highlightEdges();
  highlightAdjacentNodes();
});
]]></script>
</svg>
