<?xml version="1.0" encoding="UTF-8" standalone="no"?>
<!DOCTYPE svg PUBLIC "-//W3C//DTD SVG 1.1//EN"
 "http://www.w3.org/Graphics/SVG/1.1/DTD/svg11.dtd">
<!-- Generated by graphviz version 2.43.0 (0)
 -->
<!-- Title: src/map.c Pages: 1 -->
<svg width="1031pt" height="192pt"
 viewBox="0.00 0.00 1031.00 192.00" xmlns="http://www.w3.org/2000/svg" xmlns:xlink="http://www.w3.org/1999/xlink">
<g id="graph0" class="graph" transform="scale(1 1) rotate(0) translate(4 188)">
<title>src/map.c</title>
<!-- Node1 -->
<g id="Node000001" class="node">
<title>Node1</title>
<g id="a_Node000001"><a xlink:title=" ">
<polygon fill="#999999" stroke="#666666" points="471.5,-184 407.5,-184 407.5,-165 471.5,-165 471.5,-184"/>
<text text-anchor="middle" x="439.5" y="-172" font-family="Helvetica,sans-Serif" font-size="10.00">src/map.c</text>
</a>
</g>
</g>
<!-- Node2 -->
<g id="Node000002" class="node">
<title>Node2</title>
<g id="a_Node000002"><a xlink:title=" ">
<polygon fill="#e0e0e0" stroke="#999999" points="53,-129 0,-129 0,-110 53,-110 53,-129"/>
<text text-anchor="middle" x="26.5" y="-117" font-family="Helvetica,sans-Serif" font-size="10.00">limits.h</text>
</a>
</g>
</g>
<!-- Node1&#45;&gt;Node2 -->
<g id="edge1_Node000001_Node000002" class="edge">
<title>Node1&#45;&gt;Node2</title>
<g id="a_edge1_Node000001_Node000002"><a xlink:title=" ">
<path fill="none" stroke="#63b8ff" d="M407.45,-171.05C343.64,-165.88 196.09,-152.51 63.13,-129.11"/>
<polygon fill="#63b8ff" stroke="#63b8ff" points="63.64,-125.64 53.18,-127.33 62.41,-132.53 63.64,-125.64"/>
</a>
</g>
</g>
<!-- Node3 -->
<g id="Node000003" class="node">
<title>Node3</title>
<g id="a_Node000003"><a xlink:title=" ">
<polygon fill="#e0e0e0" stroke="#999999" points="136,-129 71,-129 71,-110 136,-110 136,-129"/>
<text text-anchor="middle" x="103.5" y="-117" font-family="Helvetica,sans-Serif" font-size="10.00">stdalign.h</text>
</a>
</g>
</g>
<!-- Node1&#45;&gt;Node3 -->
<g id="edge2_Node000001_Node000003" class="edge">
<title>Node1&#45;&gt;Node3</title>
<g id="a_edge2_Node000001_Node000003"><a xlink:title=" ">
<path fill="none" stroke="#63b8ff" d="M407.38,-168.83C353.99,-161.02 243.63,-144.59 150.5,-129 149.04,-128.76 147.56,-128.51 146.07,-128.25"/>
<polygon fill="#63b8ff" stroke="#63b8ff" points="146.55,-124.78 136.1,-126.51 145.35,-131.68 146.55,-124.78"/>
</a>
</g>
</g>
<!-- Node4 -->
<g id="Node000004" class="node">
<title>Node4</title>
<g id="a_Node000004"><a xlink:title=" ">
<polygon fill="#e0e0e0" stroke="#999999" points="790.5,-19 728.5,-19 728.5,0 790.5,0 790.5,-19"/>
<text text-anchor="middle" x="759.5" y="-7" font-family="Helvetica,sans-Serif" font-size="10.00">stdbool.h</text>
</a>
</g>
</g>
<!-- Node1&#45;&gt;Node4 -->
<g id="edge3_Node000001_Node000004" class="edge">
<title>Node1&#45;&gt;Node4</title>
<g id="a_edge3_Node000001_Node000004"><a xlink:title=" ">
<path fill="none" stroke="#63b8ff" d="M471.81,-172.97C515.74,-170.93 595.48,-162.46 653.5,-129 697.18,-103.82 732.49,-54.24 749.14,-27.9"/>
<polygon fill="#63b8ff" stroke="#63b8ff" points="752.33,-29.4 754.59,-19.05 746.37,-25.73 752.33,-29.4"/>
</a>
</g>
</g>
<!-- Node5 -->
<g id="Node000005" class="node">
<title>Node5</title>
<g id="a_Node000005"><a xlink:title=" ">
<polygon fill="#e0e0e0" stroke="#999999" points="451,-19 398,-19 398,0 451,0 451,-19"/>
<text text-anchor="middle" x="424.5" y="-7" font-family="Helvetica,sans-Serif" font-size="10.00">stdint.h</text>
</a>
</g>
</g>
<!-- Node1&#45;&gt;Node5 -->
<g id="edge4_Node000001_Node000005" class="edge">
<title>Node1&#45;&gt;Node5</title>
<g id="a_edge4_Node000001_Node000005"><a xlink:title=" ">
<path fill="none" stroke="#63b8ff" d="M407.17,-172.25C346.9,-169.22 220.85,-159.34 191.5,-129 174.32,-111.25 185.28,-98.64 183.5,-74 182.89,-65.58 178.1,-61.49 183.5,-55 208.98,-24.38 326.13,-14.75 387.21,-11.78"/>
<polygon fill="#63b8ff" stroke="#63b8ff" points="387.74,-15.26 397.58,-11.31 387.43,-8.27 387.74,-15.26"/>
</a>
</g>
</g>
<!-- Node6 -->
<g id="Node000006" class="node">
<title>Node6</title>
<g id="a_Node000006"><a xlink:title=" ">
<polygon fill="#e0e0e0" stroke="#999999" points="324.5,-74 274.5,-74 274.5,-55 324.5,-55 324.5,-74"/>
<text text-anchor="middle" x="299.5" y="-62" font-family="Helvetica,sans-Serif" font-size="10.00">stdio.h</text>
</a>
</g>
</g>
<!-- Node1&#45;&gt;Node6 -->
<g id="edge5_Node000001_Node000006" class="edge">
<title>Node1&#45;&gt;Node6</title>
<g id="a_edge5_Node000001_Node000006"><a xlink:title=" ">
<path fill="none" stroke="#63b8ff" d="M428.04,-164.66C404.03,-146.14 348.21,-103.08 318.65,-80.28"/>
<polygon fill="#63b8ff" stroke="#63b8ff" points="320.78,-77.5 310.72,-74.16 316.5,-83.04 320.78,-77.5"/>
</a>
</g>
</g>
<!-- Node7 -->
<g id="Node000007" class="node">
<title>Node7</title>
<g id="a_Node000007"><a xlink:title=" ">
<polygon fill="#e0e0e0" stroke="#999999" points="710,-19 657,-19 657,0 710,0 710,-19"/>
<text text-anchor="middle" x="683.5" y="-7" font-family="Helvetica,sans-Serif" font-size="10.00">stdlib.h</text>
</a>
</g>
</g>
<!-- Node1&#45;&gt;Node7 -->
<g id="edge6_Node000001_Node000007" class="edge">
<title>Node1&#45;&gt;Node7</title>
<g id="a_edge6_Node000001_Node000007"><a xlink:title=" ">
<path fill="none" stroke="#63b8ff" d="M471.63,-171.69C526.99,-166.61 638.97,-147.32 686.5,-74 695.12,-60.7 693.13,-42.34 689.71,-28.78"/>
<polygon fill="#63b8ff" stroke="#63b8ff" points="693.05,-27.72 686.85,-19.13 686.34,-29.71 693.05,-27.72"/>
</a>
</g>
</g>
<!-- Node8 -->
<g id="Node000008" class="node">
<title>Node8</title>
<g id="a_Node000008"><a xlink:title=" ">
<polygon fill="#e0e0e0" stroke="#999999" points="396,-74 343,-74 343,-55 396,-55 396,-74"/>
<text text-anchor="middle" x="369.5" y="-62" font-family="Helvetica,sans-Serif" font-size="10.00">string.h</text>
</a>
</g>
</g>
<!-- Node1&#45;&gt;Node8 -->
<g id="edge7_Node000001_Node000008" class="edge">
<title>Node1&#45;&gt;Node8</title>
<g id="a_edge7_Node000001_Node000008"><a xlink:title=" ">
<path fill="none" stroke="#63b8ff" d="M433.77,-164.66C422.18,-146.77 395.75,-106 380.64,-82.69"/>
<polygon fill="#63b8ff" stroke="#63b8ff" points="383.49,-80.65 375.11,-74.16 377.61,-84.45 383.49,-80.65"/>
</a>
</g>
</g>
<!-- Node9 -->
<g id="Node000009" class="node">
<title>Node9</title>
<g id="a_Node000009"><a xlink:href="cmp_8h.html" target="_top" xlink:title="Floating&#45;point comparison library for precise and robust comparisons.">
<polygon fill="white" stroke="#666666" points="658.5,-74 564.5,-74 564.5,-55 658.5,-55 658.5,-74"/>
<text text-anchor="middle" x="611.5" y="-62" font-family="Helvetica,sans-Serif" font-size="10.00">../include/cmp.h</text>
</a>
</g>
</g>
<!-- Node1&#45;&gt;Node9 -->
<g id="edge8_Node000001_Node000009" class="edge">
<title>Node1&#45;&gt;Node9</title>
<g id="a_edge8_Node000001_Node000009"><a xlink:title=" ">
<path fill="none" stroke="#63b8ff" d="M463.02,-165C483.49,-157.1 513.55,-144.27 537.5,-129 559.22,-115.15 581.26,-95.34 595.57,-81.54"/>
<polygon fill="#63b8ff" stroke="#63b8ff" points="598.36,-83.7 603.04,-74.2 593.45,-78.71 598.36,-83.7"/>
</a>
</g>
</g>
<!-- Node12 -->
<g id="Node000012" class="node">
<title>Node12</title>
<g id="a_Node000012"><a xlink:href="lock_8h.html" target="_top" xlink:title="Cross&#45;platform mutex and condition variable wrapper.">
<polygon fill="white" stroke="#666666" points="293,-129 200,-129 200,-110 293,-110 293,-129"/>
<text text-anchor="middle" x="246.5" y="-117" font-family="Helvetica,sans-Serif" font-size="10.00">../include/lock.h</text>
</a>
</g>
</g>
<!-- Node1&#45;&gt;Node12 -->
<g id="edge14_Node000001_Node000012" class="edge">
<title>Node1&#45;&gt;Node12</title>
<g id="a_edge14_Node000001_Node000012"><a xlink:title=" ">
<path fill="none" stroke="#63b8ff" d="M408.49,-164.98C375.67,-155.97 323.7,-141.7 287.51,-131.76"/>
<polygon fill="#63b8ff" stroke="#63b8ff" points="288.32,-128.36 277.75,-129.08 286.47,-135.11 288.32,-128.36"/>
</a>
</g>
</g>
<!-- Node14 -->
<g id="Node000014" class="node">
<title>Node14</title>
<g id="a_Node000014"><a xlink:href="map_8h.html" target="_top" xlink:title="Generic hash map implementation with customizable hashing and load balancing.">
<polygon fill="white" stroke="#666666" points="528,-129 433,-129 433,-110 528,-110 528,-129"/>
<text text-anchor="middle" x="480.5" y="-117" font-family="Helvetica,sans-Serif" font-size="10.00">../include/map.h</text>
</a>
</g>
</g>
<!-- Node1&#45;&gt;Node14 -->
<g id="edge16_Node000001_Node000014" class="edge">
<title>Node1&#45;&gt;Node14</title>
<g id="a_edge16_Node000001_Node000014"><a xlink:title=" ">
<path fill="none" stroke="#63b8ff" d="M446.27,-164.75C452.06,-157.26 460.56,-146.28 467.64,-137.13"/>
<polygon fill="#63b8ff" stroke="#63b8ff" points="470.51,-139.14 473.86,-129.09 464.97,-134.86 470.51,-139.14"/>
</a>
</g>
</g>
<!-- Node16 -->
<g id="Node000016" class="node">
<title>Node16</title>
<g id="a_Node000016"><a xlink:href="platform_8h.html" target="_top" xlink:title="Cross&#45;platform compatibility definitions.">
<polygon fill="white" stroke="#666666" points="944,-129 829,-129 829,-110 944,-110 944,-129"/>
<text text-anchor="middle" x="886.5" y="-117" font-family="Helvetica,sans-Serif" font-size="10.00">../include/platform.h</text>
</a>
</g>
</g>
<!-- Node1&#45;&gt;Node16 -->
<g id="edge25_Node000001_Node000016" class="edge">
<title>Node1&#45;&gt;Node16</title>
<g id="a_edge25_Node000001_Node000016"><a xlink:title=" ">
<path fill="none" stroke="#63b8ff" d="M471.65,-169.69C543.96,-161.11 720.72,-140.16 818.57,-128.55"/>
<polygon fill="#63b8ff" stroke="#63b8ff" points="819.13,-132.01 828.65,-127.36 818.31,-125.06 819.13,-132.01"/>
</a>
</g>
</g>
<!-- Node18 -->
<g id="Node000018" class="node">
<title>Node18</title>
<g id="a_Node000018"><a xlink:title=" ">
<polygon fill="#e0e0e0" stroke="#999999" points="1023,-129 962,-129 962,-110 1023,-110 1023,-129"/>
<text text-anchor="middle" x="992.5" y="-117" font-family="Helvetica,sans-Serif" font-size="10.00">xxhash.h</text>
</a>
</g>
</g>
<!-- Node1&#45;&gt;Node18 -->
<g id="edge27_Node000001_Node000018" class="edge">
<title>Node1&#45;&gt;Node18</title>
<g id="a_edge27_Node000001_Node000018"><a xlink:title=" ">
<path fill="none" stroke="#63b8ff" d="M471.55,-172.16C551.21,-168.51 764.72,-156.88 951.89,-129.06"/>
<polygon fill="#63b8ff" stroke="#63b8ff" points="952.54,-132.5 961.91,-127.55 951.5,-125.58 952.54,-132.5"/>
</a>
</g>
</g>
<!-- Node9&#45;&gt;Node4 -->
<g id="edge11_Node000009_Node000004" class="edge">
<title>Node9&#45;&gt;Node4</title>
<g id="a_edge11_Node000009_Node000004"><a xlink:title=" ">
<path fill="none" stroke="#63b8ff" d="M635.28,-54.98C659.73,-46.23 698.03,-32.51 725.65,-22.62"/>
<polygon fill="#63b8ff" stroke="#63b8ff" points="727.05,-25.84 735.29,-19.17 724.69,-19.25 727.05,-25.84"/>
</a>
</g>
</g>
<!-- Node9&#45;&gt;Node5 -->
<g id="edge12_Node000009_Node000005" class="edge">
<title>Node9&#45;&gt;Node5</title>
<g id="a_edge12_Node000009_Node000005"><a xlink:title=" ">
<path fill="none" stroke="#63b8ff" d="M581.46,-54.98C548.66,-45.69 496.15,-30.81 461,-20.85"/>
<polygon fill="#63b8ff" stroke="#63b8ff" points="461.71,-17.41 451.14,-18.05 459.81,-24.14 461.71,-17.41"/>
</a>
</g>
</g>
<!-- Node9&#45;&gt;Node7 -->
<g id="edge13_Node000009_Node000007" class="edge">
<title>Node9&#45;&gt;Node7</title>
<g id="a_edge13_Node000009_Node000007"><a xlink:title=" ">
<path fill="none" stroke="#63b8ff" d="M623.07,-54.98C633.92,-47 650.38,-34.88 663.38,-25.31"/>
<polygon fill="#63b8ff" stroke="#63b8ff" points="665.74,-27.92 671.72,-19.17 661.59,-22.28 665.74,-27.92"/>
</a>
</g>
</g>
<!-- Node10 -->
<g id="Node000010" class="node">
<title>Node10</title>
<g id="a_Node000010"><a xlink:title=" ">
<polygon fill="#e0e0e0" stroke="#999999" points="564,-19 517,-19 517,0 564,0 564,-19"/>
<text text-anchor="middle" x="540.5" y="-7" font-family="Helvetica,sans-Serif" font-size="10.00">float.h</text>
</a>
</g>
</g>
<!-- Node9&#45;&gt;Node10 -->
<g id="edge9_Node000009_Node000010" class="edge">
<title>Node9&#45;&gt;Node10</title>
<g id="a_edge9_Node000009_Node000010"><a xlink:title=" ">
<path fill="none" stroke="#63b8ff" d="M600.09,-54.98C589.39,-47 573.16,-34.88 560.34,-25.31"/>
<polygon fill="#63b8ff" stroke="#63b8ff" points="562.22,-22.35 552.11,-19.17 558.03,-27.96 562.22,-22.35"/>
</a>
</g>
</g>
<!-- Node11 -->
<g id="Node000011" class="node">
<title>Node11</title>
<g id="a_Node000011"><a xlink:title=" ">
<polygon fill="#e0e0e0" stroke="#999999" points="637,-19 586,-19 586,0 637,0 637,-19"/>
<text text-anchor="middle" x="611.5" y="-7" font-family="Helvetica,sans-Serif" font-size="10.00">math.h</text>
</a>
</g>
</g>
<!-- Node9&#45;&gt;Node11 -->
<g id="edge10_Node000009_Node000011" class="edge">
<title>Node9&#45;&gt;Node11</title>
<g id="a_edge10_Node000009_Node000011"><a xlink:title=" ">
<path fill="none" stroke="#63b8ff" d="M611.5,-54.75C611.5,-47.8 611.5,-37.85 611.5,-29.13"/>
<polygon fill="#63b8ff" stroke="#63b8ff" points="615,-29.09 611.5,-19.09 608,-29.09 615,-29.09"/>
</a>
</g>
</g>
<!-- Node13 -->
<g id="Node000013" class="node">
<title>Node13</title>
<g id="a_Node000013"><a xlink:title=" ">
<polygon fill="#e0e0e0" stroke="#999999" points="256,-74 193,-74 193,-55 256,-55 256,-74"/>
<text text-anchor="middle" x="224.5" y="-62" font-family="Helvetica,sans-Serif" font-size="10.00">pthread.h</text>
</a>
</g>
</g>
<!-- Node12&#45;&gt;Node13 -->
<g id="edge15_Node000012_Node000013" class="edge">
<title>Node12&#45;&gt;Node13</title>
<g id="a_edge15_Node000012_Node000013"><a xlink:title=" ">
<path fill="none" stroke="#63b8ff" d="M242.87,-109.75C239.92,-102.65 235.67,-92.4 231.99,-83.56"/>
<polygon fill="#63b8ff" stroke="#63b8ff" points="235.13,-81.98 228.07,-74.09 228.67,-84.67 235.13,-81.98"/>
</a>
</g>
</g>
<!-- Node14&#45;&gt;Node4 -->
<g id="edge19_Node000014_Node000004" class="edge">
<title>Node14&#45;&gt;Node4</title>
<g id="a_edge19_Node000014_Node000004"><a xlink:title=" ">
<path fill="none" stroke="#63b8ff" d="M528.13,-115C571.39,-110.28 635.96,-99.32 686.5,-74 709.85,-62.3 731.77,-41.39 745.38,-26.77"/>
<polygon fill="#63b8ff" stroke="#63b8ff" points="748.28,-28.78 752.38,-19.01 743.08,-24.09 748.28,-28.78"/>
</a>
</g>
</g>
<!-- Node14&#45;&gt;Node5 -->
<g id="edge21_Node000014_Node000005" class="edge">
<title>Node14&#45;&gt;Node5</title>
<g id="a_edge21_Node000014_Node000005"><a xlink:title=" ">
<path fill="none" stroke="#63b8ff" d="M471.36,-109.76C463.03,-101.32 450.91,-87.81 443.5,-74 435.93,-59.88 430.97,-42.34 428.03,-29.27"/>
<polygon fill="#63b8ff" stroke="#63b8ff" points="431.39,-28.23 425.94,-19.14 424.53,-29.64 431.39,-28.23"/>
</a>
</g>
</g>
<!-- Node14&#45;&gt;Node6 -->
<g id="edge22_Node000014_Node000006" class="edge">
<title>Node14&#45;&gt;Node6</title>
<g id="a_edge22_Node000014_Node000006"><a xlink:title=" ">
<path fill="none" stroke="#63b8ff" d="M451.42,-109.98C419.63,-100.68 368.7,-85.76 334.69,-75.8"/>
<polygon fill="#63b8ff" stroke="#63b8ff" points="335.29,-72.33 324.71,-72.88 333.33,-79.05 335.29,-72.33"/>
</a>
</g>
</g>
<!-- Node14&#45;&gt;Node7 -->
<g id="edge23_Node000014_Node000007" class="edge">
<title>Node14&#45;&gt;Node7</title>
<g id="a_edge23_Node000014_Node000007"><a xlink:title=" ">
<path fill="none" stroke="#63b8ff" d="M528.05,-112.84C576.76,-106.08 648.02,-93.22 667.5,-74 679.25,-62.41 682.82,-43.54 683.71,-29.38"/>
<polygon fill="#63b8ff" stroke="#63b8ff" points="687.21,-29.34 683.95,-19.26 680.21,-29.17 687.21,-29.34"/>
</a>
</g>
</g>
<!-- Node14&#45;&gt;Node8 -->
<g id="edge24_Node000014_Node000008" class="edge">
<title>Node14&#45;&gt;Node8</title>
<g id="a_edge24_Node000014_Node000008"><a xlink:title=" ">
<path fill="none" stroke="#63b8ff" d="M462.67,-109.98C444.89,-101.5 417.35,-88.35 396.82,-78.54"/>
<polygon fill="#63b8ff" stroke="#63b8ff" points="398.19,-75.32 387.66,-74.17 395.17,-81.64 398.19,-75.32"/>
</a>
</g>
</g>
<!-- Node14&#45;&gt;Node9 -->
<g id="edge17_Node000014_Node000009" class="edge">
<title>Node14&#45;&gt;Node9</title>
<g id="a_edge17_Node000014_Node000009"><a xlink:title=" ">
<path fill="none" stroke="#63b8ff" d="M501.55,-109.98C522.91,-101.34 556.2,-87.87 580.56,-78.02"/>
<polygon fill="#63b8ff" stroke="#63b8ff" points="582.11,-81.17 590.07,-74.17 579.49,-74.68 582.11,-81.17"/>
</a>
</g>
</g>
<!-- Node14&#45;&gt;Node10 -->
<g id="edge18_Node000014_Node000010" class="edge">
<title>Node14&#45;&gt;Node10</title>
<g id="a_edge18_Node000014_Node000010"><a xlink:title=" ">
<path fill="none" stroke="#63b8ff" d="M489.14,-109.98C497.36,-101.5 509.6,-87.77 517.5,-74 525.7,-59.7 531.83,-41.95 535.69,-28.85"/>
<polygon fill="#63b8ff" stroke="#63b8ff" points="539.09,-29.7 538.4,-19.13 532.35,-27.82 539.09,-29.7"/>
</a>
</g>
</g>
<!-- Node15 -->
<g id="Node000015" class="node">
<title>Node15</title>
<g id="a_Node000015"><a xlink:title=" ">
<polygon fill="#e0e0e0" stroke="#999999" points="508.5,-74 452.5,-74 452.5,-55 508.5,-55 508.5,-74"/>
<text text-anchor="middle" x="480.5" y="-62" font-family="Helvetica,sans-Serif" font-size="10.00">stddef.h</text>
</a>
</g>
</g>
<!-- Node14&#45;&gt;Node15 -->
<g id="edge20_Node000014_Node000015" class="edge">
<title>Node14&#45;&gt;Node15</title>
<g id="a_edge20_Node000014_Node000015"><a xlink:title=" ">
<path fill="none" stroke="#63b8ff" d="M480.5,-109.75C480.5,-102.8 480.5,-92.85 480.5,-84.13"/>
<polygon fill="#63b8ff" stroke="#63b8ff" points="484,-84.09 480.5,-74.09 477,-84.09 484,-84.09"/>
</a>
</g>
</g>
<!-- Node17 -->
<g id="Node000017" class="node">
<title>Node17</title>
<g id="a_Node000017"><a xlink:title=" ">
<polygon fill="#e0e0e0" stroke="#999999" points="922.5,-74 850.5,-74 850.5,-55 922.5,-55 922.5,-74"/>
<text text-anchor="middle" x="886.5" y="-62" font-family="Helvetica,sans-Serif" font-size="10.00">sys/types.h</text>
</a>
</g>
</g>
<!-- Node16&#45;&gt;Node17 -->
<g id="edge26_Node000016_Node000017" class="edge">
<title>Node16&#45;&gt;Node17</title>
<g id="a_edge26_Node000016_Node000017"><a xlink:title=" ">
<path fill="none" stroke="#63b8ff" d="M886.5,-109.75C886.5,-102.8 886.5,-92.85 886.5,-84.13"/>
<polygon fill="#63b8ff" stroke="#63b8ff" points="890,-84.09 886.5,-74.09 883,-84.09 890,-84.09"/>
</a>
</g>
</g>
</g>
</svg>
