<?xml version="1.0" encoding="UTF-8" standalone="no"?>
<!DOCTYPE svg PUBLIC "-//W3C//DTD SVG 1.1//EN"
 "http://www.w3.org/Graphics/SVG/1.1/DTD/svg11.dtd">
<!-- Generated by graphviz version 2.43.0 (0)
 -->
<!-- Title: include/map.h Pages: 1 -->
<svg width="496pt" height="137pt"
 viewBox="0.00 0.00 496.00 137.00" xmlns="http://www.w3.org/2000/svg" xmlns:xlink="http://www.w3.org/1999/xlink">
<g id="graph0" class="graph" transform="scale(1 1) rotate(0) translate(4 133)">
<title>include/map.h</title>
<!-- Node1 -->
<g id="Node000001" class="node">
<title>Node1</title>
<g id="a_Node000001"><a xlink:title="Generic hash map implementation with customizable hashing and load balancing.">
<polygon fill="#999999" stroke="#666666" points="288.5,-129 202.5,-129 202.5,-110 288.5,-110 288.5,-129"/>
<text text-anchor="middle" x="245.5" y="-117" font-family="Helvetica,sans-Serif" font-size="10.00">include/map.h</text>
</a>
</g>
</g>
<!-- Node2 -->
<g id="Node000002" class="node">
<title>Node2</title>
<g id="a_Node000002"><a xlink:href="cmp_8h.html" target="_top" xlink:title="Floating&#45;point comparison library for precise and robust comparisons.">
<polygon fill="white" stroke="#666666" points="198,-74 145,-74 145,-55 198,-55 198,-74"/>
<text text-anchor="middle" x="171.5" y="-62" font-family="Helvetica,sans-Serif" font-size="10.00">./cmp.h</text>
</a>
</g>
</g>
<!-- Node1&#45;&gt;Node2 -->
<g id="edge1_Node000001_Node000002" class="edge">
<title>Node1&#45;&gt;Node2</title>
<g id="a_edge1_Node000001_Node000002"><a xlink:title=" ">
<path fill="none" stroke="#63b8ff" d="M233.61,-109.98C222.35,-101.92 205.21,-89.65 191.79,-80.03"/>
<polygon fill="#63b8ff" stroke="#63b8ff" points="193.77,-77.15 183.61,-74.17 189.7,-82.84 193.77,-77.15"/>
</a>
</g>
</g>
<!-- Node3 -->
<g id="Node000003" class="node">
<title>Node3</title>
<g id="a_Node000003"><a xlink:title=" ">
<polygon fill="#e0e0e0" stroke="#999999" points="47,-19 0,-19 0,0 47,0 47,-19"/>
<text text-anchor="middle" x="23.5" y="-7" font-family="Helvetica,sans-Serif" font-size="10.00">float.h</text>
</a>
</g>
</g>
<!-- Node1&#45;&gt;Node3 -->
<g id="edge7_Node000001_Node000003" class="edge">
<title>Node1&#45;&gt;Node3</title>
<g id="a_edge7_Node000001_Node000003"><a xlink:title=" ">
<path fill="none" stroke="#63b8ff" d="M212.72,-109.99C185.81,-102.37 147.13,-89.95 115.5,-74 88.25,-60.26 59.76,-39.44 41.84,-25.42"/>
<polygon fill="#63b8ff" stroke="#63b8ff" points="43.95,-22.63 33.94,-19.15 39.59,-28.11 43.95,-22.63"/>
</a>
</g>
</g>
<!-- Node5 -->
<g id="Node000005" class="node">
<title>Node5</title>
<g id="a_Node000005"><a xlink:title=" ">
<polygon fill="#e0e0e0" stroke="#999999" points="127.5,-19 65.5,-19 65.5,0 127.5,0 127.5,-19"/>
<text text-anchor="middle" x="96.5" y="-7" font-family="Helvetica,sans-Serif" font-size="10.00">stdbool.h</text>
</a>
</g>
</g>
<!-- Node1&#45;&gt;Node5 -->
<g id="edge8_Node000001_Node000005" class="edge">
<title>Node1&#45;&gt;Node5</title>
<g id="a_edge8_Node000001_Node000005"><a xlink:title=" ">
<path fill="none" stroke="#63b8ff" d="M208.72,-109.96C185.72,-103.19 156.57,-91.83 135.5,-74 121.02,-61.75 110.33,-42.7 103.84,-28.66"/>
<polygon fill="#63b8ff" stroke="#63b8ff" points="106.89,-26.88 99.71,-19.09 100.46,-29.66 106.89,-26.88"/>
</a>
</g>
</g>
<!-- Node6 -->
<g id="Node000006" class="node">
<title>Node6</title>
<g id="a_Node000006"><a xlink:title=" ">
<polygon fill="#e0e0e0" stroke="#999999" points="268,-19 215,-19 215,0 268,0 268,-19"/>
<text text-anchor="middle" x="241.5" y="-7" font-family="Helvetica,sans-Serif" font-size="10.00">stdint.h</text>
</a>
</g>
</g>
<!-- Node1&#45;&gt;Node6 -->
<g id="edge10_Node000001_Node000006" class="edge">
<title>Node1&#45;&gt;Node6</title>
<g id="a_edge10_Node000001_Node000006"><a xlink:title=" ">
<path fill="none" stroke="#63b8ff" d="M245.17,-109.66C244.52,-92.17 243.07,-52.8 242.2,-29.27"/>
<polygon fill="#63b8ff" stroke="#63b8ff" points="245.69,-29.02 241.82,-19.16 238.69,-29.28 245.69,-29.02"/>
</a>
</g>
</g>
<!-- Node7 -->
<g id="Node000007" class="node">
<title>Node7</title>
<g id="a_Node000007"><a xlink:title=" ">
<polygon fill="#e0e0e0" stroke="#999999" points="339,-19 286,-19 286,0 339,0 339,-19"/>
<text text-anchor="middle" x="312.5" y="-7" font-family="Helvetica,sans-Serif" font-size="10.00">stdlib.h</text>
</a>
</g>
</g>
<!-- Node1&#45;&gt;Node7 -->
<g id="edge12_Node000001_Node000007" class="edge">
<title>Node1&#45;&gt;Node7</title>
<g id="a_edge12_Node000001_Node000007"><a xlink:title=" ">
<path fill="none" stroke="#63b8ff" d="M250.56,-109.81C257.74,-97.52 271.38,-74.39 283.5,-55 289.18,-45.91 295.68,-35.9 301.09,-27.68"/>
<polygon fill="#63b8ff" stroke="#63b8ff" points="304.03,-29.57 306.62,-19.3 298.19,-25.71 304.03,-29.57"/>
</a>
</g>
</g>
<!-- Node8 -->
<g id="Node000008" class="node">
<title>Node8</title>
<g id="a_Node000008"><a xlink:title=" ">
<polygon fill="#e0e0e0" stroke="#999999" points="348.5,-74 292.5,-74 292.5,-55 348.5,-55 348.5,-74"/>
<text text-anchor="middle" x="320.5" y="-62" font-family="Helvetica,sans-Serif" font-size="10.00">stddef.h</text>
</a>
</g>
</g>
<!-- Node1&#45;&gt;Node8 -->
<g id="edge9_Node000001_Node000008" class="edge">
<title>Node1&#45;&gt;Node8</title>
<g id="a_edge9_Node000001_Node000008"><a xlink:title=" ">
<path fill="none" stroke="#63b8ff" d="M257.55,-109.98C268.96,-101.92 286.33,-89.65 299.93,-80.03"/>
<polygon fill="#63b8ff" stroke="#63b8ff" points="302.08,-82.8 308.23,-74.17 298.04,-77.08 302.08,-82.8"/>
</a>
</g>
</g>
<!-- Node9 -->
<g id="Node000009" class="node">
<title>Node9</title>
<g id="a_Node000009"><a xlink:title=" ">
<polygon fill="#e0e0e0" stroke="#999999" points="416.5,-74 366.5,-74 366.5,-55 416.5,-55 416.5,-74"/>
<text text-anchor="middle" x="391.5" y="-62" font-family="Helvetica,sans-Serif" font-size="10.00">stdio.h</text>
</a>
</g>
</g>
<!-- Node1&#45;&gt;Node9 -->
<g id="edge11_Node000001_Node000009" class="edge">
<title>Node1&#45;&gt;Node9</title>
<g id="a_edge11_Node000001_Node000009"><a xlink:title=" ">
<path fill="none" stroke="#63b8ff" d="M268.96,-109.98C293.08,-101.23 330.87,-87.51 358.1,-77.62"/>
<polygon fill="#63b8ff" stroke="#63b8ff" points="359.41,-80.87 367.62,-74.17 357.02,-74.29 359.41,-80.87"/>
</a>
</g>
</g>
<!-- Node10 -->
<g id="Node000010" class="node">
<title>Node10</title>
<g id="a_Node000010"><a xlink:title=" ">
<polygon fill="#e0e0e0" stroke="#999999" points="488,-74 435,-74 435,-55 488,-55 488,-74"/>
<text text-anchor="middle" x="461.5" y="-62" font-family="Helvetica,sans-Serif" font-size="10.00">string.h</text>
</a>
</g>
</g>
<!-- Node1&#45;&gt;Node10 -->
<g id="edge13_Node000001_Node000010" class="edge">
<title>Node1&#45;&gt;Node10</title>
<g id="a_edge13_Node000001_Node000010"><a xlink:title=" ">
<path fill="none" stroke="#63b8ff" d="M280.2,-109.98C319.89,-100.25 384.58,-84.37 425,-74.46"/>
<polygon fill="#63b8ff" stroke="#63b8ff" points="425.85,-77.85 434.73,-72.07 424.18,-71.05 425.85,-77.85"/>
</a>
</g>
</g>
<!-- Node2&#45;&gt;Node3 -->
<g id="edge2_Node000002_Node000003" class="edge">
<title>Node2&#45;&gt;Node3</title>
<g id="a_edge2_Node000002_Node000003"><a xlink:title=" ">
<path fill="none" stroke="#63b8ff" d="M147.72,-54.98C123.12,-46.18 84.51,-32.35 56.86,-22.45"/>
<polygon fill="#63b8ff" stroke="#63b8ff" points="57.81,-19.07 47.22,-18.99 55.45,-25.66 57.81,-19.07"/>
</a>
</g>
</g>
<!-- Node4 -->
<g id="Node000004" class="node">
<title>Node4</title>
<g id="a_Node000004"><a xlink:title=" ">
<polygon fill="#e0e0e0" stroke="#999999" points="197,-19 146,-19 146,0 197,0 197,-19"/>
<text text-anchor="middle" x="171.5" y="-7" font-family="Helvetica,sans-Serif" font-size="10.00">math.h</text>
</a>
</g>
</g>
<!-- Node2&#45;&gt;Node4 -->
<g id="edge3_Node000002_Node000004" class="edge">
<title>Node2&#45;&gt;Node4</title>
<g id="a_edge3_Node000002_Node000004"><a xlink:title=" ">
<path fill="none" stroke="#63b8ff" d="M171.5,-54.75C171.5,-47.8 171.5,-37.85 171.5,-29.13"/>
<polygon fill="#63b8ff" stroke="#63b8ff" points="175,-29.09 171.5,-19.09 168,-29.09 175,-29.09"/>
</a>
</g>
</g>
<!-- Node2&#45;&gt;Node5 -->
<g id="edge4_Node000002_Node000005" class="edge">
<title>Node2&#45;&gt;Node5</title>
<g id="a_edge4_Node000002_Node000005"><a xlink:title=" ">
<path fill="none" stroke="#63b8ff" d="M159.45,-54.98C148.04,-46.92 130.67,-34.65 117.07,-25.03"/>
<polygon fill="#63b8ff" stroke="#63b8ff" points="118.96,-22.08 108.77,-19.17 114.92,-27.8 118.96,-22.08"/>
</a>
</g>
</g>
<!-- Node2&#45;&gt;Node6 -->
<g id="edge5_Node000002_Node000006" class="edge">
<title>Node2&#45;&gt;Node6</title>
<g id="a_edge5_Node000002_Node000006"><a xlink:title=" ">
<path fill="none" stroke="#63b8ff" d="M182.75,-54.98C193.3,-47 209.3,-34.88 221.94,-25.31"/>
<polygon fill="#63b8ff" stroke="#63b8ff" points="224.19,-28 230.05,-19.17 219.96,-22.42 224.19,-28"/>
</a>
</g>
</g>
<!-- Node2&#45;&gt;Node7 -->
<g id="edge6_Node000002_Node000007" class="edge">
<title>Node2&#45;&gt;Node7</title>
<g id="a_edge6_Node000002_Node000007"><a xlink:title=" ">
<path fill="none" stroke="#63b8ff" d="M194.15,-54.98C217.35,-46.27 253.62,-32.63 279.9,-22.75"/>
<polygon fill="#63b8ff" stroke="#63b8ff" points="281.3,-25.97 289.43,-19.17 278.84,-19.41 281.3,-25.97"/>
</a>
</g>
</g>
</g>
</svg>
