<?xml version="1.0" encoding="UTF-8" standalone="no"?>
<!DOCTYPE svg PUBLIC "-//W3C//DTD SVG 1.1//EN"
 "http://www.w3.org/Graphics/SVG/1.1/DTD/svg11.dtd">
<!-- Generated by graphviz version 2.43.0 (0)
 -->
<!-- Title: include/matrix.h Pages: 1 -->
<svg width="387pt" height="192pt"
 viewBox="0.00 0.00 387.00 192.00" xmlns="http://www.w3.org/2000/svg" xmlns:xlink="http://www.w3.org/1999/xlink">

<svg id="main" version="1.1" xmlns="http://www.w3.org/2000/svg" xmlns:xlink="http://www.w3.org/1999/xlink" xml:space="preserve" onload="init(evt)">
<style type="text/css"><![CDATA[
.node, .edge {opacity: 0.7;}
.node.selected, .edge.selected {opacity: 1;}
.edge:hover path { stroke: red; }
.edge:hover polygon { stroke: red; fill: red; }
]]></style>
<script type="application/ecmascript" xlink:href="svg.min.js"/>
<svg id="graph" class="graph">
<g id="graph0" class="graph" transform="scale(1 1) rotate(0) translate(4 188)">
<title>include/matrix.h</title>
<!-- Node1 -->
<g id="Node000001" class="node">
<title>Node1</title>
<g id="a_Node000001"><a xlink:title="Matrix operations and mathematical utilities.">
<polygon fill="#999999" stroke="#666666" points="286.5,-184 190.5,-184 190.5,-165 286.5,-165 286.5,-184"/>
<text text-anchor="middle" x="238.5" y="-172" font-family="Helvetica,sans-Serif" font-size="10.00">include/matrix.h</text>
</a>
</g>
</g>
<!-- Node2 -->
<g id="Node000002" class="node">
<title>Node2</title>
<g id="a_Node000002"><a xlink:href="vec_8h_source.html" target="_top" xlink:title=" ">
<polygon fill="white" stroke="#666666" points="196,-129 153,-129 153,-110 196,-110 196,-129"/>
<text text-anchor="middle" x="174.5" y="-117" font-family="Helvetica,sans-Serif" font-size="10.00">vec.h</text>
</a>
</g>
</g>
<!-- Node1&#45;&gt;Node2 -->
<g id="edge1_Node000001_Node000002" class="edge">
<title>Node1&#45;&gt;Node2</title>
<g id="a_edge1_Node000001_Node000002"><a xlink:title=" ">
<path fill="none" stroke="#63b8ff" d="M228.22,-164.98C218.66,-157.07 204.22,-145.11 192.72,-135.58"/>
<polygon fill="#63b8ff" stroke="#63b8ff" points="194.9,-132.85 184.97,-129.17 190.44,-138.24 194.9,-132.85"/>
</a>
</g>
</g>
<!-- Node3 -->
<g id="Node000003" class="node">
<title>Node3</title>
<g id="a_Node000003"><a xlink:title=" ">
<polygon fill="#e0e0e0" stroke="#999999" points="55.5,-74 5.5,-74 5.5,-55 55.5,-55 55.5,-74"/>
<text text-anchor="middle" x="30.5" y="-62" font-family="Helvetica,sans-Serif" font-size="10.00">stdio.h</text>
</a>
</g>
</g>
<!-- Node1&#45;&gt;Node3 -->
<g id="edge15_Node000001_Node000003" class="edge">
<title>Node1&#45;&gt;Node3</title>
<g id="a_edge15_Node000001_Node000003"><a xlink:title=" ">
<path fill="none" stroke="#63b8ff" d="M219.6,-165C200.49,-156.3 170.19,-142.22 144.5,-129 112.63,-112.6 76.61,-92.22 53.75,-79.04"/>
<polygon fill="#63b8ff" stroke="#63b8ff" points="55.5,-76.01 45.09,-74.03 51.99,-82.07 55.5,-76.01"/>
</a>
</g>
</g>
<!-- Node7 -->
<g id="Node000007" class="node">
<title>Node7</title>
<g id="a_Node000007"><a xlink:title=" ">
<polygon fill="#e0e0e0" stroke="#999999" points="342.5,-19 280.5,-19 280.5,0 342.5,0 342.5,-19"/>
<text text-anchor="middle" x="311.5" y="-7" font-family="Helvetica,sans-Serif" font-size="10.00">stdbool.h</text>
</a>
</g>
</g>
<!-- Node1&#45;&gt;Node7 -->
<g id="edge14_Node000001_Node000007" class="edge">
<title>Node1&#45;&gt;Node7</title>
<g id="a_edge14_Node000001_Node000007"><a xlink:title=" ">
<path fill="none" stroke="#63b8ff" d="M242.42,-164.74C253.91,-139.09 287.64,-63.78 303.31,-28.78"/>
<polygon fill="#63b8ff" stroke="#63b8ff" points="306.66,-29.86 307.56,-19.31 300.27,-27 306.66,-29.86"/>
</a>
</g>
</g>
<!-- Node10 -->
<g id="Node000010" class="node">
<title>Node10</title>
<g id="a_Node000010"><a xlink:title=" ">
<polygon fill="#e0e0e0" stroke="#999999" points="379,-129 332,-129 332,-110 379,-110 379,-129"/>
<text text-anchor="middle" x="355.5" y="-117" font-family="Helvetica,sans-Serif" font-size="10.00">float.h</text>
</a>
</g>
</g>
<!-- Node1&#45;&gt;Node10 -->
<g id="edge13_Node000001_Node000010" class="edge">
<title>Node1&#45;&gt;Node10</title>
<g id="a_edge13_Node000001_Node000010"><a xlink:title=" ">
<path fill="none" stroke="#63b8ff" d="M257.3,-164.98C276.12,-156.46 305.32,-143.23 327,-133.41"/>
<polygon fill="#63b8ff" stroke="#63b8ff" points="328.7,-136.48 336.36,-129.17 325.81,-130.11 328.7,-136.48"/>
</a>
</g>
</g>
<!-- Node2&#45;&gt;Node3 -->
<g id="edge2_Node000002_Node000003" class="edge">
<title>Node2&#45;&gt;Node3</title>
<g id="a_edge2_Node000002_Node000003"><a xlink:title=" ">
<path fill="none" stroke="#63b8ff" d="M152.94,-110.57C129.18,-101.82 90.7,-87.66 63.22,-77.54"/>
<polygon fill="#63b8ff" stroke="#63b8ff" points="64.23,-74.19 53.64,-74.02 61.81,-80.75 64.23,-74.19"/>
</a>
</g>
</g>
<!-- Node4 -->
<g id="Node000004" class="node">
<title>Node4</title>
<g id="a_Node000004"><a xlink:href="simd_8h.html" target="_top" xlink:title="Portable Single Instruction Multiple Data (SIMD) Intrinsics Wrapper.">
<polygon fill="white" stroke="#666666" points="199.5,-74 149.5,-74 149.5,-55 199.5,-55 199.5,-74"/>
<text text-anchor="middle" x="174.5" y="-62" font-family="Helvetica,sans-Serif" font-size="10.00">simd.h</text>
</a>
</g>
</g>
<!-- Node2&#45;&gt;Node4 -->
<g id="edge3_Node000002_Node000004" class="edge">
<title>Node2&#45;&gt;Node4</title>
<g id="a_edge3_Node000002_Node000004"><a xlink:title=" ">
<path fill="none" stroke="#63b8ff" d="M174.5,-109.75C174.5,-102.8 174.5,-92.85 174.5,-84.13"/>
<polygon fill="#63b8ff" stroke="#63b8ff" points="178,-84.09 174.5,-74.09 171,-84.09 178,-84.09"/>
</a>
</g>
</g>
<!-- Node6 -->
<g id="Node000006" class="node">
<title>Node6</title>
<g id="a_Node000006"><a xlink:title=" ">
<polygon fill="#e0e0e0" stroke="#999999" points="262,-19 211,-19 211,0 262,0 262,-19"/>
<text text-anchor="middle" x="236.5" y="-7" font-family="Helvetica,sans-Serif" font-size="10.00">math.h</text>
</a>
</g>
</g>
<!-- Node2&#45;&gt;Node6 -->
<g id="edge9_Node000002_Node000006" class="edge">
<title>Node2&#45;&gt;Node6</title>
<g id="a_edge9_Node000002_Node000006"><a xlink:title=" ">
<path fill="none" stroke="#63b8ff" d="M182.2,-109.74C189.56,-101.08 200.68,-87.22 208.5,-74 217.12,-59.41 224.72,-41.69 229.82,-28.68"/>
<polygon fill="#63b8ff" stroke="#63b8ff" points="233.2,-29.62 233.48,-19.03 226.66,-27.14 233.2,-29.62"/>
</a>
</g>
</g>
<!-- Node2&#45;&gt;Node7 -->
<g id="edge10_Node000002_Node000007" class="edge">
<title>Node2&#45;&gt;Node7</title>
<g id="a_edge10_Node000002_Node000007"><a xlink:title=" ">
<path fill="none" stroke="#63b8ff" d="M185.71,-109.66C209.11,-91.22 263.37,-48.45 292.38,-25.57"/>
<polygon fill="#63b8ff" stroke="#63b8ff" points="294.83,-28.1 300.52,-19.16 290.5,-22.6 294.83,-28.1"/>
</a>
</g>
</g>
<!-- Node8 -->
<g id="Node000008" class="node">
<title>Node8</title>
<g id="a_Node000008"><a xlink:title=" ">
<polygon fill="#e0e0e0" stroke="#999999" points="53,-19 0,-19 0,0 53,0 53,-19"/>
<text text-anchor="middle" x="26.5" y="-7" font-family="Helvetica,sans-Serif" font-size="10.00">stdint.h</text>
</a>
</g>
</g>
<!-- Node2&#45;&gt;Node8 -->
<g id="edge11_Node000002_Node000008" class="edge">
<title>Node2&#45;&gt;Node8</title>
<g id="a_edge11_Node000002_Node000008"><a xlink:title=" ">
<path fill="none" stroke="#63b8ff" d="M162.64,-109.84C137.42,-91.44 78.21,-48.23 46.83,-25.34"/>
<polygon fill="#63b8ff" stroke="#63b8ff" points="48.56,-22.26 38.42,-19.2 44.43,-27.92 48.56,-22.26"/>
</a>
</g>
</g>
<!-- Node9 -->
<g id="Node000009" class="node">
<title>Node9</title>
<g id="a_Node000009"><a xlink:title=" ">
<polygon fill="#e0e0e0" stroke="#999999" points="124,-19 71,-19 71,0 124,0 124,-19"/>
<text text-anchor="middle" x="97.5" y="-7" font-family="Helvetica,sans-Serif" font-size="10.00">string.h</text>
</a>
</g>
</g>
<!-- Node2&#45;&gt;Node9 -->
<g id="edge12_Node000002_Node000009" class="edge">
<title>Node2&#45;&gt;Node9</title>
<g id="a_edge12_Node000002_Node000009"><a xlink:title=" ">
<path fill="none" stroke="#63b8ff" d="M167.58,-109.75C160.6,-100.85 149.59,-86.63 140.5,-74 129.36,-58.52 117.22,-40.49 108.7,-27.6"/>
<polygon fill="#63b8ff" stroke="#63b8ff" points="111.61,-25.66 103.19,-19.24 105.76,-29.51 111.61,-25.66"/>
</a>
</g>
</g>
<!-- Node5 -->
<g id="Node000005" class="node">
<title>Node5</title>
<g id="a_Node000005"><a xlink:href="align_8h.html" target="_top" xlink:title="Memory alignment utilities and macros for cross&#45;platform alignment.">
<polygon fill="white" stroke="#666666" points="192.5,-19 142.5,-19 142.5,0 192.5,0 192.5,-19"/>
<text text-anchor="middle" x="167.5" y="-7" font-family="Helvetica,sans-Serif" font-size="10.00">align.h</text>
</a>
</g>
</g>
<!-- Node4&#45;&gt;Node5 -->
<g id="edge4_Node000004_Node000005" class="edge">
<title>Node4&#45;&gt;Node5</title>
<g id="a_edge4_Node000004_Node000005"><a xlink:title=" ">
<path fill="none" stroke="#63b8ff" d="M173.34,-54.75C172.43,-47.8 171.11,-37.85 169.96,-29.13"/>
<polygon fill="#63b8ff" stroke="#63b8ff" points="173.41,-28.54 168.63,-19.09 166.47,-29.46 173.41,-28.54"/>
</a>
</g>
</g>
<!-- Node4&#45;&gt;Node6 -->
<g id="edge5_Node000004_Node000006" class="edge">
<title>Node4&#45;&gt;Node6</title>
<g id="a_edge5_Node000004_Node000006"><a xlink:title=" ">
<path fill="none" stroke="#63b8ff" d="M184.46,-54.98C193.63,-47.15 207.44,-35.34 218.53,-25.86"/>
<polygon fill="#63b8ff" stroke="#63b8ff" points="221.03,-28.33 226.36,-19.17 216.48,-23.01 221.03,-28.33"/>
</a>
</g>
</g>
<!-- Node4&#45;&gt;Node7 -->
<g id="edge6_Node000004_Node000007" class="edge">
<title>Node4&#45;&gt;Node7</title>
<g id="a_edge6_Node000004_Node000007"><a xlink:title=" ">
<path fill="none" stroke="#63b8ff" d="M196.51,-54.98C218.95,-46.3 253.98,-32.75 279.49,-22.88"/>
<polygon fill="#63b8ff" stroke="#63b8ff" points="281.02,-26.04 289.09,-19.17 278.5,-19.51 281.02,-26.04"/>
</a>
</g>
</g>
<!-- Node4&#45;&gt;Node8 -->
<g id="edge7_Node000004_Node000008" class="edge">
<title>Node4&#45;&gt;Node8</title>
<g id="a_edge7_Node000004_Node000008"><a xlink:title=" ">
<path fill="none" stroke="#63b8ff" d="M150.72,-54.98C126.27,-46.23 87.97,-32.51 60.35,-22.62"/>
<polygon fill="#63b8ff" stroke="#63b8ff" points="61.31,-19.25 50.71,-19.17 58.95,-25.84 61.31,-19.25"/>
</a>
</g>
</g>
<!-- Node4&#45;&gt;Node9 -->
<g id="edge8_Node000004_Node000009" class="edge">
<title>Node4&#45;&gt;Node9</title>
<g id="a_edge8_Node000004_Node000009"><a xlink:title=" ">
<path fill="none" stroke="#63b8ff" d="M162.13,-54.98C150.41,-46.92 132.58,-34.65 118.61,-25.03"/>
<polygon fill="#63b8ff" stroke="#63b8ff" points="120.32,-21.96 110.1,-19.17 116.35,-27.72 120.32,-21.96"/>
</a>
</g>
</g>
</g>
</svg>
</svg>

<style type='text/css'>
<![CDATA[
[data-mouse-over-selected='false'] { opacity: 0.7; }
[data-mouse-over-selected='true']  { opacity: 1.0; }
]]>
</style>
<script type="application/ecmascript"><![CDATA[
document.addEventListener('DOMContentLoaded', (event) => {
  highlightEdges();
  highlightAdjacentNodes();
});
]]></script>
</svg>
