<?xml version="1.0" encoding="UTF-8" standalone="no"?>
<!DOCTYPE svg PUBLIC "-//W3C//DTD SVG 1.1//EN"
 "http://www.w3.org/Graphics/SVG/1.1/DTD/svg11.dtd">
<!-- Generated by graphviz version 2.43.0 (0)
 -->
<!-- Title: include/matrix.h Pages: 1 -->
<svg width="254pt" height="137pt"
 viewBox="0.00 0.00 253.50 137.00" xmlns="http://www.w3.org/2000/svg" xmlns:xlink="http://www.w3.org/1999/xlink">
<g id="graph0" class="graph" transform="scale(1 1) rotate(0) translate(4 133)">
<title>include/matrix.h</title>
<!-- Node1 -->
<g id="Node000001" class="node">
<title>Node1</title>
<g id="a_Node000001"><a xlink:title="Matrix operations and mathematical utilities.">
<polygon fill="#999999" stroke="#666666" points="188,-129 92,-129 92,-110 188,-110 188,-129"/>
<text text-anchor="middle" x="140" y="-117" font-family="Helvetica,sans-Serif" font-size="10.00">include/matrix.h</text>
</a>
</g>
</g>
<!-- Node2 -->
<g id="Node000002" class="node">
<title>Node2</title>
<g id="a_Node000002"><a xlink:href="linear__alg_8h.html" target="_top" xlink:title="Linear algebra operations and utilities.">
<polygon fill="white" stroke="#666666" points="112,-74 0,-74 0,-55 112,-55 112,-74"/>
<text text-anchor="middle" x="56" y="-62" font-family="Helvetica,sans-Serif" font-size="10.00">include/linear_alg.h</text>
</a>
</g>
</g>
<!-- Node1&#45;&gt;Node2 -->
<g id="edge1_Node000001_Node000002" class="edge">
<title>Node1&#45;&gt;Node2</title>
<g id="a_edge1_Node000001_Node000002"><a xlink:title=" ">
<path fill="none" stroke="#63b8ff" d="M117.69,-104.42C102.45,-94.81 82.73,-82.37 69.74,-74.17"/>
<polygon fill="#63b8ff" stroke="#63b8ff" points="116.18,-107.61 126.5,-109.98 119.91,-101.69 116.18,-107.61"/>
</a>
</g>
</g>
<!-- Node3 -->
<g id="Node000003" class="node">
<title>Node3</title>
<g id="a_Node000003"><a xlink:href="solidc_8h.html" target="_top" xlink:title="Master header file that includes all SolidC library modules.">
<polygon fill="white" stroke="#666666" points="132,-19 40,-19 40,0 132,0 132,-19"/>
<text text-anchor="middle" x="86" y="-7" font-family="Helvetica,sans-Serif" font-size="10.00">include/solidc.h</text>
</a>
</g>
</g>
<!-- Node1&#45;&gt;Node3 -->
<g id="edge5_Node000001_Node000003" class="edge">
<title>Node1&#45;&gt;Node3</title>
<g id="a_edge5_Node000001_Node000003"><a xlink:title=" ">
<path fill="none" stroke="#63b8ff" d="M136.35,-99.79C133.35,-86.75 128.38,-69.22 121,-55 113.85,-41.22 102.19,-27.49 94.32,-19.01"/>
<polygon fill="#63b8ff" stroke="#63b8ff" points="133,-100.84 138.49,-109.89 139.84,-99.39 133,-100.84"/>
</a>
</g>
</g>
<!-- Node4 -->
<g id="Node000004" class="node">
<title>Node4</title>
<g id="a_Node000004"><a xlink:href="ml_8h.html" target="_top" xlink:title="Simple Machine Learning library using 4x4 Matrices and Vectors.">
<polygon fill="white" stroke="#666666" points="245.5,-74 168.5,-74 168.5,-55 245.5,-55 245.5,-74"/>
<text text-anchor="middle" x="207" y="-62" font-family="Helvetica,sans-Serif" font-size="10.00">include/ml.h</text>
</a>
</g>
</g>
<!-- Node1&#45;&gt;Node4 -->
<g id="edge3_Node000001_Node000004" class="edge">
<title>Node1&#45;&gt;Node4</title>
<g id="a_edge3_Node000001_Node000004"><a xlink:title=" ">
<path fill="none" stroke="#63b8ff" d="M158.83,-103.6C170.84,-94.11 185.97,-82.13 196.04,-74.17"/>
<polygon fill="#63b8ff" stroke="#63b8ff" points="156.44,-101.04 150.76,-109.98 160.78,-106.53 156.44,-101.04"/>
</a>
</g>
</g>
<!-- Node2&#45;&gt;Node3 -->
<g id="edge2_Node000002_Node000003" class="edge">
<title>Node2&#45;&gt;Node3</title>
<g id="a_edge2_Node000002_Node000003"><a xlink:title=" ">
<path fill="none" stroke="#63b8ff" d="M66.01,-45.82C71.1,-36.82 77.06,-26.29 81.14,-19.09"/>
<polygon fill="#63b8ff" stroke="#63b8ff" points="62.83,-44.32 60.95,-54.75 68.93,-47.77 62.83,-44.32"/>
</a>
</g>
</g>
<!-- Node5 -->
<g id="Node000005" class="node">
<title>Node5</title>
<g id="a_Node000005"><a xlink:href="ml_8c_source.html" target="_top" xlink:title=" ">
<polygon fill="white" stroke="#666666" points="234.5,-19 179.5,-19 179.5,0 234.5,0 234.5,-19"/>
<text text-anchor="middle" x="207" y="-7" font-family="Helvetica,sans-Serif" font-size="10.00">src/ml.c</text>
</a>
</g>
</g>
<!-- Node4&#45;&gt;Node5 -->
<g id="edge4_Node000004_Node000005" class="edge">
<title>Node4&#45;&gt;Node5</title>
<g id="a_edge4_Node000004_Node000005"><a xlink:title=" ">
<path fill="none" stroke="#63b8ff" d="M207,-44.66C207,-35.93 207,-25.99 207,-19.09"/>
<polygon fill="#63b8ff" stroke="#63b8ff" points="203.5,-44.75 207,-54.75 210.5,-44.75 203.5,-44.75"/>
</a>
</g>
</g>
</g>
</svg>
