<?xml version="1.0" encoding="UTF-8" standalone="no"?>
<!DOCTYPE svg PUBLIC "-//W3C//DTD SVG 1.1//EN"
 "http://www.w3.org/Graphics/SVG/1.1/DTD/svg11.dtd">
<!-- Generated by graphviz version 2.43.0 (0)
 -->
<!-- Title: ml_train_step Pages: 1 -->
<svg width="199pt" height="45pt"
 viewBox="0.00 0.00 199.00 45.00" xmlns="http://www.w3.org/2000/svg" xmlns:xlink="http://www.w3.org/1999/xlink">
<g id="graph0" class="graph" transform="scale(1 1) rotate(0) translate(4 41)">
<title>ml_train_step</title>
<!-- Node1 -->
<g id="Node000001" class="node">
<title>Node1</title>
<g id="a_Node000001"><a xlink:title="Train the network on a single sample.">
<polygon fill="#999999" stroke="#666666" points="83,-19 0,-19 0,0 83,0 83,-19"/>
<text text-anchor="middle" x="41.5" y="-7" font-family="Helvetica,sans-Serif" font-size="10.00">ml_train_step</text>
</a>
</g>
</g>
<!-- Node1&#45;&gt;Node1 -->
<g id="edge3_Node000001_Node000001" class="edge">
<title>Node1&#45;&gt;Node1</title>
<g id="a_edge3_Node000001_Node000001"><a xlink:title=" ">
<path fill="none" stroke="#63b8ff" d="M24.24,-19.08C15.84,-27.73 21.59,-37 41.5,-37 53.94,-37 60.85,-33.38 62.24,-28.55"/>
<polygon fill="#63b8ff" stroke="#63b8ff" points="65.49,-27.26 58.76,-19.08 58.92,-29.68 65.49,-27.26"/>
</a>
</g>
</g>
<!-- Node2 -->
<g id="Node000002" class="node">
<title>Node2</title>
<g id="a_Node000002"><a xlink:href="ml_8c.html#a3ede5895b30a8774fc80fe24c779055b" target="_top" xlink:title="Perform forward propagation.">
<polygon fill="white" stroke="#666666" points="191,-19 119,-19 119,0 191,0 191,-19"/>
<text text-anchor="middle" x="155" y="-7" font-family="Helvetica,sans-Serif" font-size="10.00">ml_forward</text>
</a>
</g>
</g>
<!-- Node1&#45;&gt;Node2 -->
<g id="edge1_Node000001_Node000002" class="edge">
<title>Node1&#45;&gt;Node2</title>
<g id="a_edge1_Node000001_Node000002"><a xlink:title=" ">
<path fill="none" stroke="#63b8ff" d="M83.07,-9.5C91.39,-9.5 100.2,-9.5 108.68,-9.5"/>
<polygon fill="#63b8ff" stroke="#63b8ff" points="108.8,-13 118.8,-9.5 108.8,-6 108.8,-13"/>
</a>
</g>
</g>
<!-- Node2&#45;&gt;Node2 -->
<g id="edge2_Node000002_Node000002" class="edge">
<title>Node2&#45;&gt;Node2</title>
<g id="a_edge2_Node000002_Node000002"><a xlink:title=" ">
<path fill="none" stroke="#63b8ff" d="M137.74,-19.08C129.34,-27.73 135.09,-37 155,-37 167.44,-37 174.35,-33.38 175.74,-28.55"/>
<polygon fill="#63b8ff" stroke="#63b8ff" points="178.99,-27.26 172.26,-19.08 172.42,-29.68 178.99,-27.26"/>
</a>
</g>
</g>
</g>
</svg>
