<?xml version="1.0" encoding="UTF-8" standalone="no"?>
<!DOCTYPE svg PUBLIC "-//W3C//DTD SVG 1.1//EN"
 "http://www.w3.org/Graphics/SVG/1.1/DTD/svg11.dtd">
<!-- Generated by graphviz version 2.43.0 (0)
 -->
<!-- Title: include/platform.h Pages: 1 -->
<svg width="595pt" height="192pt"
 viewBox="0.00 0.00 594.50 192.00" xmlns="http://www.w3.org/2000/svg" xmlns:xlink="http://www.w3.org/1999/xlink">
<g id="graph0" class="graph" transform="scale(1 1) rotate(0) translate(4 188)">
<title>include/platform.h</title>
<!-- Node1 -->
<g id="Node000001" class="node">
<title>Node1</title>
<g id="a_Node000001"><a xlink:title="Cross&#45;platform compatibility definitions.">
<polygon fill="#999999" stroke="#666666" points="372.5,-184 266.5,-184 266.5,-165 372.5,-165 372.5,-184"/>
<text text-anchor="middle" x="319.5" y="-172" font-family="Helvetica,sans-Serif" font-size="10.00">include/platform.h</text>
</a>
</g>
</g>
<!-- Node2 -->
<g id="Node000002" class="node">
<title>Node2</title>
<g id="a_Node000002"><a xlink:href="file_8h.html" target="_top" xlink:title="Cross&#45;platform file handling API with synchronous and asynchronous I/O support.">
<polygon fill="white" stroke="#666666" points="226,-129 147,-129 147,-110 226,-110 226,-129"/>
<text text-anchor="middle" x="186.5" y="-117" font-family="Helvetica,sans-Serif" font-size="10.00">include/file.h</text>
</a>
</g>
</g>
<!-- Node1&#45;&gt;Node2 -->
<g id="edge1_Node000001_Node000002" class="edge">
<title>Node1&#45;&gt;Node2</title>
<g id="a_edge1_Node000001_Node000002"><a xlink:title=" ">
<path fill="none" stroke="#63b8ff" d="M288.53,-161.16C263.91,-151.35 230.09,-137.87 208.26,-129.17"/>
<polygon fill="#63b8ff" stroke="#63b8ff" points="287.55,-164.53 298.13,-164.98 290.14,-158.03 287.55,-164.53"/>
</a>
</g>
</g>
<!-- Node3 -->
<g id="Node000003" class="node">
<title>Node3</title>
<g id="a_Node000003"><a xlink:href="filepath_8h.html" target="_top" xlink:title="Cross&#45;platform file path manipulation and directory traversal utilities.">
<polygon fill="white" stroke="#666666" points="101,-74 0,-74 0,-55 101,-55 101,-74"/>
<text text-anchor="middle" x="50.5" y="-62" font-family="Helvetica,sans-Serif" font-size="10.00">include/filepath.h</text>
</a>
</g>
</g>
<!-- Node1&#45;&gt;Node3 -->
<g id="edge7_Node000001_Node000003" class="edge">
<title>Node1&#45;&gt;Node3</title>
<g id="a_edge7_Node000001_Node000003"><a xlink:title=" ">
<path fill="none" stroke="#63b8ff" d="M256.4,-164.34C220.41,-157.59 175.11,-146.48 137.5,-129 106.3,-114.5 75.01,-88.04 59.87,-74.3"/>
<polygon fill="#63b8ff" stroke="#63b8ff" points="255.83,-167.79 266.3,-166.12 257.08,-160.9 255.83,-167.79"/>
</a>
</g>
</g>
<!-- Node7 -->
<g id="Node000007" class="node">
<title>Node7</title>
<g id="a_Node000007"><a xlink:href="socket_8h.html" target="_top" xlink:title="Cross&#45;platform socket programming utilities.">
<polygon fill="white" stroke="#666666" points="367,-129 272,-129 272,-110 367,-110 367,-129"/>
<text text-anchor="middle" x="319.5" y="-117" font-family="Helvetica,sans-Serif" font-size="10.00">include/socket.h</text>
</a>
</g>
</g>
<!-- Node1&#45;&gt;Node7 -->
<g id="edge8_Node000001_Node000007" class="edge">
<title>Node1&#45;&gt;Node7</title>
<g id="a_edge8_Node000001_Node000007"><a xlink:title=" ">
<path fill="none" stroke="#63b8ff" d="M319.5,-154.66C319.5,-145.93 319.5,-135.99 319.5,-129.09"/>
<polygon fill="#63b8ff" stroke="#63b8ff" points="316,-154.75 319.5,-164.75 323,-154.75 316,-154.75"/>
</a>
</g>
</g>
<!-- Node9 -->
<g id="Node000009" class="node">
<title>Node9</title>
<g id="a_Node000009"><a xlink:href="stdstreams_8h.html" target="_top" xlink:title="Standard stream handling utilities.">
<polygon fill="white" stroke="#666666" points="504,-129 385,-129 385,-110 504,-110 504,-129"/>
<text text-anchor="middle" x="444.5" y="-117" font-family="Helvetica,sans-Serif" font-size="10.00">include/stdstreams.h</text>
</a>
</g>
</g>
<!-- Node1&#45;&gt;Node9 -->
<g id="edge10_Node000001_Node000009" class="edge">
<title>Node1&#45;&gt;Node9</title>
<g id="a_edge10_Node000001_Node000009"><a xlink:title=" ">
<path fill="none" stroke="#63b8ff" d="M348.91,-161.03C372.03,-151.23 403.63,-137.83 424.05,-129.17"/>
<polygon fill="#63b8ff" stroke="#63b8ff" points="347.42,-157.86 339.58,-164.98 350.16,-164.3 347.42,-157.86"/>
</a>
</g>
</g>
<!-- Node11 -->
<g id="Node000011" class="node">
<title>Node11</title>
<g id="a_Node000011"><a xlink:href="map_8c.html" target="_top" xlink:title=" ">
<polygon fill="white" stroke="#666666" points="586.5,-129 522.5,-129 522.5,-110 586.5,-110 586.5,-129"/>
<text text-anchor="middle" x="554.5" y="-117" font-family="Helvetica,sans-Serif" font-size="10.00">src/map.c</text>
</a>
</g>
</g>
<!-- Node1&#45;&gt;Node11 -->
<g id="edge12_Node000001_Node000011" class="edge">
<title>Node1&#45;&gt;Node11</title>
<g id="a_edge12_Node000001_Node000011"><a xlink:title=" ">
<path fill="none" stroke="#63b8ff" d="M367.06,-162.77C413.35,-152.33 482.4,-136.76 522.5,-127.72"/>
<polygon fill="#63b8ff" stroke="#63b8ff" points="366.24,-159.37 357.26,-164.98 367.78,-166.2 366.24,-159.37"/>
</a>
</g>
</g>
<!-- Node2&#45;&gt;Node3 -->
<g id="edge2_Node000002_Node000003" class="edge">
<title>Node2&#45;&gt;Node3</title>
<g id="a_edge2_Node000002_Node000003"><a xlink:title=" ">
<path fill="none" stroke="#63b8ff" d="M155.17,-106.29C129.96,-96.47 95.17,-82.91 72.75,-74.17"/>
<polygon fill="#63b8ff" stroke="#63b8ff" points="154.06,-109.61 164.65,-109.98 156.6,-103.09 154.06,-109.61"/>
</a>
</g>
</g>
<!-- Node4 -->
<g id="Node000004" class="node">
<title>Node4</title>
<g id="a_Node000004"><a xlink:href="filepath_8c_source.html" target="_top" xlink:title=" ">
<polygon fill="white" stroke="#666666" points="129,-19 50,-19 50,0 129,0 129,-19"/>
<text text-anchor="middle" x="89.5" y="-7" font-family="Helvetica,sans-Serif" font-size="10.00">src/filepath.c</text>
</a>
</g>
</g>
<!-- Node2&#45;&gt;Node4 -->
<g id="edge5_Node000002_Node000004" class="edge">
<title>Node2&#45;&gt;Node4</title>
<g id="a_edge5_Node000002_Node000004"><a xlink:title=" ">
<path fill="none" stroke="#63b8ff" d="M171.68,-102C150.78,-78.73 113.42,-37.13 97.28,-19.16"/>
<polygon fill="#63b8ff" stroke="#63b8ff" points="169.28,-104.56 178.56,-109.66 174.48,-99.88 169.28,-104.56"/>
</a>
</g>
</g>
<!-- Node5 -->
<g id="Node000005" class="node">
<title>Node5</title>
<g id="a_Node000005"><a xlink:href="file_8c_source.html" target="_top" xlink:title=" ">
<polygon fill="white" stroke="#666666" points="215,-74 158,-74 158,-55 215,-55 215,-74"/>
<text text-anchor="middle" x="186.5" y="-62" font-family="Helvetica,sans-Serif" font-size="10.00">src/file.c</text>
</a>
</g>
</g>
<!-- Node2&#45;&gt;Node5 -->
<g id="edge4_Node000002_Node000005" class="edge">
<title>Node2&#45;&gt;Node5</title>
<g id="a_edge4_Node000002_Node000005"><a xlink:title=" ">
<path fill="none" stroke="#63b8ff" d="M186.5,-99.66C186.5,-90.93 186.5,-80.99 186.5,-74.09"/>
<polygon fill="#63b8ff" stroke="#63b8ff" points="183,-99.75 186.5,-109.75 190,-99.75 183,-99.75"/>
</a>
</g>
</g>
<!-- Node6 -->
<g id="Node000006" class="node">
<title>Node6</title>
<g id="a_Node000006"><a xlink:href="process_8c.html" target="_top" xlink:title="Implementation of the process management API.">
<polygon fill="white" stroke="#666666" points="313.5,-74 233.5,-74 233.5,-55 313.5,-55 313.5,-74"/>
<text text-anchor="middle" x="273.5" y="-62" font-family="Helvetica,sans-Serif" font-size="10.00">src/process.c</text>
</a>
</g>
</g>
<!-- Node2&#45;&gt;Node6 -->
<g id="edge6_Node000002_Node000006" class="edge">
<title>Node2&#45;&gt;Node6</title>
<g id="a_edge6_Node000002_Node000006"><a xlink:title=" ">
<path fill="none" stroke="#63b8ff" d="M209.16,-104.7C225.01,-95.04 245.69,-82.44 259.27,-74.17"/>
<polygon fill="#63b8ff" stroke="#63b8ff" points="207.2,-101.79 200.48,-109.98 210.84,-107.77 207.2,-101.79"/>
</a>
</g>
</g>
<!-- Node3&#45;&gt;Node4 -->
<g id="edge3_Node000003_Node000004" class="edge">
<title>Node3&#45;&gt;Node4</title>
<g id="a_edge3_Node000003_Node000004"><a xlink:title=" ">
<path fill="none" stroke="#63b8ff" d="M62.88,-46.67C69.64,-37.5 77.71,-26.52 83.18,-19.09"/>
<polygon fill="#63b8ff" stroke="#63b8ff" points="60.05,-44.62 56.94,-54.75 65.69,-48.77 60.05,-44.62"/>
</a>
</g>
</g>
<!-- Node8 -->
<g id="Node000008" class="node">
<title>Node8</title>
<g id="a_Node000008"><a xlink:href="socket_8c_source.html" target="_top" xlink:title=" ">
<polygon fill="white" stroke="#666666" points="405.5,-74 331.5,-74 331.5,-55 405.5,-55 405.5,-74"/>
<text text-anchor="middle" x="368.5" y="-62" font-family="Helvetica,sans-Serif" font-size="10.00">src/socket.c</text>
</a>
</g>
</g>
<!-- Node7&#45;&gt;Node8 -->
<g id="edge9_Node000007_Node000008" class="edge">
<title>Node7&#45;&gt;Node8</title>
<g id="a_edge9_Node000007_Node000008"><a xlink:title=" ">
<path fill="none" stroke="#63b8ff" d="M334.53,-102.24C343.12,-92.95 353.54,-81.68 360.56,-74.09"/>
<polygon fill="#63b8ff" stroke="#63b8ff" points="331.81,-100.03 327.59,-109.75 336.95,-104.78 331.81,-100.03"/>
</a>
</g>
</g>
<!-- Node10 -->
<g id="Node000010" class="node">
<title>Node10</title>
<g id="a_Node000010"><a xlink:href="stdstreams_8c_source.html" target="_top" xlink:title=" ">
<polygon fill="white" stroke="#666666" points="521,-74 424,-74 424,-55 521,-55 521,-74"/>
<text text-anchor="middle" x="472.5" y="-62" font-family="Helvetica,sans-Serif" font-size="10.00">src/stdstreams.c</text>
</a>
</g>
</g>
<!-- Node9&#45;&gt;Node10 -->
<g id="edge11_Node000009_Node000010" class="edge">
<title>Node9&#45;&gt;Node10</title>
<g id="a_edge11_Node000009_Node000010"><a xlink:title=" ">
<path fill="none" stroke="#63b8ff" d="M453.84,-100.82C458.59,-91.82 464.16,-81.29 467.96,-74.09"/>
<polygon fill="#63b8ff" stroke="#63b8ff" points="450.7,-99.27 449.12,-109.75 456.89,-102.54 450.7,-99.27"/>
</a>
</g>
</g>
</g>
</svg>
