<?xml version="1.0" encoding="UTF-8" standalone="no"?>
<!DOCTYPE svg PUBLIC "-//W3C//DTD SVG 1.1//EN"
 "http://www.w3.org/Graphics/SVG/1.1/DTD/svg11.dtd">
<!-- Generated by graphviz version 2.43.0 (0)
 -->
<!-- Title: include/platform.h Pages: 1 -->
<svg width="578pt" height="137pt"
 viewBox="0.00 0.00 577.50 137.00" xmlns="http://www.w3.org/2000/svg" xmlns:xlink="http://www.w3.org/1999/xlink">
<g id="graph0" class="graph" transform="scale(1 1) rotate(0) translate(4 133)">
<title>include/platform.h</title>
<!-- Node1 -->
<g id="Node000001" class="node">
<title>Node1</title>
<g id="a_Node000001"><a xlink:title="Cross&#45;platform compatibility definitions.">
<polygon fill="#999999" stroke="#666666" points="317.5,-129 211.5,-129 211.5,-110 317.5,-110 317.5,-129"/>
<text text-anchor="middle" x="264.5" y="-117" font-family="Helvetica,sans-Serif" font-size="10.00">include/platform.h</text>
</a>
</g>
</g>
<!-- Node2 -->
<g id="Node000002" class="node">
<title>Node2</title>
<g id="a_Node000002"><a xlink:href="file_8h.html" target="_top" xlink:title="Cross&#45;platform file handling API with synchronous and asynchronous I/O support.">
<polygon fill="white" stroke="#666666" points="79,-74 0,-74 0,-55 79,-55 79,-74"/>
<text text-anchor="middle" x="39.5" y="-62" font-family="Helvetica,sans-Serif" font-size="10.00">include/file.h</text>
</a>
</g>
</g>
<!-- Node1&#45;&gt;Node2 -->
<g id="edge1_Node000001_Node000002" class="edge">
<title>Node1&#45;&gt;Node2</title>
<g id="a_edge1_Node000001_Node000002"><a xlink:title=" ">
<path fill="none" stroke="#63b8ff" d="M218.61,-107.69C176.45,-97.76 114.8,-83.24 75.93,-74.08"/>
<polygon fill="#63b8ff" stroke="#63b8ff" points="217.81,-111.1 228.35,-109.98 219.42,-104.28 217.81,-111.1"/>
</a>
</g>
</g>
<!-- Node3 -->
<g id="Node000003" class="node">
<title>Node3</title>
<g id="a_Node000003"><a xlink:href="solidc_8h.html" target="_top" xlink:title="Master header file that includes all SolidC library modules.">
<polygon fill="white" stroke="#666666" points="270.5,-19 178.5,-19 178.5,0 270.5,0 270.5,-19"/>
<text text-anchor="middle" x="224.5" y="-7" font-family="Helvetica,sans-Serif" font-size="10.00">include/solidc.h</text>
</a>
</g>
</g>
<!-- Node1&#45;&gt;Node3 -->
<g id="edge11_Node000001_Node000003" class="edge">
<title>Node1&#45;&gt;Node3</title>
<g id="a_edge11_Node000001_Node000003"><a xlink:title=" ">
<path fill="none" stroke="#63b8ff" d="M256.87,-100.23C253.58,-92.22 249.76,-82.68 246.5,-74 239.2,-54.56 231.42,-31.45 227.35,-19.18"/>
<polygon fill="#63b8ff" stroke="#63b8ff" points="253.72,-101.79 260.78,-109.69 260.19,-99.11 253.72,-101.79"/>
</a>
</g>
</g>
<!-- Node6 -->
<g id="Node000006" class="node">
<title>Node6</title>
<g id="a_Node000006"><a xlink:href="filepath_8h.html" target="_top" xlink:title="Cross&#45;platform file path manipulation and directory traversal utilities.">
<polygon fill="white" stroke="#666666" points="198,-74 97,-74 97,-55 198,-55 198,-74"/>
<text text-anchor="middle" x="147.5" y="-62" font-family="Helvetica,sans-Serif" font-size="10.00">include/filepath.h</text>
</a>
</g>
</g>
<!-- Node1&#45;&gt;Node6 -->
<g id="edge5_Node000001_Node000006" class="edge">
<title>Node1&#45;&gt;Node6</title>
<g id="a_edge5_Node000001_Node000006"><a xlink:title=" ">
<path fill="none" stroke="#63b8ff" d="M236.39,-105.77C214.81,-95.99 185.59,-82.75 166.64,-74.17"/>
<polygon fill="#63b8ff" stroke="#63b8ff" points="235.15,-109.05 245.7,-109.98 238.04,-102.67 235.15,-109.05"/>
</a>
</g>
</g>
<!-- Node7 -->
<g id="Node000007" class="node">
<title>Node7</title>
<g id="a_Node000007"><a xlink:href="socket_8h.html" target="_top" xlink:title="Cross&#45;platform socket programming utilities.">
<polygon fill="white" stroke="#666666" points="350,-74 255,-74 255,-55 350,-55 350,-74"/>
<text text-anchor="middle" x="302.5" y="-62" font-family="Helvetica,sans-Serif" font-size="10.00">include/socket.h</text>
</a>
</g>
</g>
<!-- Node1&#45;&gt;Node7 -->
<g id="edge8_Node000001_Node000007" class="edge">
<title>Node1&#45;&gt;Node7</title>
<g id="a_edge8_Node000001_Node000007"><a xlink:title=" ">
<path fill="none" stroke="#63b8ff" d="M276.77,-101.39C283.31,-92.27 291.07,-81.45 296.34,-74.09"/>
<polygon fill="#63b8ff" stroke="#63b8ff" points="273.76,-99.58 270.77,-109.75 279.45,-103.66 273.76,-99.58"/>
</a>
</g>
</g>
<!-- Node9 -->
<g id="Node000009" class="node">
<title>Node9</title>
<g id="a_Node000009"><a xlink:href="stdstreams_8h.html" target="_top" xlink:title="Standard stream handling utilities.">
<polygon fill="white" stroke="#666666" points="487,-74 368,-74 368,-55 487,-55 487,-74"/>
<text text-anchor="middle" x="427.5" y="-62" font-family="Helvetica,sans-Serif" font-size="10.00">include/stdstreams.h</text>
</a>
</g>
</g>
<!-- Node1&#45;&gt;Node9 -->
<g id="edge12_Node000001_Node000009" class="edge">
<title>Node1&#45;&gt;Node9</title>
<g id="a_edge12_Node000001_Node000009"><a xlink:title=" ">
<path fill="none" stroke="#63b8ff" d="M300.49,-106.8C330.91,-96.91 373.78,-82.97 401.11,-74.08"/>
<polygon fill="#63b8ff" stroke="#63b8ff" points="299.12,-103.56 290.69,-109.98 301.28,-110.22 299.12,-103.56"/>
</a>
</g>
</g>
<!-- Node11 -->
<g id="Node000011" class="node">
<title>Node11</title>
<g id="a_Node000011"><a xlink:href="map_8c_source.html" target="_top" xlink:title=" ">
<polygon fill="white" stroke="#666666" points="569.5,-74 505.5,-74 505.5,-55 569.5,-55 569.5,-74"/>
<text text-anchor="middle" x="537.5" y="-62" font-family="Helvetica,sans-Serif" font-size="10.00">src/map.c</text>
</a>
</g>
</g>
<!-- Node1&#45;&gt;Node11 -->
<g id="edge15_Node000001_Node000011" class="edge">
<title>Node1&#45;&gt;Node11</title>
<g id="a_edge15_Node000001_Node000011"><a xlink:title=" ">
<path fill="none" stroke="#63b8ff" d="M320.3,-108.04C367.33,-99.16 436.36,-86 496.5,-74 499.35,-73.43 502.31,-72.83 505.28,-72.23"/>
<polygon fill="#63b8ff" stroke="#63b8ff" points="319.5,-104.63 310.32,-109.92 320.8,-111.51 319.5,-104.63"/>
</a>
</g>
</g>
<!-- Node2&#45;&gt;Node3 -->
<g id="edge2_Node000002_Node000003" class="edge">
<title>Node2&#45;&gt;Node3</title>
<g id="a_edge2_Node000002_Node000003"><a xlink:title=" ">
<path fill="none" stroke="#63b8ff" d="M79,-52.18C113.6,-42.27 163.13,-28.08 194.54,-19.08"/>
<polygon fill="#63b8ff" stroke="#63b8ff" points="77.87,-48.87 69.22,-54.98 79.8,-55.6 77.87,-48.87"/>
</a>
</g>
</g>
<!-- Node4 -->
<g id="Node000004" class="node">
<title>Node4</title>
<g id="a_Node000004"><a xlink:href="file_8c_source.html" target="_top" xlink:title=" ">
<polygon fill="white" stroke="#666666" points="63,-19 6,-19 6,0 63,0 63,-19"/>
<text text-anchor="middle" x="34.5" y="-7" font-family="Helvetica,sans-Serif" font-size="10.00">src/file.c</text>
</a>
</g>
</g>
<!-- Node2&#45;&gt;Node4 -->
<g id="edge3_Node000002_Node000004" class="edge">
<title>Node2&#45;&gt;Node4</title>
<g id="a_edge3_Node000002_Node000004"><a xlink:title=" ">
<path fill="none" stroke="#63b8ff" d="M37.72,-44.66C36.9,-35.93 35.96,-25.99 35.31,-19.09"/>
<polygon fill="#63b8ff" stroke="#63b8ff" points="34.25,-45.12 38.67,-54.75 41.22,-44.46 34.25,-45.12"/>
</a>
</g>
</g>
<!-- Node5 -->
<g id="Node000005" class="node">
<title>Node5</title>
<g id="a_Node000005"><a xlink:href="filepath_8c_source.html" target="_top" xlink:title=" ">
<polygon fill="white" stroke="#666666" points="160,-19 81,-19 81,0 160,0 160,-19"/>
<text text-anchor="middle" x="120.5" y="-7" font-family="Helvetica,sans-Serif" font-size="10.00">src/filepath.c</text>
</a>
</g>
</g>
<!-- Node2&#45;&gt;Node5 -->
<g id="edge4_Node000002_Node000005" class="edge">
<title>Node2&#45;&gt;Node5</title>
<g id="a_edge4_Node000002_Node000005"><a xlink:title=" ">
<path fill="none" stroke="#63b8ff" d="M61.01,-49.42C75.71,-39.81 94.72,-27.37 107.25,-19.17"/>
<polygon fill="#63b8ff" stroke="#63b8ff" points="58.97,-46.58 52.51,-54.98 62.8,-52.44 58.97,-46.58"/>
</a>
</g>
</g>
<!-- Node6&#45;&gt;Node3 -->
<g id="edge6_Node000006_Node000003" class="edge">
<title>Node6&#45;&gt;Node3</title>
<g id="a_edge6_Node000006_Node000003"><a xlink:title=" ">
<path fill="none" stroke="#63b8ff" d="M168.35,-49.15C182.26,-39.57 200.11,-27.29 211.9,-19.17"/>
<polygon fill="#63b8ff" stroke="#63b8ff" points="166.12,-46.43 159.87,-54.98 170.09,-52.2 166.12,-46.43"/>
</a>
</g>
</g>
<!-- Node6&#45;&gt;Node5 -->
<g id="edge7_Node000006_Node000005" class="edge">
<title>Node6&#45;&gt;Node5</title>
<g id="a_edge7_Node000006_Node000005"><a xlink:title=" ">
<path fill="none" stroke="#63b8ff" d="M138.49,-45.82C133.91,-36.82 128.55,-26.29 124.88,-19.09"/>
<polygon fill="#63b8ff" stroke="#63b8ff" points="135.38,-47.43 143.04,-54.75 141.62,-44.25 135.38,-47.43"/>
</a>
</g>
</g>
<!-- Node7&#45;&gt;Node3 -->
<g id="edge9_Node000007_Node000003" class="edge">
<title>Node7&#45;&gt;Node3</title>
<g id="a_edge9_Node000007_Node000003"><a xlink:title=" ">
<path fill="none" stroke="#63b8ff" d="M281.38,-49.15C267.29,-39.57 249.21,-27.29 237.26,-19.17"/>
<polygon fill="#63b8ff" stroke="#63b8ff" points="279.73,-52.26 289.97,-54.98 283.66,-46.47 279.73,-52.26"/>
</a>
</g>
</g>
<!-- Node8 -->
<g id="Node000008" class="node">
<title>Node8</title>
<g id="a_Node000008"><a xlink:href="socket_8c_source.html" target="_top" xlink:title=" ">
<polygon fill="white" stroke="#666666" points="362.5,-19 288.5,-19 288.5,0 362.5,0 362.5,-19"/>
<text text-anchor="middle" x="325.5" y="-7" font-family="Helvetica,sans-Serif" font-size="10.00">src/socket.c</text>
</a>
</g>
</g>
<!-- Node7&#45;&gt;Node8 -->
<g id="edge10_Node000007_Node000008" class="edge">
<title>Node7&#45;&gt;Node8</title>
<g id="a_edge10_Node000007_Node000008"><a xlink:title=" ">
<path fill="none" stroke="#63b8ff" d="M310.3,-45.53C314.18,-36.6 318.68,-26.22 321.77,-19.09"/>
<polygon fill="#63b8ff" stroke="#63b8ff" points="307.07,-44.18 306.3,-54.75 313.49,-46.97 307.07,-44.18"/>
</a>
</g>
</g>
<!-- Node9&#45;&gt;Node3 -->
<g id="edge13_Node000009_Node000003" class="edge">
<title>Node9&#45;&gt;Node3</title>
<g id="a_edge13_Node000009_Node000003"><a xlink:title=" ">
<path fill="none" stroke="#63b8ff" d="M385.13,-52.44C347.13,-42.52 292.14,-28.16 257.37,-19.08"/>
<polygon fill="#63b8ff" stroke="#63b8ff" points="384.32,-55.84 394.88,-54.98 386.09,-49.07 384.32,-55.84"/>
</a>
</g>
</g>
<!-- Node10 -->
<g id="Node000010" class="node">
<title>Node10</title>
<g id="a_Node000010"><a xlink:href="stdstreams_8c_source.html" target="_top" xlink:title=" ">
<polygon fill="white" stroke="#666666" points="478,-19 381,-19 381,0 478,0 478,-19"/>
<text text-anchor="middle" x="429.5" y="-7" font-family="Helvetica,sans-Serif" font-size="10.00">src/stdstreams.c</text>
</a>
</g>
</g>
<!-- Node9&#45;&gt;Node10 -->
<g id="edge14_Node000009_Node000010" class="edge">
<title>Node9&#45;&gt;Node10</title>
<g id="a_edge14_Node000009_Node000010"><a xlink:title=" ">
<path fill="none" stroke="#63b8ff" d="M428.21,-44.66C428.54,-35.93 428.92,-25.99 429.18,-19.09"/>
<polygon fill="#63b8ff" stroke="#63b8ff" points="424.71,-44.62 427.83,-54.75 431.7,-44.89 424.71,-44.62"/>
</a>
</g>
</g>
</g>
</svg>
