<?xml version="1.0" encoding="UTF-8" standalone="no"?>
<!DOCTYPE svg PUBLIC "-//W3C//DTD SVG 1.1//EN"
 "http://www.w3.org/Graphics/SVG/1.1/DTD/svg11.dtd">
<!-- Generated by graphviz version 2.43.0 (0)
 -->
<!-- Title: include/platform.h Pages: 1 -->
<svg width="666pt" height="192pt"
 viewBox="0.00 0.00 665.50 192.00" xmlns="http://www.w3.org/2000/svg" xmlns:xlink="http://www.w3.org/1999/xlink">
<g id="graph0" class="graph" transform="scale(1 1) rotate(0) translate(4 188)">
<title>include/platform.h</title>
<!-- Node1 -->
<g id="Node000001" class="node">
<title>Node1</title>
<g id="a_Node000001"><a xlink:title="Cross&#45;platform compatibility definitions.">
<polygon fill="#999999" stroke="#666666" points="434.5,-184 328.5,-184 328.5,-165 434.5,-165 434.5,-184"/>
<text text-anchor="middle" x="381.5" y="-172" font-family="Helvetica,sans-Serif" font-size="10.00">include/platform.h</text>
</a>
</g>
</g>
<!-- Node2 -->
<g id="Node000002" class="node">
<title>Node2</title>
<g id="a_Node000002"><a xlink:href="file_8h.html" target="_top" xlink:title="Cross&#45;platform file handling API with synchronous and asynchronous I/O support.">
<polygon fill="white" stroke="#666666" points="226,-129 147,-129 147,-110 226,-110 226,-129"/>
<text text-anchor="middle" x="186.5" y="-117" font-family="Helvetica,sans-Serif" font-size="10.00">include/file.h</text>
</a>
</g>
</g>
<!-- Node1&#45;&gt;Node2 -->
<g id="edge1_Node000001_Node000002" class="edge">
<title>Node1&#45;&gt;Node2</title>
<g id="a_edge1_Node000001_Node000002"><a xlink:title=" ">
<path fill="none" stroke="#63b8ff" d="M340.33,-162.31C303.84,-152.39 251.33,-138.12 218.08,-129.08"/>
<polygon fill="#63b8ff" stroke="#63b8ff" points="339.6,-165.74 350.17,-164.98 341.44,-158.98 339.6,-165.74"/>
</a>
</g>
</g>
<!-- Node3 -->
<g id="Node000003" class="node">
<title>Node3</title>
<g id="a_Node000003"><a xlink:href="filepath_8h.html" target="_top" xlink:title="Cross&#45;platform file path manipulation and directory traversal utilities.">
<polygon fill="white" stroke="#666666" points="101,-74 0,-74 0,-55 101,-55 101,-74"/>
<text text-anchor="middle" x="50.5" y="-62" font-family="Helvetica,sans-Serif" font-size="10.00">include/filepath.h</text>
</a>
</g>
</g>
<!-- Node1&#45;&gt;Node3 -->
<g id="edge8_Node000001_Node000003" class="edge">
<title>Node1&#45;&gt;Node3</title>
<g id="a_edge8_Node000001_Node000003"><a xlink:title=" ">
<path fill="none" stroke="#63b8ff" d="M317.98,-169.73C267.37,-164.92 195.62,-153.95 137.5,-129 105.54,-115.28 74.09,-87.98 59.29,-74.07"/>
<polygon fill="#63b8ff" stroke="#63b8ff" points="317.85,-173.24 328.12,-170.65 318.48,-166.27 317.85,-173.24"/>
</a>
</g>
</g>
<!-- Node4 -->
<g id="Node000004" class="node">
<title>Node4</title>
<g id="a_Node000004"><a xlink:href="solidc_8h.html" target="_top" xlink:title="Master header file that includes all SolidC library modules.">
<polygon fill="white" stroke="#666666" points="327.5,-19 235.5,-19 235.5,0 327.5,0 327.5,-19"/>
<text text-anchor="middle" x="281.5" y="-7" font-family="Helvetica,sans-Serif" font-size="10.00">include/solidc.h</text>
</a>
</g>
</g>
<!-- Node1&#45;&gt;Node4 -->
<g id="edge12_Node000001_Node000004" class="edge">
<title>Node1&#45;&gt;Node4</title>
<g id="a_edge12_Node000001_Node000004"><a xlink:title=" ">
<path fill="none" stroke="#63b8ff" d="M442.67,-162.44C466.65,-155.79 493.22,-145.33 513.5,-129 541.55,-106.42 569.76,-82.49 546.5,-55 519,-22.5 396.03,-13.72 327.69,-11.36"/>
<polygon fill="#63b8ff" stroke="#63b8ff" points="441.72,-159.07 432.92,-164.97 443.48,-165.84 441.72,-159.07"/>
</a>
</g>
</g>
<!-- Node7 -->
<g id="Node000007" class="node">
<title>Node7</title>
<g id="a_Node000007"><a xlink:href="socket_8h.html" target="_top" xlink:title="Cross&#45;platform socket programming utilities.">
<polygon fill="white" stroke="#666666" points="367,-129 272,-129 272,-110 367,-110 367,-129"/>
<text text-anchor="middle" x="319.5" y="-117" font-family="Helvetica,sans-Serif" font-size="10.00">include/socket.h</text>
</a>
</g>
</g>
<!-- Node1&#45;&gt;Node7 -->
<g id="edge9_Node000001_Node000007" class="edge">
<title>Node1&#45;&gt;Node7</title>
<g id="a_edge9_Node000001_Node000007"><a xlink:title=" ">
<path fill="none" stroke="#63b8ff" d="M363.75,-158.32C352.69,-148.87 338.87,-137.06 329.64,-129.17"/>
<polygon fill="#63b8ff" stroke="#63b8ff" points="361.66,-161.15 371.54,-164.98 366.21,-155.83 361.66,-161.15"/>
</a>
</g>
</g>
<!-- Node9 -->
<g id="Node000009" class="node">
<title>Node9</title>
<g id="a_Node000009"><a xlink:href="stdstreams_8h.html" target="_top" xlink:title="Standard stream handling utilities.">
<polygon fill="white" stroke="#666666" points="504,-129 385,-129 385,-110 504,-110 504,-129"/>
<text text-anchor="middle" x="444.5" y="-117" font-family="Helvetica,sans-Serif" font-size="10.00">include/stdstreams.h</text>
</a>
</g>
</g>
<!-- Node1&#45;&gt;Node9 -->
<g id="edge13_Node000001_Node000009" class="edge">
<title>Node1&#45;&gt;Node9</title>
<g id="a_edge13_Node000001_Node000009"><a xlink:title=" ">
<path fill="none" stroke="#63b8ff" d="M399.54,-158.32C410.77,-148.87 424.82,-137.06 434.19,-129.17"/>
<polygon fill="#63b8ff" stroke="#63b8ff" points="397.02,-155.87 391.62,-164.98 401.53,-161.23 397.02,-155.87"/>
</a>
</g>
</g>
<!-- Node11 -->
<g id="Node000011" class="node">
<title>Node11</title>
<g id="a_Node000011"><a xlink:href="map_8c_source.html" target="_top" xlink:title=" ">
<polygon fill="white" stroke="#666666" points="657.5,-129 593.5,-129 593.5,-110 657.5,-110 657.5,-129"/>
<text text-anchor="middle" x="625.5" y="-117" font-family="Helvetica,sans-Serif" font-size="10.00">src/map.c</text>
</a>
</g>
</g>
<!-- Node1&#45;&gt;Node11 -->
<g id="edge16_Node000001_Node000011" class="edge">
<title>Node1&#45;&gt;Node11</title>
<g id="a_edge16_Node000001_Node000011"><a xlink:title=" ">
<path fill="none" stroke="#63b8ff" d="M430.66,-162.82C479.16,-152.29 551.89,-136.49 593.41,-127.47"/>
<polygon fill="#63b8ff" stroke="#63b8ff" points="429.73,-159.44 420.7,-164.98 431.22,-166.28 429.73,-159.44"/>
</a>
</g>
</g>
<!-- Node2&#45;&gt;Node3 -->
<g id="edge2_Node000002_Node000003" class="edge">
<title>Node2&#45;&gt;Node3</title>
<g id="a_edge2_Node000002_Node000003"><a xlink:title=" ">
<path fill="none" stroke="#63b8ff" d="M155.17,-106.29C129.96,-96.47 95.17,-82.91 72.75,-74.17"/>
<polygon fill="#63b8ff" stroke="#63b8ff" points="154.06,-109.61 164.65,-109.98 156.6,-103.09 154.06,-109.61"/>
</a>
</g>
</g>
<!-- Node2&#45;&gt;Node4 -->
<g id="edge5_Node000002_Node000004" class="edge">
<title>Node2&#45;&gt;Node4</title>
<g id="a_edge5_Node000002_Node000004"><a xlink:title=" ">
<path fill="none" stroke="#63b8ff" d="M201.02,-102C221.48,-78.73 258.08,-37.13 273.88,-19.16"/>
<polygon fill="#63b8ff" stroke="#63b8ff" points="198.25,-99.84 194.27,-109.66 203.51,-104.47 198.25,-99.84"/>
</a>
</g>
</g>
<!-- Node5 -->
<g id="Node000005" class="node">
<title>Node5</title>
<g id="a_Node000005"><a xlink:href="filepath_8c_source.html" target="_top" xlink:title=" ">
<polygon fill="white" stroke="#666666" points="130,-19 51,-19 51,0 130,0 130,-19"/>
<text text-anchor="middle" x="90.5" y="-7" font-family="Helvetica,sans-Serif" font-size="10.00">src/filepath.c</text>
</a>
</g>
</g>
<!-- Node2&#45;&gt;Node5 -->
<g id="edge7_Node000002_Node000005" class="edge">
<title>Node2&#45;&gt;Node5</title>
<g id="a_edge7_Node000002_Node000005"><a xlink:title=" ">
<path fill="none" stroke="#63b8ff" d="M171.83,-102C151.15,-78.73 114.17,-37.13 98.2,-19.16"/>
<polygon fill="#63b8ff" stroke="#63b8ff" points="169.38,-104.51 178.64,-109.66 174.62,-99.86 169.38,-104.51"/>
</a>
</g>
</g>
<!-- Node6 -->
<g id="Node000006" class="node">
<title>Node6</title>
<g id="a_Node000006"><a xlink:href="file_8c_source.html" target="_top" xlink:title=" ">
<polygon fill="white" stroke="#666666" points="215,-74 158,-74 158,-55 215,-55 215,-74"/>
<text text-anchor="middle" x="186.5" y="-62" font-family="Helvetica,sans-Serif" font-size="10.00">src/file.c</text>
</a>
</g>
</g>
<!-- Node2&#45;&gt;Node6 -->
<g id="edge6_Node000002_Node000006" class="edge">
<title>Node2&#45;&gt;Node6</title>
<g id="a_edge6_Node000002_Node000006"><a xlink:title=" ">
<path fill="none" stroke="#63b8ff" d="M186.5,-99.66C186.5,-90.93 186.5,-80.99 186.5,-74.09"/>
<polygon fill="#63b8ff" stroke="#63b8ff" points="183,-99.75 186.5,-109.75 190,-99.75 183,-99.75"/>
</a>
</g>
</g>
<!-- Node3&#45;&gt;Node4 -->
<g id="edge3_Node000003_Node000004" class="edge">
<title>Node3&#45;&gt;Node4</title>
<g id="a_edge3_Node000003_Node000004"><a xlink:title=" ">
<path fill="none" stroke="#63b8ff" d="M97.61,-52.69C140.89,-42.76 204.19,-28.24 244.09,-19.08"/>
<polygon fill="#63b8ff" stroke="#63b8ff" points="96.58,-49.34 87.61,-54.98 98.14,-56.16 96.58,-49.34"/>
</a>
</g>
</g>
<!-- Node3&#45;&gt;Node5 -->
<g id="edge4_Node000003_Node000005" class="edge">
<title>Node3&#45;&gt;Node5</title>
<g id="a_edge4_Node000003_Node000005"><a xlink:title=" ">
<path fill="none" stroke="#63b8ff" d="M63.2,-46.67C70.13,-37.5 78.41,-26.52 84.02,-19.09"/>
<polygon fill="#63b8ff" stroke="#63b8ff" points="60.34,-44.66 57.11,-54.75 65.92,-48.87 60.34,-44.66"/>
</a>
</g>
</g>
<!-- Node7&#45;&gt;Node4 -->
<g id="edge10_Node000007_Node000004" class="edge">
<title>Node7&#45;&gt;Node4</title>
<g id="a_edge10_Node000007_Node000004"><a xlink:title=" ">
<path fill="none" stroke="#63b8ff" d="M311.31,-100.61C307.77,-92.56 303.72,-82.89 300.5,-74 293.53,-54.74 287.07,-31.56 283.78,-19.23"/>
<polygon fill="#63b8ff" stroke="#63b8ff" points="308.13,-102.06 315.42,-109.75 314.52,-99.2 308.13,-102.06"/>
</a>
</g>
</g>
<!-- Node8 -->
<g id="Node000008" class="node">
<title>Node8</title>
<g id="a_Node000008"><a xlink:href="socket_8c_source.html" target="_top" xlink:title=" ">
<polygon fill="white" stroke="#666666" points="383.5,-74 309.5,-74 309.5,-55 383.5,-55 383.5,-74"/>
<text text-anchor="middle" x="346.5" y="-62" font-family="Helvetica,sans-Serif" font-size="10.00">src/socket.c</text>
</a>
</g>
</g>
<!-- Node7&#45;&gt;Node8 -->
<g id="edge11_Node000007_Node000008" class="edge">
<title>Node7&#45;&gt;Node8</title>
<g id="a_edge11_Node000007_Node000008"><a xlink:title=" ">
<path fill="none" stroke="#63b8ff" d="M328.51,-100.82C333.09,-91.82 338.45,-81.29 342.12,-74.09"/>
<polygon fill="#63b8ff" stroke="#63b8ff" points="325.38,-99.25 323.96,-109.75 331.62,-102.43 325.38,-99.25"/>
</a>
</g>
</g>
<!-- Node9&#45;&gt;Node4 -->
<g id="edge14_Node000009_Node000004" class="edge">
<title>Node9&#45;&gt;Node4</title>
<g id="a_edge14_Node000009_Node000004"><a xlink:title=" ">
<path fill="none" stroke="#63b8ff" d="M433.91,-101.22C424.52,-87.14 409.68,-67.6 392.5,-55 369.06,-37.81 338.06,-26.11 314.78,-19.04"/>
<polygon fill="#63b8ff" stroke="#63b8ff" points="431.15,-103.4 439.49,-109.94 437.05,-99.63 431.15,-103.4"/>
</a>
</g>
</g>
<!-- Node10 -->
<g id="Node000010" class="node">
<title>Node10</title>
<g id="a_Node000010"><a xlink:href="stdstreams_8c_source.html" target="_top" xlink:title=" ">
<polygon fill="white" stroke="#666666" points="537,-74 440,-74 440,-55 537,-55 537,-74"/>
<text text-anchor="middle" x="488.5" y="-62" font-family="Helvetica,sans-Serif" font-size="10.00">src/stdstreams.c</text>
</a>
</g>
</g>
<!-- Node9&#45;&gt;Node10 -->
<g id="edge15_Node000009_Node000010" class="edge">
<title>Node9&#45;&gt;Node10</title>
<g id="a_edge15_Node000009_Node000010"><a xlink:title=" ">
<path fill="none" stroke="#63b8ff" d="M458.23,-101.96C465.9,-92.72 475.13,-81.6 481.37,-74.09"/>
<polygon fill="#63b8ff" stroke="#63b8ff" points="455.46,-99.82 451.77,-109.75 460.85,-104.29 455.46,-99.82"/>
</a>
</g>
</g>
</g>
</svg>
