<?xml version="1.0" encoding="UTF-8" standalone="no"?>
<!DOCTYPE svg PUBLIC "-//W3C//DTD SVG 1.1//EN"
 "http://www.w3.org/Graphics/SVG/1.1/DTD/svg11.dtd">
<!-- Generated by graphviz version 2.43.0 (0)
 -->
<!-- Title: src/poller/poller_kqueue.c Pages: 1 -->
<svg width="788pt" height="247pt"
 viewBox="0.00 0.00 788.00 247.00" xmlns="http://www.w3.org/2000/svg" xmlns:xlink="http://www.w3.org/1999/xlink">
<g id="graph0" class="graph" transform="scale(1 1) rotate(0) translate(4 243)">
<title>src/poller/poller_kqueue.c</title>
<!-- Node1 -->
<g id="Node000001" class="node">
<title>Node1</title>
<g id="a_Node000001"><a xlink:title="macOS/BSD kqueue backend for poller.h.">
<polygon fill="#999999" stroke="#666666" points="633,-239 491,-239 491,-220 633,-220 633,-239"/>
<text text-anchor="middle" x="562" y="-227" font-family="Helvetica,sans-Serif" font-size="10.00">src/poller/poller_kqueue.c</text>
</a>
</g>
</g>
<!-- Node2 -->
<g id="Node000002" class="node">
<title>Node2</title>
<g id="a_Node000002"><a xlink:href="poller__internal_8h.html" target="_top" xlink:title="Shared state between the poller backends (epoll / kqueue / win32).">
<polygon fill="white" stroke="#666666" points="507,-184 411,-184 411,-165 507,-165 507,-184"/>
<text text-anchor="middle" x="459" y="-172" font-family="Helvetica,sans-Serif" font-size="10.00">poller_internal.h</text>
</a>
</g>
</g>
<!-- Node1&#45;&gt;Node2 -->
<g id="edge1_Node000001_Node000002" class="edge">
<title>Node1&#45;&gt;Node2</title>
<g id="a_edge1_Node000001_Node000002"><a xlink:title=" ">
<path fill="none" stroke="#63b8ff" d="M545.45,-219.98C529.11,-211.57 503.87,-198.59 484.87,-188.81"/>
<polygon fill="#63b8ff" stroke="#63b8ff" points="486.34,-185.63 475.85,-184.17 483.14,-191.86 486.34,-185.63"/>
</a>
</g>
</g>
<!-- Node10 -->
<g id="Node000010" class="node">
<title>Node10</title>
<g id="a_Node000010"><a xlink:title=" ">
<polygon fill="#e0e0e0" stroke="#999999" points="556.5,-19 503.5,-19 503.5,0 556.5,0 556.5,-19"/>
<text text-anchor="middle" x="530" y="-7" font-family="Helvetica,sans-Serif" font-size="10.00">stdlib.h</text>
</a>
</g>
</g>
<!-- Node1&#45;&gt;Node10 -->
<g id="edge17_Node000001_Node000010" class="edge">
<title>Node1&#45;&gt;Node10</title>
<g id="a_edge17_Node000001_Node000010"><a xlink:title=" ">
<path fill="none" stroke="#63b8ff" d="M560.63,-219.97C559.19,-211.02 556.89,-196.53 555,-184 546.52,-127.72 537.09,-61.07 532.62,-29.24"/>
<polygon fill="#63b8ff" stroke="#63b8ff" points="536.06,-28.59 531.21,-19.17 529.13,-29.56 536.06,-28.59"/>
</a>
</g>
</g>
<!-- Node11 -->
<g id="Node000011" class="node">
<title>Node11</title>
<g id="a_Node000011"><a xlink:title=" ">
<polygon fill="#e0e0e0" stroke="#999999" points="485.5,-19 432.5,-19 432.5,0 485.5,0 485.5,-19"/>
<text text-anchor="middle" x="459" y="-7" font-family="Helvetica,sans-Serif" font-size="10.00">string.h</text>
</a>
</g>
</g>
<!-- Node1&#45;&gt;Node11 -->
<g id="edge18_Node000001_Node000011" class="edge">
<title>Node1&#45;&gt;Node11</title>
<g id="a_edge18_Node000001_Node000011"><a xlink:title=" ">
<path fill="none" stroke="#63b8ff" d="M504.56,-219.97C463.96,-212.63 414.6,-200.59 402,-184 364.67,-134.87 417.04,-60.17 444.3,-27.17"/>
<polygon fill="#63b8ff" stroke="#63b8ff" points="447.12,-29.26 450.92,-19.37 441.78,-24.73 447.12,-29.26"/>
</a>
</g>
</g>
<!-- Node14 -->
<g id="Node000014" class="node">
<title>Node14</title>
<g id="a_Node000014"><a xlink:title=" ">
<polygon fill="#e0e0e0" stroke="#999999" points="614.5,-184 563.5,-184 563.5,-165 614.5,-165 614.5,-184"/>
<text text-anchor="middle" x="589" y="-172" font-family="Helvetica,sans-Serif" font-size="10.00">errno.h</text>
</a>
</g>
</g>
<!-- Node1&#45;&gt;Node14 -->
<g id="edge16_Node000001_Node000014" class="edge">
<title>Node1&#45;&gt;Node14</title>
<g id="a_edge16_Node000001_Node000014"><a xlink:title=" ">
<path fill="none" stroke="#63b8ff" d="M566.46,-219.75C570.12,-212.57 575.41,-202.18 579.95,-193.27"/>
<polygon fill="#63b8ff" stroke="#63b8ff" points="583.2,-194.59 584.62,-184.09 576.97,-191.41 583.2,-194.59"/>
</a>
</g>
</g>
<!-- Node15 -->
<g id="Node000015" class="node">
<title>Node15</title>
<g id="a_Node000015"><a xlink:title=" ">
<polygon fill="#e0e0e0" stroke="#999999" points="705.5,-184 632.5,-184 632.5,-165 705.5,-165 705.5,-184"/>
<text text-anchor="middle" x="669" y="-172" font-family="Helvetica,sans-Serif" font-size="10.00">sys/event.h</text>
</a>
</g>
</g>
<!-- Node1&#45;&gt;Node15 -->
<g id="edge19_Node000001_Node000015" class="edge">
<title>Node1&#45;&gt;Node15</title>
<g id="a_edge19_Node000001_Node000015"><a xlink:title=" ">
<path fill="none" stroke="#63b8ff" d="M579.19,-219.98C596.25,-211.54 622.63,-198.47 642.4,-188.68"/>
<polygon fill="#63b8ff" stroke="#63b8ff" points="644.09,-191.75 651.5,-184.17 640.98,-185.47 644.09,-191.75"/>
</a>
</g>
</g>
<!-- Node16 -->
<g id="Node000016" class="node">
<title>Node16</title>
<g id="a_Node000016"><a xlink:title=" ">
<polygon fill="#e0e0e0" stroke="#999999" points="780,-184 724,-184 724,-165 780,-165 780,-184"/>
<text text-anchor="middle" x="752" y="-172" font-family="Helvetica,sans-Serif" font-size="10.00">unistd.h</text>
</a>
</g>
</g>
<!-- Node1&#45;&gt;Node16 -->
<g id="edge20_Node000001_Node000016" class="edge">
<title>Node1&#45;&gt;Node16</title>
<g id="a_edge20_Node000001_Node000016"><a xlink:title=" ">
<path fill="none" stroke="#63b8ff" d="M592.53,-219.98C625.47,-210.8 677.98,-196.15 713.68,-186.19"/>
<polygon fill="#63b8ff" stroke="#63b8ff" points="715.03,-189.45 723.72,-183.39 713.15,-182.7 715.03,-189.45"/>
</a>
</g>
</g>
<!-- Node3 -->
<g id="Node000003" class="node">
<title>Node3</title>
<g id="a_Node000003"><a xlink:href="poller_8h.html" target="_top" xlink:title="Cross&#45;platform readiness polling for high&#45;performance servers.">
<polygon fill="white" stroke="#666666" points="323.5,-129 214.5,-129 214.5,-110 323.5,-110 323.5,-129"/>
<text text-anchor="middle" x="269" y="-117" font-family="Helvetica,sans-Serif" font-size="10.00">../../include/poller.h</text>
</a>
</g>
</g>
<!-- Node2&#45;&gt;Node3 -->
<g id="edge2_Node000002_Node000003" class="edge">
<title>Node2&#45;&gt;Node3</title>
<g id="a_edge2_Node000002_Node000003"><a xlink:title=" ">
<path fill="none" stroke="#63b8ff" d="M428.47,-164.98C396.3,-156.01 345.44,-141.82 309.83,-131.89"/>
<polygon fill="#63b8ff" stroke="#63b8ff" points="310.34,-128.4 299.77,-129.08 308.46,-135.14 310.34,-128.4"/>
</a>
</g>
</g>
<!-- Node2&#45;&gt;Node10 -->
<g id="edge14_Node000002_Node000010" class="edge">
<title>Node2&#45;&gt;Node10</title>
<g id="a_edge14_Node000002_Node000010"><a xlink:title=" ">
<path fill="none" stroke="#63b8ff" d="M462.82,-164.74C473.99,-139.09 506.79,-63.78 522.04,-28.78"/>
<polygon fill="#63b8ff" stroke="#63b8ff" points="525.38,-29.87 526.16,-19.31 518.96,-27.08 525.38,-29.87"/>
</a>
</g>
</g>
<!-- Node2&#45;&gt;Node11 -->
<g id="edge15_Node000002_Node000011" class="edge">
<title>Node2&#45;&gt;Node11</title>
<g id="a_edge15_Node000002_Node000011"><a xlink:title=" ">
<path fill="none" stroke="#63b8ff" d="M459,-164.74C459,-139.31 459,-65.08 459,-29.69"/>
<polygon fill="#63b8ff" stroke="#63b8ff" points="462.5,-29.31 459,-19.31 455.5,-29.31 462.5,-29.31"/>
</a>
</g>
</g>
<!-- Node4 -->
<g id="Node000004" class="node">
<title>Node4</title>
<g id="a_Node000004"><a xlink:href="macros_8h.html" target="_top" xlink:title="Portable utility macros for assertions, memory, math, iteration, timing, and platform compatibility.">
<polygon fill="white" stroke="#666666" points="272,-74 210,-74 210,-55 272,-55 272,-74"/>
<text text-anchor="middle" x="241" y="-62" font-family="Helvetica,sans-Serif" font-size="10.00">macros.h</text>
</a>
</g>
</g>
<!-- Node3&#45;&gt;Node4 -->
<g id="edge3_Node000003_Node000004" class="edge">
<title>Node3&#45;&gt;Node4</title>
<g id="a_edge3_Node000003_Node000004"><a xlink:title=" ">
<path fill="none" stroke="#63b8ff" d="M264.38,-109.75C260.54,-102.49 254.98,-91.95 250.24,-82.98"/>
<polygon fill="#63b8ff" stroke="#63b8ff" points="253.3,-81.3 245.54,-74.09 247.11,-84.57 253.3,-81.3"/>
</a>
</g>
</g>
<!-- Node7 -->
<g id="Node000007" class="node">
<title>Node7</title>
<g id="a_Node000007"><a xlink:title=" ">
<polygon fill="#e0e0e0" stroke="#999999" points="56,-19 0,-19 0,0 56,0 56,-19"/>
<text text-anchor="middle" x="28" y="-7" font-family="Helvetica,sans-Serif" font-size="10.00">stddef.h</text>
</a>
</g>
</g>
<!-- Node3&#45;&gt;Node7 -->
<g id="edge13_Node000003_Node000007" class="edge">
<title>Node3&#45;&gt;Node7</title>
<g id="a_edge13_Node000003_Node000007"><a xlink:title=" ">
<path fill="none" stroke="#63b8ff" d="M249.69,-109.84C207.28,-90.84 105.85,-45.39 56.27,-23.17"/>
<polygon fill="#63b8ff" stroke="#63b8ff" points="57.63,-19.94 47.07,-19.05 54.77,-26.33 57.63,-19.94"/>
</a>
</g>
</g>
<!-- Node13 -->
<g id="Node000013" class="node">
<title>Node13</title>
<g id="a_Node000013"><a xlink:title=" ">
<polygon fill="#e0e0e0" stroke="#999999" points="352,-74 290,-74 290,-55 352,-55 352,-74"/>
<text text-anchor="middle" x="321" y="-62" font-family="Helvetica,sans-Serif" font-size="10.00">stdbool.h</text>
</a>
</g>
</g>
<!-- Node3&#45;&gt;Node13 -->
<g id="edge12_Node000003_Node000013" class="edge">
<title>Node3&#45;&gt;Node13</title>
<g id="a_edge12_Node000003_Node000013"><a xlink:title=" ">
<path fill="none" stroke="#63b8ff" d="M277.59,-109.75C285.16,-102.03 296.38,-90.6 305.51,-81.28"/>
<polygon fill="#63b8ff" stroke="#63b8ff" points="308.07,-83.68 312.57,-74.09 303.07,-78.78 308.07,-83.68"/>
</a>
</g>
</g>
<!-- Node5 -->
<g id="Node000005" class="node">
<title>Node5</title>
<g id="a_Node000005"><a xlink:title=" ">
<polygon fill="#e0e0e0" stroke="#999999" points="331.5,-19 280.5,-19 280.5,0 331.5,0 331.5,-19"/>
<text text-anchor="middle" x="306" y="-7" font-family="Helvetica,sans-Serif" font-size="10.00">math.h</text>
</a>
</g>
</g>
<!-- Node4&#45;&gt;Node5 -->
<g id="edge4_Node000004_Node000005" class="edge">
<title>Node4&#45;&gt;Node5</title>
<g id="a_edge4_Node000004_Node000005"><a xlink:title=" ">
<path fill="none" stroke="#63b8ff" d="M251.44,-54.98C261.15,-47.07 275.82,-35.11 287.5,-25.58"/>
<polygon fill="#63b8ff" stroke="#63b8ff" points="289.83,-28.2 295.37,-19.17 285.4,-22.78 289.83,-28.2"/>
</a>
</g>
</g>
<!-- Node6 -->
<g id="Node000006" class="node">
<title>Node6</title>
<g id="a_Node000006"><a xlink:title=" ">
<polygon fill="#e0e0e0" stroke="#999999" points="414.5,-19 349.5,-19 349.5,0 414.5,0 414.5,-19"/>
<text text-anchor="middle" x="382" y="-7" font-family="Helvetica,sans-Serif" font-size="10.00">stdalign.h</text>
</a>
</g>
</g>
<!-- Node4&#45;&gt;Node6 -->
<g id="edge5_Node000004_Node000006" class="edge">
<title>Node4&#45;&gt;Node6</title>
<g id="a_edge5_Node000004_Node000006"><a xlink:title=" ">
<path fill="none" stroke="#63b8ff" d="M263.65,-54.98C286.85,-46.27 323.12,-32.63 349.4,-22.75"/>
<polygon fill="#63b8ff" stroke="#63b8ff" points="350.8,-25.97 358.93,-19.17 348.34,-19.41 350.8,-25.97"/>
</a>
</g>
</g>
<!-- Node4&#45;&gt;Node7 -->
<g id="edge6_Node000004_Node000007" class="edge">
<title>Node4&#45;&gt;Node7</title>
<g id="a_edge6_Node000004_Node000007"><a xlink:title=" ">
<path fill="none" stroke="#63b8ff" d="M209.57,-55.68C171.38,-46.18 106.98,-30.15 66.03,-19.96"/>
<polygon fill="#63b8ff" stroke="#63b8ff" points="66.7,-16.52 56.15,-17.51 65.01,-23.32 66.7,-16.52"/>
</a>
</g>
</g>
<!-- Node8 -->
<g id="Node000008" class="node">
<title>Node8</title>
<g id="a_Node000008"><a xlink:title=" ">
<polygon fill="#e0e0e0" stroke="#999999" points="127.5,-19 74.5,-19 74.5,0 127.5,0 127.5,-19"/>
<text text-anchor="middle" x="101" y="-7" font-family="Helvetica,sans-Serif" font-size="10.00">stdint.h</text>
</a>
</g>
</g>
<!-- Node4&#45;&gt;Node8 -->
<g id="edge7_Node000004_Node000008" class="edge">
<title>Node4&#45;&gt;Node8</title>
<g id="a_edge7_Node000004_Node000008"><a xlink:title=" ">
<path fill="none" stroke="#63b8ff" d="M218.51,-54.98C195.48,-46.27 159.46,-32.63 133.37,-22.75"/>
<polygon fill="#63b8ff" stroke="#63b8ff" points="134.49,-19.44 123.9,-19.17 132.02,-25.98 134.49,-19.44"/>
</a>
</g>
</g>
<!-- Node9 -->
<g id="Node000009" class="node">
<title>Node9</title>
<g id="a_Node000009"><a xlink:title=" ">
<polygon fill="#e0e0e0" stroke="#999999" points="196,-19 146,-19 146,0 196,0 196,-19"/>
<text text-anchor="middle" x="171" y="-7" font-family="Helvetica,sans-Serif" font-size="10.00">stdio.h</text>
</a>
</g>
</g>
<!-- Node4&#45;&gt;Node9 -->
<g id="edge8_Node000004_Node000009" class="edge">
<title>Node4&#45;&gt;Node9</title>
<g id="a_edge8_Node000004_Node000009"><a xlink:title=" ">
<path fill="none" stroke="#63b8ff" d="M229.75,-54.98C219.2,-47 203.2,-34.88 190.56,-25.31"/>
<polygon fill="#63b8ff" stroke="#63b8ff" points="192.54,-22.42 182.45,-19.17 188.31,-28 192.54,-22.42"/>
</a>
</g>
</g>
<!-- Node4&#45;&gt;Node10 -->
<g id="edge9_Node000004_Node000010" class="edge">
<title>Node4&#45;&gt;Node10</title>
<g id="a_edge9_Node000004_Node000010"><a xlink:title=" ">
<path fill="none" stroke="#63b8ff" d="M272.42,-56.69C275.32,-56.11 278.21,-55.53 281,-55 372.18,-37.61 398.19,-37.99 493.26,-19.03"/>
<polygon fill="#63b8ff" stroke="#63b8ff" points="494.19,-22.41 503.31,-17 492.81,-15.55 494.19,-22.41"/>
</a>
</g>
</g>
<!-- Node4&#45;&gt;Node11 -->
<g id="edge10_Node000004_Node000011" class="edge">
<title>Node4&#45;&gt;Node11</title>
<g id="a_edge10_Node000004_Node000011"><a xlink:title=" ">
<path fill="none" stroke="#63b8ff" d="M272.23,-55.91C311.93,-46.25 380.35,-29.62 422.44,-19.39"/>
<polygon fill="#63b8ff" stroke="#63b8ff" points="423.39,-22.76 432.28,-17 421.74,-15.96 423.39,-22.76"/>
</a>
</g>
</g>
<!-- Node12 -->
<g id="Node000012" class="node">
<title>Node12</title>
<g id="a_Node000012"><a xlink:title=" ">
<polygon fill="#e0e0e0" stroke="#999999" points="262,-19 214,-19 214,0 262,0 262,-19"/>
<text text-anchor="middle" x="238" y="-7" font-family="Helvetica,sans-Serif" font-size="10.00">time.h</text>
</a>
</g>
</g>
<!-- Node4&#45;&gt;Node12 -->
<g id="edge11_Node000004_Node000012" class="edge">
<title>Node4&#45;&gt;Node12</title>
<g id="a_edge11_Node000004_Node000012"><a xlink:title=" ">
<path fill="none" stroke="#63b8ff" d="M240.5,-54.75C240.11,-47.8 239.55,-37.85 239.05,-29.13"/>
<polygon fill="#63b8ff" stroke="#63b8ff" points="242.55,-28.88 238.49,-19.09 235.56,-29.27 242.55,-28.88"/>
</a>
</g>
</g>
</g>
</svg>
