<?xml version="1.0" encoding="UTF-8" standalone="no"?>
<!DOCTYPE svg PUBLIC "-//W3C//DTD SVG 1.1//EN"
 "http://www.w3.org/Graphics/SVG/1.1/DTD/svg11.dtd">
<!-- Generated by graphviz version 2.43.0 (0)
 -->
<!-- Title: src/process.c Pages: 1 -->
<svg width="928pt" height="192pt"
 viewBox="0.00 0.00 928.00 192.00" xmlns="http://www.w3.org/2000/svg" xmlns:xlink="http://www.w3.org/1999/xlink">
<g id="graph0" class="graph" transform="scale(1 1) rotate(0) translate(4 188)">
<title>src/process.c</title>
<!-- Node1 -->
<g id="Node000001" class="node">
<title>Node1</title>
<g id="a_Node000001"><a xlink:title="Implementation of the process management API.">
<polygon fill="#999999" stroke="#666666" points="780,-184 700,-184 700,-165 780,-165 780,-184"/>
<text text-anchor="middle" x="740" y="-172" font-family="Helvetica,sans-Serif" font-size="10.00">src/process.c</text>
</a>
</g>
</g>
<!-- Node2 -->
<g id="Node000002" class="node">
<title>Node2</title>
<g id="a_Node000002"><a xlink:href="process_8h.html" target="_top" xlink:title="A modern, cross&#45;platform API for process management and IPC.">
<polygon fill="white" stroke="#666666" points="506,-129 396,-129 396,-110 506,-110 506,-129"/>
<text text-anchor="middle" x="451" y="-117" font-family="Helvetica,sans-Serif" font-size="10.00">../include/process.h</text>
</a>
</g>
</g>
<!-- Node1&#45;&gt;Node2 -->
<g id="edge1_Node000001_Node000002" class="edge">
<title>Node1&#45;&gt;Node2</title>
<g id="a_edge1_Node000001_Node000002"><a xlink:title=" ">
<path fill="none" stroke="#63b8ff" d="M699.82,-166.13C649.78,-156.95 564,-141.22 507.4,-130.84"/>
<polygon fill="#63b8ff" stroke="#63b8ff" points="508,-127.4 497.53,-129.03 506.74,-134.28 508,-127.4"/>
</a>
</g>
</g>
<!-- Node15 -->
<g id="Node000015" class="node">
<title>Node15</title>
<g id="a_Node000015"><a xlink:title=" ">
<polygon fill="#e0e0e0" stroke="#999999" points="920,-74 864,-74 864,-55 920,-55 920,-74"/>
<text text-anchor="middle" x="892" y="-62" font-family="Helvetica,sans-Serif" font-size="10.00">unistd.h</text>
</a>
</g>
</g>
<!-- Node1&#45;&gt;Node15 -->
<g id="edge18_Node000001_Node000015" class="edge">
<title>Node1&#45;&gt;Node15</title>
<g id="a_edge18_Node000001_Node000015"><a xlink:title=" ">
<path fill="none" stroke="#63b8ff" d="M735.31,-164.69C728.97,-151.4 719.77,-126.1 732,-110 735.78,-105.02 807.84,-86.38 853.95,-74.86"/>
<polygon fill="#63b8ff" stroke="#63b8ff" points="855.07,-78.19 863.92,-72.38 853.38,-71.39 855.07,-78.19"/>
</a>
</g>
</g>
<!-- Node16 -->
<g id="Node000016" class="node">
<title>Node16</title>
<g id="a_Node000016"><a xlink:title=" ">
<polygon fill="#e0e0e0" stroke="#999999" points="792.5,-129 741.5,-129 741.5,-110 792.5,-110 792.5,-129"/>
<text text-anchor="middle" x="767" y="-117" font-family="Helvetica,sans-Serif" font-size="10.00">errno.h</text>
</a>
</g>
</g>
<!-- Node1&#45;&gt;Node16 -->
<g id="edge16_Node000001_Node000016" class="edge">
<title>Node1&#45;&gt;Node16</title>
<g id="a_edge16_Node000001_Node000016"><a xlink:title=" ">
<path fill="none" stroke="#63b8ff" d="M744.46,-164.75C748.12,-157.57 753.41,-147.18 757.95,-138.27"/>
<polygon fill="#63b8ff" stroke="#63b8ff" points="761.2,-139.59 762.62,-129.09 754.97,-136.41 761.2,-139.59"/>
</a>
</g>
</g>
<!-- Node17 -->
<g id="Node000017" class="node">
<title>Node17</title>
<g id="a_Node000017"><a xlink:title=" ">
<polygon fill="#e0e0e0" stroke="#999999" points="867,-129 811,-129 811,-110 867,-110 867,-129"/>
<text text-anchor="middle" x="839" y="-117" font-family="Helvetica,sans-Serif" font-size="10.00">stddef.h</text>
</a>
</g>
</g>
<!-- Node1&#45;&gt;Node17 -->
<g id="edge17_Node000001_Node000017" class="edge">
<title>Node1&#45;&gt;Node17</title>
<g id="a_edge17_Node000001_Node000017"><a xlink:title=" ">
<path fill="none" stroke="#63b8ff" d="M755.91,-164.98C771.55,-156.61 795.66,-143.7 813.88,-133.95"/>
<polygon fill="#63b8ff" stroke="#63b8ff" points="815.64,-136.98 822.8,-129.17 812.34,-130.8 815.64,-136.98"/>
</a>
</g>
</g>
<!-- Node3 -->
<g id="Node000003" class="node">
<title>Node3</title>
<g id="a_Node000003"><a xlink:title=" ">
<polygon fill="#e0e0e0" stroke="#999999" points="56,-74 0,-74 0,-55 56,-55 56,-74"/>
<text text-anchor="middle" x="28" y="-62" font-family="Helvetica,sans-Serif" font-size="10.00">assert.h</text>
</a>
</g>
</g>
<!-- Node2&#45;&gt;Node3 -->
<g id="edge2_Node000002_Node000003" class="edge">
<title>Node2&#45;&gt;Node3</title>
<g id="a_edge2_Node000002_Node000003"><a xlink:title=" ">
<path fill="none" stroke="#63b8ff" d="M395.75,-114.07C322.56,-107.78 189.27,-94.83 66.19,-74.03"/>
<polygon fill="#63b8ff" stroke="#63b8ff" points="66.66,-70.56 56.22,-72.32 65.48,-77.46 66.66,-70.56"/>
</a>
</g>
</g>
<!-- Node4 -->
<g id="Node000004" class="node">
<title>Node4</title>
<g id="a_Node000004"><a xlink:title=" ">
<polygon fill="#e0e0e0" stroke="#999999" points="136,-74 74,-74 74,-55 136,-55 136,-74"/>
<text text-anchor="middle" x="105" y="-62" font-family="Helvetica,sans-Serif" font-size="10.00">stdbool.h</text>
</a>
</g>
</g>
<!-- Node2&#45;&gt;Node4 -->
<g id="edge3_Node000002_Node000004" class="edge">
<title>Node2&#45;&gt;Node4</title>
<g id="a_edge3_Node000002_Node000004"><a xlink:title=" ">
<path fill="none" stroke="#63b8ff" d="M395.82,-111.57C336.52,-103.88 239.26,-90.56 146.26,-74.13"/>
<polygon fill="#63b8ff" stroke="#63b8ff" points="146.86,-70.68 136.41,-72.37 145.64,-77.57 146.86,-70.68"/>
</a>
</g>
</g>
<!-- Node5 -->
<g id="Node000005" class="node">
<title>Node5</title>
<g id="a_Node000005"><a xlink:title=" ">
<polygon fill="#e0e0e0" stroke="#999999" points="204,-74 154,-74 154,-55 204,-55 204,-74"/>
<text text-anchor="middle" x="179" y="-62" font-family="Helvetica,sans-Serif" font-size="10.00">stdio.h</text>
</a>
</g>
</g>
<!-- Node2&#45;&gt;Node5 -->
<g id="edge4_Node000002_Node000005" class="edge">
<title>Node2&#45;&gt;Node5</title>
<g id="a_edge4_Node000002_Node000005"><a xlink:title=" ">
<path fill="none" stroke="#63b8ff" d="M404.51,-109.99C357.43,-101.28 282.56,-87.2 218,-74 216.74,-73.74 215.46,-73.48 214.16,-73.21"/>
<polygon fill="#63b8ff" stroke="#63b8ff" points="214.66,-69.74 204.16,-71.08 213.21,-76.58 214.66,-69.74"/>
</a>
</g>
</g>
<!-- Node6 -->
<g id="Node000006" class="node">
<title>Node6</title>
<g id="a_Node000006"><a xlink:title=" ">
<polygon fill="#e0e0e0" stroke="#999999" points="352.5,-19 299.5,-19 299.5,0 352.5,0 352.5,-19"/>
<text text-anchor="middle" x="326" y="-7" font-family="Helvetica,sans-Serif" font-size="10.00">stdlib.h</text>
</a>
</g>
</g>
<!-- Node2&#45;&gt;Node6 -->
<g id="edge5_Node000002_Node000006" class="edge">
<title>Node2&#45;&gt;Node6</title>
<g id="a_edge5_Node000002_Node000006"><a xlink:title=" ">
<path fill="none" stroke="#63b8ff" d="M395.72,-113.84C342.94,-108.11 268.86,-96.27 251,-74 234.58,-53.52 264.99,-34.72 291.87,-22.98"/>
<polygon fill="#63b8ff" stroke="#63b8ff" points="293.25,-26.2 301.14,-19.13 290.57,-19.73 293.25,-26.2"/>
</a>
</g>
</g>
<!-- Node7 -->
<g id="Node000007" class="node">
<title>Node7</title>
<g id="a_Node000007"><a xlink:title=" ">
<polygon fill="#e0e0e0" stroke="#999999" points="313.5,-74 260.5,-74 260.5,-55 313.5,-55 313.5,-74"/>
<text text-anchor="middle" x="287" y="-62" font-family="Helvetica,sans-Serif" font-size="10.00">string.h</text>
</a>
</g>
</g>
<!-- Node2&#45;&gt;Node7 -->
<g id="edge6_Node000002_Node000007" class="edge">
<title>Node2&#45;&gt;Node7</title>
<g id="a_edge6_Node000002_Node000007"><a xlink:title=" ">
<path fill="none" stroke="#63b8ff" d="M424.65,-109.98C397.24,-101.13 354.11,-87.19 323.44,-77.28"/>
<polygon fill="#63b8ff" stroke="#63b8ff" points="324.15,-73.83 313.56,-74.08 322,-80.49 324.15,-73.83"/>
</a>
</g>
</g>
<!-- Node8 -->
<g id="Node000008" class="node">
<title>Node8</title>
<g id="a_Node000008"><a xlink:title=" ">
<polygon fill="#e0e0e0" stroke="#999999" points="380,-74 332,-74 332,-55 380,-55 380,-74"/>
<text text-anchor="middle" x="356" y="-62" font-family="Helvetica,sans-Serif" font-size="10.00">time.h</text>
</a>
</g>
</g>
<!-- Node2&#45;&gt;Node8 -->
<g id="edge7_Node000002_Node000008" class="edge">
<title>Node2&#45;&gt;Node8</title>
<g id="a_edge7_Node000002_Node000008"><a xlink:title=" ">
<path fill="none" stroke="#63b8ff" d="M435.74,-109.98C420.87,-101.69 398.02,-88.94 380.58,-79.22"/>
<polygon fill="#63b8ff" stroke="#63b8ff" points="381.98,-75.99 371.54,-74.17 378.57,-82.1 381.98,-75.99"/>
</a>
</g>
</g>
<!-- Node9 -->
<g id="Node000009" class="node">
<title>Node9</title>
<g id="a_Node000009"><a xlink:href="env_8h.html" target="_top" xlink:title="Environment variable utilities and safe access functions.">
<polygon fill="white" stroke="#666666" points="441.5,-74 398.5,-74 398.5,-55 441.5,-55 441.5,-74"/>
<text text-anchor="middle" x="420" y="-62" font-family="Helvetica,sans-Serif" font-size="10.00">env.h</text>
</a>
</g>
</g>
<!-- Node2&#45;&gt;Node9 -->
<g id="edge8_Node000002_Node000009" class="edge">
<title>Node2&#45;&gt;Node9</title>
<g id="a_edge8_Node000002_Node000009"><a xlink:title=" ">
<path fill="none" stroke="#63b8ff" d="M445.88,-109.75C441.64,-102.49 435.47,-91.95 430.22,-82.98"/>
<polygon fill="#63b8ff" stroke="#63b8ff" points="433.09,-80.95 425.02,-74.09 427.05,-84.49 433.09,-80.95"/>
</a>
</g>
</g>
<!-- Node10 -->
<g id="Node000010" class="node">
<title>Node10</title>
<g id="a_Node000010"><a xlink:title=" ">
<polygon fill="#e0e0e0" stroke="#999999" points="506.5,-74 459.5,-74 459.5,-55 506.5,-55 506.5,-74"/>
<text text-anchor="middle" x="483" y="-62" font-family="Helvetica,sans-Serif" font-size="10.00">fcntl.h</text>
</a>
</g>
</g>
<!-- Node2&#45;&gt;Node10 -->
<g id="edge10_Node000002_Node000010" class="edge">
<title>Node2&#45;&gt;Node10</title>
<g id="a_edge10_Node000002_Node000010"><a xlink:title=" ">
<path fill="none" stroke="#63b8ff" d="M456.28,-109.75C460.71,-102.42 467.16,-91.73 472.62,-82.7"/>
<polygon fill="#63b8ff" stroke="#63b8ff" points="475.64,-84.46 477.81,-74.09 469.65,-80.84 475.64,-84.46"/>
</a>
</g>
</g>
<!-- Node11 -->
<g id="Node000011" class="node">
<title>Node11</title>
<g id="a_Node000011"><a xlink:title=" ">
<polygon fill="#e0e0e0" stroke="#999999" points="579.5,-74 524.5,-74 524.5,-55 579.5,-55 579.5,-74"/>
<text text-anchor="middle" x="552" y="-62" font-family="Helvetica,sans-Serif" font-size="10.00">signal.h</text>
</a>
</g>
</g>
<!-- Node2&#45;&gt;Node11 -->
<g id="edge11_Node000002_Node000011" class="edge">
<title>Node2&#45;&gt;Node11</title>
<g id="a_edge11_Node000002_Node000011"><a xlink:title=" ">
<path fill="none" stroke="#63b8ff" d="M467.23,-109.98C483.18,-101.61 507.78,-88.7 526.38,-78.95"/>
<polygon fill="#63b8ff" stroke="#63b8ff" points="528.25,-81.92 535.48,-74.17 525,-75.72 528.25,-81.92"/>
</a>
</g>
</g>
<!-- Node12 -->
<g id="Node000012" class="node">
<title>Node12</title>
<g id="a_Node000012"><a xlink:title=" ">
<polygon fill="#e0e0e0" stroke="#999999" points="672,-74 598,-74 598,-55 672,-55 672,-74"/>
<text text-anchor="middle" x="635" y="-62" font-family="Helvetica,sans-Serif" font-size="10.00">sys/select.h</text>
</a>
</g>
</g>
<!-- Node2&#45;&gt;Node12 -->
<g id="edge12_Node000002_Node000012" class="edge">
<title>Node2&#45;&gt;Node12</title>
<g id="a_edge12_Node000002_Node000012"><a xlink:title=" ">
<path fill="none" stroke="#63b8ff" d="M480.56,-109.98C511.72,-101.01 560.97,-86.82 595.46,-76.89"/>
<polygon fill="#63b8ff" stroke="#63b8ff" points="596.57,-80.21 605.21,-74.08 594.63,-73.49 596.57,-80.21"/>
</a>
</g>
</g>
<!-- Node13 -->
<g id="Node000013" class="node">
<title>Node13</title>
<g id="a_Node000013"><a xlink:title=" ">
<polygon fill="#e0e0e0" stroke="#999999" points="762,-74 690,-74 690,-55 762,-55 762,-74"/>
<text text-anchor="middle" x="726" y="-62" font-family="Helvetica,sans-Serif" font-size="10.00">sys/types.h</text>
</a>
</g>
</g>
<!-- Node2&#45;&gt;Node13 -->
<g id="edge13_Node000002_Node000013" class="edge">
<title>Node2&#45;&gt;Node13</title>
<g id="a_edge13_Node000002_Node000013"><a xlink:title=" ">
<path fill="none" stroke="#63b8ff" d="M495.18,-109.98C545.86,-100.22 628.54,-84.28 679.98,-74.37"/>
<polygon fill="#63b8ff" stroke="#63b8ff" points="680.67,-77.8 689.83,-72.47 679.35,-70.93 680.67,-77.8"/>
</a>
</g>
</g>
<!-- Node14 -->
<g id="Node000014" class="node">
<title>Node14</title>
<g id="a_Node000014"><a xlink:title=" ">
<polygon fill="#e0e0e0" stroke="#999999" points="846,-74 780,-74 780,-55 846,-55 846,-74"/>
<text text-anchor="middle" x="813" y="-62" font-family="Helvetica,sans-Serif" font-size="10.00">sys/wait.h</text>
</a>
</g>
</g>
<!-- Node2&#45;&gt;Node14 -->
<g id="edge14_Node000002_Node000014" class="edge">
<title>Node2&#45;&gt;Node14</title>
<g id="a_edge14_Node000002_Node000014"><a xlink:title=" ">
<path fill="none" stroke="#63b8ff" d="M506.08,-111.89C567.85,-104.23 671.24,-90.73 769.46,-74.18"/>
<polygon fill="#63b8ff" stroke="#63b8ff" points="770.29,-77.59 779.56,-72.46 769.12,-70.68 770.29,-77.59"/>
</a>
</g>
</g>
<!-- Node2&#45;&gt;Node15 -->
<g id="edge15_Node000002_Node000015" class="edge">
<title>Node2&#45;&gt;Node15</title>
<g id="a_edge15_Node000002_Node000015"><a xlink:title=" ">
<path fill="none" stroke="#63b8ff" d="M506.17,-114.46C582.24,-108.45 723.74,-95.64 853.66,-74.04"/>
<polygon fill="#63b8ff" stroke="#63b8ff" points="854.51,-77.45 863.79,-72.34 853.34,-70.55 854.51,-77.45"/>
</a>
</g>
</g>
<!-- Node9&#45;&gt;Node6 -->
<g id="edge9_Node000009_Node000006" class="edge">
<title>Node9&#45;&gt;Node6</title>
<g id="a_edge9_Node000009_Node000006"><a xlink:title=" ">
<path fill="none" stroke="#63b8ff" d="M404.9,-54.98C390.18,-46.69 367.58,-33.94 350.33,-24.22"/>
<polygon fill="#63b8ff" stroke="#63b8ff" points="351.81,-21.03 341.38,-19.17 348.37,-27.13 351.81,-21.03"/>
</a>
</g>
</g>
</g>
</svg>
