<?xml version="1.0" encoding="UTF-8" standalone="no"?>
<!DOCTYPE svg PUBLIC "-//W3C//DTD SVG 1.1//EN"
 "http://www.w3.org/Graphics/SVG/1.1/DTD/svg11.dtd">
<!-- Generated by graphviz version 2.43.0 (0)
 -->
<!-- Title: src/process.c Pages: 1 -->
<!--zoomable 192 -->

<svg id="main" version="1.1" xmlns="http://www.w3.org/2000/svg" xmlns:xlink="http://www.w3.org/1999/xlink" xml:space="preserve" onload="init(evt)">
<style type="text/css"><![CDATA[
.node, .edge {opacity: 0.7;}
.node.selected, .edge.selected {opacity: 1;}
.edge:hover path { stroke: red; }
.edge:hover polygon { stroke: red; fill: red; }
]]></style>

<defs>
  <circle id="rim" cx="0" cy="0" r="7"/>
  <circle id="rim2" cx="0" cy="0" r="3.5"/>
  <g id="zoomPlus">
    <use xlink:href="#rim" fill="#404040"><set attributeName="fill" to="#808080" begin="zoomplus.mouseover" end="zoomplus.mouseout"/></use>
    <path d="M-4,0h8M0,-4v8" fill="none" stroke="white" stroke-width="1.5" pointer-events="none"/>
  </g>
  <g id="zoomMin">
    <use xlink:href="#rim" fill="#404040"><set attributeName="fill" to="#808080" begin="zoomminus.mouseover" end="zoomminus.mouseout"/></use>
    <path d="M-4,0h8" fill="none" stroke="white" stroke-width="1.5" pointer-events="none"/>
  </g>
  <g id="arrowUp" transform="translate(30 24)">
    <use xlink:href="#rim"/>
    <path pointer-events="none" fill="none" stroke="white" stroke-width="1.5" d="M0,-3.0v7 M-2.5,-0.5L0,-3.0L2.5,-0.5"/>
  </g>
  <g id="arrowRight" transform="rotate(90) translate(36 -43)">
    <use xlink:href="#rim"/>
    <path pointer-events="none" fill="none" stroke="white" stroke-width="1.5" d="M0,-3.0v7 M-2.5,-0.5L0,-3.0L2.5,-0.5"/>
  </g>
  <g id="arrowDown" transform="rotate(180) translate(-30 -48)">
    <use xlink:href="#rim"/>
    <path pointer-events="none" fill="none" stroke="white" stroke-width="1.5" d="M0,-3.0v7 M-2.5,-0.5L0,-3.0L2.5,-0.5"/>
  </g>
  <g id="arrowLeft" transform="rotate(270) translate(-36 17)">
    <use xlink:href="#rim"/>
    <path pointer-events="none" fill="none" stroke="white" stroke-width="1.5" d="M0,-3.0v7 M-2.5,-0.5L0,-3.0L2.5,-0.5"/>
  </g>
  <g id="resetDef">
    <use xlink:href="#rim2" fill="#404040"><set attributeName="fill" to="#808080" begin="reset.mouseover" end="reset.mouseout"/></use>
  </g>
</defs>
<script type="application/ecmascript">
var viewWidth = 1325;
var viewHeight = 192;
var sectionId = 'dynsection-0';
</script>
<script type="application/ecmascript" xlink:href="svg.min.js"/>
<svg id="graph" class="graph">
<g id="viewport">
<title>src/process.c</title>
<!-- Node1 -->
<g id="Node000001" class="node">
<title>Node1</title>
<g id="a_Node000001"><a xlink:title="Implementation of the process management API.">
<polygon fill="#999999" stroke="#666666" points="587,-184 507,-184 507,-165 587,-165 587,-184"/>
<text text-anchor="middle" x="547" y="-172" font-family="Helvetica,sans-Serif" font-size="10.00">src/process.c</text>
</a>
</g>
</g>
<!-- Node2 -->
<g id="Node000002" class="node">
<title>Node2</title>
<g id="a_Node000002"><a xlink:href="process_8h.html" target="_top" xlink:title="A modern, cross&#45;platform API for process management and IPC.">
<polygon fill="white" stroke="#666666" points="886,-129 776,-129 776,-110 886,-110 886,-129"/>
<text text-anchor="middle" x="831" y="-117" font-family="Helvetica,sans-Serif" font-size="10.00">../include/process.h</text>
</a>
</g>
</g>
<!-- Node1&#45;&gt;Node2 -->
<g id="edge1_Node000001_Node000002" class="edge">
<title>Node1&#45;&gt;Node2</title>
<g id="a_edge1_Node000001_Node000002"><a xlink:title=" ">
<path fill="none" stroke="#63b8ff" d="M587.09,-166.02C636.17,-156.86 719.59,-141.29 774.99,-130.95"/>
<polygon fill="#63b8ff" stroke="#63b8ff" points="775.81,-134.36 785,-129.08 774.53,-127.48 775.81,-134.36"/>
</a>
</g>
</g>
<!-- Node15 -->
<g id="Node000015" class="node">
<title>Node15</title>
<g id="a_Node000015"><a xlink:title=" ">
<polygon fill="#e0e0e0" stroke="#999999" points="466,-74 410,-74 410,-55 466,-55 466,-74"/>
<text text-anchor="middle" x="438" y="-62" font-family="Helvetica,sans-Serif" font-size="10.00">unistd.h</text>
</a>
</g>
</g>
<!-- Node1&#45;&gt;Node15 -->
<g id="edge36_Node000001_Node000015" class="edge">
<title>Node1&#45;&gt;Node15</title>
<g id="a_edge36_Node000001_Node000015"><a xlink:title=" ">
<path fill="none" stroke="#63b8ff" d="M538.08,-164.66C519.71,-146.46 477.41,-104.55 454.12,-81.47"/>
<polygon fill="#63b8ff" stroke="#63b8ff" points="456.31,-78.71 446.74,-74.16 451.38,-83.68 456.31,-78.71"/>
</a>
</g>
</g>
<!-- Node16 -->
<g id="Node000016" class="node">
<title>Node16</title>
<g id="a_Node000016"><a xlink:href="file_8h.html" target="_top" xlink:title="Cross&#45;platform file handling API with synchronous and asynchronous I/O support.">
<polygon fill="white" stroke="#666666" points="444,-129 356,-129 356,-110 444,-110 444,-129"/>
<text text-anchor="middle" x="400" y="-117" font-family="Helvetica,sans-Serif" font-size="10.00">../include/file.h</text>
</a>
</g>
</g>
<!-- Node1&#45;&gt;Node16 -->
<g id="edge16_Node000001_Node000016" class="edge">
<title>Node1&#45;&gt;Node16</title>
<g id="a_edge16_Node000001_Node000016"><a xlink:title=" ">
<path fill="none" stroke="#63b8ff" d="M523.38,-164.98C499.1,-156.23 461.05,-142.51 433.63,-132.62"/>
<polygon fill="#63b8ff" stroke="#63b8ff" points="434.64,-129.27 424.05,-129.17 432.27,-135.85 434.64,-129.27"/>
</a>
</g>
</g>
<!-- Node18 -->
<g id="Node000018" class="node">
<title>Node18</title>
<g id="a_Node000018"><a xlink:title=" ">
<polygon fill="#e0e0e0" stroke="#999999" points="320,-74 264,-74 264,-55 320,-55 320,-74"/>
<text text-anchor="middle" x="292" y="-62" font-family="Helvetica,sans-Serif" font-size="10.00">stddef.h</text>
</a>
</g>
</g>
<!-- Node1&#45;&gt;Node18 -->
<g id="edge35_Node000001_Node000018" class="edge">
<title>Node1&#45;&gt;Node18</title>
<g id="a_edge35_Node000001_Node000018"><a xlink:title=" ">
<path fill="none" stroke="#63b8ff" d="M506.71,-171.91C464.26,-168.63 396.79,-158.71 347,-129 327.89,-117.6 312.02,-97.23 302.32,-82.63"/>
<polygon fill="#63b8ff" stroke="#63b8ff" points="305.17,-80.6 296.86,-74.03 299.26,-84.35 305.17,-80.6"/>
</a>
</g>
</g>
<!-- Node22 -->
<g id="Node000022" class="node">
<title>Node22</title>
<g id="a_Node000022"><a xlink:href="macros_8h.html" target="_top" xlink:title="Portable utility macros for assertions, memory, math, iteration, timing, and platform compatibility.">
<polygon fill="white" stroke="#666666" points="643.5,-129 534.5,-129 534.5,-110 643.5,-110 643.5,-129"/>
<text text-anchor="middle" x="589" y="-117" font-family="Helvetica,sans-Serif" font-size="10.00">../include/macros.h</text>
</a>
</g>
</g>
<!-- Node1&#45;&gt;Node22 -->
<g id="edge27_Node000001_Node000022" class="edge">
<title>Node1&#45;&gt;Node22</title>
<g id="a_edge27_Node000001_Node000022"><a xlink:title=" ">
<path fill="none" stroke="#63b8ff" d="M553.94,-164.75C559.87,-157.26 568.57,-146.28 575.82,-137.13"/>
<polygon fill="#63b8ff" stroke="#63b8ff" points="578.73,-139.1 582.19,-129.09 573.24,-134.75 578.73,-139.1"/>
</a>
</g>
</g>
<!-- Node23 -->
<g id="Node000023" class="node">
<title>Node23</title>
<g id="a_Node000023"><a xlink:title=" ">
<polygon fill="#e0e0e0" stroke="#999999" points="955.5,-129 904.5,-129 904.5,-110 955.5,-110 955.5,-129"/>
<text text-anchor="middle" x="930" y="-117" font-family="Helvetica,sans-Serif" font-size="10.00">errno.h</text>
</a>
</g>
</g>
<!-- Node1&#45;&gt;Node23 -->
<g id="edge34_Node000001_Node000023" class="edge">
<title>Node1&#45;&gt;Node23</title>
<g id="a_edge34_Node000001_Node000023"><a xlink:title=" ">
<path fill="none" stroke="#63b8ff" d="M587.15,-169.83C650.38,-163.73 777.17,-150.21 894.58,-128.87"/>
<polygon fill="#63b8ff" stroke="#63b8ff" points="895.26,-132.3 904.46,-127.05 893.99,-125.42 895.26,-132.3"/>
</a>
</g>
</g>
<!-- Node3 -->
<g id="Node000003" class="node">
<title>Node3</title>
<g id="a_Node000003"><a xlink:href="env_8h.html" target="_top" xlink:title="Environment variable utilities and safe access functions.">
<polygon fill="white" stroke="#666666" points="1038.5,-74 995.5,-74 995.5,-55 1038.5,-55 1038.5,-74"/>
<text text-anchor="middle" x="1017" y="-62" font-family="Helvetica,sans-Serif" font-size="10.00">env.h</text>
</a>
</g>
</g>
<!-- Node2&#45;&gt;Node3 -->
<g id="edge2_Node000002_Node000003" class="edge">
<title>Node2&#45;&gt;Node3</title>
<g id="a_edge2_Node000002_Node000003"><a xlink:title=" ">
<path fill="none" stroke="#63b8ff" d="M860.88,-109.98C895.09,-100.24 950.87,-84.34 985.67,-74.43"/>
<polygon fill="#63b8ff" stroke="#63b8ff" points="986.67,-77.78 995.33,-71.68 984.75,-71.05 986.67,-77.78"/>
</a>
</g>
</g>
<!-- Node4 -->
<g id="Node000004" class="node">
<title>Node4</title>
<g id="a_Node000004"><a xlink:title=" ">
<polygon fill="#e0e0e0" stroke="#999999" points="1043.5,-19 990.5,-19 990.5,0 1043.5,0 1043.5,-19"/>
<text text-anchor="middle" x="1017" y="-7" font-family="Helvetica,sans-Serif" font-size="10.00">stdlib.h</text>
</a>
</g>
</g>
<!-- Node2&#45;&gt;Node4 -->
<g id="edge7_Node000002_Node000004" class="edge">
<title>Node2&#45;&gt;Node4</title>
<g id="a_edge7_Node000002_Node000004"><a xlink:title=" ">
<path fill="none" stroke="#63b8ff" d="M886.13,-110.86C946.99,-101.86 1037.76,-86.55 1048,-74 1059.8,-59.54 1046.62,-39.84 1033.99,-26.23"/>
<polygon fill="#63b8ff" stroke="#63b8ff" points="1036.34,-23.63 1026.81,-19.01 1031.38,-28.57 1036.34,-23.63"/>
</a>
</g>
</g>
<!-- Node5 -->
<g id="Node000005" class="node">
<title>Node5</title>
<g id="a_Node000005"><a xlink:title=" ">
<polygon fill="#e0e0e0" stroke="#999999" points="1151,-74 1095,-74 1095,-55 1151,-55 1151,-74"/>
<text text-anchor="middle" x="1123" y="-62" font-family="Helvetica,sans-Serif" font-size="10.00">assert.h</text>
</a>
</g>
</g>
<!-- Node2&#45;&gt;Node5 -->
<g id="edge4_Node000002_Node000005" class="edge">
<title>Node2&#45;&gt;Node5</title>
<g id="a_edge4_Node000002_Node000005"><a xlink:title=" ">
<path fill="none" stroke="#63b8ff" d="M880.87,-109.98C931.37,-101.27 1011.71,-87.18 1081,-74 1082.1,-73.79 1083.21,-73.58 1084.33,-73.36"/>
<polygon fill="#63b8ff" stroke="#63b8ff" points="1085.41,-76.72 1094.55,-71.35 1084.06,-69.85 1085.41,-76.72"/>
</a>
</g>
</g>
<!-- Node6 -->
<g id="Node000006" class="node">
<title>Node6</title>
<g id="a_Node000006"><a xlink:title=" ">
<polygon fill="#e0e0e0" stroke="#999999" points="546,-74 484,-74 484,-55 546,-55 546,-74"/>
<text text-anchor="middle" x="515" y="-62" font-family="Helvetica,sans-Serif" font-size="10.00">stdbool.h</text>
</a>
</g>
</g>
<!-- Node2&#45;&gt;Node6 -->
<g id="edge5_Node000002_Node000006" class="edge">
<title>Node2&#45;&gt;Node6</title>
<g id="a_edge5_Node000002_Node000006"><a xlink:title=" ">
<path fill="none" stroke="#63b8ff" d="M775.88,-110.43C722.25,-102.4 638.22,-89.33 556.38,-74.19"/>
<polygon fill="#63b8ff" stroke="#63b8ff" points="556.89,-70.72 546.41,-72.33 555.6,-77.6 556.89,-70.72"/>
</a>
</g>
</g>
<!-- Node7 -->
<g id="Node000007" class="node">
<title>Node7</title>
<g id="a_Node000007"><a xlink:title=" ">
<polygon fill="#e0e0e0" stroke="#999999" points="614,-74 564,-74 564,-55 614,-55 614,-74"/>
<text text-anchor="middle" x="589" y="-62" font-family="Helvetica,sans-Serif" font-size="10.00">stdio.h</text>
</a>
</g>
</g>
<!-- Node2&#45;&gt;Node7 -->
<g id="edge6_Node000002_Node000007" class="edge">
<title>Node2&#45;&gt;Node7</title>
<g id="a_edge6_Node000002_Node000007"><a xlink:title=" ">
<path fill="none" stroke="#63b8ff" d="M792.12,-109.98C745.64,-99.8 668.54,-82.92 623.9,-73.14"/>
<polygon fill="#63b8ff" stroke="#63b8ff" points="624.6,-69.71 614.08,-70.99 623.1,-76.55 624.6,-69.71"/>
</a>
</g>
</g>
<!-- Node8 -->
<g id="Node000008" class="node">
<title>Node8</title>
<g id="a_Node000008"><a xlink:title=" ">
<polygon fill="#e0e0e0" stroke="#999999" points="788.5,-74 735.5,-74 735.5,-55 788.5,-55 788.5,-74"/>
<text text-anchor="middle" x="762" y="-62" font-family="Helvetica,sans-Serif" font-size="10.00">string.h</text>
</a>
</g>
</g>
<!-- Node2&#45;&gt;Node8 -->
<g id="edge8_Node000002_Node000008" class="edge">
<title>Node2&#45;&gt;Node8</title>
<g id="a_edge8_Node000002_Node000008"><a xlink:title=" ">
<path fill="none" stroke="#63b8ff" d="M819.91,-109.98C809.51,-102 793.74,-89.88 781.28,-80.31"/>
<polygon fill="#63b8ff" stroke="#63b8ff" points="783.35,-77.49 773.29,-74.17 779.09,-83.04 783.35,-77.49"/>
</a>
</g>
</g>
<!-- Node9 -->
<g id="Node000009" class="node">
<title>Node9</title>
<g id="a_Node000009"><a xlink:title=" ">
<polygon fill="#e0e0e0" stroke="#999999" points="855,-74 807,-74 807,-55 855,-55 855,-74"/>
<text text-anchor="middle" x="831" y="-62" font-family="Helvetica,sans-Serif" font-size="10.00">time.h</text>
</a>
</g>
</g>
<!-- Node2&#45;&gt;Node9 -->
<g id="edge9_Node000002_Node000009" class="edge">
<title>Node2&#45;&gt;Node9</title>
<g id="a_edge9_Node000002_Node000009"><a xlink:title=" ">
<path fill="none" stroke="#63b8ff" d="M831,-109.75C831,-102.8 831,-92.85 831,-84.13"/>
<polygon fill="#63b8ff" stroke="#63b8ff" points="834.5,-84.09 831,-74.09 827.5,-84.09 834.5,-84.09"/>
</a>
</g>
</g>
<!-- Node10 -->
<g id="Node000010" class="node">
<title>Node10</title>
<g id="a_Node000010"><a xlink:title=" ">
<polygon fill="#e0e0e0" stroke="#999999" points="717.5,-74 670.5,-74 670.5,-55 717.5,-55 717.5,-74"/>
<text text-anchor="middle" x="694" y="-62" font-family="Helvetica,sans-Serif" font-size="10.00">fcntl.h</text>
</a>
</g>
</g>
<!-- Node2&#45;&gt;Node10 -->
<g id="edge10_Node000002_Node000010" class="edge">
<title>Node2&#45;&gt;Node10</title>
<g id="a_edge10_Node000002_Node000010"><a xlink:title=" ">
<path fill="none" stroke="#63b8ff" d="M808.99,-109.98C786.55,-101.3 751.52,-87.75 726.01,-77.88"/>
<polygon fill="#63b8ff" stroke="#63b8ff" points="727,-74.51 716.41,-74.17 724.48,-81.04 727,-74.51"/>
</a>
</g>
</g>
<!-- Node11 -->
<g id="Node000011" class="node">
<title>Node11</title>
<g id="a_Node000011"><a xlink:title=" ">
<polygon fill="#e0e0e0" stroke="#999999" points="1224.5,-74 1169.5,-74 1169.5,-55 1224.5,-55 1224.5,-74"/>
<text text-anchor="middle" x="1197" y="-62" font-family="Helvetica,sans-Serif" font-size="10.00">signal.h</text>
</a>
</g>
</g>
<!-- Node2&#45;&gt;Node11 -->
<g id="edge11_Node000002_Node000011" class="edge">
<title>Node2&#45;&gt;Node11</title>
<g id="a_edge11_Node000002_Node000011"><a xlink:title=" ">
<path fill="none" stroke="#63b8ff" d="M886.21,-111.17C967.94,-100.29 1115.48,-80.59 1159.15,-73.84"/>
<polygon fill="#63b8ff" stroke="#63b8ff" points="1159.88,-77.26 1169.18,-72.18 1158.74,-70.36 1159.88,-77.26"/>
</a>
</g>
</g>
<!-- Node12 -->
<g id="Node000012" class="node">
<title>Node12</title>
<g id="a_Node000012"><a xlink:title=" ">
<polygon fill="#e0e0e0" stroke="#999999" points="1317,-74 1243,-74 1243,-55 1317,-55 1317,-74"/>
<text text-anchor="middle" x="1280" y="-62" font-family="Helvetica,sans-Serif" font-size="10.00">sys/select.h</text>
</a>
</g>
</g>
<!-- Node2&#45;&gt;Node12 -->
<g id="edge12_Node000002_Node000012" class="edge">
<title>Node2&#45;&gt;Node12</title>
<g id="a_edge12_Node000002_Node000012"><a xlink:title=" ">
<path fill="none" stroke="#63b8ff" d="M886.31,-111.18C889.59,-110.77 892.84,-110.38 896,-110 1042.8,-92.59 1082.8,-95.6 1232.84,-74.07"/>
<polygon fill="#63b8ff" stroke="#63b8ff" points="1233.49,-77.51 1242.88,-72.61 1232.48,-70.58 1233.49,-77.51"/>
</a>
</g>
</g>
<!-- Node13 -->
<g id="Node000013" class="node">
<title>Node13</title>
<g id="a_Node000013"><a xlink:title=" ">
<polygon fill="#e0e0e0" stroke="#999999" points="495,-19 423,-19 423,0 495,0 495,-19"/>
<text text-anchor="middle" x="459" y="-7" font-family="Helvetica,sans-Serif" font-size="10.00">sys/types.h</text>
</a>
</g>
</g>
<!-- Node2&#45;&gt;Node13 -->
<g id="edge13_Node000002_Node000013" class="edge">
<title>Node2&#45;&gt;Node13</title>
<g id="a_edge13_Node000002_Node000013"><a xlink:title=" ">
<path fill="none" stroke="#63b8ff" d="M841.46,-109.87C856.05,-96.83 879.09,-71.84 864,-55 840.41,-28.67 606.66,-16.33 505.39,-12.18"/>
<polygon fill="#63b8ff" stroke="#63b8ff" points="505.28,-8.67 495.15,-11.77 505,-15.67 505.28,-8.67"/>
</a>
</g>
</g>
<!-- Node14 -->
<g id="Node000014" class="node">
<title>Node14</title>
<g id="a_Node000014"><a xlink:title=" ">
<polygon fill="#e0e0e0" stroke="#999999" points="977,-74 911,-74 911,-55 977,-55 977,-74"/>
<text text-anchor="middle" x="944" y="-62" font-family="Helvetica,sans-Serif" font-size="10.00">sys/wait.h</text>
</a>
</g>
</g>
<!-- Node2&#45;&gt;Node14 -->
<g id="edge14_Node000002_Node000014" class="edge">
<title>Node2&#45;&gt;Node14</title>
<g id="a_edge14_Node000002_Node000014"><a xlink:title=" ">
<path fill="none" stroke="#63b8ff" d="M849.16,-109.98C867.25,-101.5 895.28,-88.35 916.19,-78.54"/>
<polygon fill="#63b8ff" stroke="#63b8ff" points="917.95,-81.59 925.51,-74.17 914.97,-75.25 917.95,-81.59"/>
</a>
</g>
</g>
<!-- Node2&#45;&gt;Node15 -->
<g id="edge15_Node000002_Node000015" class="edge">
<title>Node2&#45;&gt;Node15</title>
<g id="a_edge15_Node000002_Node000015"><a xlink:title=" ">
<path fill="none" stroke="#63b8ff" d="M775.85,-113.36C707.72,-106.62 588.07,-93.51 476.32,-74.07"/>
<polygon fill="#63b8ff" stroke="#63b8ff" points="476.68,-70.58 466.22,-72.29 475.46,-77.47 476.68,-70.58"/>
</a>
</g>
</g>
<!-- Node3&#45;&gt;Node4 -->
<g id="edge3_Node000003_Node000004" class="edge">
<title>Node3&#45;&gt;Node4</title>
<g id="a_edge3_Node000003_Node000004"><a xlink:title=" ">
<path fill="none" stroke="#63b8ff" d="M1017,-54.75C1017,-47.8 1017,-37.85 1017,-29.13"/>
<polygon fill="#63b8ff" stroke="#63b8ff" points="1020.5,-29.09 1017,-19.09 1013.5,-29.09 1020.5,-29.09"/>
</a>
</g>
</g>
<!-- Node16&#45;&gt;Node6 -->
<g id="edge19_Node000016_Node000006" class="edge">
<title>Node16&#45;&gt;Node6</title>
<g id="a_edge19_Node000016_Node000006"><a xlink:title=" ">
<path fill="none" stroke="#63b8ff" d="M418.48,-109.98C436.98,-101.46 465.68,-88.23 486.98,-78.41"/>
<polygon fill="#63b8ff" stroke="#63b8ff" points="488.57,-81.53 496.19,-74.17 485.64,-75.18 488.57,-81.53"/>
</a>
</g>
</g>
<!-- Node16&#45;&gt;Node7 -->
<g id="edge22_Node000016_Node000007" class="edge">
<title>Node16&#45;&gt;Node7</title>
<g id="a_edge22_Node000016_Node000007"><a xlink:title=" ">
<path fill="none" stroke="#63b8ff" d="M430.37,-109.98C464.08,-100.53 518.42,-85.29 553.92,-75.34"/>
<polygon fill="#63b8ff" stroke="#63b8ff" points="555.17,-78.62 563.85,-72.55 553.28,-71.88 555.17,-78.62"/>
</a>
</g>
</g>
<!-- Node16&#45;&gt;Node10 -->
<g id="edge23_Node000016_Node000010" class="edge">
<title>Node16&#45;&gt;Node10</title>
<g id="a_edge23_Node000016_Node000010"><a xlink:title=" ">
<path fill="none" stroke="#63b8ff" d="M444.01,-110.57C503.18,-99.9 607.09,-81.17 660.39,-71.56"/>
<polygon fill="#63b8ff" stroke="#63b8ff" points="661.12,-74.98 670.34,-69.76 659.88,-68.09 661.12,-74.98"/>
</a>
</g>
</g>
<!-- Node16&#45;&gt;Node15 -->
<g id="edge26_Node000016_Node000015" class="edge">
<title>Node16&#45;&gt;Node15</title>
<g id="a_edge26_Node000016_Node000015"><a xlink:title=" ">
<path fill="none" stroke="#63b8ff" d="M406.27,-109.75C411.59,-102.34 419.36,-91.5 425.88,-82.41"/>
<polygon fill="#63b8ff" stroke="#63b8ff" points="428.86,-84.26 431.84,-74.09 423.17,-80.18 428.86,-84.26"/>
</a>
</g>
</g>
<!-- Node17 -->
<g id="Node000017" class="node">
<title>Node17</title>
<g id="a_Node000017"><a xlink:href="platform_8h.html" target="_top" xlink:title="Cross&#45;platform compatibility definitions.">
<polygon fill="white" stroke="#666666" points="68,-74 0,-74 0,-55 68,-55 68,-74"/>
<text text-anchor="middle" x="34" y="-62" font-family="Helvetica,sans-Serif" font-size="10.00">platform.h</text>
</a>
</g>
</g>
<!-- Node16&#45;&gt;Node17 -->
<g id="edge17_Node000016_Node000017" class="edge">
<title>Node16&#45;&gt;Node17</title>
<g id="a_edge17_Node000016_Node000017"><a xlink:title=" ">
<path fill="none" stroke="#63b8ff" d="M355.99,-113.26C295.66,-105.9 183.65,-91.58 78.4,-74.15"/>
<polygon fill="#63b8ff" stroke="#63b8ff" points="78.67,-70.65 68.23,-72.45 77.52,-77.55 78.67,-70.65"/>
</a>
</g>
</g>
<!-- Node16&#45;&gt;Node18 -->
<g id="edge20_Node000016_Node000018" class="edge">
<title>Node16&#45;&gt;Node18</title>
<g id="a_edge20_Node000016_Node000018"><a xlink:title=" ">
<path fill="none" stroke="#63b8ff" d="M382.65,-109.98C365.43,-101.54 338.8,-88.47 318.85,-78.68"/>
<polygon fill="#63b8ff" stroke="#63b8ff" points="320.19,-75.43 309.67,-74.17 317.1,-81.72 320.19,-75.43"/>
</a>
</g>
</g>
<!-- Node19 -->
<g id="Node000019" class="node">
<title>Node19</title>
<g id="a_Node000019"><a xlink:title=" ">
<polygon fill="#e0e0e0" stroke="#999999" points="391.5,-74 338.5,-74 338.5,-55 391.5,-55 391.5,-74"/>
<text text-anchor="middle" x="365" y="-62" font-family="Helvetica,sans-Serif" font-size="10.00">stdint.h</text>
</a>
</g>
</g>
<!-- Node16&#45;&gt;Node19 -->
<g id="edge21_Node000016_Node000019" class="edge">
<title>Node16&#45;&gt;Node19</title>
<g id="a_edge21_Node000016_Node000019"><a xlink:title=" ">
<path fill="none" stroke="#63b8ff" d="M394.22,-109.75C389.38,-102.42 382.32,-91.73 376.36,-82.7"/>
<polygon fill="#63b8ff" stroke="#63b8ff" points="379.1,-80.5 370.67,-74.09 373.26,-84.36 379.1,-80.5"/>
</a>
</g>
</g>
<!-- Node20 -->
<g id="Node000020" class="node">
<title>Node20</title>
<g id="a_Node000020"><a xlink:title=" ">
<polygon fill="#e0e0e0" stroke="#999999" points="163.5,-74 86.5,-74 86.5,-55 163.5,-55 163.5,-74"/>
<text text-anchor="middle" x="125" y="-62" font-family="Helvetica,sans-Serif" font-size="10.00">sys/mman.h</text>
</a>
</g>
</g>
<!-- Node16&#45;&gt;Node20 -->
<g id="edge24_Node000016_Node000020" class="edge">
<title>Node16&#45;&gt;Node20</title>
<g id="a_edge24_Node000016_Node000020"><a xlink:title=" ">
<path fill="none" stroke="#63b8ff" d="M355.82,-109.98C306,-100.38 225.23,-84.82 173.65,-74.88"/>
<polygon fill="#63b8ff" stroke="#63b8ff" points="174.22,-71.42 163.74,-72.97 172.9,-78.3 174.22,-71.42"/>
</a>
</g>
</g>
<!-- Node21 -->
<g id="Node000021" class="node">
<title>Node21</title>
<g id="a_Node000021"><a xlink:title=" ">
<polygon fill="#e0e0e0" stroke="#999999" points="246,-74 182,-74 182,-55 246,-55 246,-74"/>
<text text-anchor="middle" x="214" y="-62" font-family="Helvetica,sans-Serif" font-size="10.00">sys/stat.h</text>
</a>
</g>
</g>
<!-- Node16&#45;&gt;Node21 -->
<g id="edge25_Node000016_Node000021" class="edge">
<title>Node16&#45;&gt;Node21</title>
<g id="a_edge25_Node000016_Node000021"><a xlink:title=" ">
<path fill="none" stroke="#63b8ff" d="M370.12,-109.98C338.62,-101.01 288.83,-86.82 253.97,-76.89"/>
<polygon fill="#63b8ff" stroke="#63b8ff" points="254.69,-73.46 244.12,-74.08 252.78,-80.19 254.69,-73.46"/>
</a>
</g>
</g>
<!-- Node17&#45;&gt;Node13 -->
<g id="edge18_Node000017_Node000013" class="edge">
<title>Node17&#45;&gt;Node13</title>
<g id="a_edge18_Node000017_Node000013"><a xlink:title=" ">
<path fill="none" stroke="#63b8ff" d="M68.22,-56.48C71.19,-55.95 74.14,-55.45 77,-55 197.55,-36.09 340.67,-21.5 412.69,-14.7"/>
<polygon fill="#63b8ff" stroke="#63b8ff" points="413.16,-18.17 422.79,-13.75 412.51,-11.2 413.16,-18.17"/>
</a>
</g>
</g>
<!-- Node22&#45;&gt;Node4 -->
<g id="edge31_Node000022_Node000004" class="edge">
<title>Node22&#45;&gt;Node4</title>
<g id="a_edge31_Node000022_Node000004"><a xlink:title=" ">
<path fill="none" stroke="#63b8ff" d="M595.99,-109.71C607.86,-95.49 633.48,-67.75 662,-55 718.33,-29.83 901.01,-16.92 980.02,-12.41"/>
<polygon fill="#63b8ff" stroke="#63b8ff" points="980.67,-15.88 990.46,-11.83 980.28,-8.89 980.67,-15.88"/>
</a>
</g>
</g>
<!-- Node22&#45;&gt;Node7 -->
<g id="edge30_Node000022_Node000007" class="edge">
<title>Node22&#45;&gt;Node7</title>
<g id="a_edge30_Node000022_Node000007"><a xlink:title=" ">
<path fill="none" stroke="#63b8ff" d="M589,-109.75C589,-102.8 589,-92.85 589,-84.13"/>
<polygon fill="#63b8ff" stroke="#63b8ff" points="592.5,-84.09 589,-74.09 585.5,-84.09 592.5,-84.09"/>
</a>
</g>
</g>
<!-- Node22&#45;&gt;Node8 -->
<g id="edge32_Node000022_Node000008" class="edge">
<title>Node22&#45;&gt;Node8</title>
<g id="a_edge32_Node000022_Node000008"><a xlink:title=" ">
<path fill="none" stroke="#63b8ff" d="M616.8,-109.98C646.4,-100.92 693.37,-86.53 725.84,-76.58"/>
<polygon fill="#63b8ff" stroke="#63b8ff" points="726.87,-79.92 735.41,-73.65 724.82,-73.23 726.87,-79.92"/>
</a>
</g>
</g>
<!-- Node22&#45;&gt;Node9 -->
<g id="edge33_Node000022_Node000009" class="edge">
<title>Node22&#45;&gt;Node9</title>
<g id="a_edge33_Node000022_Node000009"><a xlink:title=" ">
<path fill="none" stroke="#63b8ff" d="M631.55,-109.99C671.71,-101.83 733.87,-88.9 796.78,-74.21"/>
<polygon fill="#63b8ff" stroke="#63b8ff" points="797.94,-77.53 806.88,-71.84 796.34,-70.72 797.94,-77.53"/>
</a>
</g>
</g>
<!-- Node22&#45;&gt;Node18 -->
<g id="edge28_Node000022_Node000018" class="edge">
<title>Node22&#45;&gt;Node18</title>
<g id="a_edge28_Node000022_Node000018"><a xlink:title=" ">
<path fill="none" stroke="#63b8ff" d="M534.78,-109.99C482.28,-101.56 400.49,-87.93 330,-74 329.9,-73.98 329.8,-73.96 329.7,-73.94"/>
<polygon fill="#63b8ff" stroke="#63b8ff" points="330.69,-70.57 320.19,-71.97 329.27,-77.43 330.69,-70.57"/>
</a>
</g>
</g>
<!-- Node22&#45;&gt;Node19 -->
<g id="edge29_Node000022_Node000019" class="edge">
<title>Node22&#45;&gt;Node19</title>
<g id="a_edge29_Node000022_Node000019"><a xlink:title=" ">
<path fill="none" stroke="#63b8ff" d="M553.01,-109.98C511.42,-100.14 443.36,-84.04 401.54,-74.15"/>
<polygon fill="#63b8ff" stroke="#63b8ff" points="402.3,-70.73 391.76,-71.83 400.69,-77.54 402.3,-70.73"/>
</a>
</g>
</g>
</g>
</svg>

<g id="navigator" transform="translate(0 0)" fill="#404254">
  <rect fill="#f2f5e9" fill-opacity="0.5" stroke="#606060" stroke-width=".5" x="0" y="0" width="60" height="60"/>
  <use id="zoomplus" xlink:href="#zoomPlus" x="17" y="9" onmousedown="handleZoom(evt,'in')"/>
  <use id="zoomminus" xlink:href="#zoomMin" x="42" y="9" onmousedown="handleZoom(evt,'out')"/>
  <use id="reset" xlink:href="#resetDef" x="30" y="36" onmousedown="handleReset()"/>
   <use id="arrowup" xlink:href="#arrowUp" x="0" y="0" onmousedown="handlePan(0,-1)"/>
  <use id="arrowright" xlink:href="#arrowRight" x="0" y="0" onmousedown="handlePan(1,0)"/>
  <use id="arrowdown" xlink:href="#arrowDown" x="0" y="0" onmousedown="handlePan(0,1)"/>
  <use id="arrowleft" xlink:href="#arrowLeft" x="0" y="0" onmousedown="handlePan(-1,0)"/>
</g>
<svg viewBox="0 0 15 15" width="100%" height="30px" preserveAspectRatio="xMaxYMin meet">
 <g id="arrow_out" transform="scale(0.3 0.3)">
  <a xlink:href="process_8c__incl_org.svg" target="_base">
   <rect id="button" ry="5" rx="5" y="6" x="6" height="38" width="38"
        fill="#f2f5e9" fill-opacity="0.5" stroke="#606060" stroke-width="1.0"/>
   <path id="arrow"
     d="M 11.500037,31.436501 C 11.940474,20.09759 22.043105,11.32322 32.158766,21.979434 L 37.068811,17.246167 C 37.068811,17.246167 37.088388,32 37.088388,32 L 22.160133,31.978069 C 22.160133,31.978069 26.997745,27.140456 26.997745,27.140456 C 18.528582,18.264221 13.291696,25.230495 11.500037,31.436501 z"
     style="fill:#404040;"/>
  </a>
 </g>
</svg>

<style type='text/css'>
<![CDATA[
[data-mouse-over-selected='false'] { opacity: 0.7; }
[data-mouse-over-selected='true']  { opacity: 1.0; }
]]>
</style>
<script type="application/ecmascript"><![CDATA[
document.addEventListener('DOMContentLoaded', (event) => {
  highlightEdges();
  highlightAdjacentNodes();
});
]]></script>
</svg>
