<?xml version="1.0" encoding="UTF-8" standalone="no"?>
<!DOCTYPE svg PUBLIC "-//W3C//DTD SVG 1.1//EN"
 "http://www.w3.org/Graphics/SVG/1.1/DTD/svg11.dtd">
<!-- Generated by graphviz version 2.43.0 (0)
 -->
<!-- Title: include/process.h Pages: 1 -->
<svg width="928pt" height="137pt"
 viewBox="0.00 0.00 928.00 137.00" xmlns="http://www.w3.org/2000/svg" xmlns:xlink="http://www.w3.org/1999/xlink">
<g id="graph0" class="graph" transform="scale(1 1) rotate(0) translate(4 133)">
<title>include/process.h</title>
<!-- Node1 -->
<g id="Node000001" class="node">
<title>Node1</title>
<g id="a_Node000001"><a xlink:title="A modern, cross&#45;platform API for process management and IPC.">
<polygon fill="#999999" stroke="#666666" points="470.5,-129 369.5,-129 369.5,-110 470.5,-110 470.5,-129"/>
<text text-anchor="middle" x="420" y="-117" font-family="Helvetica,sans-Serif" font-size="10.00">include/process.h</text>
</a>
</g>
</g>
<!-- Node2 -->
<g id="Node000002" class="node">
<title>Node2</title>
<g id="a_Node000002"><a xlink:title=" ">
<polygon fill="#e0e0e0" stroke="#999999" points="56,-74 0,-74 0,-55 56,-55 56,-74"/>
<text text-anchor="middle" x="28" y="-62" font-family="Helvetica,sans-Serif" font-size="10.00">assert.h</text>
</a>
</g>
</g>
<!-- Node1&#45;&gt;Node2 -->
<g id="edge1_Node000001_Node000002" class="edge">
<title>Node1&#45;&gt;Node2</title>
<g id="a_edge1_Node000001_Node000002"><a xlink:title=" ">
<path fill="none" stroke="#63b8ff" d="M369.49,-113.79C302.39,-107.18 179.98,-93.87 66.15,-74.04"/>
<polygon fill="#63b8ff" stroke="#63b8ff" points="66.68,-70.58 56.22,-72.29 65.46,-77.48 66.68,-70.58"/>
</a>
</g>
</g>
<!-- Node3 -->
<g id="Node000003" class="node">
<title>Node3</title>
<g id="a_Node000003"><a xlink:title=" ">
<polygon fill="#e0e0e0" stroke="#999999" points="136,-74 74,-74 74,-55 136,-55 136,-74"/>
<text text-anchor="middle" x="105" y="-62" font-family="Helvetica,sans-Serif" font-size="10.00">stdbool.h</text>
</a>
</g>
</g>
<!-- Node1&#45;&gt;Node3 -->
<g id="edge2_Node000001_Node000003" class="edge">
<title>Node1&#45;&gt;Node3</title>
<g id="a_edge2_Node000001_Node000003"><a xlink:title=" ">
<path fill="none" stroke="#63b8ff" d="M369.44,-111.08C316.28,-103.1 229.97,-89.68 146.33,-74.18"/>
<polygon fill="#63b8ff" stroke="#63b8ff" points="146.89,-70.72 136.41,-72.33 145.6,-77.6 146.89,-70.72"/>
</a>
</g>
</g>
<!-- Node4 -->
<g id="Node000004" class="node">
<title>Node4</title>
<g id="a_Node000004"><a xlink:title=" ">
<polygon fill="#e0e0e0" stroke="#999999" points="204,-74 154,-74 154,-55 204,-55 204,-74"/>
<text text-anchor="middle" x="179" y="-62" font-family="Helvetica,sans-Serif" font-size="10.00">stdio.h</text>
</a>
</g>
</g>
<!-- Node1&#45;&gt;Node4 -->
<g id="edge3_Node000001_Node000004" class="edge">
<title>Node1&#45;&gt;Node4</title>
<g id="a_edge3_Node000001_Node000004"><a xlink:title=" ">
<path fill="none" stroke="#63b8ff" d="M381.28,-109.98C335.11,-99.83 258.62,-83.01 214.11,-73.22"/>
<polygon fill="#63b8ff" stroke="#63b8ff" points="214.84,-69.8 204.32,-71.07 213.33,-76.63 214.84,-69.8"/>
</a>
</g>
</g>
<!-- Node5 -->
<g id="Node000005" class="node">
<title>Node5</title>
<g id="a_Node000005"><a xlink:title=" ">
<polygon fill="#e0e0e0" stroke="#999999" points="352.5,-19 299.5,-19 299.5,0 352.5,0 352.5,-19"/>
<text text-anchor="middle" x="326" y="-7" font-family="Helvetica,sans-Serif" font-size="10.00">stdlib.h</text>
</a>
</g>
</g>
<!-- Node1&#45;&gt;Node5 -->
<g id="edge4_Node000001_Node000005" class="edge">
<title>Node1&#45;&gt;Node5</title>
<g id="a_edge4_Node000001_Node000005"><a xlink:title=" ">
<path fill="none" stroke="#63b8ff" d="M369.27,-111.91C325.22,-105.02 266.31,-92.59 252,-74 236.18,-53.45 265.79,-34.76 292.13,-23.06"/>
<polygon fill="#63b8ff" stroke="#63b8ff" points="293.73,-26.18 301.59,-19.07 291.02,-19.73 293.73,-26.18"/>
</a>
</g>
</g>
<!-- Node6 -->
<g id="Node000006" class="node">
<title>Node6</title>
<g id="a_Node000006"><a xlink:title=" ">
<polygon fill="#e0e0e0" stroke="#999999" points="313.5,-74 260.5,-74 260.5,-55 313.5,-55 313.5,-74"/>
<text text-anchor="middle" x="287" y="-62" font-family="Helvetica,sans-Serif" font-size="10.00">string.h</text>
</a>
</g>
</g>
<!-- Node1&#45;&gt;Node6 -->
<g id="edge5_Node000001_Node000006" class="edge">
<title>Node1&#45;&gt;Node6</title>
<g id="a_edge5_Node000001_Node000006"><a xlink:title=" ">
<path fill="none" stroke="#63b8ff" d="M398.63,-109.98C376.85,-101.3 342.84,-87.75 318.08,-77.88"/>
<polygon fill="#63b8ff" stroke="#63b8ff" points="319.34,-74.62 308.76,-74.17 316.75,-81.12 319.34,-74.62"/>
</a>
</g>
</g>
<!-- Node7 -->
<g id="Node000007" class="node">
<title>Node7</title>
<g id="a_Node000007"><a xlink:title=" ">
<polygon fill="#e0e0e0" stroke="#999999" points="380,-74 332,-74 332,-55 380,-55 380,-74"/>
<text text-anchor="middle" x="356" y="-62" font-family="Helvetica,sans-Serif" font-size="10.00">time.h</text>
</a>
</g>
</g>
<!-- Node1&#45;&gt;Node7 -->
<g id="edge6_Node000001_Node000007" class="edge">
<title>Node1&#45;&gt;Node7</title>
<g id="a_edge6_Node000001_Node000007"><a xlink:title=" ">
<path fill="none" stroke="#63b8ff" d="M409.72,-109.98C400.16,-102.07 385.72,-90.11 374.22,-80.58"/>
<polygon fill="#63b8ff" stroke="#63b8ff" points="376.4,-77.85 366.47,-74.17 371.94,-83.24 376.4,-77.85"/>
</a>
</g>
</g>
<!-- Node8 -->
<g id="Node000008" class="node">
<title>Node8</title>
<g id="a_Node000008"><a xlink:href="env_8h.html" target="_top" xlink:title="Environment variable utilities and safe access functions.">
<polygon fill="white" stroke="#666666" points="441.5,-74 398.5,-74 398.5,-55 441.5,-55 441.5,-74"/>
<text text-anchor="middle" x="420" y="-62" font-family="Helvetica,sans-Serif" font-size="10.00">env.h</text>
</a>
</g>
</g>
<!-- Node1&#45;&gt;Node8 -->
<g id="edge7_Node000001_Node000008" class="edge">
<title>Node1&#45;&gt;Node8</title>
<g id="a_edge7_Node000001_Node000008"><a xlink:title=" ">
<path fill="none" stroke="#63b8ff" d="M420,-109.75C420,-102.8 420,-92.85 420,-84.13"/>
<polygon fill="#63b8ff" stroke="#63b8ff" points="423.5,-84.09 420,-74.09 416.5,-84.09 423.5,-84.09"/>
</a>
</g>
</g>
<!-- Node9 -->
<g id="Node000009" class="node">
<title>Node9</title>
<g id="a_Node000009"><a xlink:title=" ">
<polygon fill="#e0e0e0" stroke="#999999" points="506.5,-74 459.5,-74 459.5,-55 506.5,-55 506.5,-74"/>
<text text-anchor="middle" x="483" y="-62" font-family="Helvetica,sans-Serif" font-size="10.00">fcntl.h</text>
</a>
</g>
</g>
<!-- Node1&#45;&gt;Node9 -->
<g id="edge9_Node000001_Node000009" class="edge">
<title>Node1&#45;&gt;Node9</title>
<g id="a_edge9_Node000001_Node000009"><a xlink:title=" ">
<path fill="none" stroke="#63b8ff" d="M430.12,-109.98C439.44,-102.15 453.47,-90.34 464.74,-80.86"/>
<polygon fill="#63b8ff" stroke="#63b8ff" points="467.29,-83.29 472.69,-74.17 462.79,-77.93 467.29,-83.29"/>
</a>
</g>
</g>
<!-- Node10 -->
<g id="Node000010" class="node">
<title>Node10</title>
<g id="a_Node000010"><a xlink:title=" ">
<polygon fill="#e0e0e0" stroke="#999999" points="579.5,-74 524.5,-74 524.5,-55 579.5,-55 579.5,-74"/>
<text text-anchor="middle" x="552" y="-62" font-family="Helvetica,sans-Serif" font-size="10.00">signal.h</text>
</a>
</g>
</g>
<!-- Node1&#45;&gt;Node10 -->
<g id="edge10_Node000001_Node000010" class="edge">
<title>Node1&#45;&gt;Node10</title>
<g id="a_edge10_Node000001_Node000010"><a xlink:title=" ">
<path fill="none" stroke="#63b8ff" d="M441.21,-109.98C462.73,-101.34 496.28,-87.87 520.83,-78.02"/>
<polygon fill="#63b8ff" stroke="#63b8ff" points="522.43,-81.14 530.41,-74.17 519.82,-74.65 522.43,-81.14"/>
</a>
</g>
</g>
<!-- Node11 -->
<g id="Node000011" class="node">
<title>Node11</title>
<g id="a_Node000011"><a xlink:title=" ">
<polygon fill="#e0e0e0" stroke="#999999" points="672,-74 598,-74 598,-55 672,-55 672,-74"/>
<text text-anchor="middle" x="635" y="-62" font-family="Helvetica,sans-Serif" font-size="10.00">sys/select.h</text>
</a>
</g>
</g>
<!-- Node1&#45;&gt;Node11 -->
<g id="edge11_Node000001_Node000011" class="edge">
<title>Node1&#45;&gt;Node11</title>
<g id="a_edge11_Node000001_Node000011"><a xlink:title=" ">
<path fill="none" stroke="#63b8ff" d="M454.54,-109.98C491.42,-100.89 549.99,-86.46 590.34,-76.51"/>
<polygon fill="#63b8ff" stroke="#63b8ff" points="591.31,-79.87 600.19,-74.08 589.64,-73.08 591.31,-79.87"/>
</a>
</g>
</g>
<!-- Node12 -->
<g id="Node000012" class="node">
<title>Node12</title>
<g id="a_Node000012"><a xlink:title=" ">
<polygon fill="#e0e0e0" stroke="#999999" points="762,-74 690,-74 690,-55 762,-55 762,-74"/>
<text text-anchor="middle" x="726" y="-62" font-family="Helvetica,sans-Serif" font-size="10.00">sys/types.h</text>
</a>
</g>
</g>
<!-- Node1&#45;&gt;Node12 -->
<g id="edge12_Node000001_Node000012" class="edge">
<title>Node1&#45;&gt;Node12</title>
<g id="a_edge12_Node000001_Node000012"><a xlink:title=" ">
<path fill="none" stroke="#63b8ff" d="M470.57,-110.15C521.03,-101.76 601.04,-88.29 679.59,-74.23"/>
<polygon fill="#63b8ff" stroke="#63b8ff" points="680.44,-77.63 689.66,-72.42 679.2,-70.74 680.44,-77.63"/>
</a>
</g>
</g>
<!-- Node13 -->
<g id="Node000013" class="node">
<title>Node13</title>
<g id="a_Node000013"><a xlink:title=" ">
<polygon fill="#e0e0e0" stroke="#999999" points="846,-74 780,-74 780,-55 846,-55 846,-74"/>
<text text-anchor="middle" x="813" y="-62" font-family="Helvetica,sans-Serif" font-size="10.00">sys/wait.h</text>
</a>
</g>
</g>
<!-- Node1&#45;&gt;Node13 -->
<g id="edge13_Node000001_Node000013" class="edge">
<title>Node1&#45;&gt;Node13</title>
<g id="a_edge13_Node000001_Node000013"><a xlink:title=" ">
<path fill="none" stroke="#63b8ff" d="M470.74,-113.25C537.14,-106.12 657.32,-92.32 769.44,-74.15"/>
<polygon fill="#63b8ff" stroke="#63b8ff" points="770.27,-77.57 779.57,-72.5 769.14,-70.66 770.27,-77.57"/>
</a>
</g>
</g>
<!-- Node14 -->
<g id="Node000014" class="node">
<title>Node14</title>
<g id="a_Node000014"><a xlink:title=" ">
<polygon fill="#e0e0e0" stroke="#999999" points="920,-74 864,-74 864,-55 920,-55 920,-74"/>
<text text-anchor="middle" x="892" y="-62" font-family="Helvetica,sans-Serif" font-size="10.00">unistd.h</text>
</a>
</g>
</g>
<!-- Node1&#45;&gt;Node14 -->
<g id="edge14_Node000001_Node000014" class="edge">
<title>Node1&#45;&gt;Node14</title>
<g id="a_edge14_Node000001_Node000014"><a xlink:title=" ">
<path fill="none" stroke="#63b8ff" d="M470.51,-115.37C550.04,-110 709.45,-97.43 853.86,-73.99"/>
<polygon fill="#63b8ff" stroke="#63b8ff" points="854.49,-77.44 863.79,-72.36 853.35,-70.53 854.49,-77.44"/>
</a>
</g>
</g>
<!-- Node8&#45;&gt;Node5 -->
<g id="edge8_Node000008_Node000005" class="edge">
<title>Node8&#45;&gt;Node5</title>
<g id="a_edge8_Node000008_Node000005"><a xlink:title=" ">
<path fill="none" stroke="#63b8ff" d="M404.9,-54.98C390.18,-46.69 367.58,-33.94 350.33,-24.22"/>
<polygon fill="#63b8ff" stroke="#63b8ff" points="351.81,-21.03 341.38,-19.17 348.37,-27.13 351.81,-21.03"/>
</a>
</g>
</g>
</g>
</svg>
