<?xml version="1.0" encoding="UTF-8" standalone="no"?>
<!DOCTYPE svg PUBLIC "-//W3C//DTD SVG 1.1//EN"
 "http://www.w3.org/Graphics/SVG/1.1/DTD/svg11.dtd">
<!-- Generated by graphviz version 2.43.0 (0)
 -->
<!-- Title: include/process.h Pages: 1 -->
<svg width="929pt" height="137pt"
 viewBox="0.00 0.00 928.50 137.00" xmlns="http://www.w3.org/2000/svg" xmlns:xlink="http://www.w3.org/1999/xlink">
<g id="graph0" class="graph" transform="scale(1 1) rotate(0) translate(4 133)">
<title>include/process.h</title>
<!-- Node1 -->
<g id="Node000001" class="node">
<title>Node1</title>
<g id="a_Node000001"><a xlink:title="A modern, cross&#45;platform API for process management and IPC.">
<polygon fill="#999999" stroke="#666666" points="468,-129 367,-129 367,-110 468,-110 468,-129"/>
<text text-anchor="middle" x="417.5" y="-117" font-family="Helvetica,sans-Serif" font-size="10.00">include/process.h</text>
</a>
</g>
</g>
<!-- Node2 -->
<g id="Node000002" class="node">
<title>Node2</title>
<g id="a_Node000002"><a xlink:href="env_8h.html" target="_top" xlink:title="Environment variable utilities and safe access functions.">
<polygon fill="white" stroke="#666666" points="43,-74 0,-74 0,-55 43,-55 43,-74"/>
<text text-anchor="middle" x="21.5" y="-62" font-family="Helvetica,sans-Serif" font-size="10.00">env.h</text>
</a>
</g>
</g>
<!-- Node1&#45;&gt;Node2 -->
<g id="edge1_Node000001_Node000002" class="edge">
<title>Node1&#45;&gt;Node2</title>
<g id="a_edge1_Node000001_Node000002"><a xlink:title=" ">
<path fill="none" stroke="#63b8ff" d="M366.86,-113.99C296.94,-107.38 167.06,-93.65 57.5,-74 56.04,-73.74 54.55,-73.45 53.04,-73.15"/>
<polygon fill="#63b8ff" stroke="#63b8ff" points="53.64,-69.7 43.12,-71.01 52.16,-76.54 53.64,-69.7"/>
</a>
</g>
</g>
<!-- Node3 -->
<g id="Node000003" class="node">
<title>Node3</title>
<g id="a_Node000003"><a xlink:title=" ">
<polygon fill="#e0e0e0" stroke="#999999" points="73,-19 20,-19 20,0 73,0 73,-19"/>
<text text-anchor="middle" x="46.5" y="-7" font-family="Helvetica,sans-Serif" font-size="10.00">stdlib.h</text>
</a>
</g>
</g>
<!-- Node1&#45;&gt;Node3 -->
<g id="edge6_Node000001_Node000003" class="edge">
<title>Node1&#45;&gt;Node3</title>
<g id="a_edge6_Node000001_Node000003"><a xlink:title=" ">
<path fill="none" stroke="#63b8ff" d="M366.74,-116.54C286.74,-112.64 135.74,-101.74 90.5,-74 73.22,-63.4 61.01,-43.19 53.9,-28.4"/>
<polygon fill="#63b8ff" stroke="#63b8ff" points="57.07,-26.92 49.8,-19.22 50.68,-29.78 57.07,-26.92"/>
</a>
</g>
</g>
<!-- Node4 -->
<g id="Node000004" class="node">
<title>Node4</title>
<g id="a_Node000004"><a xlink:title=" ">
<polygon fill="#e0e0e0" stroke="#999999" points="155.5,-74 99.5,-74 99.5,-55 155.5,-55 155.5,-74"/>
<text text-anchor="middle" x="127.5" y="-62" font-family="Helvetica,sans-Serif" font-size="10.00">assert.h</text>
</a>
</g>
</g>
<!-- Node1&#45;&gt;Node4 -->
<g id="edge3_Node000001_Node000004" class="edge">
<title>Node1&#45;&gt;Node4</title>
<g id="a_edge3_Node000001_Node000004"><a xlink:title=" ">
<path fill="none" stroke="#63b8ff" d="M366.95,-110.4C317.98,-102.37 241.37,-89.35 165.9,-74.2"/>
<polygon fill="#63b8ff" stroke="#63b8ff" points="166.24,-70.7 155.75,-72.15 164.86,-77.56 166.24,-70.7"/>
</a>
</g>
</g>
<!-- Node5 -->
<g id="Node000005" class="node">
<title>Node5</title>
<g id="a_Node000005"><a xlink:title=" ">
<polygon fill="#e0e0e0" stroke="#999999" points="235.5,-74 173.5,-74 173.5,-55 235.5,-55 235.5,-74"/>
<text text-anchor="middle" x="204.5" y="-62" font-family="Helvetica,sans-Serif" font-size="10.00">stdbool.h</text>
</a>
</g>
</g>
<!-- Node1&#45;&gt;Node5 -->
<g id="edge4_Node000001_Node000005" class="edge">
<title>Node1&#45;&gt;Node5</title>
<g id="a_edge4_Node000001_Node000005"><a xlink:title=" ">
<path fill="none" stroke="#63b8ff" d="M383.28,-109.98C345.66,-100.62 285.26,-85.6 245.23,-75.64"/>
<polygon fill="#63b8ff" stroke="#63b8ff" points="246.07,-72.24 235.52,-73.22 244.38,-79.03 246.07,-72.24"/>
</a>
</g>
</g>
<!-- Node6 -->
<g id="Node000006" class="node">
<title>Node6</title>
<g id="a_Node000006"><a xlink:title=" ">
<polygon fill="#e0e0e0" stroke="#999999" points="303.5,-74 253.5,-74 253.5,-55 303.5,-55 303.5,-74"/>
<text text-anchor="middle" x="278.5" y="-62" font-family="Helvetica,sans-Serif" font-size="10.00">stdio.h</text>
</a>
</g>
</g>
<!-- Node1&#45;&gt;Node6 -->
<g id="edge5_Node000001_Node000006" class="edge">
<title>Node1&#45;&gt;Node6</title>
<g id="a_edge5_Node000001_Node000006"><a xlink:title=" ">
<path fill="none" stroke="#63b8ff" d="M395.17,-109.98C372.3,-101.27 336.54,-87.63 310.64,-77.75"/>
<polygon fill="#63b8ff" stroke="#63b8ff" points="311.83,-74.46 301.24,-74.17 309.34,-81 311.83,-74.46"/>
</a>
</g>
</g>
<!-- Node7 -->
<g id="Node000007" class="node">
<title>Node7</title>
<g id="a_Node000007"><a xlink:title=" ">
<polygon fill="#e0e0e0" stroke="#999999" points="375,-74 322,-74 322,-55 375,-55 375,-74"/>
<text text-anchor="middle" x="348.5" y="-62" font-family="Helvetica,sans-Serif" font-size="10.00">string.h</text>
</a>
</g>
</g>
<!-- Node1&#45;&gt;Node7 -->
<g id="edge7_Node000001_Node000007" class="edge">
<title>Node1&#45;&gt;Node7</title>
<g id="a_edge7_Node000001_Node000007"><a xlink:title=" ">
<path fill="none" stroke="#63b8ff" d="M406.41,-109.98C396.01,-102 380.24,-89.88 367.78,-80.31"/>
<polygon fill="#63b8ff" stroke="#63b8ff" points="369.85,-77.49 359.79,-74.17 365.59,-83.04 369.85,-77.49"/>
</a>
</g>
</g>
<!-- Node8 -->
<g id="Node000008" class="node">
<title>Node8</title>
<g id="a_Node000008"><a xlink:title=" ">
<polygon fill="#e0e0e0" stroke="#999999" points="441.5,-74 393.5,-74 393.5,-55 441.5,-55 441.5,-74"/>
<text text-anchor="middle" x="417.5" y="-62" font-family="Helvetica,sans-Serif" font-size="10.00">time.h</text>
</a>
</g>
</g>
<!-- Node1&#45;&gt;Node8 -->
<g id="edge8_Node000001_Node000008" class="edge">
<title>Node1&#45;&gt;Node8</title>
<g id="a_edge8_Node000001_Node000008"><a xlink:title=" ">
<path fill="none" stroke="#63b8ff" d="M417.5,-109.75C417.5,-102.8 417.5,-92.85 417.5,-84.13"/>
<polygon fill="#63b8ff" stroke="#63b8ff" points="421,-84.09 417.5,-74.09 414,-84.09 421,-84.09"/>
</a>
</g>
</g>
<!-- Node9 -->
<g id="Node000009" class="node">
<title>Node9</title>
<g id="a_Node000009"><a xlink:title=" ">
<polygon fill="#e0e0e0" stroke="#999999" points="507,-74 460,-74 460,-55 507,-55 507,-74"/>
<text text-anchor="middle" x="483.5" y="-62" font-family="Helvetica,sans-Serif" font-size="10.00">fcntl.h</text>
</a>
</g>
</g>
<!-- Node1&#45;&gt;Node9 -->
<g id="edge9_Node000001_Node000009" class="edge">
<title>Node1&#45;&gt;Node9</title>
<g id="a_edge9_Node000001_Node000009"><a xlink:title=" ">
<path fill="none" stroke="#63b8ff" d="M428.1,-109.98C437.96,-102.07 452.85,-90.11 464.72,-80.58"/>
<polygon fill="#63b8ff" stroke="#63b8ff" points="467.1,-83.16 472.7,-74.17 462.71,-77.7 467.1,-83.16"/>
</a>
</g>
</g>
<!-- Node10 -->
<g id="Node000010" class="node">
<title>Node10</title>
<g id="a_Node000010"><a xlink:title=" ">
<polygon fill="#e0e0e0" stroke="#999999" points="580,-74 525,-74 525,-55 580,-55 580,-74"/>
<text text-anchor="middle" x="552.5" y="-62" font-family="Helvetica,sans-Serif" font-size="10.00">signal.h</text>
</a>
</g>
</g>
<!-- Node1&#45;&gt;Node10 -->
<g id="edge10_Node000001_Node000010" class="edge">
<title>Node1&#45;&gt;Node10</title>
<g id="a_edge10_Node000001_Node000010"><a xlink:title=" ">
<path fill="none" stroke="#63b8ff" d="M439.19,-109.98C461.3,-101.3 495.82,-87.75 520.95,-77.88"/>
<polygon fill="#63b8ff" stroke="#63b8ff" points="522.39,-81.08 530.42,-74.17 519.83,-74.57 522.39,-81.08"/>
</a>
</g>
</g>
<!-- Node11 -->
<g id="Node000011" class="node">
<title>Node11</title>
<g id="a_Node000011"><a xlink:title=" ">
<polygon fill="#e0e0e0" stroke="#999999" points="672.5,-74 598.5,-74 598.5,-55 672.5,-55 672.5,-74"/>
<text text-anchor="middle" x="635.5" y="-62" font-family="Helvetica,sans-Serif" font-size="10.00">sys/select.h</text>
</a>
</g>
</g>
<!-- Node1&#45;&gt;Node11 -->
<g id="edge11_Node000001_Node000011" class="edge">
<title>Node1&#45;&gt;Node11</title>
<g id="a_edge11_Node000001_Node000011"><a xlink:title=" ">
<path fill="none" stroke="#63b8ff" d="M452.53,-109.98C490,-100.87 549.55,-86.4 590.48,-76.45"/>
<polygon fill="#63b8ff" stroke="#63b8ff" points="591.31,-79.85 600.2,-74.08 589.66,-73.04 591.31,-79.85"/>
</a>
</g>
</g>
<!-- Node12 -->
<g id="Node000012" class="node">
<title>Node12</title>
<g id="a_Node000012"><a xlink:title=" ">
<polygon fill="#e0e0e0" stroke="#999999" points="762.5,-74 690.5,-74 690.5,-55 762.5,-55 762.5,-74"/>
<text text-anchor="middle" x="726.5" y="-62" font-family="Helvetica,sans-Serif" font-size="10.00">sys/types.h</text>
</a>
</g>
</g>
<!-- Node1&#45;&gt;Node12 -->
<g id="edge12_Node000001_Node000012" class="edge">
<title>Node1&#45;&gt;Node12</title>
<g id="a_edge12_Node000001_Node000012"><a xlink:title=" ">
<path fill="none" stroke="#63b8ff" d="M468.16,-110.26C519.17,-101.91 600.37,-88.41 679.96,-74.25"/>
<polygon fill="#63b8ff" stroke="#63b8ff" points="680.93,-77.63 690.16,-72.43 679.7,-70.74 680.93,-77.63"/>
</a>
</g>
</g>
<!-- Node13 -->
<g id="Node000013" class="node">
<title>Node13</title>
<g id="a_Node000013"><a xlink:title=" ">
<polygon fill="#e0e0e0" stroke="#999999" points="846.5,-74 780.5,-74 780.5,-55 846.5,-55 846.5,-74"/>
<text text-anchor="middle" x="813.5" y="-62" font-family="Helvetica,sans-Serif" font-size="10.00">sys/wait.h</text>
</a>
</g>
</g>
<!-- Node1&#45;&gt;Node13 -->
<g id="edge13_Node000001_Node000013" class="edge">
<title>Node1&#45;&gt;Node13</title>
<g id="a_edge13_Node000001_Node000013"><a xlink:title=" ">
<path fill="none" stroke="#63b8ff" d="M468.09,-113.34C534.99,-106.25 656.77,-92.43 770.18,-74.11"/>
<polygon fill="#63b8ff" stroke="#63b8ff" points="770.76,-77.56 780.07,-72.5 769.64,-70.65 770.76,-77.56"/>
</a>
</g>
</g>
<!-- Node14 -->
<g id="Node000014" class="node">
<title>Node14</title>
<g id="a_Node000014"><a xlink:title=" ">
<polygon fill="#e0e0e0" stroke="#999999" points="920.5,-74 864.5,-74 864.5,-55 920.5,-55 920.5,-74"/>
<text text-anchor="middle" x="892.5" y="-62" font-family="Helvetica,sans-Serif" font-size="10.00">unistd.h</text>
</a>
</g>
</g>
<!-- Node1&#45;&gt;Node14 -->
<g id="edge14_Node000001_Node000014" class="edge">
<title>Node1&#45;&gt;Node14</title>
<g id="a_edge14_Node000001_Node000014"><a xlink:title=" ">
<path fill="none" stroke="#63b8ff" d="M468.02,-115.42C547.99,-110.1 708.74,-97.57 854.28,-74"/>
<polygon fill="#63b8ff" stroke="#63b8ff" points="854.99,-77.43 864.29,-72.36 853.86,-70.53 854.99,-77.43"/>
</a>
</g>
</g>
<!-- Node2&#45;&gt;Node3 -->
<g id="edge2_Node000002_Node000003" class="edge">
<title>Node2&#45;&gt;Node3</title>
<g id="a_edge2_Node000002_Node000003"><a xlink:title=" ">
<path fill="none" stroke="#63b8ff" d="M25.63,-54.75C29.01,-47.57 33.92,-37.18 38.12,-28.27"/>
<polygon fill="#63b8ff" stroke="#63b8ff" points="41.35,-29.63 42.45,-19.09 35.02,-26.64 41.35,-29.63"/>
</a>
</g>
</g>
</g>
</svg>
