<?xml version="1.0" encoding="UTF-8" standalone="no"?>
<!DOCTYPE svg PUBLIC "-//W3C//DTD SVG 1.1//EN"
 "http://www.w3.org/Graphics/SVG/1.1/DTD/svg11.dtd">
<!-- Generated by graphviz version 2.43.0 (0)
 -->
<!-- Title: src/process.c Pages: 1 -->
<svg width="1280pt" height="192pt"
 viewBox="0.00 0.00 1279.50 192.00" xmlns="http://www.w3.org/2000/svg" xmlns:xlink="http://www.w3.org/1999/xlink">
<g id="graph0" class="graph" transform="scale(1 1) rotate(0) translate(4 188)">
<title>src/process.c</title>
<!-- Node1 -->
<g id="Node000001" class="node">
<title>Node1</title>
<g id="a_Node000001"><a xlink:title="Implementation of the process management API.">
<polygon fill="#999999" stroke="#666666" points="954.5,-184 874.5,-184 874.5,-165 954.5,-165 954.5,-184"/>
<text text-anchor="middle" x="914.5" y="-172" font-family="Helvetica,sans-Serif" font-size="10.00">src/process.c</text>
</a>
</g>
</g>
<!-- Node2 -->
<g id="Node000002" class="node">
<title>Node2</title>
<g id="a_Node000002"><a xlink:href="process_8h.html" target="_top" xlink:title="A modern, cross&#45;platform API for process management and IPC.">
<polygon fill="white" stroke="#666666" points="466.5,-129 356.5,-129 356.5,-110 466.5,-110 466.5,-129"/>
<text text-anchor="middle" x="411.5" y="-117" font-family="Helvetica,sans-Serif" font-size="10.00">../include/process.h</text>
</a>
</g>
</g>
<!-- Node1&#45;&gt;Node2 -->
<g id="edge1_Node000001_Node000002" class="edge">
<title>Node1&#45;&gt;Node2</title>
<g id="a_edge1_Node000001_Node000002"><a xlink:title=" ">
<path fill="none" stroke="#63b8ff" d="M874.19,-169.25C787.44,-160.11 582.39,-138.51 476.82,-127.38"/>
<polygon fill="#63b8ff" stroke="#63b8ff" points="476.92,-123.87 466.61,-126.31 476.19,-130.84 476.92,-123.87"/>
</a>
</g>
</g>
<!-- Node15 -->
<g id="Node000015" class="node">
<title>Node15</title>
<g id="a_Node000015"><a xlink:title=" ">
<polygon fill="#e0e0e0" stroke="#999999" points="861.5,-74 805.5,-74 805.5,-55 861.5,-55 861.5,-74"/>
<text text-anchor="middle" x="833.5" y="-62" font-family="Helvetica,sans-Serif" font-size="10.00">unistd.h</text>
</a>
</g>
</g>
<!-- Node1&#45;&gt;Node15 -->
<g id="edge29_Node000001_Node000015" class="edge">
<title>Node1&#45;&gt;Node15</title>
<g id="a_edge29_Node000001_Node000015"><a xlink:title=" ">
<path fill="none" stroke="#63b8ff" d="M901.25,-164.98C889.53,-156.9 872.61,-143.8 861.5,-129 851.23,-115.31 843.74,-97.27 839.1,-83.91"/>
<polygon fill="#63b8ff" stroke="#63b8ff" points="842.42,-82.81 836,-74.38 835.76,-84.97 842.42,-82.81"/>
</a>
</g>
</g>
<!-- Node16 -->
<g id="Node000016" class="node">
<title>Node16</title>
<g id="a_Node000016"><a xlink:href="file_8h.html" target="_top" xlink:title="Cross&#45;platform file handling API with synchronous and asynchronous I/O support.">
<polygon fill="white" stroke="#666666" points="958.5,-129 870.5,-129 870.5,-110 958.5,-110 958.5,-129"/>
<text text-anchor="middle" x="914.5" y="-117" font-family="Helvetica,sans-Serif" font-size="10.00">../include/file.h</text>
</a>
</g>
</g>
<!-- Node1&#45;&gt;Node16 -->
<g id="edge16_Node000001_Node000016" class="edge">
<title>Node1&#45;&gt;Node16</title>
<g id="a_edge16_Node000001_Node000016"><a xlink:title=" ">
<path fill="none" stroke="#63b8ff" d="M914.5,-164.75C914.5,-157.8 914.5,-147.85 914.5,-139.13"/>
<polygon fill="#63b8ff" stroke="#63b8ff" points="918,-139.09 914.5,-129.09 911,-139.09 918,-139.09"/>
</a>
</g>
</g>
<!-- Node18 -->
<g id="Node000018" class="node">
<title>Node18</title>
<g id="a_Node000018"><a xlink:title=" ">
<polygon fill="#e0e0e0" stroke="#999999" points="1271.5,-74 1215.5,-74 1215.5,-55 1271.5,-55 1271.5,-74"/>
<text text-anchor="middle" x="1243.5" y="-62" font-family="Helvetica,sans-Serif" font-size="10.00">stddef.h</text>
</a>
</g>
</g>
<!-- Node1&#45;&gt;Node18 -->
<g id="edge28_Node000001_Node000018" class="edge">
<title>Node1&#45;&gt;Node18</title>
<g id="a_edge28_Node000001_Node000018"><a xlink:title=" ">
<path fill="none" stroke="#63b8ff" d="M923.89,-164.94C939.68,-151.05 973.13,-123.76 1006.5,-110 1087.06,-76.78 1115.98,-91.02 1205.24,-74.11"/>
<polygon fill="#63b8ff" stroke="#63b8ff" points="1206.12,-77.51 1215.25,-72.14 1204.76,-70.64 1206.12,-77.51"/>
</a>
</g>
</g>
<!-- Node22 -->
<g id="Node000022" class="node">
<title>Node22</title>
<g id="a_Node000022"><a xlink:title=" ">
<polygon fill="#e0e0e0" stroke="#999999" points="1066,-129 1015,-129 1015,-110 1066,-110 1066,-129"/>
<text text-anchor="middle" x="1040.5" y="-117" font-family="Helvetica,sans-Serif" font-size="10.00">errno.h</text>
</a>
</g>
</g>
<!-- Node1&#45;&gt;Node22 -->
<g id="edge27_Node000001_Node000022" class="edge">
<title>Node1&#45;&gt;Node22</title>
<g id="a_edge27_Node000001_Node000022"><a xlink:title=" ">
<path fill="none" stroke="#63b8ff" d="M934.74,-164.98C955.2,-156.38 987.03,-142.99 1010.43,-133.15"/>
<polygon fill="#63b8ff" stroke="#63b8ff" points="1012.03,-136.27 1019.89,-129.17 1009.31,-129.82 1012.03,-136.27"/>
</a>
</g>
</g>
<!-- Node3 -->
<g id="Node000003" class="node">
<title>Node3</title>
<g id="a_Node000003"><a xlink:href="env_8h.html" target="_top" xlink:title="Environment variable utilities and safe access functions.">
<polygon fill="white" stroke="#666666" points="73,-74 30,-74 30,-55 73,-55 73,-74"/>
<text text-anchor="middle" x="51.5" y="-62" font-family="Helvetica,sans-Serif" font-size="10.00">env.h</text>
</a>
</g>
</g>
<!-- Node2&#45;&gt;Node3 -->
<g id="edge2_Node000002_Node000003" class="edge">
<title>Node2&#45;&gt;Node3</title>
<g id="a_edge2_Node000002_Node000003"><a xlink:title=" ">
<path fill="none" stroke="#63b8ff" d="M356.4,-113.31C292.81,-106.82 184.95,-94.27 82.94,-73.82"/>
<polygon fill="#63b8ff" stroke="#63b8ff" points="83.59,-70.38 73.09,-71.82 82.19,-77.24 83.59,-70.38"/>
</a>
</g>
</g>
<!-- Node4 -->
<g id="Node000004" class="node">
<title>Node4</title>
<g id="a_Node000004"><a xlink:title=" ">
<polygon fill="#e0e0e0" stroke="#999999" points="53,-19 0,-19 0,0 53,0 53,-19"/>
<text text-anchor="middle" x="26.5" y="-7" font-family="Helvetica,sans-Serif" font-size="10.00">stdlib.h</text>
</a>
</g>
</g>
<!-- Node2&#45;&gt;Node4 -->
<g id="edge7_Node000002_Node000004" class="edge">
<title>Node2&#45;&gt;Node4</title>
<g id="a_edge7_Node000002_Node000004"><a xlink:title=" ">
<path fill="none" stroke="#63b8ff" d="M356.1,-116.21C253.54,-111.4 42.45,-98.59 20.5,-74 9.69,-61.89 13.23,-42.82 18.23,-28.74"/>
<polygon fill="#63b8ff" stroke="#63b8ff" points="21.61,-29.72 22.12,-19.14 15.12,-27.09 21.61,-29.72"/>
</a>
</g>
</g>
<!-- Node5 -->
<g id="Node000005" class="node">
<title>Node5</title>
<g id="a_Node000005"><a xlink:title=" ">
<polygon fill="#e0e0e0" stroke="#999999" points="147.5,-74 91.5,-74 91.5,-55 147.5,-55 147.5,-74"/>
<text text-anchor="middle" x="119.5" y="-62" font-family="Helvetica,sans-Serif" font-size="10.00">assert.h</text>
</a>
</g>
</g>
<!-- Node2&#45;&gt;Node5 -->
<g id="edge4_Node000002_Node000005" class="edge">
<title>Node2&#45;&gt;Node5</title>
<g id="a_edge4_Node000002_Node000005"><a xlink:title=" ">
<path fill="none" stroke="#63b8ff" d="M361.63,-109.98C311.13,-101.27 230.79,-87.18 161.5,-74 160.4,-73.79 159.29,-73.58 158.17,-73.36"/>
<polygon fill="#63b8ff" stroke="#63b8ff" points="158.44,-69.85 147.95,-71.35 157.09,-76.72 158.44,-69.85"/>
</a>
</g>
</g>
<!-- Node6 -->
<g id="Node000006" class="node">
<title>Node6</title>
<g id="a_Node000006"><a xlink:title=" ">
<polygon fill="#e0e0e0" stroke="#999999" points="653.5,-74 591.5,-74 591.5,-55 653.5,-55 653.5,-74"/>
<text text-anchor="middle" x="622.5" y="-62" font-family="Helvetica,sans-Serif" font-size="10.00">stdbool.h</text>
</a>
</g>
</g>
<!-- Node2&#45;&gt;Node6 -->
<g id="edge5_Node000002_Node000006" class="edge">
<title>Node2&#45;&gt;Node6</title>
<g id="a_edge5_Node000002_Node000006"><a xlink:title=" ">
<path fill="none" stroke="#63b8ff" d="M445.4,-109.98C482.48,-100.67 541.9,-85.75 581.56,-75.78"/>
<polygon fill="#63b8ff" stroke="#63b8ff" points="582.59,-79.13 591.43,-73.3 580.88,-72.35 582.59,-79.13"/>
</a>
</g>
</g>
<!-- Node7 -->
<g id="Node000007" class="node">
<title>Node7</title>
<g id="a_Node000007"><a xlink:title=" ">
<polygon fill="#e0e0e0" stroke="#999999" points="721.5,-74 671.5,-74 671.5,-55 721.5,-55 721.5,-74"/>
<text text-anchor="middle" x="696.5" y="-62" font-family="Helvetica,sans-Serif" font-size="10.00">stdio.h</text>
</a>
</g>
</g>
<!-- Node2&#45;&gt;Node7 -->
<g id="edge6_Node000002_Node000007" class="edge">
<title>Node2&#45;&gt;Node7</title>
<g id="a_edge6_Node000002_Node000007"><a xlink:title=" ">
<path fill="none" stroke="#63b8ff" d="M466.06,-109.95C514.86,-102.05 588.53,-89.5 661.48,-74.1"/>
<polygon fill="#63b8ff" stroke="#63b8ff" points="662.24,-77.51 671.29,-72.01 660.78,-70.67 662.24,-77.51"/>
</a>
</g>
</g>
<!-- Node8 -->
<g id="Node000008" class="node">
<title>Node8</title>
<g id="a_Node000008"><a xlink:title=" ">
<polygon fill="#e0e0e0" stroke="#999999" points="257,-74 204,-74 204,-55 257,-55 257,-74"/>
<text text-anchor="middle" x="230.5" y="-62" font-family="Helvetica,sans-Serif" font-size="10.00">string.h</text>
</a>
</g>
</g>
<!-- Node2&#45;&gt;Node8 -->
<g id="edge8_Node000002_Node000008" class="edge">
<title>Node2&#45;&gt;Node8</title>
<g id="a_edge8_Node000002_Node000008"><a xlink:title=" ">
<path fill="none" stroke="#63b8ff" d="M382.42,-109.98C351.08,-100.81 301.15,-86.19 267.15,-76.23"/>
<polygon fill="#63b8ff" stroke="#63b8ff" points="267.73,-72.75 257.15,-73.3 265.76,-79.47 267.73,-72.75"/>
</a>
</g>
</g>
<!-- Node9 -->
<g id="Node000009" class="node">
<title>Node9</title>
<g id="a_Node000009"><a xlink:title=" ">
<polygon fill="#e0e0e0" stroke="#999999" points="323.5,-74 275.5,-74 275.5,-55 323.5,-55 323.5,-74"/>
<text text-anchor="middle" x="299.5" y="-62" font-family="Helvetica,sans-Serif" font-size="10.00">time.h</text>
</a>
</g>
</g>
<!-- Node2&#45;&gt;Node9 -->
<g id="edge9_Node000002_Node000009" class="edge">
<title>Node2&#45;&gt;Node9</title>
<g id="a_edge9_Node000002_Node000009"><a xlink:title=" ">
<path fill="none" stroke="#63b8ff" d="M393.51,-109.98C375.57,-101.5 347.78,-88.35 327.07,-78.54"/>
<polygon fill="#63b8ff" stroke="#63b8ff" points="328.36,-75.28 317.82,-74.17 325.36,-81.61 328.36,-75.28"/>
</a>
</g>
</g>
<!-- Node10 -->
<g id="Node000010" class="node">
<title>Node10</title>
<g id="a_Node000010"><a xlink:title=" ">
<polygon fill="#e0e0e0" stroke="#999999" points="787,-74 740,-74 740,-55 787,-55 787,-74"/>
<text text-anchor="middle" x="763.5" y="-62" font-family="Helvetica,sans-Serif" font-size="10.00">fcntl.h</text>
</a>
</g>
</g>
<!-- Node2&#45;&gt;Node10 -->
<g id="edge10_Node000002_Node000010" class="edge">
<title>Node2&#45;&gt;Node10</title>
<g id="a_edge10_Node000002_Node000010"><a xlink:title=" ">
<path fill="none" stroke="#63b8ff" d="M466.57,-112.74C528.29,-105.86 631.48,-93.07 729.68,-73.95"/>
<polygon fill="#63b8ff" stroke="#63b8ff" points="730.65,-77.32 739.78,-71.95 729.29,-70.45 730.65,-77.32"/>
</a>
</g>
</g>
<!-- Node11 -->
<g id="Node000011" class="node">
<title>Node11</title>
<g id="a_Node000011"><a xlink:title=" ">
<polygon fill="#e0e0e0" stroke="#999999" points="397,-74 342,-74 342,-55 397,-55 397,-74"/>
<text text-anchor="middle" x="369.5" y="-62" font-family="Helvetica,sans-Serif" font-size="10.00">signal.h</text>
</a>
</g>
</g>
<!-- Node2&#45;&gt;Node11 -->
<g id="edge11_Node000002_Node000011" class="edge">
<title>Node2&#45;&gt;Node11</title>
<g id="a_edge11_Node000002_Node000011"><a xlink:title=" ">
<path fill="none" stroke="#63b8ff" d="M404.56,-109.75C398.63,-102.26 389.93,-91.28 382.68,-82.13"/>
<polygon fill="#63b8ff" stroke="#63b8ff" points="385.26,-79.75 376.31,-74.09 379.77,-84.1 385.26,-79.75"/>
</a>
</g>
</g>
<!-- Node12 -->
<g id="Node000012" class="node">
<title>Node12</title>
<g id="a_Node000012"><a xlink:title=" ">
<polygon fill="#e0e0e0" stroke="#999999" points="489.5,-74 415.5,-74 415.5,-55 489.5,-55 489.5,-74"/>
<text text-anchor="middle" x="452.5" y="-62" font-family="Helvetica,sans-Serif" font-size="10.00">sys/select.h</text>
</a>
</g>
</g>
<!-- Node2&#45;&gt;Node12 -->
<g id="edge12_Node000002_Node000012" class="edge">
<title>Node2&#45;&gt;Node12</title>
<g id="a_edge12_Node000002_Node000012"><a xlink:title=" ">
<path fill="none" stroke="#63b8ff" d="M418.27,-109.75C424.06,-102.26 432.56,-91.28 439.64,-82.13"/>
<polygon fill="#63b8ff" stroke="#63b8ff" points="442.51,-84.14 445.86,-74.09 436.97,-79.86 442.51,-84.14"/>
</a>
</g>
</g>
<!-- Node13 -->
<g id="Node000013" class="node">
<title>Node13</title>
<g id="a_Node000013"><a xlink:title=" ">
<polygon fill="#e0e0e0" stroke="#999999" points="669.5,-19 597.5,-19 597.5,0 669.5,0 669.5,-19"/>
<text text-anchor="middle" x="633.5" y="-7" font-family="Helvetica,sans-Serif" font-size="10.00">sys/types.h</text>
</a>
</g>
</g>
<!-- Node2&#45;&gt;Node13 -->
<g id="edge13_Node000002_Node000013" class="edge">
<title>Node2&#45;&gt;Node13</title>
<g id="a_edge13_Node000002_Node000013"><a xlink:title=" ">
<path fill="none" stroke="#63b8ff" d="M356.23,-118.95C277.2,-117.79 146.47,-108.15 194.5,-55 220.47,-26.26 479.45,-15.16 587.03,-11.76"/>
<polygon fill="#63b8ff" stroke="#63b8ff" points="587.37,-15.25 597.26,-11.45 587.15,-8.25 587.37,-15.25"/>
</a>
</g>
</g>
<!-- Node14 -->
<g id="Node000014" class="node">
<title>Node14</title>
<g id="a_Node000014"><a xlink:title=" ">
<polygon fill="#e0e0e0" stroke="#999999" points="573.5,-74 507.5,-74 507.5,-55 573.5,-55 573.5,-74"/>
<text text-anchor="middle" x="540.5" y="-62" font-family="Helvetica,sans-Serif" font-size="10.00">sys/wait.h</text>
</a>
</g>
</g>
<!-- Node2&#45;&gt;Node14 -->
<g id="edge14_Node000002_Node000014" class="edge">
<title>Node2&#45;&gt;Node14</title>
<g id="a_edge14_Node000002_Node000014"><a xlink:title=" ">
<path fill="none" stroke="#63b8ff" d="M432.23,-109.98C453.26,-101.34 486.05,-87.87 510.04,-78.02"/>
<polygon fill="#63b8ff" stroke="#63b8ff" points="511.48,-81.21 519.4,-74.17 508.82,-74.73 511.48,-81.21"/>
</a>
</g>
</g>
<!-- Node2&#45;&gt;Node15 -->
<g id="edge15_Node000002_Node000015" class="edge">
<title>Node2&#45;&gt;Node15</title>
<g id="a_edge15_Node000002_Node000015"><a xlink:title=" ">
<path fill="none" stroke="#63b8ff" d="M466.76,-113.93C541.6,-107.32 679.2,-93.69 795.5,-74 795.6,-73.98 795.7,-73.97 795.8,-73.95"/>
<polygon fill="#63b8ff" stroke="#63b8ff" points="796.17,-77.44 805.34,-72.14 794.87,-70.56 796.17,-77.44"/>
</a>
</g>
</g>
<!-- Node3&#45;&gt;Node4 -->
<g id="edge3_Node000003_Node000004" class="edge">
<title>Node3&#45;&gt;Node4</title>
<g id="a_edge3_Node000003_Node000004"><a xlink:title=" ">
<path fill="none" stroke="#63b8ff" d="M47.37,-54.75C43.99,-47.57 39.08,-37.18 34.88,-28.27"/>
<polygon fill="#63b8ff" stroke="#63b8ff" points="37.98,-26.64 30.55,-19.09 31.65,-29.63 37.98,-26.64"/>
</a>
</g>
</g>
<!-- Node16&#45;&gt;Node6 -->
<g id="edge19_Node000016_Node000006" class="edge">
<title>Node16&#45;&gt;Node6</title>
<g id="a_edge19_Node000016_Node000006"><a xlink:title=" ">
<path fill="none" stroke="#63b8ff" d="M870.26,-111.16C821.94,-103.05 742.01,-89.31 663.93,-74.23"/>
<polygon fill="#63b8ff" stroke="#63b8ff" points="664.41,-70.75 653.92,-72.28 663.07,-77.63 664.41,-70.75"/>
</a>
</g>
</g>
<!-- Node16&#45;&gt;Node7 -->
<g id="edge22_Node000016_Node000007" class="edge">
<title>Node16&#45;&gt;Node7</title>
<g id="a_edge22_Node000016_Node000007"><a xlink:title=" ">
<path fill="none" stroke="#63b8ff" d="M878.86,-109.97C843.81,-101.55 788.51,-88.23 731.63,-74.26"/>
<polygon fill="#63b8ff" stroke="#63b8ff" points="732.29,-70.82 721.75,-71.83 730.62,-77.62 732.29,-70.82"/>
</a>
</g>
</g>
<!-- Node16&#45;&gt;Node10 -->
<g id="edge23_Node000016_Node000010" class="edge">
<title>Node16&#45;&gt;Node10</title>
<g id="a_edge23_Node000016_Node000010"><a xlink:title=" ">
<path fill="none" stroke="#63b8ff" d="M890.24,-109.98C864.88,-101.09 824.93,-87.06 796.67,-77.14"/>
<polygon fill="#63b8ff" stroke="#63b8ff" points="797.8,-73.83 787.2,-73.82 795.48,-80.43 797.8,-73.83"/>
</a>
</g>
</g>
<!-- Node16&#45;&gt;Node15 -->
<g id="edge26_Node000016_Node000015" class="edge">
<title>Node16&#45;&gt;Node15</title>
<g id="a_edge26_Node000016_Node000015"><a xlink:title=" ">
<path fill="none" stroke="#63b8ff" d="M901.49,-109.98C889.04,-101.84 870.04,-89.41 855.29,-79.76"/>
<polygon fill="#63b8ff" stroke="#63b8ff" points="857.04,-76.72 846.75,-74.17 853.2,-82.57 857.04,-76.72"/>
</a>
</g>
</g>
<!-- Node17 -->
<g id="Node000017" class="node">
<title>Node17</title>
<g id="a_Node000017"><a xlink:href="platform_8h.html" target="_top" xlink:title="Cross&#45;platform compatibility definitions.">
<polygon fill="white" stroke="#666666" points="1125.5,-74 1057.5,-74 1057.5,-55 1125.5,-55 1125.5,-74"/>
<text text-anchor="middle" x="1091.5" y="-62" font-family="Helvetica,sans-Serif" font-size="10.00">platform.h</text>
</a>
</g>
</g>
<!-- Node16&#45;&gt;Node17 -->
<g id="edge17_Node000016_Node000017" class="edge">
<title>Node16&#45;&gt;Node17</title>
<g id="a_edge17_Node000016_Node000017"><a xlink:title=" ">
<path fill="none" stroke="#63b8ff" d="M942.94,-109.98C972.78,-101.05 1019.88,-86.94 1053.03,-77.02"/>
<polygon fill="#63b8ff" stroke="#63b8ff" points="1054.26,-80.3 1062.84,-74.08 1052.26,-73.6 1054.26,-80.3"/>
</a>
</g>
</g>
<!-- Node16&#45;&gt;Node18 -->
<g id="edge20_Node000016_Node000018" class="edge">
<title>Node16&#45;&gt;Node18</title>
<g id="a_edge20_Node000016_Node000018"><a xlink:title=" ">
<path fill="none" stroke="#63b8ff" d="M958.54,-111.97C1028.05,-101.65 1159.32,-82.04 1205.29,-74.03"/>
<polygon fill="#63b8ff" stroke="#63b8ff" points="1206.05,-77.45 1215.26,-72.21 1204.8,-70.56 1206.05,-77.45"/>
</a>
</g>
</g>
<!-- Node19 -->
<g id="Node000019" class="node">
<title>Node19</title>
<g id="a_Node000019"><a xlink:title=" ">
<polygon fill="#e0e0e0" stroke="#999999" points="1197,-74 1144,-74 1144,-55 1197,-55 1197,-74"/>
<text text-anchor="middle" x="1170.5" y="-62" font-family="Helvetica,sans-Serif" font-size="10.00">stdint.h</text>
</a>
</g>
</g>
<!-- Node16&#45;&gt;Node19 -->
<g id="edge21_Node000016_Node000019" class="edge">
<title>Node16&#45;&gt;Node19</title>
<g id="a_edge21_Node000016_Node000019"><a xlink:title=" ">
<path fill="none" stroke="#63b8ff" d="M958.83,-109.97C1001.24,-101.71 1067.24,-88.61 1133.94,-74.06"/>
<polygon fill="#63b8ff" stroke="#63b8ff" points="1134.77,-77.47 1143.79,-71.91 1133.27,-70.63 1134.77,-77.47"/>
</a>
</g>
</g>
<!-- Node20 -->
<g id="Node000020" class="node">
<title>Node20</title>
<g id="a_Node000020"><a xlink:title=" ">
<polygon fill="#e0e0e0" stroke="#999999" points="957,-74 880,-74 880,-55 957,-55 957,-74"/>
<text text-anchor="middle" x="918.5" y="-62" font-family="Helvetica,sans-Serif" font-size="10.00">sys/mman.h</text>
</a>
</g>
</g>
<!-- Node16&#45;&gt;Node20 -->
<g id="edge24_Node000016_Node000020" class="edge">
<title>Node16&#45;&gt;Node20</title>
<g id="a_edge24_Node000016_Node000020"><a xlink:title=" ">
<path fill="none" stroke="#63b8ff" d="M915.16,-109.75C915.68,-102.8 916.44,-92.85 917.09,-84.13"/>
<polygon fill="#63b8ff" stroke="#63b8ff" points="920.59,-84.32 917.85,-74.09 913.61,-83.8 920.59,-84.32"/>
</a>
</g>
</g>
<!-- Node21 -->
<g id="Node000021" class="node">
<title>Node21</title>
<g id="a_Node000021"><a xlink:title=" ">
<polygon fill="#e0e0e0" stroke="#999999" points="1039.5,-74 975.5,-74 975.5,-55 1039.5,-55 1039.5,-74"/>
<text text-anchor="middle" x="1007.5" y="-62" font-family="Helvetica,sans-Serif" font-size="10.00">sys/stat.h</text>
</a>
</g>
</g>
<!-- Node16&#45;&gt;Node21 -->
<g id="edge25_Node000016_Node000021" class="edge">
<title>Node16&#45;&gt;Node21</title>
<g id="a_edge25_Node000016_Node000021"><a xlink:title=" ">
<path fill="none" stroke="#63b8ff" d="M929.44,-109.98C944,-101.69 966.37,-88.94 983.43,-79.22"/>
<polygon fill="#63b8ff" stroke="#63b8ff" points="985.33,-82.16 992.29,-74.17 981.86,-76.08 985.33,-82.16"/>
</a>
</g>
</g>
<!-- Node17&#45;&gt;Node13 -->
<g id="edge18_Node000017_Node000013" class="edge">
<title>Node17&#45;&gt;Node13</title>
<g id="a_edge18_Node000017_Node000013"><a xlink:title=" ">
<path fill="none" stroke="#63b8ff" d="M1057.28,-56.45C1054.32,-55.93 1051.36,-55.43 1048.5,-55 915.42,-34.75 756.96,-20.46 680.02,-14.14"/>
<polygon fill="#63b8ff" stroke="#63b8ff" points="679.97,-10.62 669.72,-13.3 679.4,-17.6 679.97,-10.62"/>
</a>
</g>
</g>
</g>
</svg>
