<?xml version="1.0" encoding="UTF-8" standalone="no"?>
<!DOCTYPE svg PUBLIC "-//W3C//DTD SVG 1.1//EN"
 "http://www.w3.org/Graphics/SVG/1.1/DTD/svg11.dtd">
<!-- Generated by graphviz version 2.43.0 (0)
 -->
<!-- Title: regex_iter_init Pages: 1 -->
<svg width="209pt" height="45pt"
 viewBox="0.00 0.00 209.00 45.00" xmlns="http://www.w3.org/2000/svg" xmlns:xlink="http://www.w3.org/1999/xlink">
<g id="graph0" class="graph" transform="scale(1 1) rotate(0) translate(4 41)">
<title>regex_iter_init</title>
<!-- Node1 -->
<g id="Node000001" class="node">
<title>Node1</title>
<g id="a_Node000001"><a xlink:title=" ">
<polygon fill="#999999" stroke="#666666" points="87,-19 0,-19 0,0 87,0 87,-19"/>
<text text-anchor="middle" x="43.5" y="-7" font-family="Helvetica,sans-Serif" font-size="10.00">regex_iter_init</text>
</a>
</g>
</g>
<!-- Node1&#45;&gt;Node1 -->
<g id="edge1_Node000001_Node000001" class="edge">
<title>Node1&#45;&gt;Node1</title>
<g id="a_edge1_Node000001_Node000001"><a xlink:title=" ">
<path fill="none" stroke="#63b8ff" d="M25.31,-19.08C16.46,-27.73 22.53,-37 43.5,-37 56.61,-37 63.89,-33.38 65.35,-28.55"/>
<polygon fill="#63b8ff" stroke="#63b8ff" points="68.56,-27.15 61.69,-19.08 62.03,-29.67 68.56,-27.15"/>
</a>
</g>
</g>
<!-- Node2 -->
<g id="Node000002" class="node">
<title>Node2</title>
<g id="a_Node000002"><a xlink:href="regex_8c.html#a0ce2ef93d52a74e647bd9319370236fc" target="_top" xlink:title=" ">
<polygon fill="white" stroke="#666666" points="201,-19 123,-19 123,0 201,0 201,-19"/>
<text text-anchor="middle" x="162" y="-7" font-family="Helvetica,sans-Serif" font-size="10.00">regex_retain</text>
</a>
</g>
</g>
<!-- Node1&#45;&gt;Node2 -->
<g id="edge2_Node000001_Node000002" class="edge">
<title>Node1&#45;&gt;Node2</title>
<g id="a_edge2_Node000001_Node000002"><a xlink:title=" ">
<path fill="none" stroke="#63b8ff" d="M87.22,-9.5C95.53,-9.5 104.29,-9.5 112.77,-9.5"/>
<polygon fill="#63b8ff" stroke="#63b8ff" points="112.91,-13 122.91,-9.5 112.91,-6 112.91,-13"/>
</a>
</g>
</g>
<!-- Node2&#45;&gt;Node2 -->
<g id="edge3_Node000002_Node000002" class="edge">
<title>Node2&#45;&gt;Node2</title>
<g id="a_edge3_Node000002_Node000002"><a xlink:title=" ">
<path fill="none" stroke="#63b8ff" d="M143.81,-19.08C134.96,-27.73 141.03,-37 162,-37 175.11,-37 182.39,-33.38 183.85,-28.55"/>
<polygon fill="#63b8ff" stroke="#63b8ff" points="187.06,-27.15 180.19,-19.08 180.53,-29.67 187.06,-27.15"/>
</a>
</g>
</g>
</g>
</svg>
