<?xml version="1.0" encoding="UTF-8" standalone="no"?>
<!DOCTYPE svg PUBLIC "-//W3C//DTD SVG 1.1//EN"
 "http://www.w3.org/Graphics/SVG/1.1/DTD/svg11.dtd">
<!-- Generated by graphviz version 2.43.0 (0)
 -->
<!-- Title: regex_iter_free Pages: 1 -->
<svg width="204pt" height="45pt"
 viewBox="0.00 0.00 204.00 45.00" xmlns="http://www.w3.org/2000/svg" xmlns:xlink="http://www.w3.org/1999/xlink">
<g id="graph0" class="graph" transform="scale(1 1) rotate(0) translate(4 41)">
<title>regex_iter_free</title>
<!-- Node1 -->
<g id="Node000001" class="node">
<title>Node1</title>
<g id="a_Node000001"><a xlink:title=" ">
<polygon fill="#999999" stroke="#666666" points="91,-19 0,-19 0,0 91,0 91,-19"/>
<text text-anchor="middle" x="45.5" y="-7" font-family="Helvetica,sans-Serif" font-size="10.00">regex_iter_free</text>
</a>
</g>
</g>
<!-- Node1&#45;&gt;Node1 -->
<g id="edge3_Node000001_Node000001" class="edge">
<title>Node1&#45;&gt;Node1</title>
<g id="a_edge3_Node000001_Node000001"><a xlink:title=" ">
<path fill="none" stroke="#63b8ff" d="M27.62,-19.08C18.92,-27.73 24.88,-37 45.5,-37 58.39,-37 65.55,-33.38 66.98,-28.55"/>
<polygon fill="#63b8ff" stroke="#63b8ff" points="70.2,-27.19 63.38,-19.08 63.66,-29.67 70.2,-27.19"/>
</a>
</g>
</g>
<!-- Node2 -->
<g id="Node000002" class="node">
<title>Node2</title>
<g id="a_Node000002"><a xlink:href="regex_8c.html#aeda70ed5561fa07bdd655c1099ddbb15" target="_top" xlink:title=" ">
<polygon fill="white" stroke="#666666" points="196,-19 127,-19 127,0 196,0 196,-19"/>
<text text-anchor="middle" x="161.5" y="-7" font-family="Helvetica,sans-Serif" font-size="10.00">regex_free</text>
</a>
</g>
</g>
<!-- Node1&#45;&gt;Node2 -->
<g id="edge1_Node000001_Node000002" class="edge">
<title>Node1&#45;&gt;Node2</title>
<g id="a_edge1_Node000001_Node000002"><a xlink:title=" ">
<path fill="none" stroke="#63b8ff" d="M91.23,-9.5C99.56,-9.5 108.26,-9.5 116.57,-9.5"/>
<polygon fill="#63b8ff" stroke="#63b8ff" points="116.83,-13 126.83,-9.5 116.83,-6 116.83,-13"/>
</a>
</g>
</g>
<!-- Node2&#45;&gt;Node2 -->
<g id="edge2_Node000002_Node000002" class="edge">
<title>Node2&#45;&gt;Node2</title>
<g id="a_edge2_Node000002_Node000002"><a xlink:title=" ">
<path fill="none" stroke="#63b8ff" d="M143.62,-19.08C134.92,-27.73 140.88,-37 161.5,-37 174.39,-37 181.55,-33.38 182.98,-28.55"/>
<polygon fill="#63b8ff" stroke="#63b8ff" points="186.2,-27.19 179.38,-19.08 179.66,-29.67 186.2,-27.19"/>
</a>
</g>
</g>
</g>
</svg>
