<?xml version="1.0" encoding="UTF-8" standalone="no"?>
<!DOCTYPE svg PUBLIC "-//W3C//DTD SVG 1.1//EN"
 "http://www.w3.org/Graphics/SVG/1.1/DTD/svg11.dtd">
<!-- Generated by graphviz version 2.43.0 (0)
 -->
<!-- Title: include/simd.h Pages: 1 -->
<svg width="304pt" height="247pt"
 viewBox="0.00 0.00 303.50 247.00" xmlns="http://www.w3.org/2000/svg" xmlns:xlink="http://www.w3.org/1999/xlink">

<svg id="main" version="1.1" xmlns="http://www.w3.org/2000/svg" xmlns:xlink="http://www.w3.org/1999/xlink" xml:space="preserve" onload="init(evt)">
<style type="text/css"><![CDATA[
.node, .edge {opacity: 0.7;}
.node.selected, .edge.selected {opacity: 1;}
.edge:hover path { stroke: red; }
.edge:hover polygon { stroke: red; fill: red; }
]]></style>
<script type="application/ecmascript" xlink:href="svg.min.js"/>
<svg id="graph" class="graph">
<g id="graph0" class="graph" transform="scale(1 1) rotate(0) translate(4 243)">
<title>include/simd.h</title>
<!-- Node1 -->
<g id="Node000001" class="node">
<title>Node1</title>
<g id="a_Node000001"><a xlink:title="Portable Single Instruction Multiple Data (SIMD) Intrinsics Wrapper.">
<polygon fill="#999999" stroke="#666666" points="88,-239 0,-239 0,-220 88,-220 88,-239"/>
<text text-anchor="middle" x="44" y="-227" font-family="Helvetica,sans-Serif" font-size="10.00">include/simd.h</text>
</a>
</g>
</g>
<!-- Node2 -->
<g id="Node000002" class="node">
<title>Node2</title>
<g id="a_Node000002"><a xlink:href="solidc_8h.html" target="_top" xlink:title="Master header file that includes all SolidC library modules.">
<polygon fill="white" stroke="#666666" points="110,-19 18,-19 18,0 110,0 110,-19"/>
<text text-anchor="middle" x="64" y="-7" font-family="Helvetica,sans-Serif" font-size="10.00">include/solidc.h</text>
</a>
</g>
</g>
<!-- Node1&#45;&gt;Node2 -->
<g id="edge1_Node000001_Node000002" class="edge">
<title>Node1&#45;&gt;Node2</title>
<g id="a_edge1_Node000001_Node000002"><a xlink:title=" ">
<path fill="none" stroke="#63b8ff" d="M39.37,-210.19C32.06,-178.05 20.23,-109.68 36,-55 39.95,-41.32 49.48,-27.79 56.33,-19.3"/>
<polygon fill="#63b8ff" stroke="#63b8ff" points="35.98,-211.06 41.71,-219.97 42.78,-209.43 35.98,-211.06"/>
</a>
</g>
</g>
<!-- Node3 -->
<g id="Node000003" class="node">
<title>Node3</title>
<g id="a_Node000003"><a xlink:href="vec_8h_source.html" target="_top" xlink:title=" ">
<polygon fill="white" stroke="#666666" points="145.5,-184 64.5,-184 64.5,-165 145.5,-165 145.5,-184"/>
<text text-anchor="middle" x="105" y="-172" font-family="Helvetica,sans-Serif" font-size="10.00">include/vec.h</text>
</a>
</g>
</g>
<!-- Node1&#45;&gt;Node3 -->
<g id="edge2_Node000001_Node000003" class="edge">
<title>Node1&#45;&gt;Node3</title>
<g id="a_edge2_Node000001_Node000003"><a xlink:title=" ">
<path fill="none" stroke="#63b8ff" d="M61.47,-213.32C72.34,-203.87 85.94,-192.06 95.02,-184.17"/>
<polygon fill="#63b8ff" stroke="#63b8ff" points="59.05,-210.78 53.8,-219.98 63.65,-216.07 59.05,-210.78"/>
</a>
</g>
</g>
<!-- Node3&#45;&gt;Node2 -->
<g id="edge11_Node000003_Node000002" class="edge">
<title>Node3&#45;&gt;Node2</title>
<g id="a_edge11_Node000003_Node000002"><a xlink:title=" ">
<path fill="none" stroke="#63b8ff" d="M90.08,-157.01C74.35,-138.41 50.55,-106.49 41,-74 35.12,-53.98 48.53,-31.1 57.26,-19.02"/>
<polygon fill="#63b8ff" stroke="#63b8ff" points="87.65,-159.55 96.86,-164.79 92.93,-154.95 87.65,-159.55"/>
</a>
</g>
</g>
<!-- Node4 -->
<g id="Node000004" class="node">
<title>Node4</title>
<g id="a_Node000004"><a xlink:href="linear__alg_8h.html" target="_top" xlink:title="Linear algebra operations and utilities.">
<polygon fill="white" stroke="#666666" points="162,-74 50,-74 50,-55 162,-55 162,-74"/>
<text text-anchor="middle" x="106" y="-62" font-family="Helvetica,sans-Serif" font-size="10.00">include/linear_alg.h</text>
</a>
</g>
</g>
<!-- Node3&#45;&gt;Node4 -->
<g id="edge3_Node000003_Node000004" class="edge">
<title>Node3&#45;&gt;Node4</title>
<g id="a_edge3_Node000003_Node000004"><a xlink:title=" ">
<path fill="none" stroke="#63b8ff" d="M105.18,-154.48C105.39,-130.84 105.76,-91.5 105.92,-74.16"/>
<polygon fill="#63b8ff" stroke="#63b8ff" points="101.67,-154.63 105.08,-164.66 108.67,-154.69 101.67,-154.63"/>
</a>
</g>
</g>
<!-- Node5 -->
<g id="Node000005" class="node">
<title>Node5</title>
<g id="a_Node000005"><a xlink:href="matrix_8h.html" target="_top" xlink:title="Matrix operations and mathematical utilities.">
<polygon fill="white" stroke="#666666" points="229,-129 133,-129 133,-110 229,-110 229,-129"/>
<text text-anchor="middle" x="181" y="-117" font-family="Helvetica,sans-Serif" font-size="10.00">include/matrix.h</text>
</a>
</g>
</g>
<!-- Node3&#45;&gt;Node5 -->
<g id="edge5_Node000003_Node000005" class="edge">
<title>Node3&#45;&gt;Node5</title>
<g id="a_edge5_Node000003_Node000005"><a xlink:title=" ">
<path fill="none" stroke="#63b8ff" d="M125.58,-159.15C139.31,-149.57 156.93,-137.29 168.57,-129.17"/>
<polygon fill="#63b8ff" stroke="#63b8ff" points="123.41,-156.39 117.21,-164.98 127.42,-162.14 123.41,-156.39"/>
</a>
</g>
</g>
<!-- Node6 -->
<g id="Node000006" class="node">
<title>Node6</title>
<g id="a_Node000006"><a xlink:href="ml_8h.html" target="_top" xlink:title="Simple Machine Learning library using 4x4 Matrices and Vectors.">
<polygon fill="white" stroke="#666666" points="295.5,-74 218.5,-74 218.5,-55 295.5,-55 295.5,-74"/>
<text text-anchor="middle" x="257" y="-62" font-family="Helvetica,sans-Serif" font-size="10.00">include/ml.h</text>
</a>
</g>
</g>
<!-- Node3&#45;&gt;Node6 -->
<g id="edge10_Node000003_Node000006" class="edge">
<title>Node3&#45;&gt;Node6</title>
<g id="a_edge10_Node000003_Node000006"><a xlink:title=" ">
<path fill="none" stroke="#63b8ff" d="M155.66,-167.96C183.4,-162.4 216.43,-151.28 238,-129 252.73,-113.79 256.1,-87.64 256.83,-74.13"/>
<polygon fill="#63b8ff" stroke="#63b8ff" points="154.92,-164.53 145.71,-169.76 156.17,-171.42 154.92,-164.53"/>
</a>
</g>
</g>
<!-- Node4&#45;&gt;Node2 -->
<g id="edge4_Node000004_Node000002" class="edge">
<title>Node4&#45;&gt;Node2</title>
<g id="a_edge4_Node000004_Node000002"><a xlink:title=" ">
<path fill="none" stroke="#63b8ff" d="M92.67,-46.67C85.39,-37.5 76.7,-26.52 70.81,-19.09"/>
<polygon fill="#63b8ff" stroke="#63b8ff" points="90.11,-49.08 99.06,-54.75 95.6,-44.74 90.11,-49.08"/>
</a>
</g>
</g>
<!-- Node5&#45;&gt;Node2 -->
<g id="edge9_Node000005_Node000002" class="edge">
<title>Node5&#45;&gt;Node2</title>
<g id="a_edge9_Node000005_Node000002"><a xlink:title=" ">
<path fill="none" stroke="#63b8ff" d="M182.64,-99.4C182.81,-85.68 180.81,-67.47 171,-55 156.14,-36.1 131.84,-25.15 110.14,-18.84"/>
<polygon fill="#63b8ff" stroke="#63b8ff" points="179.14,-99.49 182.12,-109.65 186.13,-99.84 179.14,-99.49"/>
</a>
</g>
</g>
<!-- Node5&#45;&gt;Node4 -->
<g id="edge6_Node000005_Node000004" class="edge">
<title>Node5&#45;&gt;Node4</title>
<g id="a_edge6_Node000005_Node000004"><a xlink:title=" ">
<path fill="none" stroke="#63b8ff" d="M160.69,-104.15C147.14,-94.57 129.76,-82.29 118.27,-74.17"/>
<polygon fill="#63b8ff" stroke="#63b8ff" points="158.76,-107.07 168.95,-109.98 162.8,-101.36 158.76,-107.07"/>
</a>
</g>
</g>
<!-- Node5&#45;&gt;Node6 -->
<g id="edge7_Node000005_Node000006" class="edge">
<title>Node5&#45;&gt;Node6</title>
<g id="a_edge7_Node000005_Node000006"><a xlink:title=" ">
<path fill="none" stroke="#63b8ff" d="M201.58,-104.15C215.31,-94.57 232.93,-82.29 244.57,-74.17"/>
<polygon fill="#63b8ff" stroke="#63b8ff" points="199.41,-101.39 193.21,-109.98 203.42,-107.14 199.41,-101.39"/>
</a>
</g>
</g>
<!-- Node7 -->
<g id="Node000007" class="node">
<title>Node7</title>
<g id="a_Node000007"><a xlink:href="ml_8c_source.html" target="_top" xlink:title=" ">
<polygon fill="white" stroke="#666666" points="284.5,-19 229.5,-19 229.5,0 284.5,0 284.5,-19"/>
<text text-anchor="middle" x="257" y="-7" font-family="Helvetica,sans-Serif" font-size="10.00">src/ml.c</text>
</a>
</g>
</g>
<!-- Node6&#45;&gt;Node7 -->
<g id="edge8_Node000006_Node000007" class="edge">
<title>Node6&#45;&gt;Node7</title>
<g id="a_edge8_Node000006_Node000007"><a xlink:title=" ">
<path fill="none" stroke="#63b8ff" d="M257,-44.66C257,-35.93 257,-25.99 257,-19.09"/>
<polygon fill="#63b8ff" stroke="#63b8ff" points="253.5,-44.75 257,-54.75 260.5,-44.75 253.5,-44.75"/>
</a>
</g>
</g>
</g>
</svg>
</svg>

<style type='text/css'>
<![CDATA[
[data-mouse-over-selected='false'] { opacity: 0.7; }
[data-mouse-over-selected='true']  { opacity: 1.0; }
]]>
</style>
<script type="application/ecmascript"><![CDATA[
document.addEventListener('DOMContentLoaded', (event) => {
  highlightEdges();
  highlightAdjacentNodes();
});
]]></script>
</svg>
