<?xml version="1.0" encoding="UTF-8" standalone="no"?>
<!DOCTYPE svg PUBLIC "-//W3C//DTD SVG 1.1//EN"
 "http://www.w3.org/Graphics/SVG/1.1/DTD/svg11.dtd">
<!-- Generated by graphviz version 2.43.0 (0)
 -->
<!-- Title: include/simd.h Pages: 1 -->
<svg width="218pt" height="247pt"
 viewBox="0.00 0.00 218.00 247.00" xmlns="http://www.w3.org/2000/svg" xmlns:xlink="http://www.w3.org/1999/xlink">

<svg id="main" version="1.1" xmlns="http://www.w3.org/2000/svg" xmlns:xlink="http://www.w3.org/1999/xlink" xml:space="preserve" onload="init(evt)">
<style type="text/css"><![CDATA[
.node, .edge {opacity: 0.7;}
.node.selected, .edge.selected {opacity: 1;}
.edge:hover path { stroke: red; }
.edge:hover polygon { stroke: red; fill: red; }
]]></style>
<script type="application/ecmascript" xlink:href="svg.min.js"/>
<svg id="graph" class="graph">
<g id="graph0" class="graph" transform="scale(1 1) rotate(0) translate(4 243)">
<title>include/simd.h</title>
<!-- Node1 -->
<g id="Node000001" class="node">
<title>Node1</title>
<g id="a_Node000001"><a xlink:title="Portable Single Instruction Multiple Data (SIMD) Intrinsics Wrapper.">
<polygon fill="#999999" stroke="#666666" points="88,-239 0,-239 0,-220 88,-220 88,-239"/>
<text text-anchor="middle" x="44" y="-227" font-family="Helvetica,sans-Serif" font-size="10.00">include/simd.h</text>
</a>
</g>
</g>
<!-- Node2 -->
<g id="Node000002" class="node">
<title>Node2</title>
<g id="a_Node000002"><a xlink:href="solidc_8h.html" target="_top" xlink:title="Master header file that includes all SolidC library modules.">
<polygon fill="white" stroke="#666666" points="136,-19 44,-19 44,0 136,0 136,-19"/>
<text text-anchor="middle" x="90" y="-7" font-family="Helvetica,sans-Serif" font-size="10.00">include/solidc.h</text>
</a>
</g>
</g>
<!-- Node1&#45;&gt;Node2 -->
<g id="edge1_Node000001_Node000002" class="edge">
<title>Node1&#45;&gt;Node2</title>
<g id="a_edge1_Node000001_Node000002"><a xlink:title=" ">
<path fill="none" stroke="#63b8ff" d="M37.41,-210.16C33.64,-197.53 30.01,-180.32 32,-165 38.5,-114.86 40.49,-101.21 61,-55 66.91,-41.68 76.57,-27.85 83.1,-19.22"/>
<polygon fill="#63b8ff" stroke="#63b8ff" points="34.17,-211.52 40.62,-219.92 40.82,-209.33 34.17,-211.52"/>
</a>
</g>
</g>
<!-- Node3 -->
<g id="Node000003" class="node">
<title>Node3</title>
<g id="a_Node000003"><a xlink:href="vec_8h_source.html" target="_top" xlink:title=" ">
<polygon fill="white" stroke="#666666" points="122.5,-184 41.5,-184 41.5,-165 122.5,-165 122.5,-184"/>
<text text-anchor="middle" x="82" y="-172" font-family="Helvetica,sans-Serif" font-size="10.00">include/vec.h</text>
</a>
</g>
</g>
<!-- Node1&#45;&gt;Node3 -->
<g id="edge2_Node000001_Node000003" class="edge">
<title>Node1&#45;&gt;Node3</title>
<g id="a_edge2_Node000001_Node000003"><a xlink:title=" ">
<path fill="none" stroke="#63b8ff" d="M56.27,-211.39C62.81,-202.27 70.57,-191.45 75.84,-184.09"/>
<polygon fill="#63b8ff" stroke="#63b8ff" points="53.26,-209.58 50.27,-219.75 58.95,-213.66 53.26,-209.58"/>
</a>
</g>
</g>
<!-- Node3&#45;&gt;Node2 -->
<g id="edge8_Node000003_Node000002" class="edge">
<title>Node3&#45;&gt;Node2</title>
<g id="a_edge8_Node000003_Node000002"><a xlink:title=" ">
<path fill="none" stroke="#63b8ff" d="M75.58,-155.06C68.32,-131.55 58.54,-89.79 67,-55 70.25,-41.65 78.25,-27.83 83.9,-19.2"/>
<polygon fill="#63b8ff" stroke="#63b8ff" points="72.31,-156.34 78.75,-164.75 78.96,-154.16 72.31,-156.34"/>
</a>
</g>
</g>
<!-- Node4 -->
<g id="Node000004" class="node">
<title>Node4</title>
<g id="a_Node000004"><a xlink:href="linear__alg_8h.html" target="_top" xlink:title="Linear algebra operations and utilities.">
<polygon fill="white" stroke="#666666" points="188,-74 76,-74 76,-55 188,-55 188,-74"/>
<text text-anchor="middle" x="132" y="-62" font-family="Helvetica,sans-Serif" font-size="10.00">include/linear_alg.h</text>
</a>
</g>
</g>
<!-- Node3&#45;&gt;Node4 -->
<g id="edge3_Node000003_Node000004" class="edge">
<title>Node3&#45;&gt;Node4</title>
<g id="a_edge3_Node000003_Node000004"><a xlink:title=" ">
<path fill="none" stroke="#63b8ff" d="M87.61,-155.06C91.78,-142.17 97.96,-124.71 105,-110 111.24,-96.96 120.23,-82.84 126.09,-74.08"/>
<polygon fill="#63b8ff" stroke="#63b8ff" points="84.25,-154.06 84.59,-164.65 90.93,-156.16 84.25,-154.06"/>
</a>
</g>
</g>
<!-- Node5 -->
<g id="Node000005" class="node">
<title>Node5</title>
<g id="a_Node000005"><a xlink:href="matrix_8h.html" target="_top" xlink:title="Matrix operations and mathematical utilities.">
<polygon fill="white" stroke="#666666" points="210,-129 114,-129 114,-110 210,-110 210,-129"/>
<text text-anchor="middle" x="162" y="-117" font-family="Helvetica,sans-Serif" font-size="10.00">include/matrix.h</text>
</a>
</g>
</g>
<!-- Node3&#45;&gt;Node5 -->
<g id="edge5_Node000003_Node000005" class="edge">
<title>Node3&#45;&gt;Node5</title>
<g id="a_edge5_Node000003_Node000005"><a xlink:title=" ">
<path fill="none" stroke="#63b8ff" d="M103.25,-159.42C117.76,-149.81 136.54,-137.37 148.91,-129.17"/>
<polygon fill="#63b8ff" stroke="#63b8ff" points="101.26,-156.54 94.85,-164.98 105.12,-162.38 101.26,-156.54"/>
</a>
</g>
</g>
<!-- Node4&#45;&gt;Node2 -->
<g id="edge4_Node000004_Node000002" class="edge">
<title>Node4&#45;&gt;Node2</title>
<g id="a_edge4_Node000004_Node000002"><a xlink:title=" ">
<path fill="none" stroke="#63b8ff" d="M118.67,-46.67C111.39,-37.5 102.7,-26.52 96.81,-19.09"/>
<polygon fill="#63b8ff" stroke="#63b8ff" points="116.11,-49.08 125.06,-54.75 121.6,-44.74 116.11,-49.08"/>
</a>
</g>
</g>
<!-- Node5&#45;&gt;Node2 -->
<g id="edge7_Node000005_Node000002" class="edge">
<title>Node5&#45;&gt;Node2</title>
<g id="a_edge7_Node000005_Node000002"><a xlink:title=" ">
<path fill="none" stroke="#63b8ff" d="M180.74,-102.62C193.88,-89.5 207.4,-70.58 197,-55 183.38,-34.58 158.44,-23.52 136.06,-17.53"/>
<polygon fill="#63b8ff" stroke="#63b8ff" points="178.17,-100.23 173.23,-109.6 182.94,-105.35 178.17,-100.23"/>
</a>
</g>
</g>
<!-- Node5&#45;&gt;Node4 -->
<g id="edge6_Node000005_Node000004" class="edge">
<title>Node5&#45;&gt;Node4</title>
<g id="a_edge6_Node000005_Node000004"><a xlink:title=" ">
<path fill="none" stroke="#63b8ff" d="M151.99,-100.82C146.9,-91.82 140.94,-81.29 136.86,-74.09"/>
<polygon fill="#63b8ff" stroke="#63b8ff" points="149.07,-102.77 157.05,-109.75 155.17,-99.32 149.07,-102.77"/>
</a>
</g>
</g>
</g>
</svg>
</svg>

<style type='text/css'>
<![CDATA[
[data-mouse-over-selected='false'] { opacity: 0.7; }
[data-mouse-over-selected='true']  { opacity: 1.0; }
]]>
</style>
<script type="application/ecmascript"><![CDATA[
document.addEventListener('DOMContentLoaded', (event) => {
  highlightEdges();
  highlightAdjacentNodes();
});
]]></script>
</svg>
