<?xml version="1.0" encoding="UTF-8" standalone="no"?>
<!DOCTYPE svg PUBLIC "-//W3C//DTD SVG 1.1//EN"
 "http://www.w3.org/Graphics/SVG/1.1/DTD/svg11.dtd">
<!-- Generated by graphviz version 2.43.0 (0)
 -->
<!-- Title: slist_push_front Pages: 1 -->
<svg width="230pt" height="45pt"
 viewBox="0.00 0.00 230.00 45.00" xmlns="http://www.w3.org/2000/svg" xmlns:xlink="http://www.w3.org/1999/xlink">
<g id="graph0" class="graph" transform="scale(1 1) rotate(0) translate(4 41)">
<title>slist_push_front</title>
<!-- Node1 -->
<g id="Node000001" class="node">
<title>Node1</title>
<g id="a_Node000001"><a xlink:title=" ">
<polygon fill="#999999" stroke="#666666" points="94,-19 0,-19 0,0 94,0 94,-19"/>
<text text-anchor="middle" x="47" y="-7" font-family="Helvetica,sans-Serif" font-size="10.00">slist_push_front</text>
</a>
</g>
</g>
<!-- Node1&#45;&gt;Node1 -->
<g id="edge3_Node000001_Node000001" class="edge">
<title>Node1&#45;&gt;Node1</title>
<g id="a_edge3_Node000001_Node000001"><a xlink:title=" ">
<path fill="none" stroke="#63b8ff" d="M27.27,-19.08C17.67,-27.73 24.25,-37 47,-37 61.22,-37 69.12,-33.38 70.7,-28.55"/>
<polygon fill="#63b8ff" stroke="#63b8ff" points="73.83,-26.95 66.73,-19.08 67.37,-29.66 73.83,-26.95"/>
</a>
</g>
</g>
<!-- Node2 -->
<g id="Node000002" class="node">
<title>Node2</title>
<g id="a_Node000002"><a xlink:href="slist_8c.html#a85d1cab8127d09fa948e5527d3c9a6f5" target="_top" xlink:title=" ">
<polygon fill="white" stroke="#666666" points="222,-19 130,-19 130,0 222,0 222,-19"/>
<text text-anchor="middle" x="176" y="-7" font-family="Helvetica,sans-Serif" font-size="10.00">slist_node_new</text>
</a>
</g>
</g>
<!-- Node1&#45;&gt;Node2 -->
<g id="edge1_Node000001_Node000002" class="edge">
<title>Node1&#45;&gt;Node2</title>
<g id="a_edge1_Node000001_Node000002"><a xlink:title=" ">
<path fill="none" stroke="#63b8ff" d="M94.21,-9.5C102.48,-9.5 111.17,-9.5 119.67,-9.5"/>
<polygon fill="#63b8ff" stroke="#63b8ff" points="119.89,-13 129.89,-9.5 119.89,-6 119.89,-13"/>
</a>
</g>
</g>
<!-- Node2&#45;&gt;Node2 -->
<g id="edge2_Node000002_Node000002" class="edge">
<title>Node2&#45;&gt;Node2</title>
<g id="a_edge2_Node000002_Node000002"><a xlink:title=" ">
<path fill="none" stroke="#63b8ff" d="M156.27,-19.08C146.67,-27.73 153.25,-37 176,-37 190.22,-37 198.12,-33.38 199.7,-28.55"/>
<polygon fill="#63b8ff" stroke="#63b8ff" points="202.83,-26.95 195.73,-19.08 196.37,-29.66 202.83,-26.95"/>
</a>
</g>
</g>
</g>
</svg>
