<?xml version="1.0" encoding="UTF-8" standalone="no"?>
<!DOCTYPE svg PUBLIC "-//W3C//DTD SVG 1.1//EN"
 "http://www.w3.org/Graphics/SVG/1.1/DTD/svg11.dtd">
<!-- Generated by graphviz version 2.43.0 (0)
 -->
<!-- Title: slist_node_new Pages: 1 -->
<svg width="479pt" height="117pt"
 viewBox="0.00 0.00 479.00 116.68" xmlns="http://www.w3.org/2000/svg" xmlns:xlink="http://www.w3.org/1999/xlink">
<g id="graph0" class="graph" transform="scale(1 1) rotate(0) translate(4 112.68)">
<title>slist_node_new</title>
<!-- Node1 -->
<g id="Node000001" class="node">
<title>Node1</title>
<g id="a_Node000001"><a xlink:title=" ">
<polygon fill="#999999" stroke="#666666" points="471,-74 379,-74 379,-55 471,-55 471,-74"/>
<text text-anchor="middle" x="425" y="-62" font-family="Helvetica,sans-Serif" font-size="10.00">slist_node_new</text>
</a>
</g>
</g>
<!-- Node1&#45;&gt;Node1 -->
<g id="edge7_Node000001_Node000001" class="edge">
<title>Node1&#45;&gt;Node1</title>
<g id="a_edge7_Node000001_Node000001"><a xlink:title=" ">
<path fill="none" stroke="#63b8ff" d="M448.7,-83.55C447.12,-88.38 439.22,-92 425,-92 402.25,-92 395.67,-82.73 405.27,-74.08"/>
<polygon fill="#63b8ff" stroke="#63b8ff" points="451.83,-81.95 444.73,-74.08 445.37,-84.66 451.83,-81.95"/>
</a>
</g>
</g>
<!-- Node2 -->
<g id="Node000002" class="node">
<title>Node2</title>
<g id="a_Node000002"><a xlink:href="slist_8c.html#a3560547a113baec443dc286e37f952d9" target="_top" xlink:title=" ">
<polygon fill="white" stroke="#666666" points="213,-74 143,-74 143,-55 213,-55 213,-74"/>
<text text-anchor="middle" x="178" y="-62" font-family="Helvetica,sans-Serif" font-size="10.00">slist_insert</text>
</a>
</g>
</g>
<!-- Node1&#45;&gt;Node2 -->
<g id="edge1_Node000001_Node000002" class="edge">
<title>Node1&#45;&gt;Node2</title>
<g id="a_edge1_Node000001_Node000002"><a xlink:title=" ">
<path fill="none" stroke="#63b8ff" d="M399.32,-79.14C383.75,-87.51 362.89,-97.17 343,-101.5 302.18,-110.38 289.55,-111.56 249,-101.5 227.79,-96.24 205.92,-83.24 192.4,-74.14"/>
<polygon fill="#63b8ff" stroke="#63b8ff" points="401.23,-82.08 408.27,-74.16 397.83,-75.96 401.23,-82.08"/>
</a>
</g>
</g>
<!-- Node5 -->
<g id="Node000005" class="node">
<title>Node5</title>
<g id="a_Node000005"><a xlink:href="slist_8c.html#a606315c0fcf11d5187b6fc02d1a19630" target="_top" xlink:title=" ">
<polygon fill="white" stroke="#666666" points="343,-74 249,-74 249,-55 343,-55 343,-74"/>
<text text-anchor="middle" x="296" y="-62" font-family="Helvetica,sans-Serif" font-size="10.00">slist_push_back</text>
</a>
</g>
</g>
<!-- Node1&#45;&gt;Node5 -->
<g id="edge8_Node000001_Node000005" class="edge">
<title>Node1&#45;&gt;Node5</title>
<g id="a_edge8_Node000001_Node000005"><a xlink:title=" ">
<path fill="none" stroke="#63b8ff" d="M368.67,-64.5C360.2,-64.5 351.53,-64.5 343.27,-64.5"/>
<polygon fill="#63b8ff" stroke="#63b8ff" points="368.87,-68 378.87,-64.5 368.87,-61 368.87,-68"/>
</a>
</g>
</g>
<!-- Node6 -->
<g id="Node000006" class="node">
<title>Node6</title>
<g id="a_Node000006"><a xlink:href="slist_8c.html#a7925420d2af1cf9aedc0486bc72895d8" target="_top" xlink:title=" ">
<polygon fill="white" stroke="#666666" points="343,-19 249,-19 249,0 343,0 343,-19"/>
<text text-anchor="middle" x="296" y="-7" font-family="Helvetica,sans-Serif" font-size="10.00">slist_push_front</text>
</a>
</g>
</g>
<!-- Node1&#45;&gt;Node6 -->
<g id="edge11_Node000001_Node000006" class="edge">
<title>Node1&#45;&gt;Node6</title>
<g id="a_edge11_Node000001_Node000006"><a xlink:title=" ">
<path fill="none" stroke="#63b8ff" d="M392.63,-50.91C369.87,-41.06 339.62,-27.96 319.29,-19.16"/>
<polygon fill="#63b8ff" stroke="#63b8ff" points="391.31,-54.16 401.88,-54.92 394.09,-47.73 391.31,-54.16"/>
</a>
</g>
</g>
<!-- Node2&#45;&gt;Node2 -->
<g id="edge2_Node000002_Node000002" class="edge">
<title>Node2&#45;&gt;Node2</title>
<g id="a_edge2_Node000002_Node000002"><a xlink:title=" ">
<path fill="none" stroke="#63b8ff" d="M199.85,-83.55C198.39,-88.38 191.11,-92 178,-92 157.03,-92 150.96,-82.73 159.81,-74.08"/>
<polygon fill="#63b8ff" stroke="#63b8ff" points="203.06,-82.15 196.19,-74.08 196.53,-84.67 203.06,-82.15"/>
</a>
</g>
</g>
<!-- Node3 -->
<g id="Node000003" class="node">
<title>Node3</title>
<g id="a_Node000003"><a xlink:href="slist_8c.html#abe77f11d092506fe4a544e596e1eee03" target="_top" xlink:title=" ">
<polygon fill="white" stroke="#666666" points="102.5,-74 4.5,-74 4.5,-55 102.5,-55 102.5,-74"/>
<text text-anchor="middle" x="53.5" y="-62" font-family="Helvetica,sans-Serif" font-size="10.00">slist_insert_after</text>
</a>
</g>
</g>
<!-- Node2&#45;&gt;Node3 -->
<g id="edge3_Node000002_Node000003" class="edge">
<title>Node2&#45;&gt;Node3</title>
<g id="a_edge3_Node000002_Node000003"><a xlink:title=" ">
<path fill="none" stroke="#63b8ff" d="M132.6,-64.5C122.86,-64.5 112.51,-64.5 102.63,-64.5"/>
<polygon fill="#63b8ff" stroke="#63b8ff" points="132.88,-68 142.88,-64.5 132.88,-61 132.88,-68"/>
</a>
</g>
</g>
<!-- Node4 -->
<g id="Node000004" class="node">
<title>Node4</title>
<g id="a_Node000004"><a xlink:href="slist_8c.html#a35b4bfed4bf5d10bd31cfa7921d60cc3" target="_top" xlink:title=" ">
<polygon fill="white" stroke="#666666" points="107,-19 0,-19 0,0 107,0 107,-19"/>
<text text-anchor="middle" x="53.5" y="-7" font-family="Helvetica,sans-Serif" font-size="10.00">slist_insert_before</text>
</a>
</g>
</g>
<!-- Node2&#45;&gt;Node4 -->
<g id="edge5_Node000002_Node000004" class="edge">
<title>Node2&#45;&gt;Node4</title>
<g id="a_edge5_Node000002_Node000004"><a xlink:title=" ">
<path fill="none" stroke="#63b8ff" d="M146.45,-50.78C124.52,-40.94 95.52,-27.92 76,-19.16"/>
<polygon fill="#63b8ff" stroke="#63b8ff" points="145.11,-54.02 155.66,-54.92 147.97,-47.63 145.11,-54.02"/>
</a>
</g>
</g>
<!-- Node3&#45;&gt;Node3 -->
<g id="edge4_Node000003_Node000003" class="edge">
<title>Node3&#45;&gt;Node3</title>
<g id="a_edge4_Node000003_Node000003"><a xlink:title=" ">
<path fill="none" stroke="#63b8ff" d="M76.46,-83.55C74.93,-88.38 67.27,-92 53.5,-92 31.46,-92 25.09,-82.73 34.39,-74.08"/>
<polygon fill="#63b8ff" stroke="#63b8ff" points="79.62,-82.03 72.61,-74.08 73.14,-84.66 79.62,-82.03"/>
</a>
</g>
</g>
<!-- Node4&#45;&gt;Node4 -->
<g id="edge6_Node000004_Node000004" class="edge">
<title>Node4&#45;&gt;Node4</title>
<g id="a_edge6_Node000004_Node000004"><a xlink:title=" ">
<path fill="none" stroke="#63b8ff" d="M76.46,-28.55C74.93,-33.38 67.27,-37 53.5,-37 31.46,-37 25.09,-27.73 34.39,-19.08"/>
<polygon fill="#63b8ff" stroke="#63b8ff" points="79.62,-27.03 72.61,-19.08 73.14,-29.66 79.62,-27.03"/>
</a>
</g>
</g>
<!-- Node5&#45;&gt;Node2 -->
<g id="edge9_Node000005_Node000002" class="edge">
<title>Node5&#45;&gt;Node2</title>
<g id="a_edge9_Node000005_Node000002"><a xlink:title=" ">
<path fill="none" stroke="#63b8ff" d="M238.68,-64.5C229.98,-64.5 221.24,-64.5 213.22,-64.5"/>
<polygon fill="#63b8ff" stroke="#63b8ff" points="238.82,-68 248.82,-64.5 238.82,-61 238.82,-68"/>
</a>
</g>
</g>
<!-- Node5&#45;&gt;Node5 -->
<g id="edge10_Node000005_Node000005" class="edge">
<title>Node5&#45;&gt;Node5</title>
<g id="a_edge10_Node000005_Node000005"><a xlink:title=" ">
<path fill="none" stroke="#63b8ff" d="M317.85,-83.55C316.39,-88.38 309.11,-92 296,-92 275.03,-92 268.96,-82.73 277.81,-74.08"/>
<polygon fill="#63b8ff" stroke="#63b8ff" points="321.06,-82.15 314.19,-74.08 314.53,-84.67 321.06,-82.15"/>
</a>
</g>
</g>
<!-- Node6&#45;&gt;Node2 -->
<g id="edge12_Node000006_Node000002" class="edge">
<title>Node6&#45;&gt;Node2</title>
<g id="a_edge12_Node000006_Node000002"><a xlink:title=" ">
<path fill="none" stroke="#63b8ff" d="M265.51,-23.48C244.82,-33.29 217.68,-46.16 199.36,-54.84"/>
<polygon fill="#63b8ff" stroke="#63b8ff" points="267.26,-26.53 274.79,-19.08 264.26,-20.2 267.26,-26.53"/>
</a>
</g>
</g>
<!-- Node6&#45;&gt;Node4 -->
<g id="edge13_Node000006_Node000004" class="edge">
<title>Node6&#45;&gt;Node4</title>
<g id="a_edge13_Node000006_Node000004"><a xlink:title=" ">
<path fill="none" stroke="#63b8ff" d="M238.85,-9.5C199.07,-9.5 146.08,-9.5 107.12,-9.5"/>
<polygon fill="#63b8ff" stroke="#63b8ff" points="238.91,-13 248.91,-9.5 238.91,-6 238.91,-13"/>
</a>
</g>
</g>
<!-- Node6&#45;&gt;Node6 -->
<g id="edge14_Node000006_Node000006" class="edge">
<title>Node6&#45;&gt;Node6</title>
<g id="a_edge14_Node000006_Node000006"><a xlink:title=" ">
<path fill="none" stroke="#63b8ff" d="M317.85,-28.55C316.39,-33.38 309.11,-37 296,-37 275.03,-37 268.96,-27.73 277.81,-19.08"/>
<polygon fill="#63b8ff" stroke="#63b8ff" points="321.06,-27.15 314.19,-19.08 314.53,-29.67 321.06,-27.15"/>
</a>
</g>
</g>
</g>
</svg>
