<?xml version="1.0" encoding="UTF-8" standalone="no"?>
<!DOCTYPE svg PUBLIC "-//W3C//DTD SVG 1.1//EN"
 "http://www.w3.org/Graphics/SVG/1.1/DTD/svg11.dtd">
<!-- Generated by graphviz version 2.43.0 (0)
 -->
<!-- Title: slist_insert_after Pages: 1 -->
<svg width="484pt" height="155pt"
 viewBox="0.00 0.00 484.00 155.00" xmlns="http://www.w3.org/2000/svg" xmlns:xlink="http://www.w3.org/1999/xlink">
<g id="graph0" class="graph" transform="scale(1 1) rotate(0) translate(4 151)">
<title>slist_insert_after</title>
<!-- Node1 -->
<g id="Node000001" class="node">
<title>Node1</title>
<g id="a_Node000001"><a xlink:title=" ">
<polygon fill="#999999" stroke="#666666" points="98,-101 0,-101 0,-82 98,-82 98,-101"/>
<text text-anchor="middle" x="49" y="-89" font-family="Helvetica,sans-Serif" font-size="10.00">slist_insert_after</text>
</a>
</g>
</g>
<!-- Node1&#45;&gt;Node1 -->
<g id="edge13_Node000001_Node000001" class="edge">
<title>Node1&#45;&gt;Node1</title>
<g id="a_edge13_Node000001_Node000001"><a xlink:title=" ">
<path fill="none" stroke="#63b8ff" d="M29.58,-101.08C20.13,-109.73 26.61,-119 49,-119 63,-119 70.77,-115.38 72.33,-110.55"/>
<polygon fill="#63b8ff" stroke="#63b8ff" points="75.47,-108.99 68.42,-101.08 69,-111.66 75.47,-108.99"/>
</a>
</g>
</g>
<!-- Node2 -->
<g id="Node000002" class="node">
<title>Node2</title>
<g id="a_Node000002"><a xlink:href="slist_8c.html#afb93c0e3ad60ba769065193f44ee2c49" target="_top" xlink:title=" ">
<polygon fill="white" stroke="#666666" points="218,-129 134,-129 134,-110 218,-110 218,-129"/>
<text text-anchor="middle" x="176" y="-117" font-family="Helvetica,sans-Serif" font-size="10.00">slist_index_of</text>
</a>
</g>
</g>
<!-- Node1&#45;&gt;Node2 -->
<g id="edge1_Node000001_Node000002" class="edge">
<title>Node1&#45;&gt;Node2</title>
<g id="a_edge1_Node000001_Node000002"><a xlink:title=" ">
<path fill="none" stroke="#63b8ff" d="M92.67,-101.06C102.74,-103.31 113.59,-105.74 123.99,-108.07"/>
<polygon fill="#63b8ff" stroke="#63b8ff" points="123.27,-111.5 133.79,-110.27 124.8,-104.67 123.27,-111.5"/>
</a>
</g>
</g>
<!-- Node3 -->
<g id="Node000003" class="node">
<title>Node3</title>
<g id="a_Node000003"><a xlink:href="slist_8c.html#a3560547a113baec443dc286e37f952d9" target="_top" xlink:title=" ">
<polygon fill="white" stroke="#666666" points="211,-74 141,-74 141,-55 211,-55 211,-74"/>
<text text-anchor="middle" x="176" y="-62" font-family="Helvetica,sans-Serif" font-size="10.00">slist_insert</text>
</a>
</g>
</g>
<!-- Node1&#45;&gt;Node3 -->
<g id="edge3_Node000001_Node000003" class="edge">
<title>Node1&#45;&gt;Node3</title>
<g id="a_edge3_Node000001_Node000003"><a xlink:title=" ">
<path fill="none" stroke="#63b8ff" d="M94.07,-81.98C106.04,-79.4 119,-76.6 130.97,-74.01"/>
<polygon fill="#63b8ff" stroke="#63b8ff" points="131.71,-77.43 140.75,-71.9 130.24,-70.59 131.71,-77.43"/>
</a>
</g>
</g>
<!-- Node2&#45;&gt;Node2 -->
<g id="edge2_Node000002_Node000002" class="edge">
<title>Node2&#45;&gt;Node2</title>
<g id="a_edge2_Node000002_Node000002"><a xlink:title=" ">
<path fill="none" stroke="#63b8ff" d="M156.89,-129.08C147.59,-137.73 153.96,-147 176,-147 189.77,-147 197.43,-143.38 198.96,-138.55"/>
<polygon fill="#63b8ff" stroke="#63b8ff" points="202.12,-137.03 195.11,-129.08 195.64,-139.66 202.12,-137.03"/>
</a>
</g>
</g>
<!-- Node3&#45;&gt;Node3 -->
<g id="edge4_Node000003_Node000003" class="edge">
<title>Node3&#45;&gt;Node3</title>
<g id="a_edge4_Node000003_Node000003"><a xlink:title=" ">
<path fill="none" stroke="#63b8ff" d="M156.89,-74.08C147.59,-82.73 153.96,-92 176,-92 189.77,-92 197.43,-88.38 198.96,-83.55"/>
<polygon fill="#63b8ff" stroke="#63b8ff" points="202.12,-82.03 195.11,-74.08 195.64,-84.66 202.12,-82.03"/>
</a>
</g>
</g>
<!-- Node4 -->
<g id="Node000004" class="node">
<title>Node4</title>
<g id="a_Node000004"><a xlink:href="slist_8c.html#a85d1cab8127d09fa948e5527d3c9a6f5" target="_top" xlink:title=" ">
<polygon fill="white" stroke="#666666" points="476,-74 384,-74 384,-55 476,-55 476,-74"/>
<text text-anchor="middle" x="430" y="-62" font-family="Helvetica,sans-Serif" font-size="10.00">slist_node_new</text>
</a>
</g>
</g>
<!-- Node3&#45;&gt;Node4 -->
<g id="edge5_Node000003_Node000004" class="edge">
<title>Node3&#45;&gt;Node4</title>
<g id="a_edge5_Node000003_Node000004"><a xlink:title=" ">
<path fill="none" stroke="#63b8ff" d="M191.88,-74.15C206.87,-83.26 231.01,-96.26 254,-101.5 294.73,-110.78 307.18,-110.38 348,-101.5 367.89,-97.17 388.75,-87.51 404.32,-79.14"/>
<polygon fill="#63b8ff" stroke="#63b8ff" points="406.23,-82.08 413.27,-74.16 402.83,-75.96 406.23,-82.08"/>
</a>
</g>
</g>
<!-- Node5 -->
<g id="Node000005" class="node">
<title>Node5</title>
<g id="a_Node000005"><a xlink:href="slist_8c.html#a606315c0fcf11d5187b6fc02d1a19630" target="_top" xlink:title=" ">
<polygon fill="white" stroke="#666666" points="348,-74 254,-74 254,-55 348,-55 348,-74"/>
<text text-anchor="middle" x="301" y="-62" font-family="Helvetica,sans-Serif" font-size="10.00">slist_push_back</text>
</a>
</g>
</g>
<!-- Node3&#45;&gt;Node5 -->
<g id="edge7_Node000003_Node000005" class="edge">
<title>Node3&#45;&gt;Node5</title>
<g id="a_edge7_Node000003_Node000005"><a xlink:title=" ">
<path fill="none" stroke="#63b8ff" d="M211.26,-64.5C221.39,-64.5 232.74,-64.5 243.86,-64.5"/>
<polygon fill="#63b8ff" stroke="#63b8ff" points="243.97,-68 253.97,-64.5 243.97,-61 243.97,-68"/>
</a>
</g>
</g>
<!-- Node6 -->
<g id="Node000006" class="node">
<title>Node6</title>
<g id="a_Node000006"><a xlink:href="slist_8c.html#a7925420d2af1cf9aedc0486bc72895d8" target="_top" xlink:title=" ">
<polygon fill="white" stroke="#666666" points="348,-19 254,-19 254,0 348,0 348,-19"/>
<text text-anchor="middle" x="301" y="-7" font-family="Helvetica,sans-Serif" font-size="10.00">slist_push_front</text>
</a>
</g>
</g>
<!-- Node3&#45;&gt;Node6 -->
<g id="edge10_Node000003_Node000006" class="edge">
<title>Node3&#45;&gt;Node6</title>
<g id="a_edge10_Node000003_Node000006"><a xlink:title=" ">
<path fill="none" stroke="#63b8ff" d="M198.42,-54.92C217.97,-46.18 247.08,-33.16 269.14,-23.3"/>
<polygon fill="#63b8ff" stroke="#63b8ff" points="270.71,-26.43 278.41,-19.16 267.85,-20.04 270.71,-26.43"/>
</a>
</g>
</g>
<!-- Node4&#45;&gt;Node4 -->
<g id="edge6_Node000004_Node000004" class="edge">
<title>Node4&#45;&gt;Node4</title>
<g id="a_edge6_Node000004_Node000004"><a xlink:title=" ">
<path fill="none" stroke="#63b8ff" d="M410.27,-74.08C400.67,-82.73 407.25,-92 430,-92 444.22,-92 452.12,-88.38 453.7,-83.55"/>
<polygon fill="#63b8ff" stroke="#63b8ff" points="456.83,-81.95 449.73,-74.08 450.37,-84.66 456.83,-81.95"/>
</a>
</g>
</g>
<!-- Node5&#45;&gt;Node4 -->
<g id="edge8_Node000005_Node000004" class="edge">
<title>Node5&#45;&gt;Node4</title>
<g id="a_edge8_Node000005_Node000004"><a xlink:title=" ">
<path fill="none" stroke="#63b8ff" d="M348.21,-64.5C356.48,-64.5 365.17,-64.5 373.67,-64.5"/>
<polygon fill="#63b8ff" stroke="#63b8ff" points="373.89,-68 383.89,-64.5 373.89,-61 373.89,-68"/>
</a>
</g>
</g>
<!-- Node5&#45;&gt;Node5 -->
<g id="edge9_Node000005_Node000005" class="edge">
<title>Node5&#45;&gt;Node5</title>
<g id="a_edge9_Node000005_Node000005"><a xlink:title=" ">
<path fill="none" stroke="#63b8ff" d="M281.89,-74.08C272.59,-82.73 278.96,-92 301,-92 314.77,-92 322.43,-88.38 323.96,-83.55"/>
<polygon fill="#63b8ff" stroke="#63b8ff" points="327.12,-82.03 320.11,-74.08 320.64,-84.66 327.12,-82.03"/>
</a>
</g>
</g>
<!-- Node6&#45;&gt;Node4 -->
<g id="edge11_Node000006_Node000004" class="edge">
<title>Node6&#45;&gt;Node4</title>
<g id="a_edge11_Node000006_Node000004"><a xlink:title=" ">
<path fill="none" stroke="#63b8ff" d="M324.12,-19.08C344.39,-27.86 374.63,-40.95 397.44,-50.83"/>
<polygon fill="#63b8ff" stroke="#63b8ff" points="396.14,-54.08 406.71,-54.84 398.92,-47.66 396.14,-54.08"/>
</a>
</g>
</g>
<!-- Node6&#45;&gt;Node6 -->
<g id="edge12_Node000006_Node000006" class="edge">
<title>Node6&#45;&gt;Node6</title>
<g id="a_edge12_Node000006_Node000006"><a xlink:title=" ">
<path fill="none" stroke="#63b8ff" d="M281.89,-19.08C272.59,-27.73 278.96,-37 301,-37 314.77,-37 322.43,-33.38 323.96,-28.55"/>
<polygon fill="#63b8ff" stroke="#63b8ff" points="327.12,-27.03 320.11,-19.08 320.64,-29.66 327.12,-27.03"/>
</a>
</g>
</g>
</g>
</svg>
