<?xml version="1.0" encoding="UTF-8" standalone="no"?>
<!DOCTYPE svg PUBLIC "-//W3C//DTD SVG 1.1//EN"
 "http://www.w3.org/Graphics/SVG/1.1/DTD/svg11.dtd">
<!-- Generated by graphviz version 2.43.0 (0)
 -->
<!-- Title: slist_pop_front Pages: 1 -->
<svg width="213pt" height="45pt"
 viewBox="0.00 0.00 213.00 45.00" xmlns="http://www.w3.org/2000/svg" xmlns:xlink="http://www.w3.org/1999/xlink">
<g id="graph0" class="graph" transform="scale(1 1) rotate(0) translate(4 41)">
<title>slist_pop_front</title>
<!-- Node1 -->
<g id="Node000001" class="node">
<title>Node1</title>
<g id="a_Node000001"><a xlink:title=" ">
<polygon fill="#999999" stroke="#666666" points="205,-19 116,-19 116,0 205,0 205,-19"/>
<text text-anchor="middle" x="160.5" y="-7" font-family="Helvetica,sans-Serif" font-size="10.00">slist_pop_front</text>
</a>
</g>
</g>
<!-- Node1&#45;&gt;Node1 -->
<g id="edge1_Node000001_Node000001" class="edge">
<title>Node1&#45;&gt;Node1</title>
<g id="a_edge1_Node000001_Node000001"><a xlink:title=" ">
<path fill="none" stroke="#63b8ff" d="M182.72,-28.55C181.24,-33.38 173.83,-37 160.5,-37 139.17,-37 133.01,-27.73 142,-19.08"/>
<polygon fill="#63b8ff" stroke="#63b8ff" points="185.91,-27.11 179,-19.08 179.4,-29.67 185.91,-27.11"/>
</a>
</g>
</g>
<!-- Node2 -->
<g id="Node000002" class="node">
<title>Node2</title>
<g id="a_Node000002"><a xlink:href="slist_8c.html#a6b313f7aed80f6464b148d7165389f12" target="_top" xlink:title=" ">
<polygon fill="white" stroke="#666666" points="80,-19 0,-19 0,0 80,0 80,-19"/>
<text text-anchor="middle" x="40" y="-7" font-family="Helvetica,sans-Serif" font-size="10.00">slist_remove</text>
</a>
</g>
</g>
<!-- Node1&#45;&gt;Node2 -->
<g id="edge2_Node000001_Node000002" class="edge">
<title>Node1&#45;&gt;Node2</title>
<g id="a_edge2_Node000001_Node000002"><a xlink:title=" ">
<path fill="none" stroke="#63b8ff" d="M105.48,-9.5C97,-9.5 88.37,-9.5 80.3,-9.5"/>
<polygon fill="#63b8ff" stroke="#63b8ff" points="105.71,-13 115.71,-9.5 105.71,-6 105.71,-13"/>
</a>
</g>
</g>
<!-- Node2&#45;&gt;Node2 -->
<g id="edge3_Node000002_Node000002" class="edge">
<title>Node2&#45;&gt;Node2</title>
<g id="a_edge3_Node000002_Node000002"><a xlink:title=" ">
<path fill="none" stroke="#63b8ff" d="M62.22,-28.55C60.74,-33.38 53.33,-37 40,-37 18.67,-37 12.51,-27.73 21.5,-19.08"/>
<polygon fill="#63b8ff" stroke="#63b8ff" points="65.41,-27.11 58.5,-19.08 58.9,-29.67 65.41,-27.11"/>
</a>
</g>
</g>
</g>
</svg>
