<?xml version="1.0" encoding="UTF-8" standalone="no"?>
<!DOCTYPE svg PUBLIC "-//W3C//DTD SVG 1.1//EN"
 "http://www.w3.org/Graphics/SVG/1.1/DTD/svg11.dtd">
<!-- Generated by graphviz version 2.43.0 (0)
 -->
<!-- Title: slist_index_of Pages: 1 -->
<svg width="235pt" height="100pt"
 viewBox="0.00 0.00 235.00 100.00" xmlns="http://www.w3.org/2000/svg" xmlns:xlink="http://www.w3.org/1999/xlink">

<svg id="main" version="1.1" xmlns="http://www.w3.org/2000/svg" xmlns:xlink="http://www.w3.org/1999/xlink" xml:space="preserve" onload="init(evt)">
<style type="text/css"><![CDATA[
.node, .edge {opacity: 0.7;}
.node.selected, .edge.selected {opacity: 1;}
.edge:hover path { stroke: red; }
.edge:hover polygon { stroke: red; fill: red; }
]]></style>
<script type="application/ecmascript" xlink:href="svg.min.js"/>
<svg id="graph" class="graph">
<g id="graph0" class="graph" transform="scale(1 1) rotate(0) translate(4 96)">
<title>slist_index_of</title>
<!-- Node1 -->
<g id="Node000001" class="node">
<title>Node1</title>
<g id="a_Node000001"><a xlink:title=" ">
<polygon fill="#999999" stroke="#666666" points="227,-46 143,-46 143,-27 227,-27 227,-46"/>
<text text-anchor="middle" x="185" y="-34" font-family="Helvetica,sans-Serif" font-size="10.00">slist_index_of</text>
</a>
</g>
</g>
<!-- Node1&#45;&gt;Node1 -->
<g id="edge1_Node000001_Node000001" class="edge">
<title>Node1&#45;&gt;Node1</title>
<g id="a_edge1_Node000001_Node000001"><a xlink:title=" ">
<path fill="none" stroke="#63b8ff" d="M209.18,-55.19C207.86,-60.2 199.8,-64 185,-64 161.89,-64 155.22,-54.73 164.96,-46.08"/>
<polygon fill="#63b8ff" stroke="#63b8ff" points="212.36,-53.73 205.04,-46.08 205.99,-56.63 212.36,-53.73"/>
</a>
</g>
</g>
<!-- Node2 -->
<g id="Node000002" class="node">
<title>Node2</title>
<g id="a_Node000002"><a xlink:href="slist_8c.html#abe77f11d092506fe4a544e596e1eee03" target="_top" xlink:title=" ">
<polygon fill="white" stroke="#666666" points="102.5,-74 4.5,-74 4.5,-55 102.5,-55 102.5,-74"/>
<text text-anchor="middle" x="53.5" y="-62" font-family="Helvetica,sans-Serif" font-size="10.00">slist_insert_after</text>
</a>
</g>
</g>
<!-- Node1&#45;&gt;Node2 -->
<g id="edge2_Node000001_Node000002" class="edge">
<title>Node1&#45;&gt;Node2</title>
<g id="a_edge2_Node000001_Node000002"><a xlink:title=" ">
<path fill="none" stroke="#63b8ff" d="M132.89,-47.55C121.54,-50.01 109.6,-52.59 98.57,-54.97"/>
<polygon fill="#63b8ff" stroke="#63b8ff" points="133.63,-50.97 142.67,-45.44 132.16,-44.13 133.63,-50.97"/>
</a>
</g>
</g>
<!-- Node3 -->
<g id="Node000003" class="node">
<title>Node3</title>
<g id="a_Node000003"><a xlink:href="slist_8c.html#a35b4bfed4bf5d10bd31cfa7921d60cc3" target="_top" xlink:title=" ">
<polygon fill="white" stroke="#666666" points="107,-19 0,-19 0,0 107,0 107,-19"/>
<text text-anchor="middle" x="53.5" y="-7" font-family="Helvetica,sans-Serif" font-size="10.00">slist_insert_before</text>
</a>
</g>
</g>
<!-- Node1&#45;&gt;Node3 -->
<g id="edge4_Node000001_Node000003" class="edge">
<title>Node1&#45;&gt;Node3</title>
<g id="a_edge4_Node000001_Node000003"><a xlink:title=" ">
<path fill="none" stroke="#63b8ff" d="M132.65,-25.79C121.99,-23.57 110.82,-21.24 100.38,-19.07"/>
<polygon fill="#63b8ff" stroke="#63b8ff" points="132.17,-29.27 142.67,-27.88 133.59,-22.42 132.17,-29.27"/>
</a>
</g>
</g>
<!-- Node2&#45;&gt;Node2 -->
<g id="edge3_Node000002_Node000002" class="edge">
<title>Node2&#45;&gt;Node2</title>
<g id="a_edge3_Node000002_Node000002"><a xlink:title=" ">
<path fill="none" stroke="#63b8ff" d="M77.68,-83.19C76.36,-88.2 68.3,-92 53.5,-92 30.39,-92 23.72,-82.73 33.46,-74.08"/>
<polygon fill="#63b8ff" stroke="#63b8ff" points="80.86,-81.73 73.54,-74.08 74.49,-84.63 80.86,-81.73"/>
</a>
</g>
</g>
<!-- Node3&#45;&gt;Node3 -->
<g id="edge5_Node000003_Node000003" class="edge">
<title>Node3&#45;&gt;Node3</title>
<g id="a_edge5_Node000003_Node000003"><a xlink:title=" ">
<path fill="none" stroke="#63b8ff" d="M77.68,-28.19C76.36,-33.2 68.3,-37 53.5,-37 30.39,-37 23.72,-27.73 33.46,-19.08"/>
<polygon fill="#63b8ff" stroke="#63b8ff" points="80.86,-26.73 73.54,-19.08 74.49,-29.63 80.86,-26.73"/>
</a>
</g>
</g>
</g>
</svg>
</svg>

<style type='text/css'>
<![CDATA[
[data-mouse-over-selected='false'] { opacity: 0.7; }
[data-mouse-over-selected='true']  { opacity: 1.0; }
]]>
</style>
<script type="application/ecmascript"><![CDATA[
document.addEventListener('DOMContentLoaded', (event) => {
  highlightEdges();
  highlightAdjacentNodes();
});
]]></script>
</svg>
