<?xml version="1.0" encoding="UTF-8" standalone="no"?>
<!DOCTYPE svg PUBLIC "-//W3C//DTD SVG 1.1//EN"
 "http://www.w3.org/Graphics/SVG/1.1/DTD/svg11.dtd">
<!-- Generated by graphviz version 2.43.0 (0)
 -->
<!-- Title: slist_insert Pages: 1 -->
<svg width="221pt" height="100pt"
 viewBox="0.00 0.00 221.00 100.00" xmlns="http://www.w3.org/2000/svg" xmlns:xlink="http://www.w3.org/1999/xlink">
<g id="graph0" class="graph" transform="scale(1 1) rotate(0) translate(4 96)">
<title>slist_insert</title>
<!-- Node1 -->
<g id="Node000001" class="node">
<title>Node1</title>
<g id="a_Node000001"><a xlink:title=" ">
<polygon fill="#999999" stroke="#666666" points="213,-46 143,-46 143,-27 213,-27 213,-46"/>
<text text-anchor="middle" x="178" y="-34" font-family="Helvetica,sans-Serif" font-size="10.00">slist_insert</text>
</a>
</g>
</g>
<!-- Node1&#45;&gt;Node1 -->
<g id="edge1_Node000001_Node000001" class="edge">
<title>Node1&#45;&gt;Node1</title>
<g id="a_edge1_Node000001_Node000001"><a xlink:title=" ">
<path fill="none" stroke="#63b8ff" d="M200.96,-55.55C199.43,-60.38 191.77,-64 178,-64 155.96,-64 149.59,-54.73 158.89,-46.08"/>
<polygon fill="#63b8ff" stroke="#63b8ff" points="204.12,-54.03 197.11,-46.08 197.64,-56.66 204.12,-54.03"/>
</a>
</g>
</g>
<!-- Node2 -->
<g id="Node000002" class="node">
<title>Node2</title>
<g id="a_Node000002"><a xlink:href="slist_8c.html#abe77f11d092506fe4a544e596e1eee03" target="_top" xlink:title=" ">
<polygon fill="white" stroke="#666666" points="102.5,-74 4.5,-74 4.5,-55 102.5,-55 102.5,-74"/>
<text text-anchor="middle" x="53.5" y="-62" font-family="Helvetica,sans-Serif" font-size="10.00">slist_insert_after</text>
</a>
</g>
</g>
<!-- Node1&#45;&gt;Node2 -->
<g id="edge2_Node000001_Node000002" class="edge">
<title>Node1&#45;&gt;Node2</title>
<g id="a_edge2_Node000001_Node000002"><a xlink:title=" ">
<path fill="none" stroke="#63b8ff" d="M133.08,-46.54C121.1,-49.28 108.15,-52.24 96.29,-54.95"/>
<polygon fill="#63b8ff" stroke="#63b8ff" points="133.91,-49.94 142.88,-44.3 132.35,-43.12 133.91,-49.94"/>
</a>
</g>
</g>
<!-- Node3 -->
<g id="Node000003" class="node">
<title>Node3</title>
<g id="a_Node000003"><a xlink:href="slist_8c.html#a35b4bfed4bf5d10bd31cfa7921d60cc3" target="_top" xlink:title=" ">
<polygon fill="white" stroke="#666666" points="107,-19 0,-19 0,0 107,0 107,-19"/>
<text text-anchor="middle" x="53.5" y="-7" font-family="Helvetica,sans-Serif" font-size="10.00">slist_insert_before</text>
</a>
</g>
</g>
<!-- Node1&#45;&gt;Node3 -->
<g id="edge4_Node000001_Node000003" class="edge">
<title>Node1&#45;&gt;Node3</title>
<g id="a_edge4_Node000001_Node000003"><a xlink:title=" ">
<path fill="none" stroke="#63b8ff" d="M133.03,-26.81C121.51,-24.27 109.11,-21.54 97.63,-19.01"/>
<polygon fill="#63b8ff" stroke="#63b8ff" points="132.36,-30.24 142.88,-28.98 133.86,-23.41 132.36,-30.24"/>
</a>
</g>
</g>
<!-- Node2&#45;&gt;Node2 -->
<g id="edge3_Node000002_Node000002" class="edge">
<title>Node2&#45;&gt;Node2</title>
<g id="a_edge3_Node000002_Node000002"><a xlink:title=" ">
<path fill="none" stroke="#63b8ff" d="M76.46,-83.55C74.93,-88.38 67.27,-92 53.5,-92 31.46,-92 25.09,-82.73 34.39,-74.08"/>
<polygon fill="#63b8ff" stroke="#63b8ff" points="79.62,-82.03 72.61,-74.08 73.14,-84.66 79.62,-82.03"/>
</a>
</g>
</g>
<!-- Node3&#45;&gt;Node3 -->
<g id="edge5_Node000003_Node000003" class="edge">
<title>Node3&#45;&gt;Node3</title>
<g id="a_edge5_Node000003_Node000003"><a xlink:title=" ">
<path fill="none" stroke="#63b8ff" d="M76.46,-28.55C74.93,-33.38 67.27,-37 53.5,-37 31.46,-37 25.09,-27.73 34.39,-19.08"/>
<polygon fill="#63b8ff" stroke="#63b8ff" points="79.62,-27.03 72.61,-19.08 73.14,-29.66 79.62,-27.03"/>
</a>
</g>
</g>
</g>
</svg>
