<?xml version="1.0" encoding="UTF-8" standalone="no"?>
<!DOCTYPE svg PUBLIC "-//W3C//DTD SVG 1.1//EN"
 "http://www.w3.org/Graphics/SVG/1.1/DTD/svg11.dtd">
<!-- Generated by graphviz version 2.43.0 (0)
 -->
<!-- Title: slist_remove Pages: 1 -->
<svg width="340pt" height="73pt"
 viewBox="0.00 0.00 340.00 73.00" xmlns="http://www.w3.org/2000/svg" xmlns:xlink="http://www.w3.org/1999/xlink">

<svg id="main" version="1.1" xmlns="http://www.w3.org/2000/svg" xmlns:xlink="http://www.w3.org/1999/xlink" xml:space="preserve" onload="init(evt)">
<style type="text/css"><![CDATA[
.node, .edge {opacity: 0.7;}
.node.selected, .edge.selected {opacity: 1;}
.edge:hover path { stroke: red; }
.edge:hover polygon { stroke: red; fill: red; }
]]></style>
<script type="application/ecmascript" xlink:href="svg.min.js"/>
<svg id="graph" class="graph">
<g id="graph0" class="graph" transform="scale(1 1) rotate(0) translate(4 69)">
<title>slist_remove</title>
<!-- Node1 -->
<g id="Node000001" class="node">
<title>Node1</title>
<g id="a_Node000001"><a xlink:title=" ">
<polygon fill="#999999" stroke="#666666" points="80,-47 0,-47 0,-28 80,-28 80,-47"/>
<text text-anchor="middle" x="40" y="-35" font-family="Helvetica,sans-Serif" font-size="10.00">slist_remove</text>
</a>
</g>
</g>
<!-- Node1&#45;&gt;Node1 -->
<g id="edge6_Node000001_Node000001" class="edge">
<title>Node1&#45;&gt;Node1</title>
<g id="a_edge6_Node000001_Node000001"><a xlink:title=" ">
<path fill="none" stroke="#63b8ff" d="M21.5,-47.08C12.51,-55.73 18.67,-65 40,-65 53.33,-65 60.74,-61.38 62.22,-56.55"/>
<polygon fill="#63b8ff" stroke="#63b8ff" points="65.41,-55.11 58.5,-47.08 58.9,-57.67 65.41,-55.11"/>
</a>
</g>
</g>
<!-- Node2 -->
<g id="Node000002" class="node">
<title>Node2</title>
<g id="a_Node000002"><a xlink:href="slist_8c.html#a586017d6f34e53cd460221aa06ddd461" target="_top" xlink:title=" ">
<polygon fill="white" stroke="#666666" points="332,-47 241,-47 241,-28 332,-28 332,-47"/>
<text text-anchor="middle" x="286.5" y="-35" font-family="Helvetica,sans-Serif" font-size="10.00">slist_node_free</text>
</a>
</g>
</g>
<!-- Node1&#45;&gt;Node2 -->
<g id="edge1_Node000001_Node000002" class="edge">
<title>Node1&#45;&gt;Node2</title>
<g id="a_edge1_Node000001_Node000002"><a xlink:title=" ">
<path fill="none" stroke="#63b8ff" d="M80.23,-43.1C91.73,-44.5 104.35,-45.8 116,-46.5 155.49,-48.86 165.51,-48.7 205,-46.5 213.38,-46.03 222.22,-45.3 230.86,-44.44"/>
<polygon fill="#63b8ff" stroke="#63b8ff" points="231.29,-47.91 240.87,-43.39 230.55,-40.95 231.29,-47.91"/>
</a>
</g>
</g>
<!-- Node3 -->
<g id="Node000003" class="node">
<title>Node3</title>
<g id="a_Node000003"><a xlink:href="slist_8c.html#a3d0572762c080f4e784df8e0c65583cf" target="_top" xlink:title=" ">
<polygon fill="white" stroke="#666666" points="205,-19 116,-19 116,0 205,0 205,-19"/>
<text text-anchor="middle" x="160.5" y="-7" font-family="Helvetica,sans-Serif" font-size="10.00">slist_pop_front</text>
</a>
</g>
</g>
<!-- Node1&#45;&gt;Node3 -->
<g id="edge3_Node000001_Node000003" class="edge">
<title>Node1&#45;&gt;Node3</title>
<g id="a_edge3_Node000001_Node000003"><a xlink:title=" ">
<path fill="none" stroke="#63b8ff" d="M80.13,-28.25C89.44,-26.06 99.49,-23.68 109.22,-21.38"/>
<polygon fill="#63b8ff" stroke="#63b8ff" points="110.27,-24.73 119.19,-19.02 108.66,-17.92 110.27,-24.73"/>
</a>
</g>
</g>
<!-- Node2&#45;&gt;Node2 -->
<g id="edge2_Node000002_Node000002" class="edge">
<title>Node2&#45;&gt;Node2</title>
<g id="a_edge2_Node000002_Node000002"><a xlink:title=" ">
<path fill="none" stroke="#63b8ff" d="M267.08,-47.08C257.63,-55.73 264.11,-65 286.5,-65 300.5,-65 308.27,-61.38 309.83,-56.55"/>
<polygon fill="#63b8ff" stroke="#63b8ff" points="312.97,-54.99 305.92,-47.08 306.5,-57.66 312.97,-54.99"/>
</a>
</g>
</g>
<!-- Node3&#45;&gt;Node2 -->
<g id="edge4_Node000003_Node000002" class="edge">
<title>Node3&#45;&gt;Node2</title>
<g id="a_edge4_Node000003_Node000002"><a xlink:title=" ">
<path fill="none" stroke="#63b8ff" d="M203.83,-19.06C213.4,-21.22 223.68,-23.54 233.6,-25.78"/>
<polygon fill="#63b8ff" stroke="#63b8ff" points="232.84,-29.2 243.36,-27.99 234.38,-22.37 232.84,-29.2"/>
</a>
</g>
</g>
<!-- Node3&#45;&gt;Node3 -->
<g id="edge5_Node000003_Node000003" class="edge">
<title>Node3&#45;&gt;Node3</title>
<g id="a_edge5_Node000003_Node000003"><a xlink:title=" ">
<path fill="none" stroke="#63b8ff" d="M142,-19.08C133.01,-27.73 139.17,-37 160.5,-37 173.83,-37 181.24,-33.38 182.72,-28.55"/>
<polygon fill="#63b8ff" stroke="#63b8ff" points="185.91,-27.11 179,-19.08 179.4,-29.67 185.91,-27.11"/>
</a>
</g>
</g>
</g>
</svg>
</svg>

<style type='text/css'>
<![CDATA[
[data-mouse-over-selected='false'] { opacity: 0.7; }
[data-mouse-over-selected='true']  { opacity: 1.0; }
]]>
</style>
<script type="application/ecmascript"><![CDATA[
document.addEventListener('DOMContentLoaded', (event) => {
  highlightEdges();
  highlightAdjacentNodes();
});
]]></script>
</svg>
