<?xml version="1.0" encoding="UTF-8" standalone="no"?>
<!DOCTYPE svg PUBLIC "-//W3C//DTD SVG 1.1//EN"
 "http://www.w3.org/Graphics/SVG/1.1/DTD/svg11.dtd">
<!-- Generated by graphviz version 2.43.0 (0)
 -->
<!-- Title: slist_free Pages: 1 -->
<svg width="299pt" height="45pt"
 viewBox="0.00 0.00 299.00 45.00" xmlns="http://www.w3.org/2000/svg" xmlns:xlink="http://www.w3.org/1999/xlink">
<g id="graph0" class="graph" transform="scale(1 1) rotate(0) translate(4 41)">
<title>slist_free</title>
<!-- Node1 -->
<g id="Node000001" class="node">
<title>Node1</title>
<g id="a_Node000001"><a xlink:title=" ">
<polygon fill="#999999" stroke="#666666" points="62,-19 0,-19 0,0 62,0 62,-19"/>
<text text-anchor="middle" x="31" y="-7" font-family="Helvetica,sans-Serif" font-size="10.00">slist_free</text>
</a>
</g>
</g>
<!-- Node1&#45;&gt;Node1 -->
<g id="edge5_Node000001_Node000001" class="edge">
<title>Node1&#45;&gt;Node1</title>
<g id="a_edge5_Node000001_Node000001"><a xlink:title=" ">
<path fill="none" stroke="#63b8ff" d="M15.59,-19.08C8.09,-27.73 13.23,-37 31,-37 41.83,-37 47.97,-33.56 49.42,-28.91"/>
<polygon fill="#63b8ff" stroke="#63b8ff" points="52.68,-27.62 46.41,-19.08 45.99,-29.67 52.68,-27.62"/>
</a>
</g>
</g>
<!-- Node2 -->
<g id="Node000002" class="node">
<title>Node2</title>
<g id="a_Node000002"><a xlink:href="slist_8c.html#a3bb15a8581b8a8f275e4c8d135e14f01" target="_top" xlink:title=" ">
<polygon fill="white" stroke="#666666" points="164,-19 98,-19 98,0 164,0 164,-19"/>
<text text-anchor="middle" x="131" y="-7" font-family="Helvetica,sans-Serif" font-size="10.00">slist_clear</text>
</a>
</g>
</g>
<!-- Node1&#45;&gt;Node2 -->
<g id="edge1_Node000001_Node000002" class="edge">
<title>Node1&#45;&gt;Node2</title>
<g id="a_edge1_Node000001_Node000002"><a xlink:title=" ">
<path fill="none" stroke="#63b8ff" d="M62.2,-9.5C70.2,-9.5 78.98,-9.5 87.5,-9.5"/>
<polygon fill="#63b8ff" stroke="#63b8ff" points="87.69,-13 97.69,-9.5 87.69,-6 87.69,-13"/>
</a>
</g>
</g>
<!-- Node2&#45;&gt;Node2 -->
<g id="edge2_Node000002_Node000002" class="edge">
<title>Node2&#45;&gt;Node2</title>
<g id="a_edge2_Node000002_Node000002"><a xlink:title=" ">
<path fill="none" stroke="#63b8ff" d="M115.59,-19.08C108.09,-27.73 113.23,-37 131,-37 141.83,-37 147.97,-33.56 149.42,-28.91"/>
<polygon fill="#63b8ff" stroke="#63b8ff" points="152.68,-27.62 146.41,-19.08 145.99,-29.67 152.68,-27.62"/>
</a>
</g>
</g>
<!-- Node3 -->
<g id="Node000003" class="node">
<title>Node3</title>
<g id="a_Node000003"><a xlink:href="slist_8c.html#a586017d6f34e53cd460221aa06ddd461" target="_top" xlink:title=" ">
<polygon fill="white" stroke="#666666" points="291,-19 200,-19 200,0 291,0 291,-19"/>
<text text-anchor="middle" x="245.5" y="-7" font-family="Helvetica,sans-Serif" font-size="10.00">slist_node_free</text>
</a>
</g>
</g>
<!-- Node2&#45;&gt;Node3 -->
<g id="edge3_Node000002_Node000003" class="edge">
<title>Node2&#45;&gt;Node3</title>
<g id="a_edge3_Node000002_Node000003"><a xlink:title=" ">
<path fill="none" stroke="#63b8ff" d="M164.24,-9.5C172.17,-9.5 180.89,-9.5 189.57,-9.5"/>
<polygon fill="#63b8ff" stroke="#63b8ff" points="189.68,-13 199.68,-9.5 189.68,-6 189.68,-13"/>
</a>
</g>
</g>
<!-- Node3&#45;&gt;Node3 -->
<g id="edge4_Node000003_Node000003" class="edge">
<title>Node3&#45;&gt;Node3</title>
<g id="a_edge4_Node000003_Node000003"><a xlink:title=" ">
<path fill="none" stroke="#63b8ff" d="M227.93,-19.08C219.38,-27.73 225.24,-37 245.5,-37 258.16,-37 265.2,-33.38 266.61,-28.55"/>
<polygon fill="#63b8ff" stroke="#63b8ff" points="269.85,-27.22 263.07,-19.08 263.29,-29.68 269.85,-27.22"/>
</a>
</g>
</g>
</g>
</svg>
