<?xml version="1.0" encoding="UTF-8" standalone="no"?>
<!DOCTYPE svg PUBLIC "-//W3C//DTD SVG 1.1//EN"
 "http://www.w3.org/Graphics/SVG/1.1/DTD/svg11.dtd">
<!-- Generated by graphviz version 2.43.0 (0)
 -->
<!-- Title: slist_insert_before Pages: 1 -->
<svg width="493pt" height="150pt"
 viewBox="0.00 0.00 493.00 150.00" xmlns="http://www.w3.org/2000/svg" xmlns:xlink="http://www.w3.org/1999/xlink">
<g id="graph0" class="graph" transform="scale(1 1) rotate(0) translate(4 146)">
<title>slist_insert_before</title>
<!-- Node1 -->
<g id="Node000001" class="node">
<title>Node1</title>
<g id="a_Node000001"><a xlink:title=" ">
<polygon fill="#999999" stroke="#666666" points="107,-69 0,-69 0,-50 107,-50 107,-69"/>
<text text-anchor="middle" x="53.5" y="-57" font-family="Helvetica,sans-Serif" font-size="10.00">slist_insert_before</text>
</a>
</g>
</g>
<!-- Node1&#45;&gt;Node1 -->
<g id="edge13_Node000001_Node000001" class="edge">
<title>Node1&#45;&gt;Node1</title>
<g id="a_edge13_Node000001_Node000001"><a xlink:title=" ">
<path fill="none" stroke="#63b8ff" d="M33.46,-69.08C23.72,-77.73 30.39,-87 53.5,-87 68.3,-87 76.36,-83.2 77.68,-78.19"/>
<polygon fill="#63b8ff" stroke="#63b8ff" points="80.86,-76.73 73.54,-69.08 74.49,-79.63 80.86,-76.73"/>
</a>
</g>
</g>
<!-- Node2 -->
<g id="Node000002" class="node">
<title>Node2</title>
<g id="a_Node000002"><a xlink:href="slist_8c.html#afb93c0e3ad60ba769065193f44ee2c49" target="_top" xlink:title=" ">
<polygon fill="white" stroke="#666666" points="227,-124 143,-124 143,-105 227,-105 227,-124"/>
<text text-anchor="middle" x="185" y="-112" font-family="Helvetica,sans-Serif" font-size="10.00">slist_index_of</text>
</a>
</g>
</g>
<!-- Node1&#45;&gt;Node2 -->
<g id="edge1_Node000001_Node000002" class="edge">
<title>Node1&#45;&gt;Node2</title>
<g id="a_edge1_Node000001_Node000002"><a xlink:title=" ">
<path fill="none" stroke="#63b8ff" d="M77.06,-69.08C97.73,-77.86 128.56,-90.95 151.82,-100.83"/>
<polygon fill="#63b8ff" stroke="#63b8ff" points="150.69,-104.16 161.27,-104.84 153.43,-97.71 150.69,-104.16"/>
</a>
</g>
</g>
<!-- Node3 -->
<g id="Node000003" class="node">
<title>Node3</title>
<g id="a_Node000003"><a xlink:href="slist_8c.html#a3560547a113baec443dc286e37f952d9" target="_top" xlink:title=" ">
<polygon fill="white" stroke="#666666" points="220,-69 150,-69 150,-50 220,-50 220,-69"/>
<text text-anchor="middle" x="185" y="-57" font-family="Helvetica,sans-Serif" font-size="10.00">slist_insert</text>
</a>
</g>
</g>
<!-- Node1&#45;&gt;Node3 -->
<g id="edge3_Node000001_Node000003" class="edge">
<title>Node1&#45;&gt;Node3</title>
<g id="a_edge3_Node000001_Node000003"><a xlink:title=" ">
<path fill="none" stroke="#63b8ff" d="M107.17,-59.5C117.99,-59.5 129.28,-59.5 139.76,-59.5"/>
<polygon fill="#63b8ff" stroke="#63b8ff" points="139.93,-63 149.93,-59.5 139.93,-56 139.93,-63"/>
</a>
</g>
</g>
<!-- Node6 -->
<g id="Node000006" class="node">
<title>Node6</title>
<g id="a_Node000006"><a xlink:href="slist_8c.html#a7925420d2af1cf9aedc0486bc72895d8" target="_top" xlink:title=" ">
<polygon fill="white" stroke="#666666" points="357,-19 263,-19 263,0 357,0 357,-19"/>
<text text-anchor="middle" x="310" y="-7" font-family="Helvetica,sans-Serif" font-size="10.00">slist_push_front</text>
</a>
</g>
</g>
<!-- Node1&#45;&gt;Node6 -->
<g id="edge14_Node000001_Node000006" class="edge">
<title>Node1&#45;&gt;Node6</title>
<g id="a_edge14_Node000001_Node000006"><a xlink:title=" ">
<path fill="none" stroke="#63b8ff" d="M97.66,-49.99C112.07,-46.88 128.21,-43.47 143,-40.5 179.44,-33.19 220.5,-25.51 252.67,-19.63"/>
<polygon fill="#63b8ff" stroke="#63b8ff" points="253.57,-23.02 262.78,-17.79 252.32,-16.14 253.57,-23.02"/>
</a>
</g>
</g>
<!-- Node2&#45;&gt;Node2 -->
<g id="edge2_Node000002_Node000002" class="edge">
<title>Node2&#45;&gt;Node2</title>
<g id="a_edge2_Node000002_Node000002"><a xlink:title=" ">
<path fill="none" stroke="#63b8ff" d="M165.89,-124.08C156.59,-132.73 162.96,-142 185,-142 198.77,-142 206.43,-138.38 207.96,-133.55"/>
<polygon fill="#63b8ff" stroke="#63b8ff" points="211.12,-132.03 204.11,-124.08 204.64,-134.66 211.12,-132.03"/>
</a>
</g>
</g>
<!-- Node3&#45;&gt;Node3 -->
<g id="edge4_Node000003_Node000003" class="edge">
<title>Node3&#45;&gt;Node3</title>
<g id="a_edge4_Node000003_Node000003"><a xlink:title=" ">
<path fill="none" stroke="#63b8ff" d="M165.89,-69.08C156.59,-77.73 162.96,-87 185,-87 198.77,-87 206.43,-83.38 207.96,-78.55"/>
<polygon fill="#63b8ff" stroke="#63b8ff" points="211.12,-77.03 204.11,-69.08 204.64,-79.66 211.12,-77.03"/>
</a>
</g>
</g>
<!-- Node4 -->
<g id="Node000004" class="node">
<title>Node4</title>
<g id="a_Node000004"><a xlink:href="slist_8c.html#a85d1cab8127d09fa948e5527d3c9a6f5" target="_top" xlink:title=" ">
<polygon fill="white" stroke="#666666" points="485,-74 393,-74 393,-55 485,-55 485,-74"/>
<text text-anchor="middle" x="439" y="-62" font-family="Helvetica,sans-Serif" font-size="10.00">slist_node_new</text>
</a>
</g>
</g>
<!-- Node3&#45;&gt;Node4 -->
<g id="edge5_Node000003_Node000004" class="edge">
<title>Node3&#45;&gt;Node4</title>
<g id="a_edge5_Node000003_Node000004"><a xlink:title=" ">
<path fill="none" stroke="#63b8ff" d="M198.78,-69.11C213.4,-79.45 238.51,-95.25 263,-101.5 303.48,-111.82 316.18,-110.38 357,-101.5 376.89,-97.17 397.75,-87.51 413.32,-79.14"/>
<polygon fill="#63b8ff" stroke="#63b8ff" points="415.23,-82.08 422.27,-74.16 411.83,-75.96 415.23,-82.08"/>
</a>
</g>
</g>
<!-- Node5 -->
<g id="Node000005" class="node">
<title>Node5</title>
<g id="a_Node000005"><a xlink:href="slist_8c.html#a606315c0fcf11d5187b6fc02d1a19630" target="_top" xlink:title=" ">
<polygon fill="white" stroke="#666666" points="357,-74 263,-74 263,-55 357,-55 357,-74"/>
<text text-anchor="middle" x="310" y="-62" font-family="Helvetica,sans-Serif" font-size="10.00">slist_push_back</text>
</a>
</g>
</g>
<!-- Node3&#45;&gt;Node5 -->
<g id="edge7_Node000003_Node000005" class="edge">
<title>Node3&#45;&gt;Node5</title>
<g id="a_edge7_Node000003_Node000005"><a xlink:title=" ">
<path fill="none" stroke="#63b8ff" d="M220.26,-60.89C230.39,-61.3 241.74,-61.77 252.86,-62.22"/>
<polygon fill="#63b8ff" stroke="#63b8ff" points="252.83,-65.72 262.97,-62.63 253.12,-58.73 252.83,-65.72"/>
</a>
</g>
</g>
<!-- Node3&#45;&gt;Node6 -->
<g id="edge10_Node000003_Node000006" class="edge">
<title>Node3&#45;&gt;Node6</title>
<g id="a_edge10_Node000003_Node000006"><a xlink:title=" ">
<path fill="none" stroke="#63b8ff" d="M209.42,-49.98C228.2,-42.35 254.78,-31.54 275.75,-23.02"/>
<polygon fill="#63b8ff" stroke="#63b8ff" points="277.3,-26.17 285.24,-19.16 274.66,-19.68 277.3,-26.17"/>
</a>
</g>
</g>
<!-- Node4&#45;&gt;Node4 -->
<g id="edge6_Node000004_Node000004" class="edge">
<title>Node4&#45;&gt;Node4</title>
<g id="a_edge6_Node000004_Node000004"><a xlink:title=" ">
<path fill="none" stroke="#63b8ff" d="M419.27,-74.08C409.67,-82.73 416.25,-92 439,-92 453.22,-92 461.12,-88.38 462.7,-83.55"/>
<polygon fill="#63b8ff" stroke="#63b8ff" points="465.83,-81.95 458.73,-74.08 459.37,-84.66 465.83,-81.95"/>
</a>
</g>
</g>
<!-- Node5&#45;&gt;Node4 -->
<g id="edge8_Node000005_Node000004" class="edge">
<title>Node5&#45;&gt;Node4</title>
<g id="a_edge8_Node000005_Node000004"><a xlink:title=" ">
<path fill="none" stroke="#63b8ff" d="M357.21,-64.5C365.48,-64.5 374.17,-64.5 382.67,-64.5"/>
<polygon fill="#63b8ff" stroke="#63b8ff" points="382.89,-68 392.89,-64.5 382.89,-61 382.89,-68"/>
</a>
</g>
</g>
<!-- Node5&#45;&gt;Node5 -->
<g id="edge9_Node000005_Node000005" class="edge">
<title>Node5&#45;&gt;Node5</title>
<g id="a_edge9_Node000005_Node000005"><a xlink:title=" ">
<path fill="none" stroke="#63b8ff" d="M290.89,-74.08C281.59,-82.73 287.96,-92 310,-92 323.77,-92 331.43,-88.38 332.96,-83.55"/>
<polygon fill="#63b8ff" stroke="#63b8ff" points="336.12,-82.03 329.11,-74.08 329.64,-84.66 336.12,-82.03"/>
</a>
</g>
</g>
<!-- Node6&#45;&gt;Node4 -->
<g id="edge11_Node000006_Node000004" class="edge">
<title>Node6&#45;&gt;Node4</title>
<g id="a_edge11_Node000006_Node000004"><a xlink:title=" ">
<path fill="none" stroke="#63b8ff" d="M333.12,-19.08C353.39,-27.86 383.63,-40.95 406.44,-50.83"/>
<polygon fill="#63b8ff" stroke="#63b8ff" points="405.14,-54.08 415.71,-54.84 407.92,-47.66 405.14,-54.08"/>
</a>
</g>
</g>
<!-- Node6&#45;&gt;Node6 -->
<g id="edge12_Node000006_Node000006" class="edge">
<title>Node6&#45;&gt;Node6</title>
<g id="a_edge12_Node000006_Node000006"><a xlink:title=" ">
<path fill="none" stroke="#63b8ff" d="M290.89,-19.08C281.59,-27.73 287.96,-37 310,-37 323.77,-37 331.43,-33.38 332.96,-28.55"/>
<polygon fill="#63b8ff" stroke="#63b8ff" points="336.12,-27.03 329.11,-19.08 329.64,-29.66 336.12,-27.03"/>
</a>
</g>
</g>
</g>
</svg>
