<?xml version="1.0" encoding="UTF-8" standalone="no"?>
<!DOCTYPE svg PUBLIC "-//W3C//DTD SVG 1.1//EN"
 "http://www.w3.org/Graphics/SVG/1.1/DTD/svg11.dtd">
<!-- Generated by graphviz version 2.43.0 (0)
 -->
<!-- Title: slist_node_free Pages: 1 -->
<svg width="340pt" height="119pt"
 viewBox="0.00 0.00 340.00 119.00" xmlns="http://www.w3.org/2000/svg" xmlns:xlink="http://www.w3.org/1999/xlink">

<svg id="main" version="1.1" xmlns="http://www.w3.org/2000/svg" xmlns:xlink="http://www.w3.org/1999/xlink" xml:space="preserve" onload="init(evt)">
<style type="text/css"><![CDATA[
.node, .edge {opacity: 0.7;}
.node.selected, .edge.selected {opacity: 1;}
.edge:hover path { stroke: red; }
.edge:hover polygon { stroke: red; fill: red; }
]]></style>
<script type="application/ecmascript" xlink:href="svg.min.js"/>
<svg id="graph" class="graph">
<g id="graph0" class="graph" transform="scale(1 1) rotate(0) translate(4 115)">
<title>slist_node_free</title>
<!-- Node1 -->
<g id="Node000001" class="node">
<title>Node1</title>
<g id="a_Node000001"><a xlink:title=" ">
<polygon fill="#999999" stroke="#666666" points="332,-38 241,-38 241,-19 332,-19 332,-38"/>
<text text-anchor="middle" x="286.5" y="-26" font-family="Helvetica,sans-Serif" font-size="10.00">slist_node_free</text>
</a>
</g>
</g>
<!-- Node1&#45;&gt;Node1 -->
<g id="edge5_Node000001_Node000001" class="edge">
<title>Node1&#45;&gt;Node1</title>
<g id="a_edge5_Node000001_Node000001"><a xlink:title=" ">
<path fill="none" stroke="#63b8ff" d="M309.83,-47.55C308.27,-52.38 300.5,-56 286.5,-56 264.11,-56 257.63,-46.73 267.08,-38.08"/>
<polygon fill="#63b8ff" stroke="#63b8ff" points="312.97,-45.99 305.92,-38.08 306.5,-48.66 312.97,-45.99"/>
</a>
</g>
</g>
<!-- Node2 -->
<g id="Node000002" class="node">
<title>Node2</title>
<g id="a_Node000002"><a xlink:href="slist_8c.html#a3bb15a8581b8a8f275e4c8d135e14f01" target="_top" xlink:title=" ">
<polygon fill="white" stroke="#666666" points="193.5,-93 127.5,-93 127.5,-74 193.5,-74 193.5,-93"/>
<text text-anchor="middle" x="160.5" y="-81" font-family="Helvetica,sans-Serif" font-size="10.00">slist_clear</text>
</a>
</g>
</g>
<!-- Node1&#45;&gt;Node2 -->
<g id="edge1_Node000001_Node000002" class="edge">
<title>Node1&#45;&gt;Node2</title>
<g id="a_edge1_Node000001_Node000002"><a xlink:title=" ">
<path fill="none" stroke="#63b8ff" d="M255.72,-42.52C240.59,-49.56 221.88,-58.13 205,-65.5 198.56,-68.31 191.54,-71.27 185.05,-73.95"/>
<polygon fill="#63b8ff" stroke="#63b8ff" points="257.5,-45.55 265.08,-38.15 254.54,-39.21 257.5,-45.55"/>
</a>
</g>
</g>
<!-- Node4 -->
<g id="Node000004" class="node">
<title>Node4</title>
<g id="a_Node000004"><a xlink:href="slist_8c.html#a3d0572762c080f4e784df8e0c65583cf" target="_top" xlink:title=" ">
<polygon fill="white" stroke="#666666" points="205,-38 116,-38 116,-19 205,-19 205,-38"/>
<text text-anchor="middle" x="160.5" y="-26" font-family="Helvetica,sans-Serif" font-size="10.00">slist_pop_front</text>
</a>
</g>
</g>
<!-- Node1&#45;&gt;Node4 -->
<g id="edge6_Node000001_Node000004" class="edge">
<title>Node1&#45;&gt;Node4</title>
<g id="a_edge6_Node000001_Node000004"><a xlink:title=" ">
<path fill="none" stroke="#63b8ff" d="M230.57,-28.5C222.14,-28.5 213.52,-28.5 205.37,-28.5"/>
<polygon fill="#63b8ff" stroke="#63b8ff" points="230.73,-32 240.73,-28.5 230.73,-25 230.73,-32"/>
</a>
</g>
</g>
<!-- Node5 -->
<g id="Node000005" class="node">
<title>Node5</title>
<g id="a_Node000005"><a xlink:href="slist_8c.html#a6b313f7aed80f6464b148d7165389f12" target="_top" xlink:title=" ">
<polygon fill="white" stroke="#666666" points="80,-19 0,-19 0,0 80,0 80,-19"/>
<text text-anchor="middle" x="40" y="-7" font-family="Helvetica,sans-Serif" font-size="10.00">slist_remove</text>
</a>
</g>
</g>
<!-- Node1&#45;&gt;Node5 -->
<g id="edge10_Node000001_Node000005" class="edge">
<title>Node1&#45;&gt;Node5</title>
<g id="a_edge10_Node000001_Node000005"><a xlink:title=" ">
<path fill="none" stroke="#63b8ff" d="M243.01,-16.53C230.83,-13.63 217.48,-10.95 205,-9.5 162.58,-4.56 113.56,-5.41 80.25,-6.96"/>
<polygon fill="#63b8ff" stroke="#63b8ff" points="242.36,-19.98 252.91,-18.99 244.05,-13.18 242.36,-19.98"/>
</a>
</g>
</g>
<!-- Node2&#45;&gt;Node2 -->
<g id="edge2_Node000002_Node000002" class="edge">
<title>Node2&#45;&gt;Node2</title>
<g id="a_edge2_Node000002_Node000002"><a xlink:title=" ">
<path fill="none" stroke="#63b8ff" d="M182.72,-102.55C181.24,-107.38 173.83,-111 160.5,-111 139.17,-111 133.01,-101.73 142,-93.08"/>
<polygon fill="#63b8ff" stroke="#63b8ff" points="185.91,-101.11 179,-93.08 179.4,-103.67 185.91,-101.11"/>
</a>
</g>
</g>
<!-- Node3 -->
<g id="Node000003" class="node">
<title>Node3</title>
<g id="a_Node000003"><a xlink:href="slist_8c.html#ac43a822b219fefa70d02134d0ac4ad5e" target="_top" xlink:title=" ">
<polygon fill="white" stroke="#666666" points="71,-93 9,-93 9,-74 71,-74 71,-93"/>
<text text-anchor="middle" x="40" y="-81" font-family="Helvetica,sans-Serif" font-size="10.00">slist_free</text>
</a>
</g>
</g>
<!-- Node2&#45;&gt;Node3 -->
<g id="edge3_Node000002_Node000003" class="edge">
<title>Node2&#45;&gt;Node3</title>
<g id="a_edge3_Node000002_Node000003"><a xlink:title=" ">
<path fill="none" stroke="#63b8ff" d="M117.19,-83.5C101.94,-83.5 85.05,-83.5 71.06,-83.5"/>
<polygon fill="#63b8ff" stroke="#63b8ff" points="117.43,-87 127.43,-83.5 117.43,-80 117.43,-87"/>
</a>
</g>
</g>
<!-- Node3&#45;&gt;Node3 -->
<g id="edge4_Node000003_Node000003" class="edge">
<title>Node3&#45;&gt;Node3</title>
<g id="a_edge4_Node000003_Node000003"><a xlink:title=" ">
<path fill="none" stroke="#63b8ff" d="M62.22,-102.55C60.74,-107.38 53.33,-111 40,-111 18.67,-111 12.51,-101.73 21.5,-93.08"/>
<polygon fill="#63b8ff" stroke="#63b8ff" points="65.41,-101.11 58.5,-93.08 58.9,-103.67 65.41,-101.11"/>
</a>
</g>
</g>
<!-- Node4&#45;&gt;Node4 -->
<g id="edge7_Node000004_Node000004" class="edge">
<title>Node4&#45;&gt;Node4</title>
<g id="a_edge7_Node000004_Node000004"><a xlink:title=" ">
<path fill="none" stroke="#63b8ff" d="M182.72,-47.55C181.24,-52.38 173.83,-56 160.5,-56 139.17,-56 133.01,-46.73 142,-38.08"/>
<polygon fill="#63b8ff" stroke="#63b8ff" points="185.91,-46.11 179,-38.08 179.4,-48.67 185.91,-46.11"/>
</a>
</g>
</g>
<!-- Node4&#45;&gt;Node5 -->
<g id="edge8_Node000004_Node000005" class="edge">
<title>Node4&#45;&gt;Node5</title>
<g id="a_edge8_Node000004_Node000005"><a xlink:title=" ">
<path fill="none" stroke="#63b8ff" d="M105.76,-19.88C97.19,-18.51 88.46,-17.11 80.3,-15.8"/>
<polygon fill="#63b8ff" stroke="#63b8ff" points="105.28,-23.35 115.71,-21.48 106.39,-16.44 105.28,-23.35"/>
</a>
</g>
</g>
<!-- Node5&#45;&gt;Node5 -->
<g id="edge9_Node000005_Node000005" class="edge">
<title>Node5&#45;&gt;Node5</title>
<g id="a_edge9_Node000005_Node000005"><a xlink:title=" ">
<path fill="none" stroke="#63b8ff" d="M62.22,-28.55C60.74,-33.38 53.33,-37 40,-37 18.67,-37 12.51,-27.73 21.5,-19.08"/>
<polygon fill="#63b8ff" stroke="#63b8ff" points="65.41,-27.11 58.5,-19.08 58.9,-29.67 65.41,-27.11"/>
</a>
</g>
</g>
</g>
</svg>
</svg>

<style type='text/css'>
<![CDATA[
[data-mouse-over-selected='false'] { opacity: 0.7; }
[data-mouse-over-selected='true']  { opacity: 1.0; }
]]>
</style>
<script type="application/ecmascript"><![CDATA[
document.addEventListener('DOMContentLoaded', (event) => {
  highlightEdges();
  highlightAdjacentNodes();
});
]]></script>
</svg>
