<?xml version="1.0" encoding="UTF-8" standalone="no"?>
<!DOCTYPE svg PUBLIC "-//W3C//DTD SVG 1.1//EN"
 "http://www.w3.org/Graphics/SVG/1.1/DTD/svg11.dtd">
<!-- Generated by graphviz version 2.43.0 (0)
 -->
<!-- Title: slist_push_front Pages: 1 -->
<svg width="351pt" height="100pt"
 viewBox="0.00 0.00 351.00 100.00" xmlns="http://www.w3.org/2000/svg" xmlns:xlink="http://www.w3.org/1999/xlink">

<svg id="main" version="1.1" xmlns="http://www.w3.org/2000/svg" xmlns:xlink="http://www.w3.org/1999/xlink" xml:space="preserve" onload="init(evt)">
<style type="text/css"><![CDATA[
.node, .edge {opacity: 0.7;}
.node.selected, .edge.selected {opacity: 1;}
.edge:hover path { stroke: red; }
.edge:hover polygon { stroke: red; fill: red; }
]]></style>
<script type="application/ecmascript" xlink:href="svg.min.js"/>
<svg id="graph" class="graph">
<g id="graph0" class="graph" transform="scale(1 1) rotate(0) translate(4 96)">
<title>slist_push_front</title>
<!-- Node1 -->
<g id="Node000001" class="node">
<title>Node1</title>
<g id="a_Node000001"><a xlink:title=" ">
<polygon fill="#999999" stroke="#666666" points="343,-38 249,-38 249,-19 343,-19 343,-38"/>
<text text-anchor="middle" x="296" y="-26" font-family="Helvetica,sans-Serif" font-size="10.00">slist_push_front</text>
</a>
</g>
</g>
<!-- Node1&#45;&gt;Node1 -->
<g id="edge8_Node000001_Node000001" class="edge">
<title>Node1&#45;&gt;Node1</title>
<g id="a_edge8_Node000001_Node000001"><a xlink:title=" ">
<path fill="none" stroke="#63b8ff" d="M317.85,-47.55C316.39,-52.38 309.11,-56 296,-56 275.03,-56 268.96,-46.73 277.81,-38.08"/>
<polygon fill="#63b8ff" stroke="#63b8ff" points="321.06,-46.15 314.19,-38.08 314.53,-48.67 321.06,-46.15"/>
</a>
</g>
</g>
<!-- Node2 -->
<g id="Node000002" class="node">
<title>Node2</title>
<g id="a_Node000002"><a xlink:href="slist_8c.html#a3560547a113baec443dc286e37f952d9" target="_top" xlink:title=" ">
<polygon fill="white" stroke="#666666" points="213,-57 143,-57 143,-38 213,-38 213,-57"/>
<text text-anchor="middle" x="178" y="-45" font-family="Helvetica,sans-Serif" font-size="10.00">slist_insert</text>
</a>
</g>
</g>
<!-- Node1&#45;&gt;Node2 -->
<g id="edge1_Node000001_Node000002" class="edge">
<title>Node1&#45;&gt;Node2</title>
<g id="a_edge1_Node000001_Node000002"><a xlink:title=" ">
<path fill="none" stroke="#63b8ff" d="M238.68,-37.72C229.98,-39.15 221.24,-40.58 213.22,-41.89"/>
<polygon fill="#63b8ff" stroke="#63b8ff" points="239.52,-41.13 248.82,-36.06 238.39,-34.23 239.52,-41.13"/>
</a>
</g>
</g>
<!-- Node4 -->
<g id="Node000004" class="node">
<title>Node4</title>
<g id="a_Node000004"><a xlink:href="slist_8c.html#a35b4bfed4bf5d10bd31cfa7921d60cc3" target="_top" xlink:title=" ">
<polygon fill="white" stroke="#666666" points="107,-19 0,-19 0,0 107,0 107,-19"/>
<text text-anchor="middle" x="53.5" y="-7" font-family="Helvetica,sans-Serif" font-size="10.00">slist_insert_before</text>
</a>
</g>
</g>
<!-- Node1&#45;&gt;Node4 -->
<g id="edge7_Node000001_Node000004" class="edge">
<title>Node1&#45;&gt;Node4</title>
<g id="a_edge7_Node000001_Node000004"><a xlink:title=" ">
<path fill="none" stroke="#63b8ff" d="M238.85,-24.06C199.07,-20.92 146.08,-16.74 107.12,-13.66"/>
<polygon fill="#63b8ff" stroke="#63b8ff" points="238.67,-27.56 248.91,-24.86 239.22,-20.58 238.67,-27.56"/>
</a>
</g>
</g>
<!-- Node2&#45;&gt;Node2 -->
<g id="edge2_Node000002_Node000002" class="edge">
<title>Node2&#45;&gt;Node2</title>
<g id="a_edge2_Node000002_Node000002"><a xlink:title=" ">
<path fill="none" stroke="#63b8ff" d="M199.85,-66.55C198.39,-71.38 191.11,-75 178,-75 157.03,-75 150.96,-65.73 159.81,-57.08"/>
<polygon fill="#63b8ff" stroke="#63b8ff" points="203.06,-65.15 196.19,-57.08 196.53,-67.67 203.06,-65.15"/>
</a>
</g>
</g>
<!-- Node3 -->
<g id="Node000003" class="node">
<title>Node3</title>
<g id="a_Node000003"><a xlink:href="slist_8c.html#abe77f11d092506fe4a544e596e1eee03" target="_top" xlink:title=" ">
<polygon fill="white" stroke="#666666" points="102.5,-74 4.5,-74 4.5,-55 102.5,-55 102.5,-74"/>
<text text-anchor="middle" x="53.5" y="-62" font-family="Helvetica,sans-Serif" font-size="10.00">slist_insert_after</text>
</a>
</g>
</g>
<!-- Node2&#45;&gt;Node3 -->
<g id="edge3_Node000002_Node000003" class="edge">
<title>Node2&#45;&gt;Node3</title>
<g id="a_edge3_Node000002_Node000003"><a xlink:title=" ">
<path fill="none" stroke="#63b8ff" d="M132.91,-53.62C123.08,-54.98 112.61,-56.44 102.63,-57.82"/>
<polygon fill="#63b8ff" stroke="#63b8ff" points="133.45,-57.08 142.88,-52.24 132.49,-50.14 133.45,-57.08"/>
</a>
</g>
</g>
<!-- Node2&#45;&gt;Node4 -->
<g id="edge5_Node000002_Node000004" class="edge">
<title>Node2&#45;&gt;Node4</title>
<g id="a_edge5_Node000002_Node000004"><a xlink:title=" ">
<path fill="none" stroke="#63b8ff" d="M136.12,-34.82C119.57,-29.69 100.78,-23.86 85.4,-19.09"/>
<polygon fill="#63b8ff" stroke="#63b8ff" points="135.5,-38.29 146.09,-37.91 137.57,-31.61 135.5,-38.29"/>
</a>
</g>
</g>
<!-- Node3&#45;&gt;Node3 -->
<g id="edge4_Node000003_Node000003" class="edge">
<title>Node3&#45;&gt;Node3</title>
<g id="a_edge4_Node000003_Node000003"><a xlink:title=" ">
<path fill="none" stroke="#63b8ff" d="M76.46,-83.55C74.93,-88.38 67.27,-92 53.5,-92 31.46,-92 25.09,-82.73 34.39,-74.08"/>
<polygon fill="#63b8ff" stroke="#63b8ff" points="79.62,-82.03 72.61,-74.08 73.14,-84.66 79.62,-82.03"/>
</a>
</g>
</g>
<!-- Node4&#45;&gt;Node4 -->
<g id="edge6_Node000004_Node000004" class="edge">
<title>Node4&#45;&gt;Node4</title>
<g id="a_edge6_Node000004_Node000004"><a xlink:title=" ">
<path fill="none" stroke="#63b8ff" d="M76.46,-28.55C74.93,-33.38 67.27,-37 53.5,-37 31.46,-37 25.09,-27.73 34.39,-19.08"/>
<polygon fill="#63b8ff" stroke="#63b8ff" points="79.62,-27.03 72.61,-19.08 73.14,-29.66 79.62,-27.03"/>
</a>
</g>
</g>
</g>
</svg>
</svg>

<style type='text/css'>
<![CDATA[
[data-mouse-over-selected='false'] { opacity: 0.7; }
[data-mouse-over-selected='true']  { opacity: 1.0; }
]]>
</style>
<script type="application/ecmascript"><![CDATA[
document.addEventListener('DOMContentLoaded', (event) => {
  highlightEdges();
  highlightAdjacentNodes();
});
]]></script>
</svg>
