<?xml version="1.0" encoding="UTF-8" standalone="no"?>
<!DOCTYPE svg PUBLIC "-//W3C//DTD SVG 1.1//EN"
 "http://www.w3.org/Graphics/SVG/1.1/DTD/svg11.dtd">
<!-- Generated by graphviz version 2.43.0 (0)
 -->
<!-- Title: slist_insert Pages: 1 -->
<svg width="336pt" height="117pt"
 viewBox="0.00 0.00 336.00 116.68" xmlns="http://www.w3.org/2000/svg" xmlns:xlink="http://www.w3.org/1999/xlink">
<g id="graph0" class="graph" transform="scale(1 1) rotate(0) translate(4 112.68)">
<title>slist_insert</title>
<!-- Node1 -->
<g id="Node000001" class="node">
<title>Node1</title>
<g id="a_Node000001"><a xlink:title=" ">
<polygon fill="#999999" stroke="#666666" points="70,-74 0,-74 0,-55 70,-55 70,-74"/>
<text text-anchor="middle" x="35" y="-62" font-family="Helvetica,sans-Serif" font-size="10.00">slist_insert</text>
</a>
</g>
</g>
<!-- Node1&#45;&gt;Node1 -->
<g id="edge1_Node000001_Node000001" class="edge">
<title>Node1&#45;&gt;Node1</title>
<g id="a_edge1_Node000001_Node000001"><a xlink:title=" ">
<path fill="none" stroke="#63b8ff" d="M16.81,-74.08C7.96,-82.73 14.03,-92 35,-92 48.11,-92 55.39,-88.38 56.85,-83.55"/>
<polygon fill="#63b8ff" stroke="#63b8ff" points="60.06,-82.15 53.19,-74.08 53.53,-84.67 60.06,-82.15"/>
</a>
</g>
</g>
<!-- Node2 -->
<g id="Node000002" class="node">
<title>Node2</title>
<g id="a_Node000002"><a xlink:href="slist_8c.html#a85d1cab8127d09fa948e5527d3c9a6f5" target="_top" xlink:title=" ">
<polygon fill="white" stroke="#666666" points="328,-74 236,-74 236,-55 328,-55 328,-74"/>
<text text-anchor="middle" x="282" y="-62" font-family="Helvetica,sans-Serif" font-size="10.00">slist_node_new</text>
</a>
</g>
</g>
<!-- Node1&#45;&gt;Node2 -->
<g id="edge2_Node000001_Node000002" class="edge">
<title>Node1&#45;&gt;Node2</title>
<g id="a_edge2_Node000001_Node000002"><a xlink:title=" ">
<path fill="none" stroke="#63b8ff" d="M49.4,-74.14C62.92,-83.24 84.79,-96.24 106,-101.5 146.55,-111.56 159.18,-110.38 200,-101.5 219.89,-97.17 240.75,-87.51 256.32,-79.14"/>
<polygon fill="#63b8ff" stroke="#63b8ff" points="258.23,-82.08 265.27,-74.16 254.83,-75.96 258.23,-82.08"/>
</a>
</g>
</g>
<!-- Node3 -->
<g id="Node000003" class="node">
<title>Node3</title>
<g id="a_Node000003"><a xlink:href="slist_8c.html#a606315c0fcf11d5187b6fc02d1a19630" target="_top" xlink:title=" ">
<polygon fill="white" stroke="#666666" points="200,-74 106,-74 106,-55 200,-55 200,-74"/>
<text text-anchor="middle" x="153" y="-62" font-family="Helvetica,sans-Serif" font-size="10.00">slist_push_back</text>
</a>
</g>
</g>
<!-- Node1&#45;&gt;Node3 -->
<g id="edge4_Node000001_Node000003" class="edge">
<title>Node1&#45;&gt;Node3</title>
<g id="a_edge4_Node000001_Node000003"><a xlink:title=" ">
<path fill="none" stroke="#63b8ff" d="M70.18,-64.5C78.15,-64.5 86.85,-64.5 95.51,-64.5"/>
<polygon fill="#63b8ff" stroke="#63b8ff" points="95.6,-68 105.6,-64.5 95.6,-61 95.6,-68"/>
</a>
</g>
</g>
<!-- Node4 -->
<g id="Node000004" class="node">
<title>Node4</title>
<g id="a_Node000004"><a xlink:href="slist_8c.html#a7925420d2af1cf9aedc0486bc72895d8" target="_top" xlink:title=" ">
<polygon fill="white" stroke="#666666" points="200,-19 106,-19 106,0 200,0 200,-19"/>
<text text-anchor="middle" x="153" y="-7" font-family="Helvetica,sans-Serif" font-size="10.00">slist_push_front</text>
</a>
</g>
</g>
<!-- Node1&#45;&gt;Node4 -->
<g id="edge7_Node000001_Node000004" class="edge">
<title>Node1&#45;&gt;Node4</title>
<g id="a_edge7_Node000001_Node000004"><a xlink:title=" ">
<path fill="none" stroke="#63b8ff" d="M56.21,-54.92C74.47,-46.26 101.6,-33.4 122.33,-23.57"/>
<polygon fill="#63b8ff" stroke="#63b8ff" points="124.1,-26.6 131.64,-19.16 121.1,-20.28 124.1,-26.6"/>
</a>
</g>
</g>
<!-- Node2&#45;&gt;Node2 -->
<g id="edge3_Node000002_Node000002" class="edge">
<title>Node2&#45;&gt;Node2</title>
<g id="a_edge3_Node000002_Node000002"><a xlink:title=" ">
<path fill="none" stroke="#63b8ff" d="M262.27,-74.08C252.67,-82.73 259.25,-92 282,-92 296.22,-92 304.12,-88.38 305.7,-83.55"/>
<polygon fill="#63b8ff" stroke="#63b8ff" points="308.83,-81.95 301.73,-74.08 302.37,-84.66 308.83,-81.95"/>
</a>
</g>
</g>
<!-- Node3&#45;&gt;Node2 -->
<g id="edge5_Node000003_Node000002" class="edge">
<title>Node3&#45;&gt;Node2</title>
<g id="a_edge5_Node000003_Node000002"><a xlink:title=" ">
<path fill="none" stroke="#63b8ff" d="M200.21,-64.5C208.48,-64.5 217.17,-64.5 225.67,-64.5"/>
<polygon fill="#63b8ff" stroke="#63b8ff" points="225.89,-68 235.89,-64.5 225.89,-61 225.89,-68"/>
</a>
</g>
</g>
<!-- Node3&#45;&gt;Node3 -->
<g id="edge6_Node000003_Node000003" class="edge">
<title>Node3&#45;&gt;Node3</title>
<g id="a_edge6_Node000003_Node000003"><a xlink:title=" ">
<path fill="none" stroke="#63b8ff" d="M134.81,-74.08C125.96,-82.73 132.03,-92 153,-92 166.11,-92 173.39,-88.38 174.85,-83.55"/>
<polygon fill="#63b8ff" stroke="#63b8ff" points="178.06,-82.15 171.19,-74.08 171.53,-84.67 178.06,-82.15"/>
</a>
</g>
</g>
<!-- Node4&#45;&gt;Node2 -->
<g id="edge8_Node000004_Node000002" class="edge">
<title>Node4&#45;&gt;Node2</title>
<g id="a_edge8_Node000004_Node000002"><a xlink:title=" ">
<path fill="none" stroke="#63b8ff" d="M176.12,-19.08C196.39,-27.86 226.63,-40.95 249.44,-50.83"/>
<polygon fill="#63b8ff" stroke="#63b8ff" points="248.14,-54.08 258.71,-54.84 250.92,-47.66 248.14,-54.08"/>
</a>
</g>
</g>
<!-- Node4&#45;&gt;Node4 -->
<g id="edge9_Node000004_Node000004" class="edge">
<title>Node4&#45;&gt;Node4</title>
<g id="a_edge9_Node000004_Node000004"><a xlink:title=" ">
<path fill="none" stroke="#63b8ff" d="M134.81,-19.08C125.96,-27.73 132.03,-37 153,-37 166.11,-37 173.39,-33.38 174.85,-28.55"/>
<polygon fill="#63b8ff" stroke="#63b8ff" points="178.06,-27.15 171.19,-19.08 171.53,-29.67 178.06,-27.15"/>
</a>
</g>
</g>
</g>
</svg>
