<?xml version="1.0" encoding="UTF-8" standalone="no"?>
<!DOCTYPE svg PUBLIC "-//W3C//DTD SVG 1.1//EN"
 "http://www.w3.org/Graphics/SVG/1.1/DTD/svg11.dtd">
<!-- Generated by graphviz version 2.43.0 (0)
 -->
<!-- Title: include/stdstreams.h Pages: 1 -->
<svg width="600pt" height="192pt"
 viewBox="0.00 0.00 599.50 192.00" xmlns="http://www.w3.org/2000/svg" xmlns:xlink="http://www.w3.org/1999/xlink">
<g id="graph0" class="graph" transform="scale(1 1) rotate(0) translate(4 188)">
<title>include/stdstreams.h</title>
<!-- Node1 -->
<g id="Node000001" class="node">
<title>Node1</title>
<g id="a_Node000001"><a xlink:title="Standard stream handling utilities.">
<polygon fill="#999999" stroke="#666666" points="193.5,-184 74.5,-184 74.5,-165 193.5,-165 193.5,-184"/>
<text text-anchor="middle" x="134" y="-172" font-family="Helvetica,sans-Serif" font-size="10.00">include/stdstreams.h</text>
</a>
</g>
</g>
<!-- Node2 -->
<g id="Node000002" class="node">
<title>Node2</title>
<g id="a_Node000002"><a xlink:href="platform_8h.html" target="_top" xlink:title="Cross&#45;platform compatibility definitions.">
<polygon fill="white" stroke="#666666" points="68,-129 0,-129 0,-110 68,-110 68,-129"/>
<text text-anchor="middle" x="34" y="-117" font-family="Helvetica,sans-Serif" font-size="10.00">platform.h</text>
</a>
</g>
</g>
<!-- Node1&#45;&gt;Node2 -->
<g id="edge1_Node000001_Node000002" class="edge">
<title>Node1&#45;&gt;Node2</title>
<g id="a_edge1_Node000001_Node000002"><a xlink:title=" ">
<path fill="none" stroke="#63b8ff" d="M117.93,-164.98C102.14,-156.61 77.78,-143.7 59.37,-133.95"/>
<polygon fill="#63b8ff" stroke="#63b8ff" points="60.83,-130.76 50.36,-129.17 57.56,-136.95 60.83,-130.76"/>
</a>
</g>
</g>
<!-- Node3 -->
<g id="Node000003" class="node">
<title>Node3</title>
<g id="a_Node000003"><a xlink:title=" ">
<polygon fill="#e0e0e0" stroke="#999999" points="88,-74 16,-74 16,-55 88,-55 88,-74"/>
<text text-anchor="middle" x="52" y="-62" font-family="Helvetica,sans-Serif" font-size="10.00">sys/types.h</text>
</a>
</g>
</g>
<!-- Node1&#45;&gt;Node3 -->
<g id="edge5_Node000001_Node000003" class="edge">
<title>Node1&#45;&gt;Node3</title>
<g id="a_edge5_Node000001_Node000003"><a xlink:title=" ">
<path fill="none" stroke="#63b8ff" d="M127.29,-164.66C113.65,-146.69 82.48,-105.64 64.82,-82.38"/>
<polygon fill="#63b8ff" stroke="#63b8ff" points="67.41,-80.01 58.57,-74.16 61.83,-84.24 67.41,-80.01"/>
</a>
</g>
</g>
<!-- Node4 -->
<g id="Node000004" class="node">
<title>Node4</title>
<g id="a_Node000004"><a xlink:title=" ">
<polygon fill="#e0e0e0" stroke="#999999" points="224,-74 162,-74 162,-55 224,-55 224,-74"/>
<text text-anchor="middle" x="193" y="-62" font-family="Helvetica,sans-Serif" font-size="10.00">stdbool.h</text>
</a>
</g>
</g>
<!-- Node1&#45;&gt;Node4 -->
<g id="edge3_Node000001_Node000004" class="edge">
<title>Node1&#45;&gt;Node4</title>
<g id="a_edge3_Node000001_Node000004"><a xlink:title=" ">
<path fill="none" stroke="#63b8ff" d="M138.83,-164.66C148.56,-146.85 170.68,-106.37 183.44,-83.01"/>
<polygon fill="#63b8ff" stroke="#63b8ff" points="186.55,-84.61 188.27,-74.16 180.4,-81.26 186.55,-84.61"/>
</a>
</g>
</g>
<!-- Node5 -->
<g id="Node000005" class="node">
<title>Node5</title>
<g id="a_Node000005"><a xlink:title=" ">
<polygon fill="#e0e0e0" stroke="#999999" points="88,-19 38,-19 38,0 88,0 88,-19"/>
<text text-anchor="middle" x="63" y="-7" font-family="Helvetica,sans-Serif" font-size="10.00">stdio.h</text>
</a>
</g>
</g>
<!-- Node1&#45;&gt;Node5 -->
<g id="edge4_Node000001_Node000005" class="edge">
<title>Node1&#45;&gt;Node5</title>
<g id="a_edge4_Node000001_Node000005"><a xlink:title=" ">
<path fill="none" stroke="#63b8ff" d="M132.37,-164.77C128.36,-144.58 116.91,-93.47 97,-55 91.82,-44.98 84.35,-34.9 77.73,-26.88"/>
<polygon fill="#63b8ff" stroke="#63b8ff" points="80.2,-24.38 71.03,-19.07 74.89,-28.94 80.2,-24.38"/>
</a>
</g>
</g>
<!-- Node6 -->
<g id="Node000006" class="node">
<title>Node6</title>
<g id="a_Node000006"><a xlink:href="cstr_8h.html" target="_top" xlink:title="C string utilities and safe string operations.">
<polygon fill="white" stroke="#666666" points="329.5,-129 286.5,-129 286.5,-110 329.5,-110 329.5,-129"/>
<text text-anchor="middle" x="308" y="-117" font-family="Helvetica,sans-Serif" font-size="10.00">cstr.h</text>
</a>
</g>
</g>
<!-- Node1&#45;&gt;Node6 -->
<g id="edge6_Node000001_Node000006" class="edge">
<title>Node1&#45;&gt;Node6</title>
<g id="a_edge6_Node000001_Node000006"><a xlink:title=" ">
<path fill="none" stroke="#63b8ff" d="M161.96,-164.98C193.25,-155.45 243.84,-140.04 276.5,-130.09"/>
<polygon fill="#63b8ff" stroke="#63b8ff" points="277.89,-133.33 286.43,-127.07 275.85,-126.63 277.89,-133.33"/>
</a>
</g>
</g>
<!-- Node2&#45;&gt;Node3 -->
<g id="edge2_Node000002_Node000003" class="edge">
<title>Node2&#45;&gt;Node3</title>
<g id="a_edge2_Node000002_Node000003"><a xlink:title=" ">
<path fill="none" stroke="#63b8ff" d="M36.97,-109.75C39.36,-102.72 42.79,-92.62 45.77,-83.84"/>
<polygon fill="#63b8ff" stroke="#63b8ff" points="49.18,-84.68 49.08,-74.09 42.55,-82.43 49.18,-84.68"/>
</a>
</g>
</g>
<!-- Node6&#45;&gt;Node4 -->
<g id="edge19_Node000006_Node000004" class="edge">
<title>Node6&#45;&gt;Node4</title>
<g id="a_edge19_Node000006_Node000004"><a xlink:title=" ">
<path fill="none" stroke="#63b8ff" d="M289.52,-109.98C271.02,-101.46 242.32,-88.23 221.02,-78.41"/>
<polygon fill="#63b8ff" stroke="#63b8ff" points="222.36,-75.18 211.81,-74.17 219.43,-81.53 222.36,-75.18"/>
</a>
</g>
</g>
<!-- Node7 -->
<g id="Node000007" class="node">
<title>Node7</title>
<g id="a_Node000007"><a xlink:href="macros_8h.html" target="_top" xlink:title="Collection of utility macros for assertions, memory management, math, and debugging.">
<polygon fill="white" stroke="#666666" points="304,-74 242,-74 242,-55 304,-55 304,-74"/>
<text text-anchor="middle" x="273" y="-62" font-family="Helvetica,sans-Serif" font-size="10.00">macros.h</text>
</a>
</g>
</g>
<!-- Node6&#45;&gt;Node7 -->
<g id="edge7_Node000006_Node000007" class="edge">
<title>Node6&#45;&gt;Node7</title>
<g id="a_edge7_Node000006_Node000007"><a xlink:title=" ">
<path fill="none" stroke="#63b8ff" d="M302.22,-109.75C297.38,-102.42 290.32,-91.73 284.36,-82.7"/>
<polygon fill="#63b8ff" stroke="#63b8ff" points="287.1,-80.5 278.67,-74.09 281.26,-84.36 287.1,-80.5"/>
</a>
</g>
</g>
<!-- Node12 -->
<g id="Node000012" class="node">
<title>Node12</title>
<g id="a_Node000012"><a xlink:href="str__utils_8h.html" target="_top" xlink:title="String utility functions for manipulation and processing.">
<polygon fill="white" stroke="#666666" points="447.5,-74 382.5,-74 382.5,-55 447.5,-55 447.5,-74"/>
<text text-anchor="middle" x="415" y="-62" font-family="Helvetica,sans-Serif" font-size="10.00">str_utils.h</text>
</a>
</g>
</g>
<!-- Node6&#45;&gt;Node12 -->
<g id="edge13_Node000006_Node000012" class="edge">
<title>Node6&#45;&gt;Node12</title>
<g id="a_edge13_Node000006_Node000012"><a xlink:title=" ">
<path fill="none" stroke="#63b8ff" d="M325.19,-109.98C342.25,-101.54 368.63,-88.47 388.4,-78.68"/>
<polygon fill="#63b8ff" stroke="#63b8ff" points="390.09,-81.75 397.5,-74.17 386.98,-75.47 390.09,-81.75"/>
</a>
</g>
</g>
<!-- Node13 -->
<g id="Node000013" class="node">
<title>Node13</title>
<g id="a_Node000013"><a xlink:title=" ">
<polygon fill="#e0e0e0" stroke="#999999" points="591.5,-19 538.5,-19 538.5,0 591.5,0 591.5,-19"/>
<text text-anchor="middle" x="565" y="-7" font-family="Helvetica,sans-Serif" font-size="10.00">ctype.h</text>
</a>
</g>
</g>
<!-- Node6&#45;&gt;Node13 -->
<g id="edge18_Node000006_Node000013" class="edge">
<title>Node6&#45;&gt;Node13</title>
<g id="a_edge18_Node000006_Node000013"><a xlink:title=" ">
<path fill="none" stroke="#63b8ff" d="M329.64,-113.69C358.98,-106.79 412.69,-92.81 456,-74 488.02,-60.09 522.43,-38.88 543.83,-24.86"/>
<polygon fill="#63b8ff" stroke="#63b8ff" points="546.04,-27.6 552.43,-19.15 542.17,-21.76 546.04,-27.6"/>
</a>
</g>
</g>
<!-- Node14 -->
<g id="Node000014" class="node">
<title>Node14</title>
<g id="a_Node000014"><a xlink:title=" ">
<polygon fill="#e0e0e0" stroke="#999999" points="443,-19 387,-19 387,0 443,0 443,-19"/>
<text text-anchor="middle" x="415" y="-7" font-family="Helvetica,sans-Serif" font-size="10.00">stddef.h</text>
</a>
</g>
</g>
<!-- Node6&#45;&gt;Node14 -->
<g id="edge20_Node000006_Node000014" class="edge">
<title>Node6&#45;&gt;Node14</title>
<g id="a_edge20_Node000006_Node000014"><a xlink:title=" ">
<path fill="none" stroke="#63b8ff" d="M316.76,-109.66C334.79,-91.46 376.31,-49.55 399.18,-26.47"/>
<polygon fill="#63b8ff" stroke="#63b8ff" points="401.87,-28.73 406.42,-19.16 396.9,-23.8 401.87,-28.73"/>
</a>
</g>
</g>
<!-- Node7&#45;&gt;Node5 -->
<g id="edge9_Node000007_Node000005" class="edge">
<title>Node7&#45;&gt;Node5</title>
<g id="a_edge9_Node000007_Node000005"><a xlink:title=" ">
<path fill="none" stroke="#63b8ff" d="M241.56,-55.57C203.04,-45.84 137.96,-29.42 97.92,-19.31"/>
<polygon fill="#63b8ff" stroke="#63b8ff" points="98.61,-15.88 88.06,-16.83 96.9,-22.67 98.61,-15.88"/>
</a>
</g>
</g>
<!-- Node8 -->
<g id="Node000008" class="node">
<title>Node8</title>
<g id="a_Node000008"><a xlink:title=" ">
<polygon fill="#e0e0e0" stroke="#999999" points="159.5,-19 106.5,-19 106.5,0 159.5,0 159.5,-19"/>
<text text-anchor="middle" x="133" y="-7" font-family="Helvetica,sans-Serif" font-size="10.00">stdint.h</text>
</a>
</g>
</g>
<!-- Node7&#45;&gt;Node8 -->
<g id="edge8_Node000007_Node000008" class="edge">
<title>Node7&#45;&gt;Node8</title>
<g id="a_edge8_Node000007_Node000008"><a xlink:title=" ">
<path fill="none" stroke="#63b8ff" d="M250.51,-54.98C227.48,-46.27 191.46,-32.63 165.37,-22.75"/>
<polygon fill="#63b8ff" stroke="#63b8ff" points="166.49,-19.44 155.9,-19.17 164.02,-25.98 166.49,-19.44"/>
</a>
</g>
</g>
<!-- Node9 -->
<g id="Node000009" class="node">
<title>Node9</title>
<g id="a_Node000009"><a xlink:title=" ">
<polygon fill="#e0e0e0" stroke="#999999" points="230.5,-19 177.5,-19 177.5,0 230.5,0 230.5,-19"/>
<text text-anchor="middle" x="204" y="-7" font-family="Helvetica,sans-Serif" font-size="10.00">stdlib.h</text>
</a>
</g>
</g>
<!-- Node7&#45;&gt;Node9 -->
<g id="edge10_Node000007_Node000009" class="edge">
<title>Node7&#45;&gt;Node9</title>
<g id="a_edge10_Node000007_Node000009"><a xlink:title=" ">
<path fill="none" stroke="#63b8ff" d="M261.91,-54.98C251.51,-47 235.74,-34.88 223.28,-25.31"/>
<polygon fill="#63b8ff" stroke="#63b8ff" points="225.35,-22.49 215.29,-19.17 221.09,-28.04 225.35,-22.49"/>
</a>
</g>
</g>
<!-- Node10 -->
<g id="Node000010" class="node">
<title>Node10</title>
<g id="a_Node000010"><a xlink:title=" ">
<polygon fill="#e0e0e0" stroke="#999999" points="368.5,-19 315.5,-19 315.5,0 368.5,0 368.5,-19"/>
<text text-anchor="middle" x="342" y="-7" font-family="Helvetica,sans-Serif" font-size="10.00">string.h</text>
</a>
</g>
</g>
<!-- Node7&#45;&gt;Node10 -->
<g id="edge11_Node000007_Node000010" class="edge">
<title>Node7&#45;&gt;Node10</title>
<g id="a_edge11_Node000007_Node000010"><a xlink:title=" ">
<path fill="none" stroke="#63b8ff" d="M284.09,-54.98C294.49,-47 310.26,-34.88 322.72,-25.31"/>
<polygon fill="#63b8ff" stroke="#63b8ff" points="324.91,-28.04 330.71,-19.17 320.65,-22.49 324.91,-28.04"/>
</a>
</g>
</g>
<!-- Node11 -->
<g id="Node000011" class="node">
<title>Node11</title>
<g id="a_Node000011"><a xlink:title=" ">
<polygon fill="#e0e0e0" stroke="#999999" points="297,-19 249,-19 249,0 297,0 297,-19"/>
<text text-anchor="middle" x="273" y="-7" font-family="Helvetica,sans-Serif" font-size="10.00">time.h</text>
</a>
</g>
</g>
<!-- Node7&#45;&gt;Node11 -->
<g id="edge12_Node000007_Node000011" class="edge">
<title>Node7&#45;&gt;Node11</title>
<g id="a_edge12_Node000007_Node000011"><a xlink:title=" ">
<path fill="none" stroke="#63b8ff" d="M273,-54.75C273,-47.8 273,-37.85 273,-29.13"/>
<polygon fill="#63b8ff" stroke="#63b8ff" points="276.5,-29.09 273,-19.09 269.5,-29.09 276.5,-29.09"/>
</a>
</g>
</g>
<!-- Node12&#45;&gt;Node10 -->
<g id="edge16_Node000012_Node000010" class="edge">
<title>Node12&#45;&gt;Node10</title>
<g id="a_edge16_Node000012_Node000010"><a xlink:title=" ">
<path fill="none" stroke="#63b8ff" d="M403.27,-54.98C392.27,-47 375.58,-34.88 362.4,-25.31"/>
<polygon fill="#63b8ff" stroke="#63b8ff" points="364.09,-22.21 353.94,-19.17 359.98,-27.88 364.09,-22.21"/>
</a>
</g>
</g>
<!-- Node12&#45;&gt;Node13 -->
<g id="edge14_Node000012_Node000013" class="edge">
<title>Node12&#45;&gt;Node13</title>
<g id="a_edge14_Node000012_Node000013"><a xlink:title=" ">
<path fill="none" stroke="#63b8ff" d="M439.1,-54.98C463.88,-46.23 502.7,-32.51 530.69,-22.62"/>
<polygon fill="#63b8ff" stroke="#63b8ff" points="532.2,-25.8 540.46,-19.17 529.87,-19.2 532.2,-25.8"/>
</a>
</g>
</g>
<!-- Node12&#45;&gt;Node14 -->
<g id="edge15_Node000012_Node000014" class="edge">
<title>Node12&#45;&gt;Node14</title>
<g id="a_edge15_Node000012_Node000014"><a xlink:title=" ">
<path fill="none" stroke="#63b8ff" d="M415,-54.75C415,-47.8 415,-37.85 415,-29.13"/>
<polygon fill="#63b8ff" stroke="#63b8ff" points="418.5,-29.09 415,-19.09 411.5,-29.09 418.5,-29.09"/>
</a>
</g>
</g>
<!-- Node15 -->
<g id="Node000015" class="node">
<title>Node15</title>
<g id="a_Node000015"><a xlink:title=" ">
<polygon fill="#e0e0e0" stroke="#999999" points="520.5,-19 461.5,-19 461.5,0 520.5,0 520.5,-19"/>
<text text-anchor="middle" x="491" y="-7" font-family="Helvetica,sans-Serif" font-size="10.00">strings.h</text>
</a>
</g>
</g>
<!-- Node12&#45;&gt;Node15 -->
<g id="edge17_Node000012_Node000015" class="edge">
<title>Node12&#45;&gt;Node15</title>
<g id="a_edge17_Node000012_Node000015"><a xlink:title=" ">
<path fill="none" stroke="#63b8ff" d="M427.21,-54.98C438.78,-46.92 456.38,-34.65 470.16,-25.03"/>
<polygon fill="#63b8ff" stroke="#63b8ff" points="472.37,-27.76 478.57,-19.17 468.36,-22.02 472.37,-27.76"/>
</a>
</g>
</g>
</g>
</svg>
