<?xml version="1.0" encoding="UTF-8" standalone="no"?>
<!DOCTYPE svg PUBLIC "-//W3C//DTD SVG 1.1//EN"
 "http://www.w3.org/Graphics/SVG/1.1/DTD/svg11.dtd">
<!-- Generated by graphviz version 2.43.0 (0)
 -->
<!-- Title: string_stream_copy_fast Pages: 1 -->
<svg width="235pt" height="45pt"
 viewBox="0.00 0.00 235.00 45.00" xmlns="http://www.w3.org/2000/svg" xmlns:xlink="http://www.w3.org/1999/xlink">
<g id="graph0" class="graph" transform="scale(1 1) rotate(0) translate(4 41)">
<title>string_stream_copy_fast</title>
<!-- Node1 -->
<g id="Node000001" class="node">
<title>Node1</title>
<g id="a_Node000001"><a xlink:title="Direct memory&#45;bound string to string copy without generic dispatch.">
<polygon fill="#999999" stroke="#666666" points="227,-19 90,-19 90,0 227,0 227,-19"/>
<text text-anchor="middle" x="158.5" y="-7" font-family="Helvetica,sans-Serif" font-size="10.00">string_stream_copy_fast</text>
</a>
</g>
</g>
<!-- Node1&#45;&gt;Node1 -->
<g id="edge3_Node000001_Node000001" class="edge">
<title>Node1&#45;&gt;Node1</title>
<g id="a_edge3_Node000001_Node000001"><a xlink:title=" ">
<path fill="none" stroke="#63b8ff" d="M182.68,-28.19C181.36,-33.2 173.3,-37 158.5,-37 135.39,-37 128.72,-27.73 138.46,-19.08"/>
<polygon fill="#63b8ff" stroke="#63b8ff" points="185.86,-26.73 178.54,-19.08 179.49,-29.63 185.86,-26.73"/>
</a>
</g>
</g>
<!-- Node2 -->
<g id="Node000002" class="node">
<title>Node2</title>
<g id="a_Node000002"><a xlink:href="stdstreams_8c.html#aeabdeab7517fe753ed97b438c7057b57" target="_top" xlink:title="Copy contents universally from reader into writer.">
<polygon fill="white" stroke="#666666" points="54,-19 0,-19 0,0 54,0 54,-19"/>
<text text-anchor="middle" x="27" y="-7" font-family="Helvetica,sans-Serif" font-size="10.00">io_copy</text>
</a>
</g>
</g>
<!-- Node1&#45;&gt;Node2 -->
<g id="edge1_Node000001_Node000002" class="edge">
<title>Node1&#45;&gt;Node2</title>
<g id="a_edge1_Node000001_Node000002"><a xlink:title=" ">
<path fill="none" stroke="#63b8ff" d="M79.45,-9.5C70.45,-9.5 61.82,-9.5 54.27,-9.5"/>
<polygon fill="#63b8ff" stroke="#63b8ff" points="79.72,-13 89.72,-9.5 79.72,-6 79.72,-13"/>
</a>
</g>
</g>
<!-- Node2&#45;&gt;Node2 -->
<g id="edge2_Node000002_Node000002" class="edge">
<title>Node2&#45;&gt;Node2</title>
<g id="a_edge2_Node000002_Node000002"><a xlink:title=" ">
<path fill="none" stroke="#63b8ff" d="M51.18,-28.19C49.86,-33.2 41.8,-37 27,-37 3.89,-37 -2.78,-27.73 6.96,-19.08"/>
<polygon fill="#63b8ff" stroke="#63b8ff" points="54.36,-26.73 47.04,-19.08 47.99,-29.63 54.36,-26.73"/>
</a>
</g>
</g>
</g>
</svg>
