<?xml version="1.0" encoding="UTF-8" standalone="no"?>
<!DOCTYPE svg PUBLIC "-//W3C//DTD SVG 1.1//EN"
 "http://www.w3.org/Graphics/SVG/1.1/DTD/svg11.dtd">
<!-- Generated by graphviz version 2.43.0 (0)
 -->
<!-- Title: include/stdstreams.h Pages: 1 -->
<svg width="515pt" height="192pt"
 viewBox="0.00 0.00 515.00 192.00" xmlns="http://www.w3.org/2000/svg" xmlns:xlink="http://www.w3.org/1999/xlink">
<g id="graph0" class="graph" transform="scale(1 1) rotate(0) translate(4 188)">
<title>include/stdstreams.h</title>
<!-- Node1 -->
<g id="Node000001" class="node">
<title>Node1</title>
<g id="a_Node000001"><a xlink:title="Standard stream handling utilities.">
<polygon fill="#999999" stroke="#666666" points="195.5,-184 76.5,-184 76.5,-165 195.5,-165 195.5,-184"/>
<text text-anchor="middle" x="136" y="-172" font-family="Helvetica,sans-Serif" font-size="10.00">include/stdstreams.h</text>
</a>
</g>
</g>
<!-- Node2 -->
<g id="Node000002" class="node">
<title>Node2</title>
<g id="a_Node000002"><a xlink:href="platform_8h.html" target="_top" xlink:title="Cross&#45;platform compatibility definitions.">
<polygon fill="white" stroke="#666666" points="70,-129 2,-129 2,-110 70,-110 70,-129"/>
<text text-anchor="middle" x="36" y="-117" font-family="Helvetica,sans-Serif" font-size="10.00">platform.h</text>
</a>
</g>
</g>
<!-- Node1&#45;&gt;Node2 -->
<g id="edge1_Node000001_Node000002" class="edge">
<title>Node1&#45;&gt;Node2</title>
<g id="a_edge1_Node000001_Node000002"><a xlink:title=" ">
<path fill="none" stroke="#63b8ff" d="M119.93,-164.98C104.14,-156.61 79.78,-143.7 61.37,-133.95"/>
<polygon fill="#63b8ff" stroke="#63b8ff" points="62.83,-130.76 52.36,-129.17 59.56,-136.95 62.83,-130.76"/>
</a>
</g>
</g>
<!-- Node3 -->
<g id="Node000003" class="node">
<title>Node3</title>
<g id="a_Node000003"><a xlink:title=" ">
<polygon fill="#e0e0e0" stroke="#999999" points="72,-74 0,-74 0,-55 72,-55 72,-74"/>
<text text-anchor="middle" x="36" y="-62" font-family="Helvetica,sans-Serif" font-size="10.00">sys/types.h</text>
</a>
</g>
</g>
<!-- Node1&#45;&gt;Node3 -->
<g id="edge5_Node000001_Node000003" class="edge">
<title>Node1&#45;&gt;Node3</title>
<g id="a_edge5_Node000001_Node000003"><a xlink:title=" ">
<path fill="none" stroke="#63b8ff" d="M128.36,-164.78C117.51,-152.46 96.97,-129.3 79,-110 70.12,-100.47 60.01,-89.98 51.82,-81.59"/>
<polygon fill="#63b8ff" stroke="#63b8ff" points="54.16,-78.97 44.66,-74.27 49.16,-83.87 54.16,-78.97"/>
</a>
</g>
</g>
<!-- Node4 -->
<g id="Node000004" class="node">
<title>Node4</title>
<g id="a_Node000004"><a xlink:title=" ">
<polygon fill="#e0e0e0" stroke="#999999" points="152,-74 90,-74 90,-55 152,-55 152,-74"/>
<text text-anchor="middle" x="121" y="-62" font-family="Helvetica,sans-Serif" font-size="10.00">stdbool.h</text>
</a>
</g>
</g>
<!-- Node1&#45;&gt;Node4 -->
<g id="edge3_Node000001_Node000004" class="edge">
<title>Node1&#45;&gt;Node4</title>
<g id="a_edge3_Node000001_Node000004"><a xlink:title=" ">
<path fill="none" stroke="#63b8ff" d="M134.77,-164.66C132.34,-147.17 126.88,-107.8 123.61,-84.27"/>
<polygon fill="#63b8ff" stroke="#63b8ff" points="127.05,-83.58 122.2,-74.16 120.11,-84.54 127.05,-83.58"/>
</a>
</g>
</g>
<!-- Node5 -->
<g id="Node000005" class="node">
<title>Node5</title>
<g id="a_Node000005"><a xlink:title=" ">
<polygon fill="#e0e0e0" stroke="#999999" points="507,-19 457,-19 457,0 507,0 507,-19"/>
<text text-anchor="middle" x="482" y="-7" font-family="Helvetica,sans-Serif" font-size="10.00">stdio.h</text>
</a>
</g>
</g>
<!-- Node1&#45;&gt;Node5 -->
<g id="edge4_Node000001_Node000005" class="edge">
<title>Node1&#45;&gt;Node5</title>
<g id="a_edge4_Node000001_Node000005"><a xlink:title=" ">
<path fill="none" stroke="#63b8ff" d="M164.12,-164.96C212.15,-149.84 312.41,-115.98 391,-74 417.58,-59.8 445.65,-39.25 463.46,-25.41"/>
<polygon fill="#63b8ff" stroke="#63b8ff" points="465.65,-28.15 471.34,-19.21 461.32,-22.65 465.65,-28.15"/>
</a>
</g>
</g>
<!-- Node6 -->
<g id="Node000006" class="node">
<title>Node6</title>
<g id="a_Node000006"><a xlink:href="cstr_8h.html" target="_top" xlink:title="High&#45;performance C string with Small String Optimization (SSO).">
<polygon fill="white" stroke="#666666" points="232.5,-129 189.5,-129 189.5,-110 232.5,-110 232.5,-129"/>
<text text-anchor="middle" x="211" y="-117" font-family="Helvetica,sans-Serif" font-size="10.00">cstr.h</text>
</a>
</g>
</g>
<!-- Node1&#45;&gt;Node6 -->
<g id="edge6_Node000001_Node000006" class="edge">
<title>Node1&#45;&gt;Node6</title>
<g id="a_edge6_Node000001_Node000006"><a xlink:title=" ">
<path fill="none" stroke="#63b8ff" d="M148.05,-164.98C159.46,-156.92 176.83,-144.65 190.43,-135.03"/>
<polygon fill="#63b8ff" stroke="#63b8ff" points="192.58,-137.8 198.73,-129.17 188.54,-132.08 192.58,-137.8"/>
</a>
</g>
</g>
<!-- Node2&#45;&gt;Node3 -->
<g id="edge2_Node000002_Node000003" class="edge">
<title>Node2&#45;&gt;Node3</title>
<g id="a_edge2_Node000002_Node000003"><a xlink:title=" ">
<path fill="none" stroke="#63b8ff" d="M36,-109.75C36,-102.8 36,-92.85 36,-84.13"/>
<polygon fill="#63b8ff" stroke="#63b8ff" points="39.5,-84.09 36,-74.09 32.5,-84.09 39.5,-84.09"/>
</a>
</g>
</g>
<!-- Node6&#45;&gt;Node4 -->
<g id="edge7_Node000006_Node000004" class="edge">
<title>Node6&#45;&gt;Node4</title>
<g id="a_edge7_Node000006_Node000004"><a xlink:title=" ">
<path fill="none" stroke="#63b8ff" d="M196.54,-109.98C182.58,-101.77 161.21,-89.18 144.75,-79.49"/>
<polygon fill="#63b8ff" stroke="#63b8ff" points="146.12,-76.23 135.72,-74.17 142.56,-82.26 146.12,-76.23"/>
</a>
</g>
</g>
<!-- Node7 -->
<g id="Node000007" class="node">
<title>Node7</title>
<g id="a_Node000007"><a xlink:title=" ">
<polygon fill="#e0e0e0" stroke="#999999" points="264,-74 208,-74 208,-55 264,-55 264,-74"/>
<text text-anchor="middle" x="236" y="-62" font-family="Helvetica,sans-Serif" font-size="10.00">stddef.h</text>
</a>
</g>
</g>
<!-- Node6&#45;&gt;Node7 -->
<g id="edge8_Node000006_Node000007" class="edge">
<title>Node6&#45;&gt;Node7</title>
<g id="a_edge8_Node000006_Node000007"><a xlink:title=" ">
<path fill="none" stroke="#63b8ff" d="M215.13,-109.75C218.51,-102.57 223.42,-92.18 227.62,-83.27"/>
<polygon fill="#63b8ff" stroke="#63b8ff" points="230.85,-84.63 231.95,-74.09 224.52,-81.64 230.85,-84.63"/>
</a>
</g>
</g>
<!-- Node8 -->
<g id="Node000008" class="node">
<title>Node8</title>
<g id="a_Node000008"><a xlink:title=" ">
<polygon fill="#e0e0e0" stroke="#999999" points="221.5,-19 168.5,-19 168.5,0 221.5,0 221.5,-19"/>
<text text-anchor="middle" x="195" y="-7" font-family="Helvetica,sans-Serif" font-size="10.00">stdint.h</text>
</a>
</g>
</g>
<!-- Node6&#45;&gt;Node8 -->
<g id="edge9_Node000006_Node000008" class="edge">
<title>Node6&#45;&gt;Node8</title>
<g id="a_edge9_Node000006_Node000008"><a xlink:title=" ">
<path fill="none" stroke="#63b8ff" d="M208.08,-109.75C205.25,-100.86 201.08,-86.63 199,-74 196.55,-59.15 195.58,-42.11 195.2,-29.43"/>
<polygon fill="#63b8ff" stroke="#63b8ff" points="198.7,-29.12 195,-19.19 191.7,-29.26 198.7,-29.12"/>
</a>
</g>
</g>
<!-- Node9 -->
<g id="Node000009" class="node">
<title>Node9</title>
<g id="a_Node000009"><a xlink:title=" ">
<polygon fill="#e0e0e0" stroke="#999999" points="300.5,-19 247.5,-19 247.5,0 300.5,0 300.5,-19"/>
<text text-anchor="middle" x="274" y="-7" font-family="Helvetica,sans-Serif" font-size="10.00">string.h</text>
</a>
</g>
</g>
<!-- Node6&#45;&gt;Node9 -->
<g id="edge10_Node000006_Node000009" class="edge">
<title>Node6&#45;&gt;Node9</title>
<g id="a_edge10_Node000006_Node000009"><a xlink:title=" ">
<path fill="none" stroke="#63b8ff" d="M231.44,-109.96C245.9,-102.71 264.22,-90.79 273,-74 280.19,-60.26 279.78,-42.46 277.95,-29.2"/>
<polygon fill="#63b8ff" stroke="#63b8ff" points="281.4,-28.56 276.22,-19.32 274.5,-29.77 281.4,-28.56"/>
</a>
</g>
</g>
<!-- Node10 -->
<g id="Node000010" class="node">
<title>Node10</title>
<g id="a_Node000010"><a xlink:href="macros_8h.html" target="_top" xlink:title="Collection of utility macros for assertions, memory management, math, and debugging.">
<polygon fill="white" stroke="#666666" points="382,-74 320,-74 320,-55 382,-55 382,-74"/>
<text text-anchor="middle" x="351" y="-62" font-family="Helvetica,sans-Serif" font-size="10.00">macros.h</text>
</a>
</g>
</g>
<!-- Node6&#45;&gt;Node10 -->
<g id="edge11_Node000006_Node000010" class="edge">
<title>Node6&#45;&gt;Node10</title>
<g id="a_edge11_Node000006_Node000010"><a xlink:title=" ">
<path fill="none" stroke="#63b8ff" d="M232.57,-110.33C255.56,-101.63 292.21,-87.75 318.66,-77.74"/>
<polygon fill="#63b8ff" stroke="#63b8ff" points="320.13,-80.93 328.25,-74.11 317.65,-74.38 320.13,-80.93"/>
</a>
</g>
</g>
<!-- Node10&#45;&gt;Node5 -->
<g id="edge13_Node000010_Node000005" class="edge">
<title>Node10&#45;&gt;Node5</title>
<g id="a_edge13_Node000010_Node000005"><a xlink:title=" ">
<path fill="none" stroke="#63b8ff" d="M372.05,-54.98C393.41,-46.34 426.7,-32.87 451.06,-23.02"/>
<polygon fill="#63b8ff" stroke="#63b8ff" points="452.61,-26.17 460.57,-19.17 449.99,-19.68 452.61,-26.17"/>
</a>
</g>
</g>
<!-- Node10&#45;&gt;Node8 -->
<g id="edge12_Node000010_Node000008" class="edge">
<title>Node10&#45;&gt;Node8</title>
<g id="a_edge12_Node000010_Node000008"><a xlink:title=" ">
<path fill="none" stroke="#63b8ff" d="M325.94,-54.98C299.97,-46.16 259.19,-32.31 230.04,-22.41"/>
<polygon fill="#63b8ff" stroke="#63b8ff" points="230.85,-18.99 220.26,-19.08 228.6,-25.61 230.85,-18.99"/>
</a>
</g>
</g>
<!-- Node10&#45;&gt;Node9 -->
<g id="edge15_Node000010_Node000009" class="edge">
<title>Node10&#45;&gt;Node9</title>
<g id="a_edge15_Node000010_Node000009"><a xlink:title=" ">
<path fill="none" stroke="#63b8ff" d="M338.63,-54.98C326.91,-46.92 309.08,-34.65 295.11,-25.03"/>
<polygon fill="#63b8ff" stroke="#63b8ff" points="296.82,-21.96 286.6,-19.17 292.85,-27.72 296.82,-21.96"/>
</a>
</g>
</g>
<!-- Node11 -->
<g id="Node000011" class="node">
<title>Node11</title>
<g id="a_Node000011"><a xlink:title=" ">
<polygon fill="#e0e0e0" stroke="#999999" points="438.5,-19 385.5,-19 385.5,0 438.5,0 438.5,-19"/>
<text text-anchor="middle" x="412" y="-7" font-family="Helvetica,sans-Serif" font-size="10.00">stdlib.h</text>
</a>
</g>
</g>
<!-- Node10&#45;&gt;Node11 -->
<g id="edge14_Node000010_Node000011" class="edge">
<title>Node10&#45;&gt;Node11</title>
<g id="a_edge14_Node000010_Node000011"><a xlink:title=" ">
<path fill="none" stroke="#63b8ff" d="M360.8,-54.98C369.82,-47.15 383.41,-35.34 394.32,-25.86"/>
<polygon fill="#63b8ff" stroke="#63b8ff" points="396.77,-28.37 402.02,-19.17 392.18,-23.09 396.77,-28.37"/>
</a>
</g>
</g>
<!-- Node12 -->
<g id="Node000012" class="node">
<title>Node12</title>
<g id="a_Node000012"><a xlink:title=" ">
<polygon fill="#e0e0e0" stroke="#999999" points="367,-19 319,-19 319,0 367,0 367,-19"/>
<text text-anchor="middle" x="343" y="-7" font-family="Helvetica,sans-Serif" font-size="10.00">time.h</text>
</a>
</g>
</g>
<!-- Node10&#45;&gt;Node12 -->
<g id="edge16_Node000010_Node000012" class="edge">
<title>Node10&#45;&gt;Node12</title>
<g id="a_edge16_Node000010_Node000012"><a xlink:title=" ">
<path fill="none" stroke="#63b8ff" d="M349.68,-54.75C348.63,-47.8 347.13,-37.85 345.81,-29.13"/>
<polygon fill="#63b8ff" stroke="#63b8ff" points="349.25,-28.45 344.3,-19.09 342.33,-29.5 349.25,-28.45"/>
</a>
</g>
</g>
</g>
</svg>
