<?xml version="1.0" encoding="UTF-8" standalone="no"?>
<!DOCTYPE svg PUBLIC "-//W3C//DTD SVG 1.1//EN"
 "http://www.w3.org/Graphics/SVG/1.1/DTD/svg11.dtd">
<!-- Generated by graphviz version 2.43.0 (0)
 -->
<!-- Title: include/stdstreams.h Pages: 1 -->
<svg width="562pt" height="192pt"
 viewBox="0.00 0.00 561.50 192.00" xmlns="http://www.w3.org/2000/svg" xmlns:xlink="http://www.w3.org/1999/xlink">
<g id="graph0" class="graph" transform="scale(1 1) rotate(0) translate(4 188)">
<title>include/stdstreams.h</title>
<!-- Node1 -->
<g id="Node000001" class="node">
<title>Node1</title>
<g id="a_Node000001"><a xlink:title="Standard stream handling utilities.">
<polygon fill="#999999" stroke="#666666" points="369.5,-184 250.5,-184 250.5,-165 369.5,-165 369.5,-184"/>
<text text-anchor="middle" x="310" y="-172" font-family="Helvetica,sans-Serif" font-size="10.00">include/stdstreams.h</text>
</a>
</g>
</g>
<!-- Node2 -->
<g id="Node000002" class="node">
<title>Node2</title>
<g id="a_Node000002"><a xlink:title=" ">
<polygon fill="#e0e0e0" stroke="#999999" points="191,-74 129,-74 129,-55 191,-55 191,-74"/>
<text text-anchor="middle" x="160" y="-62" font-family="Helvetica,sans-Serif" font-size="10.00">stdbool.h</text>
</a>
</g>
</g>
<!-- Node1&#45;&gt;Node2 -->
<g id="edge1_Node000001_Node000002" class="edge">
<title>Node1&#45;&gt;Node2</title>
<g id="a_edge1_Node000001_Node000002"><a xlink:title=" ">
<path fill="none" stroke="#63b8ff" d="M297.98,-164.84C272.31,-146.36 211.89,-102.86 180.2,-80.05"/>
<polygon fill="#63b8ff" stroke="#63b8ff" points="182.24,-77.2 172.08,-74.2 178.15,-82.88 182.24,-77.2"/>
</a>
</g>
</g>
<!-- Node3 -->
<g id="Node000003" class="node">
<title>Node3</title>
<g id="a_Node000003"><a xlink:title=" ">
<polygon fill="#e0e0e0" stroke="#999999" points="50,-19 0,-19 0,0 50,0 50,-19"/>
<text text-anchor="middle" x="25" y="-7" font-family="Helvetica,sans-Serif" font-size="10.00">stdio.h</text>
</a>
</g>
</g>
<!-- Node1&#45;&gt;Node3 -->
<g id="edge2_Node000001_Node000003" class="edge">
<title>Node1&#45;&gt;Node3</title>
<g id="a_edge2_Node000001_Node000003"><a xlink:title=" ">
<path fill="none" stroke="#63b8ff" d="M292.95,-164.89C275.38,-155.99 247.21,-141.65 223,-129 177.01,-104.96 164.52,-100.67 120,-74 93.56,-58.16 64.21,-38.15 45.23,-24.87"/>
<polygon fill="#63b8ff" stroke="#63b8ff" points="47.24,-22.01 37.05,-19.11 43.21,-27.73 47.24,-22.01"/>
</a>
</g>
</g>
<!-- Node4 -->
<g id="Node000004" class="node">
<title>Node4</title>
<g id="a_Node000004"><a xlink:title=" ">
<polygon fill="#e0e0e0" stroke="#999999" points="532,-74 460,-74 460,-55 532,-55 532,-74"/>
<text text-anchor="middle" x="496" y="-62" font-family="Helvetica,sans-Serif" font-size="10.00">sys/types.h</text>
</a>
</g>
</g>
<!-- Node1&#45;&gt;Node4 -->
<g id="edge3_Node000001_Node000004" class="edge">
<title>Node1&#45;&gt;Node4</title>
<g id="a_edge3_Node000001_Node000004"><a xlink:title=" ">
<path fill="none" stroke="#63b8ff" d="M324.91,-164.84C357.09,-146.16 433.32,-101.9 472.24,-79.3"/>
<polygon fill="#63b8ff" stroke="#63b8ff" points="474.39,-82.1 481.28,-74.05 470.88,-76.04 474.39,-82.1"/>
</a>
</g>
</g>
<!-- Node5 -->
<g id="Node000005" class="node">
<title>Node5</title>
<g id="a_Node000005"><a xlink:href="platform_8h.html" target="_top" xlink:title="Cross&#45;platform compatibility definitions.">
<polygon fill="white" stroke="#666666" points="511,-129 443,-129 443,-110 511,-110 511,-129"/>
<text text-anchor="middle" x="477" y="-117" font-family="Helvetica,sans-Serif" font-size="10.00">platform.h</text>
</a>
</g>
</g>
<!-- Node1&#45;&gt;Node5 -->
<g id="edge4_Node000001_Node000005" class="edge">
<title>Node1&#45;&gt;Node5</title>
<g id="a_edge4_Node000001_Node000005"><a xlink:title=" ">
<path fill="none" stroke="#63b8ff" d="M336.83,-164.98C364.87,-156.09 409.05,-142.07 440.3,-132.15"/>
<polygon fill="#63b8ff" stroke="#63b8ff" points="441.49,-135.44 449.96,-129.08 439.37,-128.77 441.49,-135.44"/>
</a>
</g>
</g>
<!-- Node6 -->
<g id="Node000006" class="node">
<title>Node6</title>
<g id="a_Node000006"><a xlink:href="cstr_8h.html" target="_top" xlink:title="C string utilities and safe string operations.">
<polygon fill="white" stroke="#666666" points="331.5,-129 288.5,-129 288.5,-110 331.5,-110 331.5,-129"/>
<text text-anchor="middle" x="310" y="-117" font-family="Helvetica,sans-Serif" font-size="10.00">cstr.h</text>
</a>
</g>
</g>
<!-- Node1&#45;&gt;Node6 -->
<g id="edge6_Node000001_Node000006" class="edge">
<title>Node1&#45;&gt;Node6</title>
<g id="a_edge6_Node000001_Node000006"><a xlink:title=" ">
<path fill="none" stroke="#63b8ff" d="M310,-164.75C310,-157.8 310,-147.85 310,-139.13"/>
<polygon fill="#63b8ff" stroke="#63b8ff" points="313.5,-139.09 310,-129.09 306.5,-139.09 313.5,-139.09"/>
</a>
</g>
</g>
<!-- Node5&#45;&gt;Node4 -->
<g id="edge5_Node000005_Node000004" class="edge">
<title>Node5&#45;&gt;Node4</title>
<g id="a_edge5_Node000005_Node000004"><a xlink:title=" ">
<path fill="none" stroke="#63b8ff" d="M480.14,-109.75C482.68,-102.65 486.36,-92.4 489.53,-83.56"/>
<polygon fill="#63b8ff" stroke="#63b8ff" points="492.84,-84.68 492.92,-74.09 486.25,-82.32 492.84,-84.68"/>
</a>
</g>
</g>
<!-- Node6&#45;&gt;Node2 -->
<g id="edge8_Node000006_Node000002" class="edge">
<title>Node6&#45;&gt;Node2</title>
<g id="a_edge8_Node000006_Node000002"><a xlink:title=" ">
<path fill="none" stroke="#63b8ff" d="M288.19,-110.79C263.4,-102.04 222.65,-87.64 193.75,-77.43"/>
<polygon fill="#63b8ff" stroke="#63b8ff" points="194.67,-74.04 184.07,-74.01 192.34,-80.64 194.67,-74.04"/>
</a>
</g>
</g>
<!-- Node7 -->
<g id="Node000007" class="node">
<title>Node7</title>
<g id="a_Node000007"><a xlink:title=" ">
<polygon fill="#e0e0e0" stroke="#999999" points="553.5,-19 500.5,-19 500.5,0 553.5,0 553.5,-19"/>
<text text-anchor="middle" x="527" y="-7" font-family="Helvetica,sans-Serif" font-size="10.00">ctype.h</text>
</a>
</g>
</g>
<!-- Node6&#45;&gt;Node7 -->
<g id="edge7_Node000006_Node000007" class="edge">
<title>Node6&#45;&gt;Node7</title>
<g id="a_edge7_Node000006_Node000007"><a xlink:title=" ">
<path fill="none" stroke="#63b8ff" d="M331.36,-109.86C352.18,-101.28 384.62,-87.5 412,-74 444.36,-58.05 480.65,-37.56 503.64,-24.24"/>
<polygon fill="#63b8ff" stroke="#63b8ff" points="505.47,-27.22 512.35,-19.17 501.94,-21.18 505.47,-27.22"/>
</a>
</g>
</g>
<!-- Node8 -->
<g id="Node000008" class="node">
<title>Node8</title>
<g id="a_Node000008"><a xlink:title=" ">
<polygon fill="#e0e0e0" stroke="#999999" points="405,-19 349,-19 349,0 405,0 405,-19"/>
<text text-anchor="middle" x="377" y="-7" font-family="Helvetica,sans-Serif" font-size="10.00">stddef.h</text>
</a>
</g>
</g>
<!-- Node6&#45;&gt;Node8 -->
<g id="edge9_Node000006_Node000008" class="edge">
<title>Node6&#45;&gt;Node8</title>
<g id="a_edge9_Node000006_Node000008"><a xlink:title=" ">
<path fill="none" stroke="#63b8ff" d="M311.13,-109.68C313.11,-96.83 318.05,-72.58 329,-55 336.06,-43.66 346.76,-33.35 356.27,-25.52"/>
<polygon fill="#63b8ff" stroke="#63b8ff" points="358.48,-28.23 364.19,-19.31 354.16,-22.72 358.48,-28.23"/>
</a>
</g>
</g>
<!-- Node9 -->
<g id="Node000009" class="node">
<title>Node9</title>
<g id="a_Node000009"><a xlink:href="macros_8h.html" target="_top" xlink:title="Collection of utility macros for assertions, memory management, math, and debugging.">
<polygon fill="white" stroke="#666666" points="271,-74 209,-74 209,-55 271,-55 271,-74"/>
<text text-anchor="middle" x="240" y="-62" font-family="Helvetica,sans-Serif" font-size="10.00">macros.h</text>
</a>
</g>
</g>
<!-- Node6&#45;&gt;Node9 -->
<g id="edge10_Node000006_Node000009" class="edge">
<title>Node6&#45;&gt;Node9</title>
<g id="a_edge10_Node000006_Node000009"><a xlink:title=" ">
<path fill="none" stroke="#63b8ff" d="M298.75,-109.98C288.2,-102 272.2,-89.88 259.56,-80.31"/>
<polygon fill="#63b8ff" stroke="#63b8ff" points="261.54,-77.42 251.45,-74.17 257.31,-83 261.54,-77.42"/>
</a>
</g>
</g>
<!-- Node14 -->
<g id="Node000014" class="node">
<title>Node14</title>
<g id="a_Node000014"><a xlink:href="str__utils_8h.html" target="_top" xlink:title="String utility functions for manipulation and processing.">
<polygon fill="white" stroke="#666666" points="403.5,-74 338.5,-74 338.5,-55 403.5,-55 403.5,-74"/>
<text text-anchor="middle" x="371" y="-62" font-family="Helvetica,sans-Serif" font-size="10.00">str_utils.h</text>
</a>
</g>
</g>
<!-- Node6&#45;&gt;Node14 -->
<g id="edge16_Node000006_Node000014" class="edge">
<title>Node6&#45;&gt;Node14</title>
<g id="a_edge16_Node000006_Node000014"><a xlink:title=" ">
<path fill="none" stroke="#63b8ff" d="M319.8,-109.98C328.82,-102.15 342.41,-90.34 353.32,-80.86"/>
<polygon fill="#63b8ff" stroke="#63b8ff" points="355.77,-83.37 361.02,-74.17 351.18,-78.09 355.77,-83.37"/>
</a>
</g>
</g>
<!-- Node9&#45;&gt;Node3 -->
<g id="edge12_Node000009_Node000003" class="edge">
<title>Node9&#45;&gt;Node3</title>
<g id="a_edge12_Node000009_Node000003"><a xlink:title=" ">
<path fill="none" stroke="#63b8ff" d="M208.92,-55.9C174.83,-47.55 118.23,-33.67 60.31,-19.32"/>
<polygon fill="#63b8ff" stroke="#63b8ff" points="60.8,-15.83 50.25,-16.82 59.11,-22.63 60.8,-15.83"/>
</a>
</g>
</g>
<!-- Node10 -->
<g id="Node000010" class="node">
<title>Node10</title>
<g id="a_Node000010"><a xlink:title=" ">
<polygon fill="#e0e0e0" stroke="#999999" points="121.5,-19 68.5,-19 68.5,0 121.5,0 121.5,-19"/>
<text text-anchor="middle" x="95" y="-7" font-family="Helvetica,sans-Serif" font-size="10.00">stdint.h</text>
</a>
</g>
</g>
<!-- Node9&#45;&gt;Node10 -->
<g id="edge11_Node000009_Node000010" class="edge">
<title>Node9&#45;&gt;Node10</title>
<g id="a_edge11_Node000009_Node000010"><a xlink:title=" ">
<path fill="none" stroke="#63b8ff" d="M216.7,-54.98C192.75,-46.23 155.22,-32.51 128.17,-22.62"/>
<polygon fill="#63b8ff" stroke="#63b8ff" points="129.31,-19.32 118.72,-19.17 126.91,-25.89 129.31,-19.32"/>
</a>
</g>
</g>
<!-- Node11 -->
<g id="Node000011" class="node">
<title>Node11</title>
<g id="a_Node000011"><a xlink:title=" ">
<polygon fill="#e0e0e0" stroke="#999999" points="192.5,-19 139.5,-19 139.5,0 192.5,0 192.5,-19"/>
<text text-anchor="middle" x="166" y="-7" font-family="Helvetica,sans-Serif" font-size="10.00">stdlib.h</text>
</a>
</g>
</g>
<!-- Node9&#45;&gt;Node11 -->
<g id="edge13_Node000009_Node000011" class="edge">
<title>Node9&#45;&gt;Node11</title>
<g id="a_edge13_Node000009_Node000011"><a xlink:title=" ">
<path fill="none" stroke="#63b8ff" d="M228.11,-54.98C216.85,-46.92 199.71,-34.65 186.29,-25.03"/>
<polygon fill="#63b8ff" stroke="#63b8ff" points="188.27,-22.15 178.11,-19.17 184.2,-27.84 188.27,-22.15"/>
</a>
</g>
</g>
<!-- Node12 -->
<g id="Node000012" class="node">
<title>Node12</title>
<g id="a_Node000012"><a xlink:title=" ">
<polygon fill="#e0e0e0" stroke="#999999" points="330.5,-19 277.5,-19 277.5,0 330.5,0 330.5,-19"/>
<text text-anchor="middle" x="304" y="-7" font-family="Helvetica,sans-Serif" font-size="10.00">string.h</text>
</a>
</g>
</g>
<!-- Node9&#45;&gt;Node12 -->
<g id="edge14_Node000009_Node000012" class="edge">
<title>Node9&#45;&gt;Node12</title>
<g id="a_edge14_Node000009_Node000012"><a xlink:title=" ">
<path fill="none" stroke="#63b8ff" d="M250.28,-54.98C259.84,-47.07 274.28,-35.11 285.78,-25.58"/>
<polygon fill="#63b8ff" stroke="#63b8ff" points="288.06,-28.24 293.53,-19.17 283.6,-22.85 288.06,-28.24"/>
</a>
</g>
</g>
<!-- Node13 -->
<g id="Node000013" class="node">
<title>Node13</title>
<g id="a_Node000013"><a xlink:title=" ">
<polygon fill="#e0e0e0" stroke="#999999" points="259,-19 211,-19 211,0 259,0 259,-19"/>
<text text-anchor="middle" x="235" y="-7" font-family="Helvetica,sans-Serif" font-size="10.00">time.h</text>
</a>
</g>
</g>
<!-- Node9&#45;&gt;Node13 -->
<g id="edge15_Node000009_Node000013" class="edge">
<title>Node9&#45;&gt;Node13</title>
<g id="a_edge15_Node000009_Node000013"><a xlink:title=" ">
<path fill="none" stroke="#63b8ff" d="M239.17,-54.75C238.52,-47.8 237.58,-37.85 236.76,-29.13"/>
<polygon fill="#63b8ff" stroke="#63b8ff" points="240.23,-28.72 235.81,-19.09 233.27,-29.37 240.23,-28.72"/>
</a>
</g>
</g>
<!-- Node14&#45;&gt;Node7 -->
<g id="edge17_Node000014_Node000007" class="edge">
<title>Node14&#45;&gt;Node7</title>
<g id="a_edge17_Node000014_Node000007"><a xlink:title=" ">
<path fill="none" stroke="#63b8ff" d="M396.06,-54.98C422.03,-46.16 462.81,-32.31 491.96,-22.41"/>
<polygon fill="#63b8ff" stroke="#63b8ff" points="493.4,-25.61 501.74,-19.08 491.15,-18.99 493.4,-25.61"/>
</a>
</g>
</g>
<!-- Node14&#45;&gt;Node8 -->
<g id="edge18_Node000014_Node000008" class="edge">
<title>Node14&#45;&gt;Node8</title>
<g id="a_edge18_Node000014_Node000008"><a xlink:title=" ">
<path fill="none" stroke="#63b8ff" d="M371.99,-54.75C372.78,-47.8 373.9,-37.85 374.89,-29.13"/>
<polygon fill="#63b8ff" stroke="#63b8ff" points="378.38,-29.42 376.03,-19.09 371.42,-28.63 378.38,-29.42"/>
</a>
</g>
</g>
<!-- Node14&#45;&gt;Node12 -->
<g id="edge19_Node000014_Node000012" class="edge">
<title>Node14&#45;&gt;Node12</title>
<g id="a_edge19_Node000014_Node000012"><a xlink:title=" ">
<path fill="none" stroke="#63b8ff" d="M360.24,-54.98C350.23,-47.07 335.11,-35.11 323.07,-25.58"/>
<polygon fill="#63b8ff" stroke="#63b8ff" points="324.97,-22.63 314.96,-19.17 320.63,-28.12 324.97,-22.63"/>
</a>
</g>
</g>
<!-- Node15 -->
<g id="Node000015" class="node">
<title>Node15</title>
<g id="a_Node000015"><a xlink:title=" ">
<polygon fill="#e0e0e0" stroke="#999999" points="482.5,-19 423.5,-19 423.5,0 482.5,0 482.5,-19"/>
<text text-anchor="middle" x="453" y="-7" font-family="Helvetica,sans-Serif" font-size="10.00">strings.h</text>
</a>
</g>
</g>
<!-- Node14&#45;&gt;Node15 -->
<g id="edge20_Node000014_Node000015" class="edge">
<title>Node14&#45;&gt;Node15</title>
<g id="a_edge20_Node000014_Node000015"><a xlink:title=" ">
<path fill="none" stroke="#63b8ff" d="M384.17,-54.98C396.77,-46.84 416,-34.41 430.94,-24.76"/>
<polygon fill="#63b8ff" stroke="#63b8ff" points="433.09,-27.54 439.59,-19.17 429.29,-21.66 433.09,-27.54"/>
</a>
</g>
</g>
</g>
</svg>
