<?xml version="1.0" encoding="UTF-8" standalone="no"?>
<!DOCTYPE svg PUBLIC "-//W3C//DTD SVG 1.1//EN"
 "http://www.w3.org/Graphics/SVG/1.1/DTD/svg11.dtd">
<!-- Generated by graphviz version 2.43.0 (0)
 -->
<!-- Title: getpassword Pages: 1 -->
<svg width="179pt" height="45pt"
 viewBox="0.00 0.00 179.00 45.00" xmlns="http://www.w3.org/2000/svg" xmlns:xlink="http://www.w3.org/1999/xlink">
<g id="graph0" class="graph" transform="scale(1 1) rotate(0) translate(4 41)">
<title>getpassword</title>
<!-- Node1 -->
<g id="Node000001" class="node">
<title>Node1</title>
<g id="a_Node000001"><a xlink:title="Read a password from the terminal with echo disabled.">
<polygon fill="#999999" stroke="#666666" points="79,-19 0,-19 0,0 79,0 79,-19"/>
<text text-anchor="middle" x="39.5" y="-7" font-family="Helvetica,sans-Serif" font-size="10.00">getpassword</text>
</a>
</g>
</g>
<!-- Node1&#45;&gt;Node1 -->
<g id="edge1_Node000001_Node000001" class="edge">
<title>Node1&#45;&gt;Node1</title>
<g id="a_edge1_Node000001_Node000001"><a xlink:title=" ">
<path fill="none" stroke="#63b8ff" d="M23.78,-19.08C16.13,-27.73 21.37,-37 39.5,-37 50.55,-37 56.81,-33.56 58.28,-28.91"/>
<polygon fill="#63b8ff" stroke="#63b8ff" points="61.54,-27.59 55.22,-19.08 54.85,-29.67 61.54,-27.59"/>
</a>
</g>
</g>
<!-- Node2 -->
<g id="Node000002" class="node">
<title>Node2</title>
<g id="a_Node000002"><a xlink:href="stdstreams_8c.html#a6f8bb223107cfcf5dcd90b84363c760d" target="_top" xlink:title="Read a line from stdin, optionally printing a prompt first.">
<polygon fill="white" stroke="#666666" points="171,-19 115,-19 115,0 171,0 171,-19"/>
<text text-anchor="middle" x="143" y="-7" font-family="Helvetica,sans-Serif" font-size="10.00">readline</text>
</a>
</g>
</g>
<!-- Node1&#45;&gt;Node2 -->
<g id="edge2_Node000001_Node000002" class="edge">
<title>Node1&#45;&gt;Node2</title>
<g id="a_edge2_Node000001_Node000002"><a xlink:title=" ">
<path fill="none" stroke="#63b8ff" d="M79.16,-9.5C87.51,-9.5 96.33,-9.5 104.63,-9.5"/>
<polygon fill="#63b8ff" stroke="#63b8ff" points="104.79,-13 114.79,-9.5 104.79,-6 104.79,-13"/>
</a>
</g>
</g>
<!-- Node2&#45;&gt;Node2 -->
<g id="edge3_Node000002_Node000002" class="edge">
<title>Node2&#45;&gt;Node2</title>
<g id="a_edge3_Node000002_Node000002"><a xlink:title=" ">
<path fill="none" stroke="#63b8ff" d="M127.28,-19.08C119.63,-27.73 124.87,-37 143,-37 154.05,-37 160.31,-33.56 161.78,-28.91"/>
<polygon fill="#63b8ff" stroke="#63b8ff" points="165.04,-27.59 158.72,-19.08 158.35,-29.67 165.04,-27.59"/>
</a>
</g>
</g>
</g>
</svg>
