<?xml version="1.0" encoding="UTF-8" standalone="no"?>
<!DOCTYPE svg PUBLIC "-//W3C//DTD SVG 1.1//EN"
 "http://www.w3.org/Graphics/SVG/1.1/DTD/svg11.dtd">
<!-- Generated by graphviz version 2.43.0 (0)
 -->
<!-- Title: include/str_utils.h Pages: 1 -->
<svg width="595pt" height="192pt"
 viewBox="0.00 0.00 595.00 192.00" xmlns="http://www.w3.org/2000/svg" xmlns:xlink="http://www.w3.org/1999/xlink">
<g id="graph0" class="graph" transform="scale(1 1) rotate(0) translate(4 188)">
<title>include/str_utils.h</title>
<!-- Node1 -->
<g id="Node000001" class="node">
<title>Node1</title>
<g id="a_Node000001"><a xlink:title="String utility functions for manipulation and processing.">
<polygon fill="#999999" stroke="#666666" points="453,-184 350,-184 350,-165 453,-165 453,-184"/>
<text text-anchor="middle" x="401.5" y="-172" font-family="Helvetica,sans-Serif" font-size="10.00">include/str_utils.h</text>
</a>
</g>
</g>
<!-- Node2 -->
<g id="Node000002" class="node">
<title>Node2</title>
<g id="a_Node000002"><a xlink:href="cstr_8h.html" target="_top" xlink:title="C string utilities and safe string operations.">
<polygon fill="white" stroke="#666666" points="246,-129 165,-129 165,-110 246,-110 246,-129"/>
<text text-anchor="middle" x="205.5" y="-117" font-family="Helvetica,sans-Serif" font-size="10.00">include/cstr.h</text>
</a>
</g>
</g>
<!-- Node1&#45;&gt;Node2 -->
<g id="edge1_Node000001_Node000002" class="edge">
<title>Node1&#45;&gt;Node2</title>
<g id="a_edge1_Node000001_Node000002"><a xlink:title=" ">
<path fill="none" stroke="#63b8ff" d="M360.12,-162.31C323.45,-152.39 270.67,-138.12 237.24,-129.08"/>
<polygon fill="#63b8ff" stroke="#63b8ff" points="359.44,-165.75 370.01,-164.98 361.27,-159 359.44,-165.75"/>
</a>
</g>
</g>
<!-- Node4 -->
<g id="Node000004" class="node">
<title>Node4</title>
<g id="a_Node000004"><a xlink:href="solidc_8h.html" target="_top" xlink:title="Master header file that includes all SolidC library modules.">
<polygon fill="white" stroke="#666666" points="280.5,-19 188.5,-19 188.5,0 280.5,0 280.5,-19"/>
<text text-anchor="middle" x="234.5" y="-7" font-family="Helvetica,sans-Serif" font-size="10.00">include/solidc.h</text>
</a>
</g>
</g>
<!-- Node1&#45;&gt;Node4 -->
<g id="edge9_Node000001_Node000004" class="edge">
<title>Node1&#45;&gt;Node4</title>
<g id="a_edge9_Node000001_Node000004"><a xlink:title=" ">
<path fill="none" stroke="#63b8ff" d="M395.52,-155.49C385.44,-126.08 364.68,-69.52 349.5,-55 330.16,-36.5 302.29,-25.46 278.83,-19"/>
<polygon fill="#63b8ff" stroke="#63b8ff" points="392.2,-156.62 398.72,-164.98 398.84,-154.38 392.2,-156.62"/>
</a>
</g>
</g>
<!-- Node8 -->
<g id="Node000008" class="node">
<title>Node8</title>
<g id="a_Node000008"><a xlink:href="dotenv_8c_source.html" target="_top" xlink:title=" ">
<polygon fill="white" stroke="#666666" points="472,-129 397,-129 397,-110 472,-110 472,-129"/>
<text text-anchor="middle" x="434.5" y="-117" font-family="Helvetica,sans-Serif" font-size="10.00">src/dotenv.c</text>
</a>
</g>
</g>
<!-- Node1&#45;&gt;Node8 -->
<g id="edge10_Node000001_Node000008" class="edge">
<title>Node1&#45;&gt;Node8</title>
<g id="a_edge10_Node000001_Node000008"><a xlink:title=" ">
<path fill="none" stroke="#63b8ff" d="M412.33,-156.1C417.97,-147.04 424.62,-136.37 429.15,-129.09"/>
<polygon fill="#63b8ff" stroke="#63b8ff" points="409.26,-154.41 406.95,-164.75 415.21,-158.11 409.26,-154.41"/>
</a>
</g>
</g>
<!-- Node9 -->
<g id="Node000009" class="node">
<title>Node9</title>
<g id="a_Node000009"><a xlink:href="str__to__num_8c_source.html" target="_top" xlink:title=" ">
<polygon fill="white" stroke="#666666" points="587,-129 490,-129 490,-110 587,-110 587,-129"/>
<text text-anchor="middle" x="538.5" y="-117" font-family="Helvetica,sans-Serif" font-size="10.00">src/str_to_num.c</text>
</a>
</g>
</g>
<!-- Node1&#45;&gt;Node9 -->
<g id="edge11_Node000001_Node000009" class="edge">
<title>Node1&#45;&gt;Node9</title>
<g id="a_edge11_Node000001_Node000009"><a xlink:title=" ">
<path fill="none" stroke="#63b8ff" d="M433.06,-161.29C458.45,-151.47 493.5,-137.91 516.09,-129.17"/>
<polygon fill="#63b8ff" stroke="#63b8ff" points="431.58,-158.11 423.51,-164.98 434.1,-164.64 431.58,-158.11"/>
</a>
</g>
</g>
<!-- Node3 -->
<g id="Node000003" class="node">
<title>Node3</title>
<g id="a_Node000003"><a xlink:href="flags_8h.html" target="_top" xlink:title="Command&#45;line flag parsing library.">
<polygon fill="white" stroke="#666666" points="340,-74 253,-74 253,-55 340,-55 340,-74"/>
<text text-anchor="middle" x="296.5" y="-62" font-family="Helvetica,sans-Serif" font-size="10.00">include/flags.h</text>
</a>
</g>
</g>
<!-- Node2&#45;&gt;Node3 -->
<g id="edge2_Node000002_Node000003" class="edge">
<title>Node2&#45;&gt;Node3</title>
<g id="a_edge2_Node000002_Node000003"><a xlink:title=" ">
<path fill="none" stroke="#63b8ff" d="M229.2,-104.7C245.78,-95.04 267.41,-82.44 281.61,-74.17"/>
<polygon fill="#63b8ff" stroke="#63b8ff" points="227,-101.93 220.12,-109.98 230.52,-107.98 227,-101.93"/>
</a>
</g>
</g>
<!-- Node2&#45;&gt;Node4 -->
<g id="edge4_Node000002_Node000004" class="edge">
<title>Node2&#45;&gt;Node4</title>
<g id="a_edge4_Node000002_Node000004"><a xlink:title=" ">
<path fill="none" stroke="#63b8ff" d="M185.88,-102.85C172.45,-90.14 158.57,-71.66 167.5,-55 176.74,-37.77 195.91,-26.08 211.39,-19.02"/>
<polygon fill="#63b8ff" stroke="#63b8ff" points="183.74,-105.63 193.56,-109.61 188.36,-100.38 183.74,-105.63"/>
</a>
</g>
</g>
<!-- Node5 -->
<g id="Node000005" class="node">
<title>Node5</title>
<g id="a_Node000005"><a xlink:href="stdstreams_8h.html" target="_top" xlink:title="Standard stream handling utilities.">
<polygon fill="white" stroke="#666666" points="119,-74 0,-74 0,-55 119,-55 119,-74"/>
<text text-anchor="middle" x="59.5" y="-62" font-family="Helvetica,sans-Serif" font-size="10.00">include/stdstreams.h</text>
</a>
</g>
</g>
<!-- Node2&#45;&gt;Node5 -->
<g id="edge5_Node000002_Node000005" class="edge">
<title>Node2&#45;&gt;Node5</title>
<g id="a_edge5_Node000002_Node000005"><a xlink:title=" ">
<path fill="none" stroke="#63b8ff" d="M172.58,-106.55C145.47,-96.71 107.67,-82.98 83.38,-74.17"/>
<polygon fill="#63b8ff" stroke="#63b8ff" points="171.45,-109.86 182.04,-109.98 173.84,-103.28 171.45,-109.86"/>
</a>
</g>
</g>
<!-- Node7 -->
<g id="Node000007" class="node">
<title>Node7</title>
<g id="a_Node000007"><a xlink:href="cstr_8c_source.html" target="_top" xlink:title=" ">
<polygon fill="white" stroke="#666666" points="235,-74 176,-74 176,-55 235,-55 235,-74"/>
<text text-anchor="middle" x="205.5" y="-62" font-family="Helvetica,sans-Serif" font-size="10.00">src/cstr.c</text>
</a>
</g>
</g>
<!-- Node2&#45;&gt;Node7 -->
<g id="edge8_Node000002_Node000007" class="edge">
<title>Node2&#45;&gt;Node7</title>
<g id="a_edge8_Node000002_Node000007"><a xlink:title=" ">
<path fill="none" stroke="#63b8ff" d="M205.5,-99.66C205.5,-90.93 205.5,-80.99 205.5,-74.09"/>
<polygon fill="#63b8ff" stroke="#63b8ff" points="202,-99.75 205.5,-109.75 209,-99.75 202,-99.75"/>
</a>
</g>
</g>
<!-- Node3&#45;&gt;Node4 -->
<g id="edge3_Node000003_Node000004" class="edge">
<title>Node3&#45;&gt;Node4</title>
<g id="a_edge3_Node000003_Node000004"><a xlink:title=" ">
<path fill="none" stroke="#63b8ff" d="M278.75,-48.32C267.69,-38.87 253.87,-27.06 244.64,-19.17"/>
<polygon fill="#63b8ff" stroke="#63b8ff" points="276.66,-51.15 286.54,-54.98 281.21,-45.83 276.66,-51.15"/>
</a>
</g>
</g>
<!-- Node5&#45;&gt;Node4 -->
<g id="edge6_Node000005_Node000004" class="edge">
<title>Node5&#45;&gt;Node4</title>
<g id="a_edge6_Node000005_Node000004"><a xlink:title=" ">
<path fill="none" stroke="#63b8ff" d="M97.29,-52.06C130,-42.15 176.57,-28.04 206.16,-19.08"/>
<polygon fill="#63b8ff" stroke="#63b8ff" points="96.17,-48.74 87.62,-54.98 98.2,-55.44 96.17,-48.74"/>
</a>
</g>
</g>
<!-- Node6 -->
<g id="Node000006" class="node">
<title>Node6</title>
<g id="a_Node000006"><a xlink:href="stdstreams_8c_source.html" target="_top" xlink:title=" ">
<polygon fill="white" stroke="#666666" points="108,-19 11,-19 11,0 108,0 108,-19"/>
<text text-anchor="middle" x="59.5" y="-7" font-family="Helvetica,sans-Serif" font-size="10.00">src/stdstreams.c</text>
</a>
</g>
</g>
<!-- Node5&#45;&gt;Node6 -->
<g id="edge7_Node000005_Node000006" class="edge">
<title>Node5&#45;&gt;Node6</title>
<g id="a_edge7_Node000005_Node000006"><a xlink:title=" ">
<path fill="none" stroke="#63b8ff" d="M59.5,-44.66C59.5,-35.93 59.5,-25.99 59.5,-19.09"/>
<polygon fill="#63b8ff" stroke="#63b8ff" points="56,-44.75 59.5,-54.75 63,-44.75 56,-44.75"/>
</a>
</g>
</g>
</g>
</svg>
