<?xml version="1.0" encoding="UTF-8" standalone="no"?>
<!DOCTYPE svg PUBLIC "-//W3C//DTD SVG 1.1//EN"
 "http://www.w3.org/Graphics/SVG/1.1/DTD/svg11.dtd">
<!-- Generated by graphviz version 2.43.0 (0)
 -->
<!-- Title: include/str.h Pages: 1 -->
<svg width="712pt" height="82pt"
 viewBox="0.00 0.00 712.00 82.00" xmlns="http://www.w3.org/2000/svg" xmlns:xlink="http://www.w3.org/1999/xlink">
<g id="graph0" class="graph" transform="scale(1 1) rotate(0) translate(4 78)">
<title>include/str.h</title>
<!-- Node1 -->
<g id="Node000001" class="node">
<title>Node1</title>
<g id="a_Node000001"><a xlink:title="Header&#45;only string utility library for C11.">
<polygon fill="#999999" stroke="#666666" points="392.5,-74 316.5,-74 316.5,-55 392.5,-55 392.5,-74"/>
<text text-anchor="middle" x="354.5" y="-62" font-family="Helvetica,sans-Serif" font-size="10.00">include/str.h</text>
</a>
</g>
</g>
<!-- Node2 -->
<g id="Node000002" class="node">
<title>Node2</title>
<g id="a_Node000002"><a xlink:title=" ">
<polygon fill="#e0e0e0" stroke="#999999" points="53,-19 0,-19 0,0 53,0 53,-19"/>
<text text-anchor="middle" x="26.5" y="-7" font-family="Helvetica,sans-Serif" font-size="10.00">ctype.h</text>
</a>
</g>
</g>
<!-- Node1&#45;&gt;Node2 -->
<g id="edge1_Node000001_Node000002" class="edge">
<title>Node1&#45;&gt;Node2</title>
<g id="a_edge1_Node000001_Node000002"><a xlink:title=" ">
<path fill="none" stroke="#63b8ff" d="M316.39,-58.8C262.17,-51.87 159.48,-37.87 63.1,-19.18"/>
<polygon fill="#63b8ff" stroke="#63b8ff" points="63.69,-15.73 53.2,-17.24 62.34,-22.6 63.69,-15.73"/>
</a>
</g>
</g>
<!-- Node3 -->
<g id="Node000003" class="node">
<title>Node3</title>
<g id="a_Node000003"><a xlink:title=" ">
<polygon fill="#e0e0e0" stroke="#999999" points="122,-19 71,-19 71,0 122,0 122,-19"/>
<text text-anchor="middle" x="96.5" y="-7" font-family="Helvetica,sans-Serif" font-size="10.00">errno.h</text>
</a>
</g>
</g>
<!-- Node1&#45;&gt;Node3 -->
<g id="edge2_Node000001_Node000003" class="edge">
<title>Node1&#45;&gt;Node3</title>
<g id="a_edge2_Node000001_Node000003"><a xlink:title=" ">
<path fill="none" stroke="#63b8ff" d="M316.33,-56.51C273.66,-48.56 202.28,-34.87 131.99,-19.26"/>
<polygon fill="#63b8ff" stroke="#63b8ff" points="132.61,-15.81 122.09,-17.04 131.08,-22.64 132.61,-15.81"/>
</a>
</g>
</g>
<!-- Node4 -->
<g id="Node000004" class="node">
<title>Node4</title>
<g id="a_Node000004"><a xlink:title=" ">
<polygon fill="#e0e0e0" stroke="#999999" points="193,-19 140,-19 140,0 193,0 193,-19"/>
<text text-anchor="middle" x="166.5" y="-7" font-family="Helvetica,sans-Serif" font-size="10.00">limits.h</text>
</a>
</g>
</g>
<!-- Node1&#45;&gt;Node4 -->
<g id="edge3_Node000001_Node000004" class="edge">
<title>Node1&#45;&gt;Node4</title>
<g id="a_edge3_Node000001_Node000004"><a xlink:title=" ">
<path fill="none" stroke="#63b8ff" d="M324.29,-54.98C291.32,-45.69 238.53,-30.81 203.2,-20.85"/>
<polygon fill="#63b8ff" stroke="#63b8ff" points="203.86,-17.39 193.28,-18.05 201.96,-24.13 203.86,-17.39"/>
</a>
</g>
</g>
<!-- Node5 -->
<g id="Node000005" class="node">
<title>Node5</title>
<g id="a_Node000005"><a xlink:title=" ">
<polygon fill="#e0e0e0" stroke="#999999" points="267.5,-19 211.5,-19 211.5,0 267.5,0 267.5,-19"/>
<text text-anchor="middle" x="239.5" y="-7" font-family="Helvetica,sans-Serif" font-size="10.00">stdarg.h</text>
</a>
</g>
</g>
<!-- Node1&#45;&gt;Node5 -->
<g id="edge4_Node000001_Node000005" class="edge">
<title>Node1&#45;&gt;Node5</title>
<g id="a_edge4_Node000001_Node000005"><a xlink:title=" ">
<path fill="none" stroke="#63b8ff" d="M336.02,-54.98C317.52,-46.46 288.82,-33.23 267.52,-23.41"/>
<polygon fill="#63b8ff" stroke="#63b8ff" points="268.86,-20.18 258.31,-19.17 265.93,-26.53 268.86,-20.18"/>
</a>
</g>
</g>
<!-- Node6 -->
<g id="Node000006" class="node">
<title>Node6</title>
<g id="a_Node000006"><a xlink:title=" ">
<polygon fill="#e0e0e0" stroke="#999999" points="347.5,-19 285.5,-19 285.5,0 347.5,0 347.5,-19"/>
<text text-anchor="middle" x="316.5" y="-7" font-family="Helvetica,sans-Serif" font-size="10.00">stdbool.h</text>
</a>
</g>
</g>
<!-- Node1&#45;&gt;Node6 -->
<g id="edge5_Node000001_Node000006" class="edge">
<title>Node1&#45;&gt;Node6</title>
<g id="a_edge5_Node000001_Node000006"><a xlink:title=" ">
<path fill="none" stroke="#63b8ff" d="M348.23,-54.75C342.91,-47.34 335.14,-36.5 328.62,-27.41"/>
<polygon fill="#63b8ff" stroke="#63b8ff" points="331.33,-25.18 322.66,-19.09 325.64,-29.26 331.33,-25.18"/>
</a>
</g>
</g>
<!-- Node7 -->
<g id="Node000007" class="node">
<title>Node7</title>
<g id="a_Node000007"><a xlink:title=" ">
<polygon fill="#e0e0e0" stroke="#999999" points="421.5,-19 365.5,-19 365.5,0 421.5,0 421.5,-19"/>
<text text-anchor="middle" x="393.5" y="-7" font-family="Helvetica,sans-Serif" font-size="10.00">stddef.h</text>
</a>
</g>
</g>
<!-- Node1&#45;&gt;Node7 -->
<g id="edge6_Node000001_Node000007" class="edge">
<title>Node1&#45;&gt;Node7</title>
<g id="a_edge6_Node000001_Node000007"><a xlink:title=" ">
<path fill="none" stroke="#63b8ff" d="M360.94,-54.75C366.39,-47.34 374.36,-36.5 381.06,-27.41"/>
<polygon fill="#63b8ff" stroke="#63b8ff" points="384.07,-29.22 387.18,-19.09 378.43,-25.07 384.07,-29.22"/>
</a>
</g>
</g>
<!-- Node8 -->
<g id="Node000008" class="node">
<title>Node8</title>
<g id="a_Node000008"><a xlink:title=" ">
<polygon fill="#e0e0e0" stroke="#999999" points="493,-19 440,-19 440,0 493,0 493,-19"/>
<text text-anchor="middle" x="466.5" y="-7" font-family="Helvetica,sans-Serif" font-size="10.00">stdint.h</text>
</a>
</g>
</g>
<!-- Node1&#45;&gt;Node8 -->
<g id="edge7_Node000001_Node000008" class="edge">
<title>Node1&#45;&gt;Node8</title>
<g id="a_edge7_Node000001_Node000008"><a xlink:title=" ">
<path fill="none" stroke="#63b8ff" d="M372.49,-54.98C390.43,-46.5 418.22,-33.35 438.93,-23.54"/>
<polygon fill="#63b8ff" stroke="#63b8ff" points="440.64,-26.61 448.18,-19.17 437.64,-20.28 440.64,-26.61"/>
</a>
</g>
</g>
<!-- Node9 -->
<g id="Node000009" class="node">
<title>Node9</title>
<g id="a_Node000009"><a xlink:title=" ">
<polygon fill="#e0e0e0" stroke="#999999" points="561.5,-19 511.5,-19 511.5,0 561.5,0 561.5,-19"/>
<text text-anchor="middle" x="536.5" y="-7" font-family="Helvetica,sans-Serif" font-size="10.00">stdio.h</text>
</a>
</g>
</g>
<!-- Node1&#45;&gt;Node9 -->
<g id="edge8_Node000001_Node000009" class="edge">
<title>Node1&#45;&gt;Node9</title>
<g id="a_edge8_Node000001_Node000009"><a xlink:title=" ">
<path fill="none" stroke="#63b8ff" d="M383.74,-54.98C415.8,-45.65 467.21,-30.68 501.41,-20.72"/>
<polygon fill="#63b8ff" stroke="#63b8ff" points="502.81,-23.96 511.43,-17.8 500.85,-17.24 502.81,-23.96"/>
</a>
</g>
</g>
<!-- Node10 -->
<g id="Node000010" class="node">
<title>Node10</title>
<g id="a_Node000010"><a xlink:title=" ">
<polygon fill="#e0e0e0" stroke="#999999" points="633,-19 580,-19 580,0 633,0 633,-19"/>
<text text-anchor="middle" x="606.5" y="-7" font-family="Helvetica,sans-Serif" font-size="10.00">stdlib.h</text>
</a>
</g>
</g>
<!-- Node1&#45;&gt;Node10 -->
<g id="edge9_Node000001_Node000010" class="edge">
<title>Node1&#45;&gt;Node10</title>
<g id="a_edge9_Node000001_Node000010"><a xlink:title=" ">
<path fill="none" stroke="#63b8ff" d="M392.81,-55.95C434.02,-47.76 501.72,-34.08 569.75,-19.11"/>
<polygon fill="#63b8ff" stroke="#63b8ff" points="570.77,-22.47 579.78,-16.9 569.26,-15.64 570.77,-22.47"/>
</a>
</g>
</g>
<!-- Node11 -->
<g id="Node000011" class="node">
<title>Node11</title>
<g id="a_Node000011"><a xlink:title=" ">
<polygon fill="#e0e0e0" stroke="#999999" points="704,-19 651,-19 651,0 704,0 704,-19"/>
<text text-anchor="middle" x="677.5" y="-7" font-family="Helvetica,sans-Serif" font-size="10.00">string.h</text>
</a>
</g>
</g>
<!-- Node1&#45;&gt;Node11 -->
<g id="edge10_Node000001_Node000011" class="edge">
<title>Node1&#45;&gt;Node11</title>
<g id="a_edge10_Node000001_Node000011"><a xlink:title=" ">
<path fill="none" stroke="#63b8ff" d="M392.88,-58.63C446.36,-51.6 546.52,-37.62 640.81,-19.2"/>
<polygon fill="#63b8ff" stroke="#63b8ff" points="641.67,-22.6 650.8,-17.23 640.31,-15.73 641.67,-22.6"/>
</a>
</g>
</g>
</g>
</svg>
