<?xml version="1.0" encoding="UTF-8" standalone="no"?>
<!DOCTYPE svg PUBLIC "-//W3C//DTD SVG 1.1//EN"
 "http://www.w3.org/Graphics/SVG/1.1/DTD/svg11.dtd">
<!-- Generated by graphviz version 2.43.0 (0)
 -->
<!-- Title: include/str_utils.h Pages: 1 -->
<svg width="605pt" height="192pt"
 viewBox="0.00 0.00 604.50 192.00" xmlns="http://www.w3.org/2000/svg" xmlns:xlink="http://www.w3.org/1999/xlink">
<g id="graph0" class="graph" transform="scale(1 1) rotate(0) translate(4 188)">
<title>include/str_utils.h</title>
<!-- Node1 -->
<g id="Node000001" class="node">
<title>Node1</title>
<g id="a_Node000001"><a xlink:title="String utility functions for manipulation and processing.">
<polygon fill="#999999" stroke="#666666" points="429.5,-184 326.5,-184 326.5,-165 429.5,-165 429.5,-184"/>
<text text-anchor="middle" x="378" y="-172" font-family="Helvetica,sans-Serif" font-size="10.00">include/str_utils.h</text>
</a>
</g>
</g>
<!-- Node2 -->
<g id="Node000002" class="node">
<title>Node2</title>
<g id="a_Node000002"><a xlink:href="cstr_8h.html" target="_top" xlink:title="C string utilities and safe string operations.">
<polygon fill="white" stroke="#666666" points="225.5,-129 144.5,-129 144.5,-110 225.5,-110 225.5,-129"/>
<text text-anchor="middle" x="185" y="-117" font-family="Helvetica,sans-Serif" font-size="10.00">include/cstr.h</text>
</a>
</g>
</g>
<!-- Node1&#45;&gt;Node2 -->
<g id="edge1_Node000001_Node000002" class="edge">
<title>Node1&#45;&gt;Node2</title>
<g id="a_edge1_Node000001_Node000002"><a xlink:title=" ">
<path fill="none" stroke="#63b8ff" d="M337.25,-162.31C301.14,-152.39 249.17,-138.12 216.25,-129.08"/>
<polygon fill="#63b8ff" stroke="#63b8ff" points="336.42,-165.71 346.99,-164.98 338.28,-158.96 336.42,-165.71"/>
</a>
</g>
</g>
<!-- Node4 -->
<g id="Node000004" class="node">
<title>Node4</title>
<g id="a_Node000004"><a xlink:href="solidc_8h.html" target="_top" xlink:title="Master header file that includes all SolidC library modules.">
<polygon fill="white" stroke="#666666" points="92,-19 0,-19 0,0 92,0 92,-19"/>
<text text-anchor="middle" x="46" y="-7" font-family="Helvetica,sans-Serif" font-size="10.00">include/solidc.h</text>
</a>
</g>
</g>
<!-- Node1&#45;&gt;Node4 -->
<g id="edge10_Node000001_Node000004" class="edge">
<title>Node1&#45;&gt;Node4</title>
<g id="a_edge10_Node000001_Node000004"><a xlink:title=" ">
<path fill="none" stroke="#63b8ff" d="M316.15,-167.32C266.26,-161.12 194.79,-149.47 135,-129 84.79,-111.81 56.56,-119.36 29,-74 18.33,-56.45 31.07,-32.18 39.57,-19.33"/>
<polygon fill="#63b8ff" stroke="#63b8ff" points="315.8,-170.8 326.14,-168.52 316.63,-163.85 315.8,-170.8"/>
</a>
</g>
</g>
<!-- Node5 -->
<g id="Node000005" class="node">
<title>Node5</title>
<g id="a_Node000005"><a xlink:href="flags_8c.html" target="_top" xlink:title="Command&#45;line flag parsing library implementation.">
<polygon fill="white" stroke="#666666" points="374.5,-19 309.5,-19 309.5,0 374.5,0 374.5,-19"/>
<text text-anchor="middle" x="342" y="-7" font-family="Helvetica,sans-Serif" font-size="10.00">src/flags.c</text>
</a>
</g>
</g>
<!-- Node1&#45;&gt;Node5 -->
<g id="edge12_Node000001_Node000005" class="edge">
<title>Node1&#45;&gt;Node5</title>
<g id="a_edge12_Node000001_Node000005"><a xlink:title=" ">
<path fill="none" stroke="#63b8ff" d="M375.88,-154.76C372.99,-131.21 367.09,-89.69 358,-55 354.67,-42.29 349.25,-28.09 345.66,-19.22"/>
<polygon fill="#63b8ff" stroke="#63b8ff" points="372.42,-155.24 377.07,-164.76 379.37,-154.42 372.42,-155.24"/>
</a>
</g>
</g>
<!-- Node9 -->
<g id="Node000009" class="node">
<title>Node9</title>
<g id="a_Node000009"><a xlink:href="dotenv_8c_source.html" target="_top" xlink:title=" ">
<polygon fill="white" stroke="#666666" points="481.5,-129 406.5,-129 406.5,-110 481.5,-110 481.5,-129"/>
<text text-anchor="middle" x="444" y="-117" font-family="Helvetica,sans-Serif" font-size="10.00">src/dotenv.c</text>
</a>
</g>
</g>
<!-- Node1&#45;&gt;Node9 -->
<g id="edge11_Node000001_Node000009" class="edge">
<title>Node1&#45;&gt;Node9</title>
<g id="a_edge11_Node000001_Node000009"><a xlink:title=" ">
<path fill="none" stroke="#63b8ff" d="M396.55,-158.6C408.38,-149.11 423.29,-137.13 433.2,-129.17"/>
<polygon fill="#63b8ff" stroke="#63b8ff" points="394.21,-155.99 388.6,-164.98 398.59,-161.45 394.21,-155.99"/>
</a>
</g>
</g>
<!-- Node10 -->
<g id="Node000010" class="node">
<title>Node10</title>
<g id="a_Node000010"><a xlink:href="str__to__num_8c_source.html" target="_top" xlink:title=" ">
<polygon fill="white" stroke="#666666" points="596.5,-129 499.5,-129 499.5,-110 596.5,-110 596.5,-129"/>
<text text-anchor="middle" x="548" y="-117" font-family="Helvetica,sans-Serif" font-size="10.00">src/str_to_num.c</text>
</a>
</g>
</g>
<!-- Node1&#45;&gt;Node10 -->
<g id="edge13_Node000001_Node000010" class="edge">
<title>Node1&#45;&gt;Node10</title>
<g id="a_edge13_Node000001_Node000010"><a xlink:title=" ">
<path fill="none" stroke="#63b8ff" d="M415.12,-161.93C446.87,-152.03 491.85,-138.01 520.47,-129.08"/>
<polygon fill="#63b8ff" stroke="#63b8ff" points="413.82,-158.67 405.31,-164.98 415.9,-165.35 413.82,-158.67"/>
</a>
</g>
</g>
<!-- Node3 -->
<g id="Node000003" class="node">
<title>Node3</title>
<g id="a_Node000003"><a xlink:href="flags_8h.html" target="_top" xlink:title="Command&#45;line flag parsing library.">
<polygon fill="white" stroke="#666666" points="349.5,-74 262.5,-74 262.5,-55 349.5,-55 349.5,-74"/>
<text text-anchor="middle" x="306" y="-62" font-family="Helvetica,sans-Serif" font-size="10.00">include/flags.h</text>
</a>
</g>
</g>
<!-- Node2&#45;&gt;Node3 -->
<g id="edge2_Node000002_Node000003" class="edge">
<title>Node2&#45;&gt;Node3</title>
<g id="a_edge2_Node000002_Node000003"><a xlink:title=" ">
<path fill="none" stroke="#63b8ff" d="M213.77,-105.9C236.12,-96.11 266.52,-82.79 286.21,-74.17"/>
<polygon fill="#63b8ff" stroke="#63b8ff" points="212.2,-102.77 204.44,-109.98 215,-109.18 212.2,-102.77"/>
</a>
</g>
</g>
<!-- Node2&#45;&gt;Node4 -->
<g id="edge5_Node000002_Node000004" class="edge">
<title>Node2&#45;&gt;Node4</title>
<g id="a_edge5_Node000002_Node000004"><a xlink:title=" ">
<path fill="none" stroke="#63b8ff" d="M134.13,-117.55C101.26,-113.96 60.7,-103.3 39,-74 26.99,-57.78 35.59,-32.53 41.57,-19.28"/>
<polygon fill="#63b8ff" stroke="#63b8ff" points="134.22,-121.07 144.5,-118.48 134.85,-114.1 134.22,-121.07"/>
</a>
</g>
</g>
<!-- Node6 -->
<g id="Node000006" class="node">
<title>Node6</title>
<g id="a_Node000006"><a xlink:href="stdstreams_8h.html" target="_top" xlink:title="Standard stream handling utilities.">
<polygon fill="white" stroke="#666666" points="244.5,-74 125.5,-74 125.5,-55 244.5,-55 244.5,-74"/>
<text text-anchor="middle" x="185" y="-62" font-family="Helvetica,sans-Serif" font-size="10.00">include/stdstreams.h</text>
</a>
</g>
</g>
<!-- Node2&#45;&gt;Node6 -->
<g id="edge6_Node000002_Node000006" class="edge">
<title>Node2&#45;&gt;Node6</title>
<g id="a_edge6_Node000002_Node000006"><a xlink:title=" ">
<path fill="none" stroke="#63b8ff" d="M185,-99.66C185,-90.93 185,-80.99 185,-74.09"/>
<polygon fill="#63b8ff" stroke="#63b8ff" points="181.5,-99.75 185,-109.75 188.5,-99.75 181.5,-99.75"/>
</a>
</g>
</g>
<!-- Node8 -->
<g id="Node000008" class="node">
<title>Node8</title>
<g id="a_Node000008"><a xlink:href="cstr_8c_source.html" target="_top" xlink:title=" ">
<polygon fill="white" stroke="#666666" points="107.5,-74 48.5,-74 48.5,-55 107.5,-55 107.5,-74"/>
<text text-anchor="middle" x="78" y="-62" font-family="Helvetica,sans-Serif" font-size="10.00">src/cstr.c</text>
</a>
</g>
</g>
<!-- Node2&#45;&gt;Node8 -->
<g id="edge9_Node000002_Node000008" class="edge">
<title>Node2&#45;&gt;Node8</title>
<g id="a_edge9_Node000002_Node000008"><a xlink:title=" ">
<path fill="none" stroke="#63b8ff" d="M158.76,-105.5C139.07,-95.75 112.68,-82.68 95.5,-74.17"/>
<polygon fill="#63b8ff" stroke="#63b8ff" points="157.29,-108.68 167.81,-109.98 160.4,-102.41 157.29,-108.68"/>
</a>
</g>
</g>
<!-- Node3&#45;&gt;Node4 -->
<g id="edge3_Node000003_Node000004" class="edge">
<title>Node3&#45;&gt;Node4</title>
<g id="a_edge3_Node000003_Node000004"><a xlink:title=" ">
<path fill="none" stroke="#63b8ff" d="M254.2,-52.94C205.46,-43.01 133.39,-28.31 88.1,-19.08"/>
<polygon fill="#63b8ff" stroke="#63b8ff" points="253.73,-56.42 264.23,-54.98 255.13,-49.56 253.73,-56.42"/>
</a>
</g>
</g>
<!-- Node3&#45;&gt;Node5 -->
<g id="edge4_Node000003_Node000005" class="edge">
<title>Node3&#45;&gt;Node5</title>
<g id="a_edge4_Node000003_Node000005"><a xlink:title=" ">
<path fill="none" stroke="#63b8ff" d="M317.62,-46.39C323.82,-37.27 331.17,-26.45 336.17,-19.09"/>
<polygon fill="#63b8ff" stroke="#63b8ff" points="314.67,-44.51 311.94,-54.75 320.46,-48.44 314.67,-44.51"/>
</a>
</g>
</g>
<!-- Node6&#45;&gt;Node4 -->
<g id="edge7_Node000006_Node000004" class="edge">
<title>Node6&#45;&gt;Node4</title>
<g id="a_edge7_Node000006_Node000004"><a xlink:title=" ">
<path fill="none" stroke="#63b8ff" d="M153.32,-51.42C127.53,-41.59 91.76,-27.95 68.74,-19.17"/>
<polygon fill="#63b8ff" stroke="#63b8ff" points="152.08,-54.69 162.67,-54.98 154.57,-48.15 152.08,-54.69"/>
</a>
</g>
</g>
<!-- Node7 -->
<g id="Node000007" class="node">
<title>Node7</title>
<g id="a_Node000007"><a xlink:href="stdstreams_8c_source.html" target="_top" xlink:title=" ">
<polygon fill="white" stroke="#666666" points="233.5,-19 136.5,-19 136.5,0 233.5,0 233.5,-19"/>
<text text-anchor="middle" x="185" y="-7" font-family="Helvetica,sans-Serif" font-size="10.00">src/stdstreams.c</text>
</a>
</g>
</g>
<!-- Node6&#45;&gt;Node7 -->
<g id="edge8_Node000006_Node000007" class="edge">
<title>Node6&#45;&gt;Node7</title>
<g id="a_edge8_Node000006_Node000007"><a xlink:title=" ">
<path fill="none" stroke="#63b8ff" d="M185,-44.66C185,-35.93 185,-25.99 185,-19.09"/>
<polygon fill="#63b8ff" stroke="#63b8ff" points="181.5,-44.75 185,-54.75 188.5,-44.75 181.5,-44.75"/>
</a>
</g>
</g>
</g>
</svg>
