<?xml version="1.0" encoding="UTF-8" standalone="no"?>
<!DOCTYPE svg PUBLIC "-//W3C//DTD SVG 1.1//EN"
 "http://www.w3.org/Graphics/SVG/1.1/DTD/svg11.dtd">
<!-- Generated by graphviz version 2.43.0 (0)
 -->
<!-- Title: include/str_utils.h Pages: 1 -->
<svg width="702pt" height="192pt"
 viewBox="0.00 0.00 702.00 192.00" xmlns="http://www.w3.org/2000/svg" xmlns:xlink="http://www.w3.org/1999/xlink">
<g id="graph0" class="graph" transform="scale(1 1) rotate(0) translate(4 188)">
<title>include/str_utils.h</title>
<!-- Node1 -->
<g id="Node000001" class="node">
<title>Node1</title>
<g id="a_Node000001"><a xlink:title="String utility functions for manipulation and processing.">
<polygon fill="#999999" stroke="#666666" points="560,-184 457,-184 457,-165 560,-165 560,-184"/>
<text text-anchor="middle" x="508.5" y="-172" font-family="Helvetica,sans-Serif" font-size="10.00">include/str_utils.h</text>
</a>
</g>
</g>
<!-- Node2 -->
<g id="Node000002" class="node">
<title>Node2</title>
<g id="a_Node000002"><a xlink:href="cstr_8h.html" target="_top" xlink:title="C string utilities and safe string operations.">
<polygon fill="white" stroke="#666666" points="292,-129 211,-129 211,-110 292,-110 292,-129"/>
<text text-anchor="middle" x="251.5" y="-117" font-family="Helvetica,sans-Serif" font-size="10.00">include/cstr.h</text>
</a>
</g>
</g>
<!-- Node1&#45;&gt;Node2 -->
<g id="edge1_Node000001_Node000002" class="edge">
<title>Node1&#45;&gt;Node2</title>
<g id="a_edge1_Node000001_Node000002"><a xlink:title=" ">
<path fill="none" stroke="#63b8ff" d="M457.24,-162.93C408.76,-152.93 336.96,-138.12 292.26,-128.91"/>
<polygon fill="#63b8ff" stroke="#63b8ff" points="456.71,-166.39 467.21,-164.98 458.12,-159.54 456.71,-166.39"/>
</a>
</g>
</g>
<!-- Node4 -->
<g id="Node000004" class="node">
<title>Node4</title>
<g id="a_Node000004"><a xlink:href="solidc_8h.html" target="_top" xlink:title="Master header file that includes all SolidC library modules.">
<polygon fill="white" stroke="#666666" points="333.5,-19 241.5,-19 241.5,0 333.5,0 333.5,-19"/>
<text text-anchor="middle" x="287.5" y="-7" font-family="Helvetica,sans-Serif" font-size="10.00">include/solidc.h</text>
</a>
</g>
</g>
<!-- Node1&#45;&gt;Node4 -->
<g id="edge10_Node000001_Node000004" class="edge">
<title>Node1&#45;&gt;Node4</title>
<g id="a_edge10_Node000001_Node000004"><a xlink:title=" ">
<path fill="none" stroke="#63b8ff" d="M502.69,-155.3C492.86,-125.61 472.47,-68.65 456.5,-55 422.25,-25.72 370.87,-15.44 333.76,-11.96"/>
<polygon fill="#63b8ff" stroke="#63b8ff" points="499.38,-156.45 505.8,-164.88 506.04,-154.29 499.38,-156.45"/>
</a>
</g>
</g>
<!-- Node9 -->
<g id="Node000009" class="node">
<title>Node9</title>
<g id="a_Node000009"><a xlink:href="dotenv_8c_source.html" target="_top" xlink:title=" ">
<polygon fill="white" stroke="#666666" points="579,-129 504,-129 504,-110 579,-110 579,-129"/>
<text text-anchor="middle" x="541.5" y="-117" font-family="Helvetica,sans-Serif" font-size="10.00">src/dotenv.c</text>
</a>
</g>
</g>
<!-- Node1&#45;&gt;Node9 -->
<g id="edge11_Node000001_Node000009" class="edge">
<title>Node1&#45;&gt;Node9</title>
<g id="a_edge11_Node000001_Node000009"><a xlink:title=" ">
<path fill="none" stroke="#63b8ff" d="M519.33,-156.1C524.97,-147.04 531.62,-136.37 536.15,-129.09"/>
<polygon fill="#63b8ff" stroke="#63b8ff" points="516.26,-154.41 513.95,-164.75 522.21,-158.11 516.26,-154.41"/>
</a>
</g>
</g>
<!-- Node10 -->
<g id="Node000010" class="node">
<title>Node10</title>
<g id="a_Node000010"><a xlink:href="str__to__num_8c_source.html" target="_top" xlink:title=" ">
<polygon fill="white" stroke="#666666" points="694,-129 597,-129 597,-110 694,-110 694,-129"/>
<text text-anchor="middle" x="645.5" y="-117" font-family="Helvetica,sans-Serif" font-size="10.00">src/str_to_num.c</text>
</a>
</g>
</g>
<!-- Node1&#45;&gt;Node10 -->
<g id="edge12_Node000001_Node000010" class="edge">
<title>Node1&#45;&gt;Node10</title>
<g id="a_edge12_Node000001_Node000010"><a xlink:title=" ">
<path fill="none" stroke="#63b8ff" d="M540.06,-161.29C565.45,-151.47 600.5,-137.91 623.09,-129.17"/>
<polygon fill="#63b8ff" stroke="#63b8ff" points="538.58,-158.11 530.51,-164.98 541.1,-164.64 538.58,-158.11"/>
</a>
</g>
</g>
<!-- Node3 -->
<g id="Node000003" class="node">
<title>Node3</title>
<g id="a_Node000003"><a xlink:href="flags_8h.html" target="_top" xlink:title="Command&#45;line flag parsing library.">
<polygon fill="white" stroke="#666666" points="447,-74 360,-74 360,-55 447,-55 447,-74"/>
<text text-anchor="middle" x="403.5" y="-62" font-family="Helvetica,sans-Serif" font-size="10.00">include/flags.h</text>
</a>
</g>
</g>
<!-- Node2&#45;&gt;Node3 -->
<g id="edge2_Node000002_Node000003" class="edge">
<title>Node2&#45;&gt;Node3</title>
<g id="a_edge2_Node000002_Node000003"><a xlink:title=" ">
<path fill="none" stroke="#63b8ff" d="M285.43,-106.67C313.77,-96.79 353.52,-82.93 378.89,-74.08"/>
<polygon fill="#63b8ff" stroke="#63b8ff" points="284.21,-103.39 275.92,-109.98 286.52,-110 284.21,-103.39"/>
</a>
</g>
</g>
<!-- Node2&#45;&gt;Node4 -->
<g id="edge4_Node000002_Node000004" class="edge">
<title>Node2&#45;&gt;Node4</title>
<g id="a_edge4_Node000002_Node000004"><a xlink:title=" ">
<path fill="none" stroke="#63b8ff" d="M212.45,-106.54C183.58,-95.56 151.79,-77.58 167.5,-55 184.12,-31.11 215.16,-20.01 241.5,-14.88"/>
<polygon fill="#63b8ff" stroke="#63b8ff" points="211.46,-109.9 222.05,-109.99 213.83,-103.32 211.46,-109.9"/>
</a>
</g>
</g>
<!-- Node5 -->
<g id="Node000005" class="node">
<title>Node5</title>
<g id="a_Node000005"><a xlink:href="stdstreams_8h.html" target="_top" xlink:title="Standard stream handling utilities.">
<polygon fill="white" stroke="#666666" points="119,-74 0,-74 0,-55 119,-55 119,-74"/>
<text text-anchor="middle" x="59.5" y="-62" font-family="Helvetica,sans-Serif" font-size="10.00">include/stdstreams.h</text>
</a>
</g>
</g>
<!-- Node2&#45;&gt;Node5 -->
<g id="edge5_Node000002_Node000005" class="edge">
<title>Node2&#45;&gt;Node5</title>
<g id="a_edge5_Node000002_Node000005"><a xlink:title=" ">
<path fill="none" stroke="#63b8ff" d="M210.97,-107.31C175.04,-97.39 123.34,-83.12 90.59,-74.08"/>
<polygon fill="#63b8ff" stroke="#63b8ff" points="210.08,-110.7 220.65,-109.98 211.94,-103.95 210.08,-110.7"/>
</a>
</g>
</g>
<!-- Node7 -->
<g id="Node000007" class="node">
<title>Node7</title>
<g id="a_Node000007"><a xlink:href="cstr_8c_source.html" target="_top" xlink:title=" ">
<polygon fill="white" stroke="#666666" points="235,-74 176,-74 176,-55 235,-55 235,-74"/>
<text text-anchor="middle" x="205.5" y="-62" font-family="Helvetica,sans-Serif" font-size="10.00">src/cstr.c</text>
</a>
</g>
</g>
<!-- Node2&#45;&gt;Node7 -->
<g id="edge8_Node000002_Node000007" class="edge">
<title>Node2&#45;&gt;Node7</title>
<g id="a_edge8_Node000002_Node000007"><a xlink:title=" ">
<path fill="none" stroke="#63b8ff" d="M237.14,-101.96C229.13,-92.72 219.47,-81.6 212.95,-74.09"/>
<polygon fill="#63b8ff" stroke="#63b8ff" points="234.71,-104.49 243.9,-109.75 239.99,-99.9 234.71,-104.49"/>
</a>
</g>
</g>
<!-- Node8 -->
<g id="Node000008" class="node">
<title>Node8</title>
<g id="a_Node000008"><a xlink:href="csvparser_8c_source.html" target="_top" xlink:title=" ">
<polygon fill="white" stroke="#666666" points="342,-74 253,-74 253,-55 342,-55 342,-74"/>
<text text-anchor="middle" x="297.5" y="-62" font-family="Helvetica,sans-Serif" font-size="10.00">src/csvparser.c</text>
</a>
</g>
</g>
<!-- Node2&#45;&gt;Node8 -->
<g id="edge9_Node000002_Node000008" class="edge">
<title>Node2&#45;&gt;Node8</title>
<g id="a_edge9_Node000002_Node000008"><a xlink:title=" ">
<path fill="none" stroke="#63b8ff" d="M265.86,-101.96C273.87,-92.72 283.53,-81.6 290.05,-74.09"/>
<polygon fill="#63b8ff" stroke="#63b8ff" points="263.01,-99.9 259.1,-109.75 268.29,-104.49 263.01,-99.9"/>
</a>
</g>
</g>
<!-- Node3&#45;&gt;Node4 -->
<g id="edge3_Node000003_Node000004" class="edge">
<title>Node3&#45;&gt;Node4</title>
<g id="a_edge3_Node000003_Node000004"><a xlink:title=" ">
<path fill="none" stroke="#63b8ff" d="M375.63,-50.77C354.23,-40.99 325.26,-27.75 306.48,-19.17"/>
<polygon fill="#63b8ff" stroke="#63b8ff" points="374.31,-54.01 384.86,-54.98 377.22,-47.65 374.31,-54.01"/>
</a>
</g>
</g>
<!-- Node5&#45;&gt;Node4 -->
<g id="edge6_Node000005_Node000004" class="edge">
<title>Node5&#45;&gt;Node4</title>
<g id="a_edge6_Node000005_Node000004"><a xlink:title=" ">
<path fill="none" stroke="#63b8ff" d="M106,-52.69C148.72,-42.76 211.2,-28.24 250.58,-19.08"/>
<polygon fill="#63b8ff" stroke="#63b8ff" points="105.08,-49.31 96.13,-54.98 106.66,-56.13 105.08,-49.31"/>
</a>
</g>
</g>
<!-- Node6 -->
<g id="Node000006" class="node">
<title>Node6</title>
<g id="a_Node000006"><a xlink:href="stdstreams_8c_source.html" target="_top" xlink:title=" ">
<polygon fill="white" stroke="#666666" points="108,-19 11,-19 11,0 108,0 108,-19"/>
<text text-anchor="middle" x="59.5" y="-7" font-family="Helvetica,sans-Serif" font-size="10.00">src/stdstreams.c</text>
</a>
</g>
</g>
<!-- Node5&#45;&gt;Node6 -->
<g id="edge7_Node000005_Node000006" class="edge">
<title>Node5&#45;&gt;Node6</title>
<g id="a_edge7_Node000005_Node000006"><a xlink:title=" ">
<path fill="none" stroke="#63b8ff" d="M59.5,-44.66C59.5,-35.93 59.5,-25.99 59.5,-19.09"/>
<polygon fill="#63b8ff" stroke="#63b8ff" points="56,-44.75 59.5,-54.75 63,-44.75 56,-44.75"/>
</a>
</g>
</g>
</g>
</svg>
