<?xml version="1.0" encoding="UTF-8" standalone="no"?>
<!DOCTYPE svg PUBLIC "-//W3C//DTD SVG 1.1//EN"
 "http://www.w3.org/Graphics/SVG/1.1/DTD/svg11.dtd">
<!-- Generated by graphviz version 2.43.0 (0)
 -->
<!-- Title: include/str_utils.h Pages: 1 -->
<svg width="416pt" height="82pt"
 viewBox="0.00 0.00 415.50 82.00" xmlns="http://www.w3.org/2000/svg" xmlns:xlink="http://www.w3.org/1999/xlink">
<g id="graph0" class="graph" transform="scale(1 1) rotate(0) translate(4 78)">
<title>include/str_utils.h</title>
<!-- Node1 -->
<g id="Node000001" class="node">
<title>Node1</title>
<g id="a_Node000001"><a xlink:title="String utility functions for manipulation and processing.">
<polygon fill="#999999" stroke="#666666" points="256.5,-74 153.5,-74 153.5,-55 256.5,-55 256.5,-74"/>
<text text-anchor="middle" x="205" y="-62" font-family="Helvetica,sans-Serif" font-size="10.00">include/str_utils.h</text>
</a>
</g>
</g>
<!-- Node2 -->
<g id="Node000002" class="node">
<title>Node2</title>
<g id="a_Node000002"><a xlink:href="solidc_8h.html" target="_top" xlink:title="Master header file that includes all SolidC library modules.">
<polygon fill="white" stroke="#666666" points="92,-19 0,-19 0,0 92,0 92,-19"/>
<text text-anchor="middle" x="46" y="-7" font-family="Helvetica,sans-Serif" font-size="10.00">include/solidc.h</text>
</a>
</g>
</g>
<!-- Node1&#45;&gt;Node2 -->
<g id="edge1_Node000001_Node000002" class="edge">
<title>Node1&#45;&gt;Node2</title>
<g id="a_edge1_Node000001_Node000002"><a xlink:title=" ">
<path fill="none" stroke="#63b8ff" d="M169.9,-51.8C140.22,-41.91 98.4,-27.97 71.75,-19.08"/>
<polygon fill="#63b8ff" stroke="#63b8ff" points="168.86,-55.14 179.45,-54.98 171.07,-48.5 168.86,-55.14"/>
</a>
</g>
</g>
<!-- Node3 -->
<g id="Node000003" class="node">
<title>Node3</title>
<g id="a_Node000003"><a xlink:href="csvparser_8c_source.html" target="_top" xlink:title=" ">
<polygon fill="white" stroke="#666666" points="199.5,-19 110.5,-19 110.5,0 199.5,0 199.5,-19"/>
<text text-anchor="middle" x="155" y="-7" font-family="Helvetica,sans-Serif" font-size="10.00">src/csvparser.c</text>
</a>
</g>
</g>
<!-- Node1&#45;&gt;Node3 -->
<g id="edge2_Node000001_Node000003" class="edge">
<title>Node1&#45;&gt;Node3</title>
<g id="a_edge2_Node000001_Node000003"><a xlink:title=" ">
<path fill="none" stroke="#63b8ff" d="M189.66,-47.24C180.9,-37.95 170.26,-26.68 163.1,-19.09"/>
<polygon fill="#63b8ff" stroke="#63b8ff" points="187.34,-49.88 196.74,-54.75 192.43,-45.07 187.34,-49.88"/>
</a>
</g>
</g>
<!-- Node4 -->
<g id="Node000004" class="node">
<title>Node4</title>
<g id="a_Node000004"><a xlink:href="dotenv_8c_source.html" target="_top" xlink:title=" ">
<polygon fill="white" stroke="#666666" points="292.5,-19 217.5,-19 217.5,0 292.5,0 292.5,-19"/>
<text text-anchor="middle" x="255" y="-7" font-family="Helvetica,sans-Serif" font-size="10.00">src/dotenv.c</text>
</a>
</g>
</g>
<!-- Node1&#45;&gt;Node4 -->
<g id="edge3_Node000001_Node000004" class="edge">
<title>Node1&#45;&gt;Node4</title>
<g id="a_edge3_Node000001_Node000004"><a xlink:title=" ">
<path fill="none" stroke="#63b8ff" d="M220.34,-47.24C229.1,-37.95 239.74,-26.68 246.9,-19.09"/>
<polygon fill="#63b8ff" stroke="#63b8ff" points="217.57,-45.07 213.26,-54.75 222.66,-49.88 217.57,-45.07"/>
</a>
</g>
</g>
<!-- Node5 -->
<g id="Node000005" class="node">
<title>Node5</title>
<g id="a_Node000005"><a xlink:href="str__to__num_8c_source.html" target="_top" xlink:title=" ">
<polygon fill="white" stroke="#666666" points="407.5,-19 310.5,-19 310.5,0 407.5,0 407.5,-19"/>
<text text-anchor="middle" x="359" y="-7" font-family="Helvetica,sans-Serif" font-size="10.00">src/str_to_num.c</text>
</a>
</g>
</g>
<!-- Node1&#45;&gt;Node5 -->
<g id="edge4_Node000001_Node000005" class="edge">
<title>Node1&#45;&gt;Node5</title>
<g id="a_edge4_Node000001_Node000005"><a xlink:title=" ">
<path fill="none" stroke="#63b8ff" d="M239.38,-51.67C268.09,-41.79 308.36,-27.93 334.06,-19.08"/>
<polygon fill="#63b8ff" stroke="#63b8ff" points="238.06,-48.42 229.74,-54.98 240.34,-55.04 238.06,-48.42"/>
</a>
</g>
</g>
</g>
</svg>
