<?xml version="1.0" encoding="UTF-8" standalone="no"?>
<!DOCTYPE svg PUBLIC "-//W3C//DTD SVG 1.1//EN"
 "http://www.w3.org/Graphics/SVG/1.1/DTD/svg11.dtd">
<!-- Generated by graphviz version 2.43.0 (0)
 -->
<!-- Title: slist Pages: 1 -->
<svg width="117pt" height="104pt"
 viewBox="0.00 0.00 117.00 104.00" xmlns="http://www.w3.org/2000/svg" xmlns:xlink="http://www.w3.org/1999/xlink">
<g id="graph0" class="graph" transform="scale(1 1) rotate(0) translate(4 100)">
<title>slist</title>
<!-- Node1 -->
<g id="Node000001" class="node">
<title>Node1</title>
<g id="a_Node000001"><a xlink:title=" ">
<polygon fill="#999999" stroke="#666666" points="51.5,-19 14.5,-19 14.5,0 51.5,0 51.5,-19"/>
<text text-anchor="middle" x="33" y="-7" font-family="Helvetica,sans-Serif" font-size="10.00">slist</text>
</a>
</g>
</g>
<!-- Node2 -->
<g id="Node000002" class="node">
<title>Node2</title>
<g id="a_Node000002"><a xlink:href="structslist__node.html" target="_top" xlink:title=" ">
<polygon fill="white" stroke="#666666" points="66,-96 0,-96 0,-77 66,-77 66,-96"/>
<text text-anchor="middle" x="33" y="-84" font-family="Helvetica,sans-Serif" font-size="10.00">slist_node</text>
</a>
</g>
</g>
<!-- Node2&#45;&gt;Node1 -->
<g id="edge1_Node000001_Node000002" class="edge">
<title>Node2&#45;&gt;Node1</title>
<g id="a_edge1_Node000001_Node000002"><a xlink:title=" ">
<path fill="none" stroke="#9a32cd" stroke-dasharray="5,2" d="M33,-66.52C33,-51.24 33,-30.48 33,-19"/>
<polygon fill="#9a32cd" stroke="#9a32cd" points="29.5,-66.9 33,-76.9 36.5,-66.9 29.5,-66.9"/>
</a>
</g>
<text text-anchor="middle" x="47" y="-51" font-family="Helvetica,sans-Serif" font-size="10.00" fill="grey"> head</text>
<text text-anchor="middle" x="47" y="-40" font-family="Helvetica,sans-Serif" font-size="10.00" fill="grey">tail</text>
</g>
<!-- Node2&#45;&gt;Node2 -->
<g id="edge2_Node000002_Node000002" class="edge">
<title>Node2&#45;&gt;Node2</title>
<g id="a_edge2_Node000002_Node000002"><a xlink:title=" ">
<path fill="none" stroke="#9a32cd" stroke-dasharray="5,2" d="M76.3,-92.46C80.98,-91.32 84,-89.33 84,-86.5 84,-81.97 76.28,-79.6 66.35,-79.39"/>
<polygon fill="#9a32cd" stroke="#9a32cd" points="75.89,-88.98 66.35,-93.61 76.69,-95.94 75.89,-88.98"/>
</a>
</g>
<text text-anchor="middle" x="96.5" y="-84" font-family="Helvetica,sans-Serif" font-size="10.00" fill="grey"> next</text>
</g>
</g>
</svg>
