<?xml version="1.0" encoding="UTF-8" standalone="no"?>
<!DOCTYPE svg PUBLIC "-//W3C//DTD SVG 1.1//EN"
 "http://www.w3.org/Graphics/SVG/1.1/DTD/svg11.dtd">
<!-- Generated by graphviz version 2.43.0 (0)
 -->
<!-- Title: ML_Network Pages: 1 -->
<svg width="131pt" height="203pt"
 viewBox="0.00 0.00 130.50 203.00" xmlns="http://www.w3.org/2000/svg" xmlns:xlink="http://www.w3.org/1999/xlink">
<g id="graph0" class="graph" transform="scale(1 1) rotate(0) translate(4 199)">
<title>ML_Network</title>
<!-- Node1 -->
<g id="Node000001" class="node">
<title>Node1</title>
<g id="a_Node000001"><a xlink:title="A neural network composed of multiple layers.">
<polygon fill="#999999" stroke="#666666" points="97,-19 20,-19 20,0 97,0 97,-19"/>
<text text-anchor="middle" x="58.5" y="-7" font-family="Helvetica,sans-Serif" font-size="10.00">ML_Network</text>
</a>
</g>
</g>
<!-- Node2 -->
<g id="Node000002" class="node">
<title>Node2</title>
<g id="a_Node000002"><a xlink:href="structML__Layer.html" target="_top" xlink:title="Represents a single fully connected layer 4 inputs &#45;&gt; 4 outputs.">
<polygon fill="white" stroke="#666666" points="90,-85 27,-85 27,-66 90,-66 90,-85"/>
<text text-anchor="middle" x="58.5" y="-73" font-family="Helvetica,sans-Serif" font-size="10.00">ML_Layer</text>
</a>
</g>
</g>
<!-- Node2&#45;&gt;Node1 -->
<g id="edge1_Node000001_Node000002" class="edge">
<title>Node2&#45;&gt;Node1</title>
<g id="a_edge1_Node000001_Node000002"><a xlink:title=" ">
<path fill="none" stroke="#9a32cd" stroke-dasharray="5,2" d="M58.5,-55.58C58.5,-43.63 58.5,-28.72 58.5,-19.41"/>
<polygon fill="#9a32cd" stroke="#9a32cd" points="55,-55.87 58.5,-65.87 62,-55.87 55,-55.87"/>
</a>
</g>
<text text-anchor="middle" x="75.5" y="-40" font-family="Helvetica,sans-Serif" font-size="10.00" fill="grey"> layers</text>
</g>
<!-- Node3 -->
<g id="Node000003" class="node">
<title>Node3</title>
<g id="a_Node000003"><a xlink:href="structMat4.html" target="_top" xlink:title="A 4x4 matrix for 3D transformations.">
<polygon fill="white" stroke="#666666" points="41,-195 0,-195 0,-176 41,-176 41,-195"/>
<text text-anchor="middle" x="20.5" y="-183" font-family="Helvetica,sans-Serif" font-size="10.00">Mat4</text>
</a>
</g>
</g>
<!-- Node3&#45;&gt;Node2 -->
<g id="edge2_Node000002_Node000003" class="edge">
<title>Node3&#45;&gt;Node2</title>
<g id="a_edge2_Node000002_Node000003"><a xlink:title=" ">
<path fill="none" stroke="#9a32cd" stroke-dasharray="5,2" d="M16.16,-165.82C13.15,-148.51 11.3,-122.55 21.5,-103 25.52,-95.29 32.92,-89.32 40.05,-85.01"/>
<polygon fill="#9a32cd" stroke="#9a32cd" points="12.76,-166.69 18.19,-175.8 19.62,-165.3 12.76,-166.69"/>
</a>
</g>
<text text-anchor="middle" x="48" y="-133.5" font-family="Helvetica,sans-Serif" font-size="10.00" fill="grey"> d_weights</text>
<text text-anchor="middle" x="48" y="-122.5" font-family="Helvetica,sans-Serif" font-size="10.00" fill="grey">weights</text>
</g>
<!-- Node4 -->
<g id="Node000004" class="node">
<title>Node4</title>
<g id="a_Node000004"><a xlink:href="structVec4.html" target="_top" xlink:title="4D vector storage type (16 bytes, naturally aligned).">
<polygon fill="white" stroke="#666666" points="116.5,-195 76.5,-195 76.5,-176 116.5,-176 116.5,-195"/>
<text text-anchor="middle" x="96.5" y="-183" font-family="Helvetica,sans-Serif" font-size="10.00">Vec4</text>
</a>
</g>
</g>
<!-- Node4&#45;&gt;Node2 -->
<g id="edge3_Node000002_Node000004" class="edge">
<title>Node4&#45;&gt;Node2</title>
<g id="a_edge3_Node000002_Node000004"><a xlink:title=" ">
<path fill="none" stroke="#9a32cd" stroke-dasharray="5,2" d="M92.94,-165.47C89.42,-148.62 83.29,-123.59 74.5,-103 71.8,-96.67 67.8,-90.05 64.47,-85"/>
<polygon fill="#9a32cd" stroke="#9a32cd" points="89.58,-166.54 94.96,-175.67 96.45,-165.18 89.58,-166.54"/>
</a>
</g>
<text text-anchor="middle" x="106.5" y="-150" font-family="Helvetica,sans-Serif" font-size="10.00" fill="grey"> bias</text>
<text text-anchor="middle" x="106.5" y="-139" font-family="Helvetica,sans-Serif" font-size="10.00" fill="grey">d_bias</text>
<text text-anchor="middle" x="106.5" y="-128" font-family="Helvetica,sans-Serif" font-size="10.00" fill="grey">input</text>
<text text-anchor="middle" x="106.5" y="-117" font-family="Helvetica,sans-Serif" font-size="10.00" fill="grey">output</text>
<text text-anchor="middle" x="106.5" y="-106" font-family="Helvetica,sans-Serif" font-size="10.00" fill="grey">z</text>
</g>
</g>
</svg>
