<?xml version="1.0" encoding="UTF-8" standalone="no"?>
<!DOCTYPE svg PUBLIC "-//W3C//DTD SVG 1.1//EN"
 "http://www.w3.org/Graphics/SVG/1.1/DTD/svg11.dtd">
<!-- Generated by graphviz version 2.43.0 (0)
 -->
<!-- Title: EigenDecomposition Pages: 1 -->
<svg width="165pt" height="93pt"
 viewBox="0.00 0.00 165.00 93.00" xmlns="http://www.w3.org/2000/svg" xmlns:xlink="http://www.w3.org/1999/xlink">
<g id="graph0" class="graph" transform="scale(1 1) rotate(0) translate(4 89)">
<title>EigenDecomposition</title>
<!-- Node1 -->
<g id="Node000001" class="node">
<title>Node1</title>
<g id="a_Node000001"><a xlink:title=" ">
<polygon fill="#999999" stroke="#666666" points="121.5,-19 4.5,-19 4.5,0 121.5,0 121.5,-19"/>
<text text-anchor="middle" x="63" y="-7" font-family="Helvetica,sans-Serif" font-size="10.00">EigenDecomposition</text>
</a>
</g>
</g>
<!-- Node2 -->
<g id="Node000002" class="node">
<title>Node2</title>
<g id="a_Node000002"><a xlink:href="structVec3.html" target="_top" xlink:title="3D vector storage type (12 bytes, unaligned).">
<polygon fill="white" stroke="#666666" points="40,-85 0,-85 0,-66 40,-66 40,-85"/>
<text text-anchor="middle" x="20" y="-73" font-family="Helvetica,sans-Serif" font-size="10.00">Vec3</text>
</a>
</g>
</g>
<!-- Node2&#45;&gt;Node1 -->
<g id="edge1_Node000001_Node000002" class="edge">
<title>Node2&#45;&gt;Node1</title>
<g id="a_edge1_Node000001_Node000002"><a xlink:title=" ">
<path fill="none" stroke="#9a32cd" stroke-dasharray="5,2" d="M17.06,-55.52C16.97,-49.27 17.86,-42.52 21,-37 25.43,-29.21 33.2,-23.37 40.85,-19.19"/>
<polygon fill="#9a32cd" stroke="#9a32cd" points="13.61,-56.22 18.04,-65.85 20.58,-55.56 13.61,-56.22"/>
</a>
</g>
<text text-anchor="middle" x="52.5" y="-40" font-family="Helvetica,sans-Serif" font-size="10.00" fill="grey"> eigenvalues</text>
</g>
<!-- Node3 -->
<g id="Node000003" class="node">
<title>Node3</title>
<g id="a_Node000003"><a xlink:href="structMat3.html" target="_top" xlink:title="A 3x3 matrix for 2D transformations and 3D rotations.">
<polygon fill="white" stroke="#666666" points="126.5,-85 85.5,-85 85.5,-66 126.5,-66 126.5,-85"/>
<text text-anchor="middle" x="106" y="-73" font-family="Helvetica,sans-Serif" font-size="10.00">Mat3</text>
</a>
</g>
</g>
<!-- Node3&#45;&gt;Node1 -->
<g id="edge2_Node000001_Node000003" class="edge">
<title>Node3&#45;&gt;Node1</title>
<g id="a_edge2_Node000001_Node000003"><a xlink:title=" ">
<path fill="none" stroke="#9a32cd" stroke-dasharray="5,2" d="M96.31,-56.84C92.64,-50.46 88.31,-43.29 84,-37 79.76,-30.8 74.51,-24.18 70.32,-19.1"/>
<polygon fill="#9a32cd" stroke="#9a32cd" points="93.49,-58.95 101.43,-65.95 99.59,-55.52 93.49,-58.95"/>
</a>
</g>
<text text-anchor="middle" x="123.5" y="-40" font-family="Helvetica,sans-Serif" font-size="10.00" fill="grey"> eigenvectors</text>
</g>
</g>
</svg>
