<?xml version="1.0" encoding="UTF-8" standalone="no"?>
<!DOCTYPE svg PUBLIC "-//W3C//DTD SVG 1.1//EN"
 "http://www.w3.org/Graphics/SVG/1.1/DTD/svg11.dtd">
<!-- Generated by graphviz version 2.43.0 (0)
 -->
<!-- Title: threadpool_destroy Pages: 1 -->
<svg width="367pt" height="341pt"
 viewBox="0.00 0.00 367.00 341.00" xmlns="http://www.w3.org/2000/svg" xmlns:xlink="http://www.w3.org/1999/xlink">
<g id="graph0" class="graph" transform="scale(1 1) rotate(0) translate(4 337)">
<title>threadpool_destroy</title>
<!-- Node1 -->
<g id="Node000001" class="node">
<title>Node1</title>
<g id="a_Node000001"><a xlink:title="Drain all pending tasks, stop all workers, and free the pool.">
<polygon fill="#999999" stroke="#666666" points="111,-184 0,-184 0,-165 111,-165 111,-184"/>
<text text-anchor="middle" x="55.5" y="-172" font-family="Helvetica,sans-Serif" font-size="10.00">threadpool_destroy</text>
</a>
</g>
</g>
<!-- Node1&#45;&gt;Node1 -->
<g id="edge15_Node000001_Node000001" class="edge">
<title>Node1&#45;&gt;Node1</title>
<g id="a_edge15_Node000001_Node000001"><a xlink:title=" ">
<path fill="none" stroke="#63b8ff" d="M33,-184.08C22.05,-192.73 29.55,-202 55.5,-202 72.12,-202 81.18,-198.2 82.66,-193.19"/>
<polygon fill="#63b8ff" stroke="#63b8ff" points="85.67,-191.39 78,-184.08 79.44,-194.58 85.67,-191.39"/>
</a>
</g>
</g>
<!-- Node2 -->
<g id="Node000002" class="node">
<title>Node2</title>
<g id="a_Node000002"><a xlink:href="lock_8c.html#a4c04565c7345b6ebf6e5a76aaa6fe108" target="_top" xlink:title=" ">
<polygon fill="white" stroke="#666666" points="234.5,-333 169.5,-333 169.5,-314 234.5,-314 234.5,-333"/>
<text text-anchor="middle" x="202" y="-321" font-family="Helvetica,sans-Serif" font-size="10.00">cond_free</text>
</a>
</g>
</g>
<!-- Node1&#45;&gt;Node2 -->
<g id="edge1_Node000001_Node000002" class="edge">
<title>Node1&#45;&gt;Node2</title>
<g id="a_edge1_Node000001_Node000002"><a xlink:title=" ">
<path fill="none" stroke="#63b8ff" d="M61.27,-184.29C72.92,-207.3 104.96,-265.42 147,-299.5 151.7,-303.31 157.09,-306.63 162.62,-309.5"/>
<polygon fill="#63b8ff" stroke="#63b8ff" points="161.4,-312.79 171.94,-313.89 164.38,-306.46 161.4,-312.79"/>
</a>
</g>
</g>
<!-- Node3 -->
<g id="Node000003" class="node">
<title>Node3</title>
<g id="a_Node000003"><a xlink:href="lock_8c.html#a2460579b5ba8ad8079d42d449d9bcc80" target="_top" xlink:title=" ">
<polygon fill="white" stroke="#666666" points="359,-267 293,-267 293,-248 359,-248 359,-267"/>
<text text-anchor="middle" x="326" y="-255" font-family="Helvetica,sans-Serif" font-size="10.00">cond_wait</text>
</a>
</g>
</g>
<!-- Node1&#45;&gt;Node3 -->
<g id="edge2_Node000001_Node000003" class="edge">
<title>Node1&#45;&gt;Node3</title>
<g id="a_edge2_Node000001_Node000003"><a xlink:title=" ">
<path fill="none" stroke="#63b8ff" d="M62.22,-184.19C74.64,-204.16 106.29,-249.44 147,-266.5 190.82,-284.86 246.12,-277.96 283.36,-269.49"/>
<polygon fill="#63b8ff" stroke="#63b8ff" points="284.45,-272.83 293.36,-267.08 282.81,-266.02 284.45,-272.83"/>
</a>
</g>
</g>
<!-- Node4 -->
<g id="Node000004" class="node">
<title>Node4</title>
<g id="a_Node000004"><a xlink:href="lock_8c.html#a817db5657996111335ebc9d470d79aaf" target="_top" xlink:title=" ">
<polygon fill="white" stroke="#666666" points="257,-239 147,-239 147,-220 257,-220 257,-239"/>
<text text-anchor="middle" x="202" y="-227" font-family="Helvetica,sans-Serif" font-size="10.00">cond_wait_timeout</text>
</a>
</g>
</g>
<!-- Node1&#45;&gt;Node4 -->
<g id="edge4_Node000001_Node000004" class="edge">
<title>Node1&#45;&gt;Node4</title>
<g id="a_edge4_Node000001_Node000004"><a xlink:title=" ">
<path fill="none" stroke="#63b8ff" d="M78.65,-184.04C96.88,-191.77 123.44,-202.77 147,-211.5 151.62,-213.21 156.49,-214.94 161.34,-216.61"/>
<polygon fill="#63b8ff" stroke="#63b8ff" points="160.57,-220.05 171.17,-219.95 162.82,-213.42 160.57,-220.05"/>
</a>
</g>
</g>
<!-- Node5 -->
<g id="Node000005" class="node">
<title>Node5</title>
<g id="a_Node000005"><a xlink:href="lock_8c.html#a6e0f8abbfb3beb4a990282bb7ca66176" target="_top" xlink:title=" ">
<polygon fill="white" stroke="#666666" points="241,-184 163,-184 163,-165 241,-165 241,-184"/>
<text text-anchor="middle" x="202" y="-172" font-family="Helvetica,sans-Serif" font-size="10.00">lock_acquire</text>
</a>
</g>
</g>
<!-- Node1&#45;&gt;Node5 -->
<g id="edge7_Node000001_Node000005" class="edge">
<title>Node1&#45;&gt;Node5</title>
<g id="a_edge7_Node000001_Node000005"><a xlink:title=" ">
<path fill="none" stroke="#63b8ff" d="M111.13,-174.5C124.75,-174.5 139.26,-174.5 152.56,-174.5"/>
<polygon fill="#63b8ff" stroke="#63b8ff" points="152.93,-178 162.93,-174.5 152.93,-171 152.93,-178"/>
</a>
</g>
</g>
<!-- Node6 -->
<g id="Node000006" class="node">
<title>Node6</title>
<g id="a_Node000006"><a xlink:href="lock_8c.html#abe7ed51e69cbe867fd0bc31e20d26b11" target="_top" xlink:title=" ">
<polygon fill="white" stroke="#666666" points="233,-129 171,-129 171,-110 233,-110 233,-129"/>
<text text-anchor="middle" x="202" y="-117" font-family="Helvetica,sans-Serif" font-size="10.00">lock_free</text>
</a>
</g>
</g>
<!-- Node1&#45;&gt;Node6 -->
<g id="edge9_Node000001_Node000006" class="edge">
<title>Node1&#45;&gt;Node6</title>
<g id="a_edge9_Node000001_Node000006"><a xlink:title=" ">
<path fill="none" stroke="#63b8ff" d="M81.67,-164.92C105.04,-156.02 140.06,-142.69 166.13,-132.77"/>
<polygon fill="#63b8ff" stroke="#63b8ff" points="167.53,-135.98 175.63,-129.16 165.04,-129.44 167.53,-135.98"/>
</a>
</g>
</g>
<!-- Node7 -->
<g id="Node000007" class="node">
<title>Node7</title>
<g id="a_Node000007"><a xlink:href="lock_8c.html#a8e1134b81439b407581566ef62e4e099" target="_top" xlink:title=" ">
<polygon fill="white" stroke="#666666" points="241,-74 163,-74 163,-55 241,-55 241,-74"/>
<text text-anchor="middle" x="202" y="-62" font-family="Helvetica,sans-Serif" font-size="10.00">lock_release</text>
</a>
</g>
</g>
<!-- Node1&#45;&gt;Node7 -->
<g id="edge11_Node000001_Node000007" class="edge">
<title>Node1&#45;&gt;Node7</title>
<g id="a_edge11_Node000001_Node000007"><a xlink:title=" ">
<path fill="none" stroke="#63b8ff" d="M67.7,-164.99C84.58,-150.77 117.69,-123.31 147,-101.5 156.91,-94.12 168.14,-86.34 177.79,-79.82"/>
<polygon fill="#63b8ff" stroke="#63b8ff" points="179.75,-82.72 186.11,-74.25 175.86,-76.9 179.75,-82.72"/>
</a>
</g>
</g>
<!-- Node8 -->
<g id="Node000008" class="node">
<title>Node8</title>
<g id="a_Node000008"><a xlink:href="thread_8c.html#ac2ea321a5ad4280208f81ad332fe2d31" target="_top" xlink:title=" ">
<polygon fill="white" stroke="#666666" points="237.5,-19 166.5,-19 166.5,0 237.5,0 237.5,-19"/>
<text text-anchor="middle" x="202" y="-7" font-family="Helvetica,sans-Serif" font-size="10.00">thread_join</text>
</a>
</g>
</g>
<!-- Node1&#45;&gt;Node8 -->
<g id="edge13_Node000001_Node000008" class="edge">
<title>Node1&#45;&gt;Node8</title>
<g id="a_edge13_Node000001_Node000008"><a xlink:title=" ">
<path fill="none" stroke="#63b8ff" d="M61.65,-164.97C74.13,-142.47 107.84,-85.09 147,-46.5 155.34,-38.28 165.72,-30.68 175.14,-24.54"/>
<polygon fill="#63b8ff" stroke="#63b8ff" points="177.17,-27.39 183.78,-19.12 173.45,-21.46 177.17,-27.39"/>
</a>
</g>
</g>
<!-- Node3&#45;&gt;Node3 -->
<g id="edge3_Node000003_Node000003" class="edge">
<title>Node3&#45;&gt;Node3</title>
<g id="a_edge3_Node000003_Node000003"><a xlink:title=" ">
<path fill="none" stroke="#63b8ff" d="M306.89,-267.08C297.59,-275.73 303.96,-285 326,-285 339.77,-285 347.43,-281.38 348.96,-276.55"/>
<polygon fill="#63b8ff" stroke="#63b8ff" points="352.12,-275.03 345.11,-267.08 345.64,-277.66 352.12,-275.03"/>
</a>
</g>
</g>
<!-- Node4&#45;&gt;Node3 -->
<g id="edge5_Node000004_Node000003" class="edge">
<title>Node4&#45;&gt;Node3</title>
<g id="a_edge5_Node000004_Node000003"><a xlink:title=" ">
<path fill="none" stroke="#63b8ff" d="M244.64,-239.06C256.94,-241.88 270.41,-244.97 282.74,-247.8"/>
<polygon fill="#63b8ff" stroke="#63b8ff" points="282.25,-251.28 292.78,-250.11 283.82,-244.46 282.25,-251.28"/>
</a>
</g>
</g>
<!-- Node4&#45;&gt;Node4 -->
<g id="edge6_Node000004_Node000004" class="edge">
<title>Node4&#45;&gt;Node4</title>
<g id="a_edge6_Node000004_Node000004"><a xlink:title=" ">
<path fill="none" stroke="#63b8ff" d="M182.89,-239.08C173.59,-247.73 179.96,-257 202,-257 215.77,-257 223.43,-253.38 224.96,-248.55"/>
<polygon fill="#63b8ff" stroke="#63b8ff" points="228.12,-247.03 221.11,-239.08 221.64,-249.66 228.12,-247.03"/>
</a>
</g>
</g>
<!-- Node5&#45;&gt;Node5 -->
<g id="edge8_Node000005_Node000005" class="edge">
<title>Node5&#45;&gt;Node5</title>
<g id="a_edge8_Node000005_Node000005"><a xlink:title=" ">
<path fill="none" stroke="#63b8ff" d="M182.89,-184.08C173.59,-192.73 179.96,-202 202,-202 215.77,-202 223.43,-198.38 224.96,-193.55"/>
<polygon fill="#63b8ff" stroke="#63b8ff" points="228.12,-192.03 221.11,-184.08 221.64,-194.66 228.12,-192.03"/>
</a>
</g>
</g>
<!-- Node6&#45;&gt;Node6 -->
<g id="edge10_Node000006_Node000006" class="edge">
<title>Node6&#45;&gt;Node6</title>
<g id="a_edge10_Node000006_Node000006"><a xlink:title=" ">
<path fill="none" stroke="#63b8ff" d="M182.89,-129.08C173.59,-137.73 179.96,-147 202,-147 215.77,-147 223.43,-143.38 224.96,-138.55"/>
<polygon fill="#63b8ff" stroke="#63b8ff" points="228.12,-137.03 221.11,-129.08 221.64,-139.66 228.12,-137.03"/>
</a>
</g>
</g>
<!-- Node7&#45;&gt;Node7 -->
<g id="edge12_Node000007_Node000007" class="edge">
<title>Node7&#45;&gt;Node7</title>
<g id="a_edge12_Node000007_Node000007"><a xlink:title=" ">
<path fill="none" stroke="#63b8ff" d="M182.89,-74.08C173.59,-82.73 179.96,-92 202,-92 215.77,-92 223.43,-88.38 224.96,-83.55"/>
<polygon fill="#63b8ff" stroke="#63b8ff" points="228.12,-82.03 221.11,-74.08 221.64,-84.66 228.12,-82.03"/>
</a>
</g>
</g>
<!-- Node8&#45;&gt;Node8 -->
<g id="edge14_Node000008_Node000008" class="edge">
<title>Node8&#45;&gt;Node8</title>
<g id="a_edge14_Node000008_Node000008"><a xlink:title=" ">
<path fill="none" stroke="#63b8ff" d="M182.89,-19.08C173.59,-27.73 179.96,-37 202,-37 215.77,-37 223.43,-33.38 224.96,-28.55"/>
<polygon fill="#63b8ff" stroke="#63b8ff" points="228.12,-27.03 221.11,-19.08 221.64,-29.66 228.12,-27.03"/>
</a>
</g>
</g>
</g>
</svg>
