<?xml version="1.0" encoding="UTF-8" standalone="no"?>
<!DOCTYPE svg PUBLIC "-//W3C//DTD SVG 1.1//EN"
 "http://www.w3.org/Graphics/SVG/1.1/DTD/svg11.dtd">
<!-- Generated by graphviz version 2.43.0 (0)
 -->
<!-- Title: threadpool_create Pages: 1 -->
<svg width="508pt" height="302pt"
 viewBox="0.00 0.00 508.00 302.00" xmlns="http://www.w3.org/2000/svg" xmlns:xlink="http://www.w3.org/1999/xlink">
<g id="graph0" class="graph" transform="scale(1 1) rotate(0) translate(4 298)">
<title>threadpool_create</title>
<!-- Node1 -->
<g id="Node000001" class="node">
<title>Node1</title>
<g id="a_Node000001"><a xlink:title="Create a new thread pool.">
<polygon fill="#999999" stroke="#666666" points="105,-211 0,-211 0,-192 105,-192 105,-211"/>
<text text-anchor="middle" x="52.5" y="-199" font-family="Helvetica,sans-Serif" font-size="10.00">threadpool_create</text>
</a>
</g>
</g>
<!-- Node1&#45;&gt;Node1 -->
<g id="edge5_Node000001_Node000001" class="edge">
<title>Node1&#45;&gt;Node1</title>
<g id="a_edge5_Node000001_Node000001"><a xlink:title=" ">
<path fill="none" stroke="#63b8ff" d="M30.31,-211.08C19.51,-219.73 26.91,-229 52.5,-229 68.9,-229 77.82,-225.2 79.29,-220.19"/>
<polygon fill="#63b8ff" stroke="#63b8ff" points="82.32,-218.44 74.69,-211.08 76.07,-221.59 82.32,-218.44"/>
</a>
</g>
</g>
<!-- Node2 -->
<g id="Node000002" class="node">
<title>Node2</title>
<g id="a_Node000002"><a xlink:href="lock_8c.html#a506e9e21e849521b8cac8db55d1461a2" target="_top" xlink:title=" ">
<polygon fill="white" stroke="#666666" points="227,-266 166,-266 166,-247 227,-247 227,-266"/>
<text text-anchor="middle" x="196.5" y="-254" font-family="Helvetica,sans-Serif" font-size="10.00">cond_init</text>
</a>
</g>
</g>
<!-- Node1&#45;&gt;Node2 -->
<g id="edge1_Node000001_Node000002" class="edge">
<title>Node1&#45;&gt;Node2</title>
<g id="a_edge1_Node000001_Node000002"><a xlink:title=" ">
<path fill="none" stroke="#63b8ff" d="M74.88,-211.11C92.48,-218.89 118.15,-229.91 141,-238.5 145.89,-240.34 151.06,-242.18 156.19,-243.94"/>
<polygon fill="#63b8ff" stroke="#63b8ff" points="155.34,-247.35 165.93,-247.22 157.57,-240.71 155.34,-247.35"/>
</a>
</g>
</g>
<!-- Node3 -->
<g id="Node000003" class="node">
<title>Node3</title>
<g id="a_Node000003"><a xlink:href="lock_8c.html#a20db23f8993e4b5b39b9b977f8c6714f" target="_top" xlink:title=" ">
<polygon fill="white" stroke="#666666" points="225.5,-211 167.5,-211 167.5,-192 225.5,-192 225.5,-211"/>
<text text-anchor="middle" x="196.5" y="-199" font-family="Helvetica,sans-Serif" font-size="10.00">lock_init</text>
</a>
</g>
</g>
<!-- Node1&#45;&gt;Node3 -->
<g id="edge3_Node000001_Node000003" class="edge">
<title>Node1&#45;&gt;Node3</title>
<g id="a_edge3_Node000001_Node000003"><a xlink:title=" ">
<path fill="none" stroke="#63b8ff" d="M105.17,-201.5C122.34,-201.5 141.15,-201.5 157.13,-201.5"/>
<polygon fill="#63b8ff" stroke="#63b8ff" points="157.19,-205 167.19,-201.5 157.19,-198 157.19,-205"/>
</a>
</g>
</g>
<!-- Node4 -->
<g id="Node000004" class="node">
<title>Node4</title>
<g id="a_Node000004"><a xlink:href="threadpool_8c.html#a9d3ae515204c1f045e1572a7440f1479" target="_top" xlink:title="Drain all pending tasks, stop all workers, and free the pool.">
<polygon fill="white" stroke="#666666" points="252,-156 141,-156 141,-137 252,-137 252,-156"/>
<text text-anchor="middle" x="196.5" y="-144" font-family="Helvetica,sans-Serif" font-size="10.00">threadpool_destroy</text>
</a>
</g>
</g>
<!-- Node1&#45;&gt;Node4 -->
<g id="edge6_Node000001_Node000004" class="edge">
<title>Node1&#45;&gt;Node4</title>
<g id="a_edge6_Node000001_Node000004"><a xlink:title=" ">
<path fill="none" stroke="#63b8ff" d="M78.23,-191.92C101.2,-183.02 135.62,-169.69 161.23,-159.77"/>
<polygon fill="#63b8ff" stroke="#63b8ff" points="162.51,-163.03 170.57,-156.16 159.98,-156.5 162.51,-163.03"/>
</a>
</g>
</g>
<!-- Node2&#45;&gt;Node2 -->
<g id="edge2_Node000002_Node000002" class="edge">
<title>Node2&#45;&gt;Node2</title>
<g id="a_edge2_Node000002_Node000002"><a xlink:title=" ">
<path fill="none" stroke="#63b8ff" d="M174.31,-266.08C163.51,-274.73 170.91,-284 196.5,-284 212.9,-284 221.82,-280.2 223.29,-275.19"/>
<polygon fill="#63b8ff" stroke="#63b8ff" points="226.32,-273.44 218.69,-266.08 220.07,-276.59 226.32,-273.44"/>
</a>
</g>
</g>
<!-- Node3&#45;&gt;Node3 -->
<g id="edge4_Node000003_Node000003" class="edge">
<title>Node3&#45;&gt;Node3</title>
<g id="a_edge4_Node000003_Node000003"><a xlink:title=" ">
<path fill="none" stroke="#63b8ff" d="M174.31,-211.08C163.51,-219.73 170.91,-229 196.5,-229 212.9,-229 221.82,-225.2 223.29,-220.19"/>
<polygon fill="#63b8ff" stroke="#63b8ff" points="226.32,-218.44 218.69,-211.08 220.07,-221.59 226.32,-218.44"/>
</a>
</g>
</g>
<!-- Node4&#45;&gt;Node4 -->
<g id="edge20_Node000004_Node000004" class="edge">
<title>Node4&#45;&gt;Node4</title>
<g id="a_edge20_Node000004_Node000004"><a xlink:title=" ">
<path fill="none" stroke="#63b8ff" d="M174.31,-156.08C163.51,-164.73 170.91,-174 196.5,-174 212.9,-174 221.82,-170.2 223.29,-165.19"/>
<polygon fill="#63b8ff" stroke="#63b8ff" points="226.32,-163.44 218.69,-156.08 220.07,-166.59 226.32,-163.44"/>
</a>
</g>
</g>
<!-- Node5 -->
<g id="Node000005" class="node">
<title>Node5</title>
<g id="a_Node000005"><a xlink:href="lock_8c.html#a4c04565c7345b6ebf6e5a76aaa6fe108" target="_top" xlink:title=" ">
<polygon fill="white" stroke="#666666" points="375.5,-294 310.5,-294 310.5,-275 375.5,-275 375.5,-294"/>
<text text-anchor="middle" x="343" y="-282" font-family="Helvetica,sans-Serif" font-size="10.00">cond_free</text>
</a>
</g>
</g>
<!-- Node4&#45;&gt;Node5 -->
<g id="edge7_Node000004_Node000005" class="edge">
<title>Node4&#45;&gt;Node5</title>
<g id="a_edge7_Node000004_Node000005"><a xlink:title=" ">
<path fill="none" stroke="#63b8ff" d="M216.96,-156.1C228.4,-162.54 242.44,-171.96 252,-183.5 277.65,-214.46 258.35,-239.34 288,-266.5 291.82,-270 296.34,-272.82 301.11,-275.09"/>
<polygon fill="#63b8ff" stroke="#63b8ff" points="299.89,-278.38 310.48,-278.82 302.48,-271.87 299.89,-278.38"/>
</a>
</g>
</g>
<!-- Node6 -->
<g id="Node000006" class="node">
<title>Node6</title>
<g id="a_Node000006"><a xlink:href="lock_8c.html#a817db5657996111335ebc9d470d79aaf" target="_top" xlink:title=" ">
<polygon fill="white" stroke="#666666" points="398,-239 288,-239 288,-220 398,-220 398,-239"/>
<text text-anchor="middle" x="343" y="-227" font-family="Helvetica,sans-Serif" font-size="10.00">cond_wait_timeout</text>
</a>
</g>
</g>
<!-- Node4&#45;&gt;Node6 -->
<g id="edge8_Node000004_Node000006" class="edge">
<title>Node4&#45;&gt;Node6</title>
<g id="a_edge8_Node000004_Node000006"><a xlink:title=" ">
<path fill="none" stroke="#63b8ff" d="M212.48,-156.3C223.53,-163.61 238.87,-173.95 252,-183.5 268.39,-195.42 270.13,-201.94 288,-211.5 291.24,-213.23 294.68,-214.84 298.19,-216.33"/>
<polygon fill="#63b8ff" stroke="#63b8ff" points="296.97,-219.61 307.56,-219.97 299.51,-213.09 296.97,-219.61"/>
</a>
</g>
</g>
<!-- Node8 -->
<g id="Node000008" class="node">
<title>Node8</title>
<g id="a_Node000008"><a xlink:href="lock_8c.html#a6e0f8abbfb3beb4a990282bb7ca66176" target="_top" xlink:title=" ">
<polygon fill="white" stroke="#666666" points="382,-184 304,-184 304,-165 382,-165 382,-184"/>
<text text-anchor="middle" x="343" y="-172" font-family="Helvetica,sans-Serif" font-size="10.00">lock_acquire</text>
</a>
</g>
</g>
<!-- Node4&#45;&gt;Node8 -->
<g id="edge12_Node000004_Node000008" class="edge">
<title>Node4&#45;&gt;Node8</title>
<g id="a_edge12_Node000004_Node000008"><a xlink:title=" ">
<path fill="none" stroke="#63b8ff" d="M246.82,-156.06C261.97,-158.99 278.62,-162.22 293.69,-165.14"/>
<polygon fill="#63b8ff" stroke="#63b8ff" points="293.36,-168.64 303.84,-167.11 294.69,-161.77 293.36,-168.64"/>
</a>
</g>
</g>
<!-- Node9 -->
<g id="Node000009" class="node">
<title>Node9</title>
<g id="a_Node000009"><a xlink:href="lock_8c.html#abe7ed51e69cbe867fd0bc31e20d26b11" target="_top" xlink:title=" ">
<polygon fill="white" stroke="#666666" points="374,-129 312,-129 312,-110 374,-110 374,-129"/>
<text text-anchor="middle" x="343" y="-117" font-family="Helvetica,sans-Serif" font-size="10.00">lock_free</text>
</a>
</g>
</g>
<!-- Node4&#45;&gt;Node9 -->
<g id="edge14_Node000004_Node000009" class="edge">
<title>Node4&#45;&gt;Node9</title>
<g id="a_edge14_Node000004_Node000009"><a xlink:title=" ">
<path fill="none" stroke="#63b8ff" d="M248.45,-136.98C265.94,-133.71 285.27,-130.1 301.79,-127.01"/>
<polygon fill="#63b8ff" stroke="#63b8ff" points="302.49,-130.44 311.67,-125.17 301.2,-123.56 302.49,-130.44"/>
</a>
</g>
</g>
<!-- Node10 -->
<g id="Node000010" class="node">
<title>Node10</title>
<g id="a_Node000010"><a xlink:href="lock_8c.html#a8e1134b81439b407581566ef62e4e099" target="_top" xlink:title=" ">
<polygon fill="white" stroke="#666666" points="382,-74 304,-74 304,-55 382,-55 382,-74"/>
<text text-anchor="middle" x="343" y="-62" font-family="Helvetica,sans-Serif" font-size="10.00">lock_release</text>
</a>
</g>
</g>
<!-- Node4&#45;&gt;Node10 -->
<g id="edge16_Node000004_Node000010" class="edge">
<title>Node4&#45;&gt;Node10</title>
<g id="a_edge16_Node000004_Node000010"><a xlink:title=" ">
<path fill="none" stroke="#63b8ff" d="M214.36,-136.93C239.48,-122.68 286.94,-95.74 316.38,-79.04"/>
<polygon fill="#63b8ff" stroke="#63b8ff" points="318.28,-81.99 325.25,-74.01 314.82,-75.9 318.28,-81.99"/>
</a>
</g>
</g>
<!-- Node11 -->
<g id="Node000011" class="node">
<title>Node11</title>
<g id="a_Node000011"><a xlink:href="thread_8c.html#ac2ea321a5ad4280208f81ad332fe2d31" target="_top" xlink:title=" ">
<polygon fill="white" stroke="#666666" points="378.5,-19 307.5,-19 307.5,0 378.5,0 378.5,-19"/>
<text text-anchor="middle" x="343" y="-7" font-family="Helvetica,sans-Serif" font-size="10.00">thread_join</text>
</a>
</g>
</g>
<!-- Node4&#45;&gt;Node11 -->
<g id="edge18_Node000004_Node000011" class="edge">
<title>Node4&#45;&gt;Node11</title>
<g id="a_edge18_Node000004_Node000011"><a xlink:title=" ">
<path fill="none" stroke="#63b8ff" d="M205.06,-136.71C219.81,-117.97 253.96,-76.23 288,-46.5 296.95,-38.68 307.6,-31.08 317.07,-24.81"/>
<polygon fill="#63b8ff" stroke="#63b8ff" points="319.18,-27.62 325.69,-19.26 315.38,-21.74 319.18,-27.62"/>
</a>
</g>
</g>
<!-- Node6&#45;&gt;Node6 -->
<g id="edge11_Node000006_Node000006" class="edge">
<title>Node6&#45;&gt;Node6</title>
<g id="a_edge11_Node000006_Node000006"><a xlink:title=" ">
<path fill="none" stroke="#63b8ff" d="M323.89,-239.08C314.59,-247.73 320.96,-257 343,-257 356.77,-257 364.43,-253.38 365.96,-248.55"/>
<polygon fill="#63b8ff" stroke="#63b8ff" points="369.12,-247.03 362.11,-239.08 362.64,-249.66 369.12,-247.03"/>
</a>
</g>
</g>
<!-- Node7 -->
<g id="Node000007" class="node">
<title>Node7</title>
<g id="a_Node000007"><a xlink:href="lock_8c.html#a2460579b5ba8ad8079d42d449d9bcc80" target="_top" xlink:title=" ">
<polygon fill="white" stroke="#666666" points="500,-239 434,-239 434,-220 500,-220 500,-239"/>
<text text-anchor="middle" x="467" y="-227" font-family="Helvetica,sans-Serif" font-size="10.00">cond_wait</text>
</a>
</g>
</g>
<!-- Node6&#45;&gt;Node7 -->
<g id="edge9_Node000006_Node000007" class="edge">
<title>Node6&#45;&gt;Node7</title>
<g id="a_edge9_Node000006_Node000007"><a xlink:title=" ">
<path fill="none" stroke="#63b8ff" d="M398.22,-229.5C406.81,-229.5 415.59,-229.5 423.85,-229.5"/>
<polygon fill="#63b8ff" stroke="#63b8ff" points="423.99,-233 433.99,-229.5 423.99,-226 423.99,-233"/>
</a>
</g>
</g>
<!-- Node7&#45;&gt;Node7 -->
<g id="edge10_Node000007_Node000007" class="edge">
<title>Node7&#45;&gt;Node7</title>
<g id="a_edge10_Node000007_Node000007"><a xlink:title=" ">
<path fill="none" stroke="#63b8ff" d="M447.89,-239.08C438.59,-247.73 444.96,-257 467,-257 480.77,-257 488.43,-253.38 489.96,-248.55"/>
<polygon fill="#63b8ff" stroke="#63b8ff" points="493.12,-247.03 486.11,-239.08 486.64,-249.66 493.12,-247.03"/>
</a>
</g>
</g>
<!-- Node8&#45;&gt;Node8 -->
<g id="edge13_Node000008_Node000008" class="edge">
<title>Node8&#45;&gt;Node8</title>
<g id="a_edge13_Node000008_Node000008"><a xlink:title=" ">
<path fill="none" stroke="#63b8ff" d="M323.89,-184.08C314.59,-192.73 320.96,-202 343,-202 356.77,-202 364.43,-198.38 365.96,-193.55"/>
<polygon fill="#63b8ff" stroke="#63b8ff" points="369.12,-192.03 362.11,-184.08 362.64,-194.66 369.12,-192.03"/>
</a>
</g>
</g>
<!-- Node9&#45;&gt;Node9 -->
<g id="edge15_Node000009_Node000009" class="edge">
<title>Node9&#45;&gt;Node9</title>
<g id="a_edge15_Node000009_Node000009"><a xlink:title=" ">
<path fill="none" stroke="#63b8ff" d="M323.89,-129.08C314.59,-137.73 320.96,-147 343,-147 356.77,-147 364.43,-143.38 365.96,-138.55"/>
<polygon fill="#63b8ff" stroke="#63b8ff" points="369.12,-137.03 362.11,-129.08 362.64,-139.66 369.12,-137.03"/>
</a>
</g>
</g>
<!-- Node10&#45;&gt;Node10 -->
<g id="edge17_Node000010_Node000010" class="edge">
<title>Node10&#45;&gt;Node10</title>
<g id="a_edge17_Node000010_Node000010"><a xlink:title=" ">
<path fill="none" stroke="#63b8ff" d="M323.89,-74.08C314.59,-82.73 320.96,-92 343,-92 356.77,-92 364.43,-88.38 365.96,-83.55"/>
<polygon fill="#63b8ff" stroke="#63b8ff" points="369.12,-82.03 362.11,-74.08 362.64,-84.66 369.12,-82.03"/>
</a>
</g>
</g>
<!-- Node11&#45;&gt;Node11 -->
<g id="edge19_Node000011_Node000011" class="edge">
<title>Node11&#45;&gt;Node11</title>
<g id="a_edge19_Node000011_Node000011"><a xlink:title=" ">
<path fill="none" stroke="#63b8ff" d="M323.89,-19.08C314.59,-27.73 320.96,-37 343,-37 356.77,-37 364.43,-33.38 365.96,-28.55"/>
<polygon fill="#63b8ff" stroke="#63b8ff" points="369.12,-27.03 362.11,-19.08 362.64,-29.66 369.12,-27.03"/>
</a>
</g>
</g>
</g>
</svg>
