<?xml version="1.0" encoding="UTF-8" standalone="no"?>
<!DOCTYPE svg PUBLIC "-//W3C//DTD SVG 1.1//EN"
 "http://www.w3.org/Graphics/SVG/1.1/DTD/svg11.dtd">
<!-- Generated by graphviz version 2.43.0 (0)
 -->
<!-- Title: threadpool_create Pages: 1 -->
<!--zoomable 357 -->

<svg id="main" version="1.1" xmlns="http://www.w3.org/2000/svg" xmlns:xlink="http://www.w3.org/1999/xlink" xml:space="preserve" onload="init(evt)">
<style type="text/css"><![CDATA[
.node, .edge {opacity: 0.7;}
.node.selected, .edge.selected {opacity: 1;}
.edge:hover path { stroke: red; }
.edge:hover polygon { stroke: red; fill: red; }
]]></style>

<defs>
  <circle id="rim" cx="0" cy="0" r="7"/>
  <circle id="rim2" cx="0" cy="0" r="3.5"/>
  <g id="zoomPlus">
    <use xlink:href="#rim" fill="#404040"><set attributeName="fill" to="#808080" begin="zoomplus.mouseover" end="zoomplus.mouseout"/></use>
    <path d="M-4,0h8M0,-4v8" fill="none" stroke="white" stroke-width="1.5" pointer-events="none"/>
  </g>
  <g id="zoomMin">
    <use xlink:href="#rim" fill="#404040"><set attributeName="fill" to="#808080" begin="zoomminus.mouseover" end="zoomminus.mouseout"/></use>
    <path d="M-4,0h8" fill="none" stroke="white" stroke-width="1.5" pointer-events="none"/>
  </g>
  <g id="arrowUp" transform="translate(30 24)">
    <use xlink:href="#rim"/>
    <path pointer-events="none" fill="none" stroke="white" stroke-width="1.5" d="M0,-3.0v7 M-2.5,-0.5L0,-3.0L2.5,-0.5"/>
  </g>
  <g id="arrowRight" transform="rotate(90) translate(36 -43)">
    <use xlink:href="#rim"/>
    <path pointer-events="none" fill="none" stroke="white" stroke-width="1.5" d="M0,-3.0v7 M-2.5,-0.5L0,-3.0L2.5,-0.5"/>
  </g>
  <g id="arrowDown" transform="rotate(180) translate(-30 -48)">
    <use xlink:href="#rim"/>
    <path pointer-events="none" fill="none" stroke="white" stroke-width="1.5" d="M0,-3.0v7 M-2.5,-0.5L0,-3.0L2.5,-0.5"/>
  </g>
  <g id="arrowLeft" transform="rotate(270) translate(-36 17)">
    <use xlink:href="#rim"/>
    <path pointer-events="none" fill="none" stroke="white" stroke-width="1.5" d="M0,-3.0v7 M-2.5,-0.5L0,-3.0L2.5,-0.5"/>
  </g>
  <g id="resetDef">
    <use xlink:href="#rim2" fill="#404040"><set attributeName="fill" to="#808080" begin="reset.mouseover" end="reset.mouseout"/></use>
  </g>
</defs>
<script type="application/ecmascript">
var viewWidth = 508;
var viewHeight = 357;
var sectionId = 'dynsection-2';
</script>
<script type="application/ecmascript" xlink:href="svg.min.js"/>
<svg id="graph" class="graph">
<g id="viewport">
<title>threadpool_create</title>
<!-- Node1 -->
<g id="Node000001" class="node">
<title>Node1</title>
<g id="a_Node000001"><a xlink:title=" ">
<polygon fill="#999999" stroke="#666666" points="105,-239 0,-239 0,-220 105,-220 105,-239"/>
<text text-anchor="middle" x="52.5" y="-227" font-family="Helvetica,sans-Serif" font-size="10.00">threadpool_create</text>
</a>
</g>
</g>
<!-- Node1&#45;&gt;Node1 -->
<g id="edge5_Node000001_Node000001" class="edge">
<title>Node1&#45;&gt;Node1</title>
<g id="a_edge5_Node000001_Node000001"><a xlink:title=" ">
<path fill="none" stroke="#63b8ff" d="M30.31,-239.08C19.51,-247.73 26.91,-257 52.5,-257 68.9,-257 77.82,-253.2 79.29,-248.19"/>
<polygon fill="#63b8ff" stroke="#63b8ff" points="82.32,-246.44 74.69,-239.08 76.07,-249.59 82.32,-246.44"/>
</a>
</g>
</g>
<!-- Node2 -->
<g id="Node000002" class="node">
<title>Node2</title>
<g id="a_Node000002"><a xlink:href="lock_8c.html#a506e9e21e849521b8cac8db55d1461a2" target="_top" xlink:title=" ">
<polygon fill="white" stroke="#666666" points="227,-294 166,-294 166,-275 227,-275 227,-294"/>
<text text-anchor="middle" x="196.5" y="-282" font-family="Helvetica,sans-Serif" font-size="10.00">cond_init</text>
</a>
</g>
</g>
<!-- Node1&#45;&gt;Node2 -->
<g id="edge1_Node000001_Node000002" class="edge">
<title>Node1&#45;&gt;Node2</title>
<g id="a_edge1_Node000001_Node000002"><a xlink:title=" ">
<path fill="none" stroke="#63b8ff" d="M74.88,-239.11C92.48,-246.89 118.15,-257.91 141,-266.5 145.89,-268.34 151.06,-270.18 156.19,-271.94"/>
<polygon fill="#63b8ff" stroke="#63b8ff" points="155.34,-275.35 165.93,-275.22 157.57,-268.71 155.34,-275.35"/>
</a>
</g>
</g>
<!-- Node3 -->
<g id="Node000003" class="node">
<title>Node3</title>
<g id="a_Node000003"><a xlink:href="lock_8c.html#a20db23f8993e4b5b39b9b977f8c6714f" target="_top" xlink:title=" ">
<polygon fill="white" stroke="#666666" points="225.5,-239 167.5,-239 167.5,-220 225.5,-220 225.5,-239"/>
<text text-anchor="middle" x="196.5" y="-227" font-family="Helvetica,sans-Serif" font-size="10.00">lock_init</text>
</a>
</g>
</g>
<!-- Node1&#45;&gt;Node3 -->
<g id="edge3_Node000001_Node000003" class="edge">
<title>Node1&#45;&gt;Node3</title>
<g id="a_edge3_Node000001_Node000003"><a xlink:title=" ">
<path fill="none" stroke="#63b8ff" d="M105.17,-229.5C122.34,-229.5 141.15,-229.5 157.13,-229.5"/>
<polygon fill="#63b8ff" stroke="#63b8ff" points="157.19,-233 167.19,-229.5 157.19,-226 157.19,-233"/>
</a>
</g>
</g>
<!-- Node4 -->
<g id="Node000004" class="node">
<title>Node4</title>
<g id="a_Node000004"><a xlink:href="threadpool_8c.html#a9d3ae515204c1f045e1572a7440f1479" target="_top" xlink:title=" ">
<polygon fill="white" stroke="#666666" points="252,-184 141,-184 141,-165 252,-165 252,-184"/>
<text text-anchor="middle" x="196.5" y="-172" font-family="Helvetica,sans-Serif" font-size="10.00">threadpool_destroy</text>
</a>
</g>
</g>
<!-- Node1&#45;&gt;Node4 -->
<g id="edge6_Node000001_Node000004" class="edge">
<title>Node1&#45;&gt;Node4</title>
<g id="a_edge6_Node000001_Node000004"><a xlink:title=" ">
<path fill="none" stroke="#63b8ff" d="M78.23,-219.92C101.2,-211.02 135.62,-197.69 161.23,-187.77"/>
<polygon fill="#63b8ff" stroke="#63b8ff" points="162.51,-191.03 170.57,-184.16 159.98,-184.5 162.51,-191.03"/>
</a>
</g>
</g>
<!-- Node2&#45;&gt;Node2 -->
<g id="edge2_Node000002_Node000002" class="edge">
<title>Node2&#45;&gt;Node2</title>
<g id="a_edge2_Node000002_Node000002"><a xlink:title=" ">
<path fill="none" stroke="#63b8ff" d="M174.31,-294.08C163.51,-302.73 170.91,-312 196.5,-312 212.9,-312 221.82,-308.2 223.29,-303.19"/>
<polygon fill="#63b8ff" stroke="#63b8ff" points="226.32,-301.44 218.69,-294.08 220.07,-304.59 226.32,-301.44"/>
</a>
</g>
</g>
<!-- Node3&#45;&gt;Node3 -->
<g id="edge4_Node000003_Node000003" class="edge">
<title>Node3&#45;&gt;Node3</title>
<g id="a_edge4_Node000003_Node000003"><a xlink:title=" ">
<path fill="none" stroke="#63b8ff" d="M174.31,-239.08C163.51,-247.73 170.91,-257 196.5,-257 212.9,-257 221.82,-253.2 223.29,-248.19"/>
<polygon fill="#63b8ff" stroke="#63b8ff" points="226.32,-246.44 218.69,-239.08 220.07,-249.59 226.32,-246.44"/>
</a>
</g>
</g>
<!-- Node4&#45;&gt;Node4 -->
<g id="edge22_Node000004_Node000004" class="edge">
<title>Node4&#45;&gt;Node4</title>
<g id="a_edge22_Node000004_Node000004"><a xlink:title=" ">
<path fill="none" stroke="#63b8ff" d="M174.31,-184.08C163.51,-192.73 170.91,-202 196.5,-202 212.9,-202 221.82,-198.2 223.29,-193.19"/>
<polygon fill="#63b8ff" stroke="#63b8ff" points="226.32,-191.44 218.69,-184.08 220.07,-194.59 226.32,-191.44"/>
</a>
</g>
</g>
<!-- Node5 -->
<g id="Node000005" class="node">
<title>Node5</title>
<g id="a_Node000005"><a xlink:href="lock_8c.html#ab4a9b1664d0b27f364ad90d37f0bf18f" target="_top" xlink:title=" ">
<polygon fill="white" stroke="#666666" points="389.5,-331 296.5,-331 296.5,-312 389.5,-312 389.5,-331"/>
<text text-anchor="middle" x="343" y="-319" font-family="Helvetica,sans-Serif" font-size="10.00">cond_broadcast</text>
</a>
</g>
</g>
<!-- Node4&#45;&gt;Node5 -->
<g id="edge7_Node000004_Node000005" class="edge">
<title>Node4&#45;&gt;Node5</title>
<g id="a_edge7_Node000004_Node000005"><a xlink:title=" ">
<path fill="none" stroke="#63b8ff" d="M217.37,-184.12C228.82,-190.52 242.72,-199.88 252,-211.5 279.39,-245.82 256.17,-273.26 288,-303.5 289.12,-304.56 290.3,-305.56 291.54,-306.51"/>
<polygon fill="#63b8ff" stroke="#63b8ff" points="289.98,-309.66 300.33,-311.9 293.64,-303.69 289.98,-309.66"/>
</a>
</g>
</g>
<!-- Node6 -->
<g id="Node000006" class="node">
<title>Node6</title>
<g id="a_Node000006"><a xlink:href="lock_8c.html#a4c04565c7345b6ebf6e5a76aaa6fe108" target="_top" xlink:title=" ">
<polygon fill="white" stroke="#666666" points="375.5,-294 310.5,-294 310.5,-275 375.5,-275 375.5,-294"/>
<text text-anchor="middle" x="343" y="-282" font-family="Helvetica,sans-Serif" font-size="10.00">cond_free</text>
</a>
</g>
</g>
<!-- Node4&#45;&gt;Node6 -->
<g id="edge9_Node000004_Node000006" class="edge">
<title>Node4&#45;&gt;Node6</title>
<g id="a_edge9_Node000004_Node000006"><a xlink:title=" ">
<path fill="none" stroke="#63b8ff" d="M215.26,-184.11C226.61,-190.8 241.18,-200.49 252,-211.5 272.48,-232.33 264.86,-248.67 288,-266.5 291.86,-269.47 296.23,-271.97 300.78,-274.06"/>
<polygon fill="#63b8ff" stroke="#63b8ff" points="299.66,-277.38 310.25,-277.81 302.24,-270.87 299.66,-277.38"/>
</a>
</g>
</g>
<!-- Node7 -->
<g id="Node000007" class="node">
<title>Node7</title>
<g id="a_Node000007"><a xlink:href="lock_8c.html#a817db5657996111335ebc9d470d79aaf" target="_top" xlink:title=" ">
<polygon fill="white" stroke="#666666" points="398,-239 288,-239 288,-220 398,-220 398,-239"/>
<text text-anchor="middle" x="343" y="-227" font-family="Helvetica,sans-Serif" font-size="10.00">cond_wait_timeout</text>
</a>
</g>
</g>
<!-- Node4&#45;&gt;Node7 -->
<g id="edge10_Node000004_Node000007" class="edge">
<title>Node4&#45;&gt;Node7</title>
<g id="a_edge10_Node000004_Node000007"><a xlink:title=" ">
<path fill="none" stroke="#63b8ff" d="M219.65,-184.04C237.88,-191.77 264.44,-202.77 288,-211.5 292.62,-213.21 297.49,-214.94 302.34,-216.61"/>
<polygon fill="#63b8ff" stroke="#63b8ff" points="301.57,-220.05 312.17,-219.95 303.82,-213.42 301.57,-220.05"/>
</a>
</g>
</g>
<!-- Node9 -->
<g id="Node000009" class="node">
<title>Node9</title>
<g id="a_Node000009"><a xlink:href="lock_8c.html#a6e0f8abbfb3beb4a990282bb7ca66176" target="_top" xlink:title=" ">
<polygon fill="white" stroke="#666666" points="382,-184 304,-184 304,-165 382,-165 382,-184"/>
<text text-anchor="middle" x="343" y="-172" font-family="Helvetica,sans-Serif" font-size="10.00">lock_acquire</text>
</a>
</g>
</g>
<!-- Node4&#45;&gt;Node9 -->
<g id="edge14_Node000004_Node000009" class="edge">
<title>Node4&#45;&gt;Node9</title>
<g id="a_edge14_Node000004_Node000009"><a xlink:title=" ">
<path fill="none" stroke="#63b8ff" d="M252.13,-174.5C265.75,-174.5 280.26,-174.5 293.56,-174.5"/>
<polygon fill="#63b8ff" stroke="#63b8ff" points="293.93,-178 303.93,-174.5 293.93,-171 293.93,-178"/>
</a>
</g>
</g>
<!-- Node10 -->
<g id="Node000010" class="node">
<title>Node10</title>
<g id="a_Node000010"><a xlink:href="lock_8c.html#abe7ed51e69cbe867fd0bc31e20d26b11" target="_top" xlink:title=" ">
<polygon fill="white" stroke="#666666" points="374,-129 312,-129 312,-110 374,-110 374,-129"/>
<text text-anchor="middle" x="343" y="-117" font-family="Helvetica,sans-Serif" font-size="10.00">lock_free</text>
</a>
</g>
</g>
<!-- Node4&#45;&gt;Node10 -->
<g id="edge16_Node000004_Node000010" class="edge">
<title>Node4&#45;&gt;Node10</title>
<g id="a_edge16_Node000004_Node000010"><a xlink:title=" ">
<path fill="none" stroke="#63b8ff" d="M222.67,-164.92C246.04,-156.02 281.06,-142.69 307.13,-132.77"/>
<polygon fill="#63b8ff" stroke="#63b8ff" points="308.53,-135.98 316.63,-129.16 306.04,-129.44 308.53,-135.98"/>
</a>
</g>
</g>
<!-- Node11 -->
<g id="Node000011" class="node">
<title>Node11</title>
<g id="a_Node000011"><a xlink:href="lock_8c.html#a8e1134b81439b407581566ef62e4e099" target="_top" xlink:title=" ">
<polygon fill="white" stroke="#666666" points="382,-74 304,-74 304,-55 382,-55 382,-74"/>
<text text-anchor="middle" x="343" y="-62" font-family="Helvetica,sans-Serif" font-size="10.00">lock_release</text>
</a>
</g>
</g>
<!-- Node4&#45;&gt;Node11 -->
<g id="edge18_Node000004_Node000011" class="edge">
<title>Node4&#45;&gt;Node11</title>
<g id="a_edge18_Node000004_Node000011"><a xlink:title=" ">
<path fill="none" stroke="#63b8ff" d="M208.7,-164.99C225.58,-150.77 258.69,-123.31 288,-101.5 297.91,-94.12 309.14,-86.34 318.79,-79.82"/>
<polygon fill="#63b8ff" stroke="#63b8ff" points="320.75,-82.72 327.11,-74.25 316.86,-76.9 320.75,-82.72"/>
</a>
</g>
</g>
<!-- Node12 -->
<g id="Node000012" class="node">
<title>Node12</title>
<g id="a_Node000012"><a xlink:href="thread_8c.html#ac2ea321a5ad4280208f81ad332fe2d31" target="_top" xlink:title=" ">
<polygon fill="white" stroke="#666666" points="378.5,-19 307.5,-19 307.5,0 378.5,0 378.5,-19"/>
<text text-anchor="middle" x="343" y="-7" font-family="Helvetica,sans-Serif" font-size="10.00">thread_join</text>
</a>
</g>
</g>
<!-- Node4&#45;&gt;Node12 -->
<g id="edge20_Node000004_Node000012" class="edge">
<title>Node4&#45;&gt;Node12</title>
<g id="a_edge20_Node000004_Node000012"><a xlink:title=" ">
<path fill="none" stroke="#63b8ff" d="M202.65,-164.97C215.13,-142.47 248.84,-85.09 288,-46.5 296.34,-38.28 306.72,-30.68 316.14,-24.54"/>
<polygon fill="#63b8ff" stroke="#63b8ff" points="318.17,-27.39 324.78,-19.12 314.45,-21.46 318.17,-27.39"/>
</a>
</g>
</g>
<!-- Node5&#45;&gt;Node5 -->
<g id="edge8_Node000005_Node000005" class="edge">
<title>Node5&#45;&gt;Node5</title>
<g id="a_edge8_Node000005_Node000005"><a xlink:title=" ">
<path fill="none" stroke="#63b8ff" d="M323.89,-331.08C314.59,-339.73 320.96,-349 343,-349 356.77,-349 364.43,-345.38 365.96,-340.55"/>
<polygon fill="#63b8ff" stroke="#63b8ff" points="369.12,-339.03 362.11,-331.08 362.64,-341.66 369.12,-339.03"/>
</a>
</g>
</g>
<!-- Node7&#45;&gt;Node7 -->
<g id="edge13_Node000007_Node000007" class="edge">
<title>Node7&#45;&gt;Node7</title>
<g id="a_edge13_Node000007_Node000007"><a xlink:title=" ">
<path fill="none" stroke="#63b8ff" d="M323.89,-239.08C314.59,-247.73 320.96,-257 343,-257 356.77,-257 364.43,-253.38 365.96,-248.55"/>
<polygon fill="#63b8ff" stroke="#63b8ff" points="369.12,-247.03 362.11,-239.08 362.64,-249.66 369.12,-247.03"/>
</a>
</g>
</g>
<!-- Node8 -->
<g id="Node000008" class="node">
<title>Node8</title>
<g id="a_Node000008"><a xlink:href="lock_8c.html#a2460579b5ba8ad8079d42d449d9bcc80" target="_top" xlink:title=" ">
<polygon fill="white" stroke="#666666" points="500,-239 434,-239 434,-220 500,-220 500,-239"/>
<text text-anchor="middle" x="467" y="-227" font-family="Helvetica,sans-Serif" font-size="10.00">cond_wait</text>
</a>
</g>
</g>
<!-- Node7&#45;&gt;Node8 -->
<g id="edge11_Node000007_Node000008" class="edge">
<title>Node7&#45;&gt;Node8</title>
<g id="a_edge11_Node000007_Node000008"><a xlink:title=" ">
<path fill="none" stroke="#63b8ff" d="M398.22,-229.5C406.81,-229.5 415.59,-229.5 423.85,-229.5"/>
<polygon fill="#63b8ff" stroke="#63b8ff" points="423.99,-233 433.99,-229.5 423.99,-226 423.99,-233"/>
</a>
</g>
</g>
<!-- Node8&#45;&gt;Node8 -->
<g id="edge12_Node000008_Node000008" class="edge">
<title>Node8&#45;&gt;Node8</title>
<g id="a_edge12_Node000008_Node000008"><a xlink:title=" ">
<path fill="none" stroke="#63b8ff" d="M447.89,-239.08C438.59,-247.73 444.96,-257 467,-257 480.77,-257 488.43,-253.38 489.96,-248.55"/>
<polygon fill="#63b8ff" stroke="#63b8ff" points="493.12,-247.03 486.11,-239.08 486.64,-249.66 493.12,-247.03"/>
</a>
</g>
</g>
<!-- Node9&#45;&gt;Node9 -->
<g id="edge15_Node000009_Node000009" class="edge">
<title>Node9&#45;&gt;Node9</title>
<g id="a_edge15_Node000009_Node000009"><a xlink:title=" ">
<path fill="none" stroke="#63b8ff" d="M323.89,-184.08C314.59,-192.73 320.96,-202 343,-202 356.77,-202 364.43,-198.38 365.96,-193.55"/>
<polygon fill="#63b8ff" stroke="#63b8ff" points="369.12,-192.03 362.11,-184.08 362.64,-194.66 369.12,-192.03"/>
</a>
</g>
</g>
<!-- Node10&#45;&gt;Node10 -->
<g id="edge17_Node000010_Node000010" class="edge">
<title>Node10&#45;&gt;Node10</title>
<g id="a_edge17_Node000010_Node000010"><a xlink:title=" ">
<path fill="none" stroke="#63b8ff" d="M323.89,-129.08C314.59,-137.73 320.96,-147 343,-147 356.77,-147 364.43,-143.38 365.96,-138.55"/>
<polygon fill="#63b8ff" stroke="#63b8ff" points="369.12,-137.03 362.11,-129.08 362.64,-139.66 369.12,-137.03"/>
</a>
</g>
</g>
<!-- Node11&#45;&gt;Node11 -->
<g id="edge19_Node000011_Node000011" class="edge">
<title>Node11&#45;&gt;Node11</title>
<g id="a_edge19_Node000011_Node000011"><a xlink:title=" ">
<path fill="none" stroke="#63b8ff" d="M323.89,-74.08C314.59,-82.73 320.96,-92 343,-92 356.77,-92 364.43,-88.38 365.96,-83.55"/>
<polygon fill="#63b8ff" stroke="#63b8ff" points="369.12,-82.03 362.11,-74.08 362.64,-84.66 369.12,-82.03"/>
</a>
</g>
</g>
<!-- Node12&#45;&gt;Node12 -->
<g id="edge21_Node000012_Node000012" class="edge">
<title>Node12&#45;&gt;Node12</title>
<g id="a_edge21_Node000012_Node000012"><a xlink:title=" ">
<path fill="none" stroke="#63b8ff" d="M323.89,-19.08C314.59,-27.73 320.96,-37 343,-37 356.77,-37 364.43,-33.38 365.96,-28.55"/>
<polygon fill="#63b8ff" stroke="#63b8ff" points="369.12,-27.03 362.11,-19.08 362.64,-29.66 369.12,-27.03"/>
</a>
</g>
</g>
</g>
</svg>

<g id="navigator" transform="translate(0 0)" fill="#404254">
  <rect fill="#f2f5e9" fill-opacity="0.5" stroke="#606060" stroke-width=".5" x="0" y="0" width="60" height="60"/>
  <use id="zoomplus" xlink:href="#zoomPlus" x="17" y="9" onmousedown="handleZoom(evt,'in')"/>
  <use id="zoomminus" xlink:href="#zoomMin" x="42" y="9" onmousedown="handleZoom(evt,'out')"/>
  <use id="reset" xlink:href="#resetDef" x="30" y="36" onmousedown="handleReset()"/>
   <use id="arrowup" xlink:href="#arrowUp" x="0" y="0" onmousedown="handlePan(0,-1)"/>
  <use id="arrowright" xlink:href="#arrowRight" x="0" y="0" onmousedown="handlePan(1,0)"/>
  <use id="arrowdown" xlink:href="#arrowDown" x="0" y="0" onmousedown="handlePan(0,1)"/>
  <use id="arrowleft" xlink:href="#arrowLeft" x="0" y="0" onmousedown="handlePan(-1,0)"/>
</g>
<svg viewBox="0 0 15 15" width="100%" height="30px" preserveAspectRatio="xMaxYMin meet">
 <g id="arrow_out" transform="scale(0.3 0.3)">
  <a xlink:href="threadpool_8h_a87dcbf4e1f2c693ff3252d0dc4608161_cgraph_org.svg" target="_base">
   <rect id="button" ry="5" rx="5" y="6" x="6" height="38" width="38"
        fill="#f2f5e9" fill-opacity="0.5" stroke="#606060" stroke-width="1.0"/>
   <path id="arrow"
     d="M 11.500037,31.436501 C 11.940474,20.09759 22.043105,11.32322 32.158766,21.979434 L 37.068811,17.246167 C 37.068811,17.246167 37.088388,32 37.088388,32 L 22.160133,31.978069 C 22.160133,31.978069 26.997745,27.140456 26.997745,27.140456 C 18.528582,18.264221 13.291696,25.230495 11.500037,31.436501 z"
     style="fill:#404040;"/>
  </a>
 </g>
</svg>

<style type='text/css'>
<![CDATA[
[data-mouse-over-selected='false'] { opacity: 0.7; }
[data-mouse-over-selected='true']  { opacity: 1.0; }
]]>
</style>
<script type="application/ecmascript"><![CDATA[
document.addEventListener('DOMContentLoaded', (event) => {
  highlightEdges();
  highlightAdjacentNodes();
});
]]></script>
</svg>
