<?xml version="1.0" encoding="UTF-8" standalone="no"?>
<!DOCTYPE svg PUBLIC "-//W3C//DTD SVG 1.1//EN"
 "http://www.w3.org/Graphics/SVG/1.1/DTD/svg11.dtd">
<!-- Generated by graphviz version 2.43.0 (0)
 -->
<!-- Title: threadpool_wait Pages: 1 -->
<svg width="217pt" height="155pt"
 viewBox="0.00 0.00 217.00 155.00" xmlns="http://www.w3.org/2000/svg" xmlns:xlink="http://www.w3.org/1999/xlink">
<g id="graph0" class="graph" transform="scale(1 1) rotate(0) translate(4 151)">
<title>threadpool_wait</title>
<!-- Node1 -->
<g id="Node000001" class="node">
<title>Node1</title>
<g id="a_Node000001"><a xlink:title="Block until all currently submitted tasks have completed.">
<polygon fill="#999999" stroke="#666666" points="95,-74 0,-74 0,-55 95,-55 95,-74"/>
<text text-anchor="middle" x="47.5" y="-62" font-family="Helvetica,sans-Serif" font-size="10.00">threadpool_wait</text>
</a>
</g>
</g>
<!-- Node1&#45;&gt;Node1 -->
<g id="edge7_Node000001_Node000001" class="edge">
<title>Node1&#45;&gt;Node1</title>
<g id="a_edge7_Node000001_Node000001"><a xlink:title=" ">
<path fill="none" stroke="#63b8ff" d="M28.7,-74.08C19.55,-82.73 25.82,-92 47.5,-92 61.05,-92 68.58,-88.38 70.09,-83.55"/>
<polygon fill="#63b8ff" stroke="#63b8ff" points="73.27,-82.07 66.3,-74.08 66.77,-84.67 73.27,-82.07"/>
</a>
</g>
</g>
<!-- Node2 -->
<g id="Node000002" class="node">
<title>Node2</title>
<g id="a_Node000002"><a xlink:href="lock_8c.html#a2460579b5ba8ad8079d42d449d9bcc80" target="_top" xlink:title=" ">
<polygon fill="white" stroke="#666666" points="203,-129 137,-129 137,-110 203,-110 203,-129"/>
<text text-anchor="middle" x="170" y="-117" font-family="Helvetica,sans-Serif" font-size="10.00">cond_wait</text>
</a>
</g>
</g>
<!-- Node1&#45;&gt;Node2 -->
<g id="edge1_Node000001_Node000002" class="edge">
<title>Node1&#45;&gt;Node2</title>
<g id="a_edge1_Node000001_Node000002"><a xlink:title=" ">
<path fill="none" stroke="#63b8ff" d="M69.49,-74.08C88.55,-82.78 116.9,-95.72 138.47,-105.57"/>
<polygon fill="#63b8ff" stroke="#63b8ff" points="137.3,-108.88 147.85,-109.84 140.2,-102.51 137.3,-108.88"/>
</a>
</g>
</g>
<!-- Node3 -->
<g id="Node000003" class="node">
<title>Node3</title>
<g id="a_Node000003"><a xlink:href="lock_8c.html#a6e0f8abbfb3beb4a990282bb7ca66176" target="_top" xlink:title=" ">
<polygon fill="white" stroke="#666666" points="209,-74 131,-74 131,-55 209,-55 209,-74"/>
<text text-anchor="middle" x="170" y="-62" font-family="Helvetica,sans-Serif" font-size="10.00">lock_acquire</text>
</a>
</g>
</g>
<!-- Node1&#45;&gt;Node3 -->
<g id="edge3_Node000001_Node000003" class="edge">
<title>Node1&#45;&gt;Node3</title>
<g id="a_edge3_Node000001_Node000003"><a xlink:title=" ">
<path fill="none" stroke="#63b8ff" d="M95.09,-64.5C103.47,-64.5 112.22,-64.5 120.65,-64.5"/>
<polygon fill="#63b8ff" stroke="#63b8ff" points="120.73,-68 130.73,-64.5 120.73,-61 120.73,-68"/>
</a>
</g>
</g>
<!-- Node4 -->
<g id="Node000004" class="node">
<title>Node4</title>
<g id="a_Node000004"><a xlink:href="lock_8c.html#a8e1134b81439b407581566ef62e4e099" target="_top" xlink:title=" ">
<polygon fill="white" stroke="#666666" points="209,-19 131,-19 131,0 209,0 209,-19"/>
<text text-anchor="middle" x="170" y="-7" font-family="Helvetica,sans-Serif" font-size="10.00">lock_release</text>
</a>
</g>
</g>
<!-- Node1&#45;&gt;Node4 -->
<g id="edge5_Node000001_Node000004" class="edge">
<title>Node1&#45;&gt;Node4</title>
<g id="a_edge5_Node000001_Node000004"><a xlink:title=" ">
<path fill="none" stroke="#63b8ff" d="M69.49,-54.92C88.55,-46.22 116.9,-33.28 138.47,-23.43"/>
<polygon fill="#63b8ff" stroke="#63b8ff" points="140.2,-26.49 147.85,-19.16 137.3,-20.12 140.2,-26.49"/>
</a>
</g>
</g>
<!-- Node2&#45;&gt;Node2 -->
<g id="edge2_Node000002_Node000002" class="edge">
<title>Node2&#45;&gt;Node2</title>
<g id="a_edge2_Node000002_Node000002"><a xlink:title=" ">
<path fill="none" stroke="#63b8ff" d="M151.2,-129.08C142.05,-137.73 148.32,-147 170,-147 183.55,-147 191.08,-143.38 192.59,-138.55"/>
<polygon fill="#63b8ff" stroke="#63b8ff" points="195.77,-137.07 188.8,-129.08 189.27,-139.67 195.77,-137.07"/>
</a>
</g>
</g>
<!-- Node3&#45;&gt;Node3 -->
<g id="edge4_Node000003_Node000003" class="edge">
<title>Node3&#45;&gt;Node3</title>
<g id="a_edge4_Node000003_Node000003"><a xlink:title=" ">
<path fill="none" stroke="#63b8ff" d="M151.2,-74.08C142.05,-82.73 148.32,-92 170,-92 183.55,-92 191.08,-88.38 192.59,-83.55"/>
<polygon fill="#63b8ff" stroke="#63b8ff" points="195.77,-82.07 188.8,-74.08 189.27,-84.67 195.77,-82.07"/>
</a>
</g>
</g>
<!-- Node4&#45;&gt;Node4 -->
<g id="edge6_Node000004_Node000004" class="edge">
<title>Node4&#45;&gt;Node4</title>
<g id="a_edge6_Node000004_Node000004"><a xlink:title=" ">
<path fill="none" stroke="#63b8ff" d="M151.2,-19.08C142.05,-27.73 148.32,-37 170,-37 183.55,-37 191.08,-33.38 192.59,-28.55"/>
<polygon fill="#63b8ff" stroke="#63b8ff" points="195.77,-27.07 188.8,-19.08 189.27,-29.67 195.77,-27.07"/>
</a>
</g>
</g>
</g>
</svg>
