<?xml version="1.0" encoding="UTF-8" standalone="no"?>
<!DOCTYPE svg PUBLIC "-//W3C//DTD SVG 1.1//EN"
 "http://www.w3.org/Graphics/SVG/1.1/DTD/svg11.dtd">
<!-- Generated by graphviz version 2.43.0 (0)
 -->
<!-- Title: include/thread.h Pages: 1 -->
<svg width="325pt" height="82pt"
 viewBox="0.00 0.00 325.00 82.00" xmlns="http://www.w3.org/2000/svg" xmlns:xlink="http://www.w3.org/1999/xlink">
<g id="graph0" class="graph" transform="scale(1 1) rotate(0) translate(4 78)">
<title>include/thread.h</title>
<!-- Node1 -->
<g id="Node000001" class="node">
<title>Node1</title>
<g id="a_Node000001"><a xlink:title="Cross&#45;platform thread management and system information utilities.">
<polygon fill="#999999" stroke="#666666" points="214,-74 119,-74 119,-55 214,-55 214,-74"/>
<text text-anchor="middle" x="166.5" y="-62" font-family="Helvetica,sans-Serif" font-size="10.00">include/thread.h</text>
</a>
</g>
</g>
<!-- Node2 -->
<g id="Node000002" class="node">
<title>Node2</title>
<g id="a_Node000002"><a xlink:href="chan__patterns_8c.html" target="_top" xlink:title="Implementations for the pub/sub, worker&#45;pool, and select abstractions declared in chan_patterns....">
<polygon fill="white" stroke="#666666" points="111,-19 0,-19 0,0 111,0 111,-19"/>
<text text-anchor="middle" x="55.5" y="-7" font-family="Helvetica,sans-Serif" font-size="10.00">src/chan_patterns.c</text>
</a>
</g>
</g>
<!-- Node1&#45;&gt;Node2 -->
<g id="edge1_Node000001_Node000002" class="edge">
<title>Node1&#45;&gt;Node2</title>
<g id="a_edge1_Node000001_Node000002"><a xlink:title=" ">
<path fill="none" stroke="#63b8ff" d="M139.55,-50.63C119.11,-40.87 91.55,-27.71 73.66,-19.17"/>
<polygon fill="#63b8ff" stroke="#63b8ff" points="138.13,-53.83 148.67,-54.98 141.15,-47.52 138.13,-53.83"/>
</a>
</g>
</g>
<!-- Node3 -->
<g id="Node000003" class="node">
<title>Node3</title>
<g id="a_Node000003"><a xlink:href="thread_8c_source.html" target="_top" xlink:title=" ">
<polygon fill="white" stroke="#666666" points="203.5,-19 129.5,-19 129.5,0 203.5,0 203.5,-19"/>
<text text-anchor="middle" x="166.5" y="-7" font-family="Helvetica,sans-Serif" font-size="10.00">src/thread.c</text>
</a>
</g>
</g>
<!-- Node1&#45;&gt;Node3 -->
<g id="edge2_Node000001_Node000003" class="edge">
<title>Node1&#45;&gt;Node3</title>
<g id="a_edge2_Node000001_Node000003"><a xlink:title=" ">
<path fill="none" stroke="#63b8ff" d="M166.5,-44.66C166.5,-35.93 166.5,-25.99 166.5,-19.09"/>
<polygon fill="#63b8ff" stroke="#63b8ff" points="163,-44.75 166.5,-54.75 170,-44.75 163,-44.75"/>
</a>
</g>
</g>
<!-- Node4 -->
<g id="Node000004" class="node">
<title>Node4</title>
<g id="a_Node000004"><a xlink:href="threadpool_8c_source.html" target="_top" xlink:title=" ">
<polygon fill="white" stroke="#666666" points="317,-19 222,-19 222,0 317,0 317,-19"/>
<text text-anchor="middle" x="269.5" y="-7" font-family="Helvetica,sans-Serif" font-size="10.00">src/threadpool.c</text>
</a>
</g>
</g>
<!-- Node1&#45;&gt;Node4 -->
<g id="edge3_Node000001_Node000004" class="edge">
<title>Node1&#45;&gt;Node4</title>
<g id="a_edge3_Node000001_Node000004"><a xlink:title=" ">
<path fill="none" stroke="#63b8ff" d="M192.02,-50.37C210.94,-40.63 236.2,-27.64 252.65,-19.17"/>
<polygon fill="#63b8ff" stroke="#63b8ff" points="190.34,-47.3 183.05,-54.98 193.54,-53.52 190.34,-47.3"/>
</a>
</g>
</g>
</g>
</svg>
