<?xml version="1.0" encoding="UTF-8" standalone="no"?>
<!DOCTYPE svg PUBLIC "-//W3C//DTD SVG 1.1//EN"
 "http://www.w3.org/Graphics/SVG/1.1/DTD/svg11.dtd">
<!-- Generated by graphviz version 2.43.0 (0)
 -->
<!-- Title: threadpool_destroy Pages: 1 -->
<svg width="367pt" height="302pt"
 viewBox="0.00 0.00 367.00 302.00" xmlns="http://www.w3.org/2000/svg" xmlns:xlink="http://www.w3.org/1999/xlink">

<svg id="main" version="1.1" xmlns="http://www.w3.org/2000/svg" xmlns:xlink="http://www.w3.org/1999/xlink" xml:space="preserve" onload="init(evt)">
<style type="text/css"><![CDATA[
.node, .edge {opacity: 0.7;}
.node.selected, .edge.selected {opacity: 1;}
.edge:hover path { stroke: red; }
.edge:hover polygon { stroke: red; fill: red; }
]]></style>
<script type="application/ecmascript" xlink:href="svg.min.js"/>
<svg id="graph" class="graph">
<g id="graph0" class="graph" transform="scale(1 1) rotate(0) translate(4 298)">
<title>threadpool_destroy</title>
<!-- Node1 -->
<g id="Node000001" class="node">
<title>Node1</title>
<g id="a_Node000001"><a xlink:title="Drain all pending tasks, stop all workers, and free the pool.">
<polygon fill="#999999" stroke="#666666" points="111,-156 0,-156 0,-137 111,-137 111,-156"/>
<text text-anchor="middle" x="55.5" y="-144" font-family="Helvetica,sans-Serif" font-size="10.00">threadpool_destroy</text>
</a>
</g>
</g>
<!-- Node1&#45;&gt;Node1 -->
<g id="edge14_Node000001_Node000001" class="edge">
<title>Node1&#45;&gt;Node1</title>
<g id="a_edge14_Node000001_Node000001"><a xlink:title=" ">
<path fill="none" stroke="#63b8ff" d="M33,-156.08C22.05,-164.73 29.55,-174 55.5,-174 72.12,-174 81.18,-170.2 82.66,-165.19"/>
<polygon fill="#63b8ff" stroke="#63b8ff" points="85.67,-163.39 78,-156.08 79.44,-166.58 85.67,-163.39"/>
</a>
</g>
</g>
<!-- Node2 -->
<g id="Node000002" class="node">
<title>Node2</title>
<g id="a_Node000002"><a xlink:href="lock_8c.html#a4c04565c7345b6ebf6e5a76aaa6fe108" target="_top" xlink:title=" ">
<polygon fill="white" stroke="#666666" points="234.5,-294 169.5,-294 169.5,-275 234.5,-275 234.5,-294"/>
<text text-anchor="middle" x="202" y="-282" font-family="Helvetica,sans-Serif" font-size="10.00">cond_free</text>
</a>
</g>
</g>
<!-- Node1&#45;&gt;Node2 -->
<g id="edge1_Node000001_Node000002" class="edge">
<title>Node1&#45;&gt;Node2</title>
<g id="a_edge1_Node000001_Node000002"><a xlink:title=" ">
<path fill="none" stroke="#63b8ff" d="M61.17,-156.16C72.6,-178.81 104.2,-235.74 147,-266.5 150.95,-269.34 155.39,-271.76 159.97,-273.8"/>
<polygon fill="#63b8ff" stroke="#63b8ff" points="158.88,-277.14 169.47,-277.51 161.43,-270.62 158.88,-277.14"/>
</a>
</g>
</g>
<!-- Node3 -->
<g id="Node000003" class="node">
<title>Node3</title>
<g id="a_Node000003"><a xlink:href="lock_8c.html#a817db5657996111335ebc9d470d79aaf" target="_top" xlink:title=" ">
<polygon fill="white" stroke="#666666" points="257,-239 147,-239 147,-220 257,-220 257,-239"/>
<text text-anchor="middle" x="202" y="-227" font-family="Helvetica,sans-Serif" font-size="10.00">cond_wait_timeout</text>
</a>
</g>
</g>
<!-- Node1&#45;&gt;Node3 -->
<g id="edge2_Node000001_Node000003" class="edge">
<title>Node1&#45;&gt;Node3</title>
<g id="a_edge2_Node000001_Node000003"><a xlink:title=" ">
<path fill="none" stroke="#63b8ff" d="M67.49,-156.1C83.85,-169.96 115.99,-195.66 147,-211.5 150.37,-213.22 153.93,-214.83 157.56,-216.32"/>
<polygon fill="#63b8ff" stroke="#63b8ff" points="156.64,-219.71 167.23,-219.99 159.12,-213.17 156.64,-219.71"/>
</a>
</g>
</g>
<!-- Node5 -->
<g id="Node000005" class="node">
<title>Node5</title>
<g id="a_Node000005"><a xlink:href="lock_8c.html#a6e0f8abbfb3beb4a990282bb7ca66176" target="_top" xlink:title=" ">
<polygon fill="white" stroke="#666666" points="241,-184 163,-184 163,-165 241,-165 241,-184"/>
<text text-anchor="middle" x="202" y="-172" font-family="Helvetica,sans-Serif" font-size="10.00">lock_acquire</text>
</a>
</g>
</g>
<!-- Node1&#45;&gt;Node5 -->
<g id="edge6_Node000001_Node000005" class="edge">
<title>Node1&#45;&gt;Node5</title>
<g id="a_edge6_Node000001_Node000005"><a xlink:title=" ">
<path fill="none" stroke="#63b8ff" d="M105.82,-156.06C120.97,-158.99 137.62,-162.22 152.69,-165.14"/>
<polygon fill="#63b8ff" stroke="#63b8ff" points="152.36,-168.64 162.84,-167.11 153.69,-161.77 152.36,-168.64"/>
</a>
</g>
</g>
<!-- Node6 -->
<g id="Node000006" class="node">
<title>Node6</title>
<g id="a_Node000006"><a xlink:href="lock_8c.html#abe7ed51e69cbe867fd0bc31e20d26b11" target="_top" xlink:title=" ">
<polygon fill="white" stroke="#666666" points="233,-129 171,-129 171,-110 233,-110 233,-129"/>
<text text-anchor="middle" x="202" y="-117" font-family="Helvetica,sans-Serif" font-size="10.00">lock_free</text>
</a>
</g>
</g>
<!-- Node1&#45;&gt;Node6 -->
<g id="edge8_Node000001_Node000006" class="edge">
<title>Node1&#45;&gt;Node6</title>
<g id="a_edge8_Node000001_Node000006"><a xlink:title=" ">
<path fill="none" stroke="#63b8ff" d="M107.45,-136.98C124.94,-133.71 144.27,-130.1 160.79,-127.01"/>
<polygon fill="#63b8ff" stroke="#63b8ff" points="161.49,-130.44 170.67,-125.17 160.2,-123.56 161.49,-130.44"/>
</a>
</g>
</g>
<!-- Node7 -->
<g id="Node000007" class="node">
<title>Node7</title>
<g id="a_Node000007"><a xlink:href="lock_8c.html#a8e1134b81439b407581566ef62e4e099" target="_top" xlink:title=" ">
<polygon fill="white" stroke="#666666" points="241,-74 163,-74 163,-55 241,-55 241,-74"/>
<text text-anchor="middle" x="202" y="-62" font-family="Helvetica,sans-Serif" font-size="10.00">lock_release</text>
</a>
</g>
</g>
<!-- Node1&#45;&gt;Node7 -->
<g id="edge10_Node000001_Node000007" class="edge">
<title>Node1&#45;&gt;Node7</title>
<g id="a_edge10_Node000001_Node000007"><a xlink:title=" ">
<path fill="none" stroke="#63b8ff" d="M73.36,-136.93C98.48,-122.68 145.94,-95.74 175.38,-79.04"/>
<polygon fill="#63b8ff" stroke="#63b8ff" points="177.28,-81.99 184.25,-74.01 173.82,-75.9 177.28,-81.99"/>
</a>
</g>
</g>
<!-- Node8 -->
<g id="Node000008" class="node">
<title>Node8</title>
<g id="a_Node000008"><a xlink:href="thread_8c.html#ac2ea321a5ad4280208f81ad332fe2d31" target="_top" xlink:title=" ">
<polygon fill="white" stroke="#666666" points="237.5,-19 166.5,-19 166.5,0 237.5,0 237.5,-19"/>
<text text-anchor="middle" x="202" y="-7" font-family="Helvetica,sans-Serif" font-size="10.00">thread_join</text>
</a>
</g>
</g>
<!-- Node1&#45;&gt;Node8 -->
<g id="edge12_Node000001_Node000008" class="edge">
<title>Node1&#45;&gt;Node8</title>
<g id="a_edge12_Node000001_Node000008"><a xlink:title=" ">
<path fill="none" stroke="#63b8ff" d="M64.06,-136.71C78.81,-117.97 112.96,-76.23 147,-46.5 155.95,-38.68 166.6,-31.08 176.07,-24.81"/>
<polygon fill="#63b8ff" stroke="#63b8ff" points="178.18,-27.62 184.69,-19.26 174.38,-21.74 178.18,-27.62"/>
</a>
</g>
</g>
<!-- Node3&#45;&gt;Node3 -->
<g id="edge5_Node000003_Node000003" class="edge">
<title>Node3&#45;&gt;Node3</title>
<g id="a_edge5_Node000003_Node000003"><a xlink:title=" ">
<path fill="none" stroke="#63b8ff" d="M182.89,-239.08C173.59,-247.73 179.96,-257 202,-257 215.77,-257 223.43,-253.38 224.96,-248.55"/>
<polygon fill="#63b8ff" stroke="#63b8ff" points="228.12,-247.03 221.11,-239.08 221.64,-249.66 228.12,-247.03"/>
</a>
</g>
</g>
<!-- Node4 -->
<g id="Node000004" class="node">
<title>Node4</title>
<g id="a_Node000004"><a xlink:href="lock_8c.html#a2460579b5ba8ad8079d42d449d9bcc80" target="_top" xlink:title=" ">
<polygon fill="white" stroke="#666666" points="359,-239 293,-239 293,-220 359,-220 359,-239"/>
<text text-anchor="middle" x="326" y="-227" font-family="Helvetica,sans-Serif" font-size="10.00">cond_wait</text>
</a>
</g>
</g>
<!-- Node3&#45;&gt;Node4 -->
<g id="edge3_Node000003_Node000004" class="edge">
<title>Node3&#45;&gt;Node4</title>
<g id="a_edge3_Node000003_Node000004"><a xlink:title=" ">
<path fill="none" stroke="#63b8ff" d="M257.22,-229.5C265.81,-229.5 274.59,-229.5 282.85,-229.5"/>
<polygon fill="#63b8ff" stroke="#63b8ff" points="282.99,-233 292.99,-229.5 282.99,-226 282.99,-233"/>
</a>
</g>
</g>
<!-- Node4&#45;&gt;Node4 -->
<g id="edge4_Node000004_Node000004" class="edge">
<title>Node4&#45;&gt;Node4</title>
<g id="a_edge4_Node000004_Node000004"><a xlink:title=" ">
<path fill="none" stroke="#63b8ff" d="M306.89,-239.08C297.59,-247.73 303.96,-257 326,-257 339.77,-257 347.43,-253.38 348.96,-248.55"/>
<polygon fill="#63b8ff" stroke="#63b8ff" points="352.12,-247.03 345.11,-239.08 345.64,-249.66 352.12,-247.03"/>
</a>
</g>
</g>
<!-- Node5&#45;&gt;Node5 -->
<g id="edge7_Node000005_Node000005" class="edge">
<title>Node5&#45;&gt;Node5</title>
<g id="a_edge7_Node000005_Node000005"><a xlink:title=" ">
<path fill="none" stroke="#63b8ff" d="M182.89,-184.08C173.59,-192.73 179.96,-202 202,-202 215.77,-202 223.43,-198.38 224.96,-193.55"/>
<polygon fill="#63b8ff" stroke="#63b8ff" points="228.12,-192.03 221.11,-184.08 221.64,-194.66 228.12,-192.03"/>
</a>
</g>
</g>
<!-- Node6&#45;&gt;Node6 -->
<g id="edge9_Node000006_Node000006" class="edge">
<title>Node6&#45;&gt;Node6</title>
<g id="a_edge9_Node000006_Node000006"><a xlink:title=" ">
<path fill="none" stroke="#63b8ff" d="M182.89,-129.08C173.59,-137.73 179.96,-147 202,-147 215.77,-147 223.43,-143.38 224.96,-138.55"/>
<polygon fill="#63b8ff" stroke="#63b8ff" points="228.12,-137.03 221.11,-129.08 221.64,-139.66 228.12,-137.03"/>
</a>
</g>
</g>
<!-- Node7&#45;&gt;Node7 -->
<g id="edge11_Node000007_Node000007" class="edge">
<title>Node7&#45;&gt;Node7</title>
<g id="a_edge11_Node000007_Node000007"><a xlink:title=" ">
<path fill="none" stroke="#63b8ff" d="M182.89,-74.08C173.59,-82.73 179.96,-92 202,-92 215.77,-92 223.43,-88.38 224.96,-83.55"/>
<polygon fill="#63b8ff" stroke="#63b8ff" points="228.12,-82.03 221.11,-74.08 221.64,-84.66 228.12,-82.03"/>
</a>
</g>
</g>
<!-- Node8&#45;&gt;Node8 -->
<g id="edge13_Node000008_Node000008" class="edge">
<title>Node8&#45;&gt;Node8</title>
<g id="a_edge13_Node000008_Node000008"><a xlink:title=" ">
<path fill="none" stroke="#63b8ff" d="M182.89,-19.08C173.59,-27.73 179.96,-37 202,-37 215.77,-37 223.43,-33.38 224.96,-28.55"/>
<polygon fill="#63b8ff" stroke="#63b8ff" points="228.12,-27.03 221.11,-19.08 221.64,-29.66 228.12,-27.03"/>
</a>
</g>
</g>
</g>
</svg>
</svg>

<style type='text/css'>
<![CDATA[
[data-mouse-over-selected='false'] { opacity: 0.7; }
[data-mouse-over-selected='true']  { opacity: 1.0; }
]]>
</style>
<script type="application/ecmascript"><![CDATA[
document.addEventListener('DOMContentLoaded', (event) => {
  highlightEdges();
  highlightAdjacentNodes();
});
]]></script>
</svg>
