<?xml version="1.0" encoding="UTF-8" standalone="no"?>
<!DOCTYPE svg PUBLIC "-//W3C//DTD SVG 1.1//EN"
 "http://www.w3.org/Graphics/SVG/1.1/DTD/svg11.dtd">
<!-- Generated by graphviz version 2.43.0 (0)
 -->
<!-- Title: include/trie.h Pages: 1 -->
<svg width="377pt" height="137pt"
 viewBox="0.00 0.00 376.50 137.00" xmlns="http://www.w3.org/2000/svg" xmlns:xlink="http://www.w3.org/1999/xlink">
<g id="graph0" class="graph" transform="scale(1 1) rotate(0) translate(4 133)">
<title>include/trie.h</title>
<!-- Node1 -->
<g id="Node000001" class="node">
<title>Node1</title>
<g id="a_Node000001"><a xlink:title="Trie data structure implementation for efficient string storage and retrieval.">
<polygon fill="#999999" stroke="#666666" points="240,-129 160,-129 160,-110 240,-110 240,-129"/>
<text text-anchor="middle" x="200" y="-117" font-family="Helvetica,sans-Serif" font-size="10.00">include/trie.h</text>
</a>
</g>
</g>
<!-- Node2 -->
<g id="Node000002" class="node">
<title>Node2</title>
<g id="a_Node000002"><a xlink:href="arena_8h_source.html" target="_top" xlink:title=" ">
<polygon fill="white" stroke="#666666" points="152.5,-74 99.5,-74 99.5,-55 152.5,-55 152.5,-74"/>
<text text-anchor="middle" x="126" y="-62" font-family="Helvetica,sans-Serif" font-size="10.00">arena.h</text>
</a>
</g>
</g>
<!-- Node1&#45;&gt;Node2 -->
<g id="edge1_Node000001_Node000002" class="edge">
<title>Node1&#45;&gt;Node2</title>
<g id="a_edge1_Node000001_Node000002"><a xlink:title=" ">
<path fill="none" stroke="#63b8ff" d="M188.11,-109.98C176.85,-101.92 159.71,-89.65 146.29,-80.03"/>
<polygon fill="#63b8ff" stroke="#63b8ff" points="148.27,-77.15 138.11,-74.17 144.2,-82.84 148.27,-77.15"/>
</a>
</g>
</g>
<!-- Node3 -->
<g id="Node000003" class="node">
<title>Node3</title>
<g id="a_Node000003"><a xlink:title=" ">
<polygon fill="#e0e0e0" stroke="#999999" points="62,-19 0,-19 0,0 62,0 62,-19"/>
<text text-anchor="middle" x="31" y="-7" font-family="Helvetica,sans-Serif" font-size="10.00">stdbool.h</text>
</a>
</g>
</g>
<!-- Node1&#45;&gt;Node3 -->
<g id="edge6_Node000001_Node000003" class="edge">
<title>Node1&#45;&gt;Node3</title>
<g id="a_edge6_Node000001_Node000003"><a xlink:title=" ">
<path fill="none" stroke="#63b8ff" d="M168.8,-109.91C145.74,-102.64 114.26,-90.71 90,-74 71.3,-61.11 54.14,-41.35 43.2,-27.3"/>
<polygon fill="#63b8ff" stroke="#63b8ff" points="45.78,-24.9 36.96,-19.02 40.19,-29.11 45.78,-24.9"/>
</a>
</g>
</g>
<!-- Node5 -->
<g id="Node000005" class="node">
<title>Node5</title>
<g id="a_Node000005"><a xlink:title=" ">
<polygon fill="#e0e0e0" stroke="#999999" points="207.5,-19 154.5,-19 154.5,0 207.5,0 207.5,-19"/>
<text text-anchor="middle" x="181" y="-7" font-family="Helvetica,sans-Serif" font-size="10.00">stdint.h</text>
</a>
</g>
</g>
<!-- Node1&#45;&gt;Node5 -->
<g id="edge7_Node000001_Node000005" class="edge">
<title>Node1&#45;&gt;Node5</title>
<g id="a_edge7_Node000001_Node000005"><a xlink:title=" ">
<path fill="none" stroke="#63b8ff" d="M198.45,-109.66C195.37,-92.17 188.44,-52.8 184.3,-29.27"/>
<polygon fill="#63b8ff" stroke="#63b8ff" points="187.7,-28.4 182.52,-19.16 180.81,-29.61 187.7,-28.4"/>
</a>
</g>
</g>
<!-- Node6 -->
<g id="Node000006" class="node">
<title>Node6</title>
<g id="a_Node000006"><a xlink:title=" ">
<polygon fill="#e0e0e0" stroke="#999999" points="278.5,-19 225.5,-19 225.5,0 278.5,0 278.5,-19"/>
<text text-anchor="middle" x="252" y="-7" font-family="Helvetica,sans-Serif" font-size="10.00">string.h</text>
</a>
</g>
</g>
<!-- Node1&#45;&gt;Node6 -->
<g id="edge10_Node000001_Node000006" class="edge">
<title>Node1&#45;&gt;Node6</title>
<g id="a_edge10_Node000001_Node000006"><a xlink:title=" ">
<path fill="none" stroke="#63b8ff" d="M204.26,-109.66C212.79,-91.93 232.15,-51.73 243.42,-28.32"/>
<polygon fill="#63b8ff" stroke="#63b8ff" points="246.65,-29.69 247.83,-19.16 240.34,-26.65 246.65,-29.69"/>
</a>
</g>
</g>
<!-- Node7 -->
<g id="Node000007" class="node">
<title>Node7</title>
<g id="a_Node000007"><a xlink:title=" ">
<polygon fill="#e0e0e0" stroke="#999999" points="297,-74 247,-74 247,-55 297,-55 297,-74"/>
<text text-anchor="middle" x="272" y="-62" font-family="Helvetica,sans-Serif" font-size="10.00">stdio.h</text>
</a>
</g>
</g>
<!-- Node1&#45;&gt;Node7 -->
<g id="edge8_Node000001_Node000007" class="edge">
<title>Node1&#45;&gt;Node7</title>
<g id="a_edge8_Node000001_Node000007"><a xlink:title=" ">
<path fill="none" stroke="#63b8ff" d="M211.57,-109.98C222.42,-102 238.88,-89.88 251.88,-80.31"/>
<polygon fill="#63b8ff" stroke="#63b8ff" points="254.24,-82.92 260.22,-74.17 250.09,-77.28 254.24,-82.92"/>
</a>
</g>
</g>
<!-- Node8 -->
<g id="Node000008" class="node">
<title>Node8</title>
<g id="a_Node000008"><a xlink:title=" ">
<polygon fill="#e0e0e0" stroke="#999999" points="368.5,-74 315.5,-74 315.5,-55 368.5,-55 368.5,-74"/>
<text text-anchor="middle" x="342" y="-62" font-family="Helvetica,sans-Serif" font-size="10.00">stdlib.h</text>
</a>
</g>
</g>
<!-- Node1&#45;&gt;Node8 -->
<g id="edge9_Node000001_Node000008" class="edge">
<title>Node1&#45;&gt;Node8</title>
<g id="a_edge9_Node000001_Node000008"><a xlink:title=" ">
<path fill="none" stroke="#63b8ff" d="M222.81,-109.98C246.17,-101.27 282.7,-87.63 309.17,-77.75"/>
<polygon fill="#63b8ff" stroke="#63b8ff" points="310.63,-80.95 318.77,-74.17 308.18,-74.39 310.63,-80.95"/>
</a>
</g>
</g>
<!-- Node2&#45;&gt;Node3 -->
<g id="edge2_Node000002_Node000003" class="edge">
<title>Node2&#45;&gt;Node3</title>
<g id="a_edge2_Node000002_Node000003"><a xlink:title=" ">
<path fill="none" stroke="#63b8ff" d="M110.74,-54.98C95.87,-46.69 73.02,-33.94 55.58,-24.22"/>
<polygon fill="#63b8ff" stroke="#63b8ff" points="56.98,-20.99 46.54,-19.17 53.57,-27.1 56.98,-20.99"/>
</a>
</g>
</g>
<!-- Node4 -->
<g id="Node000004" class="node">
<title>Node4</title>
<g id="a_Node000004"><a xlink:title=" ">
<polygon fill="#e0e0e0" stroke="#999999" points="136,-19 80,-19 80,0 136,0 136,-19"/>
<text text-anchor="middle" x="108" y="-7" font-family="Helvetica,sans-Serif" font-size="10.00">stddef.h</text>
</a>
</g>
</g>
<!-- Node2&#45;&gt;Node4 -->
<g id="edge3_Node000002_Node000004" class="edge">
<title>Node2&#45;&gt;Node4</title>
<g id="a_edge3_Node000002_Node000004"><a xlink:title=" ">
<path fill="none" stroke="#63b8ff" d="M123.03,-54.75C120.64,-47.72 117.21,-37.62 114.23,-28.84"/>
<polygon fill="#63b8ff" stroke="#63b8ff" points="117.45,-27.43 110.92,-19.09 110.82,-29.68 117.45,-27.43"/>
</a>
</g>
</g>
<!-- Node2&#45;&gt;Node5 -->
<g id="edge4_Node000002_Node000005" class="edge">
<title>Node2&#45;&gt;Node5</title>
<g id="a_edge4_Node000002_Node000005"><a xlink:title=" ">
<path fill="none" stroke="#63b8ff" d="M135.08,-54.75C143.09,-47.03 154.96,-35.6 164.62,-26.28"/>
<polygon fill="#63b8ff" stroke="#63b8ff" points="167.31,-28.55 172.09,-19.09 162.46,-23.51 167.31,-28.55"/>
</a>
</g>
</g>
<!-- Node2&#45;&gt;Node6 -->
<g id="edge5_Node000002_Node000006" class="edge">
<title>Node2&#45;&gt;Node6</title>
<g id="a_edge5_Node000002_Node000006"><a xlink:title=" ">
<path fill="none" stroke="#63b8ff" d="M146.24,-54.98C166.7,-46.38 198.53,-32.99 221.93,-23.15"/>
<polygon fill="#63b8ff" stroke="#63b8ff" points="223.53,-26.27 231.39,-19.17 220.81,-19.82 223.53,-26.27"/>
</a>
</g>
</g>
</g>
</svg>
