<?xml version="1.0" encoding="UTF-8" standalone="no"?>
<!DOCTYPE svg PUBLIC "-//W3C//DTD SVG 1.1//EN"
 "http://www.w3.org/Graphics/SVG/1.1/DTD/svg11.dtd">
<!-- Generated by graphviz version 2.43.0 (0)
 -->
<!-- Title: utf8_replace_all Pages: 1 -->
<svg width="266pt" height="100pt"
 viewBox="0.00 0.00 266.00 100.00" xmlns="http://www.w3.org/2000/svg" xmlns:xlink="http://www.w3.org/1999/xlink">
<g id="graph0" class="graph" transform="scale(1 1) rotate(0) translate(4 96)">
<title>utf8_replace_all</title>
<!-- Node1 -->
<g id="Node000001" class="node">
<title>Node1</title>
<g id="a_Node000001"><a xlink:title="Replaces all occurrences of a substring with another string.">
<polygon fill="#999999" stroke="#666666" points="95,-46 0,-46 0,-27 95,-27 95,-46"/>
<text text-anchor="middle" x="47.5" y="-34" font-family="Helvetica,sans-Serif" font-size="10.00">utf8_replace_all</text>
</a>
</g>
</g>
<!-- Node1&#45;&gt;Node1 -->
<g id="edge3_Node000001_Node000001" class="edge">
<title>Node1&#45;&gt;Node1</title>
<g id="a_edge3_Node000001_Node000001"><a xlink:title=" ">
<path fill="none" stroke="#63b8ff" d="M25,-46.08C14.05,-54.73 21.55,-64 47.5,-64 64.12,-64 73.18,-60.2 74.66,-55.19"/>
<polygon fill="#63b8ff" stroke="#63b8ff" points="77.67,-53.39 70,-46.08 71.44,-56.58 77.67,-53.39"/>
</a>
</g>
</g>
<!-- Node2 -->
<g id="Node000002" class="node">
<title>Node2</title>
<g id="a_Node000002"><a xlink:href="unicode_8c.html#a0b46c6da59494b8d0042d1557f77b6fe" target="_top" xlink:title="Counts the number of Unicode codepoints in a UTF&#45;8 string.">
<polygon fill="white" stroke="#666666" points="258,-74 131,-74 131,-55 258,-55 258,-74"/>
<text text-anchor="middle" x="194.5" y="-62" font-family="Helvetica,sans-Serif" font-size="10.00">utf8_count_codepoints</text>
</a>
</g>
</g>
<!-- Node1&#45;&gt;Node2 -->
<g id="edge1_Node000001_Node000002" class="edge">
<title>Node1&#45;&gt;Node2</title>
<g id="a_edge1_Node000001_Node000002"><a xlink:title=" ">
<path fill="none" stroke="#63b8ff" d="M95.18,-45.51C107.65,-47.92 121.29,-50.56 134.33,-53.07"/>
<polygon fill="#63b8ff" stroke="#63b8ff" points="133.68,-56.51 144.16,-54.97 135.01,-49.64 133.68,-56.51"/>
</a>
</g>
</g>
<!-- Node3 -->
<g id="Node000003" class="node">
<title>Node3</title>
<g id="a_Node000003"><a xlink:href="unicode_8c.html#a37b529eaefb2e43c5f2a7eda74138c13" target="_top" xlink:title="Counts the number of valid UTF&#45;8 bytes in a string.">
<polygon fill="white" stroke="#666666" points="257,-19 132,-19 132,0 257,0 257,-19"/>
<text text-anchor="middle" x="194.5" y="-7" font-family="Helvetica,sans-Serif" font-size="10.00">utf8_valid_byte_count</text>
</a>
</g>
</g>
<!-- Node1&#45;&gt;Node3 -->
<g id="edge4_Node000001_Node000003" class="edge">
<title>Node1&#45;&gt;Node3</title>
<g id="a_edge4_Node000001_Node000003"><a xlink:title=" ">
<path fill="none" stroke="#63b8ff" d="M95.18,-27.81C107.07,-25.59 120.02,-23.18 132.51,-20.86"/>
<polygon fill="#63b8ff" stroke="#63b8ff" points="133.2,-24.29 142.39,-19.02 131.92,-17.41 133.2,-24.29"/>
</a>
</g>
</g>
<!-- Node2&#45;&gt;Node2 -->
<g id="edge2_Node000002_Node000002" class="edge">
<title>Node2&#45;&gt;Node2</title>
<g id="a_edge2_Node000002_Node000002"><a xlink:title=" ">
<path fill="none" stroke="#63b8ff" d="M172,-74.08C161.05,-82.73 168.55,-92 194.5,-92 211.12,-92 220.18,-88.2 221.66,-83.19"/>
<polygon fill="#63b8ff" stroke="#63b8ff" points="224.67,-81.39 217,-74.08 218.44,-84.58 224.67,-81.39"/>
</a>
</g>
</g>
<!-- Node3&#45;&gt;Node3 -->
<g id="edge5_Node000003_Node000003" class="edge">
<title>Node3&#45;&gt;Node3</title>
<g id="a_edge5_Node000003_Node000003"><a xlink:title=" ">
<path fill="none" stroke="#63b8ff" d="M172,-19.08C161.05,-27.73 168.55,-37 194.5,-37 211.12,-37 220.18,-33.2 221.66,-28.19"/>
<polygon fill="#63b8ff" stroke="#63b8ff" points="224.67,-26.39 217,-19.08 218.44,-29.58 224.67,-26.39"/>
</a>
</g>
</g>
</g>
</svg>
