<?xml version="1.0" encoding="UTF-8" standalone="no"?>
<!DOCTYPE svg PUBLIC "-//W3C//DTD SVG 1.1//EN"
 "http://www.w3.org/Graphics/SVG/1.1/DTD/svg11.dtd">
<!-- Generated by graphviz version 2.43.0 (0)
 -->
<!-- Title: is_utf8_digit Pages: 1 -->
<svg width="226pt" height="100pt"
 viewBox="0.00 0.00 226.00 100.00" xmlns="http://www.w3.org/2000/svg" xmlns:xlink="http://www.w3.org/1999/xlink">

<svg id="main" version="1.1" xmlns="http://www.w3.org/2000/svg" xmlns:xlink="http://www.w3.org/1999/xlink" xml:space="preserve" onload="init(evt)">
<style type="text/css"><![CDATA[
.node, .edge {opacity: 0.7;}
.node.selected, .edge.selected {opacity: 1;}
.edge:hover path { stroke: red; }
.edge:hover polygon { stroke: red; fill: red; }
]]></style>
<script type="application/ecmascript" xlink:href="svg.min.js"/>
<svg id="graph" class="graph">
<g id="graph0" class="graph" transform="scale(1 1) rotate(0) translate(4 96)">
<title>is_utf8_digit</title>
<!-- Node1 -->
<g id="Node000001" class="node">
<title>Node1</title>
<g id="a_Node000001"><a xlink:title="Checks if a UTF&#45;8 character represents a digit.">
<polygon fill="#999999" stroke="#666666" points="77,-46 0,-46 0,-27 77,-27 77,-46"/>
<text text-anchor="middle" x="38.5" y="-34" font-family="Helvetica,sans-Serif" font-size="10.00">is_utf8_digit</text>
</a>
</g>
</g>
<!-- Node1&#45;&gt;Node1 -->
<g id="edge3_Node000001_Node000001" class="edge">
<title>Node1&#45;&gt;Node1</title>
<g id="a_edge3_Node000001_Node000001"><a xlink:title=" ">
<path fill="none" stroke="#63b8ff" d="M19.08,-46.08C9.63,-54.73 16.11,-64 38.5,-64 52.5,-64 60.27,-60.38 61.83,-55.55"/>
<polygon fill="#63b8ff" stroke="#63b8ff" points="64.97,-53.99 57.92,-46.08 58.5,-56.66 64.97,-53.99"/>
</a>
</g>
</g>
<!-- Node2 -->
<g id="Node000002" class="node">
<title>Node2</title>
<g id="a_Node000002"><a xlink:href="unicode_8c.html#a789d995a50209b8e9e7aa3f8c9638229" target="_top" xlink:title="Checks if a codepoint represents a digit.">
<polygon fill="white" stroke="#666666" points="218,-74 113,-74 113,-55 218,-55 218,-74"/>
<text text-anchor="middle" x="165.5" y="-62" font-family="Helvetica,sans-Serif" font-size="10.00">is_codepoint_digit</text>
</a>
</g>
</g>
<!-- Node1&#45;&gt;Node2 -->
<g id="edge1_Node000001_Node000002" class="edge">
<title>Node1&#45;&gt;Node2</title>
<g id="a_edge1_Node000001_Node000002"><a xlink:title=" ">
<path fill="none" stroke="#63b8ff" d="M77,-44.9C87.91,-47.34 100.02,-50.06 111.68,-52.67"/>
<polygon fill="#63b8ff" stroke="#63b8ff" points="111.24,-56.16 121.76,-54.93 112.77,-49.33 111.24,-56.16"/>
</a>
</g>
</g>
<!-- Node3 -->
<g id="Node000003" class="node">
<title>Node3</title>
<g id="a_Node000003"><a xlink:href="unicode_8c.html#a0075f88c12df63dda852af0ff5c41f92" target="_top" xlink:title="Decodes a UTF&#45;8 byte sequence to its Unicode codepoint.">
<polygon fill="white" stroke="#666666" points="217.5,-19 113.5,-19 113.5,0 217.5,0 217.5,-19"/>
<text text-anchor="middle" x="165.5" y="-7" font-family="Helvetica,sans-Serif" font-size="10.00">utf8_to_codepoint</text>
</a>
</g>
</g>
<!-- Node1&#45;&gt;Node3 -->
<g id="edge4_Node000001_Node000003" class="edge">
<title>Node1&#45;&gt;Node3</title>
<g id="a_edge4_Node000001_Node000003"><a xlink:title=" ">
<path fill="none" stroke="#63b8ff" d="M77,-28.4C87.57,-26.12 99.28,-23.59 110.61,-21.14"/>
<polygon fill="#63b8ff" stroke="#63b8ff" points="111.39,-24.55 120.42,-19.02 109.91,-17.71 111.39,-24.55"/>
</a>
</g>
</g>
<!-- Node2&#45;&gt;Node2 -->
<g id="edge2_Node000002_Node000002" class="edge">
<title>Node2&#45;&gt;Node2</title>
<g id="a_edge2_Node000002_Node000002"><a xlink:title=" ">
<path fill="none" stroke="#63b8ff" d="M146.08,-74.08C136.63,-82.73 143.11,-92 165.5,-92 179.5,-92 187.27,-88.38 188.83,-83.55"/>
<polygon fill="#63b8ff" stroke="#63b8ff" points="191.97,-81.99 184.92,-74.08 185.5,-84.66 191.97,-81.99"/>
</a>
</g>
</g>
<!-- Node3&#45;&gt;Node3 -->
<g id="edge5_Node000003_Node000003" class="edge">
<title>Node3&#45;&gt;Node3</title>
<g id="a_edge5_Node000003_Node000003"><a xlink:title=" ">
<path fill="none" stroke="#63b8ff" d="M146.08,-19.08C136.63,-27.73 143.11,-37 165.5,-37 179.5,-37 187.27,-33.38 188.83,-28.55"/>
<polygon fill="#63b8ff" stroke="#63b8ff" points="191.97,-26.99 184.92,-19.08 185.5,-29.66 191.97,-26.99"/>
</a>
</g>
</g>
</g>
</svg>
</svg>

<style type='text/css'>
<![CDATA[
[data-mouse-over-selected='false'] { opacity: 0.7; }
[data-mouse-over-selected='true']  { opacity: 1.0; }
]]>
</style>
<script type="application/ecmascript"><![CDATA[
document.addEventListener('DOMContentLoaded', (event) => {
  highlightEdges();
  highlightAdjacentNodes();
});
]]></script>
</svg>
