<?xml version="1.0" encoding="UTF-8" standalone="no"?>
<!DOCTYPE svg PUBLIC "-//W3C//DTD SVG 1.1//EN"
 "http://www.w3.org/Graphics/SVG/1.1/DTD/svg11.dtd">
<!-- Generated by graphviz version 2.43.0 (0)
 -->
<!-- Title: is_codepoint_digit Pages: 1 -->
<svg width="226pt" height="45pt"
 viewBox="0.00 0.00 226.00 45.00" xmlns="http://www.w3.org/2000/svg" xmlns:xlink="http://www.w3.org/1999/xlink">
<g id="graph0" class="graph" transform="scale(1 1) rotate(0) translate(4 41)">
<title>is_codepoint_digit</title>
<!-- Node1 -->
<g id="Node000001" class="node">
<title>Node1</title>
<g id="a_Node000001"><a xlink:title="Checks if a codepoint represents a digit.">
<polygon fill="#999999" stroke="#666666" points="218,-19 113,-19 113,0 218,0 218,-19"/>
<text text-anchor="middle" x="165.5" y="-7" font-family="Helvetica,sans-Serif" font-size="10.00">is_codepoint_digit</text>
</a>
</g>
</g>
<!-- Node1&#45;&gt;Node1 -->
<g id="edge1_Node000001_Node000001" class="edge">
<title>Node1&#45;&gt;Node1</title>
<g id="a_edge1_Node000001_Node000001"><a xlink:title=" ">
<path fill="none" stroke="#63b8ff" d="M188.83,-28.55C187.27,-33.38 179.5,-37 165.5,-37 143.11,-37 136.63,-27.73 146.08,-19.08"/>
<polygon fill="#63b8ff" stroke="#63b8ff" points="191.97,-26.99 184.92,-19.08 185.5,-29.66 191.97,-26.99"/>
</a>
</g>
</g>
<!-- Node2 -->
<g id="Node000002" class="node">
<title>Node2</title>
<g id="a_Node000002"><a xlink:href="unicode_8c.html#a0bb308da5e4e999b234bbb2111cdae90" target="_top" xlink:title="Checks if a UTF&#45;8 character represents a digit.">
<polygon fill="white" stroke="#666666" points="77,-19 0,-19 0,0 77,0 77,-19"/>
<text text-anchor="middle" x="38.5" y="-7" font-family="Helvetica,sans-Serif" font-size="10.00">is_utf8_digit</text>
</a>
</g>
</g>
<!-- Node1&#45;&gt;Node2 -->
<g id="edge2_Node000001_Node000002" class="edge">
<title>Node1&#45;&gt;Node2</title>
<g id="a_edge2_Node000001_Node000002"><a xlink:title=" ">
<path fill="none" stroke="#63b8ff" d="M102.75,-9.5C94.02,-9.5 85.28,-9.5 77.2,-9.5"/>
<polygon fill="#63b8ff" stroke="#63b8ff" points="102.94,-13 112.94,-9.5 102.94,-6 102.94,-13"/>
</a>
</g>
</g>
<!-- Node2&#45;&gt;Node2 -->
<g id="edge3_Node000002_Node000002" class="edge">
<title>Node2&#45;&gt;Node2</title>
<g id="a_edge3_Node000002_Node000002"><a xlink:title=" ">
<path fill="none" stroke="#63b8ff" d="M61.83,-28.55C60.27,-33.38 52.5,-37 38.5,-37 16.11,-37 9.63,-27.73 19.08,-19.08"/>
<polygon fill="#63b8ff" stroke="#63b8ff" points="64.97,-26.99 57.92,-19.08 58.5,-29.66 64.97,-26.99"/>
</a>
</g>
</g>
</g>
</svg>
