<?xml version="1.0" encoding="UTF-8" standalone="no"?>
<!DOCTYPE svg PUBLIC "-//W3C//DTD SVG 1.1//EN"
 "http://www.w3.org/Graphics/SVG/1.1/DTD/svg11.dtd">
<!-- Generated by graphviz version 2.43.0 (0)
 -->
<!-- Title: utf8_new Pages: 1 -->
<svg width="192pt" height="155pt"
 viewBox="0.00 0.00 192.00 155.00" xmlns="http://www.w3.org/2000/svg" xmlns:xlink="http://www.w3.org/1999/xlink">
<g id="graph0" class="graph" transform="scale(1 1) rotate(0) translate(4 151)">
<title>utf8_new</title>
<!-- Node1 -->
<g id="Node000001" class="node">
<title>Node1</title>
<g id="a_Node000001"><a xlink:title="Creates a new utf8_string object from a C string.">
<polygon fill="#999999" stroke="#666666" points="184,-74 122,-74 122,-55 184,-55 184,-74"/>
<text text-anchor="middle" x="153" y="-62" font-family="Helvetica,sans-Serif" font-size="10.00">utf8_new</text>
</a>
</g>
</g>
<!-- Node1&#45;&gt;Node1 -->
<g id="edge3_Node000001_Node000001" class="edge">
<title>Node1&#45;&gt;Node1</title>
<g id="a_edge3_Node000001_Node000001"><a xlink:title=" ">
<path fill="none" stroke="#63b8ff" d="M173.37,-83.55C172.01,-88.38 165.22,-92 153,-92 133.45,-92 127.8,-82.73 136.05,-74.08"/>
<polygon fill="#63b8ff" stroke="#63b8ff" points="176.64,-82.3 169.95,-74.08 170.05,-84.68 176.64,-82.3"/>
</a>
</g>
</g>
<!-- Node2 -->
<g id="Node000002" class="node">
<title>Node2</title>
<g id="a_Node000002"><a xlink:href="unicode_8c.html#ac66faa2fc9866e1f93c5496603126620" target="_top" xlink:title="Duplicates a utf8_string object.">
<polygon fill="white" stroke="#666666" points="77,-129 9,-129 9,-110 77,-110 77,-129"/>
<text text-anchor="middle" x="43" y="-117" font-family="Helvetica,sans-Serif" font-size="10.00">utf8_clone</text>
</a>
</g>
</g>
<!-- Node1&#45;&gt;Node2 -->
<g id="edge1_Node000001_Node000002" class="edge">
<title>Node1&#45;&gt;Node2</title>
<g id="a_edge1_Node000001_Node000002"><a xlink:title=" ">
<path fill="none" stroke="#63b8ff" d="M127.24,-79.2C115,-86.26 99.9,-94.65 86,-101.5 80.17,-104.38 73.76,-107.26 67.75,-109.84"/>
<polygon fill="#63b8ff" stroke="#63b8ff" points="129.1,-82.17 135.98,-74.11 125.58,-76.12 129.1,-82.17"/>
</a>
</g>
</g>
<!-- Node3 -->
<g id="Node000003" class="node">
<title>Node3</title>
<g id="a_Node000003"><a xlink:href="unicode_8c.html#a08f52fa20afe83951b5486a186f32562" target="_top" xlink:title="Reads a UTF&#45;8 string from a file.">
<polygon fill="white" stroke="#666666" points="86,-74 0,-74 0,-55 86,-55 86,-74"/>
<text text-anchor="middle" x="43" y="-62" font-family="Helvetica,sans-Serif" font-size="10.00">utf8_readfrom</text>
</a>
</g>
</g>
<!-- Node1&#45;&gt;Node3 -->
<g id="edge4_Node000001_Node000003" class="edge">
<title>Node1&#45;&gt;Node3</title>
<g id="a_edge4_Node000001_Node000003"><a xlink:title=" ">
<path fill="none" stroke="#63b8ff" d="M111.64,-64.5C103.28,-64.5 94.45,-64.5 86.03,-64.5"/>
<polygon fill="#63b8ff" stroke="#63b8ff" points="111.92,-68 121.92,-64.5 111.92,-61 111.92,-68"/>
</a>
</g>
</g>
<!-- Node4 -->
<g id="Node000004" class="node">
<title>Node4</title>
<g id="a_Node000004"><a xlink:href="unicode_8c.html#a283c63b93c8d578ec05102ff6533ae5b" target="_top" xlink:title="Splits a UTF&#45;8 string into parts using a delimiter.">
<polygon fill="white" stroke="#666666" points="74,-19 12,-19 12,0 74,0 74,-19"/>
<text text-anchor="middle" x="43" y="-7" font-family="Helvetica,sans-Serif" font-size="10.00">utf8_split</text>
</a>
</g>
</g>
<!-- Node1&#45;&gt;Node4 -->
<g id="edge6_Node000001_Node000004" class="edge">
<title>Node1&#45;&gt;Node4</title>
<g id="a_edge6_Node000001_Node000004"><a xlink:title=" ">
<path fill="none" stroke="#63b8ff" d="M124.02,-50.25C104.82,-40.47 79.86,-27.76 62.96,-19.16"/>
<polygon fill="#63b8ff" stroke="#63b8ff" points="122.69,-53.5 133.19,-54.92 125.87,-47.26 122.69,-53.5"/>
</a>
</g>
</g>
<!-- Node2&#45;&gt;Node2 -->
<g id="edge2_Node000002_Node000002" class="edge">
<title>Node2&#45;&gt;Node2</title>
<g id="a_edge2_Node000002_Node000002"><a xlink:title=" ">
<path fill="none" stroke="#63b8ff" d="M63.37,-138.55C62.01,-143.38 55.22,-147 43,-147 23.45,-147 17.8,-137.73 26.05,-129.08"/>
<polygon fill="#63b8ff" stroke="#63b8ff" points="66.64,-137.3 59.95,-129.08 60.05,-139.68 66.64,-137.3"/>
</a>
</g>
</g>
<!-- Node3&#45;&gt;Node3 -->
<g id="edge5_Node000003_Node000003" class="edge">
<title>Node3&#45;&gt;Node3</title>
<g id="a_edge5_Node000003_Node000003"><a xlink:title=" ">
<path fill="none" stroke="#63b8ff" d="M63.37,-83.55C62.01,-88.38 55.22,-92 43,-92 23.45,-92 17.8,-82.73 26.05,-74.08"/>
<polygon fill="#63b8ff" stroke="#63b8ff" points="66.64,-82.3 59.95,-74.08 60.05,-84.68 66.64,-82.3"/>
</a>
</g>
</g>
<!-- Node4&#45;&gt;Node4 -->
<g id="edge7_Node000004_Node000004" class="edge">
<title>Node4&#45;&gt;Node4</title>
<g id="a_edge7_Node000004_Node000004"><a xlink:title=" ">
<path fill="none" stroke="#63b8ff" d="M63.37,-28.55C62.01,-33.38 55.22,-37 43,-37 23.45,-37 17.8,-27.73 26.05,-19.08"/>
<polygon fill="#63b8ff" stroke="#63b8ff" points="66.64,-27.3 59.95,-19.08 60.05,-29.68 66.64,-27.3"/>
</a>
</g>
</g>
</g>
</svg>
