<?xml version="1.0" encoding="UTF-8" standalone="no"?>
<!DOCTYPE svg PUBLIC "-//W3C//DTD SVG 1.1//EN"
 "http://www.w3.org/Graphics/SVG/1.1/DTD/svg11.dtd">
<!-- Generated by graphviz version 2.43.0 (0)
 -->
<!-- Title: utf8_valid_byte_count Pages: 1 -->
<svg width="398pt" height="436pt"
 viewBox="0.00 0.00 398.00 436.00" xmlns="http://www.w3.org/2000/svg" xmlns:xlink="http://www.w3.org/1999/xlink">
<g id="graph0" class="graph" transform="scale(1 1) rotate(0) translate(4 432)">
<title>utf8_valid_byte_count</title>
<!-- Node1 -->
<g id="Node000001" class="node">
<title>Node1</title>
<g id="a_Node000001"><a xlink:title="Counts the number of valid UTF&#45;8 bytes in a string.">
<polygon fill="#999999" stroke="#666666" points="390,-224 265,-224 265,-205 390,-205 390,-224"/>
<text text-anchor="middle" x="327.5" y="-212" font-family="Helvetica,sans-Serif" font-size="10.00">utf8_valid_byte_count</text>
</a>
</g>
</g>
<!-- Node2 -->
<g id="Node000002" class="node">
<title>Node2</title>
<g id="a_Node000002"><a xlink:href="unicode_8c.html#a2a89a03f9e97d70adbc69ccfe15c5262" target="_top" xlink:title="Appends UTF&#45;8 data to the end of a utf8_string.">
<polygon fill="white" stroke="#666666" points="214,-428 137,-428 137,-409 214,-409 214,-428"/>
<text text-anchor="middle" x="175.5" y="-416" font-family="Helvetica,sans-Serif" font-size="10.00">utf8_append</text>
</a>
</g>
</g>
<!-- Node1&#45;&gt;Node2 -->
<g id="edge1_Node000001_Node000002" class="edge">
<title>Node1&#45;&gt;Node2</title>
<g id="a_edge1_Node000001_Node000002"><a xlink:title=" ">
<path fill="none" stroke="#63b8ff" d="M321.54,-233.92C310.95,-271.49 282.64,-354.47 229,-400.5 224.69,-404.2 219.57,-407.15 214.25,-409.5"/>
<polygon fill="#63b8ff" stroke="#63b8ff" points="324.93,-234.77 324.16,-224.2 318.18,-232.94 324.93,-234.77"/>
</a>
</g>
</g>
<!-- Node3 -->
<g id="Node000003" class="node">
<title>Node3</title>
<g id="a_Node000003"><a xlink:href="unicode_8c.html#a3619b219411d41dbdd9197a4d9f378a3" target="_top" xlink:title="Creates a copy of a UTF&#45;8 string containing only valid UTF&#45;8 sequences.">
<polygon fill="white" stroke="#666666" points="208,-391 143,-391 143,-372 208,-372 208,-391"/>
<text text-anchor="middle" x="175.5" y="-379" font-family="Helvetica,sans-Serif" font-size="10.00">utf8_copy</text>
</a>
</g>
</g>
<!-- Node1&#45;&gt;Node3 -->
<g id="edge2_Node000001_Node000003" class="edge">
<title>Node1&#45;&gt;Node3</title>
<g id="a_edge2_Node000001_Node000003"><a xlink:title=" ">
<path fill="none" stroke="#63b8ff" d="M318.99,-233.47C305.59,-264.95 274.61,-328.04 229,-363.5 222.91,-368.23 215.51,-371.76 208.19,-374.38"/>
<polygon fill="#63b8ff" stroke="#63b8ff" points="322.28,-234.67 322.86,-224.09 315.81,-232 322.28,-234.67"/>
</a>
</g>
</g>
<!-- Node4 -->
<g id="Node000004" class="node">
<title>Node4</title>
<g id="a_Node000004"><a xlink:href="unicode_8c.html#a3a260424f1e56ba6851f6a874e9751a2" target="_top" xlink:title="Checks if a string ends with a given suffix.">
<polygon fill="white" stroke="#666666" points="221,-354 130,-354 130,-335 221,-335 221,-354"/>
<text text-anchor="middle" x="175.5" y="-342" font-family="Helvetica,sans-Serif" font-size="10.00">utf8_ends_with</text>
</a>
</g>
</g>
<!-- Node1&#45;&gt;Node4 -->
<g id="edge3_Node000001_Node000004" class="edge">
<title>Node1&#45;&gt;Node4</title>
<g id="a_edge3_Node000001_Node000004"><a xlink:title=" ">
<path fill="none" stroke="#63b8ff" d="M315.07,-232.82C298.81,-257.45 266.76,-301.08 229,-326.5 224.04,-329.84 218.41,-332.61 212.72,-334.9"/>
<polygon fill="#63b8ff" stroke="#63b8ff" points="318.21,-234.4 320.69,-224.1 312.33,-230.61 318.21,-234.4"/>
</a>
</g>
</g>
<!-- Node5 -->
<g id="Node000005" class="node">
<title>Node5</title>
<g id="a_Node000005"><a xlink:href="unicode_8c.html#ac130f7b463a6dd213e240cc4fc8cd558" target="_top" xlink:title="Inserts UTF&#45;8 data at a specific byte index.">
<polygon fill="white" stroke="#666666" points="210,-317 141,-317 141,-298 210,-298 210,-317"/>
<text text-anchor="middle" x="175.5" y="-305" font-family="Helvetica,sans-Serif" font-size="10.00">utf8_insert</text>
</a>
</g>
</g>
<!-- Node1&#45;&gt;Node5 -->
<g id="edge4_Node000001_Node000005" class="edge">
<title>Node1&#45;&gt;Node5</title>
<g id="a_edge4_Node000001_Node000005"><a xlink:title=" ">
<path fill="none" stroke="#63b8ff" d="M309.05,-230.78C290.43,-247.43 259.48,-273.12 229,-289.5 222.97,-292.74 216.25,-295.56 209.68,-297.96"/>
<polygon fill="#63b8ff" stroke="#63b8ff" points="311.42,-233.36 316.47,-224.04 306.71,-228.18 311.42,-233.36"/>
</a>
</g>
</g>
<!-- Node6 -->
<g id="Node000006" class="node">
<title>Node6</title>
<g id="a_Node000006"><a xlink:href="unicode_8c.html#a239e5f8af941f48192b0eadaa7339a2e" target="_top" xlink:title="Finds the byte index of the last occurrence of a substring.">
<polygon fill="white" stroke="#666666" points="229,-280 122,-280 122,-261 229,-261 229,-280"/>
<text text-anchor="middle" x="175.5" y="-268" font-family="Helvetica,sans-Serif" font-size="10.00">utf8_last_index_of</text>
</a>
</g>
</g>
<!-- Node1&#45;&gt;Node6 -->
<g id="edge5_Node000001_Node000006" class="edge">
<title>Node1&#45;&gt;Node6</title>
<g id="a_edge5_Node000001_Node000006"><a xlink:title=" ">
<path fill="none" stroke="#63b8ff" d="M293.25,-227.85C274.46,-235.3 250.5,-244.63 229,-252.5 221.22,-255.35 212.74,-258.32 204.91,-261"/>
<polygon fill="#63b8ff" stroke="#63b8ff" points="294.57,-231.1 302.56,-224.15 291.98,-224.59 294.57,-231.1"/>
</a>
</g>
</g>
<!-- Node7 -->
<g id="Node000007" class="node">
<title>Node7</title>
<g id="a_Node000007"><a xlink:href="unicode_8c.html#ac8dd740b9cf9558c3b5bd89f91857d08" target="_top" xlink:title="Creates a new utf8_string object from a C string.">
<polygon fill="white" stroke="#666666" points="206.5,-243 144.5,-243 144.5,-224 206.5,-224 206.5,-243"/>
<text text-anchor="middle" x="175.5" y="-231" font-family="Helvetica,sans-Serif" font-size="10.00">utf8_new</text>
</a>
</g>
</g>
<!-- Node1&#45;&gt;Node7 -->
<g id="edge6_Node000001_Node000007" class="edge">
<title>Node1&#45;&gt;Node7</title>
<g id="a_edge6_Node000001_Node000007"><a xlink:title=" ">
<path fill="none" stroke="#63b8ff" d="M254.69,-223.6C237.75,-225.74 220.58,-227.92 206.66,-229.68"/>
<polygon fill="#63b8ff" stroke="#63b8ff" points="255.14,-227.07 264.62,-222.34 254.26,-220.12 255.14,-227.07"/>
</a>
</g>
</g>
<!-- Node10 -->
<g id="Node000010" class="node">
<title>Node10</title>
<g id="a_Node000010"><a xlink:href="unicode_8c.html#a283c63b93c8d578ec05102ff6533ae5b" target="_top" xlink:title="Splits a UTF&#45;8 string into parts using a delimiter.">
<polygon fill="white" stroke="#666666" points="74,-205 12,-205 12,-186 74,-186 74,-205"/>
<text text-anchor="middle" x="43" y="-193" font-family="Helvetica,sans-Serif" font-size="10.00">utf8_split</text>
</a>
</g>
</g>
<!-- Node1&#45;&gt;Node10 -->
<g id="edge12_Node000001_Node000010" class="edge">
<title>Node1&#45;&gt;Node10</title>
<g id="a_edge12_Node000001_Node000010"><a xlink:title=" ">
<path fill="none" stroke="#63b8ff" d="M254.59,-209.66C196.27,-205.74 116.97,-200.41 74.25,-197.53"/>
<polygon fill="#63b8ff" stroke="#63b8ff" points="254.64,-213.17 264.85,-210.35 255.11,-206.19 254.64,-213.17"/>
</a>
</g>
</g>
<!-- Node11 -->
<g id="Node000011" class="node">
<title>Node11</title>
<g id="a_Node000011"><a xlink:href="unicode_8c.html#a362e284c2424f2331d08094cb9decba0" target="_top" xlink:title="Replaces the first occurrence of a substring with another string.">
<polygon fill="white" stroke="#666666" points="214,-167 137,-167 137,-148 214,-148 214,-167"/>
<text text-anchor="middle" x="175.5" y="-155" font-family="Helvetica,sans-Serif" font-size="10.00">utf8_replace</text>
</a>
</g>
</g>
<!-- Node1&#45;&gt;Node11 -->
<g id="edge10_Node000001_Node000011" class="edge">
<title>Node1&#45;&gt;Node11</title>
<g id="a_edge10_Node000001_Node000011"><a xlink:title=" ">
<path fill="none" stroke="#63b8ff" d="M291.76,-201.3C264.21,-190.83 226.38,-176.45 201.69,-167.07"/>
<polygon fill="#63b8ff" stroke="#63b8ff" points="290.8,-204.68 301.39,-204.96 293.29,-198.14 290.8,-204.68"/>
</a>
</g>
</g>
<!-- Node12 -->
<g id="Node000012" class="node">
<title>Node12</title>
<g id="a_Node000012"><a xlink:href="unicode_8c.html#a81f33e66332d41c30b0a7c120d59a4d2" target="_top" xlink:title="Replaces all occurrences of a substring with another string.">
<polygon fill="white" stroke="#666666" points="223,-130 128,-130 128,-111 223,-111 223,-130"/>
<text text-anchor="middle" x="175.5" y="-118" font-family="Helvetica,sans-Serif" font-size="10.00">utf8_replace_all</text>
</a>
</g>
</g>
<!-- Node1&#45;&gt;Node12 -->
<g id="edge11_Node000001_Node000012" class="edge">
<title>Node1&#45;&gt;Node12</title>
<g id="a_edge11_Node000001_Node000012"><a xlink:title=" ">
<path fill="none" stroke="#63b8ff" d="M309.09,-197.99C290.51,-181.1 259.58,-155.06 229,-138.5 222.98,-135.24 216.27,-132.41 209.7,-130.01"/>
<polygon fill="#63b8ff" stroke="#63b8ff" points="306.77,-200.61 316.49,-204.82 311.52,-195.47 306.77,-200.61"/>
</a>
</g>
</g>
<!-- Node13 -->
<g id="Node000013" class="node">
<title>Node13</title>
<g id="a_Node000013"><a xlink:href="unicode_8c.html#ae86895dd5a7ff70ecb5da034bb91b032" target="_top" xlink:title="Checks if a string starts with a given prefix.">
<polygon fill="white" stroke="#666666" points="223,-93 128,-93 128,-74 223,-74 223,-93"/>
<text text-anchor="middle" x="175.5" y="-81" font-family="Helvetica,sans-Serif" font-size="10.00">utf8_starts_with</text>
</a>
</g>
</g>
<!-- Node1&#45;&gt;Node13 -->
<g id="edge13_Node000001_Node000013" class="edge">
<title>Node1&#45;&gt;Node13</title>
<g id="a_edge13_Node000001_Node000013"><a xlink:title=" ">
<path fill="none" stroke="#63b8ff" d="M315.32,-196.34C299.18,-171.55 267.07,-127.24 229,-101.5 224.05,-98.15 218.42,-95.37 212.73,-93.08"/>
<polygon fill="#63b8ff" stroke="#63b8ff" points="312.39,-198.25 320.71,-204.81 318.3,-194.49 312.39,-198.25"/>
</a>
</g>
</g>
<!-- Node14 -->
<g id="Node000014" class="node">
<title>Node14</title>
<g id="a_Node000014"><a xlink:href="unicode_8c.html#ae3f31481d188b5fbe03ca760b031677b" target="_top" xlink:title="Converts all uppercase characters to lowercase in&#45;place.">
<polygon fill="white" stroke="#666666" points="214.5,-56 136.5,-56 136.5,-37 214.5,-37 214.5,-56"/>
<text text-anchor="middle" x="175.5" y="-44" font-family="Helvetica,sans-Serif" font-size="10.00">utf8_tolower</text>
</a>
</g>
</g>
<!-- Node1&#45;&gt;Node14 -->
<g id="edge14_Node000001_Node000014" class="edge">
<title>Node1&#45;&gt;Node14</title>
<g id="a_edge14_Node000001_Node000014"><a xlink:title=" ">
<path fill="none" stroke="#63b8ff" d="M319.02,-195.4C305.67,-163.71 274.77,-100.19 229,-64.5 224.67,-61.12 219.66,-58.36 214.5,-56.1"/>
<polygon fill="#63b8ff" stroke="#63b8ff" points="315.86,-196.91 322.88,-204.85 322.34,-194.27 315.86,-196.91"/>
</a>
</g>
</g>
<!-- Node15 -->
<g id="Node000015" class="node">
<title>Node15</title>
<g id="a_Node000015"><a xlink:href="unicode_8c.html#a0695d31239b48bbee503c9191bdfc627" target="_top" xlink:title="Converts all lowercase characters to uppercase in&#45;place.">
<polygon fill="white" stroke="#666666" points="215,-19 136,-19 136,0 215,0 215,-19"/>
<text text-anchor="middle" x="175.5" y="-7" font-family="Helvetica,sans-Serif" font-size="10.00">utf8_toupper</text>
</a>
</g>
</g>
<!-- Node1&#45;&gt;Node15 -->
<g id="edge15_Node000001_Node000015" class="edge">
<title>Node1&#45;&gt;Node15</title>
<g id="a_edge15_Node000001_Node000015"><a xlink:title=" ">
<path fill="none" stroke="#63b8ff" d="M321.57,-194.98C311.04,-157.21 282.82,-73.78 229,-27.5 224.91,-23.98 220.1,-21.14 215.07,-18.85"/>
<polygon fill="#63b8ff" stroke="#63b8ff" points="318.22,-195.99 324.18,-204.75 324.98,-194.18 318.22,-195.99"/>
</a>
</g>
</g>
<!-- Node8 -->
<g id="Node000008" class="node">
<title>Node8</title>
<g id="a_Node000008"><a xlink:href="unicode_8c.html#ac66faa2fc9866e1f93c5496603126620" target="_top" xlink:title="Duplicates a utf8_string object.">
<polygon fill="white" stroke="#666666" points="77,-279 9,-279 9,-260 77,-260 77,-279"/>
<text text-anchor="middle" x="43" y="-267" font-family="Helvetica,sans-Serif" font-size="10.00">utf8_clone</text>
</a>
</g>
</g>
<!-- Node7&#45;&gt;Node8 -->
<g id="edge7_Node000007_Node000008" class="edge">
<title>Node7&#45;&gt;Node8</title>
<g id="a_edge7_Node000007_Node000008"><a xlink:title=" ">
<path fill="none" stroke="#63b8ff" d="M134.43,-244.55C116.13,-249.6 94.71,-255.51 77.31,-260.31"/>
<polygon fill="#63b8ff" stroke="#63b8ff" points="135.52,-247.88 144.23,-241.85 133.66,-241.13 135.52,-247.88"/>
</a>
</g>
</g>
<!-- Node9 -->
<g id="Node000009" class="node">
<title>Node9</title>
<g id="a_Node000009"><a xlink:href="unicode_8c.html#a08f52fa20afe83951b5486a186f32562" target="_top" xlink:title="Reads a UTF&#45;8 string from a file.">
<polygon fill="white" stroke="#666666" points="86,-242 0,-242 0,-223 86,-223 86,-242"/>
<text text-anchor="middle" x="43" y="-230" font-family="Helvetica,sans-Serif" font-size="10.00">utf8_readfrom</text>
</a>
</g>
</g>
<!-- Node7&#45;&gt;Node9 -->
<g id="edge8_Node000007_Node000009" class="edge">
<title>Node7&#45;&gt;Node9</title>
<g id="a_edge8_Node000007_Node000009"><a xlink:title=" ">
<path fill="none" stroke="#63b8ff" d="M134.14,-233.19C119.01,-233.07 101.78,-232.94 86.46,-232.83"/>
<polygon fill="#63b8ff" stroke="#63b8ff" points="134.21,-236.69 144.23,-233.27 134.26,-229.69 134.21,-236.69"/>
</a>
</g>
</g>
<!-- Node7&#45;&gt;Node10 -->
<g id="edge9_Node000007_Node000010" class="edge">
<title>Node7&#45;&gt;Node10</title>
<g id="a_edge9_Node000007_Node000010"><a xlink:title=" ">
<path fill="none" stroke="#63b8ff" d="M134.43,-221.83C114.99,-216.17 92.03,-209.48 74.1,-204.27"/>
<polygon fill="#63b8ff" stroke="#63b8ff" points="133.65,-225.25 144.23,-224.69 135.61,-218.53 133.65,-225.25"/>
</a>
</g>
</g>
</g>
</svg>
