<?xml version="1.0" encoding="UTF-8" standalone="no"?>
<!DOCTYPE svg PUBLIC "-//W3C//DTD SVG 1.1//EN"
 "http://www.w3.org/Graphics/SVG/1.1/DTD/svg11.dtd">
<!-- Generated by graphviz version 2.43.0 (0)
 -->
<!-- Title: utf8_readfrom Pages: 1 -->
<svg width="516pt" height="139pt"
 viewBox="0.00 0.00 516.00 139.00" xmlns="http://www.w3.org/2000/svg" xmlns:xlink="http://www.w3.org/1999/xlink">
<g id="graph0" class="graph" transform="scale(1 1) rotate(0) translate(4 135)">
<title>utf8_readfrom</title>
<!-- Node1 -->
<g id="Node000001" class="node">
<title>Node1</title>
<g id="a_Node000001"><a xlink:title="Reads a UTF&#45;8 string from a file.">
<polygon fill="#999999" stroke="#666666" points="86,-75 0,-75 0,-56 86,-56 86,-75"/>
<text text-anchor="middle" x="43" y="-63" font-family="Helvetica,sans-Serif" font-size="10.00">utf8_readfrom</text>
</a>
</g>
</g>
<!-- Node1&#45;&gt;Node1 -->
<g id="edge10_Node000001_Node000001" class="edge">
<title>Node1&#45;&gt;Node1</title>
<g id="a_edge10_Node000001_Node000001"><a xlink:title=" ">
<path fill="none" stroke="#63b8ff" d="M26.05,-75.08C17.8,-83.73 23.45,-93 43,-93 55.22,-93 62.01,-89.38 63.37,-84.55"/>
<polygon fill="#63b8ff" stroke="#63b8ff" points="66.64,-83.3 59.95,-75.08 60.05,-85.68 66.64,-83.3"/>
</a>
</g>
</g>
<!-- Node2 -->
<g id="Node000002" class="node">
<title>Node2</title>
<g id="a_Node000002"><a xlink:href="unicode_8c.html#ac8dd740b9cf9558c3b5bd89f91857d08" target="_top" xlink:title="Creates a new utf8_string object from a C string.">
<polygon fill="white" stroke="#666666" points="184,-75 122,-75 122,-56 184,-56 184,-75"/>
<text text-anchor="middle" x="153" y="-63" font-family="Helvetica,sans-Serif" font-size="10.00">utf8_new</text>
</a>
</g>
</g>
<!-- Node1&#45;&gt;Node2 -->
<g id="edge1_Node000001_Node000002" class="edge">
<title>Node1&#45;&gt;Node2</title>
<g id="a_edge1_Node000001_Node000002"><a xlink:title=" ">
<path fill="none" stroke="#63b8ff" d="M86.06,-65.5C94.48,-65.5 103.3,-65.5 111.65,-65.5"/>
<polygon fill="#63b8ff" stroke="#63b8ff" points="111.91,-69 121.91,-65.5 111.91,-62 111.91,-69"/>
</a>
</g>
</g>
<!-- Node2&#45;&gt;Node2 -->
<g id="edge8_Node000002_Node000002" class="edge">
<title>Node2&#45;&gt;Node2</title>
<g id="a_edge8_Node000002_Node000002"><a xlink:title=" ">
<path fill="none" stroke="#63b8ff" d="M136.05,-75.08C127.8,-83.73 133.45,-93 153,-93 165.22,-93 172.01,-89.38 173.37,-84.55"/>
<polygon fill="#63b8ff" stroke="#63b8ff" points="176.64,-83.3 169.95,-75.08 170.05,-85.68 176.64,-83.3"/>
</a>
</g>
</g>
<!-- Node3 -->
<g id="Node000003" class="node">
<title>Node3</title>
<g id="a_Node000003"><a xlink:href="unicode_8c.html#a3619b219411d41dbdd9197a4d9f378a3" target="_top" xlink:title="Creates a copy of a UTF&#45;8 string containing only valid UTF&#45;8 sequences.">
<polygon fill="white" stroke="#666666" points="316,-113 251,-113 251,-94 316,-94 316,-113"/>
<text text-anchor="middle" x="283.5" y="-101" font-family="Helvetica,sans-Serif" font-size="10.00">utf8_copy</text>
</a>
</g>
</g>
<!-- Node2&#45;&gt;Node3 -->
<g id="edge2_Node000002_Node000003" class="edge">
<title>Node2&#45;&gt;Node3</title>
<g id="a_edge2_Node000002_Node000003"><a xlink:title=" ">
<path fill="none" stroke="#63b8ff" d="M184.13,-74.41C201.11,-79.43 222.56,-85.77 241.1,-91.26"/>
<polygon fill="#63b8ff" stroke="#63b8ff" points="240.19,-94.64 250.77,-94.12 242.17,-87.92 240.19,-94.64"/>
</a>
</g>
</g>
<!-- Node4 -->
<g id="Node000004" class="node">
<title>Node4</title>
<g id="a_Node000004"><a xlink:href="unicode_8c.html#a37b529eaefb2e43c5f2a7eda74138c13" target="_top" xlink:title="Counts the number of valid UTF&#45;8 bytes in a string.">
<polygon fill="white" stroke="#666666" points="508,-94 383,-94 383,-75 508,-75 508,-94"/>
<text text-anchor="middle" x="445.5" y="-82" font-family="Helvetica,sans-Serif" font-size="10.00">utf8_valid_byte_count</text>
</a>
</g>
</g>
<!-- Node2&#45;&gt;Node4 -->
<g id="edge9_Node000002_Node000004" class="edge">
<title>Node2&#45;&gt;Node4</title>
<g id="a_edge9_Node000002_Node000004"><a xlink:title=" ">
<path fill="none" stroke="#63b8ff" d="M184.27,-67.48C228.5,-70.37 312.12,-75.84 372.66,-79.8"/>
<polygon fill="#63b8ff" stroke="#63b8ff" points="372.71,-83.31 382.92,-80.47 373.17,-76.33 372.71,-83.31"/>
</a>
</g>
</g>
<!-- Node5 -->
<g id="Node000005" class="node">
<title>Node5</title>
<g id="a_Node000005"><a xlink:href="unicode_8c.html#a0b46c6da59494b8d0042d1557f77b6fe" target="_top" xlink:title="Counts the number of Unicode codepoints in a UTF&#45;8 string.">
<polygon fill="white" stroke="#666666" points="347,-19 220,-19 220,0 347,0 347,-19"/>
<text text-anchor="middle" x="283.5" y="-7" font-family="Helvetica,sans-Serif" font-size="10.00">utf8_count_codepoints</text>
</a>
</g>
</g>
<!-- Node2&#45;&gt;Node5 -->
<g id="edge6_Node000002_Node000005" class="edge">
<title>Node2&#45;&gt;Node5</title>
<g id="a_edge6_Node000002_Node000005"><a xlink:title=" ">
<path fill="none" stroke="#63b8ff" d="M176.09,-55.87C196.81,-46.84 228,-33.25 251.27,-23.11"/>
<polygon fill="#63b8ff" stroke="#63b8ff" points="252.93,-26.2 260.7,-19 250.13,-19.79 252.93,-26.2"/>
</a>
</g>
</g>
<!-- Node3&#45;&gt;Node3 -->
<g id="edge3_Node000003_Node000003" class="edge">
<title>Node3&#45;&gt;Node3</title>
<g id="a_edge3_Node000003_Node000003"><a xlink:title=" ">
<path fill="none" stroke="#63b8ff" d="M263.46,-113.08C253.72,-121.73 260.39,-131 283.5,-131 298.3,-131 306.36,-127.2 307.68,-122.19"/>
<polygon fill="#63b8ff" stroke="#63b8ff" points="310.86,-120.73 303.54,-113.08 304.49,-123.63 310.86,-120.73"/>
</a>
</g>
</g>
<!-- Node3&#45;&gt;Node4 -->
<g id="edge4_Node000003_Node000004" class="edge">
<title>Node3&#45;&gt;Node4</title>
<g id="a_edge4_Node000003_Node000004"><a xlink:title=" ">
<path fill="none" stroke="#63b8ff" d="M316.11,-99.75C332.39,-97.81 352.96,-95.37 372.83,-93.01"/>
<polygon fill="#63b8ff" stroke="#63b8ff" points="373.31,-96.48 382.82,-91.82 372.48,-89.53 373.31,-96.48"/>
</a>
</g>
</g>
<!-- Node4&#45;&gt;Node4 -->
<g id="edge5_Node000004_Node000004" class="edge">
<title>Node4&#45;&gt;Node4</title>
<g id="a_edge5_Node000004_Node000004"><a xlink:title=" ">
<path fill="none" stroke="#63b8ff" d="M420.53,-94.08C408.38,-102.73 416.71,-112 445.5,-112 464.4,-112 474.48,-108.01 475.74,-102.82"/>
<polygon fill="#63b8ff" stroke="#63b8ff" points="478.63,-100.84 470.47,-94.08 472.64,-104.45 478.63,-100.84"/>
</a>
</g>
</g>
<!-- Node5&#45;&gt;Node5 -->
<g id="edge7_Node000005_Node000005" class="edge">
<title>Node5&#45;&gt;Node5</title>
<g id="a_edge7_Node000005_Node000005"><a xlink:title=" ">
<path fill="none" stroke="#63b8ff" d="M263.46,-19.08C253.72,-27.73 260.39,-37 283.5,-37 298.3,-37 306.36,-33.2 307.68,-28.19"/>
<polygon fill="#63b8ff" stroke="#63b8ff" points="310.86,-26.73 303.54,-19.08 304.49,-29.63 310.86,-26.73"/>
</a>
</g>
</g>
</g>
</svg>
