<?xml version="1.0" encoding="UTF-8" standalone="no"?>
<!DOCTYPE svg PUBLIC "-//W3C//DTD SVG 1.1//EN"
 "http://www.w3.org/Graphics/SVG/1.1/DTD/svg11.dtd">
<!-- Generated by graphviz version 2.43.0 (0)
 -->
<!-- Title: is_utf8_alpha Pages: 1 -->
<svg width="236pt" height="100pt"
 viewBox="0.00 0.00 236.00 100.00" xmlns="http://www.w3.org/2000/svg" xmlns:xlink="http://www.w3.org/1999/xlink">

<svg id="main" version="1.1" xmlns="http://www.w3.org/2000/svg" xmlns:xlink="http://www.w3.org/1999/xlink" xml:space="preserve" onload="init(evt)">
<style type="text/css"><![CDATA[
.node, .edge {opacity: 0.7;}
.node.selected, .edge.selected {opacity: 1;}
.edge:hover path { stroke: red; }
.edge:hover polygon { stroke: red; fill: red; }
]]></style>
<script type="application/ecmascript" xlink:href="svg.min.js"/>
<svg id="graph" class="graph">
<g id="graph0" class="graph" transform="scale(1 1) rotate(0) translate(4 96)">
<title>is_utf8_alpha</title>
<!-- Node1 -->
<g id="Node000001" class="node">
<title>Node1</title>
<g id="a_Node000001"><a xlink:title="Checks if a UTF&#45;8 character represents an alphabetic character.">
<polygon fill="#999999" stroke="#666666" points="82,-46 0,-46 0,-27 82,-27 82,-46"/>
<text text-anchor="middle" x="41" y="-34" font-family="Helvetica,sans-Serif" font-size="10.00">is_utf8_alpha</text>
</a>
</g>
</g>
<!-- Node1&#45;&gt;Node1 -->
<g id="edge3_Node000001_Node000001" class="edge">
<title>Node1&#45;&gt;Node1</title>
<g id="a_edge3_Node000001_Node000001"><a xlink:title=" ">
<path fill="none" stroke="#63b8ff" d="M20.65,-46.08C10.76,-54.73 17.54,-64 41,-64 56.03,-64 64.21,-60.2 65.55,-55.19"/>
<polygon fill="#63b8ff" stroke="#63b8ff" points="68.72,-53.69 61.35,-46.08 62.36,-56.63 68.72,-53.69"/>
</a>
</g>
</g>
<!-- Node2 -->
<g id="Node000002" class="node">
<title>Node2</title>
<g id="a_Node000002"><a xlink:href="unicode_8c.html#ae4366bfc6f2b63770cd88de3a1e93b98" target="_top" xlink:title="Checks if a codepoint represents an alphabetic character.">
<polygon fill="white" stroke="#666666" points="228,-74 118,-74 118,-55 228,-55 228,-74"/>
<text text-anchor="middle" x="173" y="-62" font-family="Helvetica,sans-Serif" font-size="10.00">is_codepoint_alpha</text>
</a>
</g>
</g>
<!-- Node1&#45;&gt;Node2 -->
<g id="edge1_Node000001_Node000002" class="edge">
<title>Node1&#45;&gt;Node2</title>
<g id="a_edge1_Node000001_Node000002"><a xlink:title=" ">
<path fill="none" stroke="#63b8ff" d="M82.07,-45.13C93.37,-47.56 105.87,-50.26 117.85,-52.84"/>
<polygon fill="#63b8ff" stroke="#63b8ff" points="117.25,-56.29 127.77,-54.97 118.73,-49.45 117.25,-56.29"/>
</a>
</g>
</g>
<!-- Node3 -->
<g id="Node000003" class="node">
<title>Node3</title>
<g id="a_Node000003"><a xlink:href="unicode_8c.html#a0075f88c12df63dda852af0ff5c41f92" target="_top" xlink:title="Decodes a UTF&#45;8 byte sequence to its Unicode codepoint.">
<polygon fill="white" stroke="#666666" points="225,-19 121,-19 121,0 225,0 225,-19"/>
<text text-anchor="middle" x="173" y="-7" font-family="Helvetica,sans-Serif" font-size="10.00">utf8_to_codepoint</text>
</a>
</g>
</g>
<!-- Node1&#45;&gt;Node3 -->
<g id="edge4_Node000001_Node000003" class="edge">
<title>Node1&#45;&gt;Node3</title>
<g id="a_edge4_Node000001_Node000003"><a xlink:title=" ">
<path fill="none" stroke="#63b8ff" d="M82.07,-28.18C92.8,-25.95 104.6,-23.5 116.02,-21.13"/>
<polygon fill="#63b8ff" stroke="#63b8ff" points="116.85,-24.53 125.93,-19.07 115.42,-17.68 116.85,-24.53"/>
</a>
</g>
</g>
<!-- Node2&#45;&gt;Node2 -->
<g id="edge2_Node000002_Node000002" class="edge">
<title>Node2&#45;&gt;Node2</title>
<g id="a_edge2_Node000002_Node000002"><a xlink:title=" ">
<path fill="none" stroke="#63b8ff" d="M152.65,-74.08C142.76,-82.73 149.54,-92 173,-92 188.03,-92 196.21,-88.2 197.55,-83.19"/>
<polygon fill="#63b8ff" stroke="#63b8ff" points="200.72,-81.69 193.35,-74.08 194.36,-84.63 200.72,-81.69"/>
</a>
</g>
</g>
<!-- Node3&#45;&gt;Node3 -->
<g id="edge5_Node000003_Node000003" class="edge">
<title>Node3&#45;&gt;Node3</title>
<g id="a_edge5_Node000003_Node000003"><a xlink:title=" ">
<path fill="none" stroke="#63b8ff" d="M152.65,-19.08C142.76,-27.73 149.54,-37 173,-37 188.03,-37 196.21,-33.2 197.55,-28.19"/>
<polygon fill="#63b8ff" stroke="#63b8ff" points="200.72,-26.69 193.35,-19.08 194.36,-29.63 200.72,-26.69"/>
</a>
</g>
</g>
</g>
</svg>
</svg>

<style type='text/css'>
<![CDATA[
[data-mouse-over-selected='false'] { opacity: 0.7; }
[data-mouse-over-selected='true']  { opacity: 1.0; }
]]>
</style>
<script type="application/ecmascript"><![CDATA[
document.addEventListener('DOMContentLoaded', (event) => {
  highlightEdges();
  highlightAdjacentNodes();
});
]]></script>
</svg>
