<?xml version="1.0" encoding="UTF-8" standalone="no"?>
<!DOCTYPE svg PUBLIC "-//W3C//DTD SVG 1.1//EN"
 "http://www.w3.org/Graphics/SVG/1.1/DTD/svg11.dtd">
<!-- Generated by graphviz version 2.43.0 (0)
 -->
<!-- Title: utf8_char_length Pages: 1 -->
<svg width="362pt" height="323pt"
 viewBox="0.00 0.00 362.00 323.00" xmlns="http://www.w3.org/2000/svg" xmlns:xlink="http://www.w3.org/1999/xlink">
<g id="graph0" class="graph" transform="scale(1 1) rotate(0) translate(4 319)">
<title>utf8_char_length</title>
<!-- Node1 -->
<g id="Node000001" class="node">
<title>Node1</title>
<g id="a_Node000001"><a xlink:title="Determines the byte length of a UTF&#45;8 character from its first byte.">
<polygon fill="#999999" stroke="#666666" points="354,-167 256,-167 256,-148 354,-148 354,-167"/>
<text text-anchor="middle" x="305" y="-155" font-family="Helvetica,sans-Serif" font-size="10.00">utf8_char_length</text>
</a>
</g>
</g>
<!-- Node2 -->
<g id="Node000002" class="node">
<title>Node2</title>
<g id="a_Node000002"><a xlink:href="unicode_8c.html#a358a6ddb4231f045fa1996354bb69b56" target="_top" xlink:title="Removes leading whitespace from a UTF&#45;8 string in&#45;place.">
<polygon fill="white" stroke="#666666" points="191.5,-315 126.5,-315 126.5,-296 191.5,-296 191.5,-315"/>
<text text-anchor="middle" x="159" y="-303" font-family="Helvetica,sans-Serif" font-size="10.00">utf8_ltrim</text>
</a>
</g>
</g>
<!-- Node1&#45;&gt;Node2 -->
<g id="edge1_Node000001_Node000002" class="edge">
<title>Node1&#45;&gt;Node2</title>
<g id="a_edge1_Node000001_Node000002"><a xlink:title=" ">
<path fill="none" stroke="#63b8ff" d="M296.59,-176.97C284.74,-205.46 258.86,-258.3 220,-287.5 211.74,-293.71 201.35,-297.78 191.54,-300.46"/>
<polygon fill="#63b8ff" stroke="#63b8ff" points="299.97,-177.92 300.44,-167.34 293.47,-175.32 299.97,-177.92"/>
</a>
</g>
</g>
<!-- Node4 -->
<g id="Node000004" class="node">
<title>Node4</title>
<g id="a_Node000004"><a xlink:href="unicode_8c.html#afec2f1cc66175b8c06fb77db9ebc6f17" target="_top" xlink:title="Prints the Unicode codepoints in U+XXXX format to stdout.">
<polygon fill="white" stroke="#666666" points="220,-278 98,-278 98,-259 220,-259 220,-278"/>
<text text-anchor="middle" x="159" y="-266" font-family="Helvetica,sans-Serif" font-size="10.00">utf8_print_codepoints</text>
</a>
</g>
</g>
<!-- Node1&#45;&gt;Node4 -->
<g id="edge3_Node000001_Node000004" class="edge">
<title>Node1&#45;&gt;Node4</title>
<g id="a_edge3_Node000001_Node000004"><a xlink:title=" ">
<path fill="none" stroke="#63b8ff" d="M292.26,-175.62C277.73,-196.62 251.08,-230.85 220,-250.5 214.67,-253.87 208.67,-256.64 202.59,-258.9"/>
<polygon fill="#63b8ff" stroke="#63b8ff" points="295.2,-177.5 297.88,-167.25 289.4,-173.6 295.2,-177.5"/>
</a>
</g>
</g>
<!-- Node5 -->
<g id="Node000005" class="node">
<title>Node5</title>
<g id="a_Node000005"><a xlink:href="unicode_8c.html#a4ce6007dd7a0d0c5ff36f94324fb265b" target="_top" xlink:title="Removes a specified number of codepoints starting at a byte index.">
<polygon fill="white" stroke="#666666" points="198.5,-241 119.5,-241 119.5,-222 198.5,-222 198.5,-241"/>
<text text-anchor="middle" x="159" y="-229" font-family="Helvetica,sans-Serif" font-size="10.00">utf8_remove</text>
</a>
</g>
</g>
<!-- Node1&#45;&gt;Node5 -->
<g id="edge4_Node000001_Node000005" class="edge">
<title>Node1&#45;&gt;Node5</title>
<g id="a_edge4_Node000001_Node000005"><a xlink:title=" ">
<path fill="none" stroke="#63b8ff" d="M283.9,-173.39C267.49,-185.74 243.28,-202.55 220,-213.5 213.11,-216.74 205.5,-219.55 198.09,-221.93"/>
<polygon fill="#63b8ff" stroke="#63b8ff" points="286.35,-175.92 292.16,-167.06 282.09,-170.37 286.35,-175.92"/>
</a>
</g>
</g>
<!-- Node6 -->
<g id="Node000006" class="node">
<title>Node6</title>
<g id="a_Node000006"><a xlink:href="unicode_8c.html#acefe22dc4e8ecc7cdf5748382c0ee2be" target="_top" xlink:title="Reverses a UTF&#45;8 string by codepoints.">
<polygon fill="white" stroke="#666666" points="198,-204 120,-204 120,-185 198,-185 198,-204"/>
<text text-anchor="middle" x="159" y="-192" font-family="Helvetica,sans-Serif" font-size="10.00">utf8_reverse</text>
</a>
</g>
</g>
<!-- Node1&#45;&gt;Node6 -->
<g id="edge5_Node000001_Node000006" class="edge">
<title>Node1&#45;&gt;Node6</title>
<g id="a_edge5_Node000001_Node000006"><a xlink:title=" ">
<path fill="none" stroke="#63b8ff" d="M257.09,-169.55C237.77,-174.52 215.68,-180.19 197.46,-184.88"/>
<polygon fill="#63b8ff" stroke="#63b8ff" points="258.1,-172.91 266.92,-167.03 256.36,-166.13 258.1,-172.91"/>
</a>
</g>
</g>
<!-- Node7 -->
<g id="Node000007" class="node">
<title>Node7</title>
<g id="a_Node000007"><a xlink:href="unicode_8c.html#a673ecb04bcd3fc52c6222a67233a8ce1" target="_top" xlink:title="Removes trailing whitespace from a UTF&#45;8 string in&#45;place.">
<polygon fill="white" stroke="#666666" points="191.5,-167 126.5,-167 126.5,-148 191.5,-148 191.5,-167"/>
<text text-anchor="middle" x="159" y="-155" font-family="Helvetica,sans-Serif" font-size="10.00">utf8_rtrim</text>
</a>
</g>
</g>
<!-- Node1&#45;&gt;Node7 -->
<g id="edge6_Node000001_Node000007" class="edge">
<title>Node1&#45;&gt;Node7</title>
<g id="a_edge6_Node000001_Node000007"><a xlink:title=" ">
<path fill="none" stroke="#63b8ff" d="M245.58,-157.5C227.16,-157.5 207.52,-157.5 191.7,-157.5"/>
<polygon fill="#63b8ff" stroke="#63b8ff" points="245.65,-161 255.65,-157.5 245.65,-154 245.65,-161"/>
</a>
</g>
</g>
<!-- Node8 -->
<g id="Node000008" class="node">
<title>Node8</title>
<g id="a_Node000008"><a xlink:href="unicode_8c.html#a283c63b93c8d578ec05102ff6533ae5b" target="_top" xlink:title="Splits a UTF&#45;8 string into parts using a delimiter.">
<polygon fill="white" stroke="#666666" points="190,-130 128,-130 128,-111 190,-111 190,-130"/>
<text text-anchor="middle" x="159" y="-118" font-family="Helvetica,sans-Serif" font-size="10.00">utf8_split</text>
</a>
</g>
</g>
<!-- Node1&#45;&gt;Node8 -->
<g id="edge8_Node000001_Node000008" class="edge">
<title>Node1&#45;&gt;Node8</title>
<g id="a_edge8_Node000001_Node000008"><a xlink:title=" ">
<path fill="none" stroke="#63b8ff" d="M257.1,-145.45C235.11,-139.8 209.55,-133.23 190.17,-128.25"/>
<polygon fill="#63b8ff" stroke="#63b8ff" points="256.36,-148.87 266.92,-147.97 258.1,-142.09 256.36,-148.87"/>
</a>
</g>
</g>
<!-- Node9 -->
<g id="Node000009" class="node">
<title>Node9</title>
<g id="a_Node000009"><a xlink:href="unicode_8c.html#ae3f31481d188b5fbe03ca760b031677b" target="_top" xlink:title="Converts all uppercase characters to lowercase in&#45;place.">
<polygon fill="white" stroke="#666666" points="198,-93 120,-93 120,-74 198,-74 198,-93"/>
<text text-anchor="middle" x="159" y="-81" font-family="Helvetica,sans-Serif" font-size="10.00">utf8_tolower</text>
</a>
</g>
</g>
<!-- Node1&#45;&gt;Node9 -->
<g id="edge9_Node000001_Node000009" class="edge">
<title>Node1&#45;&gt;Node9</title>
<g id="a_edge9_Node000001_Node000009"><a xlink:title=" ">
<path fill="none" stroke="#63b8ff" d="M283.52,-141.8C267.07,-129.76 242.99,-113.41 220,-102.5 212.4,-98.89 203.94,-95.74 195.83,-93.09"/>
<polygon fill="#63b8ff" stroke="#63b8ff" points="281.72,-144.82 291.83,-147.98 285.9,-139.2 281.72,-144.82"/>
</a>
</g>
</g>
<!-- Node10 -->
<g id="Node000010" class="node">
<title>Node10</title>
<g id="a_Node000010"><a xlink:href="unicode_8c.html#a0695d31239b48bbee503c9191bdfc627" target="_top" xlink:title="Converts all lowercase characters to uppercase in&#45;place.">
<polygon fill="white" stroke="#666666" points="198.5,-56 119.5,-56 119.5,-37 198.5,-37 198.5,-56"/>
<text text-anchor="middle" x="159" y="-44" font-family="Helvetica,sans-Serif" font-size="10.00">utf8_toupper</text>
</a>
</g>
</g>
<!-- Node1&#45;&gt;Node10 -->
<g id="edge10_Node000001_Node000010" class="edge">
<title>Node1&#45;&gt;Node10</title>
<g id="a_edge10_Node000001_Node000010"><a xlink:title=" ">
<path fill="none" stroke="#63b8ff" d="M291.96,-139.38C277.3,-118.67 250.66,-85.1 220,-65.5 213.56,-61.38 206.15,-58.09 198.79,-55.49"/>
<polygon fill="#63b8ff" stroke="#63b8ff" points="289.27,-141.65 297.83,-147.9 295.04,-137.68 289.27,-141.65"/>
</a>
</g>
</g>
<!-- Node11 -->
<g id="Node000011" class="node">
<title>Node11</title>
<g id="a_Node000011"><a xlink:href="unicode_8c.html#afec6fd3b06a385932c453e975a34d3ce" target="_top" xlink:title="Removes leading and trailing characters from a UTF&#45;8 string in&#45;place.">
<polygon fill="white" stroke="#666666" points="205.5,-19 112.5,-19 112.5,0 205.5,0 205.5,-19"/>
<text text-anchor="middle" x="159" y="-7" font-family="Helvetica,sans-Serif" font-size="10.00">utf8_trim_chars</text>
</a>
</g>
</g>
<!-- Node1&#45;&gt;Node11 -->
<g id="edge11_Node000001_Node000011" class="edge">
<title>Node1&#45;&gt;Node11</title>
<g id="a_edge11_Node000001_Node000011"><a xlink:title=" ">
<path fill="none" stroke="#63b8ff" d="M296.49,-138.26C284.52,-110.08 258.48,-57.76 220,-28.5 214.87,-24.6 208.92,-21.49 202.79,-19.01"/>
<polygon fill="#63b8ff" stroke="#63b8ff" points="293.36,-139.85 300.38,-147.78 299.84,-137.2 293.36,-139.85"/>
</a>
</g>
</g>
<!-- Node3 -->
<g id="Node000003" class="node">
<title>Node3</title>
<g id="a_Node000003"><a xlink:href="unicode_8c.html#a8ec9a3447456e99105106536e4dfe39a" target="_top" xlink:title="Removes leading and trailing whitespace from a UTF&#45;8 string in&#45;place.">
<polygon fill="white" stroke="#666666" points="62,-241 0,-241 0,-222 62,-222 62,-241"/>
<text text-anchor="middle" x="31" y="-229" font-family="Helvetica,sans-Serif" font-size="10.00">utf8_trim</text>
</a>
</g>
</g>
<!-- Node2&#45;&gt;Node3 -->
<g id="edge2_Node000002_Node000003" class="edge">
<title>Node2&#45;&gt;Node3</title>
<g id="a_edge2_Node000002_Node000003"><a xlink:title=" ">
<path fill="none" stroke="#63b8ff" d="M116.34,-295.45C110.02,-293.23 103.71,-290.6 98,-287.5 75.02,-275.02 52.79,-253.64 40.9,-241.21"/>
<polygon fill="#63b8ff" stroke="#63b8ff" points="115.6,-298.89 126.19,-298.59 117.73,-292.22 115.6,-298.89"/>
</a>
</g>
</g>
<!-- Node7&#45;&gt;Node3 -->
<g id="edge7_Node000007_Node000003" class="edge">
<title>Node7&#45;&gt;Node3</title>
<g id="a_edge7_Node000007_Node000003"><a xlink:title=" ">
<path fill="none" stroke="#63b8ff" d="M116.37,-168.36C110.04,-170.66 103.72,-173.37 98,-176.5 75.49,-188.82 53.44,-209.41 41.39,-221.6"/>
<polygon fill="#63b8ff" stroke="#63b8ff" points="117.85,-171.55 126.23,-165.06 115.63,-164.91 117.85,-171.55"/>
</a>
</g>
</g>
</g>
</svg>
