<?xml version="1.0" encoding="UTF-8" standalone="no"?>
<!DOCTYPE svg PUBLIC "-//W3C//DTD SVG 1.1//EN"
 "http://www.w3.org/Graphics/SVG/1.1/DTD/svg11.dtd">
<!-- Generated by graphviz version 2.43.0 (0)
 -->
<!-- Title: utf8_tolower Pages: 1 -->
<svg width="247pt" height="210pt"
 viewBox="0.00 0.00 247.00 210.00" xmlns="http://www.w3.org/2000/svg" xmlns:xlink="http://www.w3.org/1999/xlink">

<svg id="main" version="1.1" xmlns="http://www.w3.org/2000/svg" xmlns:xlink="http://www.w3.org/1999/xlink" xml:space="preserve" onload="init(evt)">
<style type="text/css"><![CDATA[
.node, .edge {opacity: 0.7;}
.node.selected, .edge.selected {opacity: 1;}
.edge:hover path { stroke: red; }
.edge:hover polygon { stroke: red; fill: red; }
]]></style>
<script type="application/ecmascript" xlink:href="svg.min.js"/>
<svg id="graph" class="graph">
<g id="graph0" class="graph" transform="scale(1 1) rotate(0) translate(4 206)">
<title>utf8_tolower</title>
<!-- Node1 -->
<g id="Node000001" class="node">
<title>Node1</title>
<g id="a_Node000001"><a xlink:title="Converts all uppercase characters to lowercase in&#45;place.">
<polygon fill="#999999" stroke="#666666" points="78,-101 0,-101 0,-82 78,-82 78,-101"/>
<text text-anchor="middle" x="39" y="-89" font-family="Helvetica,sans-Serif" font-size="10.00">utf8_tolower</text>
</a>
</g>
</g>
<!-- Node1&#45;&gt;Node1 -->
<g id="edge7_Node000001_Node000001" class="edge">
<title>Node1&#45;&gt;Node1</title>
<g id="a_edge7_Node000001_Node000001"><a xlink:title=" ">
<path fill="none" stroke="#63b8ff" d="M18.04,-101.08C7.84,-109.73 14.83,-119 39,-119 54.49,-119 62.92,-115.2 64.3,-110.19"/>
<polygon fill="#63b8ff" stroke="#63b8ff" points="67.42,-108.61 59.96,-101.08 61.1,-111.62 67.42,-108.61"/>
</a>
</g>
</g>
<!-- Node2 -->
<g id="Node000002" class="node">
<title>Node2</title>
<g id="a_Node000002"><a xlink:href="unicode_8c.html#ac77efa8b1e4a603e25b5639f716bcebc" target="_top" xlink:title="Converts a Unicode codepoint to its UTF&#45;8 byte sequence.">
<polygon fill="white" stroke="#666666" points="213.5,-184 139.5,-184 139.5,-165 213.5,-165 213.5,-184"/>
<text text-anchor="middle" x="176.5" y="-172" font-family="Helvetica,sans-Serif" font-size="10.00">ucp_to_utf8</text>
</a>
</g>
</g>
<!-- Node1&#45;&gt;Node2 -->
<g id="edge1_Node000001_Node000002" class="edge">
<title>Node1&#45;&gt;Node2</title>
<g id="a_edge1_Node000001_Node000002"><a xlink:title=" ">
<path fill="none" stroke="#63b8ff" d="M48.56,-101.36C61.4,-115.56 87.03,-141.67 114,-156.5 118.87,-159.18 124.19,-161.5 129.59,-163.5"/>
<polygon fill="#63b8ff" stroke="#63b8ff" points="128.73,-166.9 139.32,-166.76 130.95,-160.26 128.73,-166.9"/>
</a>
</g>
</g>
<!-- Node3 -->
<g id="Node000003" class="node">
<title>Node3</title>
<g id="a_Node000003"><a xlink:href="unicode_8c.html#aadba4a5c759cfb7674c3dfe42351e952" target="_top" xlink:title="Determines the byte length of a UTF&#45;8 character from its first byte.">
<polygon fill="white" stroke="#666666" points="225.5,-129 127.5,-129 127.5,-110 225.5,-110 225.5,-129"/>
<text text-anchor="middle" x="176.5" y="-117" font-family="Helvetica,sans-Serif" font-size="10.00">utf8_char_length</text>
</a>
</g>
</g>
<!-- Node1&#45;&gt;Node3 -->
<g id="edge3_Node000001_Node000003" class="edge">
<title>Node1&#45;&gt;Node3</title>
<g id="a_edge3_Node000001_Node000003"><a xlink:title=" ">
<path fill="none" stroke="#63b8ff" d="M78.1,-99.37C90.95,-102.03 105.58,-105.05 119.51,-107.93"/>
<polygon fill="#63b8ff" stroke="#63b8ff" points="119,-111.4 129.5,-110 120.42,-104.54 119,-111.4"/>
</a>
</g>
</g>
<!-- Node4 -->
<g id="Node000004" class="node">
<title>Node4</title>
<g id="a_Node000004"><a xlink:href="unicode_8c.html#a0075f88c12df63dda852af0ff5c41f92" target="_top" xlink:title="Decodes a UTF&#45;8 byte sequence to its Unicode codepoint.">
<polygon fill="white" stroke="#666666" points="228.5,-74 124.5,-74 124.5,-55 228.5,-55 228.5,-74"/>
<text text-anchor="middle" x="176.5" y="-62" font-family="Helvetica,sans-Serif" font-size="10.00">utf8_to_codepoint</text>
</a>
</g>
</g>
<!-- Node1&#45;&gt;Node4 -->
<g id="edge5_Node000001_Node000004" class="edge">
<title>Node1&#45;&gt;Node4</title>
<g id="a_edge5_Node000001_Node000004"><a xlink:title=" ">
<path fill="none" stroke="#63b8ff" d="M78.1,-83.91C90.33,-81.47 104.16,-78.72 117.48,-76.06"/>
<polygon fill="#63b8ff" stroke="#63b8ff" points="118.4,-79.45 127.53,-74.06 117.04,-72.58 118.4,-79.45"/>
</a>
</g>
</g>
<!-- Node5 -->
<g id="Node000005" class="node">
<title>Node5</title>
<g id="a_Node000005"><a xlink:href="unicode_8c.html#a37b529eaefb2e43c5f2a7eda74138c13" target="_top" xlink:title="Counts the number of valid UTF&#45;8 bytes in a string.">
<polygon fill="white" stroke="#666666" points="239,-19 114,-19 114,0 239,0 239,-19"/>
<text text-anchor="middle" x="176.5" y="-7" font-family="Helvetica,sans-Serif" font-size="10.00">utf8_valid_byte_count</text>
</a>
</g>
</g>
<!-- Node1&#45;&gt;Node5 -->
<g id="edge8_Node000001_Node000005" class="edge">
<title>Node1&#45;&gt;Node5</title>
<g id="a_edge8_Node000001_Node000005"><a xlink:title=" ">
<path fill="none" stroke="#63b8ff" d="M55.58,-82C70.54,-72.87 93.8,-58.72 114,-46.5 126.08,-39.19 139.51,-31.11 150.73,-24.37"/>
<polygon fill="#63b8ff" stroke="#63b8ff" points="152.79,-27.21 159.56,-19.06 149.18,-21.21 152.79,-27.21"/>
</a>
</g>
</g>
<!-- Node2&#45;&gt;Node2 -->
<g id="edge2_Node000002_Node000002" class="edge">
<title>Node2&#45;&gt;Node2</title>
<g id="a_edge2_Node000002_Node000002"><a xlink:title=" ">
<path fill="none" stroke="#63b8ff" d="M155.54,-184.08C145.34,-192.73 152.33,-202 176.5,-202 191.99,-202 200.42,-198.2 201.8,-193.19"/>
<polygon fill="#63b8ff" stroke="#63b8ff" points="204.92,-191.61 197.46,-184.08 198.6,-194.62 204.92,-191.61"/>
</a>
</g>
</g>
<!-- Node3&#45;&gt;Node3 -->
<g id="edge4_Node000003_Node000003" class="edge">
<title>Node3&#45;&gt;Node3</title>
<g id="a_edge4_Node000003_Node000003"><a xlink:title=" ">
<path fill="none" stroke="#63b8ff" d="M155.54,-129.08C145.34,-137.73 152.33,-147 176.5,-147 191.99,-147 200.42,-143.2 201.8,-138.19"/>
<polygon fill="#63b8ff" stroke="#63b8ff" points="204.92,-136.61 197.46,-129.08 198.6,-139.62 204.92,-136.61"/>
</a>
</g>
</g>
<!-- Node4&#45;&gt;Node4 -->
<g id="edge6_Node000004_Node000004" class="edge">
<title>Node4&#45;&gt;Node4</title>
<g id="a_edge6_Node000004_Node000004"><a xlink:title=" ">
<path fill="none" stroke="#63b8ff" d="M155.54,-74.08C145.34,-82.73 152.33,-92 176.5,-92 191.99,-92 200.42,-88.2 201.8,-83.19"/>
<polygon fill="#63b8ff" stroke="#63b8ff" points="204.92,-81.61 197.46,-74.08 198.6,-84.62 204.92,-81.61"/>
</a>
</g>
</g>
<!-- Node5&#45;&gt;Node5 -->
<g id="edge9_Node000005_Node000005" class="edge">
<title>Node5&#45;&gt;Node5</title>
<g id="a_edge9_Node000005_Node000005"><a xlink:title=" ">
<path fill="none" stroke="#63b8ff" d="M155.54,-19.08C145.34,-27.73 152.33,-37 176.5,-37 191.99,-37 200.42,-33.2 201.8,-28.19"/>
<polygon fill="#63b8ff" stroke="#63b8ff" points="204.92,-26.61 197.46,-19.08 198.6,-29.62 204.92,-26.61"/>
</a>
</g>
</g>
</g>
</svg>
</svg>

<style type='text/css'>
<![CDATA[
[data-mouse-over-selected='false'] { opacity: 0.7; }
[data-mouse-over-selected='true']  { opacity: 1.0; }
]]>
</style>
<script type="application/ecmascript"><![CDATA[
document.addEventListener('DOMContentLoaded', (event) => {
  highlightEdges();
  highlightAdjacentNodes();
});
]]></script>
</svg>
