<?xml version="1.0" encoding="UTF-8" standalone="no"?>
<!DOCTYPE svg PUBLIC "-//W3C//DTD SVG 1.1//EN"
 "http://www.w3.org/Graphics/SVG/1.1/DTD/svg11.dtd">
<!-- Generated by graphviz version 2.43.0 (0)
 -->
<!-- Title: utf8_insert Pages: 1 -->
<svg width="240pt" height="100pt"
 viewBox="0.00 0.00 240.00 100.00" xmlns="http://www.w3.org/2000/svg" xmlns:xlink="http://www.w3.org/1999/xlink">
<g id="graph0" class="graph" transform="scale(1 1) rotate(0) translate(4 96)">
<title>utf8_insert</title>
<!-- Node1 -->
<g id="Node000001" class="node">
<title>Node1</title>
<g id="a_Node000001"><a xlink:title="Inserts UTF&#45;8 data at a specific byte index.">
<polygon fill="#999999" stroke="#666666" points="69,-46 0,-46 0,-27 69,-27 69,-46"/>
<text text-anchor="middle" x="34.5" y="-34" font-family="Helvetica,sans-Serif" font-size="10.00">utf8_insert</text>
</a>
</g>
</g>
<!-- Node1&#45;&gt;Node1 -->
<g id="edge3_Node000001_Node000001" class="edge">
<title>Node1&#45;&gt;Node1</title>
<g id="a_edge3_Node000001_Node000001"><a xlink:title=" ">
<path fill="none" stroke="#63b8ff" d="M13.85,-46.08C3.8,-54.73 10.68,-64 34.5,-64 49.76,-64 58.07,-60.2 59.43,-55.19"/>
<polygon fill="#63b8ff" stroke="#63b8ff" points="62.57,-53.65 55.15,-46.08 56.23,-56.62 62.57,-53.65"/>
</a>
</g>
</g>
<!-- Node2 -->
<g id="Node000002" class="node">
<title>Node2</title>
<g id="a_Node000002"><a xlink:href="unicode_8c.html#a0b46c6da59494b8d0042d1557f77b6fe" target="_top" xlink:title="Counts the number of Unicode codepoints in a UTF&#45;8 string.">
<polygon fill="white" stroke="#666666" points="232,-74 105,-74 105,-55 232,-55 232,-74"/>
<text text-anchor="middle" x="168.5" y="-62" font-family="Helvetica,sans-Serif" font-size="10.00">utf8_count_codepoints</text>
</a>
</g>
</g>
<!-- Node1&#45;&gt;Node2 -->
<g id="edge1_Node000001_Node000002" class="edge">
<title>Node1&#45;&gt;Node2</title>
<g id="a_edge1_Node000001_Node000002"><a xlink:title=" ">
<path fill="none" stroke="#63b8ff" d="M69.15,-43.64C82.31,-46.43 97.74,-49.7 112.44,-52.82"/>
<polygon fill="#63b8ff" stroke="#63b8ff" points="111.94,-56.29 122.45,-54.94 113.39,-49.45 111.94,-56.29"/>
</a>
</g>
</g>
<!-- Node3 -->
<g id="Node000003" class="node">
<title>Node3</title>
<g id="a_Node000003"><a xlink:href="unicode_8c.html#a37b529eaefb2e43c5f2a7eda74138c13" target="_top" xlink:title="Counts the number of valid UTF&#45;8 bytes in a string.">
<polygon fill="white" stroke="#666666" points="231,-19 106,-19 106,0 231,0 231,-19"/>
<text text-anchor="middle" x="168.5" y="-7" font-family="Helvetica,sans-Serif" font-size="10.00">utf8_valid_byte_count</text>
</a>
</g>
</g>
<!-- Node1&#45;&gt;Node3 -->
<g id="edge4_Node000001_Node000003" class="edge">
<title>Node1&#45;&gt;Node3</title>
<g id="a_edge4_Node000001_Node000003"><a xlink:title=" ">
<path fill="none" stroke="#63b8ff" d="M69.15,-29.62C81.81,-27.03 96.58,-24.01 110.77,-21.1"/>
<polygon fill="#63b8ff" stroke="#63b8ff" points="111.87,-24.45 120.96,-19.02 110.46,-17.59 111.87,-24.45"/>
</a>
</g>
</g>
<!-- Node2&#45;&gt;Node2 -->
<g id="edge2_Node000002_Node000002" class="edge">
<title>Node2&#45;&gt;Node2</title>
<g id="a_edge2_Node000002_Node000002"><a xlink:title=" ">
<path fill="none" stroke="#63b8ff" d="M147.85,-74.08C137.8,-82.73 144.68,-92 168.5,-92 183.76,-92 192.07,-88.2 193.43,-83.19"/>
<polygon fill="#63b8ff" stroke="#63b8ff" points="196.57,-81.65 189.15,-74.08 190.23,-84.62 196.57,-81.65"/>
</a>
</g>
</g>
<!-- Node3&#45;&gt;Node3 -->
<g id="edge5_Node000003_Node000003" class="edge">
<title>Node3&#45;&gt;Node3</title>
<g id="a_edge5_Node000003_Node000003"><a xlink:title=" ">
<path fill="none" stroke="#63b8ff" d="M147.85,-19.08C137.8,-27.73 144.68,-37 168.5,-37 183.76,-37 192.07,-33.2 193.43,-28.19"/>
<polygon fill="#63b8ff" stroke="#63b8ff" points="196.57,-26.65 189.15,-19.08 190.23,-29.62 196.57,-26.65"/>
</a>
</g>
</g>
</g>
</svg>
