<?xml version="1.0" encoding="UTF-8" standalone="no"?>
<!DOCTYPE svg PUBLIC "-//W3C//DTD SVG 1.1//EN"
 "http://www.w3.org/Graphics/SVG/1.1/DTD/svg11.dtd">
<!-- Generated by graphviz version 2.43.0 (0)
 -->
<!-- Title: utf8_new Pages: 1 -->
<svg width="394pt" height="139pt"
 viewBox="0.00 0.00 394.00 139.00" xmlns="http://www.w3.org/2000/svg" xmlns:xlink="http://www.w3.org/1999/xlink">
<g id="graph0" class="graph" transform="scale(1 1) rotate(0) translate(4 135)">
<title>utf8_new</title>
<!-- Node1 -->
<g id="Node000001" class="node">
<title>Node1</title>
<g id="a_Node000001"><a xlink:title="Creates a new utf8_string object from a C string.">
<polygon fill="#999999" stroke="#666666" points="62,-75 0,-75 0,-56 62,-56 62,-75"/>
<text text-anchor="middle" x="31" y="-63" font-family="Helvetica,sans-Serif" font-size="10.00">utf8_new</text>
</a>
</g>
</g>
<!-- Node1&#45;&gt;Node1 -->
<g id="edge7_Node000001_Node000001" class="edge">
<title>Node1&#45;&gt;Node1</title>
<g id="a_edge7_Node000001_Node000001"><a xlink:title=" ">
<path fill="none" stroke="#63b8ff" d="M10.96,-75.08C1.22,-83.73 7.89,-93 31,-93 45.8,-93 53.86,-89.2 55.18,-84.19"/>
<polygon fill="#63b8ff" stroke="#63b8ff" points="58.36,-82.73 51.04,-75.08 51.99,-85.63 58.36,-82.73"/>
</a>
</g>
</g>
<!-- Node2 -->
<g id="Node000002" class="node">
<title>Node2</title>
<g id="a_Node000002"><a xlink:href="unicode_8c.html#a3619b219411d41dbdd9197a4d9f378a3" target="_top" xlink:title="Creates a copy of a UTF&#45;8 string containing only valid UTF&#45;8 sequences.">
<polygon fill="white" stroke="#666666" points="194,-113 129,-113 129,-94 194,-94 194,-113"/>
<text text-anchor="middle" x="161.5" y="-101" font-family="Helvetica,sans-Serif" font-size="10.00">utf8_copy</text>
</a>
</g>
</g>
<!-- Node1&#45;&gt;Node2 -->
<g id="edge1_Node000001_Node000002" class="edge">
<title>Node1&#45;&gt;Node2</title>
<g id="a_edge1_Node000001_Node000002"><a xlink:title=" ">
<path fill="none" stroke="#63b8ff" d="M62.13,-74.41C79.11,-79.43 100.56,-85.77 119.1,-91.26"/>
<polygon fill="#63b8ff" stroke="#63b8ff" points="118.19,-94.64 128.77,-94.12 120.17,-87.92 118.19,-94.64"/>
</a>
</g>
</g>
<!-- Node3 -->
<g id="Node000003" class="node">
<title>Node3</title>
<g id="a_Node000003"><a xlink:href="unicode_8c.html#a37b529eaefb2e43c5f2a7eda74138c13" target="_top" xlink:title="Counts the number of valid UTF&#45;8 bytes in a string.">
<polygon fill="white" stroke="#666666" points="386,-94 261,-94 261,-75 386,-75 386,-94"/>
<text text-anchor="middle" x="323.5" y="-82" font-family="Helvetica,sans-Serif" font-size="10.00">utf8_valid_byte_count</text>
</a>
</g>
</g>
<!-- Node1&#45;&gt;Node3 -->
<g id="edge8_Node000001_Node000003" class="edge">
<title>Node1&#45;&gt;Node3</title>
<g id="a_edge8_Node000001_Node000003"><a xlink:title=" ">
<path fill="none" stroke="#63b8ff" d="M62.27,-67.48C106.5,-70.37 190.12,-75.84 250.66,-79.8"/>
<polygon fill="#63b8ff" stroke="#63b8ff" points="250.71,-83.31 260.92,-80.47 251.17,-76.33 250.71,-83.31"/>
</a>
</g>
</g>
<!-- Node4 -->
<g id="Node000004" class="node">
<title>Node4</title>
<g id="a_Node000004"><a xlink:href="unicode_8c.html#a0b46c6da59494b8d0042d1557f77b6fe" target="_top" xlink:title="Counts the number of Unicode codepoints in a UTF&#45;8 string.">
<polygon fill="white" stroke="#666666" points="225,-19 98,-19 98,0 225,0 225,-19"/>
<text text-anchor="middle" x="161.5" y="-7" font-family="Helvetica,sans-Serif" font-size="10.00">utf8_count_codepoints</text>
</a>
</g>
</g>
<!-- Node1&#45;&gt;Node4 -->
<g id="edge5_Node000001_Node000004" class="edge">
<title>Node1&#45;&gt;Node4</title>
<g id="a_edge5_Node000001_Node000004"><a xlink:title=" ">
<path fill="none" stroke="#63b8ff" d="M54.09,-55.87C74.81,-46.84 106,-33.25 129.27,-23.11"/>
<polygon fill="#63b8ff" stroke="#63b8ff" points="130.93,-26.2 138.7,-19 128.13,-19.79 130.93,-26.2"/>
</a>
</g>
</g>
<!-- Node2&#45;&gt;Node2 -->
<g id="edge2_Node000002_Node000002" class="edge">
<title>Node2&#45;&gt;Node2</title>
<g id="a_edge2_Node000002_Node000002"><a xlink:title=" ">
<path fill="none" stroke="#63b8ff" d="M141.46,-113.08C131.72,-121.73 138.39,-131 161.5,-131 176.3,-131 184.36,-127.2 185.68,-122.19"/>
<polygon fill="#63b8ff" stroke="#63b8ff" points="188.86,-120.73 181.54,-113.08 182.49,-123.63 188.86,-120.73"/>
</a>
</g>
</g>
<!-- Node2&#45;&gt;Node3 -->
<g id="edge3_Node000002_Node000003" class="edge">
<title>Node2&#45;&gt;Node3</title>
<g id="a_edge3_Node000002_Node000003"><a xlink:title=" ">
<path fill="none" stroke="#63b8ff" d="M194.11,-99.75C210.39,-97.81 230.96,-95.37 250.83,-93.01"/>
<polygon fill="#63b8ff" stroke="#63b8ff" points="251.31,-96.48 260.82,-91.82 250.48,-89.53 251.31,-96.48"/>
</a>
</g>
</g>
<!-- Node3&#45;&gt;Node3 -->
<g id="edge4_Node000003_Node000003" class="edge">
<title>Node3&#45;&gt;Node3</title>
<g id="a_edge4_Node000003_Node000003"><a xlink:title=" ">
<path fill="none" stroke="#63b8ff" d="M298.53,-94.08C286.38,-102.73 294.71,-112 323.5,-112 342.4,-112 352.48,-108.01 353.74,-102.82"/>
<polygon fill="#63b8ff" stroke="#63b8ff" points="356.63,-100.84 348.47,-94.08 350.64,-104.45 356.63,-100.84"/>
</a>
</g>
</g>
<!-- Node4&#45;&gt;Node4 -->
<g id="edge6_Node000004_Node000004" class="edge">
<title>Node4&#45;&gt;Node4</title>
<g id="a_edge6_Node000004_Node000004"><a xlink:title=" ">
<path fill="none" stroke="#63b8ff" d="M141.46,-19.08C131.72,-27.73 138.39,-37 161.5,-37 176.3,-37 184.36,-33.2 185.68,-28.19"/>
<polygon fill="#63b8ff" stroke="#63b8ff" points="188.86,-26.73 181.54,-19.08 182.49,-29.63 188.86,-26.73"/>
</a>
</g>
</g>
</g>
</svg>
