<?xml version="1.0" encoding="UTF-8" standalone="no"?>
<!DOCTYPE svg PUBLIC "-//W3C//DTD SVG 1.1//EN"
 "http://www.w3.org/Graphics/SVG/1.1/DTD/svg11.dtd">
<!-- Generated by graphviz version 2.43.0 (0)
 -->
<!-- Title: utf8_concat Pages: 1 -->
<svg width="252pt" height="45pt"
 viewBox="0.00 0.00 252.00 45.00" xmlns="http://www.w3.org/2000/svg" xmlns:xlink="http://www.w3.org/1999/xlink">
<g id="graph0" class="graph" transform="scale(1 1) rotate(0) translate(4 41)">
<title>utf8_concat</title>
<!-- Node1 -->
<g id="Node000001" class="node">
<title>Node1</title>
<g id="a_Node000001"><a xlink:title="Concatenates two utf8_string objects into a new string.">
<polygon fill="#999999" stroke="#666666" points="74,-19 0,-19 0,0 74,0 74,-19"/>
<text text-anchor="middle" x="37" y="-7" font-family="Helvetica,sans-Serif" font-size="10.00">utf8_concat</text>
</a>
</g>
</g>
<!-- Node1&#45;&gt;Node1 -->
<g id="edge1_Node000001_Node000001" class="edge">
<title>Node1&#45;&gt;Node1</title>
<g id="a_edge1_Node000001_Node000001"><a xlink:title=" ">
<path fill="none" stroke="#63b8ff" d="M15.42,-19.08C4.92,-27.73 12.12,-37 37,-37 52.94,-37 61.62,-33.2 63.04,-28.19"/>
<polygon fill="#63b8ff" stroke="#63b8ff" points="66.12,-26.52 58.58,-19.08 59.84,-29.6 66.12,-26.52"/>
</a>
</g>
</g>
<!-- Node2 -->
<g id="Node000002" class="node">
<title>Node2</title>
<g id="a_Node000002"><a xlink:href="unicode_8c.html#a09009cfa7f3d90e4792c2bd731709794" target="_top" xlink:title="Creates an empty utf8_string with preallocated capacity.">
<polygon fill="white" stroke="#666666" points="244,-19 110,-19 110,0 244,0 244,-19"/>
<text text-anchor="middle" x="177" y="-7" font-family="Helvetica,sans-Serif" font-size="10.00">utf8_new_with_capacity</text>
</a>
</g>
</g>
<!-- Node1&#45;&gt;Node2 -->
<g id="edge2_Node000001_Node000002" class="edge">
<title>Node1&#45;&gt;Node2</title>
<g id="a_edge2_Node000001_Node000002"><a xlink:title=" ">
<path fill="none" stroke="#63b8ff" d="M74.26,-9.5C82.21,-9.5 90.91,-9.5 99.77,-9.5"/>
<polygon fill="#63b8ff" stroke="#63b8ff" points="99.82,-13 109.82,-9.5 99.82,-6 99.82,-13"/>
</a>
</g>
</g>
<!-- Node2&#45;&gt;Node2 -->
<g id="edge3_Node000002_Node000002" class="edge">
<title>Node2&#45;&gt;Node2</title>
<g id="a_edge3_Node000002_Node000002"><a xlink:title=" ">
<path fill="none" stroke="#63b8ff" d="M155.42,-19.08C144.92,-27.73 152.12,-37 177,-37 192.94,-37 201.62,-33.2 203.04,-28.19"/>
<polygon fill="#63b8ff" stroke="#63b8ff" points="206.12,-26.52 198.58,-19.08 199.84,-29.6 206.12,-26.52"/>
</a>
</g>
</g>
</g>
</svg>
