<?xml version="1.0" encoding="UTF-8" standalone="no"?>
<!DOCTYPE svg PUBLIC "-//W3C//DTD SVG 1.1//EN"
 "http://www.w3.org/Graphics/SVG/1.1/DTD/svg11.dtd">
<!-- Generated by graphviz version 2.43.0 (0)
 -->
<!-- Title: is_utf8_whitespace Pages: 1 -->
<svg width="293pt" height="100pt"
 viewBox="0.00 0.00 293.00 100.00" xmlns="http://www.w3.org/2000/svg" xmlns:xlink="http://www.w3.org/1999/xlink">
<g id="graph0" class="graph" transform="scale(1 1) rotate(0) translate(4 96)">
<title>is_utf8_whitespace</title>
<!-- Node1 -->
<g id="Node000001" class="node">
<title>Node1</title>
<g id="a_Node000001"><a xlink:title="Checks if a UTF&#45;8 character represents whitespace.">
<polygon fill="#999999" stroke="#666666" points="110,-46 0,-46 0,-27 110,-27 110,-46"/>
<text text-anchor="middle" x="55" y="-34" font-family="Helvetica,sans-Serif" font-size="10.00">is_utf8_whitespace</text>
</a>
</g>
</g>
<!-- Node1&#45;&gt;Node1 -->
<g id="edge3_Node000001_Node000001" class="edge">
<title>Node1&#45;&gt;Node1</title>
<g id="a_edge3_Node000001_Node000001"><a xlink:title=" ">
<path fill="none" stroke="#63b8ff" d="M30.34,-46.08C18.34,-54.73 26.56,-64 55,-64 73.66,-64 83.62,-60.01 84.87,-54.82"/>
<polygon fill="#63b8ff" stroke="#63b8ff" points="87.79,-52.88 79.66,-46.08 81.77,-56.47 87.79,-52.88"/>
</a>
</g>
</g>
<!-- Node2 -->
<g id="Node000002" class="node">
<title>Node2</title>
<g id="a_Node000002"><a xlink:href="unicode_8c.html#a5ae688f76f23047d722b9884a106bf09" target="_top" xlink:title="Checks if a codepoint represents whitespace.">
<polygon fill="white" stroke="#666666" points="285,-74 146,-74 146,-55 285,-55 285,-74"/>
<text text-anchor="middle" x="215.5" y="-62" font-family="Helvetica,sans-Serif" font-size="10.00">is_codepoint_whitespace</text>
</a>
</g>
</g>
<!-- Node1&#45;&gt;Node2 -->
<g id="edge1_Node000001_Node000002" class="edge">
<title>Node1&#45;&gt;Node2</title>
<g id="a_edge1_Node000001_Node000002"><a xlink:title=" ">
<path fill="none" stroke="#63b8ff" d="M110.1,-46.06C123.11,-48.36 137.12,-50.83 150.53,-53.2"/>
<polygon fill="#63b8ff" stroke="#63b8ff" points="150.18,-56.69 160.64,-54.99 151.4,-49.8 150.18,-56.69"/>
</a>
</g>
</g>
<!-- Node3 -->
<g id="Node000003" class="node">
<title>Node3</title>
<g id="a_Node000003"><a xlink:href="unicode_8c.html#a0075f88c12df63dda852af0ff5c41f92" target="_top" xlink:title="Decodes a UTF&#45;8 byte sequence to its Unicode codepoint.">
<polygon fill="white" stroke="#666666" points="267.5,-19 163.5,-19 163.5,0 267.5,0 267.5,-19"/>
<text text-anchor="middle" x="215.5" y="-7" font-family="Helvetica,sans-Serif" font-size="10.00">utf8_to_codepoint</text>
</a>
</g>
</g>
<!-- Node1&#45;&gt;Node3 -->
<g id="edge4_Node000001_Node000003" class="edge">
<title>Node1&#45;&gt;Node3</title>
<g id="a_edge4_Node000001_Node000003"><a xlink:title=" ">
<path fill="none" stroke="#63b8ff" d="M110.1,-27.28C123.96,-24.92 138.96,-22.37 153.15,-19.95"/>
<polygon fill="#63b8ff" stroke="#63b8ff" points="154.04,-23.35 163.31,-18.22 152.87,-16.45 154.04,-23.35"/>
</a>
</g>
</g>
<!-- Node2&#45;&gt;Node2 -->
<g id="edge2_Node000002_Node000002" class="edge">
<title>Node2&#45;&gt;Node2</title>
<g id="a_edge2_Node000002_Node000002"><a xlink:title=" ">
<path fill="none" stroke="#63b8ff" d="M190.84,-74.08C178.84,-82.73 187.06,-92 215.5,-92 234.16,-92 244.12,-88.01 245.37,-82.82"/>
<polygon fill="#63b8ff" stroke="#63b8ff" points="248.29,-80.88 240.16,-74.08 242.27,-84.47 248.29,-80.88"/>
</a>
</g>
</g>
<!-- Node3&#45;&gt;Node3 -->
<g id="edge5_Node000003_Node000003" class="edge">
<title>Node3&#45;&gt;Node3</title>
<g id="a_edge5_Node000003_Node000003"><a xlink:title=" ">
<path fill="none" stroke="#63b8ff" d="M190.84,-19.08C178.84,-27.73 187.06,-37 215.5,-37 234.16,-37 244.12,-33.01 245.37,-27.82"/>
<polygon fill="#63b8ff" stroke="#63b8ff" points="248.29,-25.88 240.16,-19.08 242.27,-29.47 248.29,-25.88"/>
</a>
</g>
</g>
</g>
</svg>
