<?xml version="1.0" encoding="UTF-8" standalone="no"?>
<!DOCTYPE svg PUBLIC "-//W3C//DTD SVG 1.1//EN"
 "http://www.w3.org/Graphics/SVG/1.1/DTD/svg11.dtd">
<!-- Generated by graphviz version 2.43.0 (0)
 -->
<!-- Title: utf8_split Pages: 1 -->
<svg width="528pt" height="251pt"
 viewBox="0.00 0.00 528.00 251.00" xmlns="http://www.w3.org/2000/svg" xmlns:xlink="http://www.w3.org/1999/xlink">
<g id="graph0" class="graph" transform="scale(1 1) rotate(0) translate(4 247)">
<title>utf8_split</title>
<!-- Node1 -->
<g id="Node000001" class="node">
<title>Node1</title>
<g id="a_Node000001"><a xlink:title="Splits a UTF&#45;8 string into parts using a delimiter.">
<polygon fill="#999999" stroke="#666666" points="62,-131 0,-131 0,-112 62,-112 62,-131"/>
<text text-anchor="middle" x="31" y="-119" font-family="Helvetica,sans-Serif" font-size="10.00">utf8_split</text>
</a>
</g>
</g>
<!-- Node1&#45;&gt;Node1 -->
<g id="edge13_Node000001_Node000001" class="edge">
<title>Node1&#45;&gt;Node1</title>
<g id="a_edge13_Node000001_Node000001"><a xlink:title=" ">
<path fill="none" stroke="#63b8ff" d="M13.12,-131.08C4.42,-139.73 10.38,-149 31,-149 43.89,-149 51.05,-145.38 52.48,-140.55"/>
<polygon fill="#63b8ff" stroke="#63b8ff" points="55.7,-139.19 48.88,-131.08 49.16,-141.67 55.7,-139.19"/>
</a>
</g>
</g>
<!-- Node2 -->
<g id="Node000002" class="node">
<title>Node2</title>
<g id="a_Node000002"><a xlink:href="unicode_8c.html#aadba4a5c759cfb7674c3dfe42351e952" target="_top" xlink:title="Determines the byte length of a UTF&#45;8 character from its first byte.">
<polygon fill="white" stroke="#666666" points="196,-225 98,-225 98,-206 196,-206 196,-225"/>
<text text-anchor="middle" x="147" y="-213" font-family="Helvetica,sans-Serif" font-size="10.00">utf8_char_length</text>
</a>
</g>
</g>
<!-- Node1&#45;&gt;Node2 -->
<g id="edge1_Node000001_Node000002" class="edge">
<title>Node1&#45;&gt;Node2</title>
<g id="a_edge1_Node000001_Node000002"><a xlink:title=" ">
<path fill="none" stroke="#63b8ff" d="M39.24,-131.12C50.54,-145.64 73.6,-173.36 98,-191.5 102.79,-195.06 108.19,-198.34 113.59,-201.26"/>
<polygon fill="#63b8ff" stroke="#63b8ff" points="112.08,-204.42 122.58,-205.82 115.24,-198.17 112.08,-204.42"/>
</a>
</g>
</g>
<!-- Node3 -->
<g id="Node000003" class="node">
<title>Node3</title>
<g id="a_Node000003"><a xlink:href="unicode_8c.html#a0b46c6da59494b8d0042d1557f77b6fe" target="_top" xlink:title="Counts the number of Unicode codepoints in a UTF&#45;8 string.">
<polygon fill="white" stroke="#666666" points="359,-206 232,-206 232,-187 359,-187 359,-206"/>
<text text-anchor="middle" x="295.5" y="-194" font-family="Helvetica,sans-Serif" font-size="10.00">utf8_count_codepoints</text>
</a>
</g>
</g>
<!-- Node1&#45;&gt;Node3 -->
<g id="edge3_Node000001_Node000003" class="edge">
<title>Node1&#45;&gt;Node3</title>
<g id="a_edge3_Node000001_Node000003"><a xlink:title=" ">
<path fill="none" stroke="#63b8ff" d="M46.04,-131.13C58.98,-139.57 79,-151.54 98,-158.5 137.52,-172.97 183.62,-182.25 221.24,-188.02"/>
<polygon fill="#63b8ff" stroke="#63b8ff" points="221.21,-191.55 231.61,-189.55 222.23,-184.63 221.21,-191.55"/>
</a>
</g>
</g>
<!-- Node4 -->
<g id="Node000004" class="node">
<title>Node4</title>
<g id="a_Node000004"><a xlink:href="unicode_8c.html#ac8dd740b9cf9558c3b5bd89f91857d08" target="_top" xlink:title="Creates a new utf8_string object from a C string.">
<polygon fill="white" stroke="#666666" points="178,-131 116,-131 116,-112 178,-112 178,-131"/>
<text text-anchor="middle" x="147" y="-119" font-family="Helvetica,sans-Serif" font-size="10.00">utf8_new</text>
</a>
</g>
</g>
<!-- Node1&#45;&gt;Node4 -->
<g id="edge5_Node000001_Node000004" class="edge">
<title>Node1&#45;&gt;Node4</title>
<g id="a_edge5_Node000001_Node000004"><a xlink:title=" ">
<path fill="none" stroke="#63b8ff" d="M62.25,-121.5C75.52,-121.5 91.29,-121.5 105.55,-121.5"/>
<polygon fill="#63b8ff" stroke="#63b8ff" points="105.61,-125 115.61,-121.5 105.61,-118 105.61,-125"/>
</a>
</g>
</g>
<!-- Node6 -->
<g id="Node000006" class="node">
<title>Node6</title>
<g id="a_Node000006"><a xlink:href="unicode_8c.html#a37b529eaefb2e43c5f2a7eda74138c13" target="_top" xlink:title="Counts the number of valid UTF&#45;8 bytes in a string.">
<polygon fill="white" stroke="#666666" points="520,-94 395,-94 395,-75 520,-75 520,-94"/>
<text text-anchor="middle" x="457.5" y="-82" font-family="Helvetica,sans-Serif" font-size="10.00">utf8_valid_byte_count</text>
</a>
</g>
</g>
<!-- Node1&#45;&gt;Node6 -->
<g id="edge17_Node000001_Node000006" class="edge">
<title>Node1&#45;&gt;Node6</title>
<g id="a_edge17_Node000001_Node000006"><a xlink:title=" ">
<path fill="none" stroke="#63b8ff" d="M62.3,-112.03C73.43,-108.87 86.19,-105.62 98,-103.5 196.08,-85.88 311.49,-82.86 384.32,-83.07"/>
<polygon fill="#63b8ff" stroke="#63b8ff" points="384.73,-86.57 394.75,-83.13 384.77,-79.57 384.73,-86.57"/>
</a>
</g>
</g>
<!-- Node7 -->
<g id="Node000007" class="node">
<title>Node7</title>
<g id="a_Node000007"><a xlink:href="unicode_8c.html#ae86895dd5a7ff70ecb5da034bb91b032" target="_top" xlink:title="Checks if a string starts with a given prefix.">
<polygon fill="white" stroke="#666666" points="343,-19 248,-19 248,0 343,0 343,-19"/>
<text text-anchor="middle" x="295.5" y="-7" font-family="Helvetica,sans-Serif" font-size="10.00">utf8_starts_with</text>
</a>
</g>
</g>
<!-- Node1&#45;&gt;Node7 -->
<g id="edge14_Node000001_Node000007" class="edge">
<title>Node1&#45;&gt;Node7</title>
<g id="a_edge14_Node000001_Node000007"><a xlink:title=" ">
<path fill="none" stroke="#63b8ff" d="M38.37,-111.58C48.84,-96.14 71.22,-66.58 98,-51.5 141.02,-27.29 196.52,-17.01 237.56,-12.66"/>
<polygon fill="#63b8ff" stroke="#63b8ff" points="238.05,-16.13 247.66,-11.67 237.37,-9.16 238.05,-16.13"/>
</a>
</g>
</g>
<!-- Node2&#45;&gt;Node2 -->
<g id="edge2_Node000002_Node000002" class="edge">
<title>Node2&#45;&gt;Node2</title>
<g id="a_edge2_Node000002_Node000002"><a xlink:title=" ">
<path fill="none" stroke="#63b8ff" d="M129.12,-225.08C120.42,-233.73 126.38,-243 147,-243 159.89,-243 167.05,-239.38 168.48,-234.55"/>
<polygon fill="#63b8ff" stroke="#63b8ff" points="171.7,-233.19 164.88,-225.08 165.16,-235.67 171.7,-233.19"/>
</a>
</g>
</g>
<!-- Node3&#45;&gt;Node3 -->
<g id="edge4_Node000003_Node000003" class="edge">
<title>Node3&#45;&gt;Node3</title>
<g id="a_edge4_Node000003_Node000003"><a xlink:title=" ">
<path fill="none" stroke="#63b8ff" d="M272.69,-206.08C261.59,-214.73 269.2,-224 295.5,-224 312.35,-224 321.53,-220.2 323.03,-215.19"/>
<polygon fill="#63b8ff" stroke="#63b8ff" points="326.02,-213.35 318.31,-206.08 319.8,-216.57 326.02,-213.35"/>
</a>
</g>
</g>
<!-- Node4&#45;&gt;Node3 -->
<g id="edge10_Node000004_Node000003" class="edge">
<title>Node4&#45;&gt;Node3</title>
<g id="a_edge10_Node000004_Node000003"><a xlink:title=" ">
<path fill="none" stroke="#63b8ff" d="M159.52,-131.08C175.07,-143.58 204.07,-165.41 232,-178.5 236.02,-180.38 240.28,-182.11 244.61,-183.69"/>
<polygon fill="#63b8ff" stroke="#63b8ff" points="243.54,-187.03 254.14,-186.91 245.78,-180.39 243.54,-187.03"/>
</a>
</g>
</g>
<!-- Node4&#45;&gt;Node4 -->
<g id="edge11_Node000004_Node000004" class="edge">
<title>Node4&#45;&gt;Node4</title>
<g id="a_edge11_Node000004_Node000004"><a xlink:title=" ">
<path fill="none" stroke="#63b8ff" d="M129.12,-131.08C120.42,-139.73 126.38,-149 147,-149 159.89,-149 167.05,-145.38 168.48,-140.55"/>
<polygon fill="#63b8ff" stroke="#63b8ff" points="171.7,-139.19 164.88,-131.08 165.16,-141.67 171.7,-139.19"/>
</a>
</g>
</g>
<!-- Node5 -->
<g id="Node000005" class="node">
<title>Node5</title>
<g id="a_Node000005"><a xlink:href="unicode_8c.html#a3619b219411d41dbdd9197a4d9f378a3" target="_top" xlink:title="Creates a copy of a UTF&#45;8 string containing only valid UTF&#45;8 sequences.">
<polygon fill="white" stroke="#666666" points="328,-151 263,-151 263,-132 328,-132 328,-151"/>
<text text-anchor="middle" x="295.5" y="-139" font-family="Helvetica,sans-Serif" font-size="10.00">utf8_copy</text>
</a>
</g>
</g>
<!-- Node4&#45;&gt;Node5 -->
<g id="edge6_Node000004_Node000005" class="edge">
<title>Node4&#45;&gt;Node5</title>
<g id="a_edge6_Node000004_Node000005"><a xlink:title=" ">
<path fill="none" stroke="#63b8ff" d="M178.35,-125.64C199.89,-128.58 229.07,-132.57 252.79,-135.81"/>
<polygon fill="#63b8ff" stroke="#63b8ff" points="252.54,-139.3 262.92,-137.19 253.48,-132.37 252.54,-139.3"/>
</a>
</g>
</g>
<!-- Node4&#45;&gt;Node6 -->
<g id="edge12_Node000004_Node000006" class="edge">
<title>Node4&#45;&gt;Node6</title>
<g id="a_edge12_Node000004_Node000006"><a xlink:title=" ">
<path fill="none" stroke="#63b8ff" d="M178.14,-117.88C225.63,-112.19 319.2,-100.97 384.7,-93.11"/>
<polygon fill="#63b8ff" stroke="#63b8ff" points="385.44,-96.55 394.95,-91.88 384.61,-89.6 385.44,-96.55"/>
</a>
</g>
</g>
<!-- Node5&#45;&gt;Node5 -->
<g id="edge7_Node000005_Node000005" class="edge">
<title>Node5&#45;&gt;Node5</title>
<g id="a_edge7_Node000005_Node000005"><a xlink:title=" ">
<path fill="none" stroke="#63b8ff" d="M272.69,-151.08C261.59,-159.73 269.2,-169 295.5,-169 312.35,-169 321.53,-165.2 323.03,-160.19"/>
<polygon fill="#63b8ff" stroke="#63b8ff" points="326.02,-158.35 318.31,-151.08 319.8,-161.57 326.02,-158.35"/>
</a>
</g>
</g>
<!-- Node5&#45;&gt;Node6 -->
<g id="edge8_Node000005_Node000006" class="edge">
<title>Node5&#45;&gt;Node6</title>
<g id="a_edge8_Node000005_Node000006"><a xlink:title=" ">
<path fill="none" stroke="#63b8ff" d="M323.28,-131.96C349.82,-122.51 390.65,-107.96 420.11,-97.46"/>
<polygon fill="#63b8ff" stroke="#63b8ff" points="421.39,-100.72 429.63,-94.07 419.04,-94.13 421.39,-100.72"/>
</a>
</g>
</g>
<!-- Node6&#45;&gt;Node6 -->
<g id="edge9_Node000006_Node000006" class="edge">
<title>Node6&#45;&gt;Node6</title>
<g id="a_edge9_Node000006_Node000006"><a xlink:title=" ">
<path fill="none" stroke="#63b8ff" d="M432.53,-94.08C420.38,-102.73 428.71,-112 457.5,-112 476.4,-112 486.48,-108.01 487.74,-102.82"/>
<polygon fill="#63b8ff" stroke="#63b8ff" points="490.63,-100.84 482.47,-94.08 484.64,-104.45 490.63,-100.84"/>
</a>
</g>
</g>
<!-- Node7&#45;&gt;Node6 -->
<g id="edge16_Node000007_Node000006" class="edge">
<title>Node7&#45;&gt;Node6</title>
<g id="a_edge16_Node000007_Node000006"><a xlink:title=" ">
<path fill="none" stroke="#63b8ff" d="M317.09,-19.15C344.93,-32.2 394.77,-55.56 426.7,-70.53"/>
<polygon fill="#63b8ff" stroke="#63b8ff" points="425.45,-73.81 435.99,-74.89 428.42,-67.47 425.45,-73.81"/>
</a>
</g>
</g>
<!-- Node7&#45;&gt;Node7 -->
<g id="edge15_Node000007_Node000007" class="edge">
<title>Node7&#45;&gt;Node7</title>
<g id="a_edge15_Node000007_Node000007"><a xlink:title=" ">
<path fill="none" stroke="#63b8ff" d="M272.69,-19.08C261.59,-27.73 269.2,-37 295.5,-37 312.35,-37 321.53,-33.2 323.03,-28.19"/>
<polygon fill="#63b8ff" stroke="#63b8ff" points="326.02,-26.35 318.31,-19.08 319.8,-29.57 326.02,-26.35"/>
</a>
</g>
</g>
</g>
</svg>
