<?xml version="1.0" encoding="UTF-8" standalone="no"?>
<!DOCTYPE svg PUBLIC "-//W3C//DTD SVG 1.1//EN"
 "http://www.w3.org/Graphics/SVG/1.1/DTD/svg11.dtd">
<!-- Generated by graphviz version 2.43.0 (0)
 -->
<!-- Title: utf8_print_codepoints Pages: 1 -->
<svg width="270pt" height="64pt"
 viewBox="0.00 0.00 270.00 64.00" xmlns="http://www.w3.org/2000/svg" xmlns:xlink="http://www.w3.org/1999/xlink">
<g id="graph0" class="graph" transform="scale(1 1) rotate(0) translate(4 60)">
<title>utf8_print_codepoints</title>
<!-- Node1 -->
<g id="Node000001" class="node">
<title>Node1</title>
<g id="a_Node000001"><a xlink:title="Prints the Unicode codepoints in U+XXXX format to stdout.">
<polygon fill="#999999" stroke="#666666" points="122,-37 0,-37 0,-18 122,-18 122,-37"/>
<text text-anchor="middle" x="61" y="-25" font-family="Helvetica,sans-Serif" font-size="10.00">utf8_print_codepoints</text>
</a>
</g>
</g>
<!-- Node2 -->
<g id="Node000002" class="node">
<title>Node2</title>
<g id="a_Node000002"><a xlink:href="unicode_8c.html#aadba4a5c759cfb7674c3dfe42351e952" target="_top" xlink:title="Determines the byte length of a UTF&#45;8 character from its first byte.">
<polygon fill="white" stroke="#666666" points="259,-56 161,-56 161,-37 259,-37 259,-56"/>
<text text-anchor="middle" x="210" y="-44" font-family="Helvetica,sans-Serif" font-size="10.00">utf8_char_length</text>
</a>
</g>
</g>
<!-- Node1&#45;&gt;Node2 -->
<g id="edge1_Node000001_Node000002" class="edge">
<title>Node1&#45;&gt;Node2</title>
<g id="a_edge1_Node000001_Node000002"><a xlink:title=" ">
<path fill="none" stroke="#63b8ff" d="M122.21,-35.28C131.65,-36.5 141.38,-37.76 150.77,-38.97"/>
<polygon fill="#63b8ff" stroke="#63b8ff" points="150.42,-42.46 160.79,-40.27 151.32,-35.52 150.42,-42.46"/>
</a>
</g>
</g>
<!-- Node3 -->
<g id="Node000003" class="node">
<title>Node3</title>
<g id="a_Node000003"><a xlink:href="unicode_8c.html#a0075f88c12df63dda852af0ff5c41f92" target="_top" xlink:title="Decodes a UTF&#45;8 byte sequence to its Unicode codepoint.">
<polygon fill="white" stroke="#666666" points="262,-19 158,-19 158,0 262,0 262,-19"/>
<text text-anchor="middle" x="210" y="-7" font-family="Helvetica,sans-Serif" font-size="10.00">utf8_to_codepoint</text>
</a>
</g>
</g>
<!-- Node1&#45;&gt;Node3 -->
<g id="edge2_Node000001_Node000003" class="edge">
<title>Node1&#45;&gt;Node3</title>
<g id="a_edge2_Node000001_Node000003"><a xlink:title=" ">
<path fill="none" stroke="#63b8ff" d="M122.21,-20.13C130.56,-19.11 139.14,-18.05 147.5,-17.03"/>
<polygon fill="#63b8ff" stroke="#63b8ff" points="148.07,-20.49 157.57,-15.8 147.22,-13.54 148.07,-20.49"/>
</a>
</g>
</g>
</g>
</svg>
