<?xml version="1.0" encoding="UTF-8" standalone="no"?>
<!DOCTYPE svg PUBLIC "-//W3C//DTD SVG 1.1//EN"
 "http://www.w3.org/Graphics/SVG/1.1/DTD/svg11.dtd">
<!-- Generated by graphviz version 2.43.0 (0)
 -->
<!-- Title: utf8_split Pages: 1 -->
<svg width="367pt" height="138pt"
 viewBox="0.00 0.00 367.00 138.00" xmlns="http://www.w3.org/2000/svg" xmlns:xlink="http://www.w3.org/1999/xlink">

<svg id="main" version="1.1" xmlns="http://www.w3.org/2000/svg" xmlns:xlink="http://www.w3.org/1999/xlink" xml:space="preserve" onload="init(evt)">
<style type="text/css"><![CDATA[
.node, .edge {opacity: 0.7;}
.node.selected, .edge.selected {opacity: 1;}
.edge:hover path { stroke: red; }
.edge:hover polygon { stroke: red; fill: red; }
]]></style>
<script type="application/ecmascript" xlink:href="svg.min.js"/>
<svg id="graph" class="graph">
<g id="graph0" class="graph" transform="scale(1 1) rotate(0) translate(4 134)">
<title>utf8_split</title>
<!-- Node1 -->
<g id="Node000001" class="node">
<title>Node1</title>
<g id="a_Node000001"><a xlink:title="Splits a UTF&#45;8 string into parts using a delimiter.">
<polygon fill="#999999" stroke="#666666" points="62,-74 0,-74 0,-55 62,-55 62,-74"/>
<text text-anchor="middle" x="31" y="-62" font-family="Helvetica,sans-Serif" font-size="10.00">utf8_split</text>
</a>
</g>
</g>
<!-- Node2 -->
<g id="Node000002" class="node">
<title>Node2</title>
<g id="a_Node000002"><a xlink:href="unicode_8c.html#aadba4a5c759cfb7674c3dfe42351e952" target="_top" xlink:title="Determines the byte length of a UTF&#45;8 character from its first byte.">
<polygon fill="white" stroke="#666666" points="196,-130 98,-130 98,-111 196,-111 196,-130"/>
<text text-anchor="middle" x="147" y="-118" font-family="Helvetica,sans-Serif" font-size="10.00">utf8_char_length</text>
</a>
</g>
</g>
<!-- Node1&#45;&gt;Node2 -->
<g id="edge1_Node000001_Node000002" class="edge">
<title>Node1&#45;&gt;Node2</title>
<g id="a_edge1_Node000001_Node000002"><a xlink:title=" ">
<path fill="none" stroke="#63b8ff" d="M47.09,-74.14C60.22,-82.29 79.94,-93.99 98,-102.5 101.42,-104.11 105.03,-105.69 108.67,-107.19"/>
<polygon fill="#63b8ff" stroke="#63b8ff" points="107.68,-110.56 118.26,-110.98 110.25,-104.05 107.68,-110.56"/>
</a>
</g>
</g>
<!-- Node3 -->
<g id="Node000003" class="node">
<title>Node3</title>
<g id="a_Node000003"><a xlink:href="unicode_8c.html#a32318a6b53c2731556ae4cd967a4f643" target="_top" xlink:title="Frees all resources associated with a utf8_string.">
<polygon fill="white" stroke="#666666" points="177.5,-93 116.5,-93 116.5,-74 177.5,-74 177.5,-93"/>
<text text-anchor="middle" x="147" y="-81" font-family="Helvetica,sans-Serif" font-size="10.00">utf8_free</text>
</a>
</g>
</g>
<!-- Node1&#45;&gt;Node3 -->
<g id="edge2_Node000001_Node000003" class="edge">
<title>Node1&#45;&gt;Node3</title>
<g id="a_edge2_Node000001_Node000003"><a xlink:title=" ">
<path fill="none" stroke="#63b8ff" d="M62.25,-69.54C75.73,-71.79 91.8,-74.47 106.23,-76.87"/>
<polygon fill="#63b8ff" stroke="#63b8ff" points="105.96,-80.37 116.4,-78.57 107.11,-73.47 105.96,-80.37"/>
</a>
</g>
</g>
<!-- Node4 -->
<g id="Node000004" class="node">
<title>Node4</title>
<g id="a_Node000004"><a xlink:href="unicode_8c.html#ac8dd740b9cf9558c3b5bd89f91857d08" target="_top" xlink:title="Creates a new utf8_string object from a C string.">
<polygon fill="white" stroke="#666666" points="178,-56 116,-56 116,-37 178,-37 178,-56"/>
<text text-anchor="middle" x="147" y="-44" font-family="Helvetica,sans-Serif" font-size="10.00">utf8_new</text>
</a>
</g>
</g>
<!-- Node1&#45;&gt;Node4 -->
<g id="edge3_Node000001_Node000004" class="edge">
<title>Node1&#45;&gt;Node4</title>
<g id="a_edge3_Node000001_Node000004"><a xlink:title=" ">
<path fill="none" stroke="#63b8ff" d="M62.25,-59.72C75.52,-57.63 91.29,-55.14 105.55,-52.89"/>
<polygon fill="#63b8ff" stroke="#63b8ff" points="106.28,-56.32 115.61,-51.3 105.18,-49.4 106.28,-56.32"/>
</a>
</g>
</g>
<!-- Node6 -->
<g id="Node000006" class="node">
<title>Node6</title>
<g id="a_Node000006"><a xlink:href="unicode_8c.html#a37b529eaefb2e43c5f2a7eda74138c13" target="_top" xlink:title="Counts the number of valid UTF&#45;8 bytes in a string.">
<polygon fill="white" stroke="#666666" points="358,-19 233,-19 233,0 358,0 358,-19"/>
<text text-anchor="middle" x="295.5" y="-7" font-family="Helvetica,sans-Serif" font-size="10.00">utf8_valid_byte_count</text>
</a>
</g>
</g>
<!-- Node1&#45;&gt;Node6 -->
<g id="edge6_Node000001_Node000006" class="edge">
<title>Node1&#45;&gt;Node6</title>
<g id="a_edge6_Node000001_Node000006"><a xlink:title=" ">
<path fill="none" stroke="#63b8ff" d="M45.39,-54.76C58.2,-45.99 78.43,-33.58 98,-27.5 137.92,-15.1 184.43,-10.43 222.18,-8.94"/>
<polygon fill="#63b8ff" stroke="#63b8ff" points="222.7,-12.43 232.58,-8.6 222.47,-5.43 222.7,-12.43"/>
</a>
</g>
</g>
<!-- Node5 -->
<g id="Node000005" class="node">
<title>Node5</title>
<g id="a_Node000005"><a xlink:href="unicode_8c.html#a0b46c6da59494b8d0042d1557f77b6fe" target="_top" xlink:title="Counts the number of Unicode codepoints in a UTF&#45;8 string.">
<polygon fill="white" stroke="#666666" points="359,-56 232,-56 232,-37 359,-37 359,-56"/>
<text text-anchor="middle" x="295.5" y="-44" font-family="Helvetica,sans-Serif" font-size="10.00">utf8_count_codepoints</text>
</a>
</g>
</g>
<!-- Node4&#45;&gt;Node5 -->
<g id="edge4_Node000004_Node000005" class="edge">
<title>Node4&#45;&gt;Node5</title>
<g id="a_edge4_Node000004_Node000005"><a xlink:title=" ">
<path fill="none" stroke="#63b8ff" d="M178.35,-46.5C191.07,-46.5 206.46,-46.5 221.81,-46.5"/>
<polygon fill="#63b8ff" stroke="#63b8ff" points="221.86,-50 231.86,-46.5 221.86,-43 221.86,-50"/>
</a>
</g>
</g>
<!-- Node4&#45;&gt;Node6 -->
<g id="edge5_Node000004_Node000006" class="edge">
<title>Node4&#45;&gt;Node6</title>
<g id="a_edge5_Node000004_Node000006"><a xlink:title=" ">
<path fill="none" stroke="#63b8ff" d="M178.35,-38.83C198.14,-33.84 224.37,-27.21 246.9,-21.52"/>
<polygon fill="#63b8ff" stroke="#63b8ff" points="247.78,-24.91 256.62,-19.07 246.07,-18.12 247.78,-24.91"/>
</a>
</g>
</g>
</g>
</svg>
</svg>

<style type='text/css'>
<![CDATA[
[data-mouse-over-selected='false'] { opacity: 0.7; }
[data-mouse-over-selected='true']  { opacity: 1.0; }
]]>
</style>
<script type="application/ecmascript"><![CDATA[
document.addEventListener('DOMContentLoaded', (event) => {
  highlightEdges();
  highlightAdjacentNodes();
});
]]></script>
</svg>
