<?xml version="1.0" encoding="UTF-8" standalone="no"?>
<!DOCTYPE svg PUBLIC "-//W3C//DTD SVG 1.1//EN"
 "http://www.w3.org/Graphics/SVG/1.1/DTD/svg11.dtd">
<!-- Generated by graphviz version 2.43.0 (0)
 -->
<!-- Title: utf8_count_codepoints Pages: 1 -->
<svg width="388pt" height="175pt"
 viewBox="0.00 0.00 388.00 175.00" xmlns="http://www.w3.org/2000/svg" xmlns:xlink="http://www.w3.org/1999/xlink">
<g id="graph0" class="graph" transform="scale(1 1) rotate(0) translate(4 171)">
<title>utf8_count_codepoints</title>
<!-- Node1 -->
<g id="Node000001" class="node">
<title>Node1</title>
<g id="a_Node000001"><a xlink:title="Counts the number of Unicode codepoints in a UTF&#45;8 string.">
<polygon fill="#999999" stroke="#666666" points="380,-93 253,-93 253,-74 380,-74 380,-93"/>
<text text-anchor="middle" x="316.5" y="-81" font-family="Helvetica,sans-Serif" font-size="10.00">utf8_count_codepoints</text>
</a>
</g>
</g>
<!-- Node2 -->
<g id="Node000002" class="node">
<title>Node2</title>
<g id="a_Node000002"><a xlink:href="unicode_8c.html#a2a89a03f9e97d70adbc69ccfe15c5262" target="_top" xlink:title="Appends UTF&#45;8 data to the end of a utf8_string.">
<polygon fill="white" stroke="#666666" points="208,-167 131,-167 131,-148 208,-148 208,-167"/>
<text text-anchor="middle" x="169.5" y="-155" font-family="Helvetica,sans-Serif" font-size="10.00">utf8_append</text>
</a>
</g>
</g>
<!-- Node1&#45;&gt;Node2 -->
<g id="edge1_Node000001_Node000002" class="edge">
<title>Node1&#45;&gt;Node2</title>
<g id="a_edge1_Node000001_Node000002"><a xlink:title=" ">
<path fill="none" stroke="#63b8ff" d="M291.59,-98.42C271.97,-110.34 243.23,-127.05 217,-139.5 210.74,-142.47 203.86,-145.34 197.34,-147.89"/>
<polygon fill="#63b8ff" stroke="#63b8ff" points="293.49,-101.36 300.18,-93.15 289.83,-95.39 293.49,-101.36"/>
</a>
</g>
</g>
<!-- Node3 -->
<g id="Node000003" class="node">
<title>Node3</title>
<g id="a_Node000003"><a xlink:href="unicode_8c.html#ac130f7b463a6dd213e240cc4fc8cd558" target="_top" xlink:title="Inserts UTF&#45;8 data at a specific byte index.">
<polygon fill="white" stroke="#666666" points="204,-130 135,-130 135,-111 204,-111 204,-130"/>
<text text-anchor="middle" x="169.5" y="-118" font-family="Helvetica,sans-Serif" font-size="10.00">utf8_insert</text>
</a>
</g>
</g>
<!-- Node1&#45;&gt;Node3 -->
<g id="edge2_Node000001_Node000003" class="edge">
<title>Node1&#45;&gt;Node3</title>
<g id="a_edge2_Node000001_Node000003"><a xlink:title=" ">
<path fill="none" stroke="#63b8ff" d="M268.2,-95.57C247.33,-100.9 223.26,-107.04 204.24,-111.89"/>
<polygon fill="#63b8ff" stroke="#63b8ff" points="269.33,-98.89 278.16,-93.03 267.6,-92.11 269.33,-98.89"/>
</a>
</g>
</g>
<!-- Node4 -->
<g id="Node000004" class="node">
<title>Node4</title>
<g id="a_Node000004"><a xlink:href="unicode_8c.html#ac8dd740b9cf9558c3b5bd89f91857d08" target="_top" xlink:title="Creates a new utf8_string object from a C string.">
<polygon fill="white" stroke="#666666" points="200.5,-93 138.5,-93 138.5,-74 200.5,-74 200.5,-93"/>
<text text-anchor="middle" x="169.5" y="-81" font-family="Helvetica,sans-Serif" font-size="10.00">utf8_new</text>
</a>
</g>
</g>
<!-- Node1&#45;&gt;Node4 -->
<g id="edge3_Node000001_Node000004" class="edge">
<title>Node1&#45;&gt;Node4</title>
<g id="a_edge3_Node000001_Node000004"><a xlink:title=" ">
<path fill="none" stroke="#63b8ff" d="M242.53,-83.5C227.73,-83.5 212.96,-83.5 200.68,-83.5"/>
<polygon fill="#63b8ff" stroke="#63b8ff" points="242.74,-87 252.74,-83.5 242.74,-80 242.74,-87"/>
</a>
</g>
</g>
<!-- Node8 -->
<g id="Node000008" class="node">
<title>Node8</title>
<g id="a_Node000008"><a xlink:href="unicode_8c.html#a362e284c2424f2331d08094cb9decba0" target="_top" xlink:title="Replaces the first occurrence of a substring with another string.">
<polygon fill="white" stroke="#666666" points="208,-56 131,-56 131,-37 208,-37 208,-56"/>
<text text-anchor="middle" x="169.5" y="-44" font-family="Helvetica,sans-Serif" font-size="10.00">utf8_replace</text>
</a>
</g>
</g>
<!-- Node1&#45;&gt;Node8 -->
<g id="edge7_Node000001_Node000008" class="edge">
<title>Node1&#45;&gt;Node8</title>
<g id="a_edge7_Node000001_Node000008"><a xlink:title=" ">
<path fill="none" stroke="#63b8ff" d="M268.23,-71.44C248.69,-66.45 226.35,-60.75 207.97,-56.06"/>
<polygon fill="#63b8ff" stroke="#63b8ff" points="267.6,-74.89 278.16,-73.97 269.33,-68.11 267.6,-74.89"/>
</a>
</g>
</g>
<!-- Node9 -->
<g id="Node000009" class="node">
<title>Node9</title>
<g id="a_Node000009"><a xlink:href="unicode_8c.html#a81f33e66332d41c30b0a7c120d59a4d2" target="_top" xlink:title="Replaces all occurrences of a substring with another string.">
<polygon fill="white" stroke="#666666" points="217,-19 122,-19 122,0 217,0 217,-19"/>
<text text-anchor="middle" x="169.5" y="-7" font-family="Helvetica,sans-Serif" font-size="10.00">utf8_replace_all</text>
</a>
</g>
</g>
<!-- Node1&#45;&gt;Node9 -->
<g id="edge8_Node000001_Node000009" class="edge">
<title>Node1&#45;&gt;Node9</title>
<g id="a_edge8_Node000001_Node000009"><a xlink:title=" ">
<path fill="none" stroke="#63b8ff" d="M291.59,-68.58C271.97,-56.66 243.23,-39.95 217,-27.5 210.74,-24.53 203.86,-21.66 197.34,-19.11"/>
<polygon fill="#63b8ff" stroke="#63b8ff" points="289.83,-71.61 300.18,-73.85 293.49,-65.64 289.83,-71.61"/>
</a>
</g>
</g>
<!-- Node5 -->
<g id="Node000005" class="node">
<title>Node5</title>
<g id="a_Node000005"><a xlink:href="unicode_8c.html#ac66faa2fc9866e1f93c5496603126620" target="_top" xlink:title="Duplicates a utf8_string object.">
<polygon fill="white" stroke="#666666" points="77,-130 9,-130 9,-111 77,-111 77,-130"/>
<text text-anchor="middle" x="43" y="-118" font-family="Helvetica,sans-Serif" font-size="10.00">utf8_clone</text>
</a>
</g>
</g>
<!-- Node4&#45;&gt;Node5 -->
<g id="edge4_Node000004_Node000005" class="edge">
<title>Node4&#45;&gt;Node5</title>
<g id="a_edge4_Node000004_Node000005"><a xlink:title=" ">
<path fill="none" stroke="#63b8ff" d="M128.69,-95.33C111.68,-100.39 92.09,-106.21 76.04,-110.98"/>
<polygon fill="#63b8ff" stroke="#63b8ff" points="129.77,-98.66 138.36,-92.46 127.78,-91.95 129.77,-98.66"/>
</a>
</g>
</g>
<!-- Node6 -->
<g id="Node000006" class="node">
<title>Node6</title>
<g id="a_Node000006"><a xlink:href="unicode_8c.html#a08f52fa20afe83951b5486a186f32562" target="_top" xlink:title="Reads a UTF&#45;8 string from a file.">
<polygon fill="white" stroke="#666666" points="86,-93 0,-93 0,-74 86,-74 86,-93"/>
<text text-anchor="middle" x="43" y="-81" font-family="Helvetica,sans-Serif" font-size="10.00">utf8_readfrom</text>
</a>
</g>
</g>
<!-- Node4&#45;&gt;Node6 -->
<g id="edge5_Node000004_Node000006" class="edge">
<title>Node4&#45;&gt;Node6</title>
<g id="a_edge5_Node000004_Node000006"><a xlink:title=" ">
<path fill="none" stroke="#63b8ff" d="M127.99,-83.5C114.58,-83.5 99.62,-83.5 86.09,-83.5"/>
<polygon fill="#63b8ff" stroke="#63b8ff" points="128.36,-87 138.36,-83.5 128.36,-80 128.36,-87"/>
</a>
</g>
</g>
<!-- Node7 -->
<g id="Node000007" class="node">
<title>Node7</title>
<g id="a_Node000007"><a xlink:href="unicode_8c.html#a283c63b93c8d578ec05102ff6533ae5b" target="_top" xlink:title="Splits a UTF&#45;8 string into parts using a delimiter.">
<polygon fill="white" stroke="#666666" points="74,-56 12,-56 12,-37 74,-37 74,-56"/>
<text text-anchor="middle" x="43" y="-44" font-family="Helvetica,sans-Serif" font-size="10.00">utf8_split</text>
</a>
</g>
</g>
<!-- Node4&#45;&gt;Node7 -->
<g id="edge6_Node000004_Node000007" class="edge">
<title>Node4&#45;&gt;Node7</title>
<g id="a_edge6_Node000004_Node000007"><a xlink:title=" ">
<path fill="none" stroke="#63b8ff" d="M128.39,-71.58C110.82,-66.36 90.56,-60.34 74.29,-55.5"/>
<polygon fill="#63b8ff" stroke="#63b8ff" points="127.78,-75.05 138.36,-74.54 129.77,-68.34 127.78,-75.05"/>
</a>
</g>
</g>
</g>
</svg>
