<?xml version="1.0" encoding="UTF-8" standalone="no"?>
<!DOCTYPE svg PUBLIC "-//W3C//DTD SVG 1.1//EN"
 "http://www.w3.org/Graphics/SVG/1.1/DTD/svg11.dtd">
<!-- Generated by graphviz version 2.43.0 (0)
 -->
<!-- Title: utf8_new Pages: 1 -->
<svg width="233pt" height="64pt"
 viewBox="0.00 0.00 233.00 64.00" xmlns="http://www.w3.org/2000/svg" xmlns:xlink="http://www.w3.org/1999/xlink">
<g id="graph0" class="graph" transform="scale(1 1) rotate(0) translate(4 60)">
<title>utf8_new</title>
<!-- Node1 -->
<g id="Node000001" class="node">
<title>Node1</title>
<g id="a_Node000001"><a xlink:title="Creates a new utf8_string object from a C string.">
<polygon fill="#999999" stroke="#666666" points="62,-37 0,-37 0,-18 62,-18 62,-37"/>
<text text-anchor="middle" x="31" y="-25" font-family="Helvetica,sans-Serif" font-size="10.00">utf8_new</text>
</a>
</g>
</g>
<!-- Node2 -->
<g id="Node000002" class="node">
<title>Node2</title>
<g id="a_Node000002"><a xlink:href="unicode_8c.html#a0b46c6da59494b8d0042d1557f77b6fe" target="_top" xlink:title="Counts the number of Unicode codepoints in a UTF&#45;8 string.">
<polygon fill="white" stroke="#666666" points="225,-56 98,-56 98,-37 225,-37 225,-56"/>
<text text-anchor="middle" x="161.5" y="-44" font-family="Helvetica,sans-Serif" font-size="10.00">utf8_count_codepoints</text>
</a>
</g>
</g>
<!-- Node1&#45;&gt;Node2 -->
<g id="edge1_Node000001_Node000002" class="edge">
<title>Node1&#45;&gt;Node2</title>
<g id="a_edge1_Node000001_Node000002"><a xlink:title=" ">
<path fill="none" stroke="#63b8ff" d="M62.13,-31.95C70.03,-33.12 78.9,-34.43 87.99,-35.78"/>
<polygon fill="#63b8ff" stroke="#63b8ff" points="87.5,-39.24 97.91,-37.25 88.53,-32.32 87.5,-39.24"/>
</a>
</g>
</g>
<!-- Node3 -->
<g id="Node000003" class="node">
<title>Node3</title>
<g id="a_Node000003"><a xlink:href="unicode_8c.html#a37b529eaefb2e43c5f2a7eda74138c13" target="_top" xlink:title="Counts the number of valid UTF&#45;8 bytes in a string.">
<polygon fill="white" stroke="#666666" points="224,-19 99,-19 99,0 224,0 224,-19"/>
<text text-anchor="middle" x="161.5" y="-7" font-family="Helvetica,sans-Serif" font-size="10.00">utf8_valid_byte_count</text>
</a>
</g>
</g>
<!-- Node1&#45;&gt;Node3 -->
<g id="edge2_Node000001_Node000003" class="edge">
<title>Node1&#45;&gt;Node3</title>
<g id="a_edge2_Node000001_Node000003"><a xlink:title=" ">
<path fill="none" stroke="#63b8ff" d="M62.13,-23.28C70.24,-22.14 79.39,-20.86 88.74,-19.55"/>
<polygon fill="#63b8ff" stroke="#63b8ff" points="89.52,-22.98 98.94,-18.12 88.55,-16.04 89.52,-22.98"/>
</a>
</g>
</g>
</g>
</svg>
