<?xml version="1.0" encoding="UTF-8" standalone="no"?>
<!DOCTYPE svg PUBLIC "-//W3C//DTD SVG 1.1//EN"
 "http://www.w3.org/Graphics/SVG/1.1/DTD/svg11.dtd">
<!-- Generated by graphviz version 2.43.0 (0)
 -->
<!-- Title: utf8_to_codepoint Pages: 1 -->
<svg width="469pt" height="323pt"
 viewBox="0.00 0.00 469.00 323.00" xmlns="http://www.w3.org/2000/svg" xmlns:xlink="http://www.w3.org/1999/xlink">
<g id="graph0" class="graph" transform="scale(1 1) rotate(0) translate(4 319)">
<title>utf8_to_codepoint</title>
<!-- Node1 -->
<g id="Node000001" class="node">
<title>Node1</title>
<g id="a_Node000001"><a xlink:title="Decodes a UTF&#45;8 byte sequence to its Unicode codepoint.">
<polygon fill="#999999" stroke="#666666" points="461,-167 357,-167 357,-148 461,-148 461,-167"/>
<text text-anchor="middle" x="409" y="-155" font-family="Helvetica,sans-Serif" font-size="10.00">utf8_to_codepoint</text>
</a>
</g>
</g>
<!-- Node2 -->
<g id="Node000002" class="node">
<title>Node2</title>
<g id="a_Node000002"><a xlink:href="unicode_8c.html#a650f29191e8178a5a2124648f76c9d6f" target="_top" xlink:title="Checks if a UTF&#45;8 character represents an alphanumeric character.">
<polygon fill="white" stroke="#666666" points="303,-315 217,-315 217,-296 303,-296 303,-315"/>
<text text-anchor="middle" x="260" y="-303" font-family="Helvetica,sans-Serif" font-size="10.00">is_utf8_alnum</text>
</a>
</g>
</g>
<!-- Node1&#45;&gt;Node2 -->
<g id="edge1_Node000001_Node000002" class="edge">
<title>Node1&#45;&gt;Node2</title>
<g id="a_edge1_Node000001_Node000002"><a xlink:title=" ">
<path fill="none" stroke="#63b8ff" d="M400.3,-176.59C387.86,-205 360.69,-258.18 321,-287.5 315.66,-291.44 309.46,-294.53 303.12,-296.94"/>
<polygon fill="#63b8ff" stroke="#63b8ff" points="403.54,-177.91 404.21,-167.34 397.09,-175.19 403.54,-177.91"/>
</a>
</g>
</g>
<!-- Node3 -->
<g id="Node000003" class="node">
<title>Node3</title>
<g id="a_Node000003"><a xlink:href="unicode_8c.html#af2018e35eb3e3d76cc29c597ed141943" target="_top" xlink:title="Checks if a UTF&#45;8 character represents an alphabetic character.">
<polygon fill="white" stroke="#666666" points="301,-278 219,-278 219,-259 301,-259 301,-278"/>
<text text-anchor="middle" x="260" y="-266" font-family="Helvetica,sans-Serif" font-size="10.00">is_utf8_alpha</text>
</a>
</g>
</g>
<!-- Node1&#45;&gt;Node3 -->
<g id="edge2_Node000001_Node000003" class="edge">
<title>Node1&#45;&gt;Node3</title>
<g id="a_edge2_Node000001_Node000003"><a xlink:title=" ">
<path fill="none" stroke="#63b8ff" d="M395.69,-175.6C380.5,-196.59 352.75,-230.81 321,-250.5 314.9,-254.28 307.96,-257.31 301.01,-259.72"/>
<polygon fill="#63b8ff" stroke="#63b8ff" points="398.68,-177.43 401.58,-167.24 392.95,-173.4 398.68,-177.43"/>
</a>
</g>
</g>
<!-- Node4 -->
<g id="Node000004" class="node">
<title>Node4</title>
<g id="a_Node000004"><a xlink:href="unicode_8c.html#a0bb308da5e4e999b234bbb2111cdae90" target="_top" xlink:title="Checks if a UTF&#45;8 character represents a digit.">
<polygon fill="white" stroke="#666666" points="298.5,-241 221.5,-241 221.5,-222 298.5,-222 298.5,-241"/>
<text text-anchor="middle" x="260" y="-229" font-family="Helvetica,sans-Serif" font-size="10.00">is_utf8_digit</text>
</a>
</g>
</g>
<!-- Node1&#45;&gt;Node4 -->
<g id="edge3_Node000001_Node000004" class="edge">
<title>Node1&#45;&gt;Node4</title>
<g id="a_edge3_Node000001_Node000004"><a xlink:title=" ">
<path fill="none" stroke="#63b8ff" d="M387.56,-173.01C370.51,-185.36 345.17,-202.36 321,-213.5 313.99,-216.73 306.25,-219.55 298.73,-221.95"/>
<polygon fill="#63b8ff" stroke="#63b8ff" points="389.7,-175.78 395.68,-167.03 385.55,-170.14 389.7,-175.78"/>
</a>
</g>
</g>
<!-- Node5 -->
<g id="Node000005" class="node">
<title>Node5</title>
<g id="a_Node000005"><a xlink:href="unicode_8c.html#a4b4875bd66dffc4433e6bbbb23542a85" target="_top" xlink:title="Checks if a UTF&#45;8 character represents a punctuation character.">
<polygon fill="white" stroke="#666666" points="301,-204 219,-204 219,-185 301,-185 301,-204"/>
<text text-anchor="middle" x="260" y="-192" font-family="Helvetica,sans-Serif" font-size="10.00">is_utf8_punct</text>
</a>
</g>
</g>
<!-- Node1&#45;&gt;Node5 -->
<g id="edge4_Node000001_Node000005" class="edge">
<title>Node1&#45;&gt;Node5</title>
<g id="a_edge4_Node000001_Node000005"><a xlink:title=" ">
<path fill="none" stroke="#63b8ff" d="M360.35,-169.49C340.47,-174.5 317.7,-180.23 298.98,-184.94"/>
<polygon fill="#63b8ff" stroke="#63b8ff" points="361.3,-172.86 370.14,-167.03 359.59,-166.08 361.3,-172.86"/>
</a>
</g>
</g>
<!-- Node6 -->
<g id="Node000006" class="node">
<title>Node6</title>
<g id="a_Node000006"><a xlink:href="unicode_8c.html#ad7d24e5bc418ae563b5afc21c6898e10" target="_top" xlink:title="Checks if a UTF&#45;8 character represents whitespace.">
<polygon fill="white" stroke="#666666" points="315,-167 205,-167 205,-148 315,-148 315,-167"/>
<text text-anchor="middle" x="260" y="-155" font-family="Helvetica,sans-Serif" font-size="10.00">is_utf8_whitespace</text>
</a>
</g>
</g>
<!-- Node1&#45;&gt;Node6 -->
<g id="edge5_Node000001_Node000006" class="edge">
<title>Node1&#45;&gt;Node6</title>
<g id="a_edge5_Node000001_Node000006"><a xlink:title=" ">
<path fill="none" stroke="#63b8ff" d="M346.68,-157.5C336.22,-157.5 325.42,-157.5 315.16,-157.5"/>
<polygon fill="#63b8ff" stroke="#63b8ff" points="347,-161 357,-157.5 347,-154 347,-161"/>
</a>
</g>
</g>
<!-- Node10 -->
<g id="Node000010" class="node">
<title>Node10</title>
<g id="a_Node000010"><a xlink:href="unicode_8c.html#afec2f1cc66175b8c06fb77db9ebc6f17" target="_top" xlink:title="Prints the Unicode codepoints in U+XXXX format to stdout.">
<polygon fill="white" stroke="#666666" points="321,-130 199,-130 199,-111 321,-111 321,-130"/>
<text text-anchor="middle" x="260" y="-118" font-family="Helvetica,sans-Serif" font-size="10.00">utf8_print_codepoints</text>
</a>
</g>
</g>
<!-- Node1&#45;&gt;Node10 -->
<g id="edge10_Node000001_Node000010" class="edge">
<title>Node1&#45;&gt;Node10</title>
<g id="a_edge10_Node000001_Node000010"><a xlink:title=" ">
<path fill="none" stroke="#63b8ff" d="M360.35,-145.51C340.47,-140.5 317.7,-134.77 298.98,-130.06"/>
<polygon fill="#63b8ff" stroke="#63b8ff" points="359.59,-148.92 370.14,-147.97 361.3,-142.14 359.59,-148.92"/>
</a>
</g>
</g>
<!-- Node11 -->
<g id="Node000011" class="node">
<title>Node11</title>
<g id="a_Node000011"><a xlink:href="unicode_8c.html#ae3f31481d188b5fbe03ca760b031677b" target="_top" xlink:title="Converts all uppercase characters to lowercase in&#45;place.">
<polygon fill="white" stroke="#666666" points="299,-93 221,-93 221,-74 299,-74 299,-93"/>
<text text-anchor="middle" x="260" y="-81" font-family="Helvetica,sans-Serif" font-size="10.00">utf8_tolower</text>
</a>
</g>
</g>
<!-- Node1&#45;&gt;Node11 -->
<g id="edge11_Node000001_Node000011" class="edge">
<title>Node1&#45;&gt;Node11</title>
<g id="a_edge11_Node000001_Node000011"><a xlink:title=" ">
<path fill="none" stroke="#63b8ff" d="M386.88,-141.97C369.79,-129.95 344.73,-113.53 321,-102.5 313.27,-98.91 304.68,-95.74 296.48,-93.07"/>
<polygon fill="#63b8ff" stroke="#63b8ff" points="384.88,-144.84 395.05,-147.81 388.95,-139.14 384.88,-144.84"/>
</a>
</g>
</g>
<!-- Node12 -->
<g id="Node000012" class="node">
<title>Node12</title>
<g id="a_Node000012"><a xlink:href="unicode_8c.html#a0695d31239b48bbee503c9191bdfc627" target="_top" xlink:title="Converts all lowercase characters to uppercase in&#45;place.">
<polygon fill="white" stroke="#666666" points="299.5,-56 220.5,-56 220.5,-37 299.5,-37 299.5,-56"/>
<text text-anchor="middle" x="260" y="-44" font-family="Helvetica,sans-Serif" font-size="10.00">utf8_toupper</text>
</a>
</g>
</g>
<!-- Node1&#45;&gt;Node12 -->
<g id="edge12_Node000001_Node000012" class="edge">
<title>Node1&#45;&gt;Node12</title>
<g id="a_edge12_Node000001_Node000012"><a xlink:title=" ">
<path fill="none" stroke="#63b8ff" d="M395.59,-139.68C380.31,-119 352.47,-85.23 321,-65.5 314.52,-61.44 307.1,-58.18 299.73,-55.58"/>
<polygon fill="#63b8ff" stroke="#63b8ff" points="392.83,-141.84 401.52,-147.91 398.51,-137.75 392.83,-141.84"/>
</a>
</g>
</g>
<!-- Node13 -->
<g id="Node000013" class="node">
<title>Node13</title>
<g id="a_Node000013"><a xlink:href="unicode_8c.html#afec6fd3b06a385932c453e975a34d3ce" target="_top" xlink:title="Removes leading and trailing characters from a UTF&#45;8 string in&#45;place.">
<polygon fill="white" stroke="#666666" points="306.5,-19 213.5,-19 213.5,0 306.5,0 306.5,-19"/>
<text text-anchor="middle" x="260" y="-7" font-family="Helvetica,sans-Serif" font-size="10.00">utf8_trim_chars</text>
</a>
</g>
</g>
<!-- Node1&#45;&gt;Node13 -->
<g id="edge13_Node000001_Node000013" class="edge">
<title>Node1&#45;&gt;Node13</title>
<g id="a_edge13_Node000001_Node000013"><a xlink:title=" ">
<path fill="none" stroke="#63b8ff" d="M400.03,-138.26C387.4,-110.08 360.13,-57.76 321,-28.5 315.84,-24.64 309.87,-21.55 303.74,-19.08"/>
<polygon fill="#63b8ff" stroke="#63b8ff" points="396.97,-139.99 404.15,-147.78 403.39,-137.21 396.97,-139.99"/>
</a>
</g>
</g>
<!-- Node7 -->
<g id="Node000007" class="node">
<title>Node7</title>
<g id="a_Node000007"><a xlink:href="unicode_8c.html#a358a6ddb4231f045fa1996354bb69b56" target="_top" xlink:title="Removes leading whitespace from a UTF&#45;8 string in&#45;place.">
<polygon fill="white" stroke="#666666" points="163,-185 98,-185 98,-166 163,-166 163,-185"/>
<text text-anchor="middle" x="130.5" y="-173" font-family="Helvetica,sans-Serif" font-size="10.00">utf8_ltrim</text>
</a>
</g>
</g>
<!-- Node6&#45;&gt;Node7 -->
<g id="edge6_Node000006_Node000007" class="edge">
<title>Node6&#45;&gt;Node7</title>
<g id="a_edge6_Node000006_Node000007"><a xlink:title=" ">
<path fill="none" stroke="#63b8ff" d="M194.84,-166.56C183.81,-168.12 172.8,-169.67 163.13,-171.04"/>
<polygon fill="#63b8ff" stroke="#63b8ff" points="195.52,-170 204.93,-165.13 194.54,-163.07 195.52,-170"/>
</a>
</g>
</g>
<!-- Node9 -->
<g id="Node000009" class="node">
<title>Node9</title>
<g id="a_Node000009"><a xlink:href="unicode_8c.html#a673ecb04bcd3fc52c6222a67233a8ce1" target="_top" xlink:title="Removes trailing whitespace from a UTF&#45;8 string in&#45;place.">
<polygon fill="white" stroke="#666666" points="163,-148 98,-148 98,-129 163,-129 163,-148"/>
<text text-anchor="middle" x="130.5" y="-136" font-family="Helvetica,sans-Serif" font-size="10.00">utf8_rtrim</text>
</a>
</g>
</g>
<!-- Node6&#45;&gt;Node9 -->
<g id="edge8_Node000006_Node000009" class="edge">
<title>Node6&#45;&gt;Node9</title>
<g id="a_edge8_Node000006_Node000009"><a xlink:title=" ">
<path fill="none" stroke="#63b8ff" d="M194.84,-147.94C183.81,-146.3 172.8,-144.65 163.13,-143.21"/>
<polygon fill="#63b8ff" stroke="#63b8ff" points="194.52,-151.43 204.93,-149.44 195.55,-144.51 194.52,-151.43"/>
</a>
</g>
</g>
<!-- Node8 -->
<g id="Node000008" class="node">
<title>Node8</title>
<g id="a_Node000008"><a xlink:href="unicode_8c.html#a8ec9a3447456e99105106536e4dfe39a" target="_top" xlink:title="Removes leading and trailing whitespace from a UTF&#45;8 string in&#45;place.">
<polygon fill="white" stroke="#666666" points="62,-166 0,-166 0,-147 62,-147 62,-166"/>
<text text-anchor="middle" x="31" y="-154" font-family="Helvetica,sans-Serif" font-size="10.00">utf8_trim</text>
</a>
</g>
</g>
<!-- Node7&#45;&gt;Node8 -->
<g id="edge7_Node000007_Node000008" class="edge">
<title>Node7&#45;&gt;Node8</title>
<g id="a_edge7_Node000007_Node000008"><a xlink:title=" ">
<path fill="none" stroke="#63b8ff" d="M87.9,-167.39C79.26,-165.71 70.31,-163.97 62.17,-162.38"/>
<polygon fill="#63b8ff" stroke="#63b8ff" points="87.36,-170.85 97.84,-169.33 88.7,-163.98 87.36,-170.85"/>
</a>
</g>
</g>
<!-- Node9&#45;&gt;Node8 -->
<g id="edge9_Node000009_Node000008" class="edge">
<title>Node9&#45;&gt;Node8</title>
<g id="a_edge9_Node000009_Node000008"><a xlink:title=" ">
<path fill="none" stroke="#63b8ff" d="M87.9,-146.18C79.26,-147.78 70.31,-149.43 62.17,-150.93"/>
<polygon fill="#63b8ff" stroke="#63b8ff" points="88.65,-149.6 97.84,-144.34 87.38,-142.72 88.65,-149.6"/>
</a>
</g>
</g>
</g>
</svg>
