<?xml version="1.0" encoding="UTF-8" standalone="no"?>
<!DOCTYPE svg PUBLIC "-//W3C//DTD SVG 1.1//EN"
 "http://www.w3.org/Graphics/SVG/1.1/DTD/svg11.dtd">
<!-- Generated by graphviz version 2.43.0 (0)
 -->
<!-- Title: utf8_rtrim Pages: 1 -->
<svg width="171pt" height="45pt"
 viewBox="0.00 0.00 171.00 45.00" xmlns="http://www.w3.org/2000/svg" xmlns:xlink="http://www.w3.org/1999/xlink">
<g id="graph0" class="graph" transform="scale(1 1) rotate(0) translate(4 41)">
<title>utf8_rtrim</title>
<!-- Node1 -->
<g id="Node000001" class="node">
<title>Node1</title>
<g id="a_Node000001"><a xlink:title="Removes trailing whitespace from a UTF&#45;8 string in&#45;place.">
<polygon fill="#999999" stroke="#666666" points="163,-19 98,-19 98,0 163,0 163,-19"/>
<text text-anchor="middle" x="130.5" y="-7" font-family="Helvetica,sans-Serif" font-size="10.00">utf8_rtrim</text>
</a>
</g>
</g>
<!-- Node1&#45;&gt;Node1 -->
<g id="edge1_Node000001_Node000001" class="edge">
<title>Node1&#45;&gt;Node1</title>
<g id="a_edge1_Node000001_Node000001"><a xlink:title=" ">
<path fill="none" stroke="#63b8ff" d="M148.55,-28.91C147.13,-33.56 141.11,-37 130.5,-37 113.08,-37 108.05,-27.73 115.4,-19.08"/>
<polygon fill="#63b8ff" stroke="#63b8ff" points="151.83,-27.66 145.6,-19.08 145.12,-29.67 151.83,-27.66"/>
</a>
</g>
</g>
<!-- Node2 -->
<g id="Node000002" class="node">
<title>Node2</title>
<g id="a_Node000002"><a xlink:href="unicode_8c.html#a8ec9a3447456e99105106536e4dfe39a" target="_top" xlink:title="Removes leading and trailing whitespace from a UTF&#45;8 string in&#45;place.">
<polygon fill="white" stroke="#666666" points="62,-19 0,-19 0,0 62,0 62,-19"/>
<text text-anchor="middle" x="31" y="-7" font-family="Helvetica,sans-Serif" font-size="10.00">utf8_trim</text>
</a>
</g>
</g>
<!-- Node1&#45;&gt;Node2 -->
<g id="edge2_Node000001_Node000002" class="edge">
<title>Node1&#45;&gt;Node2</title>
<g id="a_edge2_Node000001_Node000002"><a xlink:title=" ">
<path fill="none" stroke="#63b8ff" d="M87.62,-9.5C79.07,-9.5 70.22,-9.5 62.17,-9.5"/>
<polygon fill="#63b8ff" stroke="#63b8ff" points="87.84,-13 97.84,-9.5 87.84,-6 87.84,-13"/>
</a>
</g>
</g>
<!-- Node2&#45;&gt;Node2 -->
<g id="edge3_Node000002_Node000002" class="edge">
<title>Node2&#45;&gt;Node2</title>
<g id="a_edge3_Node000002_Node000002"><a xlink:title=" ">
<path fill="none" stroke="#63b8ff" d="M49.05,-28.91C47.63,-33.56 41.61,-37 31,-37 13.58,-37 8.55,-27.73 15.9,-19.08"/>
<polygon fill="#63b8ff" stroke="#63b8ff" points="52.33,-27.66 46.1,-19.08 45.62,-29.67 52.33,-27.66"/>
</a>
</g>
</g>
</g>
</svg>
