<?xml version="1.0" encoding="UTF-8" standalone="no"?>
<!DOCTYPE svg PUBLIC "-//W3C//DTD SVG 1.1//EN"
 "http://www.w3.org/Graphics/SVG/1.1/DTD/svg11.dtd">
<!-- Generated by graphviz version 2.43.0 (0)
 -->
<!-- Title: utf8_split Pages: 1 -->
<!--zoomable 251 -->

<svg id="main" version="1.1" xmlns="http://www.w3.org/2000/svg" xmlns:xlink="http://www.w3.org/1999/xlink" xml:space="preserve" onload="init(evt)">
<style type="text/css"><![CDATA[
.node, .edge {opacity: 0.7;}
.node.selected, .edge.selected {opacity: 1;}
.edge:hover path { stroke: red; }
.edge:hover polygon { stroke: red; fill: red; }
]]></style>

<defs>
  <circle id="rim" cx="0" cy="0" r="7"/>
  <circle id="rim2" cx="0" cy="0" r="3.5"/>
  <g id="zoomPlus">
    <use xlink:href="#rim" fill="#404040"><set attributeName="fill" to="#808080" begin="zoomplus.mouseover" end="zoomplus.mouseout"/></use>
    <path d="M-4,0h8M0,-4v8" fill="none" stroke="white" stroke-width="1.5" pointer-events="none"/>
  </g>
  <g id="zoomMin">
    <use xlink:href="#rim" fill="#404040"><set attributeName="fill" to="#808080" begin="zoomminus.mouseover" end="zoomminus.mouseout"/></use>
    <path d="M-4,0h8" fill="none" stroke="white" stroke-width="1.5" pointer-events="none"/>
  </g>
  <g id="arrowUp" transform="translate(30 24)">
    <use xlink:href="#rim"/>
    <path pointer-events="none" fill="none" stroke="white" stroke-width="1.5" d="M0,-3.0v7 M-2.5,-0.5L0,-3.0L2.5,-0.5"/>
  </g>
  <g id="arrowRight" transform="rotate(90) translate(36 -43)">
    <use xlink:href="#rim"/>
    <path pointer-events="none" fill="none" stroke="white" stroke-width="1.5" d="M0,-3.0v7 M-2.5,-0.5L0,-3.0L2.5,-0.5"/>
  </g>
  <g id="arrowDown" transform="rotate(180) translate(-30 -48)">
    <use xlink:href="#rim"/>
    <path pointer-events="none" fill="none" stroke="white" stroke-width="1.5" d="M0,-3.0v7 M-2.5,-0.5L0,-3.0L2.5,-0.5"/>
  </g>
  <g id="arrowLeft" transform="rotate(270) translate(-36 17)">
    <use xlink:href="#rim"/>
    <path pointer-events="none" fill="none" stroke="white" stroke-width="1.5" d="M0,-3.0v7 M-2.5,-0.5L0,-3.0L2.5,-0.5"/>
  </g>
  <g id="resetDef">
    <use xlink:href="#rim2" fill="#404040"><set attributeName="fill" to="#808080" begin="reset.mouseover" end="reset.mouseout"/></use>
  </g>
</defs>
<script type="application/ecmascript">
var viewWidth = 528;
var viewHeight = 251;
var sectionId = 'dynsection-84';
</script>
<script type="application/ecmascript" xlink:href="svg.min.js"/>
<svg id="graph" class="graph">
<g id="viewport">
<title>utf8_split</title>
<!-- Node1 -->
<g id="Node000001" class="node">
<title>Node1</title>
<g id="a_Node000001"><a xlink:title="Splits a UTF&#45;8 string into parts using a delimiter.">
<polygon fill="#999999" stroke="#666666" points="62,-131 0,-131 0,-112 62,-112 62,-131"/>
<text text-anchor="middle" x="31" y="-119" font-family="Helvetica,sans-Serif" font-size="10.00">utf8_split</text>
</a>
</g>
</g>
<!-- Node1&#45;&gt;Node1 -->
<g id="edge13_Node000001_Node000001" class="edge">
<title>Node1&#45;&gt;Node1</title>
<g id="a_edge13_Node000001_Node000001"><a xlink:title=" ">
<path fill="none" stroke="#63b8ff" d="M13.12,-131.08C4.42,-139.73 10.38,-149 31,-149 43.89,-149 51.05,-145.38 52.48,-140.55"/>
<polygon fill="#63b8ff" stroke="#63b8ff" points="55.7,-139.19 48.88,-131.08 49.16,-141.67 55.7,-139.19"/>
</a>
</g>
</g>
<!-- Node2 -->
<g id="Node000002" class="node">
<title>Node2</title>
<g id="a_Node000002"><a xlink:href="unicode_8c.html#aadba4a5c759cfb7674c3dfe42351e952" target="_top" xlink:title="Determines the byte length of a UTF&#45;8 character from its first byte.">
<polygon fill="white" stroke="#666666" points="196,-225 98,-225 98,-206 196,-206 196,-225"/>
<text text-anchor="middle" x="147" y="-213" font-family="Helvetica,sans-Serif" font-size="10.00">utf8_char_length</text>
</a>
</g>
</g>
<!-- Node1&#45;&gt;Node2 -->
<g id="edge1_Node000001_Node000002" class="edge">
<title>Node1&#45;&gt;Node2</title>
<g id="a_edge1_Node000001_Node000002"><a xlink:title=" ">
<path fill="none" stroke="#63b8ff" d="M39.24,-131.12C50.54,-145.64 73.6,-173.36 98,-191.5 102.79,-195.06 108.19,-198.34 113.59,-201.26"/>
<polygon fill="#63b8ff" stroke="#63b8ff" points="112.08,-204.42 122.58,-205.82 115.24,-198.17 112.08,-204.42"/>
</a>
</g>
</g>
<!-- Node3 -->
<g id="Node000003" class="node">
<title>Node3</title>
<g id="a_Node000003"><a xlink:href="unicode_8c.html#a0b46c6da59494b8d0042d1557f77b6fe" target="_top" xlink:title="Counts the number of Unicode codepoints in a UTF&#45;8 string.">
<polygon fill="white" stroke="#666666" points="359,-206 232,-206 232,-187 359,-187 359,-206"/>
<text text-anchor="middle" x="295.5" y="-194" font-family="Helvetica,sans-Serif" font-size="10.00">utf8_count_codepoints</text>
</a>
</g>
</g>
<!-- Node1&#45;&gt;Node3 -->
<g id="edge3_Node000001_Node000003" class="edge">
<title>Node1&#45;&gt;Node3</title>
<g id="a_edge3_Node000001_Node000003"><a xlink:title=" ">
<path fill="none" stroke="#63b8ff" d="M46.04,-131.13C58.98,-139.57 79,-151.54 98,-158.5 137.52,-172.97 183.62,-182.25 221.24,-188.02"/>
<polygon fill="#63b8ff" stroke="#63b8ff" points="221.21,-191.55 231.61,-189.55 222.23,-184.63 221.21,-191.55"/>
</a>
</g>
</g>
<!-- Node4 -->
<g id="Node000004" class="node">
<title>Node4</title>
<g id="a_Node000004"><a xlink:href="unicode_8c.html#ac8dd740b9cf9558c3b5bd89f91857d08" target="_top" xlink:title="Creates a new utf8_string object from a C string.">
<polygon fill="white" stroke="#666666" points="178,-131 116,-131 116,-112 178,-112 178,-131"/>
<text text-anchor="middle" x="147" y="-119" font-family="Helvetica,sans-Serif" font-size="10.00">utf8_new</text>
</a>
</g>
</g>
<!-- Node1&#45;&gt;Node4 -->
<g id="edge5_Node000001_Node000004" class="edge">
<title>Node1&#45;&gt;Node4</title>
<g id="a_edge5_Node000001_Node000004"><a xlink:title=" ">
<path fill="none" stroke="#63b8ff" d="M62.25,-121.5C75.52,-121.5 91.29,-121.5 105.55,-121.5"/>
<polygon fill="#63b8ff" stroke="#63b8ff" points="105.61,-125 115.61,-121.5 105.61,-118 105.61,-125"/>
</a>
</g>
</g>
<!-- Node6 -->
<g id="Node000006" class="node">
<title>Node6</title>
<g id="a_Node000006"><a xlink:href="unicode_8c.html#a37b529eaefb2e43c5f2a7eda74138c13" target="_top" xlink:title="Counts the number of valid UTF&#45;8 bytes in a string.">
<polygon fill="white" stroke="#666666" points="520,-94 395,-94 395,-75 520,-75 520,-94"/>
<text text-anchor="middle" x="457.5" y="-82" font-family="Helvetica,sans-Serif" font-size="10.00">utf8_valid_byte_count</text>
</a>
</g>
</g>
<!-- Node1&#45;&gt;Node6 -->
<g id="edge17_Node000001_Node000006" class="edge">
<title>Node1&#45;&gt;Node6</title>
<g id="a_edge17_Node000001_Node000006"><a xlink:title=" ">
<path fill="none" stroke="#63b8ff" d="M62.3,-112.03C73.43,-108.87 86.19,-105.62 98,-103.5 196.08,-85.88 311.49,-82.86 384.32,-83.07"/>
<polygon fill="#63b8ff" stroke="#63b8ff" points="384.73,-86.57 394.75,-83.13 384.77,-79.57 384.73,-86.57"/>
</a>
</g>
</g>
<!-- Node7 -->
<g id="Node000007" class="node">
<title>Node7</title>
<g id="a_Node000007"><a xlink:href="unicode_8c.html#ae86895dd5a7ff70ecb5da034bb91b032" target="_top" xlink:title="Checks if a string starts with a given prefix.">
<polygon fill="white" stroke="#666666" points="343,-19 248,-19 248,0 343,0 343,-19"/>
<text text-anchor="middle" x="295.5" y="-7" font-family="Helvetica,sans-Serif" font-size="10.00">utf8_starts_with</text>
</a>
</g>
</g>
<!-- Node1&#45;&gt;Node7 -->
<g id="edge14_Node000001_Node000007" class="edge">
<title>Node1&#45;&gt;Node7</title>
<g id="a_edge14_Node000001_Node000007"><a xlink:title=" ">
<path fill="none" stroke="#63b8ff" d="M38.37,-111.58C48.84,-96.14 71.22,-66.58 98,-51.5 141.02,-27.29 196.52,-17.01 237.56,-12.66"/>
<polygon fill="#63b8ff" stroke="#63b8ff" points="238.05,-16.13 247.66,-11.67 237.37,-9.16 238.05,-16.13"/>
</a>
</g>
</g>
<!-- Node2&#45;&gt;Node2 -->
<g id="edge2_Node000002_Node000002" class="edge">
<title>Node2&#45;&gt;Node2</title>
<g id="a_edge2_Node000002_Node000002"><a xlink:title=" ">
<path fill="none" stroke="#63b8ff" d="M129.12,-225.08C120.42,-233.73 126.38,-243 147,-243 159.89,-243 167.05,-239.38 168.48,-234.55"/>
<polygon fill="#63b8ff" stroke="#63b8ff" points="171.7,-233.19 164.88,-225.08 165.16,-235.67 171.7,-233.19"/>
</a>
</g>
</g>
<!-- Node3&#45;&gt;Node3 -->
<g id="edge4_Node000003_Node000003" class="edge">
<title>Node3&#45;&gt;Node3</title>
<g id="a_edge4_Node000003_Node000003"><a xlink:title=" ">
<path fill="none" stroke="#63b8ff" d="M272.69,-206.08C261.59,-214.73 269.2,-224 295.5,-224 312.35,-224 321.53,-220.2 323.03,-215.19"/>
<polygon fill="#63b8ff" stroke="#63b8ff" points="326.02,-213.35 318.31,-206.08 319.8,-216.57 326.02,-213.35"/>
</a>
</g>
</g>
<!-- Node4&#45;&gt;Node3 -->
<g id="edge10_Node000004_Node000003" class="edge">
<title>Node4&#45;&gt;Node3</title>
<g id="a_edge10_Node000004_Node000003"><a xlink:title=" ">
<path fill="none" stroke="#63b8ff" d="M159.52,-131.08C175.07,-143.58 204.07,-165.41 232,-178.5 236.02,-180.38 240.28,-182.11 244.61,-183.69"/>
<polygon fill="#63b8ff" stroke="#63b8ff" points="243.54,-187.03 254.14,-186.91 245.78,-180.39 243.54,-187.03"/>
</a>
</g>
</g>
<!-- Node4&#45;&gt;Node4 -->
<g id="edge11_Node000004_Node000004" class="edge">
<title>Node4&#45;&gt;Node4</title>
<g id="a_edge11_Node000004_Node000004"><a xlink:title=" ">
<path fill="none" stroke="#63b8ff" d="M129.12,-131.08C120.42,-139.73 126.38,-149 147,-149 159.89,-149 167.05,-145.38 168.48,-140.55"/>
<polygon fill="#63b8ff" stroke="#63b8ff" points="171.7,-139.19 164.88,-131.08 165.16,-141.67 171.7,-139.19"/>
</a>
</g>
</g>
<!-- Node5 -->
<g id="Node000005" class="node">
<title>Node5</title>
<g id="a_Node000005"><a xlink:href="unicode_8c.html#a3619b219411d41dbdd9197a4d9f378a3" target="_top" xlink:title="Creates a copy of a UTF&#45;8 string containing only valid UTF&#45;8 sequences.">
<polygon fill="white" stroke="#666666" points="328,-151 263,-151 263,-132 328,-132 328,-151"/>
<text text-anchor="middle" x="295.5" y="-139" font-family="Helvetica,sans-Serif" font-size="10.00">utf8_copy</text>
</a>
</g>
</g>
<!-- Node4&#45;&gt;Node5 -->
<g id="edge6_Node000004_Node000005" class="edge">
<title>Node4&#45;&gt;Node5</title>
<g id="a_edge6_Node000004_Node000005"><a xlink:title=" ">
<path fill="none" stroke="#63b8ff" d="M178.35,-125.64C199.89,-128.58 229.07,-132.57 252.79,-135.81"/>
<polygon fill="#63b8ff" stroke="#63b8ff" points="252.54,-139.3 262.92,-137.19 253.48,-132.37 252.54,-139.3"/>
</a>
</g>
</g>
<!-- Node4&#45;&gt;Node6 -->
<g id="edge12_Node000004_Node000006" class="edge">
<title>Node4&#45;&gt;Node6</title>
<g id="a_edge12_Node000004_Node000006"><a xlink:title=" ">
<path fill="none" stroke="#63b8ff" d="M178.14,-117.88C225.63,-112.19 319.2,-100.97 384.7,-93.11"/>
<polygon fill="#63b8ff" stroke="#63b8ff" points="385.44,-96.55 394.95,-91.88 384.61,-89.6 385.44,-96.55"/>
</a>
</g>
</g>
<!-- Node5&#45;&gt;Node5 -->
<g id="edge7_Node000005_Node000005" class="edge">
<title>Node5&#45;&gt;Node5</title>
<g id="a_edge7_Node000005_Node000005"><a xlink:title=" ">
<path fill="none" stroke="#63b8ff" d="M272.69,-151.08C261.59,-159.73 269.2,-169 295.5,-169 312.35,-169 321.53,-165.2 323.03,-160.19"/>
<polygon fill="#63b8ff" stroke="#63b8ff" points="326.02,-158.35 318.31,-151.08 319.8,-161.57 326.02,-158.35"/>
</a>
</g>
</g>
<!-- Node5&#45;&gt;Node6 -->
<g id="edge8_Node000005_Node000006" class="edge">
<title>Node5&#45;&gt;Node6</title>
<g id="a_edge8_Node000005_Node000006"><a xlink:title=" ">
<path fill="none" stroke="#63b8ff" d="M323.28,-131.96C349.82,-122.51 390.65,-107.96 420.11,-97.46"/>
<polygon fill="#63b8ff" stroke="#63b8ff" points="421.39,-100.72 429.63,-94.07 419.04,-94.13 421.39,-100.72"/>
</a>
</g>
</g>
<!-- Node6&#45;&gt;Node6 -->
<g id="edge9_Node000006_Node000006" class="edge">
<title>Node6&#45;&gt;Node6</title>
<g id="a_edge9_Node000006_Node000006"><a xlink:title=" ">
<path fill="none" stroke="#63b8ff" d="M432.53,-94.08C420.38,-102.73 428.71,-112 457.5,-112 476.4,-112 486.48,-108.01 487.74,-102.82"/>
<polygon fill="#63b8ff" stroke="#63b8ff" points="490.63,-100.84 482.47,-94.08 484.64,-104.45 490.63,-100.84"/>
</a>
</g>
</g>
<!-- Node7&#45;&gt;Node6 -->
<g id="edge16_Node000007_Node000006" class="edge">
<title>Node7&#45;&gt;Node6</title>
<g id="a_edge16_Node000007_Node000006"><a xlink:title=" ">
<path fill="none" stroke="#63b8ff" d="M317.09,-19.15C344.93,-32.2 394.77,-55.56 426.7,-70.53"/>
<polygon fill="#63b8ff" stroke="#63b8ff" points="425.45,-73.81 435.99,-74.89 428.42,-67.47 425.45,-73.81"/>
</a>
</g>
</g>
<!-- Node7&#45;&gt;Node7 -->
<g id="edge15_Node000007_Node000007" class="edge">
<title>Node7&#45;&gt;Node7</title>
<g id="a_edge15_Node000007_Node000007"><a xlink:title=" ">
<path fill="none" stroke="#63b8ff" d="M272.69,-19.08C261.59,-27.73 269.2,-37 295.5,-37 312.35,-37 321.53,-33.2 323.03,-28.19"/>
<polygon fill="#63b8ff" stroke="#63b8ff" points="326.02,-26.35 318.31,-19.08 319.8,-29.57 326.02,-26.35"/>
</a>
</g>
</g>
</g>
</svg>

<g id="navigator" transform="translate(0 0)" fill="#404254">
  <rect fill="#f2f5e9" fill-opacity="0.5" stroke="#606060" stroke-width=".5" x="0" y="0" width="60" height="60"/>
  <use id="zoomplus" xlink:href="#zoomPlus" x="17" y="9" onmousedown="handleZoom(evt,'in')"/>
  <use id="zoomminus" xlink:href="#zoomMin" x="42" y="9" onmousedown="handleZoom(evt,'out')"/>
  <use id="reset" xlink:href="#resetDef" x="30" y="36" onmousedown="handleReset()"/>
   <use id="arrowup" xlink:href="#arrowUp" x="0" y="0" onmousedown="handlePan(0,-1)"/>
  <use id="arrowright" xlink:href="#arrowRight" x="0" y="0" onmousedown="handlePan(1,0)"/>
  <use id="arrowdown" xlink:href="#arrowDown" x="0" y="0" onmousedown="handlePan(0,1)"/>
  <use id="arrowleft" xlink:href="#arrowLeft" x="0" y="0" onmousedown="handlePan(-1,0)"/>
</g>
<svg viewBox="0 0 15 15" width="100%" height="30px" preserveAspectRatio="xMaxYMin meet">
 <g id="arrow_out" transform="scale(0.3 0.3)">
  <a xlink:href="unicode_8h_a283c63b93c8d578ec05102ff6533ae5b_cgraph_org.svg" target="_base">
   <rect id="button" ry="5" rx="5" y="6" x="6" height="38" width="38"
        fill="#f2f5e9" fill-opacity="0.5" stroke="#606060" stroke-width="1.0"/>
   <path id="arrow"
     d="M 11.500037,31.436501 C 11.940474,20.09759 22.043105,11.32322 32.158766,21.979434 L 37.068811,17.246167 C 37.068811,17.246167 37.088388,32 37.088388,32 L 22.160133,31.978069 C 22.160133,31.978069 26.997745,27.140456 26.997745,27.140456 C 18.528582,18.264221 13.291696,25.230495 11.500037,31.436501 z"
     style="fill:#404040;"/>
  </a>
 </g>
</svg>

<style type='text/css'>
<![CDATA[
[data-mouse-over-selected='false'] { opacity: 0.7; }
[data-mouse-over-selected='true']  { opacity: 1.0; }
]]>
</style>
<script type="application/ecmascript"><![CDATA[
document.addEventListener('DOMContentLoaded', (event) => {
  highlightEdges();
  highlightAdjacentNodes();
});
]]></script>
</svg>
