<?xml version="1.0" encoding="UTF-8" standalone="no"?>
<!DOCTYPE svg PUBLIC "-//W3C//DTD SVG 1.1//EN"
 "http://www.w3.org/Graphics/SVG/1.1/DTD/svg11.dtd">
<!-- Generated by graphviz version 2.43.0 (0)
 -->
<!-- Title: is_codepoint_alpha Pages: 1 -->
<svg width="236pt" height="45pt"
 viewBox="0.00 0.00 236.00 45.00" xmlns="http://www.w3.org/2000/svg" xmlns:xlink="http://www.w3.org/1999/xlink">

<svg id="main" version="1.1" xmlns="http://www.w3.org/2000/svg" xmlns:xlink="http://www.w3.org/1999/xlink" xml:space="preserve" onload="init(evt)">
<style type="text/css"><![CDATA[
.node, .edge {opacity: 0.7;}
.node.selected, .edge.selected {opacity: 1;}
.edge:hover path { stroke: red; }
.edge:hover polygon { stroke: red; fill: red; }
]]></style>
<script type="application/ecmascript" xlink:href="svg.min.js"/>
<svg id="graph" class="graph">
<g id="graph0" class="graph" transform="scale(1 1) rotate(0) translate(4 41)">
<title>is_codepoint_alpha</title>
<!-- Node1 -->
<g id="Node000001" class="node">
<title>Node1</title>
<g id="a_Node000001"><a xlink:title="Checks if a codepoint represents an alphabetic character.">
<polygon fill="#999999" stroke="#666666" points="228,-19 118,-19 118,0 228,0 228,-19"/>
<text text-anchor="middle" x="173" y="-7" font-family="Helvetica,sans-Serif" font-size="10.00">is_codepoint_alpha</text>
</a>
</g>
</g>
<!-- Node1&#45;&gt;Node1 -->
<g id="edge1_Node000001_Node000001" class="edge">
<title>Node1&#45;&gt;Node1</title>
<g id="a_edge1_Node000001_Node000001"><a xlink:title=" ">
<path fill="none" stroke="#63b8ff" d="M197.55,-28.19C196.21,-33.2 188.03,-37 173,-37 149.54,-37 142.76,-27.73 152.65,-19.08"/>
<polygon fill="#63b8ff" stroke="#63b8ff" points="200.72,-26.69 193.35,-19.08 194.36,-29.63 200.72,-26.69"/>
</a>
</g>
</g>
<!-- Node2 -->
<g id="Node000002" class="node">
<title>Node2</title>
<g id="a_Node000002"><a xlink:href="unicode_8c.html#af2018e35eb3e3d76cc29c597ed141943" target="_top" xlink:title="Checks if a UTF&#45;8 character represents an alphabetic character.">
<polygon fill="white" stroke="#666666" points="82,-19 0,-19 0,0 82,0 82,-19"/>
<text text-anchor="middle" x="41" y="-7" font-family="Helvetica,sans-Serif" font-size="10.00">is_utf8_alpha</text>
</a>
</g>
</g>
<!-- Node1&#45;&gt;Node2 -->
<g id="edge2_Node000001_Node000002" class="edge">
<title>Node1&#45;&gt;Node2</title>
<g id="a_edge2_Node000001_Node000002"><a xlink:title=" ">
<path fill="none" stroke="#63b8ff" d="M107.79,-9.5C99.05,-9.5 90.3,-9.5 82.16,-9.5"/>
<polygon fill="#63b8ff" stroke="#63b8ff" points="108,-13 118,-9.5 108,-6 108,-13"/>
</a>
</g>
</g>
<!-- Node2&#45;&gt;Node2 -->
<g id="edge3_Node000002_Node000002" class="edge">
<title>Node2&#45;&gt;Node2</title>
<g id="a_edge3_Node000002_Node000002"><a xlink:title=" ">
<path fill="none" stroke="#63b8ff" d="M65.55,-28.19C64.21,-33.2 56.03,-37 41,-37 17.54,-37 10.76,-27.73 20.65,-19.08"/>
<polygon fill="#63b8ff" stroke="#63b8ff" points="68.72,-26.69 61.35,-19.08 62.36,-29.63 68.72,-26.69"/>
</a>
</g>
</g>
</g>
</svg>
</svg>

<style type='text/css'>
<![CDATA[
[data-mouse-over-selected='false'] { opacity: 0.7; }
[data-mouse-over-selected='true']  { opacity: 1.0; }
]]>
</style>
<script type="application/ecmascript"><![CDATA[
document.addEventListener('DOMContentLoaded', (event) => {
  highlightEdges();
  highlightAdjacentNodes();
});
]]></script>
</svg>
