<?xml version="1.0" encoding="UTF-8" standalone="no"?>
<!DOCTYPE svg PUBLIC "-//W3C//DTD SVG 1.1//EN"
 "http://www.w3.org/Graphics/SVG/1.1/DTD/svg11.dtd">
<!-- Generated by graphviz version 2.43.0 (0)
 -->
<!-- Title: ucp_to_utf8 Pages: 1 -->
<svg width="197pt" height="100pt"
 viewBox="0.00 0.00 197.00 100.00" xmlns="http://www.w3.org/2000/svg" xmlns:xlink="http://www.w3.org/1999/xlink">
<g id="graph0" class="graph" transform="scale(1 1) rotate(0) translate(4 96)">
<title>ucp_to_utf8</title>
<!-- Node1 -->
<g id="Node000001" class="node">
<title>Node1</title>
<g id="a_Node000001"><a xlink:title="Converts a Unicode codepoint to its UTF&#45;8 byte sequence.">
<polygon fill="#999999" stroke="#666666" points="189,-46 115,-46 115,-27 189,-27 189,-46"/>
<text text-anchor="middle" x="152" y="-34" font-family="Helvetica,sans-Serif" font-size="10.00">ucp_to_utf8</text>
</a>
</g>
</g>
<!-- Node1&#45;&gt;Node1 -->
<g id="edge1_Node000001_Node000001" class="edge">
<title>Node1&#45;&gt;Node1</title>
<g id="a_edge1_Node000001_Node000001"><a xlink:title=" ">
<path fill="none" stroke="#63b8ff" d="M172.74,-55.55C171.35,-60.38 164.44,-64 152,-64 132.09,-64 126.34,-54.73 134.74,-46.08"/>
<polygon fill="#63b8ff" stroke="#63b8ff" points="175.99,-54.26 169.26,-46.08 169.42,-56.68 175.99,-54.26"/>
</a>
</g>
</g>
<!-- Node2 -->
<g id="Node000002" class="node">
<title>Node2</title>
<g id="a_Node000002"><a xlink:href="unicode_8c.html#ae3f31481d188b5fbe03ca760b031677b" target="_top" xlink:title="Converts all uppercase characters to lowercase in&#45;place.">
<polygon fill="white" stroke="#666666" points="78.5,-74 0.5,-74 0.5,-55 78.5,-55 78.5,-74"/>
<text text-anchor="middle" x="39.5" y="-62" font-family="Helvetica,sans-Serif" font-size="10.00">utf8_tolower</text>
</a>
</g>
</g>
<!-- Node1&#45;&gt;Node2 -->
<g id="edge2_Node000001_Node000002" class="edge">
<title>Node1&#45;&gt;Node2</title>
<g id="a_edge2_Node000001_Node000002"><a xlink:title=" ">
<path fill="none" stroke="#63b8ff" d="M104.97,-48.16C96.09,-50.42 86.87,-52.75 78.28,-54.93"/>
<polygon fill="#63b8ff" stroke="#63b8ff" points="105.98,-51.52 114.82,-45.67 104.26,-44.73 105.98,-51.52"/>
</a>
</g>
</g>
<!-- Node3 -->
<g id="Node000003" class="node">
<title>Node3</title>
<g id="a_Node000003"><a xlink:href="unicode_8c.html#a0695d31239b48bbee503c9191bdfc627" target="_top" xlink:title="Converts all lowercase characters to uppercase in&#45;place.">
<polygon fill="white" stroke="#666666" points="79,-19 0,-19 0,0 79,0 79,-19"/>
<text text-anchor="middle" x="39.5" y="-7" font-family="Helvetica,sans-Serif" font-size="10.00">utf8_toupper</text>
</a>
</g>
</g>
<!-- Node1&#45;&gt;Node3 -->
<g id="edge4_Node000001_Node000003" class="edge">
<title>Node1&#45;&gt;Node3</title>
<g id="a_edge4_Node000001_Node000003"><a xlink:title=" ">
<path fill="none" stroke="#63b8ff" d="M104.91,-25.24C96.3,-23.14 87.39,-20.96 79.05,-18.92"/>
<polygon fill="#63b8ff" stroke="#63b8ff" points="104.27,-28.69 114.82,-27.66 105.93,-21.89 104.27,-28.69"/>
</a>
</g>
</g>
<!-- Node2&#45;&gt;Node2 -->
<g id="edge3_Node000002_Node000002" class="edge">
<title>Node2&#45;&gt;Node2</title>
<g id="a_edge3_Node000002_Node000002"><a xlink:title=" ">
<path fill="none" stroke="#63b8ff" d="M60.24,-83.55C58.85,-88.38 51.94,-92 39.5,-92 19.59,-92 13.84,-82.73 22.24,-74.08"/>
<polygon fill="#63b8ff" stroke="#63b8ff" points="63.49,-82.26 56.76,-74.08 56.92,-84.68 63.49,-82.26"/>
</a>
</g>
</g>
<!-- Node3&#45;&gt;Node3 -->
<g id="edge5_Node000003_Node000003" class="edge">
<title>Node3&#45;&gt;Node3</title>
<g id="a_edge5_Node000003_Node000003"><a xlink:title=" ">
<path fill="none" stroke="#63b8ff" d="M60.24,-28.55C58.85,-33.38 51.94,-37 39.5,-37 19.59,-37 13.84,-27.73 22.24,-19.08"/>
<polygon fill="#63b8ff" stroke="#63b8ff" points="63.49,-27.26 56.76,-19.08 56.92,-29.68 63.49,-27.26"/>
</a>
</g>
</g>
</g>
</svg>
