<?xml version="1.0" encoding="UTF-8" standalone="no"?>
<!DOCTYPE svg PUBLIC "-//W3C//DTD SVG 1.1//EN"
 "http://www.w3.org/Graphics/SVG/1.1/DTD/svg11.dtd">
<!-- Generated by graphviz version 2.43.0 (0)
 -->
<!-- Title: utf8_reverse Pages: 1 -->
<svg width="220pt" height="45pt"
 viewBox="0.00 0.00 220.00 45.00" xmlns="http://www.w3.org/2000/svg" xmlns:xlink="http://www.w3.org/1999/xlink">
<g id="graph0" class="graph" transform="scale(1 1) rotate(0) translate(4 41)">
<title>utf8_reverse</title>
<!-- Node1 -->
<g id="Node000001" class="node">
<title>Node1</title>
<g id="a_Node000001"><a xlink:title="Reverses a UTF&#45;8 string by codepoints.">
<polygon fill="#999999" stroke="#666666" points="78,-19 0,-19 0,0 78,0 78,-19"/>
<text text-anchor="middle" x="39" y="-7" font-family="Helvetica,sans-Serif" font-size="10.00">utf8_reverse</text>
</a>
</g>
</g>
<!-- Node1&#45;&gt;Node1 -->
<g id="edge3_Node000001_Node000001" class="edge">
<title>Node1&#45;&gt;Node1</title>
<g id="a_edge3_Node000001_Node000001"><a xlink:title=" ">
<path fill="none" stroke="#63b8ff" d="M19.89,-19.08C10.59,-27.73 16.96,-37 39,-37 52.77,-37 60.43,-33.38 61.96,-28.55"/>
<polygon fill="#63b8ff" stroke="#63b8ff" points="65.12,-27.03 58.11,-19.08 58.64,-29.66 65.12,-27.03"/>
</a>
</g>
</g>
<!-- Node2 -->
<g id="Node000002" class="node">
<title>Node2</title>
<g id="a_Node000002"><a xlink:href="unicode_8c.html#aadba4a5c759cfb7674c3dfe42351e952" target="_top" xlink:title="Determines the byte length of a UTF&#45;8 character from its first byte.">
<polygon fill="white" stroke="#666666" points="212,-19 114,-19 114,0 212,0 212,-19"/>
<text text-anchor="middle" x="163" y="-7" font-family="Helvetica,sans-Serif" font-size="10.00">utf8_char_length</text>
</a>
</g>
</g>
<!-- Node1&#45;&gt;Node2 -->
<g id="edge1_Node000001_Node000002" class="edge">
<title>Node1&#45;&gt;Node2</title>
<g id="a_edge1_Node000001_Node000002"><a xlink:title=" ">
<path fill="none" stroke="#63b8ff" d="M78.27,-9.5C86.4,-9.5 95.17,-9.5 103.86,-9.5"/>
<polygon fill="#63b8ff" stroke="#63b8ff" points="103.98,-13 113.98,-9.5 103.98,-6 103.98,-13"/>
</a>
</g>
</g>
<!-- Node2&#45;&gt;Node2 -->
<g id="edge2_Node000002_Node000002" class="edge">
<title>Node2&#45;&gt;Node2</title>
<g id="a_edge2_Node000002_Node000002"><a xlink:title=" ">
<path fill="none" stroke="#63b8ff" d="M143.89,-19.08C134.59,-27.73 140.96,-37 163,-37 176.77,-37 184.43,-33.38 185.96,-28.55"/>
<polygon fill="#63b8ff" stroke="#63b8ff" points="189.12,-27.03 182.11,-19.08 182.64,-29.66 189.12,-27.03"/>
</a>
</g>
</g>
</g>
</svg>
