<?xml version="1.0" encoding="UTF-8" standalone="no"?>
<!DOCTYPE svg PUBLIC "-//W3C//DTD SVG 1.1//EN"
 "http://www.w3.org/Graphics/SVG/1.1/DTD/svg11.dtd">
<!-- Generated by graphviz version 2.43.0 (0)
 -->
<!-- Title: utf8_trim Pages: 1 -->
<svg width="492pt" height="127pt"
 viewBox="0.00 0.00 492.00 127.00" xmlns="http://www.w3.org/2000/svg" xmlns:xlink="http://www.w3.org/1999/xlink">
<g id="graph0" class="graph" transform="scale(1 1) rotate(0) translate(4 123)">
<title>utf8_trim</title>
<!-- Node1 -->
<g id="Node000001" class="node">
<title>Node1</title>
<g id="a_Node000001"><a xlink:title="Removes leading and trailing whitespace from a UTF&#45;8 string in&#45;place.">
<polygon fill="#999999" stroke="#666666" points="62,-46 0,-46 0,-27 62,-27 62,-46"/>
<text text-anchor="middle" x="31" y="-34" font-family="Helvetica,sans-Serif" font-size="10.00">utf8_trim</text>
</a>
</g>
</g>
<!-- Node1&#45;&gt;Node1 -->
<g id="edge15_Node000001_Node000001" class="edge">
<title>Node1&#45;&gt;Node1</title>
<g id="a_edge15_Node000001_Node000001"><a xlink:title=" ">
<path fill="none" stroke="#63b8ff" d="M15.9,-46.08C8.55,-54.73 13.58,-64 31,-64 41.61,-64 47.63,-60.56 49.05,-55.91"/>
<polygon fill="#63b8ff" stroke="#63b8ff" points="52.33,-54.66 46.1,-46.08 45.62,-56.67 52.33,-54.66"/>
</a>
</g>
</g>
<!-- Node2 -->
<g id="Node000002" class="node">
<title>Node2</title>
<g id="a_Node000002"><a xlink:href="unicode_8c.html#a358a6ddb4231f045fa1996354bb69b56" target="_top" xlink:title="Removes leading whitespace from a UTF&#45;8 string in&#45;place.">
<polygon fill="white" stroke="#666666" points="163,-74 98,-74 98,-55 163,-55 163,-74"/>
<text text-anchor="middle" x="130.5" y="-62" font-family="Helvetica,sans-Serif" font-size="10.00">utf8_ltrim</text>
</a>
</g>
</g>
<!-- Node1&#45;&gt;Node2 -->
<g id="edge1_Node000001_Node000002" class="edge">
<title>Node1&#45;&gt;Node2</title>
<g id="a_edge1_Node000001_Node000002"><a xlink:title=" ">
<path fill="none" stroke="#63b8ff" d="M62.05,-45.13C70.26,-47.49 79.31,-50.09 88.03,-52.59"/>
<polygon fill="#63b8ff" stroke="#63b8ff" points="87.11,-55.97 97.69,-55.37 89.05,-49.24 87.11,-55.97"/>
</a>
</g>
</g>
<!-- Node7 -->
<g id="Node000007" class="node">
<title>Node7</title>
<g id="a_Node000007"><a xlink:href="unicode_8c.html#a673ecb04bcd3fc52c6222a67233a8ce1" target="_top" xlink:title="Removes trailing whitespace from a UTF&#45;8 string in&#45;place.">
<polygon fill="white" stroke="#666666" points="163,-19 98,-19 98,0 163,0 163,-19"/>
<text text-anchor="middle" x="130.5" y="-7" font-family="Helvetica,sans-Serif" font-size="10.00">utf8_rtrim</text>
</a>
</g>
</g>
<!-- Node1&#45;&gt;Node7 -->
<g id="edge11_Node000001_Node000007" class="edge">
<title>Node1&#45;&gt;Node7</title>
<g id="a_edge11_Node000001_Node000007"><a xlink:title=" ">
<path fill="none" stroke="#63b8ff" d="M62.05,-28.18C70.26,-25.9 79.31,-23.4 88.03,-20.98"/>
<polygon fill="#63b8ff" stroke="#63b8ff" points="88.99,-24.35 97.69,-18.31 87.12,-17.6 88.99,-24.35"/>
</a>
</g>
</g>
<!-- Node2&#45;&gt;Node2 -->
<g id="edge10_Node000002_Node000002" class="edge">
<title>Node2&#45;&gt;Node2</title>
<g id="a_edge10_Node000002_Node000002"><a xlink:title=" ">
<path fill="none" stroke="#63b8ff" d="M115.4,-74.08C108.05,-82.73 113.08,-92 130.5,-92 141.11,-92 147.13,-88.56 148.55,-83.91"/>
<polygon fill="#63b8ff" stroke="#63b8ff" points="151.83,-82.66 145.6,-74.08 145.12,-84.67 151.83,-82.66"/>
</a>
</g>
</g>
<!-- Node3 -->
<g id="Node000003" class="node">
<title>Node3</title>
<g id="a_Node000003"><a xlink:href="unicode_8c.html#ad7d24e5bc418ae563b5afc21c6898e10" target="_top" xlink:title="Checks if a UTF&#45;8 character represents whitespace.">
<polygon fill="white" stroke="#666666" points="309,-74 199,-74 199,-55 309,-55 309,-74"/>
<text text-anchor="middle" x="254" y="-62" font-family="Helvetica,sans-Serif" font-size="10.00">is_utf8_whitespace</text>
</a>
</g>
</g>
<!-- Node2&#45;&gt;Node3 -->
<g id="edge2_Node000002_Node000003" class="edge">
<title>Node2&#45;&gt;Node3</title>
<g id="a_edge2_Node000002_Node000003"><a xlink:title=" ">
<path fill="none" stroke="#63b8ff" d="M163.11,-64.5C171.07,-64.5 179.92,-64.5 188.87,-64.5"/>
<polygon fill="#63b8ff" stroke="#63b8ff" points="188.96,-68 198.96,-64.5 188.96,-61 188.96,-68"/>
</a>
</g>
</g>
<!-- Node6 -->
<g id="Node000006" class="node">
<title>Node6</title>
<g id="a_Node000006"><a xlink:href="unicode_8c.html#aadba4a5c759cfb7674c3dfe42351e952" target="_top" xlink:title="Determines the byte length of a UTF&#45;8 character from its first byte.">
<polygon fill="white" stroke="#666666" points="303,-19 205,-19 205,0 303,0 303,-19"/>
<text text-anchor="middle" x="254" y="-7" font-family="Helvetica,sans-Serif" font-size="10.00">utf8_char_length</text>
</a>
</g>
</g>
<!-- Node2&#45;&gt;Node6 -->
<g id="edge8_Node000002_Node000006" class="edge">
<title>Node2&#45;&gt;Node6</title>
<g id="a_edge8_Node000002_Node000006"><a xlink:title=" ">
<path fill="none" stroke="#63b8ff" d="M152.66,-54.92C171.97,-46.18 200.73,-33.16 222.51,-23.3"/>
<polygon fill="#63b8ff" stroke="#63b8ff" points="224,-26.47 231.67,-19.16 221.12,-20.09 224,-26.47"/>
</a>
</g>
</g>
<!-- Node3&#45;&gt;Node3 -->
<g id="edge5_Node000003_Node000003" class="edge">
<title>Node3&#45;&gt;Node3</title>
<g id="a_edge5_Node000003_Node000003"><a xlink:title=" ">
<path fill="none" stroke="#63b8ff" d="M235.2,-74.08C226.05,-82.73 232.32,-92 254,-92 267.55,-92 275.08,-88.38 276.59,-83.55"/>
<polygon fill="#63b8ff" stroke="#63b8ff" points="279.77,-82.07 272.8,-74.08 273.27,-84.67 279.77,-82.07"/>
</a>
</g>
</g>
<!-- Node4 -->
<g id="Node000004" class="node">
<title>Node4</title>
<g id="a_Node000004"><a xlink:href="unicode_8c.html#a5ae688f76f23047d722b9884a106bf09" target="_top" xlink:title="Checks if a codepoint represents whitespace.">
<polygon fill="white" stroke="#666666" points="484,-101 345,-101 345,-82 484,-82 484,-101"/>
<text text-anchor="middle" x="414.5" y="-89" font-family="Helvetica,sans-Serif" font-size="10.00">is_codepoint_whitespace</text>
</a>
</g>
</g>
<!-- Node3&#45;&gt;Node4 -->
<g id="edge3_Node000003_Node000004" class="edge">
<title>Node3&#45;&gt;Node4</title>
<g id="a_edge3_Node000003_Node000004"><a xlink:title=" ">
<path fill="none" stroke="#63b8ff" d="M309.1,-73.72C321.42,-75.81 334.63,-78.07 347.38,-80.24"/>
<polygon fill="#63b8ff" stroke="#63b8ff" points="347.04,-83.73 357.48,-81.96 348.21,-76.83 347.04,-83.73"/>
</a>
</g>
</g>
<!-- Node5 -->
<g id="Node000005" class="node">
<title>Node5</title>
<g id="a_Node000005"><a xlink:href="unicode_8c.html#a0075f88c12df63dda852af0ff5c41f92" target="_top" xlink:title="Decodes a UTF&#45;8 byte sequence to its Unicode codepoint.">
<polygon fill="white" stroke="#666666" points="466.5,-46 362.5,-46 362.5,-27 466.5,-27 466.5,-46"/>
<text text-anchor="middle" x="414.5" y="-34" font-family="Helvetica,sans-Serif" font-size="10.00">utf8_to_codepoint</text>
</a>
</g>
</g>
<!-- Node3&#45;&gt;Node5 -->
<g id="edge6_Node000003_Node000005" class="edge">
<title>Node3&#45;&gt;Node5</title>
<g id="a_edge6_Node000003_Node000005"><a xlink:title=" ">
<path fill="none" stroke="#63b8ff" d="M309.1,-54.94C322.96,-52.49 337.96,-49.84 352.15,-47.34"/>
<polygon fill="#63b8ff" stroke="#63b8ff" points="353.07,-50.73 362.31,-45.54 351.86,-43.84 353.07,-50.73"/>
</a>
</g>
</g>
<!-- Node4&#45;&gt;Node4 -->
<g id="edge4_Node000004_Node000004" class="edge">
<title>Node4&#45;&gt;Node4</title>
<g id="a_edge4_Node000004_Node000004"><a xlink:title=" ">
<path fill="none" stroke="#63b8ff" d="M389.84,-101.08C377.84,-109.73 386.06,-119 414.5,-119 433.16,-119 443.12,-115.01 444.37,-109.82"/>
<polygon fill="#63b8ff" stroke="#63b8ff" points="447.29,-107.88 439.16,-101.08 441.27,-111.47 447.29,-107.88"/>
</a>
</g>
</g>
<!-- Node5&#45;&gt;Node5 -->
<g id="edge7_Node000005_Node000005" class="edge">
<title>Node5&#45;&gt;Node5</title>
<g id="a_edge7_Node000005_Node000005"><a xlink:title=" ">
<path fill="none" stroke="#63b8ff" d="M389.84,-46.08C377.84,-54.73 386.06,-64 414.5,-64 433.16,-64 443.12,-60.01 444.37,-54.82"/>
<polygon fill="#63b8ff" stroke="#63b8ff" points="447.29,-52.88 439.16,-46.08 441.27,-56.47 447.29,-52.88"/>
</a>
</g>
</g>
<!-- Node6&#45;&gt;Node6 -->
<g id="edge9_Node000006_Node000006" class="edge">
<title>Node6&#45;&gt;Node6</title>
<g id="a_edge9_Node000006_Node000006"><a xlink:title=" ">
<path fill="none" stroke="#63b8ff" d="M235.2,-19.08C226.05,-27.73 232.32,-37 254,-37 267.55,-37 275.08,-33.38 276.59,-28.55"/>
<polygon fill="#63b8ff" stroke="#63b8ff" points="279.77,-27.07 272.8,-19.08 273.27,-29.67 279.77,-27.07"/>
</a>
</g>
</g>
<!-- Node7&#45;&gt;Node3 -->
<g id="edge12_Node000007_Node000003" class="edge">
<title>Node7&#45;&gt;Node3</title>
<g id="a_edge12_Node000007_Node000003"><a xlink:title=" ">
<path fill="none" stroke="#63b8ff" d="M147.19,-19.15C160.61,-27.16 180.63,-38.48 199,-46.5 203.08,-48.28 207.4,-50 211.75,-51.61"/>
<polygon fill="#63b8ff" stroke="#63b8ff" points="210.64,-54.93 221.23,-54.97 212.97,-48.33 210.64,-54.93"/>
</a>
</g>
</g>
<!-- Node7&#45;&gt;Node6 -->
<g id="edge13_Node000007_Node000006" class="edge">
<title>Node7&#45;&gt;Node6</title>
<g id="a_edge13_Node000007_Node000006"><a xlink:title=" ">
<path fill="none" stroke="#63b8ff" d="M163.11,-9.5C172.7,-9.5 183.56,-9.5 194.33,-9.5"/>
<polygon fill="#63b8ff" stroke="#63b8ff" points="194.59,-13 204.59,-9.5 194.59,-6 194.59,-13"/>
</a>
</g>
</g>
<!-- Node7&#45;&gt;Node7 -->
<g id="edge14_Node000007_Node000007" class="edge">
<title>Node7&#45;&gt;Node7</title>
<g id="a_edge14_Node000007_Node000007"><a xlink:title=" ">
<path fill="none" stroke="#63b8ff" d="M115.4,-19.08C108.05,-27.73 113.08,-37 130.5,-37 141.11,-37 147.13,-33.56 148.55,-28.91"/>
<polygon fill="#63b8ff" stroke="#63b8ff" points="151.83,-27.66 145.6,-19.08 145.12,-29.67 151.83,-27.66"/>
</a>
</g>
</g>
</g>
</svg>
