<?xml version="1.0" encoding="UTF-8" standalone="no"?>
<!DOCTYPE svg PUBLIC "-//W3C//DTD SVG 1.1//EN"
 "http://www.w3.org/Graphics/SVG/1.1/DTD/svg11.dtd">
<!-- Generated by graphviz version 2.43.0 (0)
 -->
<!-- Title: is_utf8_digit Pages: 1 -->
<svg width="226pt" height="64pt"
 viewBox="0.00 0.00 226.00 64.00" xmlns="http://www.w3.org/2000/svg" xmlns:xlink="http://www.w3.org/1999/xlink">
<g id="graph0" class="graph" transform="scale(1 1) rotate(0) translate(4 60)">
<title>is_utf8_digit</title>
<!-- Node1 -->
<g id="Node000001" class="node">
<title>Node1</title>
<g id="a_Node000001"><a xlink:title="Checks if a UTF&#45;8 character represents a digit.">
<polygon fill="#999999" stroke="#666666" points="77,-37 0,-37 0,-18 77,-18 77,-37"/>
<text text-anchor="middle" x="38.5" y="-25" font-family="Helvetica,sans-Serif" font-size="10.00">is_utf8_digit</text>
</a>
</g>
</g>
<!-- Node2 -->
<g id="Node000002" class="node">
<title>Node2</title>
<g id="a_Node000002"><a xlink:href="unicode_8c.html#a789d995a50209b8e9e7aa3f8c9638229" target="_top" xlink:title="Checks if a codepoint represents a digit.">
<polygon fill="white" stroke="#666666" points="218,-56 113,-56 113,-37 218,-37 218,-56"/>
<text text-anchor="middle" x="165.5" y="-44" font-family="Helvetica,sans-Serif" font-size="10.00">is_codepoint_digit</text>
</a>
</g>
</g>
<!-- Node1&#45;&gt;Node2 -->
<g id="edge1_Node000001_Node000002" class="edge">
<title>Node1&#45;&gt;Node2</title>
<g id="a_edge1_Node000001_Node000002"><a xlink:title=" ">
<path fill="none" stroke="#63b8ff" d="M77,-33.2C85.16,-34.44 93.99,-35.78 102.79,-37.12"/>
<polygon fill="#63b8ff" stroke="#63b8ff" points="102.28,-40.58 112.69,-38.63 103.33,-33.66 102.28,-40.58"/>
</a>
</g>
</g>
<!-- Node3 -->
<g id="Node000003" class="node">
<title>Node3</title>
<g id="a_Node000003"><a xlink:href="unicode_8c.html#a0075f88c12df63dda852af0ff5c41f92" target="_top" xlink:title="Decodes a UTF&#45;8 byte sequence to its Unicode codepoint.">
<polygon fill="white" stroke="#666666" points="217.5,-19 113.5,-19 113.5,0 217.5,0 217.5,-19"/>
<text text-anchor="middle" x="165.5" y="-7" font-family="Helvetica,sans-Serif" font-size="10.00">utf8_to_codepoint</text>
</a>
</g>
</g>
<!-- Node1&#45;&gt;Node3 -->
<g id="edge2_Node000001_Node000003" class="edge">
<title>Node1&#45;&gt;Node3</title>
<g id="a_edge2_Node000001_Node000003"><a xlink:title=" ">
<path fill="none" stroke="#63b8ff" d="M77,-22.1C85.26,-20.91 94.21,-19.62 103.13,-18.34"/>
<polygon fill="#63b8ff" stroke="#63b8ff" points="103.75,-21.78 113.15,-16.89 102.76,-14.86 103.75,-21.78"/>
</a>
</g>
</g>
</g>
</svg>
