<?xml version="1.0" encoding="UTF-8" standalone="no"?>
<!DOCTYPE svg PUBLIC "-//W3C//DTD SVG 1.1//EN"
 "http://www.w3.org/Graphics/SVG/1.1/DTD/svg11.dtd">
<!-- Generated by graphviz version 2.43.0 (0)
 -->
<!-- Title: utf8_copy Pages: 1 -->
<svg width="234pt" height="45pt"
 viewBox="0.00 0.00 234.00 45.00" xmlns="http://www.w3.org/2000/svg" xmlns:xlink="http://www.w3.org/1999/xlink">
<g id="graph0" class="graph" transform="scale(1 1) rotate(0) translate(4 41)">
<title>utf8_copy</title>
<!-- Node1 -->
<g id="Node000001" class="node">
<title>Node1</title>
<g id="a_Node000001"><a xlink:title="Creates a copy of a UTF&#45;8 string containing only valid UTF&#45;8 sequences.">
<polygon fill="#999999" stroke="#666666" points="65,-19 0,-19 0,0 65,0 65,-19"/>
<text text-anchor="middle" x="32.5" y="-7" font-family="Helvetica,sans-Serif" font-size="10.00">utf8_copy</text>
</a>
</g>
</g>
<!-- Node1&#45;&gt;Node1 -->
<g id="edge1_Node000001_Node000001" class="edge">
<title>Node1&#45;&gt;Node1</title>
<g id="a_edge1_Node000001_Node000001"><a xlink:title=" ">
<path fill="none" stroke="#63b8ff" d="M12.46,-19.08C2.72,-27.73 9.39,-37 32.5,-37 47.3,-37 55.36,-33.2 56.68,-28.19"/>
<polygon fill="#63b8ff" stroke="#63b8ff" points="59.86,-26.73 52.54,-19.08 53.49,-29.63 59.86,-26.73"/>
</a>
</g>
</g>
<!-- Node2 -->
<g id="Node000002" class="node">
<title>Node2</title>
<g id="a_Node000002"><a xlink:href="unicode_8c.html#a37b529eaefb2e43c5f2a7eda74138c13" target="_top" xlink:title="Counts the number of valid UTF&#45;8 bytes in a string.">
<polygon fill="white" stroke="#666666" points="226,-19 101,-19 101,0 226,0 226,-19"/>
<text text-anchor="middle" x="163.5" y="-7" font-family="Helvetica,sans-Serif" font-size="10.00">utf8_valid_byte_count</text>
</a>
</g>
</g>
<!-- Node1&#45;&gt;Node2 -->
<g id="edge2_Node000001_Node000002" class="edge">
<title>Node1&#45;&gt;Node2</title>
<g id="a_edge2_Node000001_Node000002"><a xlink:title=" ">
<path fill="none" stroke="#63b8ff" d="M65.06,-9.5C72.92,-9.5 81.67,-9.5 90.61,-9.5"/>
<polygon fill="#63b8ff" stroke="#63b8ff" points="90.75,-13 100.75,-9.5 90.75,-6 90.75,-13"/>
</a>
</g>
</g>
<!-- Node2&#45;&gt;Node2 -->
<g id="edge3_Node000002_Node000002" class="edge">
<title>Node2&#45;&gt;Node2</title>
<g id="a_edge3_Node000002_Node000002"><a xlink:title=" ">
<path fill="none" stroke="#63b8ff" d="M143.46,-19.08C133.72,-27.73 140.39,-37 163.5,-37 178.3,-37 186.36,-33.2 187.68,-28.19"/>
<polygon fill="#63b8ff" stroke="#63b8ff" points="190.86,-26.73 183.54,-19.08 184.49,-29.63 190.86,-26.73"/>
</a>
</g>
</g>
</g>
</svg>
