<?xml version="1.0" encoding="UTF-8" standalone="no"?>
<!DOCTYPE svg PUBLIC "-//W3C//DTD SVG 1.1//EN"
 "http://www.w3.org/Graphics/SVG/1.1/DTD/svg11.dtd">
<!-- Generated by graphviz version 2.43.0 (0)
 -->
<!-- Title: utf8_toupper Pages: 1 -->
<svg width="248pt" height="210pt"
 viewBox="0.00 0.00 248.00 210.00" xmlns="http://www.w3.org/2000/svg" xmlns:xlink="http://www.w3.org/1999/xlink">

<svg id="main" version="1.1" xmlns="http://www.w3.org/2000/svg" xmlns:xlink="http://www.w3.org/1999/xlink" xml:space="preserve" onload="init(evt)">
<style type="text/css"><![CDATA[
.node, .edge {opacity: 0.7;}
.node.selected, .edge.selected {opacity: 1;}
.edge:hover path { stroke: red; }
.edge:hover polygon { stroke: red; fill: red; }
]]></style>
<script type="application/ecmascript" xlink:href="svg.min.js"/>
<svg id="graph" class="graph">
<g id="graph0" class="graph" transform="scale(1 1) rotate(0) translate(4 206)">
<title>utf8_toupper</title>
<!-- Node1 -->
<g id="Node000001" class="node">
<title>Node1</title>
<g id="a_Node000001"><a xlink:title="Converts all lowercase characters to uppercase in&#45;place.">
<polygon fill="#999999" stroke="#666666" points="79,-101 0,-101 0,-82 79,-82 79,-101"/>
<text text-anchor="middle" x="39.5" y="-89" font-family="Helvetica,sans-Serif" font-size="10.00">utf8_toupper</text>
</a>
</g>
</g>
<!-- Node1&#45;&gt;Node1 -->
<g id="edge7_Node000001_Node000001" class="edge">
<title>Node1&#45;&gt;Node1</title>
<g id="a_edge7_Node000001_Node000001"><a xlink:title=" ">
<path fill="none" stroke="#63b8ff" d="M18.23,-101.08C7.88,-109.73 14.97,-119 39.5,-119 55.21,-119 63.77,-115.2 65.17,-110.19"/>
<polygon fill="#63b8ff" stroke="#63b8ff" points="68.27,-108.56 60.77,-101.08 61.97,-111.61 68.27,-108.56"/>
</a>
</g>
</g>
<!-- Node2 -->
<g id="Node000002" class="node">
<title>Node2</title>
<g id="a_Node000002"><a xlink:href="unicode_8c.html#ac77efa8b1e4a603e25b5639f716bcebc" target="_top" xlink:title="Converts a Unicode codepoint to its UTF&#45;8 byte sequence.">
<polygon fill="white" stroke="#666666" points="214.5,-184 140.5,-184 140.5,-165 214.5,-165 214.5,-184"/>
<text text-anchor="middle" x="177.5" y="-172" font-family="Helvetica,sans-Serif" font-size="10.00">ucp_to_utf8</text>
</a>
</g>
</g>
<!-- Node1&#45;&gt;Node2 -->
<g id="edge1_Node000001_Node000002" class="edge">
<title>Node1&#45;&gt;Node2</title>
<g id="a_edge1_Node000001_Node000002"><a xlink:title=" ">
<path fill="none" stroke="#63b8ff" d="M49.13,-101.36C62.08,-115.55 87.9,-141.66 115,-156.5 119.88,-159.17 125.2,-161.49 130.6,-163.48"/>
<polygon fill="#63b8ff" stroke="#63b8ff" points="129.74,-166.89 140.33,-166.74 131.96,-160.25 129.74,-166.89"/>
</a>
</g>
</g>
<!-- Node3 -->
<g id="Node000003" class="node">
<title>Node3</title>
<g id="a_Node000003"><a xlink:href="unicode_8c.html#aadba4a5c759cfb7674c3dfe42351e952" target="_top" xlink:title="Determines the byte length of a UTF&#45;8 character from its first byte.">
<polygon fill="white" stroke="#666666" points="226.5,-129 128.5,-129 128.5,-110 226.5,-110 226.5,-129"/>
<text text-anchor="middle" x="177.5" y="-117" font-family="Helvetica,sans-Serif" font-size="10.00">utf8_char_length</text>
</a>
</g>
</g>
<!-- Node1&#45;&gt;Node3 -->
<g id="edge3_Node000001_Node000003" class="edge">
<title>Node1&#45;&gt;Node3</title>
<g id="a_edge3_Node000001_Node000003"><a xlink:title=" ">
<path fill="none" stroke="#63b8ff" d="M79.11,-99.45C91.87,-102.08 106.35,-105.06 120.16,-107.9"/>
<polygon fill="#63b8ff" stroke="#63b8ff" points="119.57,-111.35 130.07,-109.94 120.98,-104.5 119.57,-111.35"/>
</a>
</g>
</g>
<!-- Node4 -->
<g id="Node000004" class="node">
<title>Node4</title>
<g id="a_Node000004"><a xlink:href="unicode_8c.html#a0075f88c12df63dda852af0ff5c41f92" target="_top" xlink:title="Decodes a UTF&#45;8 byte sequence to its Unicode codepoint.">
<polygon fill="white" stroke="#666666" points="229.5,-74 125.5,-74 125.5,-55 229.5,-55 229.5,-74"/>
<text text-anchor="middle" x="177.5" y="-62" font-family="Helvetica,sans-Serif" font-size="10.00">utf8_to_codepoint</text>
</a>
</g>
</g>
<!-- Node1&#45;&gt;Node4 -->
<g id="edge5_Node000001_Node000004" class="edge">
<title>Node1&#45;&gt;Node4</title>
<g id="a_edge5_Node000001_Node000004"><a xlink:title=" ">
<path fill="none" stroke="#63b8ff" d="M79.11,-83.84C91.37,-81.4 105.22,-78.65 118.54,-76.01"/>
<polygon fill="#63b8ff" stroke="#63b8ff" points="119.46,-79.39 128.59,-74.01 118.1,-72.53 119.46,-79.39"/>
</a>
</g>
</g>
<!-- Node5 -->
<g id="Node000005" class="node">
<title>Node5</title>
<g id="a_Node000005"><a xlink:href="unicode_8c.html#a37b529eaefb2e43c5f2a7eda74138c13" target="_top" xlink:title="Counts the number of valid UTF&#45;8 bytes in a string.">
<polygon fill="white" stroke="#666666" points="240,-19 115,-19 115,0 240,0 240,-19"/>
<text text-anchor="middle" x="177.5" y="-7" font-family="Helvetica,sans-Serif" font-size="10.00">utf8_valid_byte_count</text>
</a>
</g>
</g>
<!-- Node1&#45;&gt;Node5 -->
<g id="edge8_Node000001_Node000005" class="edge">
<title>Node1&#45;&gt;Node5</title>
<g id="a_edge8_Node000001_Node000005"><a xlink:title=" ">
<path fill="none" stroke="#63b8ff" d="M56.48,-81.84C71.56,-72.72 94.81,-58.67 115,-46.5 127.09,-39.21 140.52,-31.13 151.74,-24.38"/>
<polygon fill="#63b8ff" stroke="#63b8ff" points="153.8,-27.23 160.57,-19.08 150.19,-21.23 153.8,-27.23"/>
</a>
</g>
</g>
<!-- Node2&#45;&gt;Node2 -->
<g id="edge2_Node000002_Node000002" class="edge">
<title>Node2&#45;&gt;Node2</title>
<g id="a_edge2_Node000002_Node000002"><a xlink:title=" ">
<path fill="none" stroke="#63b8ff" d="M156.23,-184.08C145.88,-192.73 152.97,-202 177.5,-202 193.21,-202 201.77,-198.2 203.17,-193.19"/>
<polygon fill="#63b8ff" stroke="#63b8ff" points="206.27,-191.56 198.77,-184.08 199.97,-194.61 206.27,-191.56"/>
</a>
</g>
</g>
<!-- Node3&#45;&gt;Node3 -->
<g id="edge4_Node000003_Node000003" class="edge">
<title>Node3&#45;&gt;Node3</title>
<g id="a_edge4_Node000003_Node000003"><a xlink:title=" ">
<path fill="none" stroke="#63b8ff" d="M156.23,-129.08C145.88,-137.73 152.97,-147 177.5,-147 193.21,-147 201.77,-143.2 203.17,-138.19"/>
<polygon fill="#63b8ff" stroke="#63b8ff" points="206.27,-136.56 198.77,-129.08 199.97,-139.61 206.27,-136.56"/>
</a>
</g>
</g>
<!-- Node4&#45;&gt;Node4 -->
<g id="edge6_Node000004_Node000004" class="edge">
<title>Node4&#45;&gt;Node4</title>
<g id="a_edge6_Node000004_Node000004"><a xlink:title=" ">
<path fill="none" stroke="#63b8ff" d="M156.23,-74.08C145.88,-82.73 152.97,-92 177.5,-92 193.21,-92 201.77,-88.2 203.17,-83.19"/>
<polygon fill="#63b8ff" stroke="#63b8ff" points="206.27,-81.56 198.77,-74.08 199.97,-84.61 206.27,-81.56"/>
</a>
</g>
</g>
<!-- Node5&#45;&gt;Node5 -->
<g id="edge9_Node000005_Node000005" class="edge">
<title>Node5&#45;&gt;Node5</title>
<g id="a_edge9_Node000005_Node000005"><a xlink:title=" ">
<path fill="none" stroke="#63b8ff" d="M156.23,-19.08C145.88,-27.73 152.97,-37 177.5,-37 193.21,-37 201.77,-33.2 203.17,-28.19"/>
<polygon fill="#63b8ff" stroke="#63b8ff" points="206.27,-26.56 198.77,-19.08 199.97,-29.61 206.27,-26.56"/>
</a>
</g>
</g>
</g>
</svg>
</svg>

<style type='text/css'>
<![CDATA[
[data-mouse-over-selected='false'] { opacity: 0.7; }
[data-mouse-over-selected='true']  { opacity: 1.0; }
]]>
</style>
<script type="application/ecmascript"><![CDATA[
document.addEventListener('DOMContentLoaded', (event) => {
  highlightEdges();
  highlightAdjacentNodes();
});
]]></script>
</svg>
