<?xml version="1.0" encoding="UTF-8" standalone="no"?>
<!DOCTYPE svg PUBLIC "-//W3C//DTD SVG 1.1//EN"
 "http://www.w3.org/Graphics/SVG/1.1/DTD/svg11.dtd">
<!-- Generated by graphviz version 2.43.0 (0)
 -->
<!-- Title: is_codepoint_alnum Pages: 1 -->
<svg width="244pt" height="45pt"
 viewBox="0.00 0.00 244.00 45.00" xmlns="http://www.w3.org/2000/svg" xmlns:xlink="http://www.w3.org/1999/xlink">
<g id="graph0" class="graph" transform="scale(1 1) rotate(0) translate(4 41)">
<title>is_codepoint_alnum</title>
<!-- Node1 -->
<g id="Node000001" class="node">
<title>Node1</title>
<g id="a_Node000001"><a xlink:title="Checks if a codepoint represents an alphanumeric character.">
<polygon fill="#999999" stroke="#666666" points="236,-19 122,-19 122,0 236,0 236,-19"/>
<text text-anchor="middle" x="179" y="-7" font-family="Helvetica,sans-Serif" font-size="10.00">is_codepoint_alnum</text>
</a>
</g>
</g>
<!-- Node1&#45;&gt;Node1 -->
<g id="edge1_Node000001_Node000001" class="edge">
<title>Node1&#45;&gt;Node1</title>
<g id="a_edge1_Node000001_Node000001"><a xlink:title=" ">
<path fill="none" stroke="#63b8ff" d="M204.3,-28.19C202.92,-33.2 194.49,-37 179,-37 154.83,-37 147.84,-27.73 158.04,-19.08"/>
<polygon fill="#63b8ff" stroke="#63b8ff" points="207.42,-26.61 199.96,-19.08 201.1,-29.62 207.42,-26.61"/>
</a>
</g>
</g>
<!-- Node2 -->
<g id="Node000002" class="node">
<title>Node2</title>
<g id="a_Node000002"><a xlink:href="unicode_8c.html#a650f29191e8178a5a2124648f76c9d6f" target="_top" xlink:title="Checks if a UTF&#45;8 character represents an alphanumeric character.">
<polygon fill="white" stroke="#666666" points="86,-19 0,-19 0,0 86,0 86,-19"/>
<text text-anchor="middle" x="43" y="-7" font-family="Helvetica,sans-Serif" font-size="10.00">is_utf8_alnum</text>
</a>
</g>
</g>
<!-- Node1&#45;&gt;Node2 -->
<g id="edge2_Node000001_Node000002" class="edge">
<title>Node1&#45;&gt;Node2</title>
<g id="a_edge2_Node000001_Node000002"><a xlink:title=" ">
<path fill="none" stroke="#63b8ff" d="M111.83,-9.5C103.17,-9.5 94.49,-9.5 86.37,-9.5"/>
<polygon fill="#63b8ff" stroke="#63b8ff" points="111.95,-13 121.95,-9.5 111.95,-6 111.95,-13"/>
</a>
</g>
</g>
<!-- Node2&#45;&gt;Node2 -->
<g id="edge3_Node000002_Node000002" class="edge">
<title>Node2&#45;&gt;Node2</title>
<g id="a_edge3_Node000002_Node000002"><a xlink:title=" ">
<path fill="none" stroke="#63b8ff" d="M68.3,-28.19C66.92,-33.2 58.49,-37 43,-37 18.83,-37 11.84,-27.73 22.04,-19.08"/>
<polygon fill="#63b8ff" stroke="#63b8ff" points="71.42,-26.61 63.96,-19.08 65.1,-29.62 71.42,-26.61"/>
</a>
</g>
</g>
</g>
</svg>
