<?xml version="1.0" encoding="UTF-8" standalone="no"?>
<!DOCTYPE svg PUBLIC "-//W3C//DTD SVG 1.1//EN"
 "http://www.w3.org/Graphics/SVG/1.1/DTD/svg11.dtd">
<!-- Generated by graphviz version 2.43.0 (0)
 -->
<!-- Title: utf8_valid_byte_count Pages: 1 -->
<!--zoomable 546 -->

<svg id="main" version="1.1" xmlns="http://www.w3.org/2000/svg" xmlns:xlink="http://www.w3.org/1999/xlink" xml:space="preserve" onload="init(evt)">
<style type="text/css"><![CDATA[
.node, .edge {opacity: 0.7;}
.node.selected, .edge.selected {opacity: 1;}
.edge:hover path { stroke: red; }
.edge:hover polygon { stroke: red; fill: red; }
]]></style>

<defs>
  <circle id="rim" cx="0" cy="0" r="7"/>
  <circle id="rim2" cx="0" cy="0" r="3.5"/>
  <g id="zoomPlus">
    <use xlink:href="#rim" fill="#404040"><set attributeName="fill" to="#808080" begin="zoomplus.mouseover" end="zoomplus.mouseout"/></use>
    <path d="M-4,0h8M0,-4v8" fill="none" stroke="white" stroke-width="1.5" pointer-events="none"/>
  </g>
  <g id="zoomMin">
    <use xlink:href="#rim" fill="#404040"><set attributeName="fill" to="#808080" begin="zoomminus.mouseover" end="zoomminus.mouseout"/></use>
    <path d="M-4,0h8" fill="none" stroke="white" stroke-width="1.5" pointer-events="none"/>
  </g>
  <g id="arrowUp" transform="translate(30 24)">
    <use xlink:href="#rim"/>
    <path pointer-events="none" fill="none" stroke="white" stroke-width="1.5" d="M0,-3.0v7 M-2.5,-0.5L0,-3.0L2.5,-0.5"/>
  </g>
  <g id="arrowRight" transform="rotate(90) translate(36 -43)">
    <use xlink:href="#rim"/>
    <path pointer-events="none" fill="none" stroke="white" stroke-width="1.5" d="M0,-3.0v7 M-2.5,-0.5L0,-3.0L2.5,-0.5"/>
  </g>
  <g id="arrowDown" transform="rotate(180) translate(-30 -48)">
    <use xlink:href="#rim"/>
    <path pointer-events="none" fill="none" stroke="white" stroke-width="1.5" d="M0,-3.0v7 M-2.5,-0.5L0,-3.0L2.5,-0.5"/>
  </g>
  <g id="arrowLeft" transform="rotate(270) translate(-36 17)">
    <use xlink:href="#rim"/>
    <path pointer-events="none" fill="none" stroke="white" stroke-width="1.5" d="M0,-3.0v7 M-2.5,-0.5L0,-3.0L2.5,-0.5"/>
  </g>
  <g id="resetDef">
    <use xlink:href="#rim2" fill="#404040"><set attributeName="fill" to="#808080" begin="reset.mouseover" end="reset.mouseout"/></use>
  </g>
</defs>
<script type="application/ecmascript">
var viewWidth = 517;
var viewHeight = 546;
var sectionId = 'dynsection-105';
</script>
<script type="application/ecmascript" xlink:href="svg.min.js"/>
<svg id="graph" class="graph">
<g id="viewport">
<title>utf8_valid_byte_count</title>
<!-- Node1 -->
<g id="Node000001" class="node">
<title>Node1</title>
<g id="a_Node000001"><a xlink:title="Counts the number of valid UTF&#45;8 bytes in a string.">
<polygon fill="#999999" stroke="#666666" points="509,-278 384,-278 384,-259 509,-259 509,-278"/>
<text text-anchor="middle" x="446.5" y="-266" font-family="Helvetica,sans-Serif" font-size="10.00">utf8_valid_byte_count</text>
</a>
</g>
</g>
<!-- Node1&#45;&gt;Node1 -->
<g id="edge30_Node000001_Node000001" class="edge">
<title>Node1&#45;&gt;Node1</title>
<g id="a_edge30_Node000001_Node000001"><a xlink:title=" ">
<path fill="none" stroke="#63b8ff" d="M473.66,-287.19C472.18,-292.2 463.12,-296 446.5,-296 420.55,-296 413.05,-286.73 424,-278.08"/>
<polygon fill="#63b8ff" stroke="#63b8ff" points="476.67,-285.39 469,-278.08 470.44,-288.58 476.67,-285.39"/>
</a>
</g>
</g>
<!-- Node2 -->
<g id="Node000002" class="node">
<title>Node2</title>
<g id="a_Node000002"><a xlink:href="unicode_8c.html#a67a7b18299094ff3eb57c9d3b98aac2e" target="_top" xlink:title="Appends UTF&#45;8 data to the end of a utf8_string.">
<polygon fill="white" stroke="#666666" points="339,-520 262,-520 262,-501 339,-501 339,-520"/>
<text text-anchor="middle" x="300.5" y="-508" font-family="Helvetica,sans-Serif" font-size="10.00">utf8_append</text>
</a>
</g>
</g>
<!-- Node1&#45;&gt;Node2 -->
<g id="edge1_Node000001_Node000002" class="edge">
<title>Node1&#45;&gt;Node2</title>
<g id="a_edge1_Node000001_Node000002"><a xlink:title=" ">
<path fill="none" stroke="#63b8ff" d="M442.23,-288.05C434.08,-330.92 408.96,-434 348,-492.5 344.5,-495.86 340.31,-498.61 335.89,-500.85"/>
<polygon fill="#63b8ff" stroke="#63b8ff" points="445.7,-288.54 444.02,-278.08 438.81,-287.3 445.7,-288.54"/>
</a>
</g>
</g>
<!-- Node3 -->
<g id="Node000003" class="node">
<title>Node3</title>
<g id="a_Node000003"><a xlink:href="unicode_8c.html#a3619b219411d41dbdd9197a4d9f378a3" target="_top" xlink:title="Creates a copy of a UTF&#45;8 string containing only valid UTF&#45;8 sequences.">
<polygon fill="white" stroke="#666666" points="333,-465 268,-465 268,-446 333,-446 333,-465"/>
<text text-anchor="middle" x="300.5" y="-453" font-family="Helvetica,sans-Serif" font-size="10.00">utf8_copy</text>
</a>
</g>
</g>
<!-- Node1&#45;&gt;Node3 -->
<g id="edge3_Node000001_Node000003" class="edge">
<title>Node1&#45;&gt;Node3</title>
<g id="a_edge3_Node000001_Node000003"><a xlink:title=" ">
<path fill="none" stroke="#63b8ff" d="M438.21,-287.6C424.78,-320.62 393.33,-388.92 348,-431.5 341.78,-437.35 333.85,-442.14 326.32,-445.85"/>
<polygon fill="#63b8ff" stroke="#63b8ff" points="441.5,-288.78 441.93,-278.19 434.99,-286.21 441.5,-288.78"/>
</a>
</g>
</g>
<!-- Node4 -->
<g id="Node000004" class="node">
<title>Node4</title>
<g id="a_Node000004"><a xlink:href="unicode_8c.html#ac8dd740b9cf9558c3b5bd89f91857d08" target="_top" xlink:title="Creates a new utf8_string object from a C string.">
<polygon fill="white" stroke="#666666" points="200.5,-435 138.5,-435 138.5,-416 200.5,-416 200.5,-435"/>
<text text-anchor="middle" x="169.5" y="-423" font-family="Helvetica,sans-Serif" font-size="10.00">utf8_new</text>
</a>
</g>
</g>
<!-- Node1&#45;&gt;Node4 -->
<g id="edge17_Node000001_Node000004" class="edge">
<title>Node1&#45;&gt;Node4</title>
<g id="a_edge17_Node000001_Node000004"><a xlink:title=" ">
<path fill="none" stroke="#63b8ff" d="M436.44,-287.45C421.96,-315.53 390.8,-367.65 348,-393.5 302.03,-421.26 237.99,-426.19 200.73,-426.42"/>
<polygon fill="#63b8ff" stroke="#63b8ff" points="439.68,-288.79 441.01,-278.28 433.42,-285.67 439.68,-288.79"/>
</a>
</g>
</g>
<!-- Node7 -->
<g id="Node000007" class="node">
<title>Node7</title>
<g id="a_Node000007"><a xlink:href="unicode_8c.html#a283c63b93c8d578ec05102ff6533ae5b" target="_top" xlink:title="Splits a UTF&#45;8 string into parts using a delimiter.">
<polygon fill="white" stroke="#666666" points="74,-380 12,-380 12,-361 74,-361 74,-380"/>
<text text-anchor="middle" x="43" y="-368" font-family="Helvetica,sans-Serif" font-size="10.00">utf8_split</text>
</a>
</g>
</g>
<!-- Node1&#45;&gt;Node7 -->
<g id="edge22_Node000001_Node000007" class="edge">
<title>Node1&#45;&gt;Node7</title>
<g id="a_edge22_Node000001_Node000007"><a xlink:title=" ">
<path fill="none" stroke="#63b8ff" d="M433.16,-286.3C416.68,-308.39 385.2,-345.01 348,-360.5 254.65,-399.38 130.85,-385.69 74.39,-376.32"/>
<polygon fill="#63b8ff" stroke="#63b8ff" points="436.07,-288.25 439.09,-278.1 430.4,-284.15 436.07,-288.25"/>
</a>
</g>
</g>
<!-- Node8 -->
<g id="Node000008" class="node">
<title>Node8</title>
<g id="a_Node000008"><a xlink:href="unicode_8c.html#a3a260424f1e56ba6851f6a874e9751a2" target="_top" xlink:title="Checks if a string ends with a given suffix.">
<polygon fill="white" stroke="#666666" points="346,-333 255,-333 255,-314 346,-314 346,-333"/>
<text text-anchor="middle" x="300.5" y="-321" font-family="Helvetica,sans-Serif" font-size="10.00">utf8_ends_with</text>
</a>
</g>
</g>
<!-- Node1&#45;&gt;Node8 -->
<g id="edge13_Node000001_Node000008" class="edge">
<title>Node1&#45;&gt;Node8</title>
<g id="a_edge13_Node000001_Node000008"><a xlink:title=" ">
<path fill="none" stroke="#63b8ff" d="M410.96,-281.69C385.04,-291.59 350.14,-304.92 326.78,-313.84"/>
<polygon fill="#63b8ff" stroke="#63b8ff" points="412.32,-284.92 420.42,-278.08 409.83,-278.38 412.32,-284.92"/>
</a>
</g>
</g>
<!-- Node9 -->
<g id="Node000009" class="node">
<title>Node9</title>
<g id="a_Node000009"><a xlink:href="unicode_8c.html#a52c04fcffff66046fe31bfc66e920907" target="_top" xlink:title="Inserts UTF&#45;8 data at a specific byte index.">
<polygon fill="white" stroke="#666666" points="335,-278 266,-278 266,-259 335,-259 335,-278"/>
<text text-anchor="middle" x="300.5" y="-266" font-family="Helvetica,sans-Serif" font-size="10.00">utf8_insert</text>
</a>
</g>
</g>
<!-- Node1&#45;&gt;Node9 -->
<g id="edge15_Node000001_Node000009" class="edge">
<title>Node1&#45;&gt;Node9</title>
<g id="a_edge15_Node000001_Node000009"><a xlink:title=" ">
<path fill="none" stroke="#63b8ff" d="M373.41,-268.5C360.05,-268.5 346.69,-268.5 335.18,-268.5"/>
<polygon fill="#63b8ff" stroke="#63b8ff" points="373.6,-272 383.6,-268.5 373.6,-265 373.6,-272"/>
</a>
</g>
</g>
<!-- Node10 -->
<g id="Node000010" class="node">
<title>Node10</title>
<g id="a_Node000010"><a xlink:href="unicode_8c.html#a10259846ed532818dcbeb0f050870964" target="_top" xlink:title="Replaces the first occurrence of a substring with another string.">
<polygon fill="white" stroke="#666666" points="339,-223 262,-223 262,-204 339,-204 339,-223"/>
<text text-anchor="middle" x="300.5" y="-211" font-family="Helvetica,sans-Serif" font-size="10.00">utf8_replace</text>
</a>
</g>
</g>
<!-- Node1&#45;&gt;Node10 -->
<g id="edge18_Node000001_Node000010" class="edge">
<title>Node1&#45;&gt;Node10</title>
<g id="a_edge18_Node000001_Node000010"><a xlink:title=" ">
<path fill="none" stroke="#63b8ff" d="M410.96,-255.31C385.04,-245.41 350.14,-232.08 326.78,-223.16"/>
<polygon fill="#63b8ff" stroke="#63b8ff" points="409.83,-258.62 420.42,-258.92 412.32,-252.08 409.83,-258.62"/>
</a>
</g>
</g>
<!-- Node11 -->
<g id="Node000011" class="node">
<title>Node11</title>
<g id="a_Node000011"><a xlink:href="unicode_8c.html#a0afb67d1c1182eeb94470d0b12996191" target="_top" xlink:title="Replaces all occurrences of a substring with another string.">
<polygon fill="white" stroke="#666666" points="348,-168 253,-168 253,-149 348,-149 348,-168"/>
<text text-anchor="middle" x="300.5" y="-156" font-family="Helvetica,sans-Serif" font-size="10.00">utf8_replace_all</text>
</a>
</g>
</g>
<!-- Node1&#45;&gt;Node11 -->
<g id="edge20_Node000001_Node000011" class="edge">
<title>Node1&#45;&gt;Node11</title>
<g id="a_edge20_Node000001_Node000011"><a xlink:title=" ">
<path fill="none" stroke="#63b8ff" d="M424.79,-252.68C394.48,-229.52 338.95,-187.11 314.1,-168.13"/>
<polygon fill="#63b8ff" stroke="#63b8ff" points="422.9,-255.64 432.97,-258.93 427.15,-250.08 422.9,-255.64"/>
</a>
</g>
</g>
<!-- Node12 -->
<g id="Node000012" class="node">
<title>Node12</title>
<g id="a_Node000012"><a xlink:href="unicode_8c.html#ae86895dd5a7ff70ecb5da034bb91b032" target="_top" xlink:title="Checks if a string starts with a given prefix.">
<polygon fill="white" stroke="#666666" points="217,-232 122,-232 122,-213 217,-213 217,-232"/>
<text text-anchor="middle" x="169.5" y="-220" font-family="Helvetica,sans-Serif" font-size="10.00">utf8_starts_with</text>
</a>
</g>
</g>
<!-- Node1&#45;&gt;Node12 -->
<g id="edge23_Node000001_Node000012" class="edge">
<title>Node1&#45;&gt;Node12</title>
<g id="a_edge23_Node000001_Node000012"><a xlink:title=" ">
<path fill="none" stroke="#63b8ff" d="M437.93,-249.66C424.76,-219.81 394.54,-162.66 348,-139.5 310.2,-120.69 291.98,-123.28 253,-139.5 216.61,-154.64 187.99,-194.5 176.27,-212.92"/>
<polygon fill="#63b8ff" stroke="#63b8ff" points="434.75,-251.13 441.87,-258.98 441.2,-248.4 434.75,-251.13"/>
</a>
</g>
</g>
<!-- Node13 -->
<g id="Node000013" class="node">
<title>Node13</title>
<g id="a_Node000013"><a xlink:href="unicode_8c.html#ae3f31481d188b5fbe03ca760b031677b" target="_top" xlink:title="Converts all uppercase characters to lowercase in&#45;place.">
<polygon fill="white" stroke="#666666" points="339.5,-74 261.5,-74 261.5,-55 339.5,-55 339.5,-74"/>
<text text-anchor="middle" x="300.5" y="-62" font-family="Helvetica,sans-Serif" font-size="10.00">utf8_tolower</text>
</a>
</g>
</g>
<!-- Node1&#45;&gt;Node13 -->
<g id="edge26_Node000001_Node000013" class="edge">
<title>Node1&#45;&gt;Node13</title>
<g id="a_edge26_Node000001_Node000013"><a xlink:title=" ">
<path fill="none" stroke="#63b8ff" d="M436.32,-249.35C420.69,-217.78 386.81,-153.62 348,-106.5 337.9,-94.24 324.2,-82.3 314.29,-74.31"/>
<polygon fill="#63b8ff" stroke="#63b8ff" points="433.37,-251.28 440.9,-258.73 439.66,-248.21 433.37,-251.28"/>
</a>
</g>
</g>
<!-- Node14 -->
<g id="Node000014" class="node">
<title>Node14</title>
<g id="a_Node000014"><a xlink:href="unicode_8c.html#a0695d31239b48bbee503c9191bdfc627" target="_top" xlink:title="Converts all lowercase characters to uppercase in&#45;place.">
<polygon fill="white" stroke="#666666" points="340,-19 261,-19 261,0 340,0 340,-19"/>
<text text-anchor="middle" x="300.5" y="-7" font-family="Helvetica,sans-Serif" font-size="10.00">utf8_toupper</text>
</a>
</g>
</g>
<!-- Node1&#45;&gt;Node14 -->
<g id="edge28_Node000001_Node000014" class="edge">
<title>Node1&#45;&gt;Node14</title>
<g id="a_edge28_Node000001_Node000014"><a xlink:title=" ">
<path fill="none" stroke="#63b8ff" d="M440.5,-248.85C429.31,-207.76 399.16,-111.13 348,-45.5 339.72,-34.87 327.61,-25.63 317.83,-19.18"/>
<polygon fill="#63b8ff" stroke="#63b8ff" points="437.16,-249.91 443.1,-258.69 443.92,-248.12 437.16,-249.91"/>
</a>
</g>
</g>
<!-- Node2&#45;&gt;Node2 -->
<g id="edge2_Node000002_Node000002" class="edge">
<title>Node2&#45;&gt;Node2</title>
<g id="a_edge2_Node000002_Node000002"><a xlink:title=" ">
<path fill="none" stroke="#63b8ff" d="M324.68,-529.19C323.36,-534.2 315.3,-538 300.5,-538 277.39,-538 270.72,-528.73 280.46,-520.08"/>
<polygon fill="#63b8ff" stroke="#63b8ff" points="327.86,-527.73 320.54,-520.08 321.49,-530.63 327.86,-527.73"/>
</a>
</g>
</g>
<!-- Node3&#45;&gt;Node3 -->
<g id="edge4_Node000003_Node000003" class="edge">
<title>Node3&#45;&gt;Node3</title>
<g id="a_edge4_Node000003_Node000003"><a xlink:title=" ">
<path fill="none" stroke="#63b8ff" d="M324.68,-474.19C323.36,-479.2 315.3,-483 300.5,-483 277.39,-483 270.72,-473.73 280.46,-465.08"/>
<polygon fill="#63b8ff" stroke="#63b8ff" points="327.86,-472.73 320.54,-465.08 321.49,-475.63 327.86,-472.73"/>
</a>
</g>
</g>
<!-- Node3&#45;&gt;Node4 -->
<g id="edge5_Node000003_Node000004" class="edge">
<title>Node3&#45;&gt;Node4</title>
<g id="a_edge5_Node000003_Node000004"><a xlink:title=" ">
<path fill="none" stroke="#63b8ff" d="M257.97,-445.84C239.39,-441.52 217.88,-436.52 200.84,-432.56"/>
<polygon fill="#63b8ff" stroke="#63b8ff" points="257.41,-449.3 267.94,-448.16 259,-442.49 257.41,-449.3"/>
</a>
</g>
</g>
<!-- Node4&#45;&gt;Node4 -->
<g id="edge8_Node000004_Node000004" class="edge">
<title>Node4&#45;&gt;Node4</title>
<g id="a_edge8_Node000004_Node000004"><a xlink:title=" ">
<path fill="none" stroke="#63b8ff" d="M192.83,-444.55C191.27,-449.38 183.5,-453 169.5,-453 147.11,-453 140.63,-443.73 150.08,-435.08"/>
<polygon fill="#63b8ff" stroke="#63b8ff" points="195.97,-442.99 188.92,-435.08 189.5,-445.66 195.97,-442.99"/>
</a>
</g>
</g>
<!-- Node5 -->
<g id="Node000005" class="node">
<title>Node5</title>
<g id="a_Node000005"><a xlink:href="unicode_8c.html#ac66faa2fc9866e1f93c5496603126620" target="_top" xlink:title="Duplicates a utf8_string object.">
<polygon fill="white" stroke="#666666" points="77,-490 9,-490 9,-471 77,-471 77,-490"/>
<text text-anchor="middle" x="43" y="-478" font-family="Helvetica,sans-Serif" font-size="10.00">utf8_clone</text>
</a>
</g>
</g>
<!-- Node4&#45;&gt;Node5 -->
<g id="edge6_Node000004_Node000005" class="edge">
<title>Node4&#45;&gt;Node5</title>
<g id="a_edge6_Node000004_Node000005"><a xlink:title=" ">
<path fill="none" stroke="#63b8ff" d="M138.35,-439.17C122.75,-446.2 103.38,-454.88 86,-462.5 79.75,-465.24 72.96,-468.17 66.7,-470.85"/>
<polygon fill="#63b8ff" stroke="#63b8ff" points="139.85,-442.33 147.52,-435.03 136.97,-435.95 139.85,-442.33"/>
</a>
</g>
</g>
<!-- Node6 -->
<g id="Node000006" class="node">
<title>Node6</title>
<g id="a_Node000006"><a xlink:href="unicode_8c.html#a08f52fa20afe83951b5486a186f32562" target="_top" xlink:title="Reads a UTF&#45;8 string from a file.">
<polygon fill="white" stroke="#666666" points="86,-435 0,-435 0,-416 86,-416 86,-435"/>
<text text-anchor="middle" x="43" y="-423" font-family="Helvetica,sans-Serif" font-size="10.00">utf8_readfrom</text>
</a>
</g>
</g>
<!-- Node4&#45;&gt;Node6 -->
<g id="edge9_Node000004_Node000006" class="edge">
<title>Node4&#45;&gt;Node6</title>
<g id="a_edge9_Node000004_Node000006"><a xlink:title=" ">
<path fill="none" stroke="#63b8ff" d="M127.99,-425.5C114.58,-425.5 99.62,-425.5 86.09,-425.5"/>
<polygon fill="#63b8ff" stroke="#63b8ff" points="128.36,-429 138.36,-425.5 128.36,-422 128.36,-429"/>
</a>
</g>
</g>
<!-- Node4&#45;&gt;Node7 -->
<g id="edge11_Node000004_Node000007" class="edge">
<title>Node4&#45;&gt;Node7</title>
<g id="a_edge11_Node000004_Node000007"><a xlink:title=" ">
<path fill="none" stroke="#63b8ff" d="M137.45,-411.78C115.17,-401.94 85.69,-388.92 65.86,-380.16"/>
<polygon fill="#63b8ff" stroke="#63b8ff" points="136.25,-415.08 146.81,-415.92 139.08,-408.68 136.25,-415.08"/>
</a>
</g>
</g>
<!-- Node5&#45;&gt;Node5 -->
<g id="edge7_Node000005_Node000005" class="edge">
<title>Node5&#45;&gt;Node5</title>
<g id="a_edge7_Node000005_Node000005"><a xlink:title=" ">
<path fill="none" stroke="#63b8ff" d="M66.33,-499.55C64.77,-504.38 57,-508 43,-508 20.61,-508 14.13,-498.73 23.58,-490.08"/>
<polygon fill="#63b8ff" stroke="#63b8ff" points="69.47,-497.99 62.42,-490.08 63,-500.66 69.47,-497.99"/>
</a>
</g>
</g>
<!-- Node6&#45;&gt;Node6 -->
<g id="edge10_Node000006_Node000006" class="edge">
<title>Node6&#45;&gt;Node6</title>
<g id="a_edge10_Node000006_Node000006"><a xlink:title=" ">
<path fill="none" stroke="#63b8ff" d="M66.33,-444.55C64.77,-449.38 57,-453 43,-453 20.61,-453 14.13,-443.73 23.58,-435.08"/>
<polygon fill="#63b8ff" stroke="#63b8ff" points="69.47,-442.99 62.42,-435.08 63,-445.66 69.47,-442.99"/>
</a>
</g>
</g>
<!-- Node7&#45;&gt;Node7 -->
<g id="edge12_Node000007_Node000007" class="edge">
<title>Node7&#45;&gt;Node7</title>
<g id="a_edge12_Node000007_Node000007"><a xlink:title=" ">
<path fill="none" stroke="#63b8ff" d="M66.33,-389.55C64.77,-394.38 57,-398 43,-398 20.61,-398 14.13,-388.73 23.58,-380.08"/>
<polygon fill="#63b8ff" stroke="#63b8ff" points="69.47,-387.99 62.42,-380.08 63,-390.66 69.47,-387.99"/>
</a>
</g>
</g>
<!-- Node8&#45;&gt;Node8 -->
<g id="edge14_Node000008_Node000008" class="edge">
<title>Node8&#45;&gt;Node8</title>
<g id="a_edge14_Node000008_Node000008"><a xlink:title=" ">
<path fill="none" stroke="#63b8ff" d="M324.68,-342.19C323.36,-347.2 315.3,-351 300.5,-351 277.39,-351 270.72,-341.73 280.46,-333.08"/>
<polygon fill="#63b8ff" stroke="#63b8ff" points="327.86,-340.73 320.54,-333.08 321.49,-343.63 327.86,-340.73"/>
</a>
</g>
</g>
<!-- Node9&#45;&gt;Node9 -->
<g id="edge16_Node000009_Node000009" class="edge">
<title>Node9&#45;&gt;Node9</title>
<g id="a_edge16_Node000009_Node000009"><a xlink:title=" ">
<path fill="none" stroke="#63b8ff" d="M324.68,-287.19C323.36,-292.2 315.3,-296 300.5,-296 277.39,-296 270.72,-286.73 280.46,-278.08"/>
<polygon fill="#63b8ff" stroke="#63b8ff" points="327.86,-285.73 320.54,-278.08 321.49,-288.63 327.86,-285.73"/>
</a>
</g>
</g>
<!-- Node10&#45;&gt;Node10 -->
<g id="edge19_Node000010_Node000010" class="edge">
<title>Node10&#45;&gt;Node10</title>
<g id="a_edge19_Node000010_Node000010"><a xlink:title=" ">
<path fill="none" stroke="#63b8ff" d="M324.68,-232.19C323.36,-237.2 315.3,-241 300.5,-241 277.39,-241 270.72,-231.73 280.46,-223.08"/>
<polygon fill="#63b8ff" stroke="#63b8ff" points="327.86,-230.73 320.54,-223.08 321.49,-233.63 327.86,-230.73"/>
</a>
</g>
</g>
<!-- Node11&#45;&gt;Node11 -->
<g id="edge21_Node000011_Node000011" class="edge">
<title>Node11&#45;&gt;Node11</title>
<g id="a_edge21_Node000011_Node000011"><a xlink:title=" ">
<path fill="none" stroke="#63b8ff" d="M324.68,-177.19C323.36,-182.2 315.3,-186 300.5,-186 277.39,-186 270.72,-176.73 280.46,-168.08"/>
<polygon fill="#63b8ff" stroke="#63b8ff" points="327.86,-175.73 320.54,-168.08 321.49,-178.63 327.86,-175.73"/>
</a>
</g>
</g>
<!-- Node12&#45;&gt;Node7 -->
<g id="edge24_Node000012_Node000007" class="edge">
<title>Node12&#45;&gt;Node7</title>
<g id="a_edge24_Node000012_Node000007"><a xlink:title=" ">
<path fill="none" stroke="#63b8ff" d="M153.65,-240.15C127.15,-271.65 72.56,-336.55 52.04,-360.95"/>
<polygon fill="#63b8ff" stroke="#63b8ff" points="156.57,-242.12 160.33,-232.21 151.22,-237.61 156.57,-242.12"/>
</a>
</g>
</g>
<!-- Node12&#45;&gt;Node12 -->
<g id="edge25_Node000012_Node000012" class="edge">
<title>Node12&#45;&gt;Node12</title>
<g id="a_edge25_Node000012_Node000012"><a xlink:title=" ">
<path fill="none" stroke="#63b8ff" d="M192.83,-241.55C191.27,-246.38 183.5,-250 169.5,-250 147.11,-250 140.63,-240.73 150.08,-232.08"/>
<polygon fill="#63b8ff" stroke="#63b8ff" points="195.97,-239.99 188.92,-232.08 189.5,-242.66 195.97,-239.99"/>
</a>
</g>
</g>
<!-- Node13&#45;&gt;Node13 -->
<g id="edge27_Node000013_Node000013" class="edge">
<title>Node13&#45;&gt;Node13</title>
<g id="a_edge27_Node000013_Node000013"><a xlink:title=" ">
<path fill="none" stroke="#63b8ff" d="M324.68,-83.19C323.36,-88.2 315.3,-92 300.5,-92 277.39,-92 270.72,-82.73 280.46,-74.08"/>
<polygon fill="#63b8ff" stroke="#63b8ff" points="327.86,-81.73 320.54,-74.08 321.49,-84.63 327.86,-81.73"/>
</a>
</g>
</g>
<!-- Node14&#45;&gt;Node14 -->
<g id="edge29_Node000014_Node000014" class="edge">
<title>Node14&#45;&gt;Node14</title>
<g id="a_edge29_Node000014_Node000014"><a xlink:title=" ">
<path fill="none" stroke="#63b8ff" d="M324.68,-28.19C323.36,-33.2 315.3,-37 300.5,-37 277.39,-37 270.72,-27.73 280.46,-19.08"/>
<polygon fill="#63b8ff" stroke="#63b8ff" points="327.86,-26.73 320.54,-19.08 321.49,-29.63 327.86,-26.73"/>
</a>
</g>
</g>
</g>
</svg>

<g id="navigator" transform="translate(0 0)" fill="#404254">
  <rect fill="#f2f5e9" fill-opacity="0.5" stroke="#606060" stroke-width=".5" x="0" y="0" width="60" height="60"/>
  <use id="zoomplus" xlink:href="#zoomPlus" x="17" y="9" onmousedown="handleZoom(evt,'in')"/>
  <use id="zoomminus" xlink:href="#zoomMin" x="42" y="9" onmousedown="handleZoom(evt,'out')"/>
  <use id="reset" xlink:href="#resetDef" x="30" y="36" onmousedown="handleReset()"/>
   <use id="arrowup" xlink:href="#arrowUp" x="0" y="0" onmousedown="handlePan(0,-1)"/>
  <use id="arrowright" xlink:href="#arrowRight" x="0" y="0" onmousedown="handlePan(1,0)"/>
  <use id="arrowdown" xlink:href="#arrowDown" x="0" y="0" onmousedown="handlePan(0,1)"/>
  <use id="arrowleft" xlink:href="#arrowLeft" x="0" y="0" onmousedown="handlePan(-1,0)"/>
</g>
<svg viewBox="0 0 15 15" width="100%" height="30px" preserveAspectRatio="xMaxYMin meet">
 <g id="arrow_out" transform="scale(0.3 0.3)">
  <a xlink:href="unicode_8h_a37b529eaefb2e43c5f2a7eda74138c13_icgraph_org.svg" target="_base">
   <rect id="button" ry="5" rx="5" y="6" x="6" height="38" width="38"
        fill="#f2f5e9" fill-opacity="0.5" stroke="#606060" stroke-width="1.0"/>
   <path id="arrow"
     d="M 11.500037,31.436501 C 11.940474,20.09759 22.043105,11.32322 32.158766,21.979434 L 37.068811,17.246167 C 37.068811,17.246167 37.088388,32 37.088388,32 L 22.160133,31.978069 C 22.160133,31.978069 26.997745,27.140456 26.997745,27.140456 C 18.528582,18.264221 13.291696,25.230495 11.500037,31.436501 z"
     style="fill:#404040;"/>
  </a>
 </g>
</svg>

<style type='text/css'>
<![CDATA[
[data-mouse-over-selected='false'] { opacity: 0.7; }
[data-mouse-over-selected='true']  { opacity: 1.0; }
]]>
</style>
<script type="application/ecmascript"><![CDATA[
document.addEventListener('DOMContentLoaded', (event) => {
  highlightEdges();
  highlightAdjacentNodes();
});
]]></script>
</svg>
