<?xml version="1.0" encoding="UTF-8" standalone="no"?>
<!DOCTYPE svg PUBLIC "-//W3C//DTD SVG 1.1//EN"
 "http://www.w3.org/Graphics/SVG/1.1/DTD/svg11.dtd">
<!-- Generated by graphviz version 2.43.0 (0)
 -->
<!-- Title: utf8_trim Pages: 1 -->
<svg width="492pt" height="82pt"
 viewBox="0.00 0.00 492.00 82.00" xmlns="http://www.w3.org/2000/svg" xmlns:xlink="http://www.w3.org/1999/xlink">
<g id="graph0" class="graph" transform="scale(1 1) rotate(0) translate(4 78)">
<title>utf8_trim</title>
<!-- Node1 -->
<g id="Node000001" class="node">
<title>Node1</title>
<g id="a_Node000001"><a xlink:title="Removes leading and trailing whitespace from a UTF&#45;8 string in&#45;place.">
<polygon fill="#999999" stroke="#666666" points="62,-37 0,-37 0,-18 62,-18 62,-37"/>
<text text-anchor="middle" x="31" y="-25" font-family="Helvetica,sans-Serif" font-size="10.00">utf8_trim</text>
</a>
</g>
</g>
<!-- Node2 -->
<g id="Node000002" class="node">
<title>Node2</title>
<g id="a_Node000002"><a xlink:href="unicode_8c.html#a358a6ddb4231f045fa1996354bb69b56" target="_top" xlink:title="Removes leading whitespace from a UTF&#45;8 string in&#45;place.">
<polygon fill="white" stroke="#666666" points="163,-56 98,-56 98,-37 163,-37 163,-56"/>
<text text-anchor="middle" x="130.5" y="-44" font-family="Helvetica,sans-Serif" font-size="10.00">utf8_ltrim</text>
</a>
</g>
</g>
<!-- Node1&#45;&gt;Node2 -->
<g id="edge1_Node000001_Node000002" class="edge">
<title>Node1&#45;&gt;Node2</title>
<g id="a_edge1_Node000001_Node000002"><a xlink:title=" ">
<path fill="none" stroke="#63b8ff" d="M62.05,-33.36C70.17,-34.94 79.11,-36.68 87.75,-38.36"/>
<polygon fill="#63b8ff" stroke="#63b8ff" points="87.21,-41.82 97.69,-40.3 88.55,-34.95 87.21,-41.82"/>
</a>
</g>
</g>
<!-- Node7 -->
<g id="Node000007" class="node">
<title>Node7</title>
<g id="a_Node000007"><a xlink:href="unicode_8c.html#a673ecb04bcd3fc52c6222a67233a8ce1" target="_top" xlink:title="Removes trailing whitespace from a UTF&#45;8 string in&#45;place.">
<polygon fill="white" stroke="#666666" points="163,-19 98,-19 98,0 163,0 163,-19"/>
<text text-anchor="middle" x="130.5" y="-7" font-family="Helvetica,sans-Serif" font-size="10.00">utf8_rtrim</text>
</a>
</g>
</g>
<!-- Node1&#45;&gt;Node7 -->
<g id="edge6_Node000001_Node000007" class="edge">
<title>Node1&#45;&gt;Node7</title>
<g id="a_edge6_Node000001_Node000007"><a xlink:title=" ">
<path fill="none" stroke="#63b8ff" d="M62.05,-21.95C70.17,-20.45 79.11,-18.8 87.75,-17.21"/>
<polygon fill="#63b8ff" stroke="#63b8ff" points="88.49,-20.63 97.69,-15.37 87.22,-13.75 88.49,-20.63"/>
</a>
</g>
</g>
<!-- Node3 -->
<g id="Node000003" class="node">
<title>Node3</title>
<g id="a_Node000003"><a xlink:href="unicode_8c.html#ad7d24e5bc418ae563b5afc21c6898e10" target="_top" xlink:title="Checks if a UTF&#45;8 character represents whitespace.">
<polygon fill="white" stroke="#666666" points="309,-56 199,-56 199,-37 309,-37 309,-56"/>
<text text-anchor="middle" x="254" y="-44" font-family="Helvetica,sans-Serif" font-size="10.00">is_utf8_whitespace</text>
</a>
</g>
</g>
<!-- Node2&#45;&gt;Node3 -->
<g id="edge2_Node000002_Node000003" class="edge">
<title>Node2&#45;&gt;Node3</title>
<g id="a_edge2_Node000002_Node000003"><a xlink:title=" ">
<path fill="none" stroke="#63b8ff" d="M163.11,-46.5C171.07,-46.5 179.92,-46.5 188.87,-46.5"/>
<polygon fill="#63b8ff" stroke="#63b8ff" points="188.96,-50 198.96,-46.5 188.96,-43 188.96,-50"/>
</a>
</g>
</g>
<!-- Node6 -->
<g id="Node000006" class="node">
<title>Node6</title>
<g id="a_Node000006"><a xlink:href="unicode_8c.html#aadba4a5c759cfb7674c3dfe42351e952" target="_top" xlink:title="Determines the byte length of a UTF&#45;8 character from its first byte.">
<polygon fill="white" stroke="#666666" points="303,-19 205,-19 205,0 303,0 303,-19"/>
<text text-anchor="middle" x="254" y="-7" font-family="Helvetica,sans-Serif" font-size="10.00">utf8_char_length</text>
</a>
</g>
</g>
<!-- Node2&#45;&gt;Node6 -->
<g id="edge5_Node000002_Node000006" class="edge">
<title>Node2&#45;&gt;Node6</title>
<g id="a_edge5_Node000002_Node000006"><a xlink:title=" ">
<path fill="none" stroke="#63b8ff" d="M162.79,-36.97C177.7,-32.43 195.72,-26.94 211.73,-22.07"/>
<polygon fill="#63b8ff" stroke="#63b8ff" points="212.85,-25.39 221.39,-19.12 210.81,-18.69 212.85,-25.39"/>
</a>
</g>
</g>
<!-- Node4 -->
<g id="Node000004" class="node">
<title>Node4</title>
<g id="a_Node000004"><a xlink:href="unicode_8c.html#a5ae688f76f23047d722b9884a106bf09" target="_top" xlink:title="Checks if a codepoint represents whitespace.">
<polygon fill="white" stroke="#666666" points="484,-74 345,-74 345,-55 484,-55 484,-74"/>
<text text-anchor="middle" x="414.5" y="-62" font-family="Helvetica,sans-Serif" font-size="10.00">is_codepoint_whitespace</text>
</a>
</g>
</g>
<!-- Node3&#45;&gt;Node4 -->
<g id="edge3_Node000003_Node000004" class="edge">
<title>Node3&#45;&gt;Node4</title>
<g id="a_edge3_Node000003_Node000004"><a xlink:title=" ">
<path fill="none" stroke="#63b8ff" d="M309.1,-52.64C317.35,-53.58 326.01,-54.56 334.66,-55.55"/>
<polygon fill="#63b8ff" stroke="#63b8ff" points="334.46,-59.05 344.79,-56.7 335.25,-52.09 334.46,-59.05"/>
</a>
</g>
</g>
<!-- Node5 -->
<g id="Node000005" class="node">
<title>Node5</title>
<g id="a_Node000005"><a xlink:href="unicode_8c.html#a0075f88c12df63dda852af0ff5c41f92" target="_top" xlink:title="Decodes a UTF&#45;8 byte sequence to its Unicode codepoint.">
<polygon fill="white" stroke="#666666" points="466.5,-37 362.5,-37 362.5,-18 466.5,-18 466.5,-37"/>
<text text-anchor="middle" x="414.5" y="-25" font-family="Helvetica,sans-Serif" font-size="10.00">utf8_to_codepoint</text>
</a>
</g>
</g>
<!-- Node3&#45;&gt;Node5 -->
<g id="edge4_Node000003_Node000005" class="edge">
<title>Node3&#45;&gt;Node5</title>
<g id="a_edge4_Node000003_Node000005"><a xlink:title=" ">
<path fill="none" stroke="#63b8ff" d="M309.1,-40.01C322.96,-38.35 337.96,-36.56 352.15,-34.85"/>
<polygon fill="#63b8ff" stroke="#63b8ff" points="352.8,-38.3 362.31,-33.64 351.97,-31.35 352.8,-38.3"/>
</a>
</g>
</g>
<!-- Node7&#45;&gt;Node3 -->
<g id="edge7_Node000007_Node000003" class="edge">
<title>Node7&#45;&gt;Node3</title>
<g id="a_edge7_Node000007_Node000003"><a xlink:title=" ">
<path fill="none" stroke="#63b8ff" d="M162.79,-19.03C177.7,-23.57 195.72,-29.06 211.73,-33.93"/>
<polygon fill="#63b8ff" stroke="#63b8ff" points="210.81,-37.31 221.39,-36.88 212.85,-30.61 210.81,-37.31"/>
</a>
</g>
</g>
<!-- Node7&#45;&gt;Node6 -->
<g id="edge8_Node000007_Node000006" class="edge">
<title>Node7&#45;&gt;Node6</title>
<g id="a_edge8_Node000007_Node000006"><a xlink:title=" ">
<path fill="none" stroke="#63b8ff" d="M163.11,-9.5C172.7,-9.5 183.56,-9.5 194.33,-9.5"/>
<polygon fill="#63b8ff" stroke="#63b8ff" points="194.59,-13 204.59,-9.5 194.59,-6 194.59,-13"/>
</a>
</g>
</g>
</g>
</svg>
