<?xml version="1.0" encoding="UTF-8" standalone="no"?>
<!DOCTYPE svg PUBLIC "-//W3C//DTD SVG 1.1//EN"
 "http://www.w3.org/Graphics/SVG/1.1/DTD/svg11.dtd">
<!-- Generated by graphviz version 2.43.0 (0)
 -->
<!-- Title: utf8_char_length Pages: 1 -->
<!--zoomable 485 -->

<svg id="main" version="1.1" xmlns="http://www.w3.org/2000/svg" xmlns:xlink="http://www.w3.org/1999/xlink" xml:space="preserve" onload="init(evt)">
<style type="text/css"><![CDATA[
.node, .edge {opacity: 0.7;}
.node.selected, .edge.selected {opacity: 1;}
.edge:hover path { stroke: red; }
.edge:hover polygon { stroke: red; fill: red; }
]]></style>

<defs>
  <circle id="rim" cx="0" cy="0" r="7"/>
  <circle id="rim2" cx="0" cy="0" r="3.5"/>
  <g id="zoomPlus">
    <use xlink:href="#rim" fill="#404040"><set attributeName="fill" to="#808080" begin="zoomplus.mouseover" end="zoomplus.mouseout"/></use>
    <path d="M-4,0h8M0,-4v8" fill="none" stroke="white" stroke-width="1.5" pointer-events="none"/>
  </g>
  <g id="zoomMin">
    <use xlink:href="#rim" fill="#404040"><set attributeName="fill" to="#808080" begin="zoomminus.mouseover" end="zoomminus.mouseout"/></use>
    <path d="M-4,0h8" fill="none" stroke="white" stroke-width="1.5" pointer-events="none"/>
  </g>
  <g id="arrowUp" transform="translate(30 24)">
    <use xlink:href="#rim"/>
    <path pointer-events="none" fill="none" stroke="white" stroke-width="1.5" d="M0,-3.0v7 M-2.5,-0.5L0,-3.0L2.5,-0.5"/>
  </g>
  <g id="arrowRight" transform="rotate(90) translate(36 -43)">
    <use xlink:href="#rim"/>
    <path pointer-events="none" fill="none" stroke="white" stroke-width="1.5" d="M0,-3.0v7 M-2.5,-0.5L0,-3.0L2.5,-0.5"/>
  </g>
  <g id="arrowDown" transform="rotate(180) translate(-30 -48)">
    <use xlink:href="#rim"/>
    <path pointer-events="none" fill="none" stroke="white" stroke-width="1.5" d="M0,-3.0v7 M-2.5,-0.5L0,-3.0L2.5,-0.5"/>
  </g>
  <g id="arrowLeft" transform="rotate(270) translate(-36 17)">
    <use xlink:href="#rim"/>
    <path pointer-events="none" fill="none" stroke="white" stroke-width="1.5" d="M0,-3.0v7 M-2.5,-0.5L0,-3.0L2.5,-0.5"/>
  </g>
  <g id="resetDef">
    <use xlink:href="#rim2" fill="#404040"><set attributeName="fill" to="#808080" begin="reset.mouseover" end="reset.mouseout"/></use>
  </g>
</defs>
<script type="application/ecmascript">
var viewWidth = 362;
var viewHeight = 485;
var sectionId = 'dynsection-33';
</script>
<script type="application/ecmascript" xlink:href="svg.min.js"/>
<svg id="graph" class="graph">
<g id="viewport">
<title>utf8_char_length</title>
<!-- Node1 -->
<g id="Node000001" class="node">
<title>Node1</title>
<g id="a_Node000001"><a xlink:title="Determines the byte length of a UTF&#45;8 character from its first byte.">
<polygon fill="#999999" stroke="#666666" points="354,-239 256,-239 256,-220 354,-220 354,-239"/>
<text text-anchor="middle" x="305" y="-227" font-family="Helvetica,sans-Serif" font-size="10.00">utf8_char_length</text>
</a>
</g>
</g>
<!-- Node1&#45;&gt;Node1 -->
<g id="edge1_Node000001_Node000001" class="edge">
<title>Node1&#45;&gt;Node1</title>
<g id="a_edge1_Node000001_Node000001"><a xlink:title=" ">
<path fill="none" stroke="#63b8ff" d="M332.16,-248.19C330.68,-253.2 321.62,-257 305,-257 279.05,-257 271.55,-247.73 282.5,-239.08"/>
<polygon fill="#63b8ff" stroke="#63b8ff" points="335.17,-246.39 327.5,-239.08 328.94,-249.58 335.17,-246.39"/>
</a>
</g>
</g>
<!-- Node2 -->
<g id="Node000002" class="node">
<title>Node2</title>
<g id="a_Node000002"><a xlink:href="unicode_8c.html#a358a6ddb4231f045fa1996354bb69b56" target="_top" xlink:title="Removes leading whitespace from a UTF&#45;8 string in&#45;place.">
<polygon fill="white" stroke="#666666" points="191.5,-459 126.5,-459 126.5,-440 191.5,-440 191.5,-459"/>
<text text-anchor="middle" x="159" y="-447" font-family="Helvetica,sans-Serif" font-size="10.00">utf8_ltrim</text>
</a>
</g>
</g>
<!-- Node1&#45;&gt;Node2 -->
<g id="edge2_Node000001_Node000002" class="edge">
<title>Node1&#45;&gt;Node2</title>
<g id="a_edge2_Node000001_Node000002"><a xlink:title=" ">
<path fill="none" stroke="#63b8ff" d="M301.44,-249.31C295.17,-289.62 275.3,-381.6 220,-431.5 212.17,-438.57 201.66,-442.86 191.62,-445.47"/>
<polygon fill="#63b8ff" stroke="#63b8ff" points="304.94,-249.57 302.89,-239.17 298.01,-248.58 304.94,-249.57"/>
</a>
</g>
</g>
<!-- Node4 -->
<g id="Node000004" class="node">
<title>Node4</title>
<g id="a_Node000004"><a xlink:href="unicode_8c.html#afec2f1cc66175b8c06fb77db9ebc6f17" target="_top" xlink:title="Prints the Unicode codepoints in U+XXXX format to stdout.">
<polygon fill="white" stroke="#666666" points="220,-404 98,-404 98,-385 220,-385 220,-404"/>
<text text-anchor="middle" x="159" y="-392" font-family="Helvetica,sans-Serif" font-size="10.00">utf8_print_codepoints</text>
</a>
</g>
</g>
<!-- Node1&#45;&gt;Node4 -->
<g id="edge6_Node000001_Node000004" class="edge">
<title>Node1&#45;&gt;Node4</title>
<g id="a_edge6_Node000001_Node000004"><a xlink:title=" ">
<path fill="none" stroke="#63b8ff" d="M298.2,-248.8C287.77,-280.25 262.81,-342.47 220,-376.5 215.66,-379.95 210.66,-382.74 205.45,-385"/>
<polygon fill="#63b8ff" stroke="#63b8ff" points="301.61,-249.64 301.3,-239.05 294.94,-247.53 301.61,-249.64"/>
</a>
</g>
</g>
<!-- Node5 -->
<g id="Node000005" class="node">
<title>Node5</title>
<g id="a_Node000005"><a xlink:href="unicode_8c.html#a4ce6007dd7a0d0c5ff36f94324fb265b" target="_top" xlink:title="Removes a specified number of codepoints starting at a byte index.">
<polygon fill="white" stroke="#666666" points="198.5,-349 119.5,-349 119.5,-330 198.5,-330 198.5,-349"/>
<text text-anchor="middle" x="159" y="-337" font-family="Helvetica,sans-Serif" font-size="10.00">utf8_remove</text>
</a>
</g>
</g>
<!-- Node1&#45;&gt;Node5 -->
<g id="edge8_Node000001_Node000005" class="edge">
<title>Node1&#45;&gt;Node5</title>
<g id="a_edge8_Node000001_Node000005"><a xlink:title=" ">
<path fill="none" stroke="#63b8ff" d="M292.21,-247.42C277.64,-268.19 250.95,-302.05 220,-321.5 213.55,-325.55 206.15,-328.73 198.79,-331.22"/>
<polygon fill="#63b8ff" stroke="#63b8ff" points="295.11,-249.38 297.86,-239.15 289.33,-245.43 295.11,-249.38"/>
</a>
</g>
</g>
<!-- Node6 -->
<g id="Node000006" class="node">
<title>Node6</title>
<g id="a_Node000006"><a xlink:href="unicode_8c.html#a187975088ccc70000b7284dc4f3351b7" target="_top" xlink:title="Reverses a UTF&#45;8 string by codepoints.">
<polygon fill="white" stroke="#666666" points="198,-294 120,-294 120,-275 198,-275 198,-294"/>
<text text-anchor="middle" x="159" y="-282" font-family="Helvetica,sans-Serif" font-size="10.00">utf8_reverse</text>
</a>
</g>
</g>
<!-- Node1&#45;&gt;Node6 -->
<g id="edge10_Node000001_Node000006" class="edge">
<title>Node1&#45;&gt;Node6</title>
<g id="a_edge10_Node000001_Node000006"><a xlink:title=" ">
<path fill="none" stroke="#63b8ff" d="M274.9,-243.38C258.9,-250.74 238.57,-259.65 220,-266.5 211.84,-269.51 202.92,-272.4 194.51,-274.94"/>
<polygon fill="#63b8ff" stroke="#63b8ff" points="276.67,-246.42 284.26,-239.02 273.71,-240.07 276.67,-246.42"/>
</a>
</g>
</g>
<!-- Node7 -->
<g id="Node000007" class="node">
<title>Node7</title>
<g id="a_Node000007"><a xlink:href="unicode_8c.html#a673ecb04bcd3fc52c6222a67233a8ce1" target="_top" xlink:title="Removes trailing whitespace from a UTF&#45;8 string in&#45;place.">
<polygon fill="white" stroke="#666666" points="191.5,-239 126.5,-239 126.5,-220 191.5,-220 191.5,-239"/>
<text text-anchor="middle" x="159" y="-227" font-family="Helvetica,sans-Serif" font-size="10.00">utf8_rtrim</text>
</a>
</g>
</g>
<!-- Node1&#45;&gt;Node7 -->
<g id="edge12_Node000001_Node000007" class="edge">
<title>Node1&#45;&gt;Node7</title>
<g id="a_edge12_Node000001_Node000007"><a xlink:title=" ">
<path fill="none" stroke="#63b8ff" d="M245.58,-229.5C227.16,-229.5 207.52,-229.5 191.7,-229.5"/>
<polygon fill="#63b8ff" stroke="#63b8ff" points="245.65,-233 255.65,-229.5 245.65,-226 245.65,-233"/>
</a>
</g>
</g>
<!-- Node8 -->
<g id="Node000008" class="node">
<title>Node8</title>
<g id="a_Node000008"><a xlink:href="unicode_8c.html#a283c63b93c8d578ec05102ff6533ae5b" target="_top" xlink:title="Splits a UTF&#45;8 string into parts using a delimiter.">
<polygon fill="white" stroke="#666666" points="190,-184 128,-184 128,-165 190,-165 190,-184"/>
<text text-anchor="middle" x="159" y="-172" font-family="Helvetica,sans-Serif" font-size="10.00">utf8_split</text>
</a>
</g>
</g>
<!-- Node1&#45;&gt;Node8 -->
<g id="edge15_Node000001_Node000008" class="edge">
<title>Node1&#45;&gt;Node8</title>
<g id="a_edge15_Node000001_Node000008"><a xlink:title=" ">
<path fill="none" stroke="#63b8ff" d="M269.46,-216.31C243.54,-206.41 208.64,-193.08 185.28,-184.16"/>
<polygon fill="#63b8ff" stroke="#63b8ff" points="268.33,-219.62 278.92,-219.92 270.82,-213.08 268.33,-219.62"/>
</a>
</g>
</g>
<!-- Node9 -->
<g id="Node000009" class="node">
<title>Node9</title>
<g id="a_Node000009"><a xlink:href="unicode_8c.html#ae3f31481d188b5fbe03ca760b031677b" target="_top" xlink:title="Converts all uppercase characters to lowercase in&#45;place.">
<polygon fill="white" stroke="#666666" points="198,-129 120,-129 120,-110 198,-110 198,-129"/>
<text text-anchor="middle" x="159" y="-117" font-family="Helvetica,sans-Serif" font-size="10.00">utf8_tolower</text>
</a>
</g>
</g>
<!-- Node1&#45;&gt;Node9 -->
<g id="edge17_Node000001_Node000009" class="edge">
<title>Node1&#45;&gt;Node9</title>
<g id="a_edge17_Node000001_Node000009"><a xlink:title=" ">
<path fill="none" stroke="#63b8ff" d="M286.81,-213.08C270.3,-197.68 244.35,-174.4 220,-156.5 206.1,-146.28 189.31,-136.09 177.03,-129"/>
<polygon fill="#63b8ff" stroke="#63b8ff" points="284.42,-215.64 294.1,-219.95 289.22,-210.55 284.42,-215.64"/>
</a>
</g>
</g>
<!-- Node10 -->
<g id="Node000010" class="node">
<title>Node10</title>
<g id="a_Node000010"><a xlink:href="unicode_8c.html#a0695d31239b48bbee503c9191bdfc627" target="_top" xlink:title="Converts all lowercase characters to uppercase in&#45;place.">
<polygon fill="white" stroke="#666666" points="198.5,-74 119.5,-74 119.5,-55 198.5,-55 198.5,-74"/>
<text text-anchor="middle" x="159" y="-62" font-family="Helvetica,sans-Serif" font-size="10.00">utf8_toupper</text>
</a>
</g>
</g>
<!-- Node1&#45;&gt;Node10 -->
<g id="edge19_Node000001_Node000010" class="edge">
<title>Node1&#45;&gt;Node10</title>
<g id="a_edge19_Node000001_Node000010"><a xlink:title=" ">
<path fill="none" stroke="#63b8ff" d="M295.06,-210.78C281.63,-184.1 254.14,-134.69 220,-101.5 208.33,-90.15 192.59,-80.61 180.16,-74.06"/>
<polygon fill="#63b8ff" stroke="#63b8ff" points="291.95,-212.39 299.5,-219.81 298.23,-209.29 291.95,-212.39"/>
</a>
</g>
</g>
<!-- Node11 -->
<g id="Node000011" class="node">
<title>Node11</title>
<g id="a_Node000011"><a xlink:href="unicode_8c.html#afec6fd3b06a385932c453e975a34d3ce" target="_top" xlink:title="Removes leading and trailing characters from a UTF&#45;8 string in&#45;place.">
<polygon fill="white" stroke="#666666" points="205.5,-19 112.5,-19 112.5,0 205.5,0 205.5,-19"/>
<text text-anchor="middle" x="159" y="-7" font-family="Helvetica,sans-Serif" font-size="10.00">utf8_trim_chars</text>
</a>
</g>
</g>
<!-- Node1&#45;&gt;Node11 -->
<g id="edge21_Node000001_Node000011" class="edge">
<title>Node1&#45;&gt;Node11</title>
<g id="a_edge21_Node000001_Node000011"><a xlink:title=" ">
<path fill="none" stroke="#63b8ff" d="M299.09,-209.89C289.28,-173.94 264.29,-96.57 220,-46.5 209.54,-34.68 194.39,-25.37 181.93,-19.05"/>
<polygon fill="#63b8ff" stroke="#63b8ff" points="295.73,-210.86 301.66,-219.65 302.5,-209.08 295.73,-210.86"/>
</a>
</g>
</g>
<!-- Node2&#45;&gt;Node2 -->
<g id="edge3_Node000002_Node000002" class="edge">
<title>Node2&#45;&gt;Node2</title>
<g id="a_edge3_Node000002_Node000002"><a xlink:title=" ">
<path fill="none" stroke="#63b8ff" d="M182.7,-468.55C181.12,-473.38 173.22,-477 159,-477 136.25,-477 129.67,-467.73 139.27,-459.08"/>
<polygon fill="#63b8ff" stroke="#63b8ff" points="185.83,-466.95 178.73,-459.08 179.37,-469.66 185.83,-466.95"/>
</a>
</g>
</g>
<!-- Node3 -->
<g id="Node000003" class="node">
<title>Node3</title>
<g id="a_Node000003"><a xlink:href="unicode_8c.html#a8ec9a3447456e99105106536e4dfe39a" target="_top" xlink:title="Removes leading and trailing whitespace from a UTF&#45;8 string in&#45;place.">
<polygon fill="white" stroke="#666666" points="62,-349 0,-349 0,-330 62,-330 62,-349"/>
<text text-anchor="middle" x="31" y="-337" font-family="Helvetica,sans-Serif" font-size="10.00">utf8_trim</text>
</a>
</g>
</g>
<!-- Node2&#45;&gt;Node3 -->
<g id="edge4_Node000002_Node000003" class="edge">
<title>Node2&#45;&gt;Node3</title>
<g id="a_edge4_Node000002_Node000003"><a xlink:title=" ">
<path fill="none" stroke="#63b8ff" d="M116.67,-441.04C110.07,-438.61 103.59,-435.49 98,-431.5 66.96,-409.34 45.06,-367.93 36.28,-349.18"/>
<polygon fill="#63b8ff" stroke="#63b8ff" points="115.73,-444.41 126.32,-444.13 117.87,-437.75 115.73,-444.41"/>
</a>
</g>
</g>
<!-- Node3&#45;&gt;Node3 -->
<g id="edge5_Node000003_Node000003" class="edge">
<title>Node3&#45;&gt;Node3</title>
<g id="a_edge5_Node000003_Node000003"><a xlink:title=" ">
<path fill="none" stroke="#63b8ff" d="M54.7,-358.55C53.12,-363.38 45.22,-367 31,-367 8.25,-367 1.67,-357.73 11.27,-349.08"/>
<polygon fill="#63b8ff" stroke="#63b8ff" points="57.83,-356.95 50.73,-349.08 51.37,-359.66 57.83,-356.95"/>
</a>
</g>
</g>
<!-- Node4&#45;&gt;Node4 -->
<g id="edge7_Node000004_Node000004" class="edge">
<title>Node4&#45;&gt;Node4</title>
<g id="a_edge7_Node000004_Node000004"><a xlink:title=" ">
<path fill="none" stroke="#63b8ff" d="M182.7,-413.55C181.12,-418.38 173.22,-422 159,-422 136.25,-422 129.67,-412.73 139.27,-404.08"/>
<polygon fill="#63b8ff" stroke="#63b8ff" points="185.83,-411.95 178.73,-404.08 179.37,-414.66 185.83,-411.95"/>
</a>
</g>
</g>
<!-- Node5&#45;&gt;Node5 -->
<g id="edge9_Node000005_Node000005" class="edge">
<title>Node5&#45;&gt;Node5</title>
<g id="a_edge9_Node000005_Node000005"><a xlink:title=" ">
<path fill="none" stroke="#63b8ff" d="M182.7,-358.55C181.12,-363.38 173.22,-367 159,-367 136.25,-367 129.67,-357.73 139.27,-349.08"/>
<polygon fill="#63b8ff" stroke="#63b8ff" points="185.83,-356.95 178.73,-349.08 179.37,-359.66 185.83,-356.95"/>
</a>
</g>
</g>
<!-- Node6&#45;&gt;Node6 -->
<g id="edge11_Node000006_Node000006" class="edge">
<title>Node6&#45;&gt;Node6</title>
<g id="a_edge11_Node000006_Node000006"><a xlink:title=" ">
<path fill="none" stroke="#63b8ff" d="M182.7,-303.55C181.12,-308.38 173.22,-312 159,-312 136.25,-312 129.67,-302.73 139.27,-294.08"/>
<polygon fill="#63b8ff" stroke="#63b8ff" points="185.83,-301.95 178.73,-294.08 179.37,-304.66 185.83,-301.95"/>
</a>
</g>
</g>
<!-- Node7&#45;&gt;Node3 -->
<g id="edge14_Node000007_Node000003" class="edge">
<title>Node7&#45;&gt;Node3</title>
<g id="a_edge14_Node000007_Node000003"><a xlink:title=" ">
<path fill="none" stroke="#63b8ff" d="M130.6,-244.18C119.96,-250.44 107.97,-258.2 98,-266.5 74.1,-286.39 50.82,-314.9 39.37,-329.71"/>
<polygon fill="#63b8ff" stroke="#63b8ff" points="132.56,-247.09 139.51,-239.1 129.09,-241.01 132.56,-247.09"/>
</a>
</g>
</g>
<!-- Node7&#45;&gt;Node7 -->
<g id="edge13_Node000007_Node000007" class="edge">
<title>Node7&#45;&gt;Node7</title>
<g id="a_edge13_Node000007_Node000007"><a xlink:title=" ">
<path fill="none" stroke="#63b8ff" d="M182.7,-248.55C181.12,-253.38 173.22,-257 159,-257 136.25,-257 129.67,-247.73 139.27,-239.08"/>
<polygon fill="#63b8ff" stroke="#63b8ff" points="185.83,-246.95 178.73,-239.08 179.37,-249.66 185.83,-246.95"/>
</a>
</g>
</g>
<!-- Node8&#45;&gt;Node8 -->
<g id="edge16_Node000008_Node000008" class="edge">
<title>Node8&#45;&gt;Node8</title>
<g id="a_edge16_Node000008_Node000008"><a xlink:title=" ">
<path fill="none" stroke="#63b8ff" d="M182.7,-193.55C181.12,-198.38 173.22,-202 159,-202 136.25,-202 129.67,-192.73 139.27,-184.08"/>
<polygon fill="#63b8ff" stroke="#63b8ff" points="185.83,-191.95 178.73,-184.08 179.37,-194.66 185.83,-191.95"/>
</a>
</g>
</g>
<!-- Node9&#45;&gt;Node9 -->
<g id="edge18_Node000009_Node000009" class="edge">
<title>Node9&#45;&gt;Node9</title>
<g id="a_edge18_Node000009_Node000009"><a xlink:title=" ">
<path fill="none" stroke="#63b8ff" d="M182.7,-138.55C181.12,-143.38 173.22,-147 159,-147 136.25,-147 129.67,-137.73 139.27,-129.08"/>
<polygon fill="#63b8ff" stroke="#63b8ff" points="185.83,-136.95 178.73,-129.08 179.37,-139.66 185.83,-136.95"/>
</a>
</g>
</g>
<!-- Node10&#45;&gt;Node10 -->
<g id="edge20_Node000010_Node000010" class="edge">
<title>Node10&#45;&gt;Node10</title>
<g id="a_edge20_Node000010_Node000010"><a xlink:title=" ">
<path fill="none" stroke="#63b8ff" d="M182.7,-83.55C181.12,-88.38 173.22,-92 159,-92 136.25,-92 129.67,-82.73 139.27,-74.08"/>
<polygon fill="#63b8ff" stroke="#63b8ff" points="185.83,-81.95 178.73,-74.08 179.37,-84.66 185.83,-81.95"/>
</a>
</g>
</g>
<!-- Node11&#45;&gt;Node11 -->
<g id="edge22_Node000011_Node000011" class="edge">
<title>Node11&#45;&gt;Node11</title>
<g id="a_edge22_Node000011_Node000011"><a xlink:title=" ">
<path fill="none" stroke="#63b8ff" d="M182.7,-28.55C181.12,-33.38 173.22,-37 159,-37 136.25,-37 129.67,-27.73 139.27,-19.08"/>
<polygon fill="#63b8ff" stroke="#63b8ff" points="185.83,-26.95 178.73,-19.08 179.37,-29.66 185.83,-26.95"/>
</a>
</g>
</g>
</g>
</svg>

<g id="navigator" transform="translate(0 0)" fill="#404254">
  <rect fill="#f2f5e9" fill-opacity="0.5" stroke="#606060" stroke-width=".5" x="0" y="0" width="60" height="60"/>
  <use id="zoomplus" xlink:href="#zoomPlus" x="17" y="9" onmousedown="handleZoom(evt,'in')"/>
  <use id="zoomminus" xlink:href="#zoomMin" x="42" y="9" onmousedown="handleZoom(evt,'out')"/>
  <use id="reset" xlink:href="#resetDef" x="30" y="36" onmousedown="handleReset()"/>
   <use id="arrowup" xlink:href="#arrowUp" x="0" y="0" onmousedown="handlePan(0,-1)"/>
  <use id="arrowright" xlink:href="#arrowRight" x="0" y="0" onmousedown="handlePan(1,0)"/>
  <use id="arrowdown" xlink:href="#arrowDown" x="0" y="0" onmousedown="handlePan(0,1)"/>
  <use id="arrowleft" xlink:href="#arrowLeft" x="0" y="0" onmousedown="handlePan(-1,0)"/>
</g>
<svg viewBox="0 0 15 15" width="100%" height="30px" preserveAspectRatio="xMaxYMin meet">
 <g id="arrow_out" transform="scale(0.3 0.3)">
  <a xlink:href="unicode_8h_aadba4a5c759cfb7674c3dfe42351e952_icgraph_org.svg" target="_base">
   <rect id="button" ry="5" rx="5" y="6" x="6" height="38" width="38"
        fill="#f2f5e9" fill-opacity="0.5" stroke="#606060" stroke-width="1.0"/>
   <path id="arrow"
     d="M 11.500037,31.436501 C 11.940474,20.09759 22.043105,11.32322 32.158766,21.979434 L 37.068811,17.246167 C 37.068811,17.246167 37.088388,32 37.088388,32 L 22.160133,31.978069 C 22.160133,31.978069 26.997745,27.140456 26.997745,27.140456 C 18.528582,18.264221 13.291696,25.230495 11.500037,31.436501 z"
     style="fill:#404040;"/>
  </a>
 </g>
</svg>

<style type='text/css'>
<![CDATA[
[data-mouse-over-selected='false'] { opacity: 0.7; }
[data-mouse-over-selected='true']  { opacity: 1.0; }
]]>
</style>
<script type="application/ecmascript"><![CDATA[
document.addEventListener('DOMContentLoaded', (event) => {
  highlightEdges();
  highlightAdjacentNodes();
});
]]></script>
</svg>
