<?xml version="1.0" encoding="UTF-8" standalone="no"?>
<!DOCTYPE svg PUBLIC "-//W3C//DTD SVG 1.1//EN"
 "http://www.w3.org/Graphics/SVG/1.1/DTD/svg11.dtd">
<!-- Generated by graphviz version 2.43.0 (0)
 -->
<!-- Title: utf8_free Pages: 1 -->
<svg width="215pt" height="100pt"
 viewBox="0.00 0.00 215.00 100.00" xmlns="http://www.w3.org/2000/svg" xmlns:xlink="http://www.w3.org/1999/xlink">

<svg id="main" version="1.1" xmlns="http://www.w3.org/2000/svg" xmlns:xlink="http://www.w3.org/1999/xlink" xml:space="preserve" onload="init(evt)">
<style type="text/css"><![CDATA[
.node, .edge {opacity: 0.7;}
.node.selected, .edge.selected {opacity: 1;}
.edge:hover path { stroke: red; }
.edge:hover polygon { stroke: red; fill: red; }
]]></style>
<script type="application/ecmascript" xlink:href="svg.min.js"/>
<svg id="graph" class="graph">
<g id="graph0" class="graph" transform="scale(1 1) rotate(0) translate(4 96)">
<title>utf8_free</title>
<!-- Node1 -->
<g id="Node000001" class="node">
<title>Node1</title>
<g id="a_Node000001"><a xlink:title="Frees all resources associated with a utf8_string.">
<polygon fill="#999999" stroke="#666666" points="207,-46 146,-46 146,-27 207,-27 207,-46"/>
<text text-anchor="middle" x="176.5" y="-34" font-family="Helvetica,sans-Serif" font-size="10.00">utf8_free</text>
</a>
</g>
</g>
<!-- Node1&#45;&gt;Node1 -->
<g id="edge3_Node000001_Node000001" class="edge">
<title>Node1&#45;&gt;Node1</title>
<g id="a_edge3_Node000001_Node000001"><a xlink:title=" ">
<path fill="none" stroke="#63b8ff" d="M198.72,-55.55C197.24,-60.38 189.83,-64 176.5,-64 155.17,-64 149.01,-54.73 158,-46.08"/>
<polygon fill="#63b8ff" stroke="#63b8ff" points="201.91,-54.11 195,-46.08 195.4,-56.67 201.91,-54.11"/>
</a>
</g>
</g>
<!-- Node2 -->
<g id="Node000002" class="node">
<title>Node2</title>
<g id="a_Node000002"><a xlink:href="unicode_8c.html#a121e5e7ae6f6f18318b2a6937efcaef5" target="_top" xlink:title="Removes an element from a utf8_string array and frees it.">
<polygon fill="white" stroke="#666666" points="110,-74 0,-74 0,-55 110,-55 110,-74"/>
<text text-anchor="middle" x="55" y="-62" font-family="Helvetica,sans-Serif" font-size="10.00">utf8_array_remove</text>
</a>
</g>
</g>
<!-- Node1&#45;&gt;Node2 -->
<g id="edge1_Node000001_Node000002" class="edge">
<title>Node1&#45;&gt;Node2</title>
<g id="a_edge1_Node000001_Node000002"><a xlink:title=" ">
<path fill="none" stroke="#63b8ff" d="M136.2,-45.71C123.61,-48.66 109.63,-51.93 96.92,-54.91"/>
<polygon fill="#63b8ff" stroke="#63b8ff" points="137.02,-49.11 145.96,-43.42 135.43,-42.3 137.02,-49.11"/>
</a>
</g>
</g>
<!-- Node3 -->
<g id="Node000003" class="node">
<title>Node3</title>
<g id="a_Node000003"><a xlink:href="unicode_8c.html#a8822f500037da8bbdb21b17113eed391" target="_top" xlink:title="Frees an array of utf8_string objects returned by utf8_split().">
<polygon fill="white" stroke="#666666" points="98.5,-19 11.5,-19 11.5,0 98.5,0 98.5,-19"/>
<text text-anchor="middle" x="55" y="-7" font-family="Helvetica,sans-Serif" font-size="10.00">utf8_split_free</text>
</a>
</g>
</g>
<!-- Node1&#45;&gt;Node3 -->
<g id="edge4_Node000001_Node000003" class="edge">
<title>Node1&#45;&gt;Node3</title>
<g id="a_edge4_Node000001_Node000003"><a xlink:title=" ">
<path fill="none" stroke="#63b8ff" d="M136.12,-27.6C123.99,-24.86 110.59,-21.83 98.28,-19.05"/>
<polygon fill="#63b8ff" stroke="#63b8ff" points="135.44,-31.04 145.96,-29.83 136.98,-24.21 135.44,-31.04"/>
</a>
</g>
</g>
<!-- Node2&#45;&gt;Node2 -->
<g id="edge2_Node000002_Node000002" class="edge">
<title>Node2&#45;&gt;Node2</title>
<g id="a_edge2_Node000002_Node000002"><a xlink:title=" ">
<path fill="none" stroke="#63b8ff" d="M77.22,-83.55C75.74,-88.38 68.33,-92 55,-92 33.67,-92 27.51,-82.73 36.5,-74.08"/>
<polygon fill="#63b8ff" stroke="#63b8ff" points="80.41,-82.11 73.5,-74.08 73.9,-84.67 80.41,-82.11"/>
</a>
</g>
</g>
<!-- Node3&#45;&gt;Node3 -->
<g id="edge5_Node000003_Node000003" class="edge">
<title>Node3&#45;&gt;Node3</title>
<g id="a_edge5_Node000003_Node000003"><a xlink:title=" ">
<path fill="none" stroke="#63b8ff" d="M77.22,-28.55C75.74,-33.38 68.33,-37 55,-37 33.67,-37 27.51,-27.73 36.5,-19.08"/>
<polygon fill="#63b8ff" stroke="#63b8ff" points="80.41,-27.11 73.5,-19.08 73.9,-29.67 80.41,-27.11"/>
</a>
</g>
</g>
</g>
</svg>
</svg>

<style type='text/css'>
<![CDATA[
[data-mouse-over-selected='false'] { opacity: 0.7; }
[data-mouse-over-selected='true']  { opacity: 1.0; }
]]>
</style>
<script type="application/ecmascript"><![CDATA[
document.addEventListener('DOMContentLoaded', (event) => {
  highlightEdges();
  highlightAdjacentNodes();
});
]]></script>
</svg>
