<?xml version="1.0" encoding="UTF-8" standalone="no"?>
<!DOCTYPE svg PUBLIC "-//W3C//DTD SVG 1.1//EN"
 "http://www.w3.org/Graphics/SVG/1.1/DTD/svg11.dtd">
<!-- Generated by graphviz version 2.43.0 (0)
 -->
<!-- Title: is_utf8_alnum Pages: 1 -->
<svg width="244pt" height="100pt"
 viewBox="0.00 0.00 244.00 100.00" xmlns="http://www.w3.org/2000/svg" xmlns:xlink="http://www.w3.org/1999/xlink">

<svg id="main" version="1.1" xmlns="http://www.w3.org/2000/svg" xmlns:xlink="http://www.w3.org/1999/xlink" xml:space="preserve" onload="init(evt)">
<style type="text/css"><![CDATA[
.node, .edge {opacity: 0.7;}
.node.selected, .edge.selected {opacity: 1;}
.edge:hover path { stroke: red; }
.edge:hover polygon { stroke: red; fill: red; }
]]></style>
<script type="application/ecmascript" xlink:href="svg.min.js"/>
<svg id="graph" class="graph">
<g id="graph0" class="graph" transform="scale(1 1) rotate(0) translate(4 96)">
<title>is_utf8_alnum</title>
<!-- Node1 -->
<g id="Node000001" class="node">
<title>Node1</title>
<g id="a_Node000001"><a xlink:title="Checks if a UTF&#45;8 character represents an alphanumeric character.">
<polygon fill="#999999" stroke="#666666" points="86,-46 0,-46 0,-27 86,-27 86,-46"/>
<text text-anchor="middle" x="43" y="-34" font-family="Helvetica,sans-Serif" font-size="10.00">is_utf8_alnum</text>
</a>
</g>
</g>
<!-- Node1&#45;&gt;Node1 -->
<g id="edge3_Node000001_Node000001" class="edge">
<title>Node1&#45;&gt;Node1</title>
<g id="a_edge3_Node000001_Node000001"><a xlink:title=" ">
<path fill="none" stroke="#63b8ff" d="M22.04,-46.08C11.84,-54.73 18.83,-64 43,-64 58.49,-64 66.92,-60.2 68.3,-55.19"/>
<polygon fill="#63b8ff" stroke="#63b8ff" points="71.42,-53.61 63.96,-46.08 65.1,-56.62 71.42,-53.61"/>
</a>
</g>
</g>
<!-- Node2 -->
<g id="Node000002" class="node">
<title>Node2</title>
<g id="a_Node000002"><a xlink:href="unicode_8c.html#a18ef4d02ebf36981246f861706872081" target="_top" xlink:title="Checks if a codepoint represents an alphanumeric character.">
<polygon fill="white" stroke="#666666" points="236,-74 122,-74 122,-55 236,-55 236,-74"/>
<text text-anchor="middle" x="179" y="-62" font-family="Helvetica,sans-Serif" font-size="10.00">is_codepoint_alnum</text>
</a>
</g>
</g>
<!-- Node1&#45;&gt;Node2 -->
<g id="edge1_Node000001_Node000002" class="edge">
<title>Node1&#45;&gt;Node2</title>
<g id="a_edge1_Node000001_Node000002"><a xlink:title=" ">
<path fill="none" stroke="#63b8ff" d="M86.03,-45.28C97.54,-47.69 110.2,-50.33 122.35,-52.87"/>
<polygon fill="#63b8ff" stroke="#63b8ff" points="121.9,-56.35 132.4,-54.97 123.33,-49.5 121.9,-56.35"/>
</a>
</g>
</g>
<!-- Node3 -->
<g id="Node000003" class="node">
<title>Node3</title>
<g id="a_Node000003"><a xlink:href="unicode_8c.html#a0075f88c12df63dda852af0ff5c41f92" target="_top" xlink:title="Decodes a UTF&#45;8 byte sequence to its Unicode codepoint.">
<polygon fill="white" stroke="#666666" points="231,-19 127,-19 127,0 231,0 231,-19"/>
<text text-anchor="middle" x="179" y="-7" font-family="Helvetica,sans-Serif" font-size="10.00">utf8_to_codepoint</text>
</a>
</g>
</g>
<!-- Node1&#45;&gt;Node3 -->
<g id="edge4_Node000001_Node000003" class="edge">
<title>Node1&#45;&gt;Node3</title>
<g id="a_edge4_Node000001_Node000003"><a xlink:title=" ">
<path fill="none" stroke="#63b8ff" d="M86.03,-28.03C96.95,-25.83 108.91,-23.42 120.48,-21.09"/>
<polygon fill="#63b8ff" stroke="#63b8ff" points="121.4,-24.47 130.51,-19.07 120.02,-17.61 121.4,-24.47"/>
</a>
</g>
</g>
<!-- Node2&#45;&gt;Node2 -->
<g id="edge2_Node000002_Node000002" class="edge">
<title>Node2&#45;&gt;Node2</title>
<g id="a_edge2_Node000002_Node000002"><a xlink:title=" ">
<path fill="none" stroke="#63b8ff" d="M158.04,-74.08C147.84,-82.73 154.83,-92 179,-92 194.49,-92 202.92,-88.2 204.3,-83.19"/>
<polygon fill="#63b8ff" stroke="#63b8ff" points="207.42,-81.61 199.96,-74.08 201.1,-84.62 207.42,-81.61"/>
</a>
</g>
</g>
<!-- Node3&#45;&gt;Node3 -->
<g id="edge5_Node000003_Node000003" class="edge">
<title>Node3&#45;&gt;Node3</title>
<g id="a_edge5_Node000003_Node000003"><a xlink:title=" ">
<path fill="none" stroke="#63b8ff" d="M158.04,-19.08C147.84,-27.73 154.83,-37 179,-37 194.49,-37 202.92,-33.2 204.3,-28.19"/>
<polygon fill="#63b8ff" stroke="#63b8ff" points="207.42,-26.61 199.96,-19.08 201.1,-29.62 207.42,-26.61"/>
</a>
</g>
</g>
</g>
</svg>
</svg>

<style type='text/css'>
<![CDATA[
[data-mouse-over-selected='false'] { opacity: 0.7; }
[data-mouse-over-selected='true']  { opacity: 1.0; }
]]>
</style>
<script type="application/ecmascript"><![CDATA[
document.addEventListener('DOMContentLoaded', (event) => {
  highlightEdges();
  highlightAdjacentNodes();
});
]]></script>
</svg>
