<?xml version="1.0" encoding="UTF-8" standalone="no"?>
<!DOCTYPE svg PUBLIC "-//W3C//DTD SVG 1.1//EN"
 "http://www.w3.org/Graphics/SVG/1.1/DTD/svg11.dtd">
<!-- Generated by graphviz version 2.43.0 (0)
 -->
<!-- Title: utf8_count_codepoints Pages: 1 -->
<svg width="388pt" height="304pt"
 viewBox="0.00 0.00 388.00 304.00" xmlns="http://www.w3.org/2000/svg" xmlns:xlink="http://www.w3.org/1999/xlink">

<svg id="main" version="1.1" xmlns="http://www.w3.org/2000/svg" xmlns:xlink="http://www.w3.org/1999/xlink" xml:space="preserve" onload="init(evt)">
<style type="text/css"><![CDATA[
.node, .edge {opacity: 0.7;}
.node.selected, .edge.selected {opacity: 1;}
.edge:hover path { stroke: red; }
.edge:hover polygon { stroke: red; fill: red; }
]]></style>
<script type="application/ecmascript" xlink:href="svg.min.js"/>
<svg id="graph" class="graph">
<g id="graph0" class="graph" transform="scale(1 1) rotate(0) translate(4 300)">
<title>utf8_count_codepoints</title>
<!-- Node1 -->
<g id="Node000001" class="node">
<title>Node1</title>
<g id="a_Node000001"><a xlink:title="Counts the number of Unicode codepoints in a UTF&#45;8 string.">
<polygon fill="#999999" stroke="#666666" points="380,-149 253,-149 253,-130 380,-130 380,-149"/>
<text text-anchor="middle" x="316.5" y="-137" font-family="Helvetica,sans-Serif" font-size="10.00">utf8_count_codepoints</text>
</a>
</g>
</g>
<!-- Node1&#45;&gt;Node1 -->
<g id="edge3_Node000001_Node000001" class="edge">
<title>Node1&#45;&gt;Node1</title>
<g id="a_edge3_Node000001_Node000001"><a xlink:title=" ">
<path fill="none" stroke="#63b8ff" d="M343.66,-158.19C342.18,-163.2 333.12,-167 316.5,-167 290.55,-167 283.05,-157.73 294,-149.08"/>
<polygon fill="#63b8ff" stroke="#63b8ff" points="346.67,-156.39 339,-149.08 340.44,-159.58 346.67,-156.39"/>
</a>
</g>
</g>
<!-- Node2 -->
<g id="Node000002" class="node">
<title>Node2</title>
<g id="a_Node000002"><a xlink:href="unicode_8c.html#a67a7b18299094ff3eb57c9d3b98aac2e" target="_top" xlink:title="Appends UTF&#45;8 data to the end of a utf8_string.">
<polygon fill="white" stroke="#666666" points="208,-278 131,-278 131,-259 208,-259 208,-278"/>
<text text-anchor="middle" x="169.5" y="-266" font-family="Helvetica,sans-Serif" font-size="10.00">utf8_append</text>
</a>
</g>
</g>
<!-- Node1&#45;&gt;Node2 -->
<g id="edge1_Node000001_Node000002" class="edge">
<title>Node1&#45;&gt;Node2</title>
<g id="a_edge1_Node000001_Node000002"><a xlink:title=" ">
<path fill="none" stroke="#63b8ff" d="M303.47,-157.8C286.71,-182.02 254.17,-224.68 217,-250.5 212.31,-253.76 206.94,-256.54 201.57,-258.86"/>
<polygon fill="#63b8ff" stroke="#63b8ff" points="306.58,-159.45 309.29,-149.21 300.78,-155.53 306.58,-159.45"/>
</a>
</g>
</g>
<!-- Node3 -->
<g id="Node000003" class="node">
<title>Node3</title>
<g id="a_Node000003"><a xlink:href="unicode_8c.html#a52c04fcffff66046fe31bfc66e920907" target="_top" xlink:title="Inserts UTF&#45;8 data at a specific byte index.">
<polygon fill="white" stroke="#666666" points="204,-223 135,-223 135,-204 204,-204 204,-223"/>
<text text-anchor="middle" x="169.5" y="-211" font-family="Helvetica,sans-Serif" font-size="10.00">utf8_insert</text>
</a>
</g>
</g>
<!-- Node1&#45;&gt;Node3 -->
<g id="edge4_Node000001_Node000003" class="edge">
<title>Node1&#45;&gt;Node3</title>
<g id="a_edge4_Node000001_Node000003"><a xlink:title=" ">
<path fill="none" stroke="#63b8ff" d="M291.59,-154.42C271.97,-166.34 243.23,-183.05 217,-195.5 210.74,-198.47 203.86,-201.34 197.34,-203.89"/>
<polygon fill="#63b8ff" stroke="#63b8ff" points="293.49,-157.36 300.18,-149.15 289.83,-151.39 293.49,-157.36"/>
</a>
</g>
</g>
<!-- Node4 -->
<g id="Node000004" class="node">
<title>Node4</title>
<g id="a_Node000004"><a xlink:href="unicode_8c.html#ac8dd740b9cf9558c3b5bd89f91857d08" target="_top" xlink:title="Creates a new utf8_string object from a C string.">
<polygon fill="white" stroke="#666666" points="200.5,-168 138.5,-168 138.5,-149 200.5,-149 200.5,-168"/>
<text text-anchor="middle" x="169.5" y="-156" font-family="Helvetica,sans-Serif" font-size="10.00">utf8_new</text>
</a>
</g>
</g>
<!-- Node1&#45;&gt;Node4 -->
<g id="edge6_Node000001_Node000004" class="edge">
<title>Node1&#45;&gt;Node4</title>
<g id="a_edge6_Node000001_Node000004"><a xlink:title=" ">
<path fill="none" stroke="#63b8ff" d="M242.53,-149.06C227.73,-151 212.96,-152.94 200.68,-154.54"/>
<polygon fill="#63b8ff" stroke="#63b8ff" points="243.28,-152.49 252.74,-147.72 242.37,-145.55 243.28,-152.49"/>
</a>
</g>
</g>
<!-- Node7 -->
<g id="Node000007" class="node">
<title>Node7</title>
<g id="a_Node000007"><a xlink:href="unicode_8c.html#a283c63b93c8d578ec05102ff6533ae5b" target="_top" xlink:title="Splits a UTF&#45;8 string into parts using a delimiter.">
<polygon fill="white" stroke="#666666" points="74,-121 12,-121 12,-102 74,-102 74,-121"/>
<text text-anchor="middle" x="43" y="-109" font-family="Helvetica,sans-Serif" font-size="10.00">utf8_split</text>
</a>
</g>
</g>
<!-- Node1&#45;&gt;Node7 -->
<g id="edge18_Node000001_Node000007" class="edge">
<title>Node1&#45;&gt;Node7</title>
<g id="a_edge18_Node000001_Node000007"><a xlink:title=" ">
<path fill="none" stroke="#63b8ff" d="M242.78,-132C187.59,-126.31 114.51,-118.77 74.11,-114.6"/>
<polygon fill="#63b8ff" stroke="#63b8ff" points="242.57,-135.5 252.87,-133.04 243.28,-128.53 242.57,-135.5"/>
</a>
</g>
</g>
<!-- Node8 -->
<g id="Node000008" class="node">
<title>Node8</title>
<g id="a_Node000008"><a xlink:href="unicode_8c.html#a10259846ed532818dcbeb0f050870964" target="_top" xlink:title="Replaces the first occurrence of a substring with another string.">
<polygon fill="white" stroke="#666666" points="208,-74 131,-74 131,-55 208,-55 208,-74"/>
<text text-anchor="middle" x="169.5" y="-62" font-family="Helvetica,sans-Serif" font-size="10.00">utf8_replace</text>
</a>
</g>
</g>
<!-- Node1&#45;&gt;Node8 -->
<g id="edge14_Node000001_Node000008" class="edge">
<title>Node1&#45;&gt;Node8</title>
<g id="a_edge14_Node000001_Node000008"><a xlink:title=" ">
<path fill="none" stroke="#63b8ff" d="M287.66,-125.1C258.66,-110.1 214.06,-87.03 189.09,-74.11"/>
<polygon fill="#63b8ff" stroke="#63b8ff" points="286.35,-128.36 296.84,-129.85 289.57,-122.15 286.35,-128.36"/>
</a>
</g>
</g>
<!-- Node9 -->
<g id="Node000009" class="node">
<title>Node9</title>
<g id="a_Node000009"><a xlink:href="unicode_8c.html#a0afb67d1c1182eeb94470d0b12996191" target="_top" xlink:title="Replaces all occurrences of a substring with another string.">
<polygon fill="white" stroke="#666666" points="217,-19 122,-19 122,0 217,0 217,-19"/>
<text text-anchor="middle" x="169.5" y="-7" font-family="Helvetica,sans-Serif" font-size="10.00">utf8_replace_all</text>
</a>
</g>
</g>
<!-- Node1&#45;&gt;Node9 -->
<g id="edge16_Node000001_Node000009" class="edge">
<title>Node1&#45;&gt;Node9</title>
<g id="a_edge16_Node000001_Node000009"><a xlink:title=" ">
<path fill="none" stroke="#63b8ff" d="M298.91,-122.65C279.72,-103.4 246.92,-71.24 217,-45.5 206.16,-36.18 193.27,-26.29 183.82,-19.23"/>
<polygon fill="#63b8ff" stroke="#63b8ff" points="296.5,-125.18 306.02,-129.82 301.47,-120.25 296.5,-125.18"/>
</a>
</g>
</g>
<!-- Node2&#45;&gt;Node2 -->
<g id="edge2_Node000002_Node000002" class="edge">
<title>Node2&#45;&gt;Node2</title>
<g id="a_edge2_Node000002_Node000002"><a xlink:title=" ">
<path fill="none" stroke="#63b8ff" d="M192.83,-287.55C191.27,-292.38 183.5,-296 169.5,-296 147.11,-296 140.63,-286.73 150.08,-278.08"/>
<polygon fill="#63b8ff" stroke="#63b8ff" points="195.97,-285.99 188.92,-278.08 189.5,-288.66 195.97,-285.99"/>
</a>
</g>
</g>
<!-- Node3&#45;&gt;Node3 -->
<g id="edge5_Node000003_Node000003" class="edge">
<title>Node3&#45;&gt;Node3</title>
<g id="a_edge5_Node000003_Node000003"><a xlink:title=" ">
<path fill="none" stroke="#63b8ff" d="M192.83,-232.55C191.27,-237.38 183.5,-241 169.5,-241 147.11,-241 140.63,-231.73 150.08,-223.08"/>
<polygon fill="#63b8ff" stroke="#63b8ff" points="195.97,-230.99 188.92,-223.08 189.5,-233.66 195.97,-230.99"/>
</a>
</g>
</g>
<!-- Node4&#45;&gt;Node4 -->
<g id="edge9_Node000004_Node000004" class="edge">
<title>Node4&#45;&gt;Node4</title>
<g id="a_edge9_Node000004_Node000004"><a xlink:title=" ">
<path fill="none" stroke="#63b8ff" d="M192.83,-177.55C191.27,-182.38 183.5,-186 169.5,-186 147.11,-186 140.63,-176.73 150.08,-168.08"/>
<polygon fill="#63b8ff" stroke="#63b8ff" points="195.97,-175.99 188.92,-168.08 189.5,-178.66 195.97,-175.99"/>
</a>
</g>
</g>
<!-- Node5 -->
<g id="Node000005" class="node">
<title>Node5</title>
<g id="a_Node000005"><a xlink:href="unicode_8c.html#ac66faa2fc9866e1f93c5496603126620" target="_top" xlink:title="Duplicates a utf8_string object.">
<polygon fill="white" stroke="#666666" points="77,-231 9,-231 9,-212 77,-212 77,-231"/>
<text text-anchor="middle" x="43" y="-219" font-family="Helvetica,sans-Serif" font-size="10.00">utf8_clone</text>
</a>
</g>
</g>
<!-- Node4&#45;&gt;Node5 -->
<g id="edge7_Node000004_Node000005" class="edge">
<title>Node4&#45;&gt;Node5</title>
<g id="a_edge7_Node000004_Node000005"><a xlink:title=" ">
<path fill="none" stroke="#63b8ff" d="M143.15,-173.13C127,-182.26 105.51,-194.03 86,-203.5 80.01,-206.41 73.42,-209.35 67.28,-211.98"/>
<polygon fill="#63b8ff" stroke="#63b8ff" points="145.03,-176.09 151.99,-168.1 141.57,-170.01 145.03,-176.09"/>
</a>
</g>
</g>
<!-- Node6 -->
<g id="Node000006" class="node">
<title>Node6</title>
<g id="a_Node000006"><a xlink:href="unicode_8c.html#a08f52fa20afe83951b5486a186f32562" target="_top" xlink:title="Reads a UTF&#45;8 string from a file.">
<polygon fill="white" stroke="#666666" points="86,-176 0,-176 0,-157 86,-157 86,-176"/>
<text text-anchor="middle" x="43" y="-164" font-family="Helvetica,sans-Serif" font-size="10.00">utf8_readfrom</text>
</a>
</g>
</g>
<!-- Node4&#45;&gt;Node6 -->
<g id="edge10_Node000004_Node000006" class="edge">
<title>Node4&#45;&gt;Node6</title>
<g id="a_edge10_Node000004_Node000006"><a xlink:title=" ">
<path fill="none" stroke="#63b8ff" d="M127.99,-161.1C114.58,-161.96 99.62,-162.93 86.09,-163.8"/>
<polygon fill="#63b8ff" stroke="#63b8ff" points="128.61,-164.57 138.36,-160.44 128.16,-157.59 128.61,-164.57"/>
</a>
</g>
</g>
<!-- Node4&#45;&gt;Node7 -->
<g id="edge12_Node000004_Node000007" class="edge">
<title>Node4&#45;&gt;Node7</title>
<g id="a_edge12_Node000004_Node000007"><a xlink:title=" ">
<path fill="none" stroke="#63b8ff" d="M133.76,-145.38C113.4,-137.7 88.12,-128.16 69.58,-121.16"/>
<polygon fill="#63b8ff" stroke="#63b8ff" points="132.71,-148.73 143.31,-148.99 135.19,-142.18 132.71,-148.73"/>
</a>
</g>
</g>
<!-- Node5&#45;&gt;Node5 -->
<g id="edge8_Node000005_Node000005" class="edge">
<title>Node5&#45;&gt;Node5</title>
<g id="a_edge8_Node000005_Node000005"><a xlink:title=" ">
<path fill="none" stroke="#63b8ff" d="M66.33,-240.55C64.77,-245.38 57,-249 43,-249 20.61,-249 14.13,-239.73 23.58,-231.08"/>
<polygon fill="#63b8ff" stroke="#63b8ff" points="69.47,-238.99 62.42,-231.08 63,-241.66 69.47,-238.99"/>
</a>
</g>
</g>
<!-- Node6&#45;&gt;Node6 -->
<g id="edge11_Node000006_Node000006" class="edge">
<title>Node6&#45;&gt;Node6</title>
<g id="a_edge11_Node000006_Node000006"><a xlink:title=" ">
<path fill="none" stroke="#63b8ff" d="M66.33,-185.55C64.77,-190.38 57,-194 43,-194 20.61,-194 14.13,-184.73 23.58,-176.08"/>
<polygon fill="#63b8ff" stroke="#63b8ff" points="69.47,-183.99 62.42,-176.08 63,-186.66 69.47,-183.99"/>
</a>
</g>
</g>
<!-- Node7&#45;&gt;Node7 -->
<g id="edge13_Node000007_Node000007" class="edge">
<title>Node7&#45;&gt;Node7</title>
<g id="a_edge13_Node000007_Node000007"><a xlink:title=" ">
<path fill="none" stroke="#63b8ff" d="M66.33,-130.55C64.77,-135.38 57,-139 43,-139 20.61,-139 14.13,-129.73 23.58,-121.08"/>
<polygon fill="#63b8ff" stroke="#63b8ff" points="69.47,-128.99 62.42,-121.08 63,-131.66 69.47,-128.99"/>
</a>
</g>
</g>
<!-- Node8&#45;&gt;Node8 -->
<g id="edge15_Node000008_Node000008" class="edge">
<title>Node8&#45;&gt;Node8</title>
<g id="a_edge15_Node000008_Node000008"><a xlink:title=" ">
<path fill="none" stroke="#63b8ff" d="M192.83,-83.55C191.27,-88.38 183.5,-92 169.5,-92 147.11,-92 140.63,-82.73 150.08,-74.08"/>
<polygon fill="#63b8ff" stroke="#63b8ff" points="195.97,-81.99 188.92,-74.08 189.5,-84.66 195.97,-81.99"/>
</a>
</g>
</g>
<!-- Node9&#45;&gt;Node9 -->
<g id="edge17_Node000009_Node000009" class="edge">
<title>Node9&#45;&gt;Node9</title>
<g id="a_edge17_Node000009_Node000009"><a xlink:title=" ">
<path fill="none" stroke="#63b8ff" d="M192.83,-28.55C191.27,-33.38 183.5,-37 169.5,-37 147.11,-37 140.63,-27.73 150.08,-19.08"/>
<polygon fill="#63b8ff" stroke="#63b8ff" points="195.97,-26.99 188.92,-19.08 189.5,-29.66 195.97,-26.99"/>
</a>
</g>
</g>
</g>
</svg>
</svg>

<style type='text/css'>
<![CDATA[
[data-mouse-over-selected='false'] { opacity: 0.7; }
[data-mouse-over-selected='true']  { opacity: 1.0; }
]]>
</style>
<script type="application/ecmascript"><![CDATA[
document.addEventListener('DOMContentLoaded', (event) => {
  highlightEdges();
  highlightAdjacentNodes();
});
]]></script>
</svg>
