<?xml version="1.0" encoding="UTF-8" standalone="no"?>
<!DOCTYPE svg PUBLIC "-//W3C//DTD SVG 1.1//EN"
 "http://www.w3.org/Graphics/SVG/1.1/DTD/svg11.dtd">
<!-- Generated by graphviz version 2.43.0 (0)
 -->
<!-- Title: utf8_trim_chars Pages: 1 -->
<svg width="241pt" height="100pt"
 viewBox="0.00 0.00 241.00 100.00" xmlns="http://www.w3.org/2000/svg" xmlns:xlink="http://www.w3.org/1999/xlink">
<g id="graph0" class="graph" transform="scale(1 1) rotate(0) translate(4 96)">
<title>utf8_trim_chars</title>
<!-- Node1 -->
<g id="Node000001" class="node">
<title>Node1</title>
<g id="a_Node000001"><a xlink:title="Removes leading and trailing characters from a UTF&#45;8 string in&#45;place.">
<polygon fill="#999999" stroke="#666666" points="93,-46 0,-46 0,-27 93,-27 93,-46"/>
<text text-anchor="middle" x="46.5" y="-34" font-family="Helvetica,sans-Serif" font-size="10.00">utf8_trim_chars</text>
</a>
</g>
</g>
<!-- Node1&#45;&gt;Node1 -->
<g id="edge5_Node000001_Node000001" class="edge">
<title>Node1&#45;&gt;Node1</title>
<g id="a_edge5_Node000001_Node000001"><a xlink:title=" ">
<path fill="none" stroke="#63b8ff" d="M25.85,-46.08C15.8,-54.73 22.68,-64 46.5,-64 61.76,-64 70.07,-60.2 71.43,-55.19"/>
<polygon fill="#63b8ff" stroke="#63b8ff" points="74.57,-53.65 67.15,-46.08 68.23,-56.62 74.57,-53.65"/>
</a>
</g>
</g>
<!-- Node2 -->
<g id="Node000002" class="node">
<title>Node2</title>
<g id="a_Node000002"><a xlink:href="unicode_8c.html#aadba4a5c759cfb7674c3dfe42351e952" target="_top" xlink:title="Determines the byte length of a UTF&#45;8 character from its first byte.">
<polygon fill="white" stroke="#666666" points="230,-74 132,-74 132,-55 230,-55 230,-74"/>
<text text-anchor="middle" x="181" y="-62" font-family="Helvetica,sans-Serif" font-size="10.00">utf8_char_length</text>
</a>
</g>
</g>
<!-- Node1&#45;&gt;Node2 -->
<g id="edge1_Node000001_Node000002" class="edge">
<title>Node1&#45;&gt;Node2</title>
<g id="a_edge1_Node000001_Node000002"><a xlink:title=" ">
<path fill="none" stroke="#63b8ff" d="M92.73,-46.06C103.07,-48.24 114.17,-50.59 124.87,-52.85"/>
<polygon fill="#63b8ff" stroke="#63b8ff" points="124.47,-56.34 134.98,-54.99 125.92,-49.49 124.47,-56.34"/>
</a>
</g>
</g>
<!-- Node3 -->
<g id="Node000003" class="node">
<title>Node3</title>
<g id="a_Node000003"><a xlink:href="unicode_8c.html#a0075f88c12df63dda852af0ff5c41f92" target="_top" xlink:title="Decodes a UTF&#45;8 byte sequence to its Unicode codepoint.">
<polygon fill="white" stroke="#666666" points="233,-19 129,-19 129,0 233,0 233,-19"/>
<text text-anchor="middle" x="181" y="-7" font-family="Helvetica,sans-Serif" font-size="10.00">utf8_to_codepoint</text>
</a>
</g>
</g>
<!-- Node1&#45;&gt;Node3 -->
<g id="edge3_Node000001_Node000003" class="edge">
<title>Node1&#45;&gt;Node3</title>
<g id="a_edge3_Node000001_Node000003"><a xlink:title=" ">
<path fill="none" stroke="#63b8ff" d="M93.1,-27.21C102.76,-25.24 113.06,-23.14 123.08,-21.1"/>
<polygon fill="#63b8ff" stroke="#63b8ff" points="123.87,-24.51 132.96,-19.08 122.47,-17.65 123.87,-24.51"/>
</a>
</g>
</g>
<!-- Node2&#45;&gt;Node2 -->
<g id="edge2_Node000002_Node000002" class="edge">
<title>Node2&#45;&gt;Node2</title>
<g id="a_edge2_Node000002_Node000002"><a xlink:title=" ">
<path fill="none" stroke="#63b8ff" d="M160.35,-74.08C150.3,-82.73 157.18,-92 181,-92 196.26,-92 204.57,-88.2 205.93,-83.19"/>
<polygon fill="#63b8ff" stroke="#63b8ff" points="209.07,-81.65 201.65,-74.08 202.73,-84.62 209.07,-81.65"/>
</a>
</g>
</g>
<!-- Node3&#45;&gt;Node3 -->
<g id="edge4_Node000003_Node000003" class="edge">
<title>Node3&#45;&gt;Node3</title>
<g id="a_edge4_Node000003_Node000003"><a xlink:title=" ">
<path fill="none" stroke="#63b8ff" d="M160.35,-19.08C150.3,-27.73 157.18,-37 181,-37 196.26,-37 204.57,-33.2 205.93,-28.19"/>
<polygon fill="#63b8ff" stroke="#63b8ff" points="209.07,-26.65 201.65,-19.08 202.73,-29.62 209.07,-26.65"/>
</a>
</g>
</g>
</g>
</svg>
