<?xml version="1.0" encoding="UTF-8" standalone="no"?>
<!DOCTYPE svg PUBLIC "-//W3C//DTD SVG 1.1//EN"
 "http://www.w3.org/Graphics/SVG/1.1/DTD/svg11.dtd">
<!-- Generated by graphviz version 2.43.0 (0)
 -->
<!-- Title: utf8_new_with_capacity Pages: 1 -->
<svg width="256pt" height="64pt"
 viewBox="0.00 0.00 256.00 64.00" xmlns="http://www.w3.org/2000/svg" xmlns:xlink="http://www.w3.org/1999/xlink">
<g id="graph0" class="graph" transform="scale(1 1) rotate(0) translate(4 60)">
<title>utf8_new_with_capacity</title>
<!-- Node1 -->
<g id="Node000001" class="node">
<title>Node1</title>
<g id="a_Node000001"><a xlink:title="Creates an empty utf8_string with preallocated capacity.">
<polygon fill="#999999" stroke="#666666" points="248,-37 114,-37 114,-18 248,-18 248,-37"/>
<text text-anchor="middle" x="181" y="-25" font-family="Helvetica,sans-Serif" font-size="10.00">utf8_new_with_capacity</text>
</a>
</g>
</g>
<!-- Node2 -->
<g id="Node000002" class="node">
<title>Node2</title>
<g id="a_Node000002"><a xlink:href="unicode_8c.html#a13e8dd40708ab2b37cde823ad9d7faf7" target="_top" xlink:title="Concatenates two utf8_string objects into a new string.">
<polygon fill="white" stroke="#666666" points="76,-56 2,-56 2,-37 76,-37 76,-56"/>
<text text-anchor="middle" x="39" y="-44" font-family="Helvetica,sans-Serif" font-size="10.00">utf8_concat</text>
</a>
</g>
</g>
<!-- Node1&#45;&gt;Node2 -->
<g id="edge1_Node000001_Node000002" class="edge">
<title>Node1&#45;&gt;Node2</title>
<g id="a_edge1_Node000001_Node000002"><a xlink:title=" ">
<path fill="none" stroke="#63b8ff" d="M103.74,-37.85C94.21,-39.14 84.84,-40.41 76.35,-41.57"/>
<polygon fill="#63b8ff" stroke="#63b8ff" points="104.25,-41.31 113.69,-36.5 103.31,-34.38 104.25,-41.31"/>
</a>
</g>
</g>
<!-- Node3 -->
<g id="Node000003" class="node">
<title>Node3</title>
<g id="a_Node000003"><a xlink:href="unicode_8c.html#acefe22dc4e8ecc7cdf5748382c0ee2be" target="_top" xlink:title="Reverses a UTF&#45;8 string by codepoints.">
<polygon fill="white" stroke="#666666" points="78,-19 0,-19 0,0 78,0 78,-19"/>
<text text-anchor="middle" x="39" y="-7" font-family="Helvetica,sans-Serif" font-size="10.00">utf8_reverse</text>
</a>
</g>
</g>
<!-- Node1&#45;&gt;Node3 -->
<g id="edge2_Node000001_Node000003" class="edge">
<title>Node1&#45;&gt;Node3</title>
<g id="a_edge2_Node000001_Node000003"><a xlink:title=" ">
<path fill="none" stroke="#63b8ff" d="M103.71,-17.69C94.9,-16.56 86.23,-15.44 78.25,-14.42"/>
<polygon fill="#63b8ff" stroke="#63b8ff" points="103.33,-21.17 113.69,-18.97 104.22,-14.23 103.33,-21.17"/>
</a>
</g>
</g>
</g>
</svg>
