<?xml version="1.0" encoding="UTF-8" standalone="no"?>
<!DOCTYPE svg PUBLIC "-//W3C//DTD SVG 1.1//EN"
 "http://www.w3.org/Graphics/SVG/1.1/DTD/svg11.dtd">
<!-- Generated by graphviz version 2.43.0 (0)
 -->
<!-- Title: utf8_to_codepoint Pages: 1 -->
<svg width="469pt" height="485pt"
 viewBox="0.00 0.00 469.00 485.00" xmlns="http://www.w3.org/2000/svg" xmlns:xlink="http://www.w3.org/1999/xlink">
<g id="graph0" class="graph" transform="scale(1 1) rotate(0) translate(4 481)">
<title>utf8_to_codepoint</title>
<!-- Node1 -->
<g id="Node000001" class="node">
<title>Node1</title>
<g id="a_Node000001"><a xlink:title="Decodes a UTF&#45;8 byte sequence to its Unicode codepoint.">
<polygon fill="#999999" stroke="#666666" points="461,-239 357,-239 357,-220 461,-220 461,-239"/>
<text text-anchor="middle" x="409" y="-227" font-family="Helvetica,sans-Serif" font-size="10.00">utf8_to_codepoint</text>
</a>
</g>
</g>
<!-- Node1&#45;&gt;Node1 -->
<g id="edge20_Node000001_Node000001" class="edge">
<title>Node1&#45;&gt;Node1</title>
<g id="a_edge20_Node000001_Node000001"><a xlink:title=" ">
<path fill="none" stroke="#63b8ff" d="M436.53,-248.19C435.03,-253.2 425.85,-257 409,-257 382.7,-257 375.09,-247.73 386.19,-239.08"/>
<polygon fill="#63b8ff" stroke="#63b8ff" points="439.52,-246.35 431.81,-239.08 433.3,-249.57 439.52,-246.35"/>
</a>
</g>
</g>
<!-- Node2 -->
<g id="Node000002" class="node">
<title>Node2</title>
<g id="a_Node000002"><a xlink:href="unicode_8c.html#a650f29191e8178a5a2124648f76c9d6f" target="_top" xlink:title="Checks if a UTF&#45;8 character represents an alphanumeric character.">
<polygon fill="white" stroke="#666666" points="303,-459 217,-459 217,-440 303,-440 303,-459"/>
<text text-anchor="middle" x="260" y="-447" font-family="Helvetica,sans-Serif" font-size="10.00">is_utf8_alnum</text>
</a>
</g>
</g>
<!-- Node1&#45;&gt;Node2 -->
<g id="edge1_Node000001_Node000002" class="edge">
<title>Node1&#45;&gt;Node2</title>
<g id="a_edge1_Node000001_Node000002"><a xlink:title=" ">
<path fill="none" stroke="#63b8ff" d="M405.17,-249.06C398.3,-289.26 377.03,-381.58 321,-431.5 315.88,-436.06 309.65,-439.46 303.16,-442.01"/>
<polygon fill="#63b8ff" stroke="#63b8ff" points="408.62,-249.61 406.74,-239.18 401.71,-248.51 408.62,-249.61"/>
</a>
</g>
</g>
<!-- Node3 -->
<g id="Node000003" class="node">
<title>Node3</title>
<g id="a_Node000003"><a xlink:href="unicode_8c.html#af2018e35eb3e3d76cc29c597ed141943" target="_top" xlink:title="Checks if a UTF&#45;8 character represents an alphabetic character.">
<polygon fill="white" stroke="#666666" points="301,-404 219,-404 219,-385 301,-385 301,-404"/>
<text text-anchor="middle" x="260" y="-392" font-family="Helvetica,sans-Serif" font-size="10.00">is_utf8_alpha</text>
</a>
</g>
</g>
<!-- Node1&#45;&gt;Node3 -->
<g id="edge3_Node000001_Node000003" class="edge">
<title>Node1&#45;&gt;Node3</title>
<g id="a_edge3_Node000001_Node000003"><a xlink:title=" ">
<path fill="none" stroke="#63b8ff" d="M401.8,-248.81C390.7,-280.27 364.46,-342.5 321,-376.5 315.18,-381.06 308.21,-384.46 301.13,-387.01"/>
<polygon fill="#63b8ff" stroke="#63b8ff" points="405.21,-249.65 405.09,-239.06 398.58,-247.41 405.21,-249.65"/>
</a>
</g>
</g>
<!-- Node4 -->
<g id="Node000004" class="node">
<title>Node4</title>
<g id="a_Node000004"><a xlink:href="unicode_8c.html#a0bb308da5e4e999b234bbb2111cdae90" target="_top" xlink:title="Checks if a UTF&#45;8 character represents a digit.">
<polygon fill="white" stroke="#666666" points="298.5,-349 221.5,-349 221.5,-330 298.5,-330 298.5,-349"/>
<text text-anchor="middle" x="260" y="-337" font-family="Helvetica,sans-Serif" font-size="10.00">is_utf8_digit</text>
</a>
</g>
</g>
<!-- Node1&#45;&gt;Node4 -->
<g id="edge5_Node000001_Node000004" class="edge">
<title>Node1&#45;&gt;Node4</title>
<g id="a_edge5_Node000001_Node000004"><a xlink:title=" ">
<path fill="none" stroke="#63b8ff" d="M395.64,-247.4C380.41,-268.16 352.62,-302.01 321,-321.5 314.24,-325.67 306.46,-328.92 298.79,-331.44"/>
<polygon fill="#63b8ff" stroke="#63b8ff" points="398.58,-249.31 401.55,-239.14 392.89,-245.24 398.58,-249.31"/>
</a>
</g>
</g>
<!-- Node5 -->
<g id="Node000005" class="node">
<title>Node5</title>
<g id="a_Node000005"><a xlink:href="unicode_8c.html#a4b4875bd66dffc4433e6bbbb23542a85" target="_top" xlink:title="Checks if a UTF&#45;8 character represents a punctuation character.">
<polygon fill="white" stroke="#666666" points="301,-294 219,-294 219,-275 301,-275 301,-294"/>
<text text-anchor="middle" x="260" y="-282" font-family="Helvetica,sans-Serif" font-size="10.00">is_utf8_punct</text>
</a>
</g>
</g>
<!-- Node1&#45;&gt;Node5 -->
<g id="edge7_Node000001_Node000005" class="edge">
<title>Node1&#45;&gt;Node5</title>
<g id="a_edge7_Node000001_Node000005"><a xlink:title=" ">
<path fill="none" stroke="#63b8ff" d="M377.95,-243.25C361.34,-250.61 340.23,-259.55 321,-266.5 312.72,-269.49 303.67,-272.4 295.17,-274.96"/>
<polygon fill="#63b8ff" stroke="#63b8ff" points="379.46,-246.41 387.16,-239.13 376.61,-240.02 379.46,-246.41"/>
</a>
</g>
</g>
<!-- Node6 -->
<g id="Node000006" class="node">
<title>Node6</title>
<g id="a_Node000006"><a xlink:href="unicode_8c.html#ad7d24e5bc418ae563b5afc21c6898e10" target="_top" xlink:title="Checks if a UTF&#45;8 character represents whitespace.">
<polygon fill="white" stroke="#666666" points="315,-239 205,-239 205,-220 315,-220 315,-239"/>
<text text-anchor="middle" x="260" y="-227" font-family="Helvetica,sans-Serif" font-size="10.00">is_utf8_whitespace</text>
</a>
</g>
</g>
<!-- Node1&#45;&gt;Node6 -->
<g id="edge9_Node000001_Node000006" class="edge">
<title>Node1&#45;&gt;Node6</title>
<g id="a_edge9_Node000001_Node000006"><a xlink:title=" ">
<path fill="none" stroke="#63b8ff" d="M346.68,-229.5C336.22,-229.5 325.42,-229.5 315.16,-229.5"/>
<polygon fill="#63b8ff" stroke="#63b8ff" points="347,-233 357,-229.5 347,-226 347,-233"/>
</a>
</g>
</g>
<!-- Node10 -->
<g id="Node000010" class="node">
<title>Node10</title>
<g id="a_Node000010"><a xlink:href="unicode_8c.html#afec2f1cc66175b8c06fb77db9ebc6f17" target="_top" xlink:title="Prints the Unicode codepoints in U+XXXX format to stdout.">
<polygon fill="white" stroke="#666666" points="321,-184 199,-184 199,-165 321,-165 321,-184"/>
<text text-anchor="middle" x="260" y="-172" font-family="Helvetica,sans-Serif" font-size="10.00">utf8_print_codepoints</text>
</a>
</g>
</g>
<!-- Node1&#45;&gt;Node10 -->
<g id="edge18_Node000001_Node000010" class="edge">
<title>Node1&#45;&gt;Node10</title>
<g id="a_edge18_Node000001_Node000010"><a xlink:title=" ">
<path fill="none" stroke="#63b8ff" d="M372.74,-216.31C346.28,-206.41 310.65,-193.08 286.81,-184.16"/>
<polygon fill="#63b8ff" stroke="#63b8ff" points="371.8,-219.69 382.39,-219.92 374.26,-213.14 371.8,-219.69"/>
</a>
</g>
</g>
<!-- Node11 -->
<g id="Node000011" class="node">
<title>Node11</title>
<g id="a_Node000011"><a xlink:href="unicode_8c.html#ae3f31481d188b5fbe03ca760b031677b" target="_top" xlink:title="Converts all uppercase characters to lowercase in&#45;place.">
<polygon fill="white" stroke="#666666" points="299,-129 221,-129 221,-110 299,-110 299,-129"/>
<text text-anchor="middle" x="260" y="-117" font-family="Helvetica,sans-Serif" font-size="10.00">utf8_tolower</text>
</a>
</g>
</g>
<!-- Node1&#45;&gt;Node11 -->
<g id="edge21_Node000001_Node000011" class="edge">
<title>Node1&#45;&gt;Node11</title>
<g id="a_edge21_Node000001_Node000011"><a xlink:title=" ">
<path fill="none" stroke="#63b8ff" d="M390.1,-213.15C372.93,-197.8 346,-174.55 321,-156.5 307.01,-146.4 290.23,-136.2 277.98,-129.08"/>
<polygon fill="#63b8ff" stroke="#63b8ff" points="387.92,-215.9 397.69,-219.99 392.6,-210.7 387.92,-215.9"/>
</a>
</g>
</g>
<!-- Node12 -->
<g id="Node000012" class="node">
<title>Node12</title>
<g id="a_Node000012"><a xlink:href="unicode_8c.html#a0695d31239b48bbee503c9191bdfc627" target="_top" xlink:title="Converts all lowercase characters to uppercase in&#45;place.">
<polygon fill="white" stroke="#666666" points="299.5,-74 220.5,-74 220.5,-55 299.5,-55 299.5,-74"/>
<text text-anchor="middle" x="260" y="-62" font-family="Helvetica,sans-Serif" font-size="10.00">utf8_toupper</text>
</a>
</g>
</g>
<!-- Node1&#45;&gt;Node12 -->
<g id="edge23_Node000001_Node000012" class="edge">
<title>Node1&#45;&gt;Node12</title>
<g id="a_edge23_Node000001_Node000012"><a xlink:title=" ">
<path fill="none" stroke="#63b8ff" d="M398.58,-210.8C384.48,-184.14 355.78,-134.77 321,-101.5 309.24,-90.25 293.5,-80.7 281.1,-74.12"/>
<polygon fill="#63b8ff" stroke="#63b8ff" points="395.55,-212.55 403.26,-219.82 401.77,-209.34 395.55,-212.55"/>
</a>
</g>
</g>
<!-- Node13 -->
<g id="Node000013" class="node">
<title>Node13</title>
<g id="a_Node000013"><a xlink:href="unicode_8c.html#afec6fd3b06a385932c453e975a34d3ce" target="_top" xlink:title="Removes leading and trailing characters from a UTF&#45;8 string in&#45;place.">
<polygon fill="white" stroke="#666666" points="306.5,-19 213.5,-19 213.5,0 306.5,0 306.5,-19"/>
<text text-anchor="middle" x="260" y="-7" font-family="Helvetica,sans-Serif" font-size="10.00">utf8_trim_chars</text>
</a>
</g>
</g>
<!-- Node1&#45;&gt;Node13 -->
<g id="edge25_Node000001_Node000013" class="edge">
<title>Node1&#45;&gt;Node13</title>
<g id="a_edge25_Node000001_Node000013"><a xlink:title=" ">
<path fill="none" stroke="#63b8ff" d="M402.73,-209.9C392.27,-173.95 365.91,-96.58 321,-46.5 310.46,-34.75 295.31,-25.44 282.87,-19.11"/>
<polygon fill="#63b8ff" stroke="#63b8ff" points="399.4,-210.97 405.47,-219.65 406.14,-209.07 399.4,-210.97"/>
</a>
</g>
</g>
<!-- Node2&#45;&gt;Node2 -->
<g id="edge2_Node000002_Node000002" class="edge">
<title>Node2&#45;&gt;Node2</title>
<g id="a_edge2_Node000002_Node000002"><a xlink:title=" ">
<path fill="none" stroke="#63b8ff" d="M283.7,-468.55C282.12,-473.38 274.22,-477 260,-477 237.25,-477 230.67,-467.73 240.27,-459.08"/>
<polygon fill="#63b8ff" stroke="#63b8ff" points="286.83,-466.95 279.73,-459.08 280.37,-469.66 286.83,-466.95"/>
</a>
</g>
</g>
<!-- Node3&#45;&gt;Node3 -->
<g id="edge4_Node000003_Node000003" class="edge">
<title>Node3&#45;&gt;Node3</title>
<g id="a_edge4_Node000003_Node000003"><a xlink:title=" ">
<path fill="none" stroke="#63b8ff" d="M283.7,-413.55C282.12,-418.38 274.22,-422 260,-422 237.25,-422 230.67,-412.73 240.27,-404.08"/>
<polygon fill="#63b8ff" stroke="#63b8ff" points="286.83,-411.95 279.73,-404.08 280.37,-414.66 286.83,-411.95"/>
</a>
</g>
</g>
<!-- Node4&#45;&gt;Node4 -->
<g id="edge6_Node000004_Node000004" class="edge">
<title>Node4&#45;&gt;Node4</title>
<g id="a_edge6_Node000004_Node000004"><a xlink:title=" ">
<path fill="none" stroke="#63b8ff" d="M283.7,-358.55C282.12,-363.38 274.22,-367 260,-367 237.25,-367 230.67,-357.73 240.27,-349.08"/>
<polygon fill="#63b8ff" stroke="#63b8ff" points="286.83,-356.95 279.73,-349.08 280.37,-359.66 286.83,-356.95"/>
</a>
</g>
</g>
<!-- Node5&#45;&gt;Node5 -->
<g id="edge8_Node000005_Node000005" class="edge">
<title>Node5&#45;&gt;Node5</title>
<g id="a_edge8_Node000005_Node000005"><a xlink:title=" ">
<path fill="none" stroke="#63b8ff" d="M283.7,-303.55C282.12,-308.38 274.22,-312 260,-312 237.25,-312 230.67,-302.73 240.27,-294.08"/>
<polygon fill="#63b8ff" stroke="#63b8ff" points="286.83,-301.95 279.73,-294.08 280.37,-304.66 286.83,-301.95"/>
</a>
</g>
</g>
<!-- Node6&#45;&gt;Node6 -->
<g id="edge10_Node000006_Node000006" class="edge">
<title>Node6&#45;&gt;Node6</title>
<g id="a_edge10_Node000006_Node000006"><a xlink:title=" ">
<path fill="none" stroke="#63b8ff" d="M283.7,-248.55C282.12,-253.38 274.22,-257 260,-257 237.25,-257 230.67,-247.73 240.27,-239.08"/>
<polygon fill="#63b8ff" stroke="#63b8ff" points="286.83,-246.95 279.73,-239.08 280.37,-249.66 286.83,-246.95"/>
</a>
</g>
</g>
<!-- Node7 -->
<g id="Node000007" class="node">
<title>Node7</title>
<g id="a_Node000007"><a xlink:href="unicode_8c.html#a358a6ddb4231f045fa1996354bb69b56" target="_top" xlink:title="Removes leading whitespace from a UTF&#45;8 string in&#45;place.">
<polygon fill="white" stroke="#666666" points="163,-266 98,-266 98,-247 163,-247 163,-266"/>
<text text-anchor="middle" x="130.5" y="-254" font-family="Helvetica,sans-Serif" font-size="10.00">utf8_ltrim</text>
</a>
</g>
</g>
<!-- Node6&#45;&gt;Node7 -->
<g id="edge11_Node000006_Node000007" class="edge">
<title>Node6&#45;&gt;Node7</title>
<g id="a_edge11_Node000006_Node000007"><a xlink:title=" ">
<path fill="none" stroke="#63b8ff" d="M204.04,-241.14C190.1,-244.09 175.59,-247.16 163.24,-249.78"/>
<polygon fill="#63b8ff" stroke="#63b8ff" points="204.99,-244.52 214.05,-239.02 203.54,-237.67 204.99,-244.52"/>
</a>
</g>
</g>
<!-- Node9 -->
<g id="Node000009" class="node">
<title>Node9</title>
<g id="a_Node000009"><a xlink:href="unicode_8c.html#a673ecb04bcd3fc52c6222a67233a8ce1" target="_top" xlink:title="Removes trailing whitespace from a UTF&#45;8 string in&#45;place.">
<polygon fill="white" stroke="#666666" points="163,-211 98,-211 98,-192 163,-192 163,-211"/>
<text text-anchor="middle" x="130.5" y="-199" font-family="Helvetica,sans-Serif" font-size="10.00">utf8_rtrim</text>
</a>
</g>
</g>
<!-- Node6&#45;&gt;Node9 -->
<g id="edge15_Node000006_Node000009" class="edge">
<title>Node6&#45;&gt;Node9</title>
<g id="a_edge15_Node000006_Node000009"><a xlink:title=" ">
<path fill="none" stroke="#63b8ff" d="M205.63,-217.78C191.18,-214.61 175.99,-211.27 163.16,-208.45"/>
<polygon fill="#63b8ff" stroke="#63b8ff" points="204.96,-221.22 215.48,-219.94 206.46,-214.38 204.96,-221.22"/>
</a>
</g>
</g>
<!-- Node7&#45;&gt;Node7 -->
<g id="edge12_Node000007_Node000007" class="edge">
<title>Node7&#45;&gt;Node7</title>
<g id="a_edge12_Node000007_Node000007"><a xlink:title=" ">
<path fill="none" stroke="#63b8ff" d="M148.55,-275.91C147.13,-280.56 141.11,-284 130.5,-284 113.08,-284 108.05,-274.73 115.4,-266.08"/>
<polygon fill="#63b8ff" stroke="#63b8ff" points="151.83,-274.66 145.6,-266.08 145.12,-276.67 151.83,-274.66"/>
</a>
</g>
</g>
<!-- Node8 -->
<g id="Node000008" class="node">
<title>Node8</title>
<g id="a_Node000008"><a xlink:href="unicode_8c.html#a8ec9a3447456e99105106536e4dfe39a" target="_top" xlink:title="Removes leading and trailing whitespace from a UTF&#45;8 string in&#45;place.">
<polygon fill="white" stroke="#666666" points="62,-238 0,-238 0,-219 62,-219 62,-238"/>
<text text-anchor="middle" x="31" y="-226" font-family="Helvetica,sans-Serif" font-size="10.00">utf8_trim</text>
</a>
</g>
</g>
<!-- Node7&#45;&gt;Node8 -->
<g id="edge13_Node000007_Node000008" class="edge">
<title>Node7&#45;&gt;Node8</title>
<g id="a_edge13_Node000007_Node000008"><a xlink:title=" ">
<path fill="none" stroke="#63b8ff" d="M88.19,-244.64C79.46,-242.13 70.4,-239.53 62.17,-237.16"/>
<polygon fill="#63b8ff" stroke="#63b8ff" points="87.27,-248.01 97.84,-247.41 89.2,-241.28 87.27,-248.01"/>
</a>
</g>
</g>
<!-- Node8&#45;&gt;Node8 -->
<g id="edge14_Node000008_Node000008" class="edge">
<title>Node8&#45;&gt;Node8</title>
<g id="a_edge14_Node000008_Node000008"><a xlink:title=" ">
<path fill="none" stroke="#63b8ff" d="M49.05,-247.91C47.63,-252.56 41.61,-256 31,-256 13.58,-256 8.55,-246.73 15.9,-238.08"/>
<polygon fill="#63b8ff" stroke="#63b8ff" points="52.33,-246.66 46.1,-238.08 45.62,-248.67 52.33,-246.66"/>
</a>
</g>
</g>
<!-- Node9&#45;&gt;Node8 -->
<g id="edge17_Node000009_Node000008" class="edge">
<title>Node9&#45;&gt;Node8</title>
<g id="a_edge17_Node000009_Node000008"><a xlink:title=" ">
<path fill="none" stroke="#63b8ff" d="M88.19,-212.94C79.46,-215.36 70.4,-217.87 62.17,-220.15"/>
<polygon fill="#63b8ff" stroke="#63b8ff" points="89.14,-216.31 97.84,-210.27 87.27,-209.56 89.14,-216.31"/>
</a>
</g>
</g>
<!-- Node9&#45;&gt;Node9 -->
<g id="edge16_Node000009_Node000009" class="edge">
<title>Node9&#45;&gt;Node9</title>
<g id="a_edge16_Node000009_Node000009"><a xlink:title=" ">
<path fill="none" stroke="#63b8ff" d="M148.55,-220.91C147.13,-225.56 141.11,-229 130.5,-229 113.08,-229 108.05,-219.73 115.4,-211.08"/>
<polygon fill="#63b8ff" stroke="#63b8ff" points="151.83,-219.66 145.6,-211.08 145.12,-221.67 151.83,-219.66"/>
</a>
</g>
</g>
<!-- Node10&#45;&gt;Node10 -->
<g id="edge19_Node000010_Node000010" class="edge">
<title>Node10&#45;&gt;Node10</title>
<g id="a_edge19_Node000010_Node000010"><a xlink:title=" ">
<path fill="none" stroke="#63b8ff" d="M283.7,-193.55C282.12,-198.38 274.22,-202 260,-202 237.25,-202 230.67,-192.73 240.27,-184.08"/>
<polygon fill="#63b8ff" stroke="#63b8ff" points="286.83,-191.95 279.73,-184.08 280.37,-194.66 286.83,-191.95"/>
</a>
</g>
</g>
<!-- Node11&#45;&gt;Node11 -->
<g id="edge22_Node000011_Node000011" class="edge">
<title>Node11&#45;&gt;Node11</title>
<g id="a_edge22_Node000011_Node000011"><a xlink:title=" ">
<path fill="none" stroke="#63b8ff" d="M283.7,-138.55C282.12,-143.38 274.22,-147 260,-147 237.25,-147 230.67,-137.73 240.27,-129.08"/>
<polygon fill="#63b8ff" stroke="#63b8ff" points="286.83,-136.95 279.73,-129.08 280.37,-139.66 286.83,-136.95"/>
</a>
</g>
</g>
<!-- Node12&#45;&gt;Node12 -->
<g id="edge24_Node000012_Node000012" class="edge">
<title>Node12&#45;&gt;Node12</title>
<g id="a_edge24_Node000012_Node000012"><a xlink:title=" ">
<path fill="none" stroke="#63b8ff" d="M283.7,-83.55C282.12,-88.38 274.22,-92 260,-92 237.25,-92 230.67,-82.73 240.27,-74.08"/>
<polygon fill="#63b8ff" stroke="#63b8ff" points="286.83,-81.95 279.73,-74.08 280.37,-84.66 286.83,-81.95"/>
</a>
</g>
</g>
<!-- Node13&#45;&gt;Node13 -->
<g id="edge26_Node000013_Node000013" class="edge">
<title>Node13&#45;&gt;Node13</title>
<g id="a_edge26_Node000013_Node000013"><a xlink:title=" ">
<path fill="none" stroke="#63b8ff" d="M283.7,-28.55C282.12,-33.38 274.22,-37 260,-37 237.25,-37 230.67,-27.73 240.27,-19.08"/>
<polygon fill="#63b8ff" stroke="#63b8ff" points="286.83,-26.95 279.73,-19.08 280.37,-29.66 286.83,-26.95"/>
</a>
</g>
</g>
</g>
</svg>
