<?xml version="1.0" encoding="UTF-8" standalone="no"?>
<!DOCTYPE svg PUBLIC "-//W3C//DTD SVG 1.1//EN"
 "http://www.w3.org/Graphics/SVG/1.1/DTD/svg11.dtd">
<!-- Generated by graphviz version 2.43.0 (0)
 -->
<!-- Title: utf8_clone Pages: 1 -->
<svg width="498pt" height="139pt"
 viewBox="0.00 0.00 498.00 139.00" xmlns="http://www.w3.org/2000/svg" xmlns:xlink="http://www.w3.org/1999/xlink">

<svg id="main" version="1.1" xmlns="http://www.w3.org/2000/svg" xmlns:xlink="http://www.w3.org/1999/xlink" xml:space="preserve" onload="init(evt)">
<style type="text/css"><![CDATA[
.node, .edge {opacity: 0.7;}
.node.selected, .edge.selected {opacity: 1;}
.edge:hover path { stroke: red; }
.edge:hover polygon { stroke: red; fill: red; }
]]></style>
<script type="application/ecmascript" xlink:href="svg.min.js"/>
<svg id="graph" class="graph">
<g id="graph0" class="graph" transform="scale(1 1) rotate(0) translate(4 135)">
<title>utf8_clone</title>
<!-- Node1 -->
<g id="Node000001" class="node">
<title>Node1</title>
<g id="a_Node000001"><a xlink:title="Duplicates a utf8_string object.">
<polygon fill="#999999" stroke="#666666" points="68,-75 0,-75 0,-56 68,-56 68,-75"/>
<text text-anchor="middle" x="34" y="-63" font-family="Helvetica,sans-Serif" font-size="10.00">utf8_clone</text>
</a>
</g>
</g>
<!-- Node1&#45;&gt;Node1 -->
<g id="edge1_Node000001_Node000001" class="edge">
<title>Node1&#45;&gt;Node1</title>
<g id="a_edge1_Node000001_Node000001"><a xlink:title=" ">
<path fill="none" stroke="#63b8ff" d="M18.59,-75.08C11.09,-83.73 16.23,-93 34,-93 44.83,-93 50.97,-89.56 52.42,-84.91"/>
<polygon fill="#63b8ff" stroke="#63b8ff" points="55.68,-83.62 49.41,-75.08 48.99,-85.67 55.68,-83.62"/>
</a>
</g>
</g>
<!-- Node2 -->
<g id="Node000002" class="node">
<title>Node2</title>
<g id="a_Node000002"><a xlink:href="unicode_8c.html#ac8dd740b9cf9558c3b5bd89f91857d08" target="_top" xlink:title="Creates a new utf8_string object from a C string.">
<polygon fill="white" stroke="#666666" points="166,-75 104,-75 104,-56 166,-56 166,-75"/>
<text text-anchor="middle" x="135" y="-63" font-family="Helvetica,sans-Serif" font-size="10.00">utf8_new</text>
</a>
</g>
</g>
<!-- Node1&#45;&gt;Node2 -->
<g id="edge2_Node000001_Node000002" class="edge">
<title>Node1&#45;&gt;Node2</title>
<g id="a_edge2_Node000001_Node000002"><a xlink:title=" ">
<path fill="none" stroke="#63b8ff" d="M68.24,-65.5C76.39,-65.5 85.2,-65.5 93.64,-65.5"/>
<polygon fill="#63b8ff" stroke="#63b8ff" points="93.68,-69 103.68,-65.5 93.68,-62 93.68,-69"/>
</a>
</g>
</g>
<!-- Node2&#45;&gt;Node2 -->
<g id="edge9_Node000002_Node000002" class="edge">
<title>Node2&#45;&gt;Node2</title>
<g id="a_edge9_Node000002_Node000002"><a xlink:title=" ">
<path fill="none" stroke="#63b8ff" d="M119.59,-75.08C112.09,-83.73 117.23,-93 135,-93 145.83,-93 151.97,-89.56 153.42,-84.91"/>
<polygon fill="#63b8ff" stroke="#63b8ff" points="156.68,-83.62 150.41,-75.08 149.99,-85.67 156.68,-83.62"/>
</a>
</g>
</g>
<!-- Node3 -->
<g id="Node000003" class="node">
<title>Node3</title>
<g id="a_Node000003"><a xlink:href="unicode_8c.html#a3619b219411d41dbdd9197a4d9f378a3" target="_top" xlink:title="Creates a copy of a UTF&#45;8 string containing only valid UTF&#45;8 sequences.">
<polygon fill="white" stroke="#666666" points="298,-113 233,-113 233,-94 298,-94 298,-113"/>
<text text-anchor="middle" x="265.5" y="-101" font-family="Helvetica,sans-Serif" font-size="10.00">utf8_copy</text>
</a>
</g>
</g>
<!-- Node2&#45;&gt;Node3 -->
<g id="edge3_Node000002_Node000003" class="edge">
<title>Node2&#45;&gt;Node3</title>
<g id="a_edge3_Node000002_Node000003"><a xlink:title=" ">
<path fill="none" stroke="#63b8ff" d="M166.13,-74.41C183.11,-79.43 204.56,-85.77 223.1,-91.26"/>
<polygon fill="#63b8ff" stroke="#63b8ff" points="222.19,-94.64 232.77,-94.12 224.17,-87.92 222.19,-94.64"/>
</a>
</g>
</g>
<!-- Node4 -->
<g id="Node000004" class="node">
<title>Node4</title>
<g id="a_Node000004"><a xlink:href="unicode_8c.html#a37b529eaefb2e43c5f2a7eda74138c13" target="_top" xlink:title="Counts the number of valid UTF&#45;8 bytes in a string.">
<polygon fill="white" stroke="#666666" points="490,-94 365,-94 365,-75 490,-75 490,-94"/>
<text text-anchor="middle" x="427.5" y="-82" font-family="Helvetica,sans-Serif" font-size="10.00">utf8_valid_byte_count</text>
</a>
</g>
</g>
<!-- Node2&#45;&gt;Node4 -->
<g id="edge10_Node000002_Node000004" class="edge">
<title>Node2&#45;&gt;Node4</title>
<g id="a_edge10_Node000002_Node000004"><a xlink:title=" ">
<path fill="none" stroke="#63b8ff" d="M166.27,-67.48C210.5,-70.37 294.12,-75.84 354.66,-79.8"/>
<polygon fill="#63b8ff" stroke="#63b8ff" points="354.71,-83.31 364.92,-80.47 355.17,-76.33 354.71,-83.31"/>
</a>
</g>
</g>
<!-- Node5 -->
<g id="Node000005" class="node">
<title>Node5</title>
<g id="a_Node000005"><a xlink:href="unicode_8c.html#a0b46c6da59494b8d0042d1557f77b6fe" target="_top" xlink:title="Counts the number of Unicode codepoints in a UTF&#45;8 string.">
<polygon fill="white" stroke="#666666" points="329,-19 202,-19 202,0 329,0 329,-19"/>
<text text-anchor="middle" x="265.5" y="-7" font-family="Helvetica,sans-Serif" font-size="10.00">utf8_count_codepoints</text>
</a>
</g>
</g>
<!-- Node2&#45;&gt;Node5 -->
<g id="edge7_Node000002_Node000005" class="edge">
<title>Node2&#45;&gt;Node5</title>
<g id="a_edge7_Node000002_Node000005"><a xlink:title=" ">
<path fill="none" stroke="#63b8ff" d="M158.09,-55.87C178.81,-46.84 210,-33.25 233.27,-23.11"/>
<polygon fill="#63b8ff" stroke="#63b8ff" points="234.93,-26.2 242.7,-19 232.13,-19.79 234.93,-26.2"/>
</a>
</g>
</g>
<!-- Node3&#45;&gt;Node3 -->
<g id="edge4_Node000003_Node000003" class="edge">
<title>Node3&#45;&gt;Node3</title>
<g id="a_edge4_Node000003_Node000003"><a xlink:title=" ">
<path fill="none" stroke="#63b8ff" d="M245.46,-113.08C235.72,-121.73 242.39,-131 265.5,-131 280.3,-131 288.36,-127.2 289.68,-122.19"/>
<polygon fill="#63b8ff" stroke="#63b8ff" points="292.86,-120.73 285.54,-113.08 286.49,-123.63 292.86,-120.73"/>
</a>
</g>
</g>
<!-- Node3&#45;&gt;Node4 -->
<g id="edge5_Node000003_Node000004" class="edge">
<title>Node3&#45;&gt;Node4</title>
<g id="a_edge5_Node000003_Node000004"><a xlink:title=" ">
<path fill="none" stroke="#63b8ff" d="M298.11,-99.75C314.39,-97.81 334.96,-95.37 354.83,-93.01"/>
<polygon fill="#63b8ff" stroke="#63b8ff" points="355.31,-96.48 364.82,-91.82 354.48,-89.53 355.31,-96.48"/>
</a>
</g>
</g>
<!-- Node4&#45;&gt;Node4 -->
<g id="edge6_Node000004_Node000004" class="edge">
<title>Node4&#45;&gt;Node4</title>
<g id="a_edge6_Node000004_Node000004"><a xlink:title=" ">
<path fill="none" stroke="#63b8ff" d="M402.53,-94.08C390.38,-102.73 398.71,-112 427.5,-112 446.4,-112 456.48,-108.01 457.74,-102.82"/>
<polygon fill="#63b8ff" stroke="#63b8ff" points="460.63,-100.84 452.47,-94.08 454.64,-104.45 460.63,-100.84"/>
</a>
</g>
</g>
<!-- Node5&#45;&gt;Node5 -->
<g id="edge8_Node000005_Node000005" class="edge">
<title>Node5&#45;&gt;Node5</title>
<g id="a_edge8_Node000005_Node000005"><a xlink:title=" ">
<path fill="none" stroke="#63b8ff" d="M245.46,-19.08C235.72,-27.73 242.39,-37 265.5,-37 280.3,-37 288.36,-33.2 289.68,-28.19"/>
<polygon fill="#63b8ff" stroke="#63b8ff" points="292.86,-26.73 285.54,-19.08 286.49,-29.63 292.86,-26.73"/>
</a>
</g>
</g>
</g>
</svg>
</svg>

<style type='text/css'>
<![CDATA[
[data-mouse-over-selected='false'] { opacity: 0.7; }
[data-mouse-over-selected='true']  { opacity: 1.0; }
]]>
</style>
<script type="application/ecmascript"><![CDATA[
document.addEventListener('DOMContentLoaded', (event) => {
  highlightEdges();
  highlightAdjacentNodes();
});
]]></script>
</svg>
