<?xml version="1.0" encoding="UTF-8" standalone="no"?>
<!DOCTYPE svg PUBLIC "-//W3C//DTD SVG 1.1//EN"
 "http://www.w3.org/Graphics/SVG/1.1/DTD/svg11.dtd">
<!-- Generated by graphviz version 2.43.0 (0)
 -->
<!-- Title: utf8_ltrim Pages: 1 -->
<svg width="394pt" height="127pt"
 viewBox="0.00 0.00 394.00 127.00" xmlns="http://www.w3.org/2000/svg" xmlns:xlink="http://www.w3.org/1999/xlink">

<svg id="main" version="1.1" xmlns="http://www.w3.org/2000/svg" xmlns:xlink="http://www.w3.org/1999/xlink" xml:space="preserve" onload="init(evt)">
<style type="text/css"><![CDATA[
.node, .edge {opacity: 0.7;}
.node.selected, .edge.selected {opacity: 1;}
.edge:hover path { stroke: red; }
.edge:hover polygon { stroke: red; fill: red; }
]]></style>
<script type="application/ecmascript" xlink:href="svg.min.js"/>
<svg id="graph" class="graph">
<g id="graph0" class="graph" transform="scale(1 1) rotate(0) translate(4 123)">
<title>utf8_ltrim</title>
<!-- Node1 -->
<g id="Node000001" class="node">
<title>Node1</title>
<g id="a_Node000001"><a xlink:title="Removes leading whitespace from a UTF&#45;8 string in&#45;place.">
<polygon fill="#999999" stroke="#666666" points="65,-46 0,-46 0,-27 65,-27 65,-46"/>
<text text-anchor="middle" x="32.5" y="-34" font-family="Helvetica,sans-Serif" font-size="10.00">utf8_ltrim</text>
</a>
</g>
</g>
<!-- Node1&#45;&gt;Node1 -->
<g id="edge9_Node000001_Node000001" class="edge">
<title>Node1&#45;&gt;Node1</title>
<g id="a_edge9_Node000001_Node000001"><a xlink:title=" ">
<path fill="none" stroke="#63b8ff" d="M13.7,-46.08C4.55,-54.73 10.82,-64 32.5,-64 46.05,-64 53.58,-60.38 55.09,-55.55"/>
<polygon fill="#63b8ff" stroke="#63b8ff" points="58.27,-54.07 51.3,-46.08 51.77,-56.67 58.27,-54.07"/>
</a>
</g>
</g>
<!-- Node2 -->
<g id="Node000002" class="node">
<title>Node2</title>
<g id="a_Node000002"><a xlink:href="unicode_8c.html#ad7d24e5bc418ae563b5afc21c6898e10" target="_top" xlink:title="Checks if a UTF&#45;8 character represents whitespace.">
<polygon fill="white" stroke="#666666" points="211,-74 101,-74 101,-55 211,-55 211,-74"/>
<text text-anchor="middle" x="156" y="-62" font-family="Helvetica,sans-Serif" font-size="10.00">is_utf8_whitespace</text>
</a>
</g>
</g>
<!-- Node1&#45;&gt;Node2 -->
<g id="edge1_Node000001_Node000002" class="edge">
<title>Node1&#45;&gt;Node2</title>
<g id="a_edge1_Node000001_Node000002"><a xlink:title=" ">
<path fill="none" stroke="#63b8ff" d="M65.11,-43.78C76.87,-46.5 90.55,-49.65 103.63,-52.66"/>
<polygon fill="#63b8ff" stroke="#63b8ff" points="102.95,-56.1 113.48,-54.93 104.52,-49.28 102.95,-56.1"/>
</a>
</g>
</g>
<!-- Node5 -->
<g id="Node000005" class="node">
<title>Node5</title>
<g id="a_Node000005"><a xlink:href="unicode_8c.html#aadba4a5c759cfb7674c3dfe42351e952" target="_top" xlink:title="Determines the byte length of a UTF&#45;8 character from its first byte.">
<polygon fill="white" stroke="#666666" points="205,-19 107,-19 107,0 205,0 205,-19"/>
<text text-anchor="middle" x="156" y="-7" font-family="Helvetica,sans-Serif" font-size="10.00">utf8_char_length</text>
</a>
</g>
</g>
<!-- Node1&#45;&gt;Node5 -->
<g id="edge7_Node000001_Node000005" class="edge">
<title>Node1&#45;&gt;Node5</title>
<g id="a_edge7_Node000001_Node000005"><a xlink:title=" ">
<path fill="none" stroke="#63b8ff" d="M65.11,-29.48C76.42,-26.96 89.51,-24.05 102.14,-21.25"/>
<polygon fill="#63b8ff" stroke="#63b8ff" points="103.12,-24.62 112.12,-19.03 101.6,-17.78 103.12,-24.62"/>
</a>
</g>
</g>
<!-- Node2&#45;&gt;Node2 -->
<g id="edge4_Node000002_Node000002" class="edge">
<title>Node2&#45;&gt;Node2</title>
<g id="a_edge4_Node000002_Node000002"><a xlink:title=" ">
<path fill="none" stroke="#63b8ff" d="M137.2,-74.08C128.05,-82.73 134.32,-92 156,-92 169.55,-92 177.08,-88.38 178.59,-83.55"/>
<polygon fill="#63b8ff" stroke="#63b8ff" points="181.77,-82.07 174.8,-74.08 175.27,-84.67 181.77,-82.07"/>
</a>
</g>
</g>
<!-- Node3 -->
<g id="Node000003" class="node">
<title>Node3</title>
<g id="a_Node000003"><a xlink:href="unicode_8c.html#a5ae688f76f23047d722b9884a106bf09" target="_top" xlink:title="Checks if a codepoint represents whitespace.">
<polygon fill="white" stroke="#666666" points="386,-101 247,-101 247,-82 386,-82 386,-101"/>
<text text-anchor="middle" x="316.5" y="-89" font-family="Helvetica,sans-Serif" font-size="10.00">is_codepoint_whitespace</text>
</a>
</g>
</g>
<!-- Node2&#45;&gt;Node3 -->
<g id="edge2_Node000002_Node000003" class="edge">
<title>Node2&#45;&gt;Node3</title>
<g id="a_edge2_Node000002_Node000003"><a xlink:title=" ">
<path fill="none" stroke="#63b8ff" d="M211.1,-73.72C223.42,-75.81 236.63,-78.07 249.38,-80.24"/>
<polygon fill="#63b8ff" stroke="#63b8ff" points="249.04,-83.73 259.48,-81.96 250.21,-76.83 249.04,-83.73"/>
</a>
</g>
</g>
<!-- Node4 -->
<g id="Node000004" class="node">
<title>Node4</title>
<g id="a_Node000004"><a xlink:href="unicode_8c.html#a0075f88c12df63dda852af0ff5c41f92" target="_top" xlink:title="Decodes a UTF&#45;8 byte sequence to its Unicode codepoint.">
<polygon fill="white" stroke="#666666" points="368.5,-46 264.5,-46 264.5,-27 368.5,-27 368.5,-46"/>
<text text-anchor="middle" x="316.5" y="-34" font-family="Helvetica,sans-Serif" font-size="10.00">utf8_to_codepoint</text>
</a>
</g>
</g>
<!-- Node2&#45;&gt;Node4 -->
<g id="edge5_Node000002_Node000004" class="edge">
<title>Node2&#45;&gt;Node4</title>
<g id="a_edge5_Node000002_Node000004"><a xlink:title=" ">
<path fill="none" stroke="#63b8ff" d="M211.1,-54.94C224.96,-52.49 239.96,-49.84 254.15,-47.34"/>
<polygon fill="#63b8ff" stroke="#63b8ff" points="255.07,-50.73 264.31,-45.54 253.86,-43.84 255.07,-50.73"/>
</a>
</g>
</g>
<!-- Node3&#45;&gt;Node3 -->
<g id="edge3_Node000003_Node000003" class="edge">
<title>Node3&#45;&gt;Node3</title>
<g id="a_edge3_Node000003_Node000003"><a xlink:title=" ">
<path fill="none" stroke="#63b8ff" d="M291.84,-101.08C279.84,-109.73 288.06,-119 316.5,-119 335.16,-119 345.12,-115.01 346.37,-109.82"/>
<polygon fill="#63b8ff" stroke="#63b8ff" points="349.29,-107.88 341.16,-101.08 343.27,-111.47 349.29,-107.88"/>
</a>
</g>
</g>
<!-- Node4&#45;&gt;Node4 -->
<g id="edge6_Node000004_Node000004" class="edge">
<title>Node4&#45;&gt;Node4</title>
<g id="a_edge6_Node000004_Node000004"><a xlink:title=" ">
<path fill="none" stroke="#63b8ff" d="M291.84,-46.08C279.84,-54.73 288.06,-64 316.5,-64 335.16,-64 345.12,-60.01 346.37,-54.82"/>
<polygon fill="#63b8ff" stroke="#63b8ff" points="349.29,-52.88 341.16,-46.08 343.27,-56.47 349.29,-52.88"/>
</a>
</g>
</g>
<!-- Node5&#45;&gt;Node5 -->
<g id="edge8_Node000005_Node000005" class="edge">
<title>Node5&#45;&gt;Node5</title>
<g id="a_edge8_Node000005_Node000005"><a xlink:title=" ">
<path fill="none" stroke="#63b8ff" d="M137.2,-19.08C128.05,-27.73 134.32,-37 156,-37 169.55,-37 177.08,-33.38 178.59,-28.55"/>
<polygon fill="#63b8ff" stroke="#63b8ff" points="181.77,-27.07 174.8,-19.08 175.27,-29.67 181.77,-27.07"/>
</a>
</g>
</g>
</g>
</svg>
</svg>

<style type='text/css'>
<![CDATA[
[data-mouse-over-selected='false'] { opacity: 0.7; }
[data-mouse-over-selected='true']  { opacity: 1.0; }
]]>
</style>
<script type="application/ecmascript"><![CDATA[
document.addEventListener('DOMContentLoaded', (event) => {
  highlightEdges();
  highlightAdjacentNodes();
});
]]></script>
</svg>
