<?xml version="1.0" encoding="UTF-8" standalone="no"?>
<!DOCTYPE svg PUBLIC "-//W3C//DTD SVG 1.1//EN"
 "http://www.w3.org/Graphics/SVG/1.1/DTD/svg11.dtd">
<!-- Generated by graphviz version 2.43.0 (0)
 -->
<!-- Title: include/vec.h Pages: 1 -->
<svg width="180pt" height="192pt"
 viewBox="0.00 0.00 180.07 192.00" xmlns="http://www.w3.org/2000/svg" xmlns:xlink="http://www.w3.org/1999/xlink">
<g id="graph0" class="graph" transform="scale(1 1) rotate(0) translate(4 188)">
<title>include/vec.h</title>
<!-- Node1 -->
<g id="Node000001" class="node">
<title>Node1</title>
<g id="a_Node000001"><a xlink:title="High&#45;performance vector mathematics library with scalar and SIMD operations.">
<polygon fill="#999999" stroke="#666666" points="88.57,-184 7.57,-184 7.57,-165 88.57,-165 88.57,-184"/>
<text text-anchor="middle" x="48.07" y="-172" font-family="Helvetica,sans-Serif" font-size="10.00">include/vec.h</text>
</a>
</g>
</g>
<!-- Node2 -->
<g id="Node000002" class="node">
<title>Node2</title>
<g id="a_Node000002"><a xlink:href="linear__alg_8h_source.html" target="_top" xlink:title=" ">
<polygon fill="white" stroke="#666666" points="127.07,-74 15.07,-74 15.07,-55 127.07,-55 127.07,-74"/>
<text text-anchor="middle" x="71.07" y="-62" font-family="Helvetica,sans-Serif" font-size="10.00">include/linear_alg.h</text>
</a>
</g>
</g>
<!-- Node1&#45;&gt;Node2 -->
<g id="edge1_Node000001_Node000002" class="edge">
<title>Node1&#45;&gt;Node2</title>
<g id="a_edge1_Node000001_Node000002"><a xlink:title=" ">
<path fill="none" stroke="#63b8ff" d="M52.05,-154.8C57.07,-131.2 65.51,-91.58 69.22,-74.16"/>
<polygon fill="#63b8ff" stroke="#63b8ff" points="48.61,-154.15 49.95,-164.66 55.45,-155.61 48.61,-154.15"/>
</a>
</g>
</g>
<!-- Node3 -->
<g id="Node000003" class="node">
<title>Node3</title>
<g id="a_Node000003"><a xlink:href="solidc_8h_source.html" target="_top" xlink:title=" ">
<polygon fill="white" stroke="#666666" points="117.07,-19 25.07,-19 25.07,0 117.07,0 117.07,-19"/>
<text text-anchor="middle" x="71.07" y="-7" font-family="Helvetica,sans-Serif" font-size="10.00">include/solidc.h</text>
</a>
</g>
</g>
<!-- Node1&#45;&gt;Node3 -->
<g id="edge6_Node000001_Node000003" class="edge">
<title>Node1&#45;&gt;Node3</title>
<g id="a_edge6_Node000001_Node000003"><a xlink:title=" ">
<path fill="none" stroke="#63b8ff" d="M33.77,-156.86C15.4,-133.35 -12.08,-89.41 6.07,-55 15.06,-37.94 33.86,-26.18 48.94,-19.05"/>
<polygon fill="#63b8ff" stroke="#63b8ff" points="31.22,-159.27 40.25,-164.81 36.64,-154.85 31.22,-159.27"/>
</a>
</g>
</g>
<!-- Node4 -->
<g id="Node000004" class="node">
<title>Node4</title>
<g id="a_Node000004"><a xlink:href="matrix_8h_source.html" target="_top" xlink:title=" ">
<polygon fill="white" stroke="#666666" points="172.07,-129 76.07,-129 76.07,-110 172.07,-110 172.07,-129"/>
<text text-anchor="middle" x="124.07" y="-117" font-family="Helvetica,sans-Serif" font-size="10.00">include/matrix.h</text>
</a>
</g>
</g>
<!-- Node1&#45;&gt;Node4 -->
<g id="edge3_Node000001_Node000004" class="edge">
<title>Node1&#45;&gt;Node4</title>
<g id="a_edge3_Node000001_Node000004"><a xlink:title=" ">
<path fill="none" stroke="#63b8ff" d="M68.64,-159.15C82.38,-149.57 99.99,-137.29 111.63,-129.17"/>
<polygon fill="#63b8ff" stroke="#63b8ff" points="66.48,-156.39 60.28,-164.98 70.48,-162.14 66.48,-156.39"/>
</a>
</g>
</g>
<!-- Node2&#45;&gt;Node3 -->
<g id="edge2_Node000002_Node000003" class="edge">
<title>Node2&#45;&gt;Node3</title>
<g id="a_edge2_Node000002_Node000003"><a xlink:title=" ">
<path fill="none" stroke="#63b8ff" d="M71.07,-44.66C71.07,-35.93 71.07,-25.99 71.07,-19.09"/>
<polygon fill="#63b8ff" stroke="#63b8ff" points="67.57,-44.75 71.07,-54.75 74.57,-44.75 67.57,-44.75"/>
</a>
</g>
</g>
<!-- Node4&#45;&gt;Node2 -->
<g id="edge4_Node000004_Node000002" class="edge">
<title>Node4&#45;&gt;Node2</title>
<g id="a_edge4_Node000004_Node000002"><a xlink:title=" ">
<path fill="none" stroke="#63b8ff" d="M108.08,-102.52C98.74,-93.18 87.32,-81.75 79.65,-74.09"/>
<polygon fill="#63b8ff" stroke="#63b8ff" points="105.77,-105.15 115.31,-109.75 110.72,-100.2 105.77,-105.15"/>
</a>
</g>
</g>
<!-- Node4&#45;&gt;Node3 -->
<g id="edge5_Node000004_Node000003" class="edge">
<title>Node4&#45;&gt;Node3</title>
<g id="a_edge5_Node000004_Node000003"><a xlink:title=" ">
<path fill="none" stroke="#63b8ff" d="M133.5,-100.33C138.99,-87.1 143.5,-69.1 136.07,-55 127.07,-37.94 108.27,-26.18 93.19,-19.05"/>
<polygon fill="#63b8ff" stroke="#63b8ff" points="130.16,-99.21 129.1,-109.76 136.5,-102.18 130.16,-99.21"/>
</a>
</g>
</g>
</g>
</svg>
