<?xml version="1.0" encoding="UTF-8" standalone="no"?>
<!DOCTYPE svg PUBLIC "-//W3C//DTD SVG 1.1//EN"
 "http://www.w3.org/Graphics/SVG/1.1/DTD/svg11.dtd">
<!-- Generated by graphviz version 2.43.0 (0)
 -->
<!-- Title: xtime_start_of_year Pages: 1 -->
<svg width="437pt" height="64pt"
 viewBox="0.00 0.00 437.00 64.00" xmlns="http://www.w3.org/2000/svg" xmlns:xlink="http://www.w3.org/1999/xlink">
<g id="graph0" class="graph" transform="scale(1 1) rotate(0) translate(4 60)">
<title>xtime_start_of_year</title>
<!-- Node1 -->
<g id="Node000001" class="node">
<title>Node1</title>
<g id="a_Node000001"><a xlink:title=" ">
<polygon fill="#999999" stroke="#666666" points="115,-37 0,-37 0,-18 115,-18 115,-37"/>
<text text-anchor="middle" x="57.5" y="-25" font-family="Helvetica,sans-Serif" font-size="10.00">xtime_start_of_year</text>
</a>
</g>
</g>
<!-- Node2 -->
<g id="Node000002" class="node">
<title>Node2</title>
<g id="a_Node000002"><a xlink:href="xtime_8c.html#adf9113dd1d3f89428b0c24bafd9728de" target="_top" xlink:title=" ">
<polygon fill="white" stroke="#666666" points="264,-56 167,-56 167,-37 264,-37 264,-56"/>
<text text-anchor="middle" x="215.5" y="-44" font-family="Helvetica,sans-Serif" font-size="10.00">xtime_add_days</text>
</a>
</g>
</g>
<!-- Node1&#45;&gt;Node2 -->
<g id="edge1_Node000001_Node000002" class="edge">
<title>Node1&#45;&gt;Node2</title>
<g id="a_edge1_Node000001_Node000002"><a xlink:title=" ">
<path fill="none" stroke="#63b8ff" d="M115.26,-34.41C128.73,-36.05 143.11,-37.81 156.63,-39.45"/>
<polygon fill="#63b8ff" stroke="#63b8ff" points="156.42,-42.95 166.77,-40.69 157.26,-36 156.42,-42.95"/>
</a>
</g>
</g>
<!-- Node4 -->
<g id="Node000004" class="node">
<title>Node4</title>
<g id="a_Node000004"><a xlink:href="xtime_8c.html#a99b660b61342adb2bb5eb39f17247215" target="_top" xlink:title=" ">
<polygon fill="white" stroke="#666666" points="280,-19 151,-19 151,0 280,0 280,-19"/>
<text text-anchor="middle" x="215.5" y="-7" font-family="Helvetica,sans-Serif" font-size="10.00">xtime_truncate_to_day</text>
</a>
</g>
</g>
<!-- Node1&#45;&gt;Node4 -->
<g id="edge3_Node000001_Node000004" class="edge">
<title>Node1&#45;&gt;Node4</title>
<g id="a_edge3_Node000001_Node000004"><a xlink:title=" ">
<path fill="none" stroke="#63b8ff" d="M115.26,-20.95C123.59,-19.99 132.27,-18.99 140.87,-18"/>
<polygon fill="#63b8ff" stroke="#63b8ff" points="141.39,-21.46 150.92,-16.84 140.58,-14.51 141.39,-21.46"/>
</a>
</g>
</g>
<!-- Node3 -->
<g id="Node000003" class="node">
<title>Node3</title>
<g id="a_Node000003"><a xlink:href="xtime_8c.html#ad810da3d7ec4df37798069d6cefc2265" target="_top" xlink:title=" ">
<polygon fill="white" stroke="#666666" points="429,-56 316,-56 316,-37 429,-37 429,-56"/>
<text text-anchor="middle" x="372.5" y="-44" font-family="Helvetica,sans-Serif" font-size="10.00">xtime_add_seconds</text>
</a>
</g>
</g>
<!-- Node2&#45;&gt;Node3 -->
<g id="edge2_Node000002_Node000003" class="edge">
<title>Node2&#45;&gt;Node3</title>
<g id="a_edge2_Node000002_Node000003"><a xlink:title=" ">
<path fill="none" stroke="#63b8ff" d="M264.27,-46.5C277.37,-46.5 291.8,-46.5 305.72,-46.5"/>
<polygon fill="#63b8ff" stroke="#63b8ff" points="305.74,-50 315.74,-46.5 305.74,-43 305.74,-50"/>
</a>
</g>
</g>
</g>
</svg>
