<?xml version="1.0" encoding="UTF-8" standalone="no"?>
<!DOCTYPE svg PUBLIC "-//W3C//DTD SVG 1.1//EN"
 "http://www.w3.org/Graphics/SVG/1.1/DTD/svg11.dtd">
<!-- Generated by graphviz version 2.43.0 (0)
 -->
<!-- Title: xtime_init Pages: 1 -->
<svg width="187pt" height="45pt"
 viewBox="0.00 0.00 187.00 45.00" xmlns="http://www.w3.org/2000/svg" xmlns:xlink="http://www.w3.org/1999/xlink">
<g id="graph0" class="graph" transform="scale(1 1) rotate(0) translate(4 41)">
<title>xtime_init</title>
<!-- Node1 -->
<g id="Node000001" class="node">
<title>Node1</title>
<g id="a_Node000001"><a xlink:title=" ">
<polygon fill="#999999" stroke="#666666" points="179,-19 113,-19 113,0 179,0 179,-19"/>
<text text-anchor="middle" x="146" y="-7" font-family="Helvetica,sans-Serif" font-size="10.00">xtime_init</text>
</a>
</g>
</g>
<!-- Node1&#45;&gt;Node1 -->
<g id="edge1_Node000001_Node000001" class="edge">
<title>Node1&#45;&gt;Node1</title>
<g id="a_edge1_Node000001_Node000001"><a xlink:title=" ">
<path fill="none" stroke="#63b8ff" d="M165.63,-28.55C164.32,-33.38 157.77,-37 146,-37 127.16,-37 121.71,-27.73 129.66,-19.08"/>
<polygon fill="#63b8ff" stroke="#63b8ff" points="168.93,-27.38 162.34,-19.08 162.31,-29.68 168.93,-27.38"/>
</a>
</g>
</g>
<!-- Node2 -->
<g id="Node000002" class="node">
<title>Node2</title>
<g id="a_Node000002"><a xlink:href="xtime_8c.html#a4d59c19532412795d2b733baa59ef771" target="_top" xlink:title=" ">
<polygon fill="white" stroke="#666666" points="77,-19 0,-19 0,0 77,0 77,-19"/>
<text text-anchor="middle" x="38.5" y="-7" font-family="Helvetica,sans-Serif" font-size="10.00">xtime_parse</text>
</a>
</g>
</g>
<!-- Node1&#45;&gt;Node2 -->
<g id="edge2_Node000001_Node000002" class="edge">
<title>Node1&#45;&gt;Node2</title>
<g id="a_edge2_Node000001_Node000002"><a xlink:title=" ">
<path fill="none" stroke="#63b8ff" d="M102.69,-9.5C94.22,-9.5 85.38,-9.5 77.08,-9.5"/>
<polygon fill="#63b8ff" stroke="#63b8ff" points="102.77,-13 112.77,-9.5 102.77,-6 102.77,-13"/>
</a>
</g>
</g>
</g>
</svg>
