<?xml version="1.0" encoding="UTF-8" standalone="no"?>
<!DOCTYPE svg PUBLIC "-//W3C//DTD SVG 1.1//EN"
 "http://www.w3.org/Graphics/SVG/1.1/DTD/svg11.dtd">
<!-- Generated by graphviz version 2.43.0 (0)
 -->
<!-- Title: xtime_add_days Pages: 1 -->
<svg width="266pt" height="175pt"
 viewBox="0.00 0.00 266.00 175.00" xmlns="http://www.w3.org/2000/svg" xmlns:xlink="http://www.w3.org/1999/xlink">
<g id="graph0" class="graph" transform="scale(1 1) rotate(0) translate(4 171)">
<title>xtime_add_days</title>
<!-- Node1 -->
<g id="Node000001" class="node">
<title>Node1</title>
<g id="a_Node000001"><a xlink:title=" ">
<polygon fill="#999999" stroke="#666666" points="258,-93 161,-93 161,-74 258,-74 258,-93"/>
<text text-anchor="middle" x="209.5" y="-81" font-family="Helvetica,sans-Serif" font-size="10.00">xtime_add_days</text>
</a>
</g>
</g>
<!-- Node2 -->
<g id="Node000002" class="node">
<title>Node2</title>
<g id="a_Node000002"><a xlink:href="xtime_8c.html#a89dd25607d1043eb94c889c22f416303" target="_top" xlink:title=" ">
<polygon fill="white" stroke="#666666" points="122.5,-167 2.5,-167 2.5,-148 122.5,-148 122.5,-167"/>
<text text-anchor="middle" x="62.5" y="-155" font-family="Helvetica,sans-Serif" font-size="10.00">xtime_end_of_month</text>
</a>
</g>
</g>
<!-- Node1&#45;&gt;Node2 -->
<g id="edge1_Node000001_Node000002" class="edge">
<title>Node1&#45;&gt;Node2</title>
<g id="a_edge1_Node000001_Node000002"><a xlink:title=" ">
<path fill="none" stroke="#63b8ff" d="M188.55,-99.44C172.26,-111.82 148.21,-128.64 125,-139.5 118.05,-142.75 110.38,-145.56 102.88,-147.93"/>
<polygon fill="#63b8ff" stroke="#63b8ff" points="190.99,-101.98 196.75,-93.09 186.7,-96.45 190.99,-101.98"/>
</a>
</g>
</g>
<!-- Node3 -->
<g id="Node000003" class="node">
<title>Node3</title>
<g id="a_Node000003"><a xlink:href="xtime_8c.html#af1d668ba6ff781453b81cedfa8d1e3ee" target="_top" xlink:title=" ">
<polygon fill="white" stroke="#666666" points="117.5,-130 7.5,-130 7.5,-111 117.5,-111 117.5,-130"/>
<text text-anchor="middle" x="62.5" y="-118" font-family="Helvetica,sans-Serif" font-size="10.00">xtime_end_of_year</text>
</a>
</g>
</g>
<!-- Node1&#45;&gt;Node3 -->
<g id="edge2_Node000001_Node000003" class="edge">
<title>Node1&#45;&gt;Node3</title>
<g id="a_edge2_Node000001_Node000003"><a xlink:title=" ">
<path fill="none" stroke="#63b8ff" d="M161.23,-95.56C141.69,-100.55 119.35,-106.25 100.97,-110.94"/>
<polygon fill="#63b8ff" stroke="#63b8ff" points="162.33,-98.89 171.16,-93.03 160.6,-92.11 162.33,-98.89"/>
</a>
</g>
</g>
<!-- Node4 -->
<g id="Node000004" class="node">
<title>Node4</title>
<g id="a_Node000004"><a xlink:href="xtime_8c.html#a98e839513d271432937e6fdcd28f7c44" target="_top" xlink:title=" ">
<polygon fill="white" stroke="#666666" points="125,-93 0,-93 0,-74 125,-74 125,-93"/>
<text text-anchor="middle" x="62.5" y="-81" font-family="Helvetica,sans-Serif" font-size="10.00">xtime_start_of_month</text>
</a>
</g>
</g>
<!-- Node1&#45;&gt;Node4 -->
<g id="edge3_Node000001_Node000004" class="edge">
<title>Node1&#45;&gt;Node4</title>
<g id="a_edge3_Node000001_Node000004"><a xlink:title=" ">
<path fill="none" stroke="#63b8ff" d="M150.55,-83.5C142.16,-83.5 133.49,-83.5 125.03,-83.5"/>
<polygon fill="#63b8ff" stroke="#63b8ff" points="150.62,-87 160.62,-83.5 150.62,-80 150.62,-87"/>
</a>
</g>
</g>
<!-- Node5 -->
<g id="Node000005" class="node">
<title>Node5</title>
<g id="a_Node000005"><a xlink:href="xtime_8c.html#ae212cc59a4ce221e2fca14a3a698f9ee" target="_top" xlink:title=" ">
<polygon fill="white" stroke="#666666" points="122,-56 3,-56 3,-37 122,-37 122,-56"/>
<text text-anchor="middle" x="62.5" y="-44" font-family="Helvetica,sans-Serif" font-size="10.00">xtime_start_of_week</text>
</a>
</g>
</g>
<!-- Node1&#45;&gt;Node5 -->
<g id="edge4_Node000001_Node000005" class="edge">
<title>Node1&#45;&gt;Node5</title>
<g id="a_edge4_Node000001_Node000005"><a xlink:title=" ">
<path fill="none" stroke="#63b8ff" d="M161.23,-71.44C141.69,-66.45 119.35,-60.75 100.97,-56.06"/>
<polygon fill="#63b8ff" stroke="#63b8ff" points="160.6,-74.89 171.16,-73.97 162.33,-68.11 160.6,-74.89"/>
</a>
</g>
</g>
<!-- Node6 -->
<g id="Node000006" class="node">
<title>Node6</title>
<g id="a_Node000006"><a xlink:href="xtime_8c.html#afea03263303f537ad92b691e9fb0882a" target="_top" xlink:title=" ">
<polygon fill="white" stroke="#666666" points="120,-19 5,-19 5,0 120,0 120,-19"/>
<text text-anchor="middle" x="62.5" y="-7" font-family="Helvetica,sans-Serif" font-size="10.00">xtime_start_of_year</text>
</a>
</g>
</g>
<!-- Node1&#45;&gt;Node6 -->
<g id="edge5_Node000001_Node000006" class="edge">
<title>Node1&#45;&gt;Node6</title>
<g id="a_edge5_Node000001_Node000006"><a xlink:title=" ">
<path fill="none" stroke="#63b8ff" d="M188.18,-67.75C171.84,-55.68 147.91,-39.32 125,-28.5 117.32,-24.87 108.78,-21.73 100.57,-19.09"/>
<polygon fill="#63b8ff" stroke="#63b8ff" points="186.33,-70.73 196.42,-73.95 190.54,-65.14 186.33,-70.73"/>
</a>
</g>
</g>
</g>
</svg>
