<?xml version="1.0" encoding="UTF-8" standalone="no"?>
<!DOCTYPE svg PUBLIC "-//W3C//DTD SVG 1.1//EN"
 "http://www.w3.org/Graphics/SVG/1.1/DTD/svg11.dtd">
<!-- Generated by graphviz version 2.43.0 (0)
 -->
<!-- Title: xtime_diff_nanos Pages: 1 -->
<svg width="249pt" height="64pt"
 viewBox="0.00 0.00 249.00 64.00" xmlns="http://www.w3.org/2000/svg" xmlns:xlink="http://www.w3.org/1999/xlink">
<g id="graph0" class="graph" transform="scale(1 1) rotate(0) translate(4 60)">
<title>xtime_diff_nanos</title>
<!-- Node1 -->
<g id="Node000001" class="node">
<title>Node1</title>
<g id="a_Node000001"><a xlink:title=" ">
<polygon fill="#999999" stroke="#666666" points="241,-37 140,-37 140,-18 241,-18 241,-37"/>
<text text-anchor="middle" x="190.5" y="-25" font-family="Helvetica,sans-Serif" font-size="10.00">xtime_diff_nanos</text>
</a>
</g>
</g>
<!-- Node2 -->
<g id="Node000002" class="node">
<title>Node2</title>
<g id="a_Node000002"><a xlink:href="xtime_8c.html#aaf5706f2444a81ff92b82c54d24fddf9" target="_top" xlink:title=" ">
<polygon fill="white" stroke="#666666" points="104,-56 0,-56 0,-37 104,-37 104,-56"/>
<text text-anchor="middle" x="52" y="-44" font-family="Helvetica,sans-Serif" font-size="10.00">xtime_diff_micros</text>
</a>
</g>
</g>
<!-- Node1&#45;&gt;Node2 -->
<g id="edge1_Node000001_Node000002" class="edge">
<title>Node1&#45;&gt;Node2</title>
<g id="a_edge1_Node000001_Node000002"><a xlink:title=" ">
<path fill="none" stroke="#63b8ff" d="M129.91,-35.79C121.35,-36.99 112.61,-38.2 104.23,-39.37"/>
<polygon fill="#63b8ff" stroke="#63b8ff" points="130.41,-39.26 139.83,-34.41 129.45,-32.33 130.41,-39.26"/>
</a>
</g>
</g>
<!-- Node3 -->
<g id="Node000003" class="node">
<title>Node3</title>
<g id="a_Node000003"><a xlink:href="xtime_8c.html#aef02a43976ffed33d77f308ead735417" target="_top" xlink:title=" ">
<polygon fill="white" stroke="#666666" points="101,-19 3,-19 3,0 101,0 101,-19"/>
<text text-anchor="middle" x="52" y="-7" font-family="Helvetica,sans-Serif" font-size="10.00">xtime_diff_millis</text>
</a>
</g>
</g>
<!-- Node1&#45;&gt;Node3 -->
<g id="edge2_Node000001_Node000003" class="edge">
<title>Node1&#45;&gt;Node3</title>
<g id="a_edge2_Node000001_Node000003"><a xlink:title=" ">
<path fill="none" stroke="#63b8ff" d="M129.9,-19.64C120.25,-18.37 110.36,-17.06 101.03,-15.83"/>
<polygon fill="#63b8ff" stroke="#63b8ff" points="129.46,-23.11 139.83,-20.95 130.38,-16.17 129.46,-23.11"/>
</a>
</g>
</g>
</g>
</svg>
