<?xml version="1.0" encoding="UTF-8" standalone="no"?>
<!DOCTYPE svg PUBLIC "-//W3C//DTD SVG 1.1//EN"
 "http://www.w3.org/Graphics/SVG/1.1/DTD/svg11.dtd">
<!-- Generated by graphviz version 2.43.0 (0)
 -->
<!-- Title: xtime_start_of_week Pages: 1 -->
<svg width="441pt" height="64pt"
 viewBox="0.00 0.00 441.00 64.00" xmlns="http://www.w3.org/2000/svg" xmlns:xlink="http://www.w3.org/1999/xlink">

<svg id="main" version="1.1" xmlns="http://www.w3.org/2000/svg" xmlns:xlink="http://www.w3.org/1999/xlink" xml:space="preserve" onload="init(evt)">
<style type="text/css"><![CDATA[
.node, .edge {opacity: 0.7;}
.node.selected, .edge.selected {opacity: 1;}
.edge:hover path { stroke: red; }
.edge:hover polygon { stroke: red; fill: red; }
]]></style>
<script type="application/ecmascript" xlink:href="svg.min.js"/>
<svg id="graph" class="graph">
<g id="graph0" class="graph" transform="scale(1 1) rotate(0) translate(4 60)">
<title>xtime_start_of_week</title>
<!-- Node1 -->
<g id="Node000001" class="node">
<title>Node1</title>
<g id="a_Node000001"><a xlink:title=" ">
<polygon fill="#999999" stroke="#666666" points="119,-37 0,-37 0,-18 119,-18 119,-37"/>
<text text-anchor="middle" x="59.5" y="-25" font-family="Helvetica,sans-Serif" font-size="10.00">xtime_start_of_week</text>
</a>
</g>
</g>
<!-- Node2 -->
<g id="Node000002" class="node">
<title>Node2</title>
<g id="a_Node000002"><a xlink:href="xtime_8c.html#adf9113dd1d3f89428b0c24bafd9728de" target="_top" xlink:title=" ">
<polygon fill="white" stroke="#666666" points="268,-56 171,-56 171,-37 268,-37 268,-56"/>
<text text-anchor="middle" x="219.5" y="-44" font-family="Helvetica,sans-Serif" font-size="10.00">xtime_add_days</text>
</a>
</g>
</g>
<!-- Node1&#45;&gt;Node2 -->
<g id="edge1_Node000001_Node000002" class="edge">
<title>Node1&#45;&gt;Node2</title>
<g id="a_edge1_Node000001_Node000002"><a xlink:title=" ">
<path fill="none" stroke="#63b8ff" d="M119.33,-34.57C132.9,-36.21 147.31,-37.94 160.82,-39.56"/>
<polygon fill="#63b8ff" stroke="#63b8ff" points="160.61,-43.06 170.95,-40.78 161.44,-36.11 160.61,-43.06"/>
</a>
</g>
</g>
<!-- Node4 -->
<g id="Node000004" class="node">
<title>Node4</title>
<g id="a_Node000004"><a xlink:href="xtime_8c.html#a99b660b61342adb2bb5eb39f17247215" target="_top" xlink:title=" ">
<polygon fill="white" stroke="#666666" points="284,-19 155,-19 155,0 284,0 284,-19"/>
<text text-anchor="middle" x="219.5" y="-7" font-family="Helvetica,sans-Serif" font-size="10.00">xtime_truncate_to_day</text>
</a>
</g>
</g>
<!-- Node1&#45;&gt;Node4 -->
<g id="edge3_Node000001_Node000004" class="edge">
<title>Node1&#45;&gt;Node4</title>
<g id="a_edge3_Node000001_Node000004"><a xlink:title=" ">
<path fill="none" stroke="#63b8ff" d="M119.33,-20.8C127.66,-19.85 136.3,-18.86 144.86,-17.89"/>
<polygon fill="#63b8ff" stroke="#63b8ff" points="145.31,-21.36 154.85,-16.75 144.52,-14.41 145.31,-21.36"/>
</a>
</g>
</g>
<!-- Node3 -->
<g id="Node000003" class="node">
<title>Node3</title>
<g id="a_Node000003"><a xlink:href="xtime_8c.html#ad810da3d7ec4df37798069d6cefc2265" target="_top" xlink:title=" ">
<polygon fill="white" stroke="#666666" points="433,-56 320,-56 320,-37 433,-37 433,-56"/>
<text text-anchor="middle" x="376.5" y="-44" font-family="Helvetica,sans-Serif" font-size="10.00">xtime_add_seconds</text>
</a>
</g>
</g>
<!-- Node2&#45;&gt;Node3 -->
<g id="edge2_Node000002_Node000003" class="edge">
<title>Node2&#45;&gt;Node3</title>
<g id="a_edge2_Node000002_Node000003"><a xlink:title=" ">
<path fill="none" stroke="#63b8ff" d="M268.27,-46.5C281.37,-46.5 295.8,-46.5 309.72,-46.5"/>
<polygon fill="#63b8ff" stroke="#63b8ff" points="309.74,-50 319.74,-46.5 309.74,-43 309.74,-50"/>
</a>
</g>
</g>
</g>
</svg>
</svg>

<style type='text/css'>
<![CDATA[
[data-mouse-over-selected='false'] { opacity: 0.7; }
[data-mouse-over-selected='true']  { opacity: 1.0; }
]]>
</style>
<script type="application/ecmascript"><![CDATA[
document.addEventListener('DOMContentLoaded', (event) => {
  highlightEdges();
  highlightAdjacentNodes();
});
]]></script>
</svg>
