<?xml version="1.0" encoding="UTF-8" standalone="no"?>
<!DOCTYPE svg PUBLIC "-//W3C//DTD SVG 1.1//EN"
 "http://www.w3.org/Graphics/SVG/1.1/DTD/svg11.dtd">
<!-- Generated by graphviz version 2.43.0 (0)
 -->
<!-- Title: xtime_add_seconds Pages: 1 -->
<svg width="431pt" height="175pt"
 viewBox="0.00 0.00 431.00 175.00" xmlns="http://www.w3.org/2000/svg" xmlns:xlink="http://www.w3.org/1999/xlink">

<svg id="main" version="1.1" xmlns="http://www.w3.org/2000/svg" xmlns:xlink="http://www.w3.org/1999/xlink" xml:space="preserve" onload="init(evt)">
<style type="text/css"><![CDATA[
.node, .edge {opacity: 0.7;}
.node.selected, .edge.selected {opacity: 1;}
.edge:hover path { stroke: red; }
.edge:hover polygon { stroke: red; fill: red; }
]]></style>
<script type="application/ecmascript" xlink:href="svg.min.js"/>
<svg id="graph" class="graph">
<g id="graph0" class="graph" transform="scale(1 1) rotate(0) translate(4 171)">
<title>xtime_add_seconds</title>
<!-- Node1 -->
<g id="Node000001" class="node">
<title>Node1</title>
<g id="a_Node000001"><a xlink:title=" ">
<polygon fill="#999999" stroke="#666666" points="423,-56 310,-56 310,-37 423,-37 423,-56"/>
<text text-anchor="middle" x="366.5" y="-44" font-family="Helvetica,sans-Serif" font-size="10.00">xtime_add_seconds</text>
</a>
</g>
</g>
<!-- Node2 -->
<g id="Node000002" class="node">
<title>Node2</title>
<g id="a_Node000002"><a xlink:href="xtime_8c.html#adf9113dd1d3f89428b0c24bafd9728de" target="_top" xlink:title=" ">
<polygon fill="white" stroke="#666666" points="266,-93 169,-93 169,-74 266,-74 266,-93"/>
<text text-anchor="middle" x="217.5" y="-81" font-family="Helvetica,sans-Serif" font-size="10.00">xtime_add_days</text>
</a>
</g>
</g>
<!-- Node1&#45;&gt;Node2 -->
<g id="edge1_Node000001_Node000002" class="edge">
<title>Node1&#45;&gt;Node2</title>
<g id="a_edge1_Node000001_Node000002"><a xlink:title=" ">
<path fill="none" stroke="#63b8ff" d="M317.85,-58.49C297.97,-63.5 275.2,-69.23 256.48,-73.94"/>
<polygon fill="#63b8ff" stroke="#63b8ff" points="318.8,-61.86 327.64,-56.03 317.09,-55.08 318.8,-61.86"/>
</a>
</g>
</g>
<!-- Node8 -->
<g id="Node000008" class="node">
<title>Node8</title>
<g id="a_Node000008"><a xlink:href="xtime_8c.html#afd9feccba6e36fbc41929aeb6c7713e5" target="_top" xlink:title=" ">
<polygon fill="white" stroke="#666666" points="268,-56 167,-56 167,-37 268,-37 268,-56"/>
<text text-anchor="middle" x="217.5" y="-44" font-family="Helvetica,sans-Serif" font-size="10.00">xtime_add_hours</text>
</a>
</g>
</g>
<!-- Node1&#45;&gt;Node8 -->
<g id="edge7_Node000001_Node000008" class="edge">
<title>Node1&#45;&gt;Node8</title>
<g id="a_edge7_Node000001_Node000008"><a xlink:title=" ">
<path fill="none" stroke="#63b8ff" d="M299.88,-46.5C289.29,-46.5 278.49,-46.5 268.36,-46.5"/>
<polygon fill="#63b8ff" stroke="#63b8ff" points="299.93,-50 309.93,-46.5 299.93,-43 299.93,-50"/>
</a>
</g>
</g>
<!-- Node9 -->
<g id="Node000009" class="node">
<title>Node9</title>
<g id="a_Node000009"><a xlink:href="xtime_8c.html#a41c6e94e656c7609534ae5a94cf8ccd0" target="_top" xlink:title=" ">
<polygon fill="white" stroke="#666666" points="274,-19 161,-19 161,0 274,0 274,-19"/>
<text text-anchor="middle" x="217.5" y="-7" font-family="Helvetica,sans-Serif" font-size="10.00">xtime_add_minutes</text>
</a>
</g>
</g>
<!-- Node1&#45;&gt;Node9 -->
<g id="edge8_Node000001_Node000009" class="edge">
<title>Node1&#45;&gt;Node9</title>
<g id="a_edge8_Node000001_Node000009"><a xlink:title=" ">
<path fill="none" stroke="#63b8ff" d="M317.85,-34.51C297.97,-29.5 275.2,-23.77 256.48,-19.06"/>
<polygon fill="#63b8ff" stroke="#63b8ff" points="317.09,-37.92 327.64,-36.97 318.8,-31.14 317.09,-37.92"/>
</a>
</g>
</g>
<!-- Node3 -->
<g id="Node000003" class="node">
<title>Node3</title>
<g id="a_Node000003"><a xlink:href="xtime_8c.html#a89dd25607d1043eb94c889c22f416303" target="_top" xlink:title=" ">
<polygon fill="white" stroke="#666666" points="122.5,-167 2.5,-167 2.5,-148 122.5,-148 122.5,-167"/>
<text text-anchor="middle" x="62.5" y="-155" font-family="Helvetica,sans-Serif" font-size="10.00">xtime_end_of_month</text>
</a>
</g>
</g>
<!-- Node2&#45;&gt;Node3 -->
<g id="edge2_Node000002_Node000003" class="edge">
<title>Node2&#45;&gt;Node3</title>
<g id="a_edge2_Node000002_Node000003"><a xlink:title=" ">
<path fill="none" stroke="#63b8ff" d="M194.9,-98.99C176.91,-111.32 150.23,-128.32 125,-139.5 117.68,-142.74 109.61,-145.59 101.79,-148"/>
<polygon fill="#63b8ff" stroke="#63b8ff" points="197.27,-101.61 203.47,-93.02 193.27,-95.86 197.27,-101.61"/>
</a>
</g>
</g>
<!-- Node4 -->
<g id="Node000004" class="node">
<title>Node4</title>
<g id="a_Node000004"><a xlink:href="xtime_8c.html#af1d668ba6ff781453b81cedfa8d1e3ee" target="_top" xlink:title=" ">
<polygon fill="white" stroke="#666666" points="117.5,-130 7.5,-130 7.5,-111 117.5,-111 117.5,-130"/>
<text text-anchor="middle" x="62.5" y="-118" font-family="Helvetica,sans-Serif" font-size="10.00">xtime_end_of_year</text>
</a>
</g>
</g>
<!-- Node2&#45;&gt;Node4 -->
<g id="edge3_Node000002_Node000004" class="edge">
<title>Node2&#45;&gt;Node4</title>
<g id="a_edge3_Node000002_Node000004"><a xlink:title=" ">
<path fill="none" stroke="#63b8ff" d="M167.19,-95.43C146.43,-100.44 122.61,-106.21 103.03,-110.94"/>
<polygon fill="#63b8ff" stroke="#63b8ff" points="168.2,-98.78 177.1,-93.03 166.56,-91.98 168.2,-98.78"/>
</a>
</g>
</g>
<!-- Node5 -->
<g id="Node000005" class="node">
<title>Node5</title>
<g id="a_Node000005"><a xlink:href="xtime_8c.html#a98e839513d271432937e6fdcd28f7c44" target="_top" xlink:title=" ">
<polygon fill="white" stroke="#666666" points="125,-93 0,-93 0,-74 125,-74 125,-93"/>
<text text-anchor="middle" x="62.5" y="-81" font-family="Helvetica,sans-Serif" font-size="10.00">xtime_start_of_month</text>
</a>
</g>
</g>
<!-- Node2&#45;&gt;Node5 -->
<g id="edge4_Node000002_Node000005" class="edge">
<title>Node2&#45;&gt;Node5</title>
<g id="a_edge4_Node000002_Node000005"><a xlink:title=" ">
<path fill="none" stroke="#63b8ff" d="M158.63,-83.5C147.68,-83.5 136.19,-83.5 125.13,-83.5"/>
<polygon fill="#63b8ff" stroke="#63b8ff" points="158.93,-87 168.93,-83.5 158.93,-80 158.93,-87"/>
</a>
</g>
</g>
<!-- Node6 -->
<g id="Node000006" class="node">
<title>Node6</title>
<g id="a_Node000006"><a xlink:href="xtime_8c.html#ae212cc59a4ce221e2fca14a3a698f9ee" target="_top" xlink:title=" ">
<polygon fill="white" stroke="#666666" points="122,-56 3,-56 3,-37 122,-37 122,-56"/>
<text text-anchor="middle" x="62.5" y="-44" font-family="Helvetica,sans-Serif" font-size="10.00">xtime_start_of_week</text>
</a>
</g>
</g>
<!-- Node2&#45;&gt;Node6 -->
<g id="edge5_Node000002_Node000006" class="edge">
<title>Node2&#45;&gt;Node6</title>
<g id="a_edge5_Node000002_Node000006"><a xlink:title=" ">
<path fill="none" stroke="#63b8ff" d="M167.19,-71.57C146.43,-66.56 122.61,-60.79 103.03,-56.06"/>
<polygon fill="#63b8ff" stroke="#63b8ff" points="166.56,-75.02 177.1,-73.97 168.2,-68.22 166.56,-75.02"/>
</a>
</g>
</g>
<!-- Node7 -->
<g id="Node000007" class="node">
<title>Node7</title>
<g id="a_Node000007"><a xlink:href="xtime_8c.html#afea03263303f537ad92b691e9fb0882a" target="_top" xlink:title=" ">
<polygon fill="white" stroke="#666666" points="120,-19 5,-19 5,0 120,0 120,-19"/>
<text text-anchor="middle" x="62.5" y="-7" font-family="Helvetica,sans-Serif" font-size="10.00">xtime_start_of_year</text>
</a>
</g>
</g>
<!-- Node2&#45;&gt;Node7 -->
<g id="edge6_Node000002_Node000007" class="edge">
<title>Node2&#45;&gt;Node7</title>
<g id="a_edge6_Node000002_Node000007"><a xlink:title=" ">
<path fill="none" stroke="#63b8ff" d="M169.29,-70.01C166.41,-68.63 163.62,-67.13 161,-65.5 141.52,-53.38 144.57,-40.48 125,-28.5 118.81,-24.71 111.79,-21.62 104.77,-19.11"/>
<polygon fill="#63b8ff" stroke="#63b8ff" points="168.1,-73.3 178.67,-73.98 170.83,-66.86 168.1,-73.3"/>
</a>
</g>
</g>
</g>
</svg>
</svg>

<style type='text/css'>
<![CDATA[
[data-mouse-over-selected='false'] { opacity: 0.7; }
[data-mouse-over-selected='true']  { opacity: 1.0; }
]]>
</style>
<script type="application/ecmascript"><![CDATA[
document.addEventListener('DOMContentLoaded', (event) => {
  highlightEdges();
  highlightAdjacentNodes();
});
]]></script>
</svg>
