<?xml version="1.0" encoding="UTF-8" standalone="no"?>
<!DOCTYPE svg PUBLIC "-//W3C//DTD SVG 1.1//EN"
 "http://www.w3.org/Graphics/SVG/1.1/DTD/svg11.dtd">
<!-- Generated by graphviz version 2.43.0 (0)
 -->
<!-- Title: xtime_truncate_to_day Pages: 1 -->
<svg width="298pt" height="212pt"
 viewBox="0.00 0.00 298.00 212.00" xmlns="http://www.w3.org/2000/svg" xmlns:xlink="http://www.w3.org/1999/xlink">

<svg id="main" version="1.1" xmlns="http://www.w3.org/2000/svg" xmlns:xlink="http://www.w3.org/1999/xlink" xml:space="preserve" onload="init(evt)">
<style type="text/css"><![CDATA[
.node, .edge {opacity: 0.7;}
.node.selected, .edge.selected {opacity: 1;}
.edge:hover path { stroke: red; }
.edge:hover polygon { stroke: red; fill: red; }
]]></style>
<script type="application/ecmascript" xlink:href="svg.min.js"/>
<svg id="graph" class="graph">
<g id="graph0" class="graph" transform="scale(1 1) rotate(0) translate(4 208)">
<title>xtime_truncate_to_day</title>
<!-- Node1 -->
<g id="Node000001" class="node">
<title>Node1</title>
<g id="a_Node000001"><a xlink:title=" ">
<polygon fill="#999999" stroke="#666666" points="290,-111 161,-111 161,-92 290,-92 290,-111"/>
<text text-anchor="middle" x="225.5" y="-99" font-family="Helvetica,sans-Serif" font-size="10.00">xtime_truncate_to_day</text>
</a>
</g>
</g>
<!-- Node2 -->
<g id="Node000002" class="node">
<title>Node2</title>
<g id="a_Node000002"><a xlink:href="xtime_8c.html#a4706f29f15b7fb2a2a0387b004602d56" target="_top" xlink:title=" ">
<polygon fill="white" stroke="#666666" points="116,-204 9,-204 9,-185 116,-185 116,-204"/>
<text text-anchor="middle" x="62.5" y="-192" font-family="Helvetica,sans-Serif" font-size="10.00">xtime_end_of_day</text>
</a>
</g>
</g>
<!-- Node1&#45;&gt;Node2 -->
<g id="edge1_Node000001_Node000002" class="edge">
<title>Node1&#45;&gt;Node2</title>
<g id="a_edge1_Node000001_Node000002"><a xlink:title=" ">
<path fill="none" stroke="#63b8ff" d="M206.78,-118.04C187.85,-134.91 156.32,-160.77 125,-176.5 118.44,-179.79 111.17,-182.59 104,-184.92"/>
<polygon fill="#63b8ff" stroke="#63b8ff" points="209.26,-120.52 214.32,-111.21 204.56,-115.33 209.26,-120.52"/>
</a>
</g>
</g>
<!-- Node3 -->
<g id="Node000003" class="node">
<title>Node3</title>
<g id="a_Node000003"><a xlink:href="xtime_8c.html#a89dd25607d1043eb94c889c22f416303" target="_top" xlink:title=" ">
<polygon fill="white" stroke="#666666" points="122.5,-167 2.5,-167 2.5,-148 122.5,-148 122.5,-167"/>
<text text-anchor="middle" x="62.5" y="-155" font-family="Helvetica,sans-Serif" font-size="10.00">xtime_end_of_month</text>
</a>
</g>
</g>
<!-- Node1&#45;&gt;Node3 -->
<g id="edge2_Node000001_Node000003" class="edge">
<title>Node1&#45;&gt;Node3</title>
<g id="a_edge2_Node000001_Node000003"><a xlink:title=" ">
<path fill="none" stroke="#63b8ff" d="M191.45,-114.88C172.2,-122.49 147.38,-131.96 125,-139.5 116.25,-142.45 106.71,-145.37 97.81,-147.99"/>
<polygon fill="#63b8ff" stroke="#63b8ff" points="192.97,-118.05 200.97,-111.1 190.38,-111.54 192.97,-118.05"/>
</a>
</g>
</g>
<!-- Node4 -->
<g id="Node000004" class="node">
<title>Node4</title>
<g id="a_Node000004"><a xlink:href="xtime_8c.html#af1d668ba6ff781453b81cedfa8d1e3ee" target="_top" xlink:title=" ">
<polygon fill="white" stroke="#666666" points="117.5,-130 7.5,-130 7.5,-111 117.5,-111 117.5,-130"/>
<text text-anchor="middle" x="62.5" y="-118" font-family="Helvetica,sans-Serif" font-size="10.00">xtime_end_of_year</text>
</a>
</g>
</g>
<!-- Node1&#45;&gt;Node4 -->
<g id="edge3_Node000001_Node000004" class="edge">
<title>Node1&#45;&gt;Node4</title>
<g id="a_edge3_Node000001_Node000004"><a xlink:title=" ">
<path fill="none" stroke="#63b8ff" d="M150.7,-110.21C139.54,-111.53 128.21,-112.86 117.58,-114.12"/>
<polygon fill="#63b8ff" stroke="#63b8ff" points="151.35,-113.66 160.87,-109.01 150.53,-106.71 151.35,-113.66"/>
</a>
</g>
</g>
<!-- Node5 -->
<g id="Node000005" class="node">
<title>Node5</title>
<g id="a_Node000005"><a xlink:href="xtime_8c.html#a98e839513d271432937e6fdcd28f7c44" target="_top" xlink:title=" ">
<polygon fill="white" stroke="#666666" points="125,-93 0,-93 0,-74 125,-74 125,-93"/>
<text text-anchor="middle" x="62.5" y="-81" font-family="Helvetica,sans-Serif" font-size="10.00">xtime_start_of_month</text>
</a>
</g>
</g>
<!-- Node1&#45;&gt;Node5 -->
<g id="edge4_Node000001_Node000005" class="edge">
<title>Node1&#45;&gt;Node5</title>
<g id="a_edge4_Node000001_Node000005"><a xlink:title=" ">
<path fill="none" stroke="#63b8ff" d="M150.84,-93.26C142.23,-92.3 133.51,-91.33 125.09,-90.39"/>
<polygon fill="#63b8ff" stroke="#63b8ff" points="150.54,-96.75 160.87,-94.39 151.32,-89.8 150.54,-96.75"/>
</a>
</g>
</g>
<!-- Node6 -->
<g id="Node000006" class="node">
<title>Node6</title>
<g id="a_Node000006"><a xlink:href="xtime_8c.html#ae212cc59a4ce221e2fca14a3a698f9ee" target="_top" xlink:title=" ">
<polygon fill="white" stroke="#666666" points="122,-56 3,-56 3,-37 122,-37 122,-56"/>
<text text-anchor="middle" x="62.5" y="-44" font-family="Helvetica,sans-Serif" font-size="10.00">xtime_start_of_week</text>
</a>
</g>
</g>
<!-- Node1&#45;&gt;Node6 -->
<g id="edge5_Node000001_Node000006" class="edge">
<title>Node1&#45;&gt;Node6</title>
<g id="a_edge5_Node000001_Node000006"><a xlink:title=" ">
<path fill="none" stroke="#63b8ff" d="M189.8,-88.49C170.74,-81.46 146.66,-72.76 125,-65.5 115.46,-62.3 105.03,-59.01 95.51,-56.07"/>
<polygon fill="#63b8ff" stroke="#63b8ff" points="188.67,-91.8 199.26,-91.99 191.1,-85.24 188.67,-91.8"/>
</a>
</g>
</g>
<!-- Node7 -->
<g id="Node000007" class="node">
<title>Node7</title>
<g id="a_Node000007"><a xlink:href="xtime_8c.html#afea03263303f537ad92b691e9fb0882a" target="_top" xlink:title=" ">
<polygon fill="white" stroke="#666666" points="120,-19 5,-19 5,0 120,0 120,-19"/>
<text text-anchor="middle" x="62.5" y="-7" font-family="Helvetica,sans-Serif" font-size="10.00">xtime_start_of_year</text>
</a>
</g>
</g>
<!-- Node1&#45;&gt;Node7 -->
<g id="edge6_Node000001_Node000007" class="edge">
<title>Node1&#45;&gt;Node7</title>
<g id="a_edge6_Node000001_Node000007"><a xlink:title=" ">
<path fill="none" stroke="#63b8ff" d="M206.35,-85.26C187.28,-68.93 155.84,-44.02 125,-28.5 117.61,-24.78 109.36,-21.63 101.35,-19.02"/>
<polygon fill="#63b8ff" stroke="#63b8ff" points="204.11,-87.95 213.95,-91.88 208.71,-82.67 204.11,-87.95"/>
</a>
</g>
</g>
</g>
</svg>
</svg>

<style type='text/css'>
<![CDATA[
[data-mouse-over-selected='false'] { opacity: 0.7; }
[data-mouse-over-selected='true']  { opacity: 1.0; }
]]>
</style>
<script type="application/ecmascript"><![CDATA[
document.addEventListener('DOMContentLoaded', (event) => {
  highlightEdges();
  highlightAdjacentNodes();
});
]]></script>
</svg>
