<?xml version="1.0" encoding="UTF-8" standalone="no"?>
<!DOCTYPE svg PUBLIC "-//W3C//DTD SVG 1.1//EN"
 "http://www.w3.org/Graphics/SVG/1.1/DTD/svg11.dtd">
<!-- Generated by graphviz version 2.43.0 (0)
 -->
<!-- Title: xtime_add_nanoseconds Pages: 1 -->
<svg width="322pt" height="64pt"
 viewBox="0.00 0.00 322.00 64.00" xmlns="http://www.w3.org/2000/svg" xmlns:xlink="http://www.w3.org/1999/xlink">
<g id="graph0" class="graph" transform="scale(1 1) rotate(0) translate(4 60)">
<title>xtime_add_nanoseconds</title>
<!-- Node1 -->
<g id="Node000001" class="node">
<title>Node1</title>
<g id="a_Node000001"><a xlink:title=" ">
<polygon fill="#999999" stroke="#666666" points="314,-37 177,-37 177,-18 314,-18 314,-37"/>
<text text-anchor="middle" x="245.5" y="-25" font-family="Helvetica,sans-Serif" font-size="10.00">xtime_add_nanoseconds</text>
</a>
</g>
</g>
<!-- Node2 -->
<g id="Node000002" class="node">
<title>Node2</title>
<g id="a_Node000002"><a xlink:href="xtime_8c.html#aeb3aa2f5a8c28ce00350bc994bf55b6d" target="_top" xlink:title=" ">
<polygon fill="white" stroke="#666666" points="141,-56 0,-56 0,-37 141,-37 141,-56"/>
<text text-anchor="middle" x="70.5" y="-44" font-family="Helvetica,sans-Serif" font-size="10.00">xtime_add_microseconds</text>
</a>
</g>
</g>
<!-- Node1&#45;&gt;Node2 -->
<g id="edge1_Node000001_Node000002" class="edge">
<title>Node1&#45;&gt;Node2</title>
<g id="a_edge1_Node000001_Node000002"><a xlink:title=" ">
<path fill="none" stroke="#63b8ff" d="M166.43,-36.07C158.01,-37 149.48,-37.94 141.17,-38.85"/>
<polygon fill="#63b8ff" stroke="#63b8ff" points="167.06,-39.53 176.62,-34.95 166.3,-32.57 167.06,-39.53"/>
</a>
</g>
</g>
<!-- Node3 -->
<g id="Node000003" class="node">
<title>Node3</title>
<g id="a_Node000003"><a xlink:href="xtime_8c.html#a80a544a3e6087d69cc8bd208b29febce" target="_top" xlink:title=" ">
<polygon fill="white" stroke="#666666" points="138,-19 3,-19 3,0 138,0 138,-19"/>
<text text-anchor="middle" x="70.5" y="-7" font-family="Helvetica,sans-Serif" font-size="10.00">xtime_add_milliseconds</text>
</a>
</g>
</g>
<!-- Node1&#45;&gt;Node3 -->
<g id="edge2_Node000001_Node000003" class="edge">
<title>Node1&#45;&gt;Node3</title>
<g id="a_edge2_Node000001_Node000003"><a xlink:title=" ">
<path fill="none" stroke="#63b8ff" d="M166.42,-19.38C156.94,-18.39 147.33,-17.39 138.05,-16.42"/>
<polygon fill="#63b8ff" stroke="#63b8ff" points="166.31,-22.88 176.62,-20.44 167.04,-15.92 166.31,-22.88"/>
</a>
</g>
</g>
</g>
</svg>
